<svg width="35" height="35" viewBox="0 0 35 35" fill="none" xmlns="http://www.w3.org/2000/svg">
<path d="M17.5 32.8125C9.05625 32.8125 2.1875 25.9438 2.1875 17.5C2.1875 9.05625 9.05625 2.1875 17.5 2.1875C25.9438 2.1875 32.8125 9.05625 32.8125 17.5C32.8125 25.9438 25.9438 32.8125 17.5 32.8125ZM17.5 4.375C10.2594 4.375 4.375 10.2594 4.375 17.5C4.375 24.7406 10.2594 30.625 17.5 30.625C24.7406 30.625 30.625 24.7406 30.625 17.5C30.625 10.2594 24.7406 4.375 17.5 4.375Z" fill="#332E2D"/>
<path d="M17.5 25.1562C16.8875 25.1562 16.4062 24.675 16.4062 24.0625V10.9375C16.4062 10.325 16.8875 9.84375 17.5 9.84375C18.1125 9.84375 18.5938 10.325 18.5938 10.9375V24.0625C18.5938 24.675 18.1125 25.1562 17.5 25.1562Z" fill="#332E2D"/>
<path d="M24.0625 18.5938H10.9375C10.325 18.5938 9.84375 18.1125 9.84375 17.5C9.84375 16.8875 10.325 16.4062 10.9375 16.4062H24.0625C24.675 16.4062 25.1562 16.8875 25.1562 17.5C25.1562 18.1125 24.675 18.5938 24.0625 18.5938Z" fill="#332E2D"/>
</svg>
