<svg width="39" height="34" viewBox="0 0 39 34" fill="none" xmlns="http://www.w3.org/2000/svg">
<path d="M27.6674 1H15.0705C12.2874 1.00138 9.61881 1.93845 7.65123 3.60528C5.68365 5.27211 4.5781 7.53229 4.57756 9.88908V24.1109C4.57756 29.0199 9.2756 33 15.0726 33H27.6695C33.4664 33 38.1665 29.0216 38.1665 24.1109V9.89081C38.1665 4.98184 33.4685 1.00173 27.6695 1.00173M1.42578 10.7782H7.7232M1.42578 23.2218H7.7232" stroke="#332E2D" stroke-width="1.5" stroke-linecap="round" stroke-linejoin="round"/>
<path d="M27.5003 25.8891C27.5003 22.9717 24.3754 20.6015 21.5744 20.6015C18.7733 20.6015 15.6484 22.9717 15.6484 25.8873M21.5744 16.3993C22.0972 16.3993 22.6149 16.2921 23.0979 16.0838C23.5809 15.8756 24.0198 15.5703 24.3895 15.1855C24.7591 14.8007 25.0524 14.3439 25.2525 13.8411C25.4525 13.3384 25.5555 12.7995 25.5555 12.2553C25.5555 11.7111 25.4525 11.1722 25.2525 10.6695C25.0524 10.1667 24.7591 9.70987 24.3895 9.32507C24.0198 8.94027 23.5809 8.63502 23.0979 8.42677C22.6149 8.21852 22.0972 8.11133 21.5744 8.11133C20.5185 8.11133 19.5059 8.54792 18.7593 9.32507C18.0127 10.1022 17.5932 11.1563 17.5932 12.2553C17.5932 13.3543 18.0127 14.4084 18.7593 15.1855C19.5059 15.9627 20.5185 16.3993 21.5744 16.3993Z" stroke="#332E2D" stroke-width="2.1875" stroke-linecap="round" stroke-linejoin="round"/>
</svg>
