<svg width="37" height="34" viewBox="0 0 37 34" fill="none" xmlns="http://www.w3.org/2000/svg">
<path d="M28.7656 14.6035C31.1657 14.2024 33.0135 11.755 33.0187 8.78981C33.0187 5.86761 31.2277 3.44471 28.8792 2.98633" stroke="#332E2D" stroke-width="2" stroke-linecap="round" stroke-linejoin="round"/>
<path d="M31.9258 21.4629C34.2502 21.8763 35.8726 22.8442 35.8726 24.8394C35.8726 26.2125 35.1087 27.1047 33.8734 27.6654" stroke="#332E2D" stroke-width="2" stroke-linecap="round" stroke-linejoin="round"/>
<path fill-rule="evenodd" clip-rule="evenodd" d="M18.4439 22.3105C12.9142 22.3105 8.19141 23.3071 8.19141 27.2873C8.19141 31.2654 12.8849 32.2907 18.4439 32.2907C23.9735 32.2907 28.6946 31.3043 28.6946 27.3221C28.6946 23.3399 24.0028 22.3105 18.4439 22.3105Z" stroke="#332E2D" stroke-width="2" stroke-linecap="round" stroke-linejoin="round"/>
<path fill-rule="evenodd" clip-rule="evenodd" d="M18.4378 16.6301C22.0663 16.6301 25.0084 13.1329 25.0084 8.81506C25.0084 4.49928 22.0663 1 18.4378 1C14.8093 1 11.8672 4.49928 11.8672 8.81506C11.8535 13.1165 14.7732 16.6158 18.3896 16.6301H18.4378Z" stroke="#332E2D" stroke-width="2" stroke-linecap="round" stroke-linejoin="round"/>
<path d="M8.11635 14.6035C5.71454 14.2024 3.86844 11.755 3.86328 8.78981C3.86328 5.86761 5.65432 3.44471 8.0028 2.98633" stroke="#332E2D" stroke-width="2" stroke-linecap="round" stroke-linejoin="round"/>
<path d="M4.94682 21.4629C2.62243 21.8763 1 22.8442 1 24.8394C1 26.2125 1.7639 27.1047 2.99922 27.6654" stroke="#332E2D" stroke-width="2" stroke-linecap="round" stroke-linejoin="round"/>
</svg>
