<svg width="38" height="38" viewBox="0 0 38 38" fill="none" xmlns="http://www.w3.org/2000/svg">
<path d="M3 28C3 29.0609 3.42143 30.0783 4.17157 30.8284C4.92172 31.5786 5.93913 32 7 32C8.06087 32 9.07828 31.5786 9.82843 30.8284C10.5786 30.0783 11 29.0609 11 28C11 26.9391 10.5786 25.9217 9.82843 25.1716C9.07828 24.4214 8.06087 24 7 24C5.93913 24 4.92172 24.4214 4.17157 25.1716C3.42143 25.9217 3 26.9391 3 28Z" stroke="#161616" stroke-width="2" stroke-linecap="round" stroke-linejoin="round"/>
<path d="M12.9298 37C12.3532 35.929 11.4937 35.0334 10.443 34.4089C9.39238 33.7844 8.19016 33.4545 6.96491 33.4545C5.73966 33.4545 4.53744 33.7844 3.4868 34.4089C2.43616 35.0334 1.57659 35.929 1 37M26.6491 28.1364C26.6491 28.6796 26.7571 29.2174 26.967 29.7193C27.1768 30.2211 27.4844 30.6771 27.8721 31.0612C28.2598 31.4453 28.7201 31.75 29.2267 31.9579C29.7333 32.1657 30.2762 32.2727 30.8246 32.2727C31.3729 32.2727 31.9158 32.1657 32.4224 31.9579C32.929 31.75 33.3893 31.4453 33.777 31.0612C34.1648 30.6771 34.4723 30.2211 34.6822 29.7193C34.892 29.2174 35 28.6796 35 28.1364C35 27.0393 34.5601 25.9872 33.777 25.2115C32.994 24.4358 31.932 24 30.8246 24C29.7172 24 28.6551 24.4358 27.8721 25.2115C27.089 25.9872 26.6491 27.0393 26.6491 28.1364Z" stroke="#161616" stroke-width="2" stroke-linecap="round" stroke-linejoin="round"/>
<path d="M37 37C36.4238 35.9125 35.5647 35.0031 34.5147 34.369C33.4647 33.735 32.2633 33.4 31.0388 33.4C29.8143 33.4 28.6128 33.735 27.5628 34.369C26.5128 35.0031 25.6538 35.9125 25.0775 37M24.2811 13C23.6439 12.2474 22.8519 11.6429 21.9599 11.2284C21.0679 10.8139 20.0972 10.5993 19.1147 10.5993C18.1322 10.5993 17.1615 10.8139 16.2695 11.2284C15.3775 11.6429 14.5855 12.2474 13.9483 13M14.4284 31.3312C17.473 32.499 20.8398 32.4888 23.8773 31.3024M10.1331 9.4C8.82829 10.6304 7.78823 12.1173 7.0773 13.7685C6.36637 15.4198 5.99971 17.2004 6 19C6 19.4048 6.02385 19.8 6.06041 20.2M32.1706 20.2C32.2056 19.8032 32.231 19.4 32.231 19C32.2313 17.2004 31.8646 15.4198 31.1537 13.7685C30.4428 12.1173 29.4027 10.6304 28.0979 9.4M14.9434 5.2C14.9434 5.75155 15.0514 6.2977 15.2611 6.80727C15.4708 7.31684 15.7782 7.77984 16.1656 8.16985C16.5531 8.55985 17.0131 8.86922 17.5194 9.08029C18.0257 9.29136 18.5683 9.4 19.1163 9.4C19.6643 9.4 20.2069 9.29136 20.7132 9.08029C21.2195 8.86922 21.6795 8.55985 22.067 8.16985C22.4544 7.77984 22.7618 7.31684 22.9715 6.80727C23.1812 6.2977 23.2892 5.75155 23.2892 5.2C23.2892 4.08609 22.8495 3.0178 22.067 2.23015C21.2844 1.4425 20.223 1 19.1163 1C18.0096 1 16.9482 1.4425 16.1656 2.23015C15.3831 3.0178 14.9434 4.08609 14.9434 5.2Z" stroke="#161616" stroke-width="2" stroke-linecap="round" stroke-linejoin="round"/>
</svg>
