<svg width="33" height="33" viewBox="0 0 33 33" fill="none" xmlns="http://www.w3.org/2000/svg">
<path d="M15.1352 29.7077H13.0906C7.8625 29.7077 5.24917 29.7077 3.62458 28.0525C2 26.3973 2 23.7329 2 18.4056C2 13.0783 2 10.4139 3.62458 8.75872C5.24917 7.10352 7.8625 7.10352 13.0906 7.10352H18.6367C23.8648 7.10352 26.4796 7.10352 28.1042 8.75872C29.354 10.0318 29.6413 11.9029 29.7083 15.1243" stroke="#332E2D" stroke-width="2.1875" stroke-linecap="round" stroke-linejoin="round"/>
<path d="M28.2761 28.2835L31.168 31.1667M22.418 7.10417L22.2721 6.65208C21.5503 4.40625 21.1901 3.28333 20.3311 2.64167C19.4707 2 18.3303 2 16.0451 2H15.6615C13.3792 2 12.2373 2 11.3784 2.64167C10.518 3.28333 10.1578 4.40625 9.43589 6.65208L9.29297 7.10417M29.7869 24.6421C29.7984 23.9594 29.6739 23.2813 29.4206 22.6473C29.1673 22.0133 28.7903 21.436 28.3116 20.9492C27.8329 20.4624 27.2621 20.0757 26.6324 19.8118C26.0028 19.5479 25.3269 19.4119 24.6441 19.4119C23.9614 19.4119 23.2855 19.5479 22.6558 19.8118C22.0261 20.0757 21.4553 20.4624 20.9766 20.9492C20.4979 21.436 20.1209 22.0133 19.8676 22.6473C19.6143 23.2813 19.4898 23.9594 19.5013 24.6421C19.524 25.991 20.0758 27.2771 21.0378 28.223C21.9998 29.1689 23.295 29.699 24.6441 29.699C25.9933 29.699 27.2884 29.1689 28.2504 28.223C29.2124 27.2771 29.7642 25.991 29.7869 24.6421Z" stroke="#332E2D" stroke-width="2.1875" stroke-linecap="round" stroke-linejoin="round"/>
</svg>
