<svg width="727" height="757" viewBox="0 0 727 757" fill="none" xmlns="http://www.w3.org/2000/svg">
<g opacity="0.05">
<path d="M683.743 58.8608C683.487 56.7442 682.071 54.9725 680.224 54.2015C616.242 31.001 459.594 74.0767 369.878 149.947C353.855 163.391 339.057 178.239 325.616 194.272C300.567 189.368 275.125 188.719 252.66 196.158C189.316 217.382 165.019 287.454 157.143 317.763C155.585 323.641 158.966 329.796 164.794 331.441C165.79 331.66 166.785 331.879 167.802 331.867L266.401 330.883C265.812 338.486 265.558 346.124 265.651 353.682C265.62 358.904 267.511 364.092 270.748 368.142L304.949 410.8C308.186 414.85 312.77 417.761 317.757 418.74C324.948 420.294 332.171 421.503 339.538 422.378L319.547 521.576C318.314 527.604 322.163 533.574 328.034 534.76C329.03 534.979 330.036 535.083 330.951 534.945C361.364 533.086 433.013 522.124 465.393 462.291C476.831 441.059 481.121 415.373 481.386 389.273C499.39 378.82 516.425 366.641 532.336 353.185C622.254 277.568 692.973 131.227 683.743 58.8608ZM535.347 252.121C512.459 271.476 478.469 268.089 459.563 244.309C440.535 220.633 443.763 185.664 466.773 166.205C489.672 146.734 523.652 150.237 542.669 174.028C561.575 197.808 558.347 232.776 535.347 252.121Z" fill="#8A63E6"/>
<path fill-rule="evenodd" clip-rule="evenodd" d="M112.985 622.775C125.043 620.677 136.022 615.357 145.919 606.817C157.159 597.119 164.599 585.429 168.238 571.747C171.709 558.209 173.255 542.34 172.873 524.141C190.365 527.576 206.016 528.607 219.824 527.235C233.465 526.008 245.905 520.545 257.145 510.847C272.243 497.82 280.517 481.575 281.969 462.114C283.42 442.653 277.289 424.623 263.576 408.023C250.171 391.796 233.885 382.688 214.714 380.7C195.544 378.712 178.411 384.233 163.313 397.26C151.905 407.103 144.465 418.793 140.994 432.33C137.522 445.868 135.976 461.737 136.357 479.937C118.866 476.501 103.299 475.397 89.6587 476.624C75.8507 477.996 63.3272 483.532 52.0871 493.231C36.9891 506.258 28.7137 522.501 27.2631 541.964C26.2268 555.853 29.0541 569.014 35.7431 581.446L69.8827 551.989C69.5044 549.747 69.4086 547.487 69.5965 545.208C70.0783 537.445 73.8433 530.522 80.8891 524.443C87.5987 518.654 95.5004 515.35 104.595 514.531C113.689 513.712 124.659 514.47 137.504 516.803C137.419 530.613 136.31 541.793 134.177 550.342C132.031 559.221 127.519 566.629 120.641 572.564C115.943 576.617 110.985 579.138 105.768 580.126C101.135 581.2 96.6296 580.828 92.2528 579.009L58.2152 608.378C63.9939 612.892 70.2523 616.384 76.989 618.854C88.9274 623.567 100.926 624.875 112.985 622.775ZM174.55 454.17C176.865 445.145 181.377 437.738 188.088 431.947C195.301 425.723 202.778 422.946 210.514 423.618C218.406 424.475 225.357 428.541 231.366 435.815C237.375 443.089 240.054 450.681 239.404 458.589C238.908 466.684 235.053 473.844 227.84 480.068C221.296 485.714 213.479 488.945 204.385 489.764C195.123 490.727 184.153 489.969 171.475 487.492C171.365 474.489 172.391 463.381 174.55 454.17Z" fill="#8A63E6"/>
</g>
<g opacity="0.05">
<path d="M295.724 629.987C295.674 629.186 295.18 628.49 294.503 628.16C270.975 618.053 211.197 630.825 175.847 657.371C169.536 662.073 163.654 667.328 158.256 673.058C148.954 670.67 139.412 669.873 130.811 672.178C106.556 678.772 95.9046 704.564 92.2867 715.778C91.5735 717.952 92.7096 720.337 94.8631 721.082C95.2323 721.186 95.6014 721.29 95.9835 721.308L133.041 723.083C132.655 725.927 132.393 728.79 132.263 731.631C132.138 733.592 132.735 735.582 133.863 737.173L145.782 753.941C146.909 755.533 148.568 756.726 150.42 757.202C153.087 757.942 155.774 758.554 158.522 759.043L148.855 795.869C148.26 798.106 149.576 800.433 151.756 801.006C152.125 801.11 152.5 801.171 152.847 801.139C164.311 801.102 191.463 798.544 204.927 776.774C209.686 769.047 211.856 759.492 212.524 749.694C219.514 746.16 226.178 741.956 232.447 737.248C267.868 710.801 297.616 657.37 295.724 629.987ZM235.777 699.351C226.759 706.123 214.065 704.111 207.481 694.767C200.849 685.46 202.822 672.395 211.889 665.587C220.914 658.771 233.601 660.826 240.227 670.177C246.811 679.52 244.838 692.585 235.777 699.351Z" fill="#8A63E6"/>
<path fill-rule="evenodd" clip-rule="evenodd" d="M69.062 829.389C73.637 828.863 77.8765 827.104 81.7801 824.111C86.2131 820.713 89.262 816.484 90.9266 811.424C92.5251 806.414 93.451 800.487 93.7036 793.643C100.199 795.314 106.056 796.042 111.272 795.827C116.423 795.662 121.214 793.881 125.647 790.483C131.602 785.918 135.064 779.996 136.032 772.718C137.001 765.439 135.09 758.533 130.301 752C125.619 745.613 119.699 741.837 112.541 740.673C105.384 739.509 98.8281 741.21 92.8735 745.775C88.3743 749.224 85.3253 753.453 83.7268 758.463C82.1282 763.472 81.2024 769.399 80.9492 776.244C74.4539 774.573 68.6308 773.819 63.4804 773.983C58.2639 774.198 53.4393 776.005 49.0062 779.404C43.0516 783.968 39.5897 789.89 38.6213 797.169C37.9298 802.363 38.7054 807.368 40.9474 812.184L54.4121 801.862C54.3187 801.012 54.3319 800.161 54.4521 799.309C54.802 796.403 56.3669 793.885 59.1458 791.754C61.792 789.726 64.832 788.657 68.2658 788.547C71.6995 788.437 75.8036 788.961 80.578 790.117C80.2453 795.302 79.5855 799.478 78.5985 802.642C77.5991 805.931 75.7431 808.615 73.0303 810.695C71.1774 812.115 69.2605 812.954 67.2791 813.212C65.5155 813.515 63.8313 813.277 62.2269 812.498L48.8024 822.789C50.8748 824.611 53.1496 826.058 55.6264 827.133C60.0081 829.163 64.4865 829.915 69.062 829.389ZM95.8562 767.396C96.9221 764.057 98.7781 761.372 101.425 759.343C104.27 757.163 107.138 756.282 110.03 756.703C112.976 757.197 115.498 758.875 117.597 761.738C119.696 764.601 120.537 767.511 120.12 770.468C119.758 773.497 118.154 776.103 115.309 778.284C112.729 780.262 109.722 781.306 106.288 781.415C102.788 781.576 98.6843 781.052 93.976 779.846C94.2176 774.959 94.8447 770.809 95.8562 767.396Z" fill="#8A63E6"/>
</g>
<g opacity="0.05">
<path d="M724.265 466.518C724.141 465.493 723.455 464.635 722.56 464.261C691.561 453.021 615.665 473.89 572.198 510.649C564.435 517.163 557.265 524.356 550.753 532.124C538.617 529.748 526.29 529.434 515.406 533.038C484.716 543.321 472.944 577.27 469.128 591.955C468.374 594.802 470.012 597.784 472.836 598.582C473.318 598.688 473.8 598.794 474.293 598.788L522.064 598.311C521.778 601.995 521.656 605.696 521.7 609.357C521.685 611.887 522.601 614.401 524.17 616.363L540.74 637.031C542.309 638.993 544.529 640.403 546.946 640.877C550.43 641.63 553.929 642.216 557.498 642.64L547.813 690.701C547.215 693.621 549.08 696.514 551.925 697.088C552.407 697.194 552.895 697.245 553.338 697.178C568.073 696.277 602.787 690.966 618.474 661.978C624.016 651.691 626.095 639.246 626.223 626.601C634.946 621.536 643.199 615.636 650.908 609.116C694.473 572.481 728.736 501.58 724.265 466.518ZM652.367 560.151C641.278 569.529 624.81 567.888 615.65 556.367C606.431 544.896 607.995 527.954 619.143 518.526C630.238 509.093 646.701 510.789 655.915 522.316C665.074 533.837 663.51 550.779 652.367 560.151Z" fill="#8A63E6"/>
<path fill-rule="evenodd" clip-rule="evenodd" d="M447.738 739.733C453.58 738.716 458.899 736.139 463.695 732.002C469.14 727.303 472.745 721.639 474.508 715.01C476.19 708.451 476.939 700.763 476.754 691.946C485.229 693.61 492.811 694.109 499.501 693.445C506.11 692.85 512.137 690.203 517.583 685.505C524.898 679.193 528.907 671.323 529.61 661.894C530.313 652.465 527.343 643.73 520.699 635.687C514.204 627.825 506.314 623.413 497.025 622.449C487.738 621.486 479.437 624.161 472.122 630.473C466.595 635.242 462.99 640.905 461.308 647.464C459.626 654.023 458.877 661.711 459.062 670.529C450.587 668.864 443.045 668.329 436.437 668.924C429.747 669.589 423.679 672.271 418.233 676.97C410.918 683.281 406.909 691.151 406.206 700.58C405.704 707.31 407.074 713.686 410.315 719.709L426.855 705.438C426.672 704.352 426.625 703.257 426.717 702.152C426.95 698.391 428.774 695.037 432.188 692.092C435.438 689.287 439.267 687.686 443.673 687.289C448.079 686.893 453.394 687.26 459.618 688.39C459.576 695.081 459.039 700.498 458.006 704.64C456.966 708.942 454.78 712.53 451.447 715.406C449.171 717.37 446.769 718.591 444.241 719.07C441.997 719.59 439.814 719.41 437.693 718.528L421.202 732.758C424.002 734.945 427.034 736.636 430.298 737.833C436.082 740.117 441.895 740.75 447.738 739.733ZM477.566 658.045C478.688 653.672 480.874 650.084 484.125 647.278C487.62 644.263 491.242 642.917 494.991 643.243C498.814 643.658 502.182 645.628 505.093 649.152C508.005 652.676 509.303 656.354 508.987 660.186C508.748 664.108 506.88 667.577 503.385 670.592C500.215 673.328 496.427 674.893 492.021 675.29C487.534 675.756 482.219 675.39 476.076 674.189C476.023 667.889 476.52 662.508 477.566 658.045Z" fill="#8A63E6"/>
</g>
</svg>
