<svg width="586" height="118" viewBox="0 0 586 118" fill="none" xmlns="http://www.w3.org/2000/svg">
<path d="M128.959 357.174C124.951 310.546 146.025 221.016 262.387 235.92C407.84 254.55 449.167 304.259 515.76 240.065C569.034 188.71 690.74 237.037 744.933 267.621M124.616 350.163C120.647 303.545 141.77 214.028 258.012 228.901C403.315 247.492 444.565 297.182 511.145 232.984C564.408 181.627 685.963 229.916 740.083 260.48M119.766 343.022C115.866 296.32 137.132 206.626 253.397 221.471C398.728 240.028 439.919 289.79 506.621 225.442C559.983 173.964 681.513 222.284 735.607 252.879M115.269 335.382C111.34 288.775 132.511 199.269 248.633 214.112C393.785 232.664 434.959 282.334 501.525 218.134C554.778 166.773 676.183 215.023 730.229 245.569M109.912 328.111C105.943 281.493 127.066 191.976 243.308 206.849C388.611 225.44 429.861 275.13 496.44 210.932C549.704 159.575 671.259 207.864 725.379 238.428M105.062 320.97C101.093 274.352 122.215 184.835 238.458 199.708C383.761 218.299 425.011 267.989 491.59 203.791C544.854 152.434 666.409 200.723 720.529 231.287M100.255 313.84C96.2471 267.212 117.321 177.683 233.684 192.586C379.137 211.216 420.464 260.925 487.056 196.732C540.33 145.377 662.036 193.704 716.23 224.287M95.3616 306.688C91.3926 260.071 112.515 170.553 228.757 185.426C374.06 204.017 415.311 253.707 481.89 189.51C535.153 138.152 656.709 186.441 710.829 217.005M90.5553 299.559C86.5471 252.931 107.621 163.401 223.984 178.305C369.437 196.934 410.764 246.643 477.356 182.45C530.63 131.095 652.336 179.422 706.53 210.005M86.1688 292.536C82.239 245.929 103.41 156.424 219.532 171.266C364.685 189.819 405.859 239.488 472.425 175.288C525.678 123.927 647.082 172.178 701.128 202.723M80.8117 285.265C76.9116 238.563 98.1775 148.87 214.442 163.715C359.773 182.271 400.965 232.033 467.667 167.685C521.028 116.207 642.558 164.528 696.653 195.123M76.3586 277.637C72.3896 231.019 93.5122 141.502 209.754 156.375C355.057 174.966 396.308 224.655 462.887 160.458C516.15 109.101 637.706 157.389 691.826 187.954M71.5082 270.496C67.5392 223.878 88.6618 134.36 204.904 149.233C350.207 167.825 391.457 217.514 458.037 153.317C511.3 101.959 632.856 150.248 686.975 180.812M66.6582 263.355C62.6892 216.737 83.8118 127.22 200.054 142.093C345.357 160.684 386.607 210.373 453.187 146.176C506.45 94.8185 628.005 143.107 682.125 173.671M61.8518 256.225C57.8436 209.597 78.9178 120.067 195.28 134.971C340.733 153.601 382.06 203.31 448.653 139.116C501.927 87.7615 623.633 136.089 677.826 166.672M56.4507 248.943C52.4425 202.315 73.5167 112.785 189.879 127.689C335.332 146.318 376.659 196.028 443.252 131.834C496.526 80.479 618.232 128.806 672.425 159.39M52.1078 241.932C48.1388 195.314 69.2614 105.797 185.504 120.67C330.807 139.261 372.057 188.95 438.636 124.753C491.9 73.3955 613.455 121.684 667.575 152.248M47.2581 234.791C43.2891 188.173 64.4117 98.656 180.654 113.529C325.957 132.12 367.207 181.81 433.787 117.613C487.05 66.2549 608.605 114.544 662.725 145.108M42.4077 227.65C38.5075 180.948 59.7734 91.2543 176.038 106.099C321.369 124.656 362.561 174.418 429.263 110.07C482.624 58.5918 604.154 106.912 658.249 137.507M37.9988 220.033C33.9906 173.405 55.0648 83.8751 171.427 98.7789C316.88 117.409 358.207 167.118 424.8 102.924C478.074 51.5692 599.78 99.8967 653.973 130.48M33.061 212.869C29.1313 166.262 50.3023 76.7565 166.425 91.5987C311.577 110.151 352.751 159.821 419.317 95.6206C472.57 44.2603 593.975 92.5104 648.021 123.056M27.7476 205.609C23.7394 158.982 44.8136 69.4517 161.176 84.3555C306.629 102.985 347.956 152.694 414.549 88.5007C467.823 37.1458 589.529 85.4733 643.722 116.056M23.4046 198.599C19.4357 151.981 40.5582 62.4635 156.801 77.3365C302.103 95.9277 343.354 145.617 409.933 81.4201C463.197 30.0624 584.752 78.3512 638.872 108.915M18.5551 191.458C14.5861 144.84 35.7087 55.3227 151.951 70.1957C297.254 88.787 338.504 138.476 405.084 74.2793C458.347 22.9217 579.902 71.2105 634.022 101.775M13.7046 184.317C9.73565 137.699 30.8582 48.1817 147.101 63.0546C292.403 81.6459 333.654 131.335 400.233 67.1382C453.497 15.7806 575.052 64.0694 629.172 94.6335M8.85469 177.176C4.8857 130.558 26.0083 41.0406 142.251 55.9136C287.553 74.5049 328.804 124.194 395.383 59.9972C448.647 8.63957 570.202 56.9284 624.322 87.4925M3.96101 170.024C0.100084 123.331 21.4145 33.6504 137.559 48.4648C282.74 66.9828 323.855 116.725 390.544 52.3738C443.895 0.892734 565.274 49.1746 619.294 79.7506M-0.956241 162.276C-4.96444 115.648 16.1098 26.118 132.472 41.0219C277.925 59.6516 319.252 109.361 385.845 45.1671C439.119 -6.18783 560.825 42.1396 615.018 72.7227M-5.84946 155.124C-9.81845 108.506 11.3041 18.9886 127.546 33.8616C272.849 52.4528 314.1 102.142 380.679 37.9452C433.942 -13.4125 555.498 34.8763 609.618 65.4405M-10.6563 147.994C-14.6645 101.366 6.40974 11.8362 122.772 26.7401C268.225 45.3698 309.552 95.0789 376.145 30.8852C429.419 -20.4696 551.125 27.8578 605.318 58.4409M133.765 364.303C129.796 317.686 150.919 228.168 267.161 243.041C412.464 261.632 453.714 311.322 520.293 247.125C573.557 195.767 695.112 244.056 749.232 274.62M-14.9984 140.984C-18.9674 94.3659 2.15521 4.84839 118.397 19.7214C263.7 38.3126 304.951 88.0021 371.53 23.805C424.793 -27.5527 546.349 20.7361 600.469 51.3002" stroke="url(#paint0_linear_7542_41323)"/>
<defs>
<linearGradient id="paint0_linear_7542_41323" x1="34.9249" y1="22.3289" x2="212.092" y2="166.547" gradientUnits="userSpaceOnUse">
<stop stop-color="white"/>
<stop offset="1" stop-color="#6C27FF"/>
</linearGradient>
</defs>
</svg>
