<svg width="15" height="13" viewBox="0 0 15 13" fill="none" xmlns="http://www.w3.org/2000/svg">
<path opacity="0.1" d="M10.0152 11.8182V10.6162C10.0152 9.97857 9.76187 9.36709 9.31102 8.91625C8.86018 8.4654 8.2487 8.21212 7.61111 8.21212H3.40404C2.76645 8.21212 2.15497 8.4654 1.70413 8.91625C1.25328 9.36709 1 9.97857 1 10.6162V11.8182M12.4192 4.00505V7.61111M14.2222 5.80808H10.6162M7.91162 3.40404C7.91162 4.73176 6.83529 5.80808 5.50758 5.80808C4.17986 5.80808 3.10354 4.73176 3.10354 3.40404C3.10354 2.07633 4.17986 1 5.50758 1C6.83529 1 7.91162 2.07633 7.91162 3.40404Z" stroke="#8A63E6" stroke-width="0.8" stroke-linecap="round" stroke-linejoin="round"/>
</svg>
