<svg width="24" height="24" viewBox="0 0 24 24" fill="none" xmlns="http://www.w3.org/2000/svg">
  <path d="M17.3381 5.87264C15.4569 4.04245 12.3934 4.04245 10.5142 5.87264L5.30194 10.9397C5.26799 10.9727 5.25002 11.0174 5.25002 11.064C5.25002 11.1106 5.26799 11.1553 5.30194 11.1884L6.03885 11.9053C6.07253 11.9379 6.11813 11.9562 6.16566 11.9562C6.21319 11.9562 6.25879 11.9379 6.29247 11.9053L11.5047 6.83826C12.1518 6.20876 13.0125 5.86293 13.9271 5.86293C14.8418 5.86293 15.7025 6.20876 16.3476 6.83826C16.9946 7.46775 17.3501 8.30513 17.3501 9.19302C17.3501 10.0829 16.9946 10.9183 16.3476 11.5478L11.0354 16.7139L10.1747 17.5513C9.36991 18.3343 8.06185 18.3343 7.25704 17.5513C6.86762 17.1724 6.65394 16.6692 6.65394 16.133C6.65394 15.5968 6.86762 15.0935 7.25704 14.7147L12.5272 9.58937C12.661 9.46114 12.8368 9.38926 13.0245 9.38926H13.0265C13.2142 9.38926 13.3879 9.46114 13.5198 9.58937C13.6536 9.71954 13.7254 9.89052 13.7254 10.0731C13.7254 10.2538 13.6516 10.4248 13.5198 10.553L9.21214 14.7399C9.17819 14.773 9.16022 14.8177 9.16022 14.8643C9.16022 14.9109 9.17819 14.9556 9.21214 14.9886L9.94905 15.7056C9.98273 15.7382 10.0283 15.7565 10.0759 15.7565C10.1234 15.7565 10.169 15.7382 10.2027 15.7056L14.5083 11.5167C14.9057 11.1301 15.1234 10.6172 15.1234 10.0712C15.1234 9.52526 14.9037 9.01039 14.5083 8.6257C13.6875 7.82718 12.3535 7.82912 11.5327 8.6257L11.0215 9.12502L6.26451 13.751C5.94165 14.0633 5.68573 14.4348 5.51158 14.844C5.33743 15.2532 5.24853 15.692 5.25002 16.1349C5.25002 17.0345 5.61148 17.8796 6.26451 18.515C6.94151 19.1717 7.82819 19.5 8.71488 19.5C9.60156 19.5 10.4882 19.1717 11.1632 18.515L17.3381 12.5115C18.2467 11.6255 18.75 10.4462 18.75 9.19302C18.752 7.93792 18.2487 6.7586 17.3381 5.87264Z" fill="currentColor"/>
</svg>
