<svg width="13" height="15" viewBox="0 0 13 15" fill="none" xmlns="http://www.w3.org/2000/svg">
<path d="M0.71875 3.68675H2.0027M2.0027 3.68675H12.2743M2.0027 3.68675V12.5845C2.0027 12.9217 2.13797 13.245 2.37876 13.4833C2.61955 13.7217 2.94613 13.8556 3.28665 13.8556H9.7064C10.0469 13.8556 10.3735 13.7217 10.6143 13.4833C10.8551 13.245 10.9904 12.9217 10.9904 12.5845V3.68675M3.92863 3.68675V2.41564C3.92863 2.07852 4.0639 1.75521 4.30469 1.51683C4.54547 1.27845 4.87205 1.14453 5.21258 1.14453H7.78048C8.121 1.14453 8.44758 1.27845 8.68837 1.51683C8.92916 1.75521 9.06443 2.07852 9.06443 2.41564V3.68675" stroke="currentColor" stroke-width="0.8" stroke-linecap="round" stroke-linejoin="round"/>
</svg>
