<svg width="17" height="19" viewBox="0 0 17 19" fill="none" xmlns="http://www.w3.org/2000/svg">
<path opacity="0.5" d="M9.94167 17.1529C9.79516 17.4105 9.58487 17.6244 9.33185 17.7731C9.07884 17.9217 8.79198 18 8.5 18C8.20802 18 7.92116 17.9217 7.66814 17.7731C7.41513 17.6244 7.20484 17.4105 7.05833 17.1529M13.5 6.1009C13.5 4.74806 12.9732 3.45063 12.0355 2.49402C11.0979 1.53742 9.82608 1 8.5 1C7.17392 1 5.90215 1.53742 4.96447 2.49402C4.02678 3.45063 3.5 4.74806 3.5 6.1009C3.5 12.052 1 13.7523 1 13.7523H16C16 13.7523 13.5 12.052 13.5 6.1009Z" stroke="currentColor" stroke-width="1.5" stroke-linecap="round" stroke-linejoin="round"/>
</svg>
