<svg width="20" height="17" viewBox="0 0 20 17" fill="none" xmlns="http://www.w3.org/2000/svg">
  <path d="M10 5.7998V15.9998M10 5.7998C10 4.11965 10 3.27992 10.327 2.63818C10.6146 2.0737 11.0732 1.6146 11.6377 1.32698C12.2794 1 13.1196 1 14.7998 1H17.3998C17.9599 1 18.2401 1 18.454 1.10899C18.6422 1.20487 18.7948 1.35774 18.8906 1.5459C18.9996 1.75981 19 2.04004 19 2.6001V11.4001C19 11.9601 18.9996 12.2398 18.8906 12.4537C18.7948 12.6419 18.6425 12.7952 18.4543 12.8911C18.2406 13 17.961 13 17.402 13H14.5693C13.6301 13 13.1597 13 12.7334 13.1295C12.356 13.2441 12.0057 13.4317 11.701 13.6821C11.3568 13.965 11.096 14.3557 10.575 15.1372L10 15.9998M10 5.7998C10 4.11965 9.99983 3.27992 9.67285 2.63818C9.38523 2.0737 8.92626 1.6146 8.36178 1.32698C7.72004 1 6.87977 1 5.19961 1H2.59961C2.03956 1 1.75981 1 1.5459 1.10899C1.35774 1.20487 1.20487 1.35774 1.10899 1.5459C1 1.75981 1 2.04004 1 2.6001V11.4001C1 11.9601 1 12.2398 1.10899 12.4537C1.20487 12.6419 1.35774 12.7952 1.5459 12.8911C1.7596 13 2.03901 13 2.59797 13H5.43073C6.36994 13 6.83942 13 7.26569 13.1295C7.64306 13.2441 7.99512 13.4317 8.2998 13.6821C8.64257 13.9638 8.90172 14.3526 9.41848 15.1277L10 15.9998" stroke="currentColor" stroke-width="2" stroke-linecap="round" stroke-linejoin="round"/>
</svg>
