<svg width="23" height="23" viewBox="0 0 23 23" fill="none" xmlns="http://www.w3.org/2000/svg">
  <path d="M11.5 0C5.14877 0 0 5.14877 0 11.5C0 17.8516 5.14877 23 11.5 23C17.8516 23 23 17.8516 23 11.5C23 5.14877 17.8516 0 11.5 0ZM11.5 21.5851C5.95161 21.5851 1.4375 17.0484 1.4375 11.5C1.4375 5.95156 5.95161 1.43746 11.5 1.43746C17.0484 1.43746 21.5625 5.95159 21.5625 11.5C21.5625 17.0483 17.0484 21.5851 11.5 21.5851ZM16.0896 7.29208L9.34229 14.0817L6.30377 11.0432C6.0231 10.7626 5.56813 10.7626 5.2871 11.0432C5.00643 11.3239 5.00643 11.7789 5.2871 12.0595L8.84456 15.6174C9.12523 15.8977 9.5802 15.8977 9.86123 15.6174C9.89357 15.585 9.92127 15.5498 9.94642 15.5131L17.1066 8.30873C17.3869 8.02806 17.3869 7.57309 17.1066 7.29208C16.8256 7.01141 16.3706 7.01141 16.0896 7.29208Z" fill="currentColor"/>
</svg>
