<svg width="7" height="7" viewBox="0 0 7 7" fill="none" xmlns="http://www.w3.org/2000/svg">
<path d="M5.39844 0.398438C5.13322 0.398438 4.87887 0.503794 4.69133 0.691331C4.50379 0.878867 4.39844 1.13322 4.39844 1.39844V5.39844C4.39844 5.66365 4.50379 5.91801 4.69133 6.10554C4.87887 6.29308 5.13322 6.39844 5.39844 6.39844C5.66365 6.39844 5.91801 6.29308 6.10554 6.10554C6.29308 5.91801 6.39844 5.66365 6.39844 5.39844C6.39844 5.13322 6.29308 4.87887 6.10554 4.69133C5.91801 4.50379 5.66365 4.39844 5.39844 4.39844H1.39844C1.13322 4.39844 0.878867 4.50379 0.691331 4.69133C0.503794 4.87887 0.398438 5.13322 0.398438 5.39844C0.398438 5.66365 0.503794 5.91801 0.691331 6.10554C0.878867 6.29308 1.13322 6.39844 1.39844 6.39844C1.66365 6.39844 1.91801 6.29308 2.10554 6.10554C2.29308 5.91801 2.39844 5.66365 2.39844 5.39844V1.39844C2.39844 1.13322 2.29308 0.878867 2.10554 0.691331C1.91801 0.503794 1.66365 0.398438 1.39844 0.398438C1.13322 0.398438 0.878867 0.503794 0.691331 0.691331C0.503794 0.878867 0.398438 1.13322 0.398438 1.39844C0.398438 1.66365 0.503794 1.91801 0.691331 2.10554C0.878867 2.29308 1.13322 2.39844 1.39844 2.39844H5.39844C5.66365 2.39844 5.91801 2.29308 6.10554 2.10554C6.29308 1.91801 6.39844 1.66365 6.39844 1.39844C6.39844 1.13322 6.29308 0.878867 6.10554 0.691331C5.91801 0.503794 5.66365 0.398438 5.39844 0.398438Z" stroke="currentColor" stroke-width="0.8" stroke-linecap="round" stroke-linejoin="round"/>
</svg>
