<svg width="9" height="13" viewBox="0 0 9 13" fill="none" xmlns="http://www.w3.org/2000/svg">
<path d="M3.6254 1C3.6254 0.779086 3.44631 0.6 3.2254 0.6C3.00449 0.6 2.8254 0.779086 2.8254 1H3.2254H3.6254ZM2.8254 12C2.8254 12.2209 3.00449 12.4 3.2254 12.4C3.44631 12.4 3.6254 12.2209 3.6254 12H3.2254H2.8254ZM3.22727 0.6C3.00636 0.6 2.82727 0.779086 2.82727 1C2.82727 1.22091 3.00636 1.4 3.22727 1.4V1V0.6ZM1 5.4125C0.779086 5.4125 0.6 5.59159 0.6 5.8125C0.6 6.03341 0.779086 6.2125 1 6.2125V5.8125V5.4125ZM1 8.1625C0.779086 8.1625 0.6 8.34159 0.6 8.5625C0.6 8.78341 0.779086 8.9625 1 8.9625V8.5625V8.1625ZM5.77273 8.9625C5.99364 8.9625 6.17273 8.78341 6.17273 8.5625C6.17273 8.34159 5.99364 8.1625 5.77273 8.1625V8.5625V8.9625ZM3.2254 1H2.8254V5.8125H3.2254H3.6254V1H3.2254ZM3.2254 5.8125H2.8254V12H3.2254H3.6254V5.8125H3.2254ZM3.22727 1V1.4H5.77273V1V0.6H3.22727V1ZM5.77273 1V1.4C6.24694 1.4 6.70861 1.60324 7.0541 1.97649L7.34765 1.70477L7.6412 1.43306C7.1513 0.903795 6.47994 0.6 5.77273 0.6V1ZM7.34765 1.70477L7.0541 1.97649C7.40055 2.35078 7.6 2.86461 7.6 3.40625H8H8.4C8.4 2.67153 8.13013 1.96128 7.6412 1.43306L7.34765 1.70477ZM8 3.40625H7.6C7.6 3.94789 7.40055 4.46172 7.0541 4.83601L7.34765 5.10773L7.6412 5.37944C8.13013 4.85122 8.4 4.14097 8.4 3.40625H8ZM7.34765 5.10773L7.0541 4.83601C6.70861 5.20926 6.24694 5.4125 5.77273 5.4125V5.8125V6.2125C6.47994 6.2125 7.1513 5.90871 7.6412 5.37944L7.34765 5.10773ZM3.2254 5.8125V5.4125H1V5.8125V6.2125H3.2254V5.8125ZM1 8.5625V8.9625H5.77273V8.5625V8.1625H1V8.5625ZM5.77273 5.8125V5.4125H4.81725V5.8125V6.2125H5.77273V5.8125ZM4.81725 5.8125V5.4125H3.2254V5.8125V6.2125H4.81725V5.8125Z" fill="currentColor"/>
</svg>
