<svg width="24" height="24" viewBox="0 0 24 24" fill="none" xmlns="http://www.w3.org/2000/svg">
  <path fill-rule="evenodd" clip-rule="evenodd" d="M7.22707 7.22703C7.51997 6.93414 7.99484 6.93414 8.28773 7.22703L12 10.9393L15.7124 7.22703C16.0052 6.93414 16.4801 6.93414 16.773 7.22703C17.0659 7.51992 17.0659 7.9948 16.773 8.28769L13.0607 12L16.773 15.7123C17.0659 16.0052 17.0659 16.4801 16.773 16.773C16.4801 17.0659 16.0052 17.0659 15.7124 16.773L12 13.0607L8.28773 16.773C7.99484 17.0659 7.51997 17.0659 7.22707 16.773C6.93418 16.4801 6.93418 16.0052 7.22707 15.7123L10.9394 12L7.22707 8.28769C6.93418 7.9948 6.93418 7.51992 7.22707 7.22703Z" fill="currentColor"/>
</svg>
