<svg width="4" height="16" viewBox="0 0 4 16" fill="none" xmlns="http://www.w3.org/2000/svg">
  <path d="M2 3.25C2.41421 3.25 2.75 2.91421 2.75 2.5C2.75 2.08579 2.41421 1.75 2 1.75C1.58579 1.75 1.25 2.08579 1.25 2.5C1.25 2.91421 1.58579 3.25 2 3.25Z" fill="currentColor" stroke="currentColor" stroke-width="2" stroke-linecap="round" stroke-linejoin="round"/>
  <path d="M2 8.75C2.41421 8.75 2.75 8.41421 2.75 8C2.75 7.58579 2.41421 7.25 2 7.25C1.58579 7.25 1.25 7.58579 1.25 8C1.25 8.41421 1.58579 8.75 2 8.75Z" fill="currentColor" stroke="currentColor" stroke-width="2" stroke-linecap="round" stroke-linejoin="round"/>
  <path d="M2 14.25C2.41421 14.25 2.75 13.9142 2.75 13.5C2.75 13.0858 2.41421 12.75 2 12.75C1.58579 12.75 1.25 13.0858 1.25 13.5C1.25 13.9142 1.58579 14.25 2 14.25Z" fill="currentColor" stroke="currentColor" stroke-width="2" stroke-linecap="round" stroke-linejoin="round"/>
</svg>
