<svg width="24" height="24" viewBox="0 0 24 24" fill="none" xmlns="http://www.w3.org/2000/svg">
  <path d="M12 14.6812C11.9 14.6812 11.8063 14.6655 11.7188 14.634C11.6312 14.603 11.55 14.55 11.475 14.475L8.775 11.775C8.6375 11.6375 8.56875 11.4625 8.56875 11.25C8.56875 11.0375 8.6375 10.8625 8.775 10.725C8.9125 10.5875 9.0905 10.5155 9.309 10.509C9.528 10.503 9.70625 10.5687 9.84375 10.7062L11.25 12.1125V6.75C11.25 6.5375 11.322 6.35925 11.466 6.21525C11.6095 6.07175 11.7875 6 12 6C12.2125 6 12.3908 6.07175 12.5347 6.21525C12.6783 6.35925 12.75 6.5375 12.75 6.75V12.1125L14.1562 10.7062C14.2937 10.5687 14.472 10.503 14.691 10.509C14.9095 10.5155 15.0875 10.5875 15.225 10.725C15.3625 10.8625 15.4313 11.0375 15.4313 11.25C15.4313 11.4625 15.3625 11.6375 15.225 11.775L12.525 14.475C12.45 14.55 12.3688 14.603 12.2812 14.634C12.1937 14.6655 12.1 14.6812 12 14.6812ZM7.5 18C7.0875 18 6.7345 17.8533 6.441 17.5597C6.147 17.2657 6 16.9125 6 16.5V15C6 14.7875 6.07175 14.6093 6.21525 14.4653C6.35925 14.3217 6.5375 14.25 6.75 14.25C6.9625 14.25 7.14075 14.3217 7.28475 14.4653C7.42825 14.6093 7.5 14.7875 7.5 15V16.5H16.5V15C16.5 14.7875 16.572 14.6093 16.716 14.4653C16.8595 14.3217 17.0375 14.25 17.25 14.25C17.4625 14.25 17.6405 14.3217 17.784 14.4653C17.928 14.6093 18 14.7875 18 15V16.5C18 16.9125 17.8533 17.2657 17.5597 17.5597C17.2657 17.8533 16.9125 18 16.5 18H7.5Z" fill="currentColor"/>
</svg>
