<svg width="32" height="32" viewBox="0 0 32 32" fill="none" xmlns="http://www.w3.org/2000/svg">
  <path fill-rule="evenodd" clip-rule="evenodd" d="M21.904 6.2255C22.2634 6.07662 22.6486 6 23.0376 6C23.4267 6 23.8119 6.07662 24.1713 6.2255C24.5307 6.37437 24.8573 6.59258 25.1323 6.86766C25.4074 7.14274 25.6256 7.46931 25.7745 7.82872C25.9234 8.18813 26 8.57335 26 8.96237C26 9.35139 25.9234 9.7366 25.7745 10.096C25.6256 10.4554 25.4074 10.782 25.1323 11.0571L19.0684 17.121C18.6153 17.5742 18.0393 17.882 17.4119 18.0075C17.4118 18.0075 17.4119 18.0075 17.4119 18.0075L14.6081 18.5687C14.2803 18.6343 13.9413 18.5318 13.7049 18.2954C13.4684 18.059 13.3657 17.7201 13.4312 17.3923L13.9913 14.5885C14.1173 13.9607 14.4264 13.3835 14.8795 12.9311L20.9429 6.86766C21.218 6.59258 21.5446 6.37437 21.904 6.2255ZM23.0376 8C22.9113 8 22.7861 8.02489 22.6694 8.07326C22.5526 8.12162 22.4465 8.1925 22.3571 8.28187L21.3559 9.28309L22.7172 10.6438L23.7181 9.64286C23.8075 9.5535 23.8784 9.44741 23.9267 9.33065C23.9751 9.21389 24 9.08875 24 8.96237C24 8.83598 23.9751 8.71084 23.9267 8.59408C23.8784 8.47732 23.8075 8.37123 23.7181 8.28187C23.6288 8.19251 23.5227 8.12162 23.4059 8.07326C23.2892 8.02489 23.164 8 23.0376 8ZM21.303 12.058L19.9417 10.6973L16.2932 14.3458C16.1196 14.5191 16.0008 14.7404 15.9525 14.9809C15.9524 14.981 15.9525 14.9808 15.9525 14.9809L15.6863 16.3132L17.0194 16.0464C17.2601 15.9983 17.4805 15.8805 17.6542 15.7068L21.303 12.058ZM9.11767 10.1175C8.82124 10.1175 8.53696 10.2352 8.32736 10.4448C8.11775 10.6544 8 10.9387 8 11.2352V22.8823C8 23.1788 8.11775 23.463 8.32736 23.6726C8.53696 23.8822 8.82124 24 9.11767 24H20.7648C21.0613 24 21.3456 23.8822 21.5552 23.6726C21.7648 23.463 21.8825 23.1788 21.8825 22.8823V19.7058C21.8825 19.1535 22.3302 18.7058 22.8825 18.7058C23.4348 18.7058 23.8825 19.1535 23.8825 19.7058V22.8823C23.8825 23.7092 23.554 24.5022 22.9694 25.0869C22.3847 25.6715 21.5917 26 20.7648 26H9.11767C8.29081 26 7.49782 25.6715 6.91314 25.0869C6.32847 24.5022 6 23.7092 6 22.8823V11.2352C6 10.4083 6.32847 9.61531 6.91314 9.03063C7.49782 8.44595 8.29081 8.11749 9.11767 8.11749H12.2942C12.8465 8.11749 13.2942 8.5652 13.2942 9.11749C13.2942 9.66977 12.8465 10.1175 12.2942 10.1175H9.11767Z" fill="currentColor"/>
</svg>
