<svg width="39" height="37" viewBox="0 0 39 37" fill="none" xmlns="http://www.w3.org/2000/svg">
<path d="M29.1905 13.25H30.9524C32.8215 13.25 34.6141 13.9875 35.9358 15.3003C37.2575 16.613 38 18.3935 38 20.25C38 22.1065 37.2575 23.887 35.9358 25.1997C34.6141 26.5125 32.8215 27.25 30.9524 27.25H29.1905M29.1905 13.25H1V29C1 30.8565 1.74252 32.637 3.0642 33.9497C4.38588 35.2625 6.17847 36 8.04762 36H22.1429C24.012 36 25.8046 35.2625 27.1263 33.9497C28.448 32.637 29.1905 30.8565 29.1905 29V13.25ZM8.04762 1V6.25M15.0952 1V6.25M22.1429 1V6.25" stroke="currentColor" stroke-width="2" stroke-linecap="round" stroke-linejoin="round"/>
</svg>
