<svg width="17" height="16" viewBox="0 0 17 16" fill="none" xmlns="http://www.w3.org/2000/svg">
<path d="M8.70123 5.93975V8.73261M8.70123 11.5255H8.70821M7.50728 2.35091L1.59339 12.2237C1.47145 12.4349 1.40694 12.6743 1.40626 12.9181C1.40557 13.1619 1.46875 13.4017 1.58949 13.6135C1.71024 13.8253 1.88435 14.0019 2.0945 14.1255C2.30465 14.2492 2.54352 14.3157 2.78734 14.3183H14.6151C14.8589 14.3157 15.0978 14.2492 15.308 14.1255C15.5181 14.0019 15.6922 13.8253 15.813 13.6135C15.9337 13.4017 15.9969 13.1619 15.9962 12.9181C15.9955 12.6743 15.931 12.4349 15.8091 12.2237L9.89518 2.35091C9.77071 2.14571 9.59545 1.97606 9.38632 1.85831C9.17718 1.74057 8.94123 1.67871 8.70123 1.67871C8.46123 1.67871 8.22528 1.74057 8.01614 1.85831C7.80701 1.97606 7.63175 2.14571 7.50728 2.35091Z" stroke="#D48A9E" stroke-width="1.5" stroke-linecap="round" stroke-linejoin="round"/>
</svg>
