<svg width="12" height="11" viewBox="0 0 12 11" fill="none" xmlns="http://www.w3.org/2000/svg">
<path d="M6 4.03405V6.0227M6 8.01135H6.00479M5.18166 1.47864L1.12826 8.50851C1.04469 8.65887 1.00047 8.82933 1 9.00295C0.999536 9.17657 1.04284 9.34729 1.1256 9.49813C1.20836 9.64896 1.32769 9.77466 1.47173 9.86271C1.61577 9.95076 1.77949 9.99809 1.9466 10H10.0534C10.2205 9.99809 10.3842 9.95076 10.5283 9.86271C10.6723 9.77466 10.7916 9.64896 10.8744 9.49813C10.9572 9.34729 11.0005 9.17657 11 9.00295C10.9995 8.82933 10.9553 8.65887 10.8717 8.50851L6.81834 1.47864C6.73302 1.33253 6.6129 1.21172 6.46956 1.12788C6.32622 1.04404 6.1645 1 6 1C5.8355 1 5.67378 1.04404 5.53044 1.12788C5.3871 1.21172 5.26698 1.33253 5.18166 1.47864Z" stroke="black" stroke-width="0.8" stroke-linecap="round" stroke-linejoin="round"/>
</svg>
