<svg class="svg-icon" style="width: 1em;height: 1em;vertical-align: middle;fill: currentColor;overflow: hidden;" viewBox="0 0 1024 1024" version="1.1" xmlns="http://www.w3.org/2000/svg"><path d="M69.525742 954.365281a42.627258 42.627258 0 0 1 0-60.338626l118.984599-119.039588c-92.373056-95.804353-131.523028-217.301436-131.523028-263.105043 0-80.963396 118.728651-398.060367 454.906709-398.060366 97.388028 0 184.030259 27.226416 258.38901 79.427711l123.744622-123.747622a42.648254 42.648254 0 0 1 60.287637 60.338626L129.811379 954.365281a42.748233 42.748233 0 0 1-60.287637 0z m72.772076-442.483257c0 20.419812 27.277406 120.216346 106.498159 202.869396l116.628083-116.635081c-38.433118-65.353597-30.193808-150.82107 25.844699-206.809587 55.988518-56.039508 141.400002-64.330807 206.857578-25.89469L708.564689 254.969711c-57.112288-36.387538-122.720833-55.835549-196.670667-55.835549-289.146702 0-369.596204 280.91539-369.596204 312.747862z m309.258578-60.287636c-22.057476 22.006487-27.994259 53.020127-20.828729 81.219344l102.046073-102.048073a92.780973 92.780973 0 0 0-22.789327-2.871411c-21.224647 0-42.248336 7.516459-58.427018 23.70014z m-64.536765 442.279298a42.633257 42.633257 0 1 1 22.313424-82.294123c32.091419 8.700216 66.532356 13.051323 102.560967 13.051323 289.146702 0 369.646194-280.812412 369.646193-312.747862 0-9.774995-7.932373-47.237313-31.319577-94.934531a42.685246 42.685246 0 0 1 76.662279-37.564296c24.309015 49.487851 39.917814 101.535177 39.917813 132.497827 0 81.066375-118.729651 398.061366-454.906708 398.061367-43.602058 0-85.618442-5.428887-124.874391-16.069705z"  /></svg>