<svg width="22" height="22" viewBox="0 0 22 22" fill="none" xmlns="http://www.w3.org/2000/svg">
  <path d="M11 8.525C11.6465 8.525 12.2665 8.78576 12.7236 9.24991C13.1807 9.71406 13.4375 10.3436 13.4375 11C13.4375 11.6564 13.1807 12.2859 12.7236 12.7501C12.2665 13.2142 11.6465 13.475 11 13.475C10.3535 13.475 9.73355 13.2142 9.27643 12.7501C8.81931 12.2859 8.5625 11.6564 8.5625 11C8.5625 10.3436 8.81931 9.71406 9.27643 9.24991C9.73355 8.78576 10.3535 8.525 11 8.525ZM11 4.8125C15.0625 4.8125 18.5319 7.37825 19.9375 11C18.5319 14.6217 15.0625 17.1875 11 17.1875C6.9375 17.1875 3.46812 14.6217 2.0625 11C3.46812 7.37825 6.9375 4.8125 11 4.8125ZM3.83375 11C4.49046 12.3615 5.51019 13.5086 6.77701 14.3109C8.04384 15.1133 9.50695 15.5386 11 15.5386C12.4931 15.5386 13.9562 15.1133 15.223 14.3109C16.4898 13.5086 17.5095 12.3615 18.1663 11C17.5095 9.6385 16.4898 8.49138 15.223 7.68906C13.9562 6.88675 12.4931 6.46141 11 6.46141C9.50695 6.46141 8.04384 6.88675 6.77701 7.68906C5.51019 8.49138 4.49046 9.6385 3.83375 11Z" fill="currentColor"/>
</svg>
