<svg width="20" height="19" viewBox="0 0 20 19" fill="none" xmlns="http://www.w3.org/2000/svg">
  <path d="M1 6.2H19M1 6.2V14.3122C1 15.4771 1 16.0588 1.24524 16.5037C1.46095 16.8951 1.80491 17.2141 2.22827 17.4135C2.7091 17.64 3.33888 17.64 4.59654 17.64H15.4035C16.6611 17.64 17.29 17.64 17.7708 17.4135C18.1942 17.2141 18.5393 16.8951 18.755 16.5037C19 16.0592 19 15.4778 19 14.3152V6.2M1 6.2V4.3282C1 3.16329 1 2.58041 1.24524 2.13547C1.46095 1.74409 1.80491 1.42612 2.22827 1.22671C2.70957 1 3.3401 1 4.60022 1H15.4002C16.6603 1 17.2895 1 17.7708 1.22671C18.1942 1.42612 18.5393 1.74409 18.755 2.13547C19 2.57997 19 3.16215 19 4.32478V6.2" stroke="currentColor" stroke-width="2" stroke-linecap="round" stroke-linejoin="round"/>
</svg>
