<svg width="34" height="34" viewBox="0 0 34 34" fill="none" xmlns="http://www.w3.org/2000/svg">
  <path fill-rule="evenodd" clip-rule="evenodd" d="M7.4375 10.002C7.4375 8.60275 8.55916 7.4375 9.97822 7.4375H24.0228C25.4428 7.4375 26.5625 8.6037 26.5625 10.002V10.8861C26.5625 11.7687 26.2271 12.6194 25.6248 13.2614L21.0474 18.1287L21.036 18.1406C20.3551 18.8425 19.9704 19.7938 19.9704 20.7885V22.9485C19.9704 23.7845 19.5178 24.5627 18.7782 24.9666L16.1698 26.388C15.1849 26.9229 14.0477 26.1818 14.0477 25.1177V20.7998C14.0477 19.8269 13.6782 18.8952 13.0232 18.1962C12.9991 18.1749 12.9759 18.1523 12.9536 18.1287L8.37707 13.2624C7.77302 12.62 7.4375 11.7689 7.4375 10.8861V10.002ZM14.4414 16.6088C14.4579 16.6237 14.474 16.6392 14.4897 16.6553C15.5683 17.7595 16.1727 19.2492 16.1727 20.7998V23.9664L17.7597 23.1016C17.7597 23.1016 17.7596 23.1016 17.7597 23.1016C17.8068 23.0758 17.8454 23.019 17.8454 22.9485V20.7885C17.8454 19.2507 18.4386 17.7695 19.5048 16.6672L24.0751 11.8075C24.0752 11.8074 24.0749 11.8076 24.0751 11.8075C24.3057 11.5614 24.4375 11.2311 24.4375 10.8861V10.002C24.4375 9.74282 24.235 9.5625 24.0228 9.5625H9.97822C9.7651 9.5625 9.5625 9.74377 9.5625 10.002V10.8861C9.5625 11.2311 9.6939 11.5607 9.92505 11.8065C9.92506 11.8066 9.92505 11.8065 9.92505 11.8065L14.4414 16.6088Z" fill="currentColor"/>
</svg>
