<svg width="15" height="13" viewBox="0 0 15 13" fill="none" xmlns="http://www.w3.org/2000/svg">
  <path d="M1.34583 13C0.9625 13 0.6425 12.857 0.385833 12.571C0.128611 12.2844 0 11.9275 0 11.5004V1.49964C0 1.0725 0.128611 0.715928 0.385833 0.429928C0.6425 0.143309 0.9625 0 1.34583 0H5.49667L7.16333 1.85714H13.6542C14.0375 1.85714 14.3575 2.00045 14.6142 2.28707C14.8714 2.57307 15 2.92964 15 3.35679V11.5004C15 11.9275 14.8717 12.2841 14.615 12.5701C14.3578 12.8567 14.0375 13 13.6542 13H1.34583ZM1.34583 12.0714H13.6542C13.8036 12.0714 13.9264 12.0179 14.0225 11.9108C14.1186 11.8037 14.1667 11.6669 14.1667 11.5004V3.35679C14.1667 3.19026 14.1186 3.05345 14.0225 2.94636C13.9264 2.83926 13.8036 2.78571 13.6542 2.78571H6.82917L5.1625 0.928571H1.34583C1.19639 0.928571 1.07361 0.982119 0.9775 1.08921C0.881389 1.19631 0.833333 1.33312 0.833333 1.49964V11.5004C0.833333 11.6669 0.881389 11.8037 0.9775 11.9108C1.07361 12.0179 1.19639 12.0714 1.34583 12.0714Z" fill="currentColor"/>
</svg>
