<svg width="10" height="10" viewBox="0 0 10 10" fill="none" xmlns="http://www.w3.org/2000/svg">
<g opacity="0.5">
<path d="M5 9C7.20914 9 9 7.20914 9 5C9 2.79086 7.20914 1 5 1C2.79086 1 1 2.79086 1 5C1 7.20914 2.79086 9 5 9Z" stroke="currentColor" stroke-width="0.8" stroke-linecap="round" stroke-linejoin="round"/>
<path d="M5 7.4C6.32548 7.4 7.4 6.32548 7.4 5C7.4 3.67452 6.32548 2.6 5 2.6C3.67452 2.6 2.6 3.67452 2.6 5C2.6 6.32548 3.67452 7.4 5 7.4Z" stroke="currentColor" stroke-width="0.8" stroke-linecap="round" stroke-linejoin="round"/>
<path d="M5 5.8C5.44183 5.8 5.8 5.44183 5.8 5C5.8 4.55817 5.44183 4.2 5 4.2C4.55817 4.2 4.2 4.55817 4.2 5C4.2 5.44183 4.55817 5.8 5 5.8Z" stroke="currentColor" stroke-width="0.8" stroke-linecap="round" stroke-linejoin="round"/>
</g>
</svg>
