<svg width="13" height="13" viewBox="0 0 13 13" fill="none" xmlns="http://www.w3.org/2000/svg">
<path d="M11.4481 1L10.3444 2.15637M10.3444 2.15637L12 3.89092L10.0684 5.91457L8.41279 4.18002M10.3444 2.15637L8.41279 4.18002M6.14457 6.55636C6.42952 6.85092 6.65605 7.20163 6.8111 7.5883C6.96615 7.97496 7.04667 8.38993 7.04801 8.80933C7.04935 9.22873 6.97149 9.64426 6.81892 10.032C6.66634 10.4197 6.44206 10.772 6.159 11.0686C5.87593 11.3652 5.53966 11.6001 5.16956 11.76C4.79946 11.9198 4.40284 12.0014 4.00252 12C3.60221 11.9986 3.20611 11.9142 2.83704 11.7518C2.46797 11.5893 2.13322 11.352 1.85205 11.0535C1.29914 10.4537 0.993199 9.65044 1.00011 8.81665C1.00703 7.98286 1.32625 7.18527 1.88903 6.59567C2.4518 6.00607 3.2131 5.67163 4.00896 5.66439C4.80481 5.65714 5.57154 5.97767 6.14402 6.55693L6.14457 6.55636ZM6.14457 6.55636L8.41279 4.18002" stroke="currentColor" stroke-width="0.8" stroke-linecap="round" stroke-linejoin="round"/>
</svg>
