<svg width="22" height="23" viewBox="0 0 22 23" fill="none" xmlns="http://www.w3.org/2000/svg">
  <path d="M18.069 11.8992C18.3867 11.4917 18.5625 10.9925 18.5625 10.4731C18.5625 9.64907 18.088 8.86906 17.3241 8.43408C17.1275 8.32212 16.9036 8.26319 16.6757 8.2634H12.1419L12.2554 6.00777C12.2818 5.46268 12.0833 4.94511 11.6976 4.55052C11.5084 4.35602 11.28 4.20127 11.0267 4.09584C10.7734 3.9904 10.5005 3.93652 10.2248 3.93751C9.24172 3.93751 8.37203 4.57988 8.11113 5.49938L6.48708 11.2073H4.0425C3.70786 11.2073 3.4375 11.4697 3.4375 11.7946V18.4752C3.4375 18.8 3.70786 19.0625 4.0425 19.0625H15.4108C15.5848 19.0625 15.7549 19.0295 15.9118 18.9634C16.8118 18.5908 17.3922 17.7374 17.3922 16.7904C17.3922 16.5591 17.3582 16.3315 17.2901 16.1113C17.6077 15.7038 17.7836 15.2046 17.7836 14.6852C17.7836 14.454 17.7495 14.2264 17.6815 14.0062C17.9991 13.5987 18.1749 13.0995 18.1749 12.5801C18.1711 12.3488 18.1371 12.1194 18.069 11.8992ZM4.79875 17.7411V12.5287H6.33016V17.7411H4.79875ZM16.8307 11.2623L16.4166 11.611L16.6794 12.0772C16.766 12.2308 16.8109 12.4032 16.8099 12.5783C16.8099 12.8811 16.6738 13.1692 16.4393 13.3675L16.0253 13.7162L16.2881 14.1823C16.3747 14.3359 16.4196 14.5083 16.4185 14.6834C16.4185 14.9862 16.2824 15.2744 16.048 15.4726L15.6339 15.8213L15.8967 16.2875C15.9833 16.441 16.0282 16.6135 16.0272 16.7885C16.0272 17.1996 15.7776 17.5704 15.3919 17.7392H7.54016V12.47L9.42133 5.8536C9.46984 5.68402 9.57396 5.5344 9.71794 5.42743C9.86191 5.32046 10.0379 5.26196 10.2192 5.26079C10.3629 5.26079 10.5047 5.30117 10.6181 5.38376C10.8053 5.51957 10.9055 5.72513 10.8941 5.94353L10.7126 9.58484H16.6568C16.9933 9.78489 17.2013 10.1226 17.2013 10.4731C17.2013 10.776 17.0651 11.0623 16.8307 11.2623Z" fill="currentColor"/>
</svg>
