<svg width="26" height="26" viewBox="0 0 26 26" fill="none" xmlns="http://www.w3.org/2000/svg">
  <path d="M12.1875 17.0625H8.9375C7.81354 17.0625 6.85533 16.6663 6.06288 15.8738C5.27042 15.0814 4.87446 14.1234 4.875 13C4.875 11.876 5.27123 10.9178 6.06369 10.1254C6.85615 9.33292 7.81408 8.93696 8.9375 8.9375H12.1875V10.5625H8.9375C8.26042 10.5625 7.6849 10.7995 7.21094 11.2734C6.73698 11.7474 6.5 12.3229 6.5 13C6.5 13.6771 6.73698 14.2526 7.21094 14.7266C7.6849 15.2005 8.26042 15.4375 8.9375 15.4375H12.1875V17.0625ZM9.75 13.8125V12.1875H16.25V13.8125H9.75ZM13.8125 17.0625V15.4375H17.0625C17.7396 15.4375 18.3151 15.2005 18.7891 14.7266C19.263 14.2526 19.5 13.6771 19.5 13C19.5 12.3229 19.263 11.7474 18.7891 11.2734C18.3151 10.7995 17.7396 10.5625 17.0625 10.5625H13.8125V8.9375H17.0625C18.1865 8.9375 19.1447 9.33373 19.9371 10.1262C20.7296 10.9186 21.1255 11.8766 21.125 13C21.125 14.124 20.7288 15.0822 19.9363 15.8746C19.1439 16.6671 18.1859 17.063 17.0625 17.0625H13.8125Z" fill="currentColor"/>
</svg>
