<svg width="20" height="21" viewBox="0 0 20 21" fill="none" xmlns="http://www.w3.org/2000/svg">
  <path d="M11.25 8V6.75C11.25 6.41848 11.1183 6.10054 10.8839 5.86612C10.6495 5.6317 10.3315 5.5 10 5.5H5.625C5.29348 5.5 4.97554 5.6317 4.74112 5.86612C4.5067 6.10054 4.375 6.41848 4.375 6.75V14.25C4.375 14.5815 4.5067 14.8995 4.74112 15.1339C4.97554 15.3683 5.29348 15.5 5.625 15.5H10C10.3315 15.5 10.6495 15.3683 10.8839 15.1339C11.1183 14.8995 11.25 14.5815 11.25 14.25V13" stroke="currentColor" stroke-width="1.5" stroke-linecap="round" stroke-linejoin="round"/>
  <path d="M6.875 10.5H15.625L13.75 8.625M13.75 12.375L15.625 10.5" stroke="currentColor" stroke-width="1.5" stroke-linecap="round" stroke-linejoin="round"/>
</svg>
