<svg width="12" height="13" viewBox="0 0 12 13" fill="none" xmlns="http://www.w3.org/2000/svg">
<path d="M1.14832 3.68593L5.94413 6.42174L10.7399 3.68593M5.94413 11.8771V6.41632M10.8883 8.58329V4.24935C10.8881 4.05934 10.8372 3.87273 10.7408 3.70823C10.6444 3.54374 10.5058 3.40713 10.3389 3.31213L6.49348 1.14516C6.32646 1.05006 6.13699 1 5.94413 1C5.75127 1 5.56181 1.05006 5.39478 1.14516L1.54935 3.31213C1.38249 3.40713 1.2439 3.54374 1.14748 3.70823C1.05106 3.87273 1.0002 4.05934 1 4.24935V8.58329C1.0002 8.7733 1.05106 8.95991 1.14748 9.12441C1.2439 9.2889 1.38249 9.42551 1.54935 9.52051L5.39478 11.6875C5.56181 11.7826 5.75127 11.8326 5.94413 11.8326C6.13699 11.8326 6.32646 11.7826 6.49348 11.6875L10.3389 9.52051C10.5058 9.42551 10.6444 9.2889 10.7408 9.12441C10.8372 8.95991 10.8881 8.7733 10.8883 8.58329Z" stroke="#8A63E6" stroke-width="0.8" stroke-linecap="round" stroke-linejoin="round"/>
</svg>
