<svg width="12" height="19" viewBox="0 0 12 19" fill="none" xmlns="http://www.w3.org/2000/svg">
  <path d="M8.17818 11.2684L9.16774 11.3668V19L6.43442 16.2341V11.8337L7.22828 12.2011L8.17818 11.2684ZM3.82182 11.2684L2.83174 11.3668V19L5.56502 16.2341V11.8337L4.7712 12.2011L3.82182 11.2684ZM11.3176 6.48619L11.6378 7.5425L10.6766 8.1567L10.5961 9.2542L9.47114 9.51958L9.00028 10.5239L7.84702 10.4084L7.04178 11.1968L6 10.7145L4.95822 11.1968L4.15298 10.4058L2.99972 10.5213L2.52886 9.51702L1.40393 9.2542L1.32343 8.15823L0.359405 7.54197L0.67967 6.48569L0 5.59583L0.681849 4.70696L0.359405 3.65275L1.32125 3.03855L1.40175 1.94254L2.52886 1.67977L2.99972 0.675533L4.15298 0.790937L4.95822 0L6 0.482311L7.04178 0L7.84702 0.790937L9.00028 0.675533L9.47114 1.67977L10.5961 1.94515L10.6766 3.04112L11.6378 3.65531L11.3176 4.71163L12 5.59583L11.3176 6.48619ZM9.17262 5.59583C9.17262 5.00567 8.98795 4.42876 8.64197 3.93806C8.29599 3.44736 7.80423 3.0649 7.22888 2.83906C6.65353 2.61321 6.02043 2.55412 5.40965 2.66926C4.79886 2.78439 4.23782 3.06858 3.79747 3.48589C3.35711 3.9032 3.05723 4.43488 2.93574 5.0137C2.81425 5.59252 2.8766 6.19248 3.11492 6.73772C3.35323 7.28296 3.75681 7.74898 4.27461 8.07686C4.79241 8.40474 5.40118 8.57974 6.02393 8.57974C6.85861 8.57851 7.65874 8.26373 8.24895 7.70441C8.83916 7.14509 9.17132 6.38683 9.17262 5.59583ZM6.02393 3.43632C5.57324 3.43632 5.13267 3.56297 4.75794 3.80025C4.3832 4.03753 4.09113 4.37479 3.91866 4.76938C3.74619 5.16397 3.70106 5.59817 3.78898 6.01707C3.8769 6.43596 4.09393 6.82074 4.41261 7.12275C4.73129 7.42476 5.13732 7.63044 5.57934 7.71376C6.02137 7.79709 6.47955 7.75433 6.89593 7.5909C7.31231 7.42746 7.6682 7.15068 7.9186 6.79556C8.16899 6.44044 8.30265 6.02293 8.30266 5.59583C8.30093 5.02375 8.06024 4.47558 7.63323 4.0712C7.20621 3.66682 6.62761 3.43912 6.02393 3.43789V3.43632Z" fill="currentColor"/>
</svg>
