<svg width="24" height="24" viewBox="0 0 24 24" fill="none" xmlns="http://www.w3.org/2000/svg">
  <path d="M13.7834 18.2674C17.1461 18.2674 18.8278 18.2674 19.872 17.2223C20.9171 16.1781 20.9171 14.4963 20.9171 11.1337C20.9171 7.77105 20.9171 6.08928 19.872 5.04509C18.8278 4 17.1461 4 13.7834 4H10.2166C6.85394 4 5.17217 4 4.12797 5.04509C3.08289 6.08928 3.08289 7.77105 3.08289 11.1337C3.08289 14.4963 3.08289 16.1781 4.12797 17.2223C4.71026 17.8055 5.49051 18.0632 6.64973 18.1764" stroke="currentColor" stroke-width="1.5" stroke-linecap="round" stroke-linejoin="round"/>
  <path d="M12 11.1337V11.1426M8.43317 11.1337V11.1426M15.5669 11.1337V11.1426" stroke="currentColor" stroke-width="2.5" stroke-linecap="round"/>
  <path d="M13.7833 18.2674C12.6812 18.2674 11.4666 18.7132 10.3582 19.2884C8.5766 20.2131 7.68578 20.6759 7.24706 20.3807C6.80834 20.0865 6.89127 19.1725 7.05802 17.3453L7.09547 16.9298" stroke="currentColor" stroke-width="1.5" stroke-linecap="round"/>
</svg>
