<svg width="13" height="12" viewBox="0 0 13 12" fill="none" xmlns="http://www.w3.org/2000/svg">
  <path d="M0.5 1.84242C0.5 1.45324 0.658035 1.07999 0.93934 0.804798C1.22064 0.529603 1.60218 0.375 2 0.375L11 0.375C11.3978 0.375 11.7794 0.529603 12.0607 0.804798C12.342 1.07999 12.5 1.45324 12.5 1.84242V7.71212C12.5 8.1013 12.342 8.47455 12.0607 8.74974C11.7794 9.02494 11.3978 9.17954 11 9.17954H9.125C9.00857 9.17954 8.89373 9.20606 8.78959 9.257C8.68545 9.30794 8.59486 9.3819 8.525 9.47302L7.1 11.3315C7.03014 11.4226 6.93955 11.4966 6.83541 11.5475C6.73127 11.5985 6.61643 11.625 6.5 11.625C6.38357 11.625 6.26873 11.5985 6.16459 11.5475C6.06045 11.4966 5.96986 11.4226 5.9 11.3315L4.475 9.47302C4.40514 9.3819 4.31455 9.30794 4.21041 9.257C4.10627 9.20606 3.99143 9.17954 3.875 9.17954H2C1.60218 9.17954 1.22064 9.02494 0.93934 8.74974C0.658035 8.47455 0.5 8.1013 0.5 7.71212V1.84242ZM4.25 4.77727C4.25 4.58268 4.17098 4.39605 4.03033 4.25846C3.88968 4.12086 3.69891 4.04356 3.5 4.04356C3.30109 4.04356 3.11032 4.12086 2.96967 4.25846C2.82902 4.39605 2.75 4.58268 2.75 4.77727C2.75 4.97186 2.82902 5.15848 2.96967 5.29608C3.11032 5.43368 3.30109 5.51098 3.5 5.51098C3.69891 5.51098 3.88968 5.43368 4.03033 5.29608C4.17098 5.15848 4.25 4.97186 4.25 4.77727ZM7.25 4.77727C7.25 4.58268 7.17098 4.39605 7.03033 4.25846C6.88968 4.12086 6.69891 4.04356 6.5 4.04356C6.30109 4.04356 6.11032 4.12086 5.96967 4.25846C5.82902 4.39605 5.75 4.58268 5.75 4.77727C5.75 4.97186 5.82902 5.15848 5.96967 5.29608C6.11032 5.43368 6.30109 5.51098 6.5 5.51098C6.69891 5.51098 6.88968 5.43368 7.03033 5.29608C7.17098 5.15848 7.25 4.97186 7.25 4.77727ZM9.5 5.51098C9.69891 5.51098 9.88968 5.43368 10.0303 5.29608C10.171 5.15848 10.25 4.97186 10.25 4.77727C10.25 4.58268 10.171 4.39605 10.0303 4.25846C9.88968 4.12086 9.69891 4.04356 9.5 4.04356C9.30109 4.04356 9.11032 4.12086 8.96967 4.25846C8.82902 4.39605 8.75 4.58268 8.75 4.77727C8.75 4.97186 8.82902 5.15848 8.96967 5.29608C9.11032 5.43368 9.30109 5.51098 9.5 5.51098Z" fill="currentColor"/>
</svg>
