<svg width="24" height="18" viewBox="0 0 24 18" fill="none" xmlns="http://www.w3.org/2000/svg">
  <path fill-rule="evenodd" clip-rule="evenodd" d="M16.5363 4.76193C16.5363 7.40531 14.4928 9.52487 11.9442 9.52487C9.39574 9.52487 7.35224 7.40531 7.35224 4.76193C7.35224 2.11754 9.39574 0 11.9442 0C14.4928 0 16.5363 2.11754 16.5363 4.76193ZM11.9447 18.0001C8.20151 18.0001 5.00537 17.3882 5.00537 14.9403C5.00537 12.4915 8.181 11.8572 11.9447 11.8572C15.6878 11.8572 18.884 12.4692 18.884 14.918C18.884 17.3659 15.7083 18.0001 11.9447 18.0001ZM18.4989 4.84784C18.4989 6.19536 18.1092 7.45069 17.4254 8.49426C17.3551 8.60166 17.4176 8.74654 17.5416 8.76883C17.7126 8.79923 17.8894 8.81645 18.0691 8.82152C19.8616 8.87015 21.4704 7.67359 21.9148 5.87216C22.5732 3.19636 20.6401 0.794118 18.1785 0.794118C17.9109 0.794118 17.655 0.8235 17.4059 0.876185C17.3717 0.88429 17.3355 0.900501 17.316 0.93191C17.2926 0.97041 17.3101 1.02208 17.3336 1.05552C18.073 2.1305 18.4989 3.44155 18.4989 4.84784ZM21.4672 10.7015C22.6716 10.9457 23.4638 11.4442 23.792 12.1686C24.0694 12.7634 24.0694 13.4533 23.792 14.047C23.2899 15.1707 21.6713 15.5314 21.0423 15.6246C20.9123 15.6448 20.8078 15.5283 20.8215 15.3936C21.1429 12.2801 18.5866 10.8039 17.9252 10.4645C17.8969 10.4493 17.8911 10.426 17.894 10.4118C17.8959 10.4016 17.9077 10.3854 17.9292 10.3824C19.3602 10.355 20.8987 10.5577 21.4672 10.7015ZM5.93142 8.82152C6.11115 8.81645 6.28698 8.80024 6.4589 8.76883C6.58295 8.74654 6.64547 8.60166 6.57514 8.49426C5.89137 7.45069 5.50162 6.19536 5.50162 4.84784C5.50162 3.44155 5.92751 2.1305 6.66696 1.05552C6.6904 1.02208 6.70701 0.97041 6.68454 0.93191C6.66501 0.901514 6.62789 0.88429 6.59468 0.876185C6.34461 0.8235 6.08868 0.794118 5.82104 0.794118C3.35946 0.794118 1.42635 3.19636 2.0857 5.87216C2.53015 7.67359 4.13896 8.87015 5.93142 8.82152ZM6.10583 10.4115C6.10876 10.4267 6.1029 10.449 6.07554 10.4652C5.41326 10.8046 2.85694 12.2808 3.17831 15.3933C3.19199 15.5291 3.08844 15.6446 2.95853 15.6253C2.32946 15.5321 0.710877 15.1714 0.208794 14.0478C-0.0695981 13.4531 -0.0695981 12.7641 0.208794 12.1694C0.537004 11.445 1.32822 10.9465 2.53264 10.7013C3.10212 10.5584 4.63963 10.3558 6.07164 10.3832C6.09313 10.3862 6.10387 10.4024 6.10583 10.4115Z" fill="currentColor"/>
</svg>
