<svg width="10" height="9" viewBox="0 0 10 9" fill="none" xmlns="http://www.w3.org/2000/svg">
<path d="M6.81818 8V7.22222C6.81818 6.80966 6.66494 6.414 6.39216 6.12228C6.11938 5.83056 5.74941 5.66667 5.36364 5.66667H2.45455C2.06878 5.66667 1.69881 5.83056 1.42603 6.12228C1.15325 6.414 1 6.80966 1 7.22222V8M9 8V7.22222C8.99976 6.87756 8.89249 6.54274 8.69504 6.27034C8.49759 5.99794 8.22114 5.80339 7.90909 5.71722M6.45455 1.05056C6.76742 1.13623 7.04474 1.33083 7.24278 1.60368C7.44081 1.87652 7.54831 2.2121 7.54831 2.5575C7.54831 2.9029 7.44081 3.23848 7.24278 3.51132C7.04474 3.78417 6.76742 3.97877 6.45455 4.06444M5.36364 2.55556C5.36364 3.41467 4.71241 4.11111 3.90909 4.11111C3.10577 4.11111 2.45455 3.41467 2.45455 2.55556C2.45455 1.69645 3.10577 1 3.90909 1C4.71241 1 5.36364 1.69645 5.36364 2.55556Z" stroke="currentColor" stroke-width="0.8" stroke-linecap="round" stroke-linejoin="round"/>
</svg>
