<svg width="13" height="13" viewBox="0 0 13 13" fill="none" xmlns="http://www.w3.org/2000/svg">
<path d="M12.0013 9.23561V10.8916C12.0019 11.0453 11.9704 11.1974 11.9089 11.3383C11.8473 11.4792 11.7569 11.6056 11.6437 11.7095C11.5304 11.8134 11.3966 11.8926 11.251 11.9418C11.1054 11.9911 10.9511 12.0094 10.798 11.9955C9.09945 11.811 7.46788 11.2306 6.03439 10.3009C4.70071 9.45346 3.56998 8.32273 2.7225 6.98905C1.78964 5.54904 1.2091 3.90954 1.02792 2.20337C1.01412 2.05073 1.03226 1.89689 1.08118 1.75164C1.1301 1.6064 1.20873 1.47293 1.31206 1.35974C1.41539 1.24654 1.54115 1.1561 1.68135 1.09418C1.82154 1.03225 1.9731 1.0002 2.12636 1.00005H3.7823C4.05018 0.997417 4.30988 1.09228 4.513 1.26695C4.71611 1.44163 4.84877 1.6842 4.88627 1.94946C4.95616 2.4794 5.08578 2.99973 5.27265 3.50053C5.34692 3.6981 5.36299 3.91281 5.31897 4.11923C5.27494 4.32565 5.17267 4.51513 5.02426 4.66521L4.32325 5.36622C5.10902 6.74813 6.25322 7.89234 7.63513 8.67811L8.33615 7.9771C8.48623 7.82869 8.6757 7.72641 8.88212 7.68239C9.08855 7.63837 9.30326 7.65444 9.50083 7.7287C10.0016 7.91558 10.522 8.0452 11.0519 8.11509C11.32 8.15292 11.5649 8.28797 11.74 8.49458C11.915 8.70118 12.008 8.96491 12.0013 9.23561Z" stroke="currentColor" stroke-width="0.8" stroke-linecap="round" stroke-linejoin="round"/>
</svg>
