<svg width="24" height="24" viewBox="0 0 24 24" fill="none" xmlns="http://www.w3.org/2000/svg">
<path d="M17.8859 9.06655L15.6605 6.98798C14.1391 5.56584 13.3788 4.85617 12.5614 5.0243C11.744 5.19244 11.3748 6.13609 10.634 8.02271L10.1326 9.29983C9.93518 9.80284 9.8361 10.0543 9.65822 10.2491C9.5787 10.3367 9.48795 10.4148 9.38801 10.4817C9.16584 10.6309 8.88963 10.7017 8.33722 10.8439C7.09127 11.1647 6.46755 11.3252 6.23262 11.7056C6.13107 11.8702 6.07822 12.0571 6.07951 12.2471C6.08251 12.6864 6.53961 13.113 7.45305 13.967L8.51585 14.959L5.15631 18.0975C5.05393 18.1988 4.99789 18.3333 5.00006 18.4726C5.00224 18.6118 5.06246 18.7448 5.16796 18.8432C5.27345 18.9417 5.4159 18.9979 5.56508 18.9999C5.71425 19.002 5.8584 18.9497 5.96692 18.8541L9.32571 15.7156L10.426 16.744C11.3462 17.6029 11.8063 18.033 12.28 18.033C12.4789 18.033 12.6748 17.9854 12.8481 17.8929C13.2594 17.6737 13.4321 17.088 13.7781 15.9159C13.9297 15.401 14.0055 15.1439 14.1646 14.9359C14.2347 14.8453 14.3152 14.7631 14.4063 14.6893C14.6127 14.5225 14.8807 14.4287 15.4158 14.2409L16.7999 13.7554C18.7994 13.0548 19.7991 12.7039 19.9748 11.9438C20.1512 11.1829 19.3968 10.4775 17.8859 9.06655Z" fill="#6C27FF"/>
</svg>
