<svg width="19" height="19" viewBox="0 0 19 19" fill="none" xmlns="http://www.w3.org/2000/svg">
  <path fill-rule="evenodd" clip-rule="evenodd" d="M9.5 0.21875C10.0695 0.21875 10.5312 0.680456 10.5312 1.25V8.46875H17.75C18.3195 8.46875 18.7812 8.93046 18.7812 9.5C18.7812 10.0695 18.3195 10.5312 17.75 10.5312H10.5312V17.75C10.5312 18.3195 10.0695 18.7812 9.5 18.7812C8.93046 18.7812 8.46875 18.3195 8.46875 17.75V10.5312H1.25C0.680456 10.5312 0.21875 10.0695 0.21875 9.5C0.21875 8.93046 0.680456 8.46875 1.25 8.46875H8.46875V1.25C8.46875 0.680456 8.93046 0.21875 9.5 0.21875Z" fill="currentColor"/>
</svg>

