<svg width="20" height="10" viewBox="0 0 20 10" fill="none" xmlns="http://www.w3.org/2000/svg">
<path fill-rule="evenodd" clip-rule="evenodd" d="M17.6771 0.640394C16.9338 0.213465 16.1053 0 15.1916 0C14.1541 0 13.2327 0.270936 12.4274 0.812809C11.6376 1.35468 10.8478 2.10181 10.0581 3.05419C9.26828 2.10181 8.47076 1.35468 7.6655 0.812809C6.87572 0.270936 5.96205 0 4.9245 0C3.53077 0 2.36159 0.46798 1.41696 1.40394C0.472319 2.3399 0 3.53859 0 5C0 6.42857 0.472319 7.61905 1.41696 8.57143C2.36159 9.52381 3.53077 10 4.9245 10C5.97754 10 6.89894 9.72906 7.68872 9.18719C8.4785 8.64532 9.26828 7.89819 10.0581 6.94581C10.8478 7.89819 11.6376 8.64532 12.4274 9.18719C13.2327 9.72906 14.1541 10 15.1916 10C16.5853 10 17.7545 9.53202 18.6992 8.59606C19.3734 7.92803 19.807 7.12617 20 6.19048H16.8486C16.7692 6.32248 16.6737 6.4429 16.5621 6.55172C16.1905 6.92939 15.6794 7.11823 15.029 7.11823C14.4096 7.11823 13.8366 6.9376 13.3101 6.57635C12.7836 6.2151 12.2261 5.68965 11.6376 5C12.2571 4.29392 12.8145 3.76847 13.3101 3.42365C13.8211 3.0624 14.3941 2.88177 15.029 2.88177C15.4626 2.88177 15.842 2.97209 16.1672 3.15271C16.4647 3.30293 16.691 3.52187 16.8459 3.80952H19.9879C19.8774 3.32119 19.6956 2.86416 19.4425 2.43842C19.0089 1.66667 18.4204 1.06732 17.6771 0.640394ZM6.85249 6.57635C6.32597 6.9376 5.753 7.11823 5.13356 7.11823C4.46767 7.11823 3.94115 6.92939 3.554 6.55172C3.16686 6.15764 2.97328 5.64039 2.97328 5C2.97328 4.35961 3.16686 3.85057 3.554 3.47291C3.94115 3.07882 4.46767 2.88177 5.13356 2.88177C5.73751 2.88177 6.30274 3.0624 6.82926 3.42365C7.37126 3.78489 7.92876 4.31035 8.50173 5C7.92876 5.67323 7.37901 6.19868 6.85249 6.57635Z" fill="currentColor"/>
</svg>
