<svg width="10" height="11" viewBox="0 0 10 11" fill="none" xmlns="http://www.w3.org/2000/svg">
<path d="M3 1.98972L5 3.15518L7 1.98972M3 8.9735V6.64707L1 5.48161M9 5.48161L7 6.64707V8.9735M1.12 3.22242L5 5.48609L8.88 3.22242M5 10V5.48161M9 7.27462V3.6886C8.99984 3.53138 8.95869 3.37698 8.88068 3.24087C8.80268 3.10476 8.69055 2.99173 8.55556 2.91312L5.44444 1.12011C5.30932 1.04142 5.15603 1 5 1C4.84397 1 4.69068 1.04142 4.55556 1.12011L1.44444 2.91312C1.30945 2.99173 1.19732 3.10476 1.11932 3.24087C1.04131 3.37698 1.00016 3.53138 1 3.6886V7.27462C1.00016 7.43184 1.04131 7.58624 1.11932 7.72235C1.19732 7.85846 1.30945 7.97149 1.44444 8.0501L4.55556 9.84311C4.69068 9.9218 4.84397 9.96322 5 9.96322C5.15603 9.96322 5.30932 9.9218 5.44444 9.84311L8.55556 8.0501C8.69055 7.97149 8.80268 7.85846 8.88068 7.72235C8.95869 7.58624 8.99984 7.43184 9 7.27462Z" stroke="currentColor" stroke-width="0.8" stroke-linecap="round" stroke-linejoin="round"/>
</svg>
