<svg width="32" height="32" viewBox="0 0 32 32" fill="none" xmlns="http://www.w3.org/2000/svg">
  <path fill-rule="evenodd" clip-rule="evenodd" d="M15.6644 9C11.9609 9 9 11.9246 9 15.4819C9 19.0392 11.9609 21.9638 15.6644 21.9638C19.3678 21.9638 22.3287 19.0392 22.3287 15.4819C22.3287 11.9246 19.3678 9 15.6644 9ZM7 15.4819C7 10.7749 10.902 7 15.6644 7C20.4267 7 24.3287 10.7749 24.3287 15.4819C24.3287 17.5679 23.5623 19.4709 22.2943 20.9434L24.6977 23.2834C25.0934 23.6687 25.1018 24.3018 24.7166 24.6975C24.3313 25.0932 23.6982 25.1017 23.3025 24.7164L20.8197 22.2991C19.3762 23.3462 17.5907 23.9638 15.6644 23.9638C10.902 23.9638 7 20.1889 7 15.4819Z" fill="currentColor"/>
</svg>
