<svg width="18" height="18" viewBox="0 0 18 18" fill="none" xmlns="http://www.w3.org/2000/svg">
<path fill-rule="evenodd" clip-rule="evenodd" d="M8.66436 2C4.96089 2 2 4.92462 2 8.48189C2 12.0392 4.96089 14.9638 8.66436 14.9638C12.3678 14.9638 15.3287 12.0392 15.3287 8.48189C15.3287 4.92462 12.3678 2 8.66436 2ZM0 8.48189C0 3.77489 3.90202 0 8.66436 0C13.4267 0 17.3287 3.77489 17.3287 8.48189C17.3287 10.5679 16.5623 12.4709 15.2943 13.9434L17.6977 16.2834C18.0934 16.6687 18.1018 17.3018 17.7166 17.6975C17.3313 18.0932 16.6982 18.1017 16.3025 17.7164L13.8197 15.2991C12.3762 16.3462 10.5907 16.9638 8.66436 16.9638C3.90202 16.9638 0 13.1889 0 8.48189Z" fill="#A59FB9"/>
</svg>
