<svg width="24" height="24" viewBox="0 0 24 24" fill="none" xmlns="http://www.w3.org/2000/svg">
  <path fill-rule="evenodd" clip-rule="evenodd" d="M4.11154 3.85844C4.33598 3.72255 4.61511 3.71381 4.8476 3.83541L19.1864 11.335C19.4338 11.4644 19.5888 11.7204 19.5888 11.9996C19.5888 12.2787 19.4338 12.5348 19.1864 12.6642L4.84763 20.1646C4.61514 20.2862 4.336 20.2775 4.11155 20.1416C3.88711 20.0057 3.75 19.7624 3.75 19.5V13.5601C3.75 13.216 3.98422 12.916 4.3181 12.8325L10.7949 11.9633L4.30063 10.9998C3.97534 10.9101 3.75 10.6142 3.75 10.2767V4.5C3.75 4.23763 3.88711 3.99433 4.11154 3.85844Z" fill="currentColor"/>
</svg>
