<svg width="40" height="40" viewBox="0 0 40 40" fill="none" xmlns="http://www.w3.org/2000/svg">
  <path fill-rule="evenodd" clip-rule="evenodd" d="M29.3974 21.7775C29.7974 21.9912 30.106 22.3287 30.3232 22.6662C30.7461 23.3637 30.7118 24.2188 30.3003 24.9725L29.5002 26.3225C29.0773 27.0425 28.2887 27.4925 27.4772 27.4925C27.0771 27.4925 26.6314 27.38 26.2656 27.155C25.9684 26.9638 25.6255 26.8962 25.2598 26.8962C24.1282 26.8962 23.1796 27.83 23.1453 28.9438C23.1453 30.2375 22.0937 31.25 20.7793 31.25H19.2248C17.899 31.25 16.8475 30.2375 16.8475 28.9438C16.8246 27.83 15.8759 26.8962 14.7444 26.8962C14.3672 26.8962 14.0243 26.9638 13.7386 27.155C13.3728 27.38 12.9156 27.4925 12.527 27.4925C11.7041 27.4925 10.9154 27.0425 10.4925 26.3225L9.70384 24.9725C9.28094 24.2412 9.25808 23.3637 9.68098 22.6662C9.86385 22.3287 10.2067 21.9912 10.5954 21.7775C10.9154 21.62 11.1211 21.3612 11.3154 21.0575C11.8869 20.09 11.544 18.8187 10.5725 18.245C9.44095 17.6037 9.0752 16.175 9.7267 15.0612L10.4925 13.7337C11.1554 12.62 12.5727 12.2262 13.7157 12.8787C14.7101 13.4187 16.0017 13.0588 16.5846 12.1025C16.7674 11.7875 16.8703 11.45 16.8475 11.1125C16.8246 10.6737 16.9503 10.2575 17.1675 9.92C17.5904 9.2225 18.3562 8.7725 19.1906 8.75H20.8022C21.648 8.75 22.4138 9.2225 22.8367 9.92C23.0424 10.2575 23.1796 10.6737 23.1453 11.1125C23.1224 11.45 23.2253 11.7875 23.4082 12.1025C23.9911 13.0588 25.2826 13.4187 26.2885 12.8787C27.42 12.2262 28.8487 12.62 29.5002 13.7337L30.266 15.0612C30.929 16.175 30.5632 17.6037 29.4202 18.245C28.4487 18.8187 28.1058 20.09 28.6887 21.0575C28.8716 21.3612 29.0773 21.62 29.3974 21.7775ZM16.7673 20.0111C16.7673 21.7773 18.2189 23.1836 20.0133 23.1836C21.8078 23.1836 23.2251 21.7773 23.2251 20.0111C23.2251 18.2448 21.8078 16.8273 20.0133 16.8273C18.2189 16.8273 16.7673 18.2448 16.7673 20.0111Z" fill="currentColor"/>
</svg>
