<svg width="13" height="13" viewBox="0 0 13 13" fill="none" xmlns="http://www.w3.org/2000/svg">
<path d="M6.5 8C7.32843 8 8 7.32843 8 6.5C8 5.67157 7.32843 5 6.5 5C5.67157 5 5 5.67157 5 6.5C5 7.32843 5.67157 8 6.5 8Z" stroke="currentColor" stroke-width="0.8" stroke-linecap="round" stroke-linejoin="round"/>
<path d="M10.2 8C10.1334 8.15081 10.1136 8.3181 10.143 8.48029C10.1724 8.64249 10.2497 8.79216 10.365 8.91L10.395 8.94C10.488 9.03287 10.5617 9.14316 10.6121 9.26456C10.6624 9.38596 10.6883 9.51608 10.6883 9.6475C10.6883 9.77892 10.6624 9.90904 10.6121 10.0304C10.5617 10.1518 10.488 10.2621 10.395 10.355C10.3021 10.448 10.1918 10.5217 10.0704 10.5721C9.94904 10.6224 9.81892 10.6483 9.6875 10.6483C9.55608 10.6483 9.42596 10.6224 9.30456 10.5721C9.18316 10.5217 9.07287 10.448 8.98 10.355L8.95 10.325C8.83216 10.2097 8.68249 10.1324 8.52029 10.103C8.3581 10.0736 8.19081 10.0934 8.04 10.16C7.89212 10.2234 7.76599 10.3286 7.67715 10.4628C7.58832 10.5969 7.54064 10.7541 7.54 10.915V11C7.54 11.2652 7.43464 11.5196 7.24711 11.7071C7.05957 11.8946 6.80522 12 6.54 12C6.27478 12 6.02043 11.8946 5.83289 11.7071C5.64536 11.5196 5.54 11.2652 5.54 11V10.955C5.53613 10.7895 5.48256 10.629 5.38626 10.4944C5.28995 10.3597 5.15537 10.2571 5 10.2C4.84919 10.1334 4.6819 10.1136 4.51971 10.143C4.35751 10.1724 4.20784 10.2497 4.09 10.365L4.06 10.395C3.96713 10.488 3.85684 10.5617 3.73544 10.6121C3.61404 10.6624 3.48392 10.6883 3.3525 10.6883C3.22108 10.6883 3.09096 10.6624 2.96956 10.6121C2.84816 10.5617 2.73787 10.488 2.645 10.395C2.55202 10.3021 2.47826 10.1918 2.42794 10.0704C2.37762 9.94904 2.35171 9.81892 2.35171 9.6875C2.35171 9.55608 2.37762 9.42596 2.42794 9.30456C2.47826 9.18316 2.55202 9.07287 2.645 8.98L2.675 8.95C2.79027 8.83216 2.86759 8.68249 2.897 8.52029C2.92641 8.3581 2.90656 8.19081 2.84 8.04C2.77662 7.89212 2.67138 7.76599 2.53723 7.67715C2.40309 7.58832 2.24589 7.54064 2.085 7.54H2C1.73478 7.54 1.48043 7.43464 1.29289 7.24711C1.10536 7.05957 1 6.80522 1 6.54C1 6.27478 1.10536 6.02043 1.29289 5.83289C1.48043 5.64536 1.73478 5.54 2 5.54H2.045C2.2105 5.53613 2.371 5.48256 2.50565 5.38626C2.6403 5.28995 2.74286 5.15537 2.8 5C2.86656 4.84919 2.88641 4.6819 2.857 4.51971C2.82759 4.35751 2.75027 4.20784 2.635 4.09L2.605 4.06C2.51202 3.96713 2.43826 3.85684 2.38794 3.73544C2.33762 3.61404 2.31171 3.48392 2.31171 3.3525C2.31171 3.22108 2.33762 3.09096 2.38794 2.96956C2.43826 2.84816 2.51202 2.73787 2.605 2.645C2.69787 2.55202 2.80816 2.47826 2.92956 2.42794C3.05096 2.37762 3.18108 2.35171 3.3125 2.35171C3.44392 2.35171 3.57404 2.37762 3.69544 2.42794C3.81684 2.47826 3.92713 2.55202 4.02 2.645L4.05 2.675C4.16784 2.79027 4.31751 2.86759 4.47971 2.897C4.6419 2.92641 4.80919 2.90656 4.96 2.84H5C5.14788 2.77662 5.27401 2.67138 5.36285 2.53723C5.45168 2.40309 5.49936 2.24589 5.5 2.085V2C5.5 1.73478 5.60536 1.48043 5.79289 1.29289C5.98043 1.10536 6.23478 1 6.5 1C6.76522 1 7.01957 1.10536 7.20711 1.29289C7.39464 1.48043 7.5 1.73478 7.5 2V2.045C7.50064 2.20589 7.54832 2.36309 7.63715 2.49723C7.72599 2.63138 7.85212 2.73662 8 2.8C8.15081 2.86656 8.3181 2.88641 8.48029 2.857C8.64249 2.82759 8.79216 2.75027 8.91 2.635L8.94 2.605C9.03287 2.51202 9.14316 2.43826 9.26456 2.38794C9.38596 2.33762 9.51608 2.31171 9.6475 2.31171C9.77892 2.31171 9.90904 2.33762 10.0304 2.38794C10.1518 2.43826 10.2621 2.51202 10.355 2.605C10.448 2.69787 10.5217 2.80816 10.5721 2.92956C10.6224 3.05096 10.6483 3.18108 10.6483 3.3125C10.6483 3.44392 10.6224 3.57404 10.5721 3.69544C10.5217 3.81684 10.448 3.92713 10.355 4.02L10.325 4.05C10.2097 4.16784 10.1324 4.31751 10.103 4.47971C10.0736 4.6419 10.0934 4.80919 10.16 4.96V5C10.2234 5.14788 10.3286 5.27401 10.4628 5.36285C10.5969 5.45168 10.7541 5.49936 10.915 5.5H11C11.2652 5.5 11.5196 5.60536 11.7071 5.79289C11.8946 5.98043 12 6.23478 12 6.5C12 6.76522 11.8946 7.01957 11.7071 7.20711C11.5196 7.39464 11.2652 7.5 11 7.5H10.955C10.7941 7.50064 10.6369 7.54832 10.5028 7.63715C10.3686 7.72599 10.2634 7.85212 10.2 8Z" stroke="currentColor" stroke-width="0.8" stroke-linecap="round" stroke-linejoin="round"/>
</svg>
