<svg width="22" height="23" viewBox="0 0 22 23" fill="none" xmlns="http://www.w3.org/2000/svg">
  <path fill-rule="evenodd" clip-rule="evenodd" d="M14.4375 7.375C14.0578 7.375 13.75 7.6828 13.75 8.0625C13.75 8.4422 14.0578 8.75 14.4375 8.75C14.8172 8.75 15.125 8.4422 15.125 8.0625C15.125 7.6828 14.8172 7.375 14.4375 7.375ZM12.375 8.0625C12.375 6.92341 13.2984 6 14.4375 6C15.5766 6 16.5 6.92341 16.5 8.0625C16.5 9.20159 15.5766 10.125 14.4375 10.125C13.8814 10.125 13.3767 9.9049 13.0057 9.54705L9.60942 11.2452C9.6197 11.3287 9.625 11.4137 9.625 11.5C9.625 11.5863 9.6197 11.6713 9.60942 11.7548L13.0057 13.453C13.3767 13.0951 13.8814 12.875 14.4375 12.875C15.5766 12.875 16.5 13.7984 16.5 14.9375C16.5 16.0766 15.5766 17 14.4375 17C13.2984 17 12.375 16.0766 12.375 14.9375C12.375 14.8512 12.3803 14.7662 12.3906 14.6827L8.9943 12.9845C8.62335 13.3424 8.11863 13.5625 7.5625 13.5625C6.42341 13.5625 5.5 12.6391 5.5 11.5C5.5 10.3609 6.42341 9.4375 7.5625 9.4375C8.11863 9.4375 8.62335 9.6576 8.9943 10.0155L12.3906 8.31731C12.3803 8.23382 12.375 8.14878 12.375 8.0625ZM7.5625 10.8125C7.1828 10.8125 6.875 11.1203 6.875 11.5C6.875 11.8797 7.1828 12.1875 7.5625 12.1875C7.9422 12.1875 8.25 11.8797 8.25 11.5C8.25 11.1203 7.9422 10.8125 7.5625 10.8125ZM14.4375 14.25C14.0578 14.25 13.75 14.5578 13.75 14.9375C13.75 15.3172 14.0578 15.625 14.4375 15.625C14.8172 15.625 15.125 15.3172 15.125 14.9375C15.125 14.5578 14.8172 14.25 14.4375 14.25Z" fill="currentColor"/>
</svg>
