<svg width="12" height="12" viewBox="0 0 12 12" fill="none" xmlns="http://www.w3.org/2000/svg">
<path d="M4.99432 6.36272C5.21027 6.6517 5.48578 6.89082 5.80216 7.06385C6.11854 7.23688 6.4684 7.33977 6.828 7.36555C7.1876 7.39133 7.54853 7.33939 7.88632 7.21326C8.2241 7.08713 8.53084 6.88976 8.78572 6.63453L10.2942 5.12449C10.7522 4.64983 11.0056 4.0141 10.9999 3.35423C10.9942 2.69435 10.7298 2.06313 10.2636 1.59651C9.79746 1.12989 9.16687 0.865204 8.50766 0.85947C7.84844 0.853736 7.21335 1.10741 6.73917 1.56585L5.87429 2.42657M7.00568 5.35603C6.78973 5.06705 6.51422 4.82793 6.19784 4.6549C5.88146 4.48187 5.5316 4.37898 5.172 4.3532C4.8124 4.32742 4.45147 4.37936 4.11368 4.50549C3.77589 4.63162 3.46916 4.82899 3.21428 5.08422L1.70576 6.59426C1.24778 7.06892 0.994367 7.70465 1.0001 8.36452C1.00582 9.0244 1.27024 9.65562 1.73639 10.1222C2.20254 10.5889 2.83313 10.8535 3.49234 10.8593C4.15156 10.865 4.78665 10.6113 5.26083 10.1529L6.12068 9.29218" stroke="currentColor" stroke-width="0.8" stroke-linecap="round" stroke-linejoin="round"/>
</svg>
