<svg width="6" height="6" viewBox="0 0 6 6" fill="none" xmlns="http://www.w3.org/2000/svg">
<path d="M3.8 5V1.44444C3.8 1.32657 3.75786 1.21352 3.68284 1.13017C3.60783 1.04683 3.50609 1 3.4 1H2.6C2.49391 1 2.39217 1.04683 2.31716 1.13017C2.24214 1.21352 2.2 1.32657 2.2 1.44444V5M1.4 1.88889H4.6C4.82091 1.88889 5 2.08787 5 2.33333V4.55556C5 4.80102 4.82091 5 4.6 5H1.4C1.17909 5 1 4.80102 1 4.55556V2.33333C1 2.08787 1.17909 1.88889 1.4 1.88889Z" stroke="currentColor" stroke-width="0.5" stroke-linecap="round" stroke-linejoin="round"/>
</svg>
