<svg width="15" height="13" viewBox="0 0 15 13" fill="none" xmlns="http://www.w3.org/2000/svg">
<path d="M10.4545 12V10.7778C10.4545 10.1295 10.2055 9.50772 9.76225 9.04929C9.31898 8.59087 8.71778 8.33333 8.09091 8.33333H3.36364C2.73676 8.33333 2.13556 8.59087 1.69229 9.04929C1.24903 9.50772 1 10.1295 1 10.7778V12M14 12V10.7778C13.9996 10.2362 13.8253 9.71003 13.5044 9.28197C13.1836 8.85391 12.7343 8.54818 12.2273 8.41278M9.86364 1.07944C10.3721 1.21407 10.8227 1.51987 11.1445 1.94863C11.4663 2.3774 11.641 2.90473 11.641 3.4475C11.641 3.99027 11.4663 4.5176 11.1445 4.94637C10.8227 5.37513 10.3721 5.68093 9.86364 5.81556M8.09091 3.44444C8.09091 4.79447 7.03267 5.88889 5.72727 5.88889C4.42187 5.88889 3.36364 4.79447 3.36364 3.44444C3.36364 2.09441 4.42187 1 5.72727 1C7.03267 1 8.09091 2.09441 8.09091 3.44444Z" stroke="currentColor" stroke-width="0.8" stroke-linecap="round" stroke-linejoin="round"/>
</svg>
