<svg width="60" height="60" viewBox="0 0 60 60" fill="none" xmlns="http://www.w3.org/2000/svg">
  <path d="M18.75 45C17.7188 45 16.8362 44.6331 16.1025 43.8994C15.3675 43.1644 15 42.2812 15 41.25V37.5C15 36.9688 15.1794 36.5231 15.5381 36.1631C15.8981 35.8044 16.3438 35.625 16.875 35.625C17.4062 35.625 17.8519 35.8044 18.2119 36.1631C18.5706 36.5231 18.75 36.9688 18.75 37.5V41.25H41.25V37.5C41.25 36.9688 41.43 36.5231 41.79 36.1631C42.1488 35.8044 42.5938 35.625 43.125 35.625C43.6562 35.625 44.1012 35.8044 44.46 36.1631C44.82 36.5231 45 36.9688 45 37.5V41.25C45 42.2812 44.6331 43.1644 43.8994 43.8994C43.1644 44.6331 42.2812 45 41.25 45H18.75Z" fill="currentColor"/>
  <path d="M30.7031 15.1181C30.4844 15.0394 30.25 15 30 15C29.75 15 29.5156 15.0394 29.2969 15.1181C29.0781 15.1956 28.875 15.3281 28.6875 15.5156L21.9375 22.2656C21.5938 22.6094 21.4219 23.0469 21.4219 23.5781C21.4219 24.1094 21.5938 24.5469 21.9375 24.8906C22.2812 25.2344 22.7262 25.4144 23.2725 25.4306C23.82 25.4456 24.2656 25.2813 24.6094 24.9375L28.125 21.4219V34.8281C28.125 35.3594 28.3044 35.805 28.6631 36.165C29.0231 36.5237 29.4688 36.7031 30 36.7031C30.5312 36.7031 30.9762 36.5237 31.335 36.165C31.695 35.805 31.875 35.3594 31.875 34.8281V21.4219L35.3906 24.9375C35.7344 25.2813 36.18 25.4456 36.7275 25.4306C37.2738 25.4144 37.7188 25.2344 38.0625 24.8906C38.4063 24.5469 38.5781 24.1094 38.5781 23.5781C38.5781 23.0469 38.4063 22.6094 38.0625 22.2656L31.3125 15.5156C31.125 15.3281 30.9219 15.1956 30.7031 15.1181Z" fill="currentColor"/>
</svg>
