<svg width="15" height="13" viewBox="0 0 15 13" fill="none" xmlns="http://www.w3.org/2000/svg">
<path d="M9.86364 12V10.7778C9.86364 10.1295 9.61461 9.50772 9.17134 9.04929C8.72808 8.59087 8.12688 8.33333 7.5 8.33333H3.36364C2.73676 8.33333 2.13556 8.59087 1.69229 9.04929C1.24903 9.50772 1 10.1295 1 10.7778V12M10.4545 5.88889L11.6364 7.11111L14 4.66667M7.79545 3.44444C7.79545 4.79447 6.73722 5.88889 5.43182 5.88889C4.12642 5.88889 3.06818 4.79447 3.06818 3.44444C3.06818 2.09441 4.12642 1 5.43182 1C6.73722 1 7.79545 2.09441 7.79545 3.44444Z" stroke="currentColor" stroke-width="0.8" stroke-linecap="round" stroke-linejoin="round"/>
</svg>
