<svg width="20" height="20" viewBox="0 0 20 20" fill="none" xmlns="http://www.w3.org/2000/svg">
<path d="M0.835938 18.334H19.1693" stroke="currentColor" stroke-width="1.5" stroke-linecap="round" stroke-linejoin="round"/>
<path d="M16.4844 18.3417V14.625" stroke="currentColor" stroke-width="1.5" stroke-linecap="round" stroke-linejoin="round"/>
<path d="M14.6641 10.9076V12.7992C14.6641 13.8159 15.4807 14.6325 16.4974 14.6325C17.5141 14.6325 18.3307 13.8159 18.3307 12.7992V10.9076C18.3307 9.8909 17.5141 9.07422 16.4974 9.07422C15.4807 9.07422 14.6641 9.8909 14.6641 10.9076Z" stroke="currentColor" stroke-width="1.5" stroke-linecap="round" stroke-linejoin="round"/>
<path d="M1.75 18.3328V5.0245C1.75 3.3495 2.58338 2.50781 4.24171 2.50781H9.43336C11.0917 2.50781 11.9167 3.3495 11.9167 5.0245V18.3328" stroke="currentColor" stroke-width="1.5" stroke-linecap="round" stroke-linejoin="round"/>
<path d="M4.83594 6.875H8.96095" stroke="currentColor" stroke-width="1.5" stroke-linecap="round" stroke-linejoin="round"/>
<path d="M4.83594 10H8.96095" stroke="currentColor" stroke-width="1.5" stroke-linecap="round" stroke-linejoin="round"/>
<path d="M6.875 18.334V15.209" stroke="currentColor" stroke-width="1.5" stroke-linecap="round" stroke-linejoin="round"/>
</svg>
