<svg width="13" height="13" viewBox="0 0 13 13" fill="none" xmlns="http://www.w3.org/2000/svg">
<path d="M12 6.5C12 9.53757 9.53757 12 6.5 12M12 6.5C12 3.46243 9.53757 1 6.5 1M12 6.5H1M6.5 12C3.46243 12 1 9.53757 1 6.5M6.5 12C7.8757 10.4939 8.65751 8.53938 8.7 6.5C8.65751 4.46062 7.8757 2.50609 6.5 1M6.5 12C5.1243 10.4939 4.34249 8.53938 4.3 6.5C4.34249 4.46062 5.1243 2.50609 6.5 1M1 6.5C1 3.46243 3.46243 1 6.5 1" stroke="currentColor" stroke-width="0.5" stroke-linecap="round" stroke-linejoin="round"/>
</svg>
