<svg width="32" height="32" viewBox="0 0 32 32" fill="none" xmlns="http://www.w3.org/2000/svg">
  <path d="M24.25 30H7.75C7.02065 30 6.32118 29.705 5.80546 29.1799C5.28973 28.6549 5 27.9427 5 27.2001V4.80111C5 4.05854 5.28973 3.34638 5.80546 2.8213C6.32118 2.29622 7.02065 2.00123 7.75 2.00123H17.375C17.3873 1.99959 17.3998 1.99959 17.4121 2.00123H17.4204C17.4334 2.00536 17.4467 2.00818 17.4603 2.00963C17.5813 2.01803 17.7009 2.04183 17.8164 2.08103H17.8741C17.8995 2.09911 17.9234 2.11924 17.9456 2.14123C18.0954 2.20904 18.2319 2.3039 18.3485 2.42121L26.5985 10.8208C26.7137 10.9395 26.8069 11.0785 26.8735 11.231C26.8855 11.2613 26.896 11.2921 26.9051 11.3234L26.9189 11.3626C26.9574 11.4788 26.9794 11.6006 26.9862 11.7238C26.9874 11.7378 26.9907 11.7514 26.9959 11.7644V11.7728C26.9981 11.782 26.9995 11.7914 27 11.8008V27.2001C27 27.9427 26.7103 28.6549 26.1945 29.1799C25.6788 29.705 24.9793 30 24.25 30ZM17.375 4.80111V11.8008H24.25L17.375 4.80111Z" fill="#332E2D"/>
  <path d="M12.8011 20.8771L11.8388 21.0476C11.7985 20.9245 11.7346 20.8073 11.647 20.696C11.5618 20.5848 11.4458 20.4936 11.299 20.4226C11.1522 20.3516 10.9688 20.3161 10.7486 20.3161C10.4479 20.3161 10.197 20.3835 9.99574 20.5185C9.79451 20.651 9.69389 20.8227 9.69389 21.0334C9.69389 21.2157 9.76136 21.3625 9.89631 21.4737C10.0313 21.585 10.2491 21.6761 10.5497 21.7472L11.4162 21.946C11.9181 22.062 12.2921 22.2408 12.5384 22.4822C12.7846 22.7237 12.9077 23.0374 12.9077 23.4233C12.9077 23.75 12.813 24.0412 12.6236 24.2969C12.4366 24.5502 12.175 24.7491 11.8388 24.8935C11.505 25.0379 11.1179 25.1101 10.6776 25.1101C10.0668 25.1101 9.56842 24.9799 9.18253 24.7195C8.79664 24.4567 8.5599 24.0838 8.4723 23.6009L9.49858 23.4446C9.5625 23.7121 9.69389 23.9145 9.89276 24.0518C10.0916 24.1868 10.3509 24.2543 10.6705 24.2543C11.0185 24.2543 11.2966 24.1821 11.505 24.0376C11.7133 23.8909 11.8175 23.7121 11.8175 23.5014C11.8175 23.331 11.7536 23.1877 11.6257 23.0717C11.5002 22.9557 11.3073 22.8681 11.0469 22.8089L10.1236 22.6065C9.61458 22.4905 9.23816 22.3059 8.99432 22.0526C8.75284 21.7992 8.6321 21.4785 8.6321 21.0902C8.6321 20.7682 8.72206 20.4865 8.90199 20.245C9.08191 20.0036 9.33049 19.8153 9.64773 19.6804C9.96496 19.5431 10.3284 19.4744 10.7379 19.4744C11.3274 19.4744 11.7914 19.6023 12.13 19.858C12.4685 20.1113 12.6922 20.451 12.8011 20.8771ZM18.1413 19.5455L16.1633 25H15.027L13.0454 19.5455H14.1853L15.5667 23.7429H15.6235L17.0014 19.5455H18.1413ZM20.6406 27.1591C20.2073 27.1591 19.8344 27.1023 19.5219 26.9886C19.2118 26.875 18.9585 26.7247 18.762 26.5376C18.5655 26.3506 18.4187 26.1458 18.3217 25.9233L19.2343 25.5469C19.2982 25.651 19.3835 25.7611 19.49 25.8771C19.5989 25.9955 19.7457 26.0961 19.9303 26.179C20.1174 26.2618 20.3576 26.3033 20.6512 26.3033C21.0537 26.3033 21.3863 26.205 21.6491 26.0085C21.9119 25.8144 22.0433 25.5043 22.0433 25.0781V24.0057H21.9758C21.9119 24.1217 21.8195 24.2507 21.6988 24.3928C21.5804 24.5348 21.4171 24.6579 21.2087 24.7621C21.0004 24.8662 20.7293 24.9183 20.3955 24.9183C19.9647 24.9183 19.5764 24.8177 19.2308 24.6165C18.8875 24.4129 18.6152 24.1134 18.414 23.718C18.2151 23.3203 18.1157 22.8314 18.1157 22.2514C18.1157 21.6714 18.2139 21.1742 18.4104 20.7599C18.6093 20.3456 18.8816 20.0284 19.2272 19.8082C19.5728 19.5857 19.9647 19.4744 20.4026 19.4744C20.7412 19.4744 21.0146 19.5312 21.2229 19.6449C21.4313 19.7562 21.5934 19.8864 21.7094 20.0355C21.8278 20.1847 21.919 20.3161 21.9829 20.4297H22.061V19.5455H23.1015V25.1207C23.1015 25.5895 22.9926 25.9742 22.7748 26.2749C22.557 26.5755 22.2622 26.7981 21.8906 26.9425C21.5212 27.0869 21.1046 27.1591 20.6406 27.1591ZM20.6299 24.0376C20.9353 24.0376 21.1933 23.9666 21.404 23.8246C21.6171 23.6802 21.7781 23.4742 21.887 23.2067C21.9983 22.9368 22.0539 22.6136 22.0539 22.2372C22.0539 21.8703 21.9995 21.5471 21.8906 21.2678C21.7817 20.9884 21.6219 20.7706 21.4112 20.6143C21.2005 20.4557 20.94 20.3764 20.6299 20.3764C20.3103 20.3764 20.044 20.4593 19.8309 20.625C19.6178 20.7884 19.4568 21.0109 19.3479 21.2926C19.2414 21.5743 19.1881 21.8892 19.1881 22.2372C19.1881 22.5947 19.2426 22.9084 19.3515 23.1783C19.4604 23.4482 19.6214 23.6589 19.8344 23.8104C20.0499 23.9619 20.315 24.0376 20.6299 24.0376Z" fill="white"/>
</svg>
