<svg width="32" height="32" viewBox="0 0 32 32" fill="none" xmlns="http://www.w3.org/2000/svg">
  <path d="M24.25 30H7.75C7.02065 30 6.32118 29.705 5.80546 29.1799C5.28973 28.6549 5 27.9427 5 27.2001V4.80111C5 4.05854 5.28973 3.34638 5.80546 2.8213C6.32118 2.29622 7.02065 2.00123 7.75 2.00123H17.375C17.3873 1.99959 17.3998 1.99959 17.4121 2.00123H17.4204C17.4334 2.00536 17.4467 2.00818 17.4603 2.00963C17.5813 2.01803 17.7009 2.04183 17.8164 2.08103H17.8741C17.8995 2.09911 17.9234 2.11924 17.9456 2.14123C18.0954 2.20904 18.2319 2.3039 18.3485 2.42121L26.5985 10.8208C26.7137 10.9395 26.8069 11.0785 26.8735 11.231C26.8855 11.2613 26.896 11.2921 26.9051 11.3234L26.9189 11.3626C26.9574 11.4788 26.9794 11.6006 26.9862 11.7238C26.9874 11.7378 26.9907 11.7514 26.9959 11.7644V11.7728C26.9981 11.782 26.9995 11.7914 27 11.8008V27.2001C27 27.9427 26.7103 28.6549 26.1945 29.1799C25.6788 29.705 24.9793 30 24.25 30ZM17.375 4.80111V11.8008H24.25L17.375 4.80111Z" fill="#332E2D"/>
  <path d="M8.55185 19.5455L9.75568 21.669L10.9702 19.5455H12.1314L10.4304 22.2727L12.1456 25H10.9844L9.75568 22.9616L8.53054 25H7.36577L9.06321 22.2727L7.38707 19.5455H8.55185ZM13.7834 17.7273V25H12.7216V17.7273H13.7834ZM18.7992 20.8771L17.8368 21.0476C17.7966 20.9245 17.7327 20.8073 17.6451 20.696C17.5598 20.5848 17.4438 20.4936 17.2971 20.4226C17.1503 20.3516 16.9668 20.3161 16.7466 20.3161C16.446 20.3161 16.195 20.3835 15.9938 20.5185C15.7926 20.651 15.6919 20.8227 15.6919 21.0334C15.6919 21.2157 15.7594 21.3625 15.8944 21.4737C16.0293 21.585 16.2471 21.6761 16.5478 21.7472L17.4142 21.946C17.9161 22.062 18.2902 22.2408 18.5364 22.4822C18.7826 22.7237 18.9057 23.0374 18.9057 23.4233C18.9057 23.75 18.811 24.0412 18.6216 24.2969C18.4346 24.5502 18.173 24.7491 17.8368 24.8935C17.503 25.0379 17.1159 25.1101 16.6756 25.1101C16.0648 25.1101 15.5665 24.9799 15.1806 24.7195C14.7947 24.4567 14.5579 24.0838 14.4703 23.6009L15.4966 23.4446C15.5605 23.7121 15.6919 23.9145 15.8908 24.0518C16.0897 24.1868 16.3489 24.2543 16.6685 24.2543C17.0165 24.2543 17.2947 24.1821 17.503 24.0376C17.7114 23.8909 17.8155 23.7121 17.8155 23.5014C17.8155 23.331 17.7516 23.1877 17.6238 23.0717C17.4983 22.9557 17.3053 22.8681 17.0449 22.8089L16.1216 22.6065C15.6126 22.4905 15.2362 22.3059 14.9924 22.0526C14.7509 21.7992 14.6301 21.4785 14.6301 21.0902C14.6301 20.7682 14.7201 20.4865 14.9 20.245C15.08 20.0036 15.3285 19.8153 15.6458 19.6804C15.963 19.5431 16.3264 19.4744 16.736 19.4744C17.3255 19.4744 17.7895 19.6023 18.128 19.858C18.4666 20.1113 18.6903 20.451 18.7992 20.8771ZM20.4112 19.5455L21.6151 21.669L22.8295 19.5455H23.9908L22.2898 22.2727L24.005 25H22.8438L21.6151 22.9616L20.3899 25H19.2251L20.9226 22.2727L19.2464 19.5455H20.4112Z" fill="white"/>
</svg>
