<svg width="32" height="32" viewBox="0 0 32 32" fill="none" xmlns="http://www.w3.org/2000/svg">
  <path d="M24.25 30H7.75C7.02065 30 6.32118 29.705 5.80546 29.1799C5.28973 28.6549 5 27.9427 5 27.2001V4.80111C5 4.05854 5.28973 3.34638 5.80546 2.8213C6.32118 2.29622 7.02065 2.00123 7.75 2.00123H17.375C17.3873 1.99959 17.3998 1.99959 17.4121 2.00123H17.4204C17.4334 2.00536 17.4467 2.00818 17.4603 2.00963C17.5813 2.01803 17.7009 2.04183 17.8164 2.08103H17.8741C17.8995 2.09911 17.9234 2.11924 17.9456 2.14123C18.0954 2.20904 18.2319 2.3039 18.3485 2.42121L26.5985 10.8208C26.7137 10.9395 26.8069 11.0785 26.8735 11.231C26.8855 11.2613 26.896 11.2921 26.9051 11.3234L26.9189 11.3626C26.9574 11.4788 26.9794 11.6006 26.9862 11.7238C26.9874 11.7378 26.9907 11.7514 26.9959 11.7644V11.7728C26.9981 11.782 26.9995 11.7914 27 11.8008V27.2001C27 27.9427 26.7103 28.6549 26.1945 29.1799C25.6788 29.705 24.9793 30 24.25 30ZM17.375 4.80111V11.8008H24.25L17.375 4.80111Z" fill="#332E2D"/>
  <path d="M8.71378 27.0455V19.5455H9.75071V20.4297H9.83949C9.90104 20.3161 9.98982 20.1847 10.1058 20.0355C10.2218 19.8864 10.3828 19.7562 10.5888 19.6449C10.7947 19.5312 11.067 19.4744 11.4055 19.4744C11.8459 19.4744 12.2389 19.5857 12.5845 19.8082C12.9302 20.0308 13.2012 20.3516 13.3977 20.7706C13.5966 21.1896 13.696 21.6939 13.696 22.2834C13.696 22.8729 13.5978 23.3783 13.4013 23.7997C13.2048 24.2187 12.9349 24.5419 12.5916 24.7692C12.2483 24.9941 11.8565 25.1065 11.4162 25.1065C11.0848 25.1065 10.8137 25.0509 10.603 24.9396C10.3946 24.8284 10.2313 24.6982 10.1129 24.549C9.99455 24.3999 9.90341 24.2673 9.83949 24.1513H9.77557V27.0455H8.71378ZM9.75426 22.2727C9.75426 22.6562 9.8099 22.9924 9.92116 23.2812C10.0324 23.5701 10.1934 23.7962 10.4041 23.9595C10.6148 24.1205 10.8729 24.201 11.1783 24.201C11.4955 24.201 11.7607 24.117 11.9737 23.9489C12.1868 23.7784 12.3478 23.5476 12.4567 23.2564C12.5679 22.9652 12.6236 22.6373 12.6236 22.2727C12.6236 21.9129 12.5691 21.5897 12.4602 21.3033C12.3537 21.0168 12.1927 20.7907 11.9773 20.625C11.7642 20.4593 11.4979 20.3764 11.1783 20.3764C10.8705 20.3764 10.6101 20.4557 10.397 20.6143C10.1863 20.773 10.0265 20.9943 9.91761 21.2784C9.80871 21.5625 9.75426 21.8939 9.75426 22.2727ZM14.3857 27.0455V19.5455H15.4226V20.4297H15.5114C15.5729 20.3161 15.6617 20.1847 15.7777 20.0355C15.8937 19.8864 16.0547 19.7562 16.2607 19.6449C16.4666 19.5312 16.7389 19.4744 17.0774 19.4744C17.5178 19.4744 17.9107 19.5857 18.2564 19.8082C18.602 20.0308 18.8731 20.3516 19.0696 20.7706C19.2685 21.1896 19.3679 21.6939 19.3679 22.2834C19.3679 22.8729 19.2696 23.3783 19.0732 23.7997C18.8767 24.2187 18.6068 24.5419 18.2635 24.7692C17.9202 24.9941 17.5284 25.1065 17.0881 25.1065C16.7566 25.1065 16.4856 25.0509 16.2749 24.9396C16.0665 24.8284 15.9032 24.6982 15.7848 24.549C15.6664 24.3999 15.5753 24.2673 15.5114 24.1513H15.4474V27.0455H14.3857ZM15.4261 22.2727C15.4261 22.6562 15.4818 22.9924 15.593 23.2812C15.7043 23.5701 15.8653 23.7962 16.076 23.9595C16.2867 24.1205 16.5447 24.201 16.8501 24.201C17.1674 24.201 17.4325 24.117 17.6456 23.9489C17.8587 23.7784 18.0196 23.5476 18.1286 23.2564C18.2398 22.9652 18.2955 22.6373 18.2955 22.2727C18.2955 21.9129 18.241 21.5897 18.1321 21.3033C18.0256 21.0168 17.8646 20.7907 17.6491 20.625C17.4361 20.4593 17.1697 20.3764 16.8501 20.3764C16.5424 20.3764 16.282 20.4557 16.0689 20.6143C15.8582 20.773 15.6984 20.9943 15.5895 21.2784C15.4806 21.5625 15.4261 21.8939 15.4261 22.2727ZM22.6037 19.5455V20.3977H19.6243V19.5455H22.6037ZM20.4233 18.2386H21.4851V23.3984C21.4851 23.6044 21.5159 23.7595 21.5774 23.8636C21.639 23.9654 21.7183 24.0353 21.8153 24.0732C21.9148 24.1087 22.0225 24.1264 22.1385 24.1264C22.2237 24.1264 22.2983 24.1205 22.3622 24.1087C22.4261 24.0968 22.4759 24.0874 22.5114 24.0803L22.7031 24.9574C22.6416 24.9811 22.554 25.0047 22.4403 25.0284C22.3267 25.0545 22.1847 25.0687 22.0142 25.071C21.7348 25.0758 21.4744 25.026 21.233 24.9219C20.9915 24.8177 20.7962 24.6567 20.647 24.4389C20.4979 24.2211 20.4233 23.9477 20.4233 23.6186V18.2386Z" fill="white"/>
</svg>
