<svg width="32" height="32" viewBox="0 0 32 32" fill="none" xmlns="http://www.w3.org/2000/svg">
  <path d="M24.25 30H7.75C7.02065 30 6.32118 29.705 5.80546 29.1799C5.28973 28.6549 5 27.9427 5 27.2001V4.80111C5 4.05854 5.28973 3.34638 5.80546 2.8213C6.32118 2.29622 7.02065 2.00123 7.75 2.00123H17.375C17.3873 1.99959 17.3998 1.99959 17.4121 2.00123H17.4204C17.4334 2.00536 17.4467 2.00818 17.4603 2.00963C17.5813 2.01803 17.7009 2.04183 17.8164 2.08103H17.8741C17.8995 2.09911 17.9234 2.11924 17.9456 2.14123C18.0954 2.20904 18.2319 2.3039 18.3485 2.42121L26.5985 10.8208C26.7137 10.9395 26.8069 11.0785 26.8735 11.231C26.8855 11.2613 26.896 11.2921 26.9051 11.3234L26.9189 11.3626C26.9574 11.4788 26.9794 11.6006 26.9862 11.7238C26.9874 11.7378 26.9907 11.7514 26.9959 11.7644V11.7728C26.9981 11.782 26.9995 11.7914 27 11.8008V27.2001C27 27.9427 26.7103 28.6549 26.1945 29.1799C25.6788 29.705 24.9793 30 24.25 30ZM17.375 4.80111V11.8008H24.25L17.375 4.80111Z" fill="#332E2D"/>
  <path d="M6.71378 19.5455H7.77557V25.3551C7.77557 25.7197 7.70928 26.0275 7.5767 26.2784C7.4465 26.5294 7.25237 26.7199 6.99432 26.8501C6.73864 26.9804 6.42259 27.0455 6.04616 27.0455C6.00829 27.0455 5.97277 27.0455 5.93963 27.0455C5.90412 27.0455 5.86742 27.0443 5.82955 27.0419V26.1293C5.86269 26.1293 5.89228 26.1293 5.91832 26.1293C5.942 26.1293 5.96922 26.1293 6 26.1293C6.25095 26.1293 6.43205 26.0618 6.54332 25.9268C6.65696 25.7943 6.71378 25.6013 6.71378 25.348V19.5455ZM7.23935 18.7038C7.05469 18.7038 6.89607 18.6423 6.76349 18.5192C6.63329 18.3937 6.56818 18.2446 6.56818 18.0717C6.56818 17.8965 6.63329 17.7474 6.76349 17.6243C6.89607 17.4988 7.05469 17.4361 7.23935 17.4361C7.42401 17.4361 7.58144 17.4988 7.71165 17.6243C7.84422 17.7474 7.91051 17.8965 7.91051 18.0717C7.91051 18.2446 7.84422 18.3937 7.71165 18.5192C7.58144 18.6423 7.42401 18.7038 7.23935 18.7038ZM8.60401 27.0455V19.5455H9.64094V20.4297H9.72972C9.79128 20.3161 9.88005 20.1847 9.99606 20.0355C10.1121 19.8864 10.273 19.7562 10.479 19.6449C10.685 19.5312 10.9572 19.4744 11.2958 19.4744C11.7361 19.4744 12.1291 19.5857 12.4748 19.8082C12.8204 20.0308 13.0915 20.3516 13.288 20.7706C13.4868 21.1896 13.5863 21.6939 13.5863 22.2834C13.5863 22.8729 13.488 23.3783 13.2915 23.7997C13.095 24.2187 12.8251 24.5419 12.4819 24.7692C12.1386 24.9941 11.7468 25.1065 11.3064 25.1065C10.975 25.1065 10.7039 25.0509 10.4932 24.9396C10.2849 24.8284 10.1215 24.6982 10.0032 24.549C9.88479 24.3999 9.79364 24.2673 9.72972 24.1513H9.6658V27.0455H8.60401ZM9.6445 22.2727C9.6445 22.6562 9.70013 22.9924 9.8114 23.2812C9.92267 23.5701 10.0837 23.7962 10.2944 23.9595C10.5051 24.1205 10.7631 24.201 11.0685 24.201C11.3857 24.201 11.6509 24.117 11.864 23.9489C12.077 23.7784 12.238 23.5476 12.3469 23.2564C12.4582 22.9652 12.5138 22.6373 12.5138 22.2727C12.5138 21.9129 12.4594 21.5897 12.3505 21.3033C12.2439 21.0168 12.0829 20.7907 11.8675 20.625C11.6544 20.4593 11.3881 20.3764 11.0685 20.3764C10.7607 20.3764 10.5003 20.4557 10.2873 20.6143C10.0766 20.773 9.91675 20.9943 9.80785 21.2784C9.69895 21.5625 9.6445 21.8939 9.6445 22.2727ZM16.5267 25.1101C15.9893 25.1101 15.5265 24.9953 15.1382 24.7656C14.7524 24.5336 14.4541 24.2081 14.2434 23.7891C14.035 23.3677 13.9309 22.8741 13.9309 22.3082C13.9309 21.7495 14.035 21.2571 14.2434 20.831C14.4541 20.4048 14.7476 20.0722 15.124 19.8331C15.5028 19.594 15.9455 19.4744 16.4522 19.4744C16.7599 19.4744 17.0582 19.5253 17.3471 19.6271C17.6359 19.7289 17.8951 19.8887 18.1248 20.1065C18.3544 20.3243 18.5355 20.6072 18.6681 20.9553C18.8007 21.3009 18.8669 21.7211 18.8669 22.2159V22.5923H14.531V21.7969H17.8265C17.8265 21.5175 17.7696 21.2701 17.656 21.0547C17.5424 20.8369 17.3826 20.6652 17.1766 20.5398C16.973 20.4143 16.7339 20.3516 16.4593 20.3516C16.161 20.3516 15.9006 20.425 15.678 20.5717C15.4578 20.7161 15.2874 20.9055 15.1667 21.1399C15.0483 21.3719 14.9891 21.6241 14.9891 21.8963V22.5178C14.9891 22.8823 15.053 23.1925 15.1809 23.4482C15.3111 23.7038 15.4922 23.8991 15.7242 24.0341C15.9562 24.1667 16.2273 24.233 16.5374 24.233C16.7386 24.233 16.9221 24.2045 17.0878 24.1477C17.2535 24.0885 17.3968 24.0009 17.5175 23.8849C17.6382 23.7689 17.7306 23.6257 17.7945 23.4553L18.7995 23.6364C18.719 23.9323 18.5746 24.1915 18.3662 24.4141C18.1603 24.6342 17.901 24.8059 17.5885 24.929C17.2784 25.0497 16.9245 25.1101 16.5267 25.1101ZM21.732 27.1591C21.2987 27.1591 20.9259 27.1023 20.6134 26.9886C20.3032 26.875 20.0499 26.7247 19.8534 26.5376C19.6569 26.3506 19.5101 26.1458 19.4131 25.9233L20.3257 25.5469C20.3896 25.651 20.4749 25.7611 20.5814 25.8771C20.6903 25.9955 20.8371 26.0961 21.0217 26.179C21.2088 26.2618 21.4491 26.3033 21.7426 26.3033C22.1451 26.3033 22.4777 26.205 22.7405 26.0085C23.0033 25.8144 23.1347 25.5043 23.1347 25.0781V24.0057H23.0672C23.0033 24.1217 22.9109 24.2507 22.7902 24.3928C22.6718 24.5348 22.5085 24.6579 22.3001 24.7621C22.0918 24.8662 21.8207 24.9183 21.4869 24.9183C21.0561 24.9183 20.6678 24.8177 20.3222 24.6165C19.9789 24.4129 19.7066 24.1134 19.5054 23.718C19.3065 23.3203 19.2071 22.8314 19.2071 22.2514C19.2071 21.6714 19.3054 21.1742 19.5018 20.7599C19.7007 20.3456 19.973 20.0284 20.3186 19.8082C20.6643 19.5857 21.0561 19.4744 21.494 19.4744C21.8326 19.4744 22.106 19.5312 22.3143 19.6449C22.5227 19.7562 22.6848 19.8864 22.8009 20.0355C22.9192 20.1847 23.0104 20.3161 23.0743 20.4297H23.1524V19.5455H24.1929V25.1207C24.1929 25.5895 24.084 25.9742 23.8662 26.2749C23.6484 26.5755 23.3536 26.7981 22.982 26.9425C22.6126 27.0869 22.196 27.1591 21.732 27.1591ZM21.7213 24.0376C22.0267 24.0376 22.2848 23.9666 22.4955 23.8246C22.7085 23.6802 22.8695 23.4742 22.9784 23.2067C23.0897 22.9368 23.1453 22.6136 23.1453 22.2372C23.1453 21.8703 23.0909 21.5471 22.982 21.2678C22.8731 20.9884 22.7133 20.7706 22.5026 20.6143C22.2919 20.4557 22.0314 20.3764 21.7213 20.3764C21.4017 20.3764 21.1354 20.4593 20.9223 20.625C20.7092 20.7884 20.5482 21.0109 20.4393 21.2926C20.3328 21.5743 20.2795 21.8892 20.2795 22.2372C20.2795 22.5947 20.334 22.9084 20.4429 23.1783C20.5518 23.4482 20.7128 23.6589 20.9259 23.8104C21.1413 23.9619 21.4064 24.0376 21.7213 24.0376Z" fill="white"/>
</svg>
