<svg width="32" height="32" viewBox="0 0 32 32" fill="none" xmlns="http://www.w3.org/2000/svg">
  <path d="M24.25 30H7.75C7.02065 30 6.32118 29.705 5.80546 29.1799C5.28973 28.6549 5 27.9427 5 27.2001V4.80111C5 4.05854 5.28973 3.34638 5.80546 2.8213C6.32118 2.29622 7.02065 2.00123 7.75 2.00123H17.375C17.3873 1.99959 17.3998 1.99959 17.4121 2.00123H17.4204C17.4334 2.00536 17.4467 2.00818 17.4603 2.00963C17.5813 2.01803 17.7009 2.04183 17.8164 2.08103H17.8741C17.8995 2.09911 17.9234 2.11924 17.9456 2.14123C18.0954 2.20904 18.2319 2.3039 18.3485 2.42121L26.5985 10.8208C26.7137 10.9395 26.8069 11.0785 26.8735 11.231C26.8855 11.2613 26.896 11.2921 26.9051 11.3234L26.9189 11.3626C26.9574 11.4788 26.9794 11.6006 26.9862 11.7238C26.9874 11.7378 26.9907 11.7514 26.9959 11.7644V11.7728C26.9981 11.782 26.9995 11.7914 27 11.8008V27.2001C27 27.9427 26.7103 28.6549 26.1945 29.1799C25.6788 29.705 24.9793 30 24.25 30ZM17.375 4.80111V11.8008H24.25L17.375 4.80111Z" fill="#332E2D"/>
  <path d="M6.21378 25V19.5455H7.23295V20.4332H7.30043C7.41406 20.1326 7.59991 19.8982 7.85795 19.7301C8.116 19.5597 8.42495 19.4744 8.7848 19.4744C9.14938 19.4744 9.45478 19.5597 9.70099 19.7301C9.94957 19.9006 10.133 20.1349 10.2514 20.4332H10.3082C10.4384 20.142 10.6456 19.91 10.9297 19.7372C11.2138 19.562 11.5523 19.4744 11.9453 19.4744C12.4401 19.4744 12.8438 19.6295 13.1562 19.9396C13.4711 20.2498 13.6286 20.7173 13.6286 21.3423V25H12.5668V21.4418C12.5668 21.0724 12.4661 20.8049 12.2649 20.6392C12.0637 20.4735 11.8234 20.3906 11.544 20.3906C11.1984 20.3906 10.9297 20.4972 10.7379 20.7102C10.5462 20.9209 10.4503 21.192 10.4503 21.5234V25H9.39205V21.3743C9.39205 21.0784 9.29972 20.8404 9.11506 20.6605C8.9304 20.4806 8.6901 20.3906 8.39418 20.3906C8.19295 20.3906 8.0071 20.4439 7.83665 20.5504C7.66856 20.6546 7.53243 20.8002 7.42827 20.9872C7.32647 21.1742 7.27557 21.3909 7.27557 21.6371V25H6.21378ZM14.4517 27.0455V19.5455H15.4886V20.4297H15.5774C15.6389 20.3161 15.7277 20.1847 15.8437 20.0355C15.9597 19.8864 16.1207 19.7562 16.3267 19.6449C16.5326 19.5312 16.8049 19.4744 17.1434 19.4744C17.5838 19.4744 17.9768 19.5857 18.3224 19.8082C18.6681 20.0308 18.9391 20.3516 19.1356 20.7706C19.3345 21.1896 19.4339 21.6939 19.4339 22.2834C19.4339 22.8729 19.3357 23.3783 19.1392 23.7997C18.9427 24.2187 18.6728 24.5419 18.3295 24.7692C17.9862 24.9941 17.5944 25.1065 17.1541 25.1065C16.8226 25.1065 16.5516 25.0509 16.3409 24.9396C16.1325 24.8284 15.9692 24.6982 15.8508 24.549C15.7324 24.3999 15.6413 24.2673 15.5774 24.1513H15.5135V27.0455H14.4517ZM15.4922 22.2727C15.4922 22.6562 15.5478 22.9924 15.6591 23.2812C15.7703 23.5701 15.9313 23.7962 16.142 23.9595C16.3527 24.1205 16.6108 24.201 16.9162 24.201C17.2334 24.201 17.4985 24.117 17.7116 23.9489C17.9247 23.7784 18.0857 23.5476 18.1946 23.2564C18.3058 22.9652 18.3615 22.6373 18.3615 22.2727C18.3615 21.9129 18.307 21.5897 18.1981 21.3033C18.0916 21.0168 17.9306 20.7907 17.7152 20.625C17.5021 20.4593 17.2358 20.3764 16.9162 20.3764C16.6084 20.3764 16.348 20.4557 16.1349 20.6143C15.9242 20.773 15.7644 20.9943 15.6555 21.2784C15.5466 21.5625 15.4922 21.8939 15.4922 22.2727ZM19.8566 23.5795V22.6918L22.9994 17.7273H23.699V19.0341H23.2551L21.0072 22.5923V22.6491H25.3147V23.5795H19.8566ZM23.3048 25V23.3097L23.3119 22.9048V17.7273H24.3524V25H23.3048Z" fill="white"/>
</svg>
