<svg width="32" height="32" viewBox="0 0 32 32" fill="none" xmlns="http://www.w3.org/2000/svg">
  <path d="M24.25 30H7.75C7.02065 30 6.32118 29.705 5.80546 29.1799C5.28973 28.6549 5 27.9427 5 27.2001V4.80111C5 4.05854 5.28973 3.34638 5.80546 2.8213C6.32118 2.29622 7.02065 2.00123 7.75 2.00123H17.375C17.3873 1.99959 17.3998 1.99959 17.4121 2.00123H17.4204C17.4334 2.00536 17.4467 2.00818 17.4603 2.00963C17.5813 2.01803 17.7009 2.04183 17.8164 2.08103H17.8741C17.8995 2.09911 17.9234 2.11924 17.9456 2.14123C18.0954 2.20904 18.2319 2.3039 18.3485 2.42121L26.5985 10.8208C26.7137 10.9395 26.8069 11.0785 26.8735 11.231C26.8855 11.2613 26.896 11.2921 26.9051 11.3234L26.9189 11.3626C26.9574 11.4788 26.9794 11.6006 26.9862 11.7238C26.9874 11.7378 26.9907 11.7514 26.9959 11.7644V11.7728C26.9981 11.782 26.9995 11.7914 27 11.8008V27.2001C27 27.9427 26.7103 28.6549 26.1945 29.1799C25.6788 29.705 24.9793 30 24.25 30ZM17.375 4.80111V11.8008H24.25L17.375 4.80111Z" fill="#332E2D"/>
  <path d="M11.0114 25.1101C10.4834 25.1101 10.0289 24.9905 9.64773 24.7514C9.26894 24.5099 8.97775 24.1773 8.77415 23.7536C8.57055 23.3298 8.46875 22.8445 8.46875 22.2976C8.46875 21.7436 8.57292 21.2547 8.78125 20.831C8.98958 20.4048 9.28314 20.0722 9.66193 19.8331C10.0407 19.594 10.487 19.4744 11.0007 19.4744C11.415 19.4744 11.7843 19.5514 12.1087 19.7053C12.433 19.8568 12.6946 20.0698 12.8935 20.3445C13.0947 20.6191 13.2143 20.9399 13.2521 21.3068H12.2188C12.1619 21.0511 12.0317 20.831 11.8281 20.6463C11.6269 20.4616 11.357 20.3693 11.0185 20.3693C10.7225 20.3693 10.4633 20.4474 10.2408 20.6037C10.0206 20.7576 9.84896 20.9777 9.72585 21.2642C9.60275 21.5483 9.54119 21.8845 9.54119 22.2727C9.54119 22.6705 9.60156 23.0137 9.7223 23.3026C9.84304 23.5914 10.0135 23.8151 10.2337 23.9737C10.4562 24.1323 10.7178 24.2116 11.0185 24.2116C11.2197 24.2116 11.402 24.175 11.5653 24.1016C11.7311 24.0258 11.8696 23.9181 11.9808 23.7784C12.0945 23.6387 12.1738 23.4706 12.2188 23.2741H13.2521C13.2143 23.6269 13.0994 23.9418 12.9077 24.2188C12.7159 24.4957 12.459 24.7135 12.1371 24.8722C11.8175 25.0308 11.4422 25.1101 11.0114 25.1101ZM17.975 20.8771L17.0126 21.0476C16.9724 20.9245 16.9084 20.8073 16.8208 20.696C16.7356 20.5848 16.6196 20.4936 16.4728 20.4226C16.3261 20.3516 16.1426 20.3161 15.9224 20.3161C15.6217 20.3161 15.3708 20.3835 15.1696 20.5185C14.9683 20.651 14.8677 20.8227 14.8677 21.0334C14.8677 21.2157 14.9352 21.3625 15.0701 21.4737C15.2051 21.585 15.4229 21.6761 15.7235 21.7472L16.59 21.946C17.0919 22.062 17.466 22.2408 17.7122 22.4822C17.9584 22.7237 18.0815 23.0374 18.0815 23.4233C18.0815 23.75 17.9868 24.0412 17.7974 24.2969C17.6104 24.5502 17.3488 24.7491 17.0126 24.8935C16.6788 25.0379 16.2917 25.1101 15.8514 25.1101C15.2406 25.1101 14.7422 24.9799 14.3564 24.7195C13.9705 24.4567 13.7337 24.0838 13.6461 23.6009L14.6724 23.4446C14.7363 23.7121 14.8677 23.9145 15.0666 24.0518C15.2654 24.1868 15.5247 24.2543 15.8443 24.2543C16.1923 24.2543 16.4705 24.1821 16.6788 24.0376C16.8871 23.8909 16.9913 23.7121 16.9913 23.5014C16.9913 23.331 16.9274 23.1877 16.7995 23.0717C16.6741 22.9557 16.4811 22.8681 16.2207 22.8089L15.2974 22.6065C14.7884 22.4905 14.412 22.3059 14.1681 22.0526C13.9267 21.7992 13.8059 21.4785 13.8059 21.0902C13.8059 20.7682 13.8959 20.4865 14.0758 20.245C14.2557 20.0036 14.5043 19.8153 14.8216 19.6804C15.1388 19.5431 15.5022 19.4744 15.9118 19.4744C16.5012 19.4744 16.9653 19.6023 17.3038 19.858C17.6423 20.1113 17.8661 20.451 17.975 20.8771ZM23.4151 19.5455L21.4371 25H20.3008L18.3192 19.5455H19.4592L20.8406 23.7429H20.8974L22.2752 19.5455H23.4151Z" fill="white"/>
</svg>
