<svg width="32" height="32" viewBox="0 0 32 32" fill="none" xmlns="http://www.w3.org/2000/svg">
  <path d="M24.25 30H7.75C7.02065 30 6.32118 29.705 5.80546 29.1799C5.28973 28.6549 5 27.9427 5 27.2001V4.80111C5 4.05854 5.28973 3.34638 5.80546 2.8213C6.32118 2.29622 7.02065 2.00123 7.75 2.00123H17.375C17.3873 1.99959 17.3998 1.99959 17.4121 2.00123H17.4204C17.4334 2.00536 17.4467 2.00818 17.4603 2.00963C17.5813 2.01803 17.7009 2.04183 17.8164 2.08103H17.8741C17.8995 2.09911 17.9234 2.11924 17.9456 2.14123C18.0954 2.20904 18.2319 2.3039 18.3485 2.42121L26.5985 10.8208C26.7137 10.9395 26.8069 11.0785 26.8735 11.231C26.8855 11.2613 26.896 11.2921 26.9051 11.3234L26.9189 11.3626C26.9574 11.4788 26.9794 11.6006 26.9862 11.7238C26.9874 11.7378 26.9907 11.7514 26.9959 11.7644V11.7728C26.9981 11.782 26.9995 11.7914 27 11.8008V27.2001C27 27.9427 26.7103 28.6549 26.1945 29.1799C25.6788 29.705 24.9793 30 24.25 30ZM17.375 4.80111V11.8008H24.25L17.375 4.80111Z" fill="#332E2D"/>
  <path d="M8.71378 27.0455V19.5455H9.75071V20.4297H9.83949C9.90104 20.3161 9.98982 20.1847 10.1058 20.0355C10.2218 19.8864 10.3828 19.7562 10.5888 19.6449C10.7947 19.5312 11.067 19.4744 11.4055 19.4744C11.8459 19.4744 12.2389 19.5857 12.5845 19.8082C12.9302 20.0308 13.2012 20.3516 13.3977 20.7706C13.5966 21.1896 13.696 21.6939 13.696 22.2834C13.696 22.8729 13.5978 23.3783 13.4013 23.7997C13.2048 24.2187 12.9349 24.5419 12.5916 24.7692C12.2483 24.9941 11.8565 25.1065 11.4162 25.1065C11.0848 25.1065 10.8137 25.0509 10.603 24.9396C10.3946 24.8284 10.2313 24.6982 10.1129 24.549C9.99455 24.3999 9.90341 24.2673 9.83949 24.1513H9.77557V27.0455H8.71378ZM9.75426 22.2727C9.75426 22.6562 9.8099 22.9924 9.92116 23.2812C10.0324 23.5701 10.1934 23.7962 10.4041 23.9595C10.6148 24.1205 10.8729 24.201 11.1783 24.201C11.4955 24.201 11.7607 24.117 11.9737 23.9489C12.1868 23.7784 12.3478 23.5476 12.4567 23.2564C12.5679 22.9652 12.6236 22.6373 12.6236 22.2727C12.6236 21.9129 12.5691 21.5897 12.4602 21.3033C12.3537 21.0168 12.1927 20.7907 11.9773 20.625C11.7642 20.4593 11.4979 20.3764 11.1783 20.3764C10.8705 20.3764 10.6101 20.4557 10.397 20.6143C10.1863 20.773 10.0265 20.9943 9.91761 21.2784C9.80871 21.5625 9.75426 21.8939 9.75426 22.2727ZM16.4276 25.1065C15.9872 25.1065 15.5942 24.9941 15.2486 24.7692C14.9053 24.5419 14.6354 24.2187 14.4389 23.7997C14.2448 23.3783 14.1477 22.8729 14.1477 22.2834C14.1477 21.6939 14.246 21.1896 14.4425 20.7706C14.6413 20.3516 14.9136 20.0308 15.2592 19.8082C15.6049 19.5857 15.9967 19.4744 16.4347 19.4744C16.7732 19.4744 17.0455 19.5312 17.2514 19.6449C17.4598 19.7562 17.6207 19.8864 17.7344 20.0355C17.8504 20.1847 17.9403 20.3161 18.0043 20.4297H18.0682V17.7273H19.13V25H18.093V24.1513H18.0043C17.9403 24.2673 17.848 24.3999 17.7273 24.549C17.6089 24.6982 17.4455 24.8284 17.2372 24.9396C17.0289 25.0509 16.759 25.1065 16.4276 25.1065ZM16.6619 24.201C16.9673 24.201 17.2254 24.1205 17.4361 23.9595C17.6491 23.7962 17.8101 23.5701 17.919 23.2812C18.0303 22.9924 18.0859 22.6562 18.0859 22.2727C18.0859 21.8939 18.0315 21.5625 17.9226 21.2784C17.8137 20.9943 17.6539 20.773 17.4432 20.6143C17.2325 20.4557 16.9721 20.3764 16.6619 20.3764C16.3423 20.3764 16.076 20.4593 15.8629 20.625C15.6499 20.7907 15.4889 21.0168 15.38 21.3033C15.2734 21.5897 15.2202 21.9129 15.2202 22.2727C15.2202 22.6373 15.2746 22.9652 15.3835 23.2564C15.4924 23.5476 15.6534 23.7784 15.8665 23.9489C16.0819 24.117 16.3471 24.201 16.6619 24.201ZM22.7413 19.5455V20.3977H19.6589V19.5455H22.7413ZM20.5041 25V18.9134C20.5041 18.5724 20.5787 18.2895 20.7278 18.0646C20.877 17.8374 21.0746 17.6681 21.3208 17.5568C21.5671 17.4432 21.8346 17.3864 22.1234 17.3864C22.3365 17.3864 22.5188 17.4041 22.6703 17.4396C22.8218 17.4728 22.9342 17.5036 23.0076 17.532L22.7591 18.3913C22.7093 18.3771 22.6454 18.3606 22.5673 18.3416C22.4892 18.3203 22.3945 18.3097 22.2832 18.3097C22.0252 18.3097 21.8405 18.3736 21.7292 18.5014C21.6203 18.6293 21.5659 18.8139 21.5659 19.0554V25H20.5041Z" fill="white"/>
</svg>
