<?xml version="1.0" encoding="UTF-8" standalone="no"?><svg xmlns="http://www.w3.org/2000/svg" xmlns:xlink="http://www.w3.org/1999/xlink"><symbol id="arrow-no-body" width="20" height="12" viewBox="0 0 20 12" fill="none" xmlns="http://www.w3.org/2000/svg"><path d="M19 10.5L10 1.5L1 10.5" stroke="currentColor" stroke-width="2" stroke-linecap="round" stroke-linejoin="round"></path></symbol><symbol id="basket" width="25" height="24" viewBox="0 0 25 24" fill="none" xmlns="http://www.w3.org/2000/svg"><path d="M18.3125 6.09375H6.5M14.0938 5.25H10.7188M7.34375 9.46875V17.9062C7.34375 18.4688 7.625 18.75 8.1875 18.75C8.75 18.75 11.5625 18.75 16.625 18.75C17.1875 18.75 17.4688 18.4688 17.4688 17.9062C17.4688 17.3437 17.4688 14.5312 17.4688 9.46875" stroke="currentColor" stroke-width="2" stroke-linecap="round" stroke-linejoin="round"></path></symbol><symbol id="bell" width="20" height="22" viewBox="0 0 20 22" fill="none" xmlns="http://www.w3.org/2000/svg"><path d="M12.3888 19.8572C11.0247 21.3719 8.89665 21.3899 7.51946 19.8572M10 16.8476C15.6392 16.8476 18.2481 16.1242 18.5 13.2205C18.5 10.3188 16.6812 10.5054 16.6812 6.94511C16.6812 4.16414 14.0452 1 10 1C5.95477 1 3.31885 4.16414 3.31885 6.94511C3.31885 10.5054 1.5 10.3188 1.5 13.2205C1.75295 16.1352 4.36177 16.8476 10 16.8476Z" stroke="#272727" stroke-width="2" stroke-linecap="round" stroke-linejoin="round"></path></symbol><symbol id="color-error" width="20" height="20" viewBox="0 0 20 20" fill="none" xmlns="http://www.w3.org/2000/svg"><path d="M9.953 0C4.465 0 0 4.486 0 10C0 15.514 4.486 20 10 20C15.514 20 20 15.514 20 10C20 4.486 15.493 0 9.953 0ZM11 15H9V13H11V15ZM11 11H9V5H11V11Z" fill="#FF5151"></path></symbol><symbol id="check" width="12" height="10" viewBox="0 0 12 10" fill="none" xmlns="http://www.w3.org/2000/svg"><path d="M1 4.1251L4.74989 8.25L11 1.375" stroke="white" stroke-width="2" stroke-linecap="round"></path></symbol><symbol id="edit-pen" width="32" height="32" viewBox="0 0 32 32" fill="none" xmlns="http://www.w3.org/2000/svg"><path fill-rule="evenodd" clip-rule="evenodd" d="M21.904 6.2255C22.2634 6.07662 22.6486 6 23.0376 6C23.4267 6 23.8119 6.07662 24.1713 6.2255C24.5307 6.37437 24.8573 6.59258 25.1323 6.86766C25.4074 7.14274 25.6256 7.46931 25.7745 7.82872C25.9234 8.18813 26 8.57335 26 8.96237C26 9.35139 25.9234 9.7366 25.7745 10.096C25.6256 10.4554 25.4074 10.782 25.1323 11.0571L19.0684 17.121C18.6153 17.5742 18.0393 17.882 17.4119 18.0075C17.4118 18.0075 17.4119 18.0075 17.4119 18.0075L14.6081 18.5687C14.2803 18.6343 13.9413 18.5318 13.7049 18.2954C13.4684 18.059 13.3657 17.7201 13.4312 17.3923L13.9913 14.5885C14.1173 13.9607 14.4264 13.3835 14.8795 12.9311L20.9429 6.86766C21.218 6.59258 21.5446 6.37437 21.904 6.2255ZM23.0376 8C22.9113 8 22.7861 8.02489 22.6694 8.07326C22.5526 8.12162 22.4465 8.1925 22.3571 8.28187L21.3559 9.28309L22.7172 10.6438L23.7181 9.64286C23.8075 9.5535 23.8784 9.44741 23.9267 9.33065C23.9751 9.21389 24 9.08875 24 8.96237C24 8.83598 23.9751 8.71084 23.9267 8.59408C23.8784 8.47732 23.8075 8.37123 23.7181 8.28187C23.6288 8.19251 23.5227 8.12162 23.4059 8.07326C23.2892 8.02489 23.164 8 23.0376 8ZM21.303 12.058L19.9417 10.6973L16.2932 14.3458C16.1196 14.5191 16.0008 14.7404 15.9525 14.9809C15.9524 14.981 15.9525 14.9808 15.9525 14.9809L15.6863 16.3132L17.0194 16.0464C17.2601 15.9983 17.4805 15.8805 17.6542 15.7068L21.303 12.058ZM9.11767 10.1175C8.82124 10.1175 8.53696 10.2352 8.32736 10.4448C8.11775 10.6544 8 10.9387 8 11.2352V22.8823C8 23.1788 8.11775 23.463 8.32736 23.6726C8.53696 23.8822 8.82124 24 9.11767 24H20.7648C21.0613 24 21.3456 23.8822 21.5552 23.6726C21.7648 23.463 21.8825 23.1788 21.8825 22.8823V19.7058C21.8825 19.1535 22.3302 18.7058 22.8825 18.7058C23.4348 18.7058 23.8825 19.1535 23.8825 19.7058V22.8823C23.8825 23.7092 23.554 24.5022 22.9694 25.0869C22.3847 25.6715 21.5917 26 20.7648 26H9.11767C8.29081 26 7.49782 25.6715 6.91314 25.0869C6.32847 24.5022 6 23.7092 6 22.8823V11.2352C6 10.4083 6.32847 9.61531 6.91314 9.03063C7.49782 8.44595 8.29081 8.11749 9.11767 8.11749H12.2942C12.8465 8.11749 13.2942 8.5652 13.2942 9.11749C13.2942 9.66977 12.8465 10.1175 12.2942 10.1175H9.11767Z" fill="currentColor"></path></symbol><symbol id="cross" width="24" height="24" viewBox="0 0 24 24" fill="none" xmlns="http://www.w3.org/2000/svg"><path fill-rule="evenodd" clip-rule="evenodd" d="M7.22707 7.22703C7.51997 6.93414 7.99484 6.93414 8.28773 7.22703L12 10.9393L15.7124 7.22703C16.0052 6.93414 16.4801 6.93414 16.773 7.22703C17.0659 7.51992 17.0659 7.9948 16.773 8.28769L13.0607 12L16.773 15.7123C17.0659 16.0052 17.0659 16.4801 16.773 16.773C16.4801 17.0659 16.0052 17.0659 15.7124 16.773L12 13.0607L8.28773 16.773C7.99484 17.0659 7.51997 17.0659 7.22707 16.773C6.93418 16.4801 6.93418 16.0052 7.22707 15.7123L10.9394 12L7.22707 8.28769C6.93418 7.9948 6.93418 7.51992 7.22707 7.22703Z" fill="currentColor"></path></symbol><symbol id="file" width="24" height="24" viewBox="0 0 24 24" fill="none" xmlns="http://www.w3.org/2000/svg"><path fill-rule="evenodd" clip-rule="evenodd" d="M14.7378 2.76175H8.0848C6.0048 2.75375 4.2998 4.41175 4.2508 6.49075V17.2037C4.2048 19.3167 5.8798 21.0677 7.9928 21.1147C8.0238 21.1147 8.0538 21.1157 8.0848 21.1147H16.0738C18.1678 21.0297 19.8178 19.2997 19.8028 17.2037V8.03775L14.7378 2.76175Z" stroke="currentColor" stroke-width="1.5" stroke-linecap="round" stroke-linejoin="round"></path><path d="M14.4751 2.75V5.659C14.4751 7.079 15.6231 8.23 17.0431 8.234H19.7981" stroke="currentColor" stroke-width="1.5" stroke-linecap="round" stroke-linejoin="round"></path><path d="M14.2881 15.3585H8.88809" stroke="currentColor" stroke-width="1.5" stroke-linecap="round" stroke-linejoin="round"></path><path d="M12.2432 11.606H8.88721" stroke="currentColor" stroke-width="1.5" stroke-linecap="round" stroke-linejoin="round"></path></symbol><symbol id="inline-check" width="97" height="97" viewBox="0 0 97 97" fill="none" xmlns="http://www.w3.org/2000/svg"><path fill-rule="evenodd" clip-rule="evenodd" d="M17.3232 0.199287C12.5423 0.656301 7.98223 3.09439 4.53806 7.03477C3.03982 8.74902 1.21325 12.2741 0.504859 14.8183L0 16.6318V48.4822V80.3326L0.504859 82.1462C2.7714 90.2872 9.34773 95.9126 17.5859 96.7572C20.7324 97.0798 76.1376 97.0814 79.2825 96.759C82.1313 96.4668 84.072 95.8865 86.5679 94.5801C91.0436 92.2377 94.5803 87.9668 96.0624 83.1146C96.9387 80.246 97 77.9825 97 48.4822C97 18.982 96.9387 16.7184 96.0624 13.8498C94.5803 8.99771 91.0436 4.72681 86.5679 2.38438C84.072 1.07795 82.1313 0.497616 79.2825 0.205408C76.649 -0.0645834 20.1413 -0.0702508 17.3232 0.199287ZM70.1778 30.0981C72.5784 31.3281 73.5634 34.4486 72.2487 36.6595C71.6549 37.6579 48.8554 60.176 47.5142 61.0886C46.4734 61.7968 44.7188 62.017 43.2927 61.618C42.3365 61.3505 41.5301 60.6493 36.0831 55.349C32.5441 51.9053 29.7341 48.9841 29.4396 48.4426C28.2154 46.1922 29.1636 43.1898 31.4597 42.0466C32.9507 41.3042 34.4684 41.265 35.8019 41.9342C36.3485 42.2085 38.4651 44.1055 40.7507 46.3692L44.7442 50.325L54.997 40.3215C60.636 34.8197 65.578 30.1754 65.9792 30.0013C67.0569 29.5332 69.1701 29.5817 70.1778 30.0981Z" fill="currentColor"></path></symbol><symbol id="message-inline" width="13" height="12" viewBox="0 0 13 12" fill="none" xmlns="http://www.w3.org/2000/svg"><path d="M0.5 1.84242C0.5 1.45324 0.658035 1.07999 0.93934 0.804798C1.22064 0.529603 1.60218 0.375 2 0.375L11 0.375C11.3978 0.375 11.7794 0.529603 12.0607 0.804798C12.342 1.07999 12.5 1.45324 12.5 1.84242V7.71212C12.5 8.1013 12.342 8.47455 12.0607 8.74974C11.7794 9.02494 11.3978 9.17954 11 9.17954H9.125C9.00857 9.17954 8.89373 9.20606 8.78959 9.257C8.68545 9.30794 8.59486 9.3819 8.525 9.47302L7.1 11.3315C7.03014 11.4226 6.93955 11.4966 6.83541 11.5475C6.73127 11.5985 6.61643 11.625 6.5 11.625C6.38357 11.625 6.26873 11.5985 6.16459 11.5475C6.06045 11.4966 5.96986 11.4226 5.9 11.3315L4.475 9.47302C4.40514 9.3819 4.31455 9.30794 4.21041 9.257C4.10627 9.20606 3.99143 9.17954 3.875 9.17954H2C1.60218 9.17954 1.22064 9.02494 0.93934 8.74974C0.658035 8.47455 0.5 8.1013 0.5 7.71212V1.84242ZM4.25 4.77727C4.25 4.58268 4.17098 4.39605 4.03033 4.25846C3.88968 4.12086 3.69891 4.04356 3.5 4.04356C3.30109 4.04356 3.11032 4.12086 2.96967 4.25846C2.82902 4.39605 2.75 4.58268 2.75 4.77727C2.75 4.97186 2.82902 5.15848 2.96967 5.29608C3.11032 5.43368 3.30109 5.51098 3.5 5.51098C3.69891 5.51098 3.88968 5.43368 4.03033 5.29608C4.17098 5.15848 4.25 4.97186 4.25 4.77727ZM7.25 4.77727C7.25 4.58268 7.17098 4.39605 7.03033 4.25846C6.88968 4.12086 6.69891 4.04356 6.5 4.04356C6.30109 4.04356 6.11032 4.12086 5.96967 4.25846C5.82902 4.39605 5.75 4.58268 5.75 4.77727C5.75 4.97186 5.82902 5.15848 5.96967 5.29608C6.11032 5.43368 6.30109 5.51098 6.5 5.51098C6.69891 5.51098 6.88968 5.43368 7.03033 5.29608C7.17098 5.15848 7.25 4.97186 7.25 4.77727ZM9.5 5.51098C9.69891 5.51098 9.88968 5.43368 10.0303 5.29608C10.171 5.15848 10.25 4.97186 10.25 4.77727C10.25 4.58268 10.171 4.39605 10.0303 4.25846C9.88968 4.12086 9.69891 4.04356 9.5 4.04356C9.30109 4.04356 9.11032 4.12086 8.96967 4.25846C8.82902 4.39605 8.75 4.58268 8.75 4.77727C8.75 4.97186 8.82902 5.15848 8.96967 5.29608C9.11032 5.43368 9.30109 5.51098 9.5 5.51098Z" fill="currentColor"></path></symbol><symbol id="message" width="24" height="24" viewBox="0 0 24 24" fill="none" xmlns="http://www.w3.org/2000/svg"><path d="M13.7834 18.2674C17.1461 18.2674 18.8278 18.2674 19.872 17.2223C20.9171 16.1781 20.9171 14.4963 20.9171 11.1337C20.9171 7.77105 20.9171 6.08928 19.872 5.04509C18.8278 4 17.1461 4 13.7834 4H10.2166C6.85394 4 5.17217 4 4.12797 5.04509C3.08289 6.08928 3.08289 7.77105 3.08289 11.1337C3.08289 14.4963 3.08289 16.1781 4.12797 17.2223C4.71026 17.8055 5.49051 18.0632 6.64973 18.1764" stroke="currentColor" stroke-width="1.5" stroke-linecap="round" stroke-linejoin="round"></path><path d="M12 11.1337V11.1426M8.43317 11.1337V11.1426M15.5669 11.1337V11.1426" stroke="currentColor" stroke-width="2.5" stroke-linecap="round"></path><path d="M13.7833 18.2674C12.6812 18.2674 11.4666 18.7132 10.3582 19.2884C8.5766 20.2131 7.68578 20.6759 7.24706 20.3807C6.80834 20.0865 6.89127 19.1725 7.05802 17.3453L7.09547 16.9298" stroke="currentColor" stroke-width="1.5" stroke-linecap="round"></path></symbol><symbol id="people" width="24" height="24" viewBox="0 0 24 24" fill="none" xmlns="http://www.w3.org/2000/svg"><path d="M17.8877 10.8967C19.2827 10.7007 20.3567 9.50473 20.3597 8.05573C20.3597 6.62773 19.3187 5.44373 17.9537 5.21973" stroke="currentColor" stroke-width="1.5" stroke-linecap="round" stroke-linejoin="round"></path><path d="M19.7285 14.2502C21.0795 14.4522 22.0225 14.9252 22.0225 15.9002C22.0225 16.5712 21.5785 17.0072 20.8605 17.2812" stroke="currentColor" stroke-width="1.5" stroke-linecap="round" stroke-linejoin="round"></path><path fill-rule="evenodd" clip-rule="evenodd" d="M11.8867 14.6638C8.6727 14.6638 5.9277 15.1508 5.9277 17.0958C5.9277 19.0398 8.6557 19.5408 11.8867 19.5408C15.1007 19.5408 17.8447 19.0588 17.8447 17.1128C17.8447 15.1668 15.1177 14.6638 11.8867 14.6638Z" stroke="currentColor" stroke-width="1.5" stroke-linecap="round" stroke-linejoin="round"></path><path fill-rule="evenodd" clip-rule="evenodd" d="M11.8867 11.8879C13.9957 11.8879 15.7057 10.1789 15.7057 8.06888C15.7057 5.95988 13.9957 4.24988 11.8867 4.24988C9.7777 4.24988 8.0677 5.95988 8.0677 8.06888C8.0597 10.1709 9.7567 11.8809 11.8587 11.8879H11.8867Z" stroke="currentColor" stroke-width="1.5" stroke-linecap="round" stroke-linejoin="round"></path><path d="M5.8848 10.8967C4.4888 10.7007 3.4158 9.50473 3.4128 8.05573C3.4128 6.62773 4.4538 5.44373 5.8188 5.21973" stroke="currentColor" stroke-width="1.5" stroke-linecap="round" stroke-linejoin="round"></path><path d="M4.0439 14.2502C2.6929 14.4522 1.7499 14.9252 1.7499 15.9002C1.7499 16.5712 2.1939 17.0072 2.9119 17.2812" stroke="currentColor" stroke-width="1.5" stroke-linecap="round" stroke-linejoin="round"></path></symbol><symbol id="plus" width="25" height="24" viewBox="0 0 25 24" fill="none" xmlns="http://www.w3.org/2000/svg"><path d="M18.5 12H6.5M12.5 6V18" stroke="currentColor" stroke-width="2" stroke-linecap="round" stroke-linejoin="round"></path></symbol><symbol id="person" width="25" height="24" viewBox="0 0 25 24" fill="none" xmlns="http://www.w3.org/2000/svg"><path fill-rule="evenodd" clip-rule="evenodd" d="M15.9743 8.82146C15.9743 10.804 14.4289 12.3936 12.5001 12.3936C10.572 12.3936 9.02598 10.804 9.02598 8.82146C9.02598 6.83897 10.572 5.25 12.5001 5.25C14.4289 5.25 15.9743 6.83897 15.9743 8.82146ZM12.5 18.7499C9.65342 18.7499 7.25 18.2741 7.25 16.438C7.25 14.6013 9.66852 14.1423 12.5 14.1423C15.3472 14.1423 17.7499 14.6182 17.7499 16.4542C17.7499 18.2909 15.3314 18.7499 12.5 18.7499Z" fill="currentColor"></path></symbol><symbol id="projects" width="24" height="24" viewBox="0 0 24 24" fill="none" xmlns="http://www.w3.org/2000/svg"><path fill-rule="evenodd" clip-rule="evenodd" d="M3 6.5C3 3.87479 3.02811 3 6.5 3C9.97189 3 10 3.87479 10 6.5C10 9.12521 10.0111 10 6.5 10C2.98893 10 3 9.12521 3 6.5Z" stroke="currentColor" stroke-width="1.5" stroke-linecap="round" stroke-linejoin="round"></path><path fill-rule="evenodd" clip-rule="evenodd" d="M14 6.5C14 3.87479 14.0281 3 17.5 3C20.9719 3 21 3.87479 21 6.5C21 9.12521 21.0111 10 17.5 10C13.9889 10 14 9.12521 14 6.5Z" stroke="currentColor" stroke-width="1.5" stroke-linecap="round" stroke-linejoin="round"></path><path fill-rule="evenodd" clip-rule="evenodd" d="M3 17.5C3 14.8748 3.02811 14 6.5 14C9.97189 14 10 14.8748 10 17.5C10 20.1252 10.0111 21 6.5 21C2.98893 21 3 20.1252 3 17.5Z" stroke="currentColor" stroke-width="1.5" stroke-linecap="round" stroke-linejoin="round"></path><path fill-rule="evenodd" clip-rule="evenodd" d="M14 17.5C14 14.8748 14.0281 14 17.5 14C20.9719 14 21 14.8748 21 17.5C21 20.1252 21.0111 21 17.5 21C13.9889 21 14 20.1252 14 17.5Z" stroke="currentColor" stroke-width="1.5" stroke-linecap="round" stroke-linejoin="round"></path></symbol><symbol id="search" width="20" height="20" viewBox="0 0 20 20" fill="none" xmlns="http://www.w3.org/2000/svg"><path fill-rule="evenodd" clip-rule="evenodd" d="M9.64339 2.5625C5.70844 2.5625 2.5625 5.66991 2.5625 9.44951C2.5625 13.2291 5.70844 16.3365 9.64339 16.3365C13.5783 16.3365 16.7243 13.2291 16.7243 9.44951C16.7243 5.66991 13.5783 2.5625 9.64339 2.5625ZM0.4375 9.44951C0.4375 4.44833 4.5834 0.4375 9.64339 0.4375C14.7034 0.4375 18.8493 4.44833 18.8493 9.44951C18.8493 11.6659 18.035 13.6879 16.6877 15.2523L19.2413 17.7387C19.6617 18.148 19.6707 18.8207 19.2613 19.2411C18.852 19.6616 18.1793 19.6705 17.7589 19.2612L15.121 16.6928C13.5872 17.8053 11.6901 18.4615 9.64339 18.4615C4.5834 18.4615 0.4375 14.4507 0.4375 9.44951Z" fill="currentColor"></path></symbol><symbol id="settings" width="40" height="40" viewBox="0 0 40 40" fill="none" xmlns="http://www.w3.org/2000/svg"><path fill-rule="evenodd" clip-rule="evenodd" d="M29.3974 21.7775C29.7974 21.9912 30.106 22.3287 30.3232 22.6662C30.7461 23.3637 30.7118 24.2188 30.3003 24.9725L29.5002 26.3225C29.0773 27.0425 28.2887 27.4925 27.4772 27.4925C27.0771 27.4925 26.6314 27.38 26.2656 27.155C25.9684 26.9638 25.6255 26.8962 25.2598 26.8962C24.1282 26.8962 23.1796 27.83 23.1453 28.9438C23.1453 30.2375 22.0937 31.25 20.7793 31.25H19.2248C17.899 31.25 16.8475 30.2375 16.8475 28.9438C16.8246 27.83 15.8759 26.8962 14.7444 26.8962C14.3672 26.8962 14.0243 26.9638 13.7386 27.155C13.3728 27.38 12.9156 27.4925 12.527 27.4925C11.7041 27.4925 10.9154 27.0425 10.4925 26.3225L9.70384 24.9725C9.28094 24.2412 9.25808 23.3637 9.68098 22.6662C9.86385 22.3287 10.2067 21.9912 10.5954 21.7775C10.9154 21.62 11.1211 21.3612 11.3154 21.0575C11.8869 20.09 11.544 18.8187 10.5725 18.245C9.44095 17.6037 9.0752 16.175 9.7267 15.0612L10.4925 13.7337C11.1554 12.62 12.5727 12.2262 13.7157 12.8787C14.7101 13.4187 16.0017 13.0588 16.5846 12.1025C16.7674 11.7875 16.8703 11.45 16.8475 11.1125C16.8246 10.6737 16.9503 10.2575 17.1675 9.92C17.5904 9.2225 18.3562 8.7725 19.1906 8.75H20.8022C21.648 8.75 22.4138 9.2225 22.8367 9.92C23.0424 10.2575 23.1796 10.6737 23.1453 11.1125C23.1224 11.45 23.2253 11.7875 23.4082 12.1025C23.9911 13.0588 25.2826 13.4187 26.2885 12.8787C27.42 12.2262 28.8487 12.62 29.5002 13.7337L30.266 15.0612C30.929 16.175 30.5632 17.6037 29.4202 18.245C28.4487 18.8187 28.1058 20.09 28.6887 21.0575C28.8716 21.3612 29.0773 21.62 29.3974 21.7775ZM16.7673 20.0111C16.7673 21.7773 18.2189 23.1836 20.0133 23.1836C21.8078 23.1836 23.2251 21.7773 23.2251 20.0111C23.2251 18.2448 21.8078 16.8273 20.0133 16.8273C18.2189 16.8273 16.7673 18.2448 16.7673 20.0111Z" fill="currentColor"></path></symbol><symbol id="star" width="14" height="13" viewBox="0 0 14 13" fill="none" xmlns="http://www.w3.org/2000/svg"><path fill-rule="evenodd" clip-rule="evenodd" d="M7.00002 0.75C7.23793 0.75 7.45521 0.885074 7.56049 1.09842L9.15302 4.32564L12.7149 4.84317C12.9503 4.87737 13.1459 5.04228 13.2194 5.26854C13.2929 5.4948 13.2316 5.74318 13.0613 5.90924L10.4841 8.42126L11.0925 11.9683C11.1327 12.2028 11.0363 12.4398 10.8439 12.5796C10.6514 12.7194 10.3962 12.7379 10.1857 12.6272L7.00002 10.9525L3.81436 12.6272C3.60379 12.7379 3.34863 12.7194 3.15616 12.5796C2.9637 12.4398 2.86732 12.2028 2.90754 11.9683L3.51596 8.42126L0.938771 5.90924C0.768407 5.74318 0.707091 5.4948 0.780607 5.26854C0.854122 5.04228 1.04972 4.87737 1.28515 4.84317L4.84702 4.32564L6.43954 1.09842C6.54482 0.885074 6.7621 0.75 7.00002 0.75Z" fill="currentColor"></path></symbol></svg>