<?xml version="1.0" encoding="UTF-8" standalone="no"?><svg xmlns="http://www.w3.org/2000/svg" xmlns:xlink="http://www.w3.org/1999/xlink"><symbol id="arrow-no-body" width="20" height="12" viewBox="0 0 20 12" fill="none" xmlns="http://www.w3.org/2000/svg"><path d="M19 10.5L10 1.5L1 10.5" stroke="currentColor" stroke-width="2" stroke-linecap="round" stroke-linejoin="round"></path></symbol><symbol id="bell" width="20" height="22" viewBox="0 0 20 22" fill="none" xmlns="http://www.w3.org/2000/svg"><path d="M12.3888 19.8572C11.0247 21.3719 8.89665 21.3899 7.51946 19.8572M10 16.8476C15.6392 16.8476 18.2481 16.1242 18.5 13.2205C18.5 10.3188 16.6812 10.5054 16.6812 6.94511C16.6812 4.16414 14.0452 1 10 1C5.95477 1 3.31885 4.16414 3.31885 6.94511C3.31885 10.5054 1.5 10.3188 1.5 13.2205C1.75295 16.1352 4.36177 16.8476 10 16.8476Z" stroke="#272727" stroke-width="2" stroke-linecap="round" stroke-linejoin="round"></path></symbol><symbol id="color-error" width="20" height="20" viewBox="0 0 20 20" fill="none" xmlns="http://www.w3.org/2000/svg"><path d="M9.953 0C4.465 0 0 4.486 0 10C0 15.514 4.486 20 10 20C15.514 20 20 15.514 20 10C20 4.486 15.493 0 9.953 0ZM11 15H9V13H11V15ZM11 11H9V5H11V11Z" fill="#FF5151"></path></symbol><symbol id="check" width="12" height="10" viewBox="0 0 12 10" fill="none" xmlns="http://www.w3.org/2000/svg"><path d="M1 4.1251L4.74989 8.25L11 1.375" stroke="white" stroke-width="2" stroke-linecap="round"></path></symbol></svg>