<?xml version="1.0" encoding="UTF-8" standalone="no"?><svg xmlns="http://www.w3.org/2000/svg" xmlns:xlink="http://www.w3.org/1999/xlink"><symbol id="file" width="24" height="24" viewBox="0 0 24 24" fill="none" xmlns="http://www.w3.org/2000/svg"><path fill-rule="evenodd" clip-rule="evenodd" d="M14.7378 2.76175H8.0848C6.0048 2.75375 4.2998 4.41175 4.2508 6.49075V17.2037C4.2048 19.3167 5.8798 21.0677 7.9928 21.1147C8.0238 21.1147 8.0538 21.1157 8.0848 21.1147H16.0738C18.1678 21.0297 19.8178 19.2997 19.8028 17.2037V8.03775L14.7378 2.76175Z" stroke="currentColor" stroke-width="1.5" stroke-linecap="round" stroke-linejoin="round"></path><path d="M14.4751 2.75V5.659C14.4751 7.079 15.6231 8.23 17.0431 8.234H19.7981" stroke="currentColor" stroke-width="1.5" stroke-linecap="round" stroke-linejoin="round"></path><path d="M14.2881 15.3585H8.88809" stroke="currentColor" stroke-width="1.5" stroke-linecap="round" stroke-linejoin="round"></path><path d="M12.2432 11.606H8.88721" stroke="currentColor" stroke-width="1.5" stroke-linecap="round" stroke-linejoin="round"></path></symbol><symbol id="bell" width="20" height="22" viewBox="0 0 20 22" fill="none" xmlns="http://www.w3.org/2000/svg"><path d="M12.3888 19.8572C11.0247 21.3719 8.89665 21.3899 7.51946 19.8572M10 16.8476C15.6392 16.8476 18.2481 16.1242 18.5 13.2205C18.5 10.3188 16.6812 10.5054 16.6812 6.94511C16.6812 4.16414 14.0452 1 10 1C5.95477 1 3.31885 4.16414 3.31885 6.94511C3.31885 10.5054 1.5 10.3188 1.5 13.2205C1.75295 16.1352 4.36177 16.8476 10 16.8476Z" stroke="#272727" stroke-width="2" stroke-linecap="round" stroke-linejoin="round"></path></symbol><symbol id="message" width="24" height="24" viewBox="0 0 24 24" fill="none" xmlns="http://www.w3.org/2000/svg"><path d="M13.7834 18.2674C17.1461 18.2674 18.8278 18.2674 19.872 17.2223C20.9171 16.1781 20.9171 14.4963 20.9171 11.1337C20.9171 7.77105 20.9171 6.08928 19.872 5.04509C18.8278 4 17.1461 4 13.7834 4H10.2166C6.85394 4 5.17217 4 4.12797 5.04509C3.08289 6.08928 3.08289 7.77105 3.08289 11.1337C3.08289 14.4963 3.08289 16.1781 4.12797 17.2223C4.71026 17.8055 5.49051 18.0632 6.64973 18.1764" stroke="currentColor" stroke-width="1.5" stroke-linecap="round" stroke-linejoin="round"></path><path d="M12 11.1337V11.1426M8.43317 11.1337V11.1426M15.5669 11.1337V11.1426" stroke="currentColor" stroke-width="2.5" stroke-linecap="round"></path><path d="M13.7833 18.2674C12.6812 18.2674 11.4666 18.7132 10.3582 19.2884C8.5766 20.2131 7.68578 20.6759 7.24706 20.3807C6.80834 20.0865 6.89127 19.1725 7.05802 17.3453L7.09547 16.9298" stroke="currentColor" stroke-width="1.5" stroke-linecap="round"></path></symbol><symbol id="color-error" width="20" height="20" viewBox="0 0 20 20" fill="none" xmlns="http://www.w3.org/2000/svg"><path d="M9.953 0C4.465 0 0 4.486 0 10C0 15.514 4.486 20 10 20C15.514 20 20 15.514 20 10C20 4.486 15.493 0 9.953 0ZM11 15H9V13H11V15ZM11 11H9V5H11V11Z" fill="#FF5151"></path></symbol><symbol id="people" width="24" height="24" viewBox="0 0 24 24" fill="none" xmlns="http://www.w3.org/2000/svg"><path d="M17.8877 10.8967C19.2827 10.7007 20.3567 9.50473 20.3597 8.05573C20.3597 6.62773 19.3187 5.44373 17.9537 5.21973" stroke="currentColor" stroke-width="1.5" stroke-linecap="round" stroke-linejoin="round"></path><path d="M19.7285 14.2502C21.0795 14.4522 22.0225 14.9252 22.0225 15.9002C22.0225 16.5712 21.5785 17.0072 20.8605 17.2812" stroke="currentColor" stroke-width="1.5" stroke-linecap="round" stroke-linejoin="round"></path><path fill-rule="evenodd" clip-rule="evenodd" d="M11.8867 14.6638C8.6727 14.6638 5.9277 15.1508 5.9277 17.0958C5.9277 19.0398 8.6557 19.5408 11.8867 19.5408C15.1007 19.5408 17.8447 19.0588 17.8447 17.1128C17.8447 15.1668 15.1177 14.6638 11.8867 14.6638Z" stroke="currentColor" stroke-width="1.5" stroke-linecap="round" stroke-linejoin="round"></path><path fill-rule="evenodd" clip-rule="evenodd" d="M11.8867 11.8879C13.9957 11.8879 15.7057 10.1789 15.7057 8.06888C15.7057 5.95988 13.9957 4.24988 11.8867 4.24988C9.7777 4.24988 8.0677 5.95988 8.0677 8.06888C8.0597 10.1709 9.7567 11.8809 11.8587 11.8879H11.8867Z" stroke="currentColor" stroke-width="1.5" stroke-linecap="round" stroke-linejoin="round"></path><path d="M5.8848 10.8967C4.4888 10.7007 3.4158 9.50473 3.4128 8.05573C3.4128 6.62773 4.4538 5.44373 5.8188 5.21973" stroke="currentColor" stroke-width="1.5" stroke-linecap="round" stroke-linejoin="round"></path><path d="M4.0439 14.2502C2.6929 14.4522 1.7499 14.9252 1.7499 15.9002C1.7499 16.5712 2.1939 17.0072 2.9119 17.2812" stroke="currentColor" stroke-width="1.5" stroke-linecap="round" stroke-linejoin="round"></path></symbol><symbol id="projects" width="24" height="24" viewBox="0 0 24 24" fill="none" xmlns="http://www.w3.org/2000/svg"><path fill-rule="evenodd" clip-rule="evenodd" d="M3 6.5C3 3.87479 3.02811 3 6.5 3C9.97189 3 10 3.87479 10 6.5C10 9.12521 10.0111 10 6.5 10C2.98893 10 3 9.12521 3 6.5Z" stroke="currentColor" stroke-width="1.5" stroke-linecap="round" stroke-linejoin="round"></path><path fill-rule="evenodd" clip-rule="evenodd" d="M14 6.5C14 3.87479 14.0281 3 17.5 3C20.9719 3 21 3.87479 21 6.5C21 9.12521 21.0111 10 17.5 10C13.9889 10 14 9.12521 14 6.5Z" stroke="currentColor" stroke-width="1.5" stroke-linecap="round" stroke-linejoin="round"></path><path fill-rule="evenodd" clip-rule="evenodd" d="M3 17.5C3 14.8748 3.02811 14 6.5 14C9.97189 14 10 14.8748 10 17.5C10 20.1252 10.0111 21 6.5 21C2.98893 21 3 20.1252 3 17.5Z" stroke="currentColor" stroke-width="1.5" stroke-linecap="round" stroke-linejoin="round"></path><path fill-rule="evenodd" clip-rule="evenodd" d="M14 17.5C14 14.8748 14.0281 14 17.5 14C20.9719 14 21 14.8748 21 17.5C21 20.1252 21.0111 21 17.5 21C13.9889 21 14 20.1252 14 17.5Z" stroke="currentColor" stroke-width="1.5" stroke-linecap="round" stroke-linejoin="round"></path></symbol><symbol id="arrow-no-body" width="20" height="12" viewBox="0 0 20 12" fill="none" xmlns="http://www.w3.org/2000/svg"><path d="M19 10.5L10 1.5L1 10.5" stroke="currentColor" stroke-width="2" stroke-linecap="round" stroke-linejoin="round"></path></symbol><symbol id="check" width="12" height="10" viewBox="0 0 12 10" fill="none" xmlns="http://www.w3.org/2000/svg"><path d="M1 4.1251L4.74989 8.25L11 1.375" stroke="white" stroke-width="2" stroke-linecap="round"></path></symbol></svg>