<?xml version="1.0" encoding="UTF-8" standalone="no"?><svg xmlns="http://www.w3.org/2000/svg" xmlns:xlink="http://www.w3.org/1999/xlink"><symbol id="check" width="18" height="17" viewBox="0 0 18 17" fill="none" xmlns="http://www.w3.org/2000/svg"><path d="M16.5792 0.329798C16.2619 0.16276 15.9129 0.0565335 15.5522 0.0171946C15.1915 -0.0221443 14.8262 0.00617563 14.4771 0.100535C14.128 0.194894 13.8019 0.353443 13.5176 0.567112C13.2333 0.780782 12.9963 1.04538 12.8202 1.34578L7.68882 10.083L4.75209 7.30437C4.49712 7.0546 4.19213 6.85537 3.85491 6.71832C3.51769 6.58126 3.155 6.50912 2.788 6.5061C2.421 6.50308 2.05704 6.56925 1.71736 6.70074C1.37767 6.83223 1.06907 7.02642 0.809552 7.27196C0.550034 7.5175 0.3448 7.80949 0.205824 8.13088C0.0668488 8.45227 -0.00308477 8.79663 0.000104359 9.14387C0.00329349 9.4911 0.0795416 9.83426 0.224399 10.1533C0.369257 10.4724 0.579823 10.7609 0.843812 11.0022L6.37178 16.2325C6.89417 16.728 7.59899 17 8.32592 17L8.70873 16.9738C9.13238 16.9178 9.53649 16.7694 9.88925 16.5405C10.242 16.3116 10.5338 16.0083 10.7416 15.6545L17.6516 3.88639C17.828 3.58624 17.9402 3.25615 17.9818 2.91497C18.0234 2.57379 17.9935 2.2282 17.8939 1.89794C17.7944 1.56767 17.627 1.2592 17.4014 0.990141C17.1758 0.721079 16.8964 0.496694 16.5792 0.329798V0.329798Z" fill="currentColor"></path></symbol><symbol id="arrow-no-body" width="16" height="9" viewBox="0 0 16 9" fill="none" xmlns="http://www.w3.org/2000/svg"><path d="M1 1L8 8L15 1" stroke="white" stroke-linecap="round"></path></symbol></svg>