<svg width="23" height="21" viewBox="0 0 23 21" fill="none" xmlns="http://www.w3.org/2000/svg">
  <path d="M13.1352 17.4303C16.9487 17.4303 18.856 17.4303 20.0402 16.2451C21.2254 15.0609 21.2254 13.1537 21.2254 9.34016C21.2254 5.52666 21.2254 3.61941 20.0402 2.43521C18.856 1.25 16.9487 1.25 13.1352 1.25H9.09016C5.27666 1.25 3.36941 1.25 2.18521 2.43521C1 3.61941 1 5.52666 1 9.34016C1 13.1537 1 15.0609 2.18521 16.2451C2.84557 16.9065 3.96481 17.3019 5.27946 17.4303" stroke="currentColor" stroke-width="1.92188" stroke-linecap="round" stroke-linejoin="round"/>
  <path d="M11.1134 9.33984V9.34996M7.06836 9.33984V9.34996M15.1585 9.33984V9.34996" stroke="currentColor" stroke-width="1.92188" stroke-linecap="round"/>
  <path d="M13.1371 17.4297C11.8871 17.4297 10.5098 17.9353 9.25279 18.5876C7.23227 19.6363 6.22201 20.1611 5.72447 19.8264C5.22692 19.4927 5.34892 19.5018 5.53803 17.4297L3.83691 17.127" stroke="currentColor" stroke-width="1.92188" stroke-linecap="round"/>
</svg>
