<svg width="24" height="24" viewBox="0 0 24 24" fill="none" xmlns="http://www.w3.org/2000/svg">
  <path d="M12.1918 14.6796C11.5555 14.6796 11.1843 15.2959 11.1843 16.1212C11.1843 16.9518 11.5669 17.5387 12.198 17.5387C12.8343 17.5387 13.1993 16.9213 13.1993 16.096C13.1993 15.3337 12.8405 14.6796 12.1918 14.6796Z" fill="#6C27FF"/>
  <path d="M14.0625 1.5H5.8125C5.26549 1.5 4.74089 1.72125 4.35409 2.11508C3.9673 2.5089 3.75 3.04305 3.75 3.6V20.4C3.75 20.957 3.9673 21.4911 4.35409 21.8849C4.74089 22.2787 5.26549 22.5 5.8125 22.5H18.1875C18.7345 22.5 19.2591 22.2787 19.6459 21.8849C20.0327 21.4911 20.25 20.957 20.25 20.4V7.8L14.0625 1.5ZM9.06609 17.7267C8.62678 18.0984 7.95956 18.2738 7.14384 18.2738C6.654 18.2738 6.30853 18.2423 6.07341 18.2108V14.0412C6.49516 13.9794 6.92091 13.9502 7.347 13.954C8.139 13.954 8.65256 14.0989 9.05372 14.4076C9.48684 14.7352 9.75909 15.2581 9.75909 16.0057C9.75909 16.8195 9.46828 17.3802 9.06609 17.7267ZM12.1495 18.3C10.912 18.3 10.1891 17.3487 10.1891 16.1391C10.1891 14.8675 10.9863 13.9173 12.2176 13.9173C13.4974 13.9173 14.1966 14.8927 14.1966 16.0645C14.1955 17.4558 13.3664 18.3 12.1495 18.3ZM16.95 17.4999C17.2336 17.4999 17.5492 17.4359 17.7358 17.3613L17.8781 18.1099C17.7049 18.1981 17.3151 18.2927 16.8087 18.2927C15.3681 18.2927 14.6256 17.3802 14.6256 16.1706C14.6256 14.7226 15.6393 13.9173 16.9015 13.9173C17.3903 13.9173 17.7606 14.0181 17.9276 14.1063L17.7358 14.8686C17.4847 14.763 17.2155 14.7094 16.9438 14.7111C16.1951 14.7111 15.6135 15.171 15.6135 16.116C15.6135 16.9654 16.1085 17.4999 16.95 17.4999ZM13.0312 8.85V3.6L18.1875 8.85H13.0312Z" fill="#6C27FF"/>
  <path d="M7.446 14.6911C7.23666 14.6911 7.10053 14.71 7.02009 14.7289V17.5062C7.10053 17.5251 7.23047 17.5251 7.347 17.5251C8.20087 17.5314 8.75672 17.0536 8.75672 16.0393C8.76291 15.1573 8.25656 14.6911 7.446 14.6911Z" fill="#6C27FF"/>
</svg>
