<svg width="20" height="22" viewBox="0 0 20 22" fill="none" xmlns="http://www.w3.org/2000/svg">
  <path d="M17.5043 16.6308C16.4422 20.5947 11.9677 22.8369 7.50548 21.6413C4.21434 20.7594 1.73455 18.1821 1.2411 15.1374L0.0108622 7.49298C-0.0175975 7.31561 0.0101435 7.13758 0.0908356 6.97974C0.171528 6.8219 0.30183 6.69078 0.466478 6.60176C0.631127 6.51273 0.823304 6.46948 1.0205 6.47707C1.21769 6.48466 1.41174 6.54277 1.57991 6.64461L2.31498 7.09148C2.83707 7.4044 3.19814 7.91446 3.28807 8.46723L3.80893 11.6923C3.84163 11.8933 3.99452 12.0496 4.19643 12.1037L4.62044 12.2173L7.444 1.67964C7.52366 1.38233 7.73302 1.13282 8.02601 0.985995C8.31901 0.839174 8.67163 0.807072 9.00632 0.896752C9.34101 0.986431 9.63034 1.19055 9.81067 1.46419C9.991 1.73784 10.0475 2.0586 9.96788 2.35592L7.98538 9.7547C7.9181 10.0058 8.08733 10.2626 8.37001 10.3384C8.65268 10.4141 8.92765 10.2763 8.99494 10.0252L11.458 0.83278C11.5377 0.535465 11.7471 0.285952 12.0401 0.139131C12.333 -0.00768958 12.6857 -0.0397913 13.0204 0.0498881C13.3551 0.139567 13.6444 0.343682 13.8247 0.617328C14.005 0.890975 14.0616 1.21174 13.9819 1.50905L11.5188 10.7015C11.4515 10.9526 11.6208 11.2094 11.9034 11.2852C12.1861 11.3609 12.4611 11.2231 12.5284 10.972L14.631 3.1248C14.7107 2.82748 14.92 2.57797 15.213 2.43115C15.506 2.28433 15.8587 2.25222 16.1933 2.3419C16.528 2.43158 16.8174 2.6357 16.9977 2.90934C17.178 3.18299 17.2346 3.50375 17.1549 3.80107L15.0523 11.6483C14.985 11.8994 15.1542 12.1562 15.4369 12.2319C15.7196 12.3077 15.9945 12.1699 16.0618 11.9188L17.4436 6.76205C17.5232 6.46473 17.7326 6.21522 18.0256 6.0684C18.3186 5.92158 18.6712 5.88947 19.0059 5.97915C19.3406 6.06883 19.6299 6.27295 19.8102 6.54659C19.9906 6.82024 20.0471 7.141 19.9674 7.43832L17.5043 16.6308Z" fill="currentColor"/>
</svg>
