<svg width="97" height="97" viewBox="0 0 97 97" fill="none" xmlns="http://www.w3.org/2000/svg">
  <path fill-rule="evenodd" clip-rule="evenodd" d="M17.3232 0.199287C12.5423 0.656301 7.98223 3.09439 4.53806 7.03477C3.03982 8.74902 1.21325 12.2741 0.504859 14.8183L0 16.6318V48.4822V80.3326L0.504859 82.1462C2.7714 90.2872 9.34773 95.9126 17.5859 96.7572C20.7324 97.0798 76.1376 97.0814 79.2825 96.759C82.1313 96.4668 84.072 95.8865 86.5679 94.5801C91.0436 92.2377 94.5803 87.9668 96.0624 83.1146C96.9387 80.246 97 77.9825 97 48.4822C97 18.982 96.9387 16.7184 96.0624 13.8498C94.5803 8.99771 91.0436 4.72681 86.5679 2.38438C84.072 1.07795 82.1313 0.497616 79.2825 0.205408C76.649 -0.0645834 20.1413 -0.0702508 17.3232 0.199287ZM70.1778 30.0981C72.5784 31.3281 73.5634 34.4486 72.2487 36.6595C71.6549 37.6579 48.8554 60.176 47.5142 61.0886C46.4734 61.7968 44.7188 62.017 43.2927 61.618C42.3365 61.3505 41.5301 60.6493 36.0831 55.349C32.5441 51.9053 29.7341 48.9841 29.4396 48.4426C28.2154 46.1922 29.1636 43.1898 31.4597 42.0466C32.9507 41.3042 34.4684 41.265 35.8019 41.9342C36.3485 42.2085 38.4651 44.1055 40.7507 46.3692L44.7442 50.325L54.997 40.3215C60.636 34.8197 65.578 30.1754 65.9792 30.0013C67.0569 29.5332 69.1701 29.5817 70.1778 30.0981Z" fill="currentColor"/>
</svg>
