<svg width="22" height="21" viewBox="0 0 22 21" fill="none" xmlns="http://www.w3.org/2000/svg">
  <path d="M10.1458 6.023C10.5258 5.34 10.7158 5 10.9998 5C11.2838 5 11.4738 5.34 11.8538 6.023L11.9518 6.199C12.0598 6.393 12.1138 6.489 12.1978 6.553C12.2828 6.617 12.3878 6.641 12.5978 6.688L12.7878 6.732C13.5258 6.899 13.8948 6.982 13.9828 7.264C14.0708 7.547 13.8188 7.841 13.3158 8.429L13.1858 8.581C13.0428 8.748 12.9708 8.831 12.9388 8.935C12.9068 9.039 12.9178 9.15 12.9388 9.373L12.9588 9.576C13.0348 10.361 13.0728 10.754 12.8438 10.928C12.6138 11.102 12.2678 10.943 11.5768 10.625L11.3988 10.543C11.2018 10.453 11.1038 10.408 10.9998 10.408C10.8958 10.408 10.7978 10.453 10.6008 10.543L10.4228 10.625C9.73179 10.944 9.38579 11.102 9.15579 10.928C8.92579 10.754 8.96479 10.361 9.04079 9.576L9.06079 9.373C9.08179 9.15 9.09279 9.039 9.06079 8.935C9.02879 8.832 8.95679 8.748 8.81379 8.581L8.68379 8.429C8.18079 7.841 7.92879 7.547 8.01679 7.264C8.10479 6.982 8.47379 6.899 9.21179 6.732L9.40179 6.688C9.61179 6.641 9.71679 6.618 9.80179 6.553C9.88579 6.489 9.93979 6.393 10.0478 6.199L10.1458 6.023Z" stroke="currentColor"/>
  <path d="M18 8C18 8.91925 17.8189 9.82951 17.4672 10.6788C17.1154 11.5281 16.5998 12.2997 15.9497 12.9497C15.2997 13.5998 14.5281 14.1154 13.6788 14.4672C12.8295 14.8189 11.9193 15 11 15C10.0807 15 9.17049 14.8189 8.32122 14.4672C7.47194 14.1154 6.70026 13.5998 6.05025 12.9497C5.40024 12.2997 4.88463 11.5281 4.53284 10.6788C4.18106 9.82951 4 8.91925 4 8C4 6.14348 4.7375 4.36301 6.05025 3.05025C7.36301 1.7375 9.14348 1 11 1C12.8565 1 14.637 1.7375 15.9497 3.05025C17.2625 4.36301 18 6.14348 18 8Z" stroke="currentColor"/>
  <path d="M4.45584 11L1.99184 13.551C1.45184 14.11 1.18184 14.39 1.08784 14.627C0.874839 15.166 1.05784 15.765 1.52084 16.049C1.72484 16.173 2.09184 16.212 2.82584 16.29C3.24084 16.334 3.44784 16.355 3.62084 16.422C3.81426 16.497 3.9891 16.6131 4.13327 16.7623C4.27743 16.9114 4.38749 17.0901 4.45584 17.286C4.51984 17.466 4.54084 17.68 4.58384 18.11C4.65784 18.87 4.69584 19.25 4.81584 19.46C5.08984 19.94 5.66884 20.128 6.18884 19.908C6.41884 19.812 6.68884 19.533 7.22884 18.973L10.9998 15.068L14.7708 18.973C15.3108 19.533 15.5808 19.812 15.8108 19.908C16.3308 20.128 16.9098 19.94 17.1838 19.46C17.3038 19.25 17.3408 18.87 17.4158 18.11C17.4588 17.68 17.4798 17.466 17.5438 17.286C17.6878 16.884 17.9898 16.571 18.3788 16.422C18.5518 16.355 18.7588 16.334 19.1738 16.29C19.9078 16.212 20.2748 16.173 20.4788 16.049C20.9418 15.765 21.1248 15.166 20.9118 14.627C20.8178 14.39 20.5478 14.11 20.0078 13.551L17.5438 11" stroke="currentColor"/>
</svg>
