<svg width="40" height="40" viewBox="0 0 40 40" fill="none" xmlns="http://www.w3.org/2000/svg">
  <path d="M31.496 29.0732C31.6557 29.2325 31.7825 29.4217 31.869 29.6301C31.9555 29.8385 32 30.0619 32 30.2875C32 30.5131 31.9555 30.7365 31.869 30.9448C31.7825 31.1532 31.6557 31.3424 31.496 31.5017C31.1726 31.821 30.7365 32 30.2821 32C29.8277 32 29.3916 31.821 29.0682 31.5017L20 22.4308L10.9318 31.5017C10.6084 31.821 10.1723 32 9.71789 32C9.26351 32 8.82742 31.821 8.50403 31.5017C8.34427 31.3424 8.21751 31.1532 8.13102 30.9448C8.04452 30.7365 8 30.5131 8 30.2875C8 30.0619 8.04452 29.8385 8.13102 29.6301C8.21751 29.4217 8.34427 29.2325 8.50403 29.0732L17.5723 20.0023L8.50403 10.9314C8.1821 10.6094 8.00123 10.1726 8.00123 9.71717C8.00123 9.49166 8.04564 9.26837 8.13191 9.06003C8.21818 8.8517 8.34463 8.6624 8.50403 8.50295C8.66344 8.34349 8.85268 8.21701 9.06096 8.13071C9.26923 8.04442 9.49246 8 9.71789 8C10.1732 8 10.6098 8.18092 10.9318 8.50295L20 17.5739L29.0682 8.50295C29.3902 8.18092 29.8268 8 30.2821 8C30.7374 8 31.174 8.18092 31.496 8.50295C31.8179 8.82498 31.9988 9.26175 31.9988 9.71717C31.9988 10.1726 31.8179 10.6094 31.496 10.9314L22.4277 20.0023L31.496 29.0732Z" fill="#332E2D"/>
</svg>
