<svg width="24" height="18" viewBox="0 0 24 18" fill="none" xmlns="http://www.w3.org/2000/svg">
  <path d="M17.8877 7.8977C19.2827 7.7017 20.3567 6.5057 20.3597 5.0567C20.3597 3.6287 19.3187 2.4447 17.9537 2.2207" stroke="currentColor" stroke-width="2" stroke-linecap="round" stroke-linejoin="round"/>
  <path d="M19.7285 11.25C21.0795 11.452 22.0225 11.925 22.0225 12.9C22.0225 13.571 21.5785 14.007 20.8605 14.281" stroke="currentColor" stroke-width="2" stroke-linecap="round" stroke-linejoin="round"/>
  <path fill-rule="evenodd" clip-rule="evenodd" d="M11.8867 11.6641C8.67273 11.6641 5.92773 12.1511 5.92773 14.0961C5.92773 16.0401 8.65573 16.5411 11.8867 16.5411C15.1007 16.5411 17.8447 16.0591 17.8447 14.1131C17.8447 12.1671 15.1177 11.6641 11.8867 11.6641Z" stroke="currentColor" stroke-width="2" stroke-linecap="round" stroke-linejoin="round"/>
  <path fill-rule="evenodd" clip-rule="evenodd" d="M11.8864 8.888C13.9954 8.888 15.7054 7.179 15.7054 5.069C15.7054 2.96 13.9954 1.25 11.8864 1.25C9.77741 1.25 8.06741 2.96 8.06741 5.069C8.05941 7.171 9.75641 8.881 11.8584 8.888H11.8864Z" stroke="currentColor" stroke-width="2" stroke-linecap="round" stroke-linejoin="round"/>
  <path d="M5.88509 7.8977C4.48909 7.7017 3.41609 6.5057 3.41309 5.0567C3.41309 3.6287 4.45409 2.4447 5.81909 2.2207" stroke="currentColor" stroke-width="2" stroke-linecap="round" stroke-linejoin="round"/>
  <path d="M4.044 11.25C2.693 11.452 1.75 11.925 1.75 12.9C1.75 13.571 2.194 14.007 2.912 14.281" stroke="currentColor" stroke-width="2" stroke-linecap="round" stroke-linejoin="round"/>
</svg>
