<svg width="21" height="16" viewBox="0 0 21 16" fill="none" xmlns="http://www.w3.org/2000/svg">
  <path d="M1 4.2502V4.2002C1 3.08009 1 2.51962 1.2301 2.0918C1.4325 1.71547 1.75522 1.40973 2.15245 1.21799C2.60404 1 3.19565 1 4.37798 1H16.6224C17.8048 1 18.3951 1 18.8467 1.21799C19.2439 1.40973 19.5677 1.71547 19.7701 2.0918C20 2.5192 20 3.07899 20 4.19691V11.8031C20 12.921 20 13.48 19.7701 13.9074C19.5677 14.2837 19.2441 14.5905 18.8469 14.7822C18.3958 15 17.8055 15 16.6255 15H12.6111M3.11111 15C3.11111 13.8954 2.16593 13 1 13M6.27778 15C6.27778 12.2386 3.91484 10 1 10M9.44444 15C9.44444 10.5817 5.66374 7 1 7" stroke="currentColor" stroke-width="2" stroke-linecap="round" stroke-linejoin="round"/>
</svg>
