<svg width="16" height="17" viewBox="0 0 16 17" fill="none" xmlns="http://www.w3.org/2000/svg">
  <path d="M12.627 9.10909C12.5168 9.94909 12.1801 10.7433 11.6529 11.4064C11.1257 12.0696 10.4279 12.5767 9.63439 12.8735C8.84087 13.1702 7.98153 13.2453 7.14856 13.0908C6.31558 12.9363 5.54038 12.5579 4.90609 11.9963C4.27181 11.4347 3.80237 10.711 3.54812 9.90283C3.29387 9.09469 3.26441 8.23258 3.46288 7.40897C3.66136 6.58535 4.08029 5.8313 4.67475 5.22768C5.26921 4.62407 6.01676 4.19365 6.83725 3.98261C9.11173 3.39925 11.4661 4.57004 12.3353 6.75177" stroke="currentColor" stroke-width="1.5" stroke-linecap="round" stroke-linejoin="round"/>
  <path d="M12.6658 3.83496V6.75172H9.74902" stroke="currentColor" stroke-width="1.5" stroke-linecap="round" stroke-linejoin="round"/>
</svg>
