<svg width="20" height="20" viewBox="0 0 20 20" fill="none" xmlns="http://www.w3.org/2000/svg">
  <path fill-rule="evenodd" clip-rule="evenodd" d="M9.64339 2.5625C5.70844 2.5625 2.5625 5.66991 2.5625 9.44951C2.5625 13.2291 5.70844 16.3365 9.64339 16.3365C13.5783 16.3365 16.7243 13.2291 16.7243 9.44951C16.7243 5.66991 13.5783 2.5625 9.64339 2.5625ZM0.4375 9.44951C0.4375 4.44833 4.5834 0.4375 9.64339 0.4375C14.7034 0.4375 18.8493 4.44833 18.8493 9.44951C18.8493 11.6659 18.035 13.6879 16.6877 15.2523L19.2413 17.7387C19.6617 18.148 19.6707 18.8207 19.2613 19.2411C18.852 19.6616 18.1793 19.6705 17.7589 19.2612L15.121 16.6928C13.5872 17.8053 11.6901 18.4615 9.64339 18.4615C4.5834 18.4615 0.4375 14.4507 0.4375 9.44951Z" fill="currentColor"/>
</svg>
