<svg width="14" height="13" viewBox="0 0 14 13" fill="none" xmlns="http://www.w3.org/2000/svg">
  <path fill-rule="evenodd" clip-rule="evenodd" d="M7.00002 0.75C7.23793 0.75 7.45521 0.885074 7.56049 1.09842L9.15302 4.32564L12.7149 4.84317C12.9503 4.87737 13.1459 5.04228 13.2194 5.26854C13.2929 5.4948 13.2316 5.74318 13.0613 5.90924L10.4841 8.42126L11.0925 11.9683C11.1327 12.2028 11.0363 12.4398 10.8439 12.5796C10.6514 12.7194 10.3962 12.7379 10.1857 12.6272L7.00002 10.9525L3.81436 12.6272C3.60379 12.7379 3.34863 12.7194 3.15616 12.5796C2.9637 12.4398 2.86732 12.2028 2.90754 11.9683L3.51596 8.42126L0.938771 5.90924C0.768407 5.74318 0.707091 5.4948 0.780607 5.26854C0.854122 5.04228 1.04972 4.87737 1.28515 4.84317L4.84702 4.32564L6.43954 1.09842C6.54482 0.885074 6.7621 0.75 7.00002 0.75Z" fill="currentColor"/>
</svg>
