<svg width="22" height="17" viewBox="0 0 22 17" fill="none" xmlns="http://www.w3.org/2000/svg">
  <path d="M20.6606 15.9999C20.6606 14.2583 18.8493 12.7767 16.3213 12.2275M14.1516 16C14.1516 13.7909 11.2375 12 7.64272 12C4.04794 12 1.13379 13.7909 1.13379 16M14.1516 9C16.5482 9 18.4909 7.20914 18.4909 5C18.4909 2.79086 16.5482 1 14.1516 1M7.64272 9C5.2462 9 3.30343 7.20914 3.30343 5C3.30343 2.79086 5.2462 1 7.64272 1C10.0392 1 11.982 2.79086 11.982 5C11.982 7.20914 10.0392 9 7.64272 9Z" stroke="currentColor" stroke-width="2" stroke-linecap="round" stroke-linejoin="round"/>
</svg>

