<svg width="22" height="23" viewBox="0 0 22 23" fill="none" xmlns="http://www.w3.org/2000/svg">
  <path d="M11 9.025C11.6465 9.025 12.2665 9.28576 12.7236 9.74991C13.1807 10.2141 13.4375 10.8436 13.4375 11.5C13.4375 12.1564 13.1807 12.7859 12.7236 13.2501C12.2665 13.7142 11.6465 13.975 11 13.975C10.3535 13.975 9.73355 13.7142 9.27643 13.2501C8.81931 12.7859 8.5625 12.1564 8.5625 11.5C8.5625 10.8436 8.81931 10.2141 9.27643 9.74991C9.73355 9.28576 10.3535 9.025 11 9.025ZM11 5.3125C15.0625 5.3125 18.5319 7.87825 19.9375 11.5C18.5319 15.1217 15.0625 17.6875 11 17.6875C6.9375 17.6875 3.46813 15.1217 2.0625 11.5C3.46813 7.87825 6.9375 5.3125 11 5.3125ZM3.83375 11.5C4.49046 12.8615 5.51019 14.0086 6.77701 14.8109C8.04384 15.6133 9.50695 16.0386 11 16.0386C12.4931 16.0386 13.9562 15.6133 15.223 14.8109C16.4898 14.0086 17.5095 12.8615 18.1662 11.5C17.5095 10.1385 16.4898 8.99138 15.223 8.18906C13.9562 7.38675 12.4931 6.96141 11 6.96141C9.50695 6.96141 8.04384 7.38675 6.77701 8.18906C5.51019 8.99138 4.49046 10.1385 3.83375 11.5Z" fill="currentColor"/>
</svg>
