<?xml version="1.0" encoding="utf-8"?><svg xmlns="http://www.w3.org/2000/svg" xmlns:xlink="http://www.w3.org/1999/xlink"><symbol fill="none" viewBox="0 0 24 24" id="file_doc" xmlns="http://www.w3.org/2000/svg"><path d="M12.192 14.68c-.636 0-1.008.616-1.008 1.441 0 .83.383 1.418 1.014 1.418.636 0 1.001-.618 1.001-1.443 0-.762-.358-1.416-1.007-1.416Z" fill="#6C27FF"/><path d="M14.063 1.5h-8.25c-.548 0-1.072.221-1.459.615A2.12 2.12 0 0 0 3.75 3.6v16.8c0 .557.217 1.091.604 1.485.387.394.911.615 1.458.615h12.375c.547 0 1.072-.221 1.459-.615a2.12 2.12 0 0 0 .604-1.485V7.8l-6.188-6.3ZM9.066 17.727c-.44.371-1.106.547-1.922.547a8.01 8.01 0 0 1-1.07-.063v-4.17a8.275 8.275 0 0 1 1.273-.087c.792 0 1.306.145 1.707.454.433.327.705.85.705 1.598 0 .814-.29 1.374-.693 1.72Zm3.083.573c-1.237 0-1.96-.951-1.96-2.16 0-1.273.797-2.223 2.029-2.223 1.28 0 1.979.976 1.979 2.147-.002 1.392-.83 2.236-2.047 2.236Zm4.801-.8c.284 0 .6-.064.786-.139l.142.749c-.173.088-.563.183-1.07.183-1.44 0-2.182-.913-2.182-2.122 0-1.448 1.013-2.254 2.275-2.254.49 0 .86.101 1.027.19l-.192.762a2.01 2.01 0 0 0-.792-.158c-.749 0-1.33.46-1.33 1.405 0 .85.494 1.384 1.336 1.384Zm-3.919-8.65V3.6l5.156 5.25h-5.156Z" fill="#6C27FF"/><path d="M7.446 14.691c-.21 0-.345.019-.426.038v2.777c.08.02.21.02.327.02.854.005 1.41-.472 1.41-1.487.006-.882-.5-1.348-1.311-1.348Z" fill="#6C27FF"/></symbol><symbol fill="none" viewBox="0 0 24 24" id="file_pdf" xmlns="http://www.w3.org/2000/svg"><path d="M18.188 22.5H5.813a2.044 2.044 0 0 1-1.459-.615A2.12 2.12 0 0 1 3.75 20.4V3.6c0-.556.217-1.09.604-1.484a2.044 2.044 0 0 1 1.458-.615h7.22a.106.106 0 0 1 .027 0h.006a.15.15 0 0 0 .03.006c.09.007.18.024.267.054h.044a.434.434 0 0 1 .053.045c.113.05.215.122.302.21l6.188 6.3c.086.089.156.193.206.307a.768.768 0 0 1 .024.07l.01.029c.029.087.046.178.05.27.002.011.004.022.008.031v.007a.115.115 0 0 1 .003.02V20.4a2.12 2.12 0 0 1-.604 1.485 2.044 2.044 0 0 1-1.459.615ZM14.5 14.1v5.25h.97v-2.142h1.505v-.88h-1.506v-1.345h1.687V14.1H14.5Zm-3.816 0v5.25h1.244c.257.013.515-.033.752-.135.238-.102.45-.256.621-.453.356-.462.534-1.04.502-1.626v-.85a2.43 2.43 0 0 0-.516-1.603 1.674 1.674 0 0 0-1.333-.583h-1.27Zm-3.84 0v5.25h.97v-1.847h.645c.43.024.851-.138 1.159-.447a1.72 1.72 0 0 0 .423-1.218 1.832 1.832 0 0 0-.425-1.254 1.443 1.443 0 0 0-1.138-.484H6.844ZM13.03 3.6v5.25h5.156L13.032 3.6Zm-1.087 14.87h-.29v-3.487h.352a.728.728 0 0 1 .64.307c.151.318.216.672.187 1.025v.912c.023.336-.048.672-.206.967a.79.79 0 0 1-.683.276Zm-3.466-1.85h-.666v-1.637h.676a.483.483 0 0 1 .412.239c.111.188.165.404.155.623a.947.947 0 0 1-.152.578.517.517 0 0 1-.425.197Z" fill="#FF5151"/></symbol></svg>