<?xml version="1.0" encoding="utf-8"?><svg xmlns="http://www.w3.org/2000/svg" xmlns:xlink="http://www.w3.org/1999/xlink"><symbol fill="none" viewBox="0 0 20 12" id="arrow-no-body" xmlns="http://www.w3.org/2000/svg"><path d="m19 10.5-9-9-9 9" stroke="currentColor" stroke-width="2" stroke-linecap="round" stroke-linejoin="round"/></symbol><symbol fill="none" viewBox="0 0 24 24" id="attach" xmlns="http://www.w3.org/2000/svg"><path d="M17.338 5.873c-1.881-1.83-4.945-1.83-6.824 0L5.302 10.94a.172.172 0 0 0-.052.124c0 .047.018.091.052.124l.737.717a.182.182 0 0 0 .253 0l5.213-5.067a3.452 3.452 0 0 1 2.422-.975c.915 0 1.776.346 2.42.975a3.265 3.265 0 0 1 0 4.71l-5.312 5.166-.86.837a2.106 2.106 0 0 1-2.918 0 1.964 1.964 0 0 1-.603-1.418c0-.536.214-1.04.603-1.418l5.27-5.126c.134-.128.31-.2.498-.2h.002c.187 0 .36.072.493.2a.668.668 0 0 1 0 .964L9.212 14.74a.173.173 0 0 0-.052.124c0 .047.018.092.052.125l.737.717a.182.182 0 0 0 .254 0l4.305-4.19a2.007 2.007 0 0 0 0-2.891 2.15 2.15 0 0 0-2.975 0l-.511.5-4.757 4.626a3.343 3.343 0 0 0-.753 1.093 3.3 3.3 0 0 0 .753 3.671 3.51 3.51 0 0 0 2.45.985c.887 0 1.773-.328 2.448-.985l6.175-6.004a4.608 4.608 0 0 0 0-6.638Z" fill="currentColor"/></symbol><symbol fill="none" viewBox="0 0 25 24" id="basket" xmlns="http://www.w3.org/2000/svg"><path d="M18.313 6.094H6.5m7.594-.844h-3.375M7.344 9.469v8.437c0 .563.281.844.843.844h8.438c.563 0 .844-.281.844-.844V9.47" stroke="currentColor" stroke-width="2" stroke-linecap="round" stroke-linejoin="round"/></symbol><symbol fill="none" viewBox="0 0 20 22" id="bell" xmlns="http://www.w3.org/2000/svg"><path d="M12.389 19.857c-1.364 1.515-3.492 1.533-4.87 0M10 16.847c5.64 0 8.248-.723 8.5-3.627 0-2.901-1.819-2.715-1.819-6.275C16.681 4.165 14.045 1 10 1S3.319 4.164 3.319 6.945c0 3.56-1.819 3.374-1.819 6.275.253 2.915 2.862 3.628 8.5 3.628Z" stroke="currentColor" stroke-width="2" stroke-linecap="round" stroke-linejoin="round"/></symbol><symbol fill="none" viewBox="0 0 12 10" id="check" xmlns="http://www.w3.org/2000/svg"><path d="M1 4.125 4.75 8.25 11 1.375" stroke="#fff" stroke-width="2" stroke-linecap="round"/></symbol><symbol fill="none" viewBox="0 0 20 20" id="color-error" xmlns="http://www.w3.org/2000/svg"><path d="M9.953 0C4.465 0 0 4.486 0 10s4.486 10 10 10 10-4.486 10-10S15.493 0 9.953 0ZM11 15H9v-2h2v2Zm0-4H9V5h2v6Z" fill="#FF5151"/></symbol><symbol fill="none" viewBox="0 0 24 24" id="cross" xmlns="http://www.w3.org/2000/svg"><path fill-rule="evenodd" clip-rule="evenodd" d="M7.227 7.227a.75.75 0 0 1 1.06 0L12 10.939l3.712-3.712a.75.75 0 1 1 1.061 1.06L13.061 12l3.712 3.712a.75.75 0 0 1-1.06 1.061L12 13.061l-3.712 3.712a.75.75 0 1 1-1.06-1.06L10.938 12 7.227 8.288a.75.75 0 0 1 0-1.061Z" fill="currentColor"/></symbol><symbol fill="none" viewBox="0 0 4 16" id="dots" xmlns="http://www.w3.org/2000/svg"><path d="M2 3.25a.75.75 0 1 0 0-1.5.75.75 0 0 0 0 1.5ZM2 8.75a.75.75 0 1 0 0-1.5.75.75 0 0 0 0 1.5ZM2 14.25a.75.75 0 1 0 0-1.5.75.75 0 0 0 0 1.5Z" fill="currentColor" stroke="currentColor" stroke-width="2" stroke-linecap="round" stroke-linejoin="round"/></symbol><symbol fill="none" viewBox="0 0 24 24" id="download" xmlns="http://www.w3.org/2000/svg"><path d="M12 14.681a.824.824 0 0 1-.281-.047.653.653 0 0 1-.244-.159l-2.7-2.7a.711.711 0 0 1-.206-.525c0-.213.068-.387.206-.525a.756.756 0 0 1 .534-.216.695.695 0 0 1 .535.197l1.406 1.407V6.75c0-.213.072-.39.216-.535A.725.725 0 0 1 12 6c.213 0 .39.072.535.215a.727.727 0 0 1 .215.535v5.363l1.406-1.407a.695.695 0 0 1 .535-.197.756.756 0 0 1 .534.216.711.711 0 0 1 .206.525.711.711 0 0 1-.206.525l-2.7 2.7a.653.653 0 0 1-.244.159.824.824 0 0 1-.281.047ZM7.5 18c-.412 0-.766-.147-1.059-.44A1.445 1.445 0 0 1 6 16.5V15c0-.213.072-.39.215-.535a.727.727 0 0 1 .535-.215c.213 0 .39.072.535.215A.727.727 0 0 1 7.5 15v1.5h9V15c0-.213.072-.39.216-.535a.725.725 0 0 1 .534-.215c.212 0 .39.072.534.215A.726.726 0 0 1 18 15v1.5c0 .413-.147.766-.44 1.06-.294.293-.647.44-1.06.44h-9Z" fill="currentColor"/></symbol><symbol fill="none" viewBox="0 0 32 32" id="edit-pen" xmlns="http://www.w3.org/2000/svg"><path fill-rule="evenodd" clip-rule="evenodd" d="M21.904 6.226a2.962 2.962 0 0 1 3.228 4.831l-6.064 6.064a3.24 3.24 0 0 1-1.656.887l-2.804.56a1 1 0 0 1-1.177-1.176l.56-2.803a3.245 3.245 0 0 1 .889-1.658l6.063-6.063c.275-.275.602-.494.961-.643ZM23.038 8a.962.962 0 0 0-.68.282l-1.002 1.001 1.361 1.36 1.001-1a.96.96 0 0 0-.312-1.57.962.962 0 0 0-.368-.073Zm-1.735 4.058-1.361-1.36-3.649 3.648a1.244 1.244 0 0 0-.34.635l-.267 1.332 1.333-.267a1.24 1.24 0 0 0 .635-.34l3.649-3.648Zm-12.185-1.94A1.118 1.118 0 0 0 8 11.235v11.647A1.117 1.117 0 0 0 9.118 24h11.647a1.118 1.118 0 0 0 1.117-1.118v-3.176a1 1 0 1 1 2 0v3.176A3.118 3.118 0 0 1 20.765 26H9.118A3.118 3.118 0 0 1 6 22.882V11.235a3.118 3.118 0 0 1 3.118-3.118h3.176a1 1 0 1 1 0 2H9.118Z" fill="currentColor"/></symbol><symbol fill="none" viewBox="0 0 24 24" id="file" xmlns="http://www.w3.org/2000/svg"><path clip-rule="evenodd" d="M14.738 2.762H8.085A3.82 3.82 0 0 0 4.25 6.49v10.713a3.828 3.828 0 0 0 3.742 3.91c.03 0 .06.002.092 0h7.989a3.887 3.887 0 0 0 3.729-3.91V8.038l-5.065-5.276Z" stroke="currentColor" stroke-width="1.5" stroke-linecap="round" stroke-linejoin="round"/><path d="M14.475 2.75v2.909a2.574 2.574 0 0 0 2.568 2.575h2.755M14.288 15.358h-5.4M12.243 11.606H8.887" stroke="currentColor" stroke-width="1.5" stroke-linecap="round" stroke-linejoin="round"/></symbol><symbol fill="none" viewBox="0 0 24 24" id="file_doc" xmlns="http://www.w3.org/2000/svg"><path d="M12.192 14.68c-.636 0-1.008.616-1.008 1.441 0 .83.383 1.418 1.014 1.418.636 0 1.001-.618 1.001-1.443 0-.762-.358-1.416-1.007-1.416Z" fill="#6C27FF"/><path d="M14.063 1.5h-8.25c-.548 0-1.072.221-1.459.615A2.12 2.12 0 0 0 3.75 3.6v16.8c0 .557.217 1.091.604 1.485.387.394.911.615 1.458.615h12.375c.547 0 1.072-.221 1.459-.615a2.12 2.12 0 0 0 .604-1.485V7.8l-6.188-6.3ZM9.066 17.727c-.44.371-1.106.547-1.922.547a8.01 8.01 0 0 1-1.07-.063v-4.17a8.275 8.275 0 0 1 1.273-.087c.792 0 1.306.145 1.707.454.433.327.705.85.705 1.598 0 .814-.29 1.374-.693 1.72Zm3.083.573c-1.237 0-1.96-.951-1.96-2.16 0-1.273.797-2.223 2.029-2.223 1.28 0 1.979.976 1.979 2.147-.002 1.392-.83 2.236-2.047 2.236Zm4.801-.8c.284 0 .6-.064.786-.139l.142.749c-.173.088-.563.183-1.07.183-1.44 0-2.182-.913-2.182-2.122 0-1.448 1.013-2.254 2.275-2.254.49 0 .86.101 1.027.19l-.192.762a2.01 2.01 0 0 0-.792-.158c-.749 0-1.33.46-1.33 1.405 0 .85.494 1.384 1.336 1.384Zm-3.919-8.65V3.6l5.156 5.25h-5.156Z" fill="#6C27FF"/><path d="M7.446 14.691c-.21 0-.345.019-.426.038v2.777c.08.02.21.02.327.02.854.005 1.41-.472 1.41-1.487.006-.882-.5-1.348-1.311-1.348Z" fill="#6C27FF"/></symbol><symbol fill="none" viewBox="0 0 24 24" id="file_pdf" xmlns="http://www.w3.org/2000/svg"><path d="M18.188 22.5H5.813a2.044 2.044 0 0 1-1.459-.615A2.12 2.12 0 0 1 3.75 20.4V3.6c0-.556.217-1.09.604-1.484a2.044 2.044 0 0 1 1.458-.615h7.22a.106.106 0 0 1 .027 0h.006a.15.15 0 0 0 .03.006c.09.007.18.024.267.054h.044a.434.434 0 0 1 .053.045c.113.05.215.122.302.21l6.188 6.3c.086.089.156.193.206.307a.768.768 0 0 1 .024.07l.01.029c.029.087.046.178.05.27.002.011.004.022.008.031v.007a.115.115 0 0 1 .003.02V20.4a2.12 2.12 0 0 1-.604 1.485 2.044 2.044 0 0 1-1.459.615ZM14.5 14.1v5.25h.97v-2.142h1.505v-.88h-1.506v-1.345h1.687V14.1H14.5Zm-3.816 0v5.25h1.244c.257.013.515-.033.752-.135.238-.102.45-.256.621-.453.356-.462.534-1.04.502-1.626v-.85a2.43 2.43 0 0 0-.516-1.603 1.674 1.674 0 0 0-1.333-.583h-1.27Zm-3.84 0v5.25h.97v-1.847h.645c.43.024.851-.138 1.159-.447a1.72 1.72 0 0 0 .423-1.218 1.832 1.832 0 0 0-.425-1.254 1.443 1.443 0 0 0-1.138-.484H6.844ZM13.03 3.6v5.25h5.156L13.032 3.6Zm-1.087 14.87h-.29v-3.487h.352a.728.728 0 0 1 .64.307c.151.318.216.672.187 1.025v.912c.023.336-.048.672-.206.967a.79.79 0 0 1-.683.276Zm-3.466-1.85h-.666v-1.637h.676a.483.483 0 0 1 .412.239c.111.188.165.404.155.623a.947.947 0 0 1-.152.578.517.517 0 0 1-.425.197Z" fill="#FF5151"/></symbol><symbol fill="none" viewBox="0 0 34 34" id="filter" xmlns="http://www.w3.org/2000/svg"><path fill-rule="evenodd" clip-rule="evenodd" d="M7.438 10.002c0-1.4 1.121-2.565 2.54-2.565h14.045c1.42 0 2.54 1.167 2.54 2.565v.884c0 .883-.336 1.733-.938 2.375l-4.578 4.868-.011.012a3.804 3.804 0 0 0-1.066 2.648v2.16c0 .835-.452 1.614-1.192 2.018l-2.608 1.421c-.985.535-2.122-.206-2.122-1.27V20.8a3.81 3.81 0 0 0-1.025-2.604 1.08 1.08 0 0 1-.07-.067l-4.576-4.867a3.47 3.47 0 0 1-.94-2.376v-.884Zm7.003 6.607.049.046a5.933 5.933 0 0 1 1.683 4.145v3.166l1.587-.864a.174.174 0 0 0 .085-.154v-2.16c0-1.537.594-3.018 1.66-4.12l4.57-4.86a1.35 1.35 0 0 0 .363-.922v-.884c0-.26-.203-.44-.415-.44H9.978a.429.429 0 0 0-.415.44v.884c0 .345.13.675.362.92l4.516 4.803Z" fill="currentColor"/></symbol><symbol fill="none" viewBox="0 0 97 97" id="inline-check" xmlns="http://www.w3.org/2000/svg"><path fill-rule="evenodd" clip-rule="evenodd" d="M17.323.2c-4.78.456-9.34 2.894-12.785 6.835-1.498 1.714-3.325 5.24-4.033 7.783L0 16.632v63.7l.505 1.814c2.266 8.141 8.843 13.767 17.08 14.611 3.147.323 58.553.324 61.698.002 2.848-.292 4.789-.873 7.285-2.179 4.476-2.342 8.012-6.613 9.494-11.465.877-2.869.938-5.132.938-34.633 0-29.5-.061-31.764-.938-34.632-1.482-4.852-5.018-9.123-9.494-11.466C84.072 1.078 82.13.498 79.283.205 76.648-.065 20.14-.07 17.322.2Zm52.855 29.898c2.4 1.23 3.385 4.35 2.07 6.562-.593.998-23.393 23.516-24.734 24.429-1.04.708-2.795.928-4.221.529-.956-.268-1.763-.969-7.21-6.269-3.539-3.444-6.349-6.365-6.643-6.906-1.225-2.25-.276-5.253 2.02-6.396 1.49-.743 3.008-.782 4.342-.113.547.275 2.663 2.172 4.949 4.435l3.993 3.956 10.253-10.004c5.639-5.501 10.581-10.146 10.982-10.32 1.078-.468 3.191-.42 4.199.097Z" fill="currentColor"/></symbol><symbol fill="none" viewBox="0 0 20 21" id="logout" xmlns="http://www.w3.org/2000/svg"><path d="M11.25 8V6.75A1.25 1.25 0 0 0 10 5.5H5.625a1.25 1.25 0 0 0-1.25 1.25v7.5a1.25 1.25 0 0 0 1.25 1.25H10a1.25 1.25 0 0 0 1.25-1.25V13" stroke="currentColor" stroke-width="1.5" stroke-linecap="round" stroke-linejoin="round"/><path d="M6.875 10.5h8.75L13.75 8.625m0 3.75 1.875-1.875" stroke="currentColor" stroke-width="1.5" stroke-linecap="round" stroke-linejoin="round"/></symbol><symbol fill="none" viewBox="0 0 40 40" id="menu-burger" xmlns="http://www.w3.org/2000/svg"><path d="M6.667 30c-.473 0-.868-.16-1.187-.48A1.608 1.608 0 0 1 5 28.333c0-.472.16-.867.48-1.186.319-.32.714-.48 1.187-.48h26.666c.473 0 .868.16 1.187.48.32.319.48.714.48 1.186 0 .473-.16.868-.48 1.187-.319.32-.714.48-1.187.48H6.667Zm0-8.333c-.473 0-.868-.16-1.187-.48A1.609 1.609 0 0 1 5 20c0-.472.16-.868.48-1.188a1.611 1.611 0 0 1 1.187-.479h26.666c.473 0 .868.16 1.187.479.32.32.48.716.48 1.188s-.16.868-.48 1.187c-.319.32-.714.48-1.187.48H6.667Zm0-8.334c-.473 0-.868-.16-1.187-.478-.32-.32-.48-.716-.48-1.188 0-.473.16-.869.48-1.189A1.611 1.611 0 0 1 6.667 10h26.666c.473 0 .868.16 1.187.478.32.32.48.716.48 1.189 0 .472-.16.868-.48 1.188a1.611 1.611 0 0 1-1.187.478H6.667Z" fill="#332E2D"/></symbol><symbol fill="none" viewBox="0 0 40 40" id="menu-cross" xmlns="http://www.w3.org/2000/svg"><path d="M31.496 29.073a1.716 1.716 0 0 1 0 2.429 1.728 1.728 0 0 1-2.428 0L20 22.43l-9.068 9.07a1.728 1.728 0 0 1-2.428 0 1.714 1.714 0 0 1 0-2.428l9.068-9.07-9.068-9.072a1.717 1.717 0 0 1 2.428-2.428L20 17.573l9.068-9.07a1.717 1.717 0 1 1 2.428 2.428l-9.068 9.071 9.068 9.071Z" fill="#332E2D"/></symbol><symbol fill="none" viewBox="0 0 24 24" id="message" xmlns="http://www.w3.org/2000/svg"><path d="M13.783 18.267c3.363 0 5.045 0 6.089-1.045 1.045-1.044 1.045-2.726 1.045-6.088 0-3.363 0-5.045-1.045-6.089C18.828 4 17.146 4 13.783 4h-3.566C6.854 4 5.172 4 4.128 5.045 3.083 6.09 3.083 7.771 3.083 11.134c0 3.362 0 5.044 1.045 6.088.582.583 1.363.841 2.522.954" stroke="currentColor" stroke-width="1.5" stroke-linecap="round" stroke-linejoin="round"/><path d="M12 11.134v.009m-3.567-.01v.01m7.134-.01v.01" stroke="currentColor" stroke-width="2.5" stroke-linecap="round"/><path d="M13.783 18.267c-1.102 0-2.316.446-3.425 1.021-1.781.925-2.672 1.388-3.11 1.093-.44-.294-.357-1.209-.19-3.036l.037-.415" stroke="currentColor" stroke-width="1.5" stroke-linecap="round"/></symbol><symbol fill="none" viewBox="0 0 13 12" id="message-inline" xmlns="http://www.w3.org/2000/svg"><path d="M.5 1.842c0-.389.158-.762.44-1.037.28-.275.662-.43 1.06-.43h9c.398 0 .78.155 1.06.43.282.275.44.648.44 1.037v5.87c0 .39-.158.763-.44 1.038-.28.275-.662.43-1.06.43H9.125a.764.764 0 0 0-.6.293L7.1 11.331a.746.746 0 0 1-.6.294.763.763 0 0 1-.6-.293L4.475 9.473a.746.746 0 0 0-.6-.293H2c-.398 0-.78-.155-1.06-.43A1.451 1.451 0 0 1 .5 7.712v-5.87Zm3.75 2.935a.726.726 0 0 0-.22-.519.759.759 0 0 0-1.06 0 .726.726 0 0 0 0 1.038.759.759 0 0 0 1.06 0 .726.726 0 0 0 .22-.519Zm3 0a.726.726 0 0 0-.22-.519.759.759 0 0 0-1.06 0 .726.726 0 0 0 0 1.038.759.759 0 0 0 1.06 0 .726.726 0 0 0 .22-.519Zm2.25.734c.199 0 .39-.077.53-.215a.726.726 0 0 0 0-1.038.758.758 0 0 0-1.06 0 .726.726 0 0 0 0 1.038c.14.138.331.215.53.215Z" fill="currentColor"/></symbol><symbol fill="none" viewBox="0 0 24 24" id="people" xmlns="http://www.w3.org/2000/svg"><path d="M17.888 10.897a2.875 2.875 0 0 0 2.472-2.841 2.875 2.875 0 0 0-2.406-2.836M19.729 14.25c1.35.202 2.294.675 2.294 1.65 0 .671-.445 1.107-1.163 1.381" stroke="currentColor" stroke-width="1.5" stroke-linecap="round" stroke-linejoin="round"/><path clip-rule="evenodd" d="M11.887 14.664c-3.214 0-5.96.487-5.96 2.432 0 1.944 2.729 2.445 5.96 2.445 3.214 0 5.958-.482 5.958-2.428s-2.727-2.45-5.958-2.45ZM11.887 11.888a3.819 3.819 0 1 0-3.82-3.82 3.804 3.804 0 0 0 3.792 3.82h.028Z" stroke="currentColor" stroke-width="1.5" stroke-linecap="round" stroke-linejoin="round"/><path d="M5.885 10.897a2.875 2.875 0 0 1-2.472-2.841A2.875 2.875 0 0 1 5.819 5.22M4.044 14.25c-1.351.202-2.294.675-2.294 1.65 0 .671.444 1.107 1.162 1.381" stroke="currentColor" stroke-width="1.5" stroke-linecap="round" stroke-linejoin="round"/></symbol><symbol fill="none" viewBox="0 0 25 24" id="person" xmlns="http://www.w3.org/2000/svg"><path fill-rule="evenodd" clip-rule="evenodd" d="M15.974 8.821c0 1.983-1.545 3.573-3.474 3.573-1.928 0-3.474-1.59-3.474-3.573 0-1.982 1.546-3.571 3.474-3.571 1.929 0 3.474 1.589 3.474 3.571ZM12.5 18.75c-2.847 0-5.25-.476-5.25-2.312 0-1.837 2.419-2.296 5.25-2.296 2.847 0 5.25.476 5.25 2.312 0 1.837-2.419 2.296-5.25 2.296Z" fill="currentColor"/></symbol><symbol fill="none" viewBox="0 0 32 32" id="plus" xmlns="http://www.w3.org/2000/svg"><path fill-rule="evenodd" clip-rule="evenodd" d="M16 7a1 1 0 0 1 1 1v7h7a1 1 0 1 1 0 2h-7v7a1 1 0 1 1-2 0v-7H8a1 1 0 1 1 0-2h7V8a1 1 0 0 1 1-1Z" fill="currentColor"/></symbol><symbol fill="none" viewBox="0 0 24 24" id="projects" xmlns="http://www.w3.org/2000/svg"><path clip-rule="evenodd" d="M3 6.5C3 3.875 3.028 3 6.5 3s3.5.875 3.5 3.5.011 3.5-3.5 3.5S3 9.125 3 6.5ZM14 6.5c0-2.625.028-3.5 3.5-3.5s3.5.875 3.5 3.5.011 3.5-3.5 3.5S14 9.125 14 6.5ZM3 17.5c0-2.625.028-3.5 3.5-3.5s3.5.875 3.5 3.5.011 3.5-3.5 3.5S3 20.125 3 17.5ZM14 17.5c0-2.625.028-3.5 3.5-3.5s3.5.875 3.5 3.5.011 3.5-3.5 3.5-3.5-.875-3.5-3.5Z" stroke="currentColor" stroke-width="1.5" stroke-linecap="round" stroke-linejoin="round"/></symbol><symbol fill="none" viewBox="0 0 24 25" id="reply" xmlns="http://www.w3.org/2000/svg"><path d="M13 14.5h2a8.999 8.999 0 0 1 7.968 4.81c.021-.27.032-.54.032-.81 0-5.523-4.477-10-10-10v-5l-10 8 10 8v-5Z" fill="currentColor"/></symbol><symbol fill="none" viewBox="0 0 32 32" id="search" xmlns="http://www.w3.org/2000/svg"><path fill-rule="evenodd" clip-rule="evenodd" d="M15.664 9C11.961 9 9 11.925 9 15.482c0 3.557 2.96 6.482 6.664 6.482 3.704 0 6.665-2.925 6.665-6.482 0-3.557-2.961-6.482-6.665-6.482ZM7 15.482C7 10.775 10.902 7 15.664 7c4.763 0 8.665 3.775 8.665 8.482a8.334 8.334 0 0 1-2.035 5.461l2.404 2.34a1 1 0 0 1-1.396 1.433L20.82 22.3a8.757 8.757 0 0 1-5.156 1.665C10.902 23.964 7 20.189 7 15.482Z" fill="currentColor"/></symbol><symbol fill="none" viewBox="0 0 24 24" id="send" xmlns="http://www.w3.org/2000/svg"><path fill-rule="evenodd" clip-rule="evenodd" d="M4.112 3.858a.75.75 0 0 1 .736-.023l14.338 7.5a.75.75 0 0 1 0 1.33l-14.338 7.5A.75.75 0 0 1 3.75 19.5v-5.94a.75.75 0 0 1 .568-.728l6.477-.869L4.3 11a.75.75 0 0 1-.551-.723V4.5a.75.75 0 0 1 .362-.642Z" fill="currentColor"/></symbol><symbol fill="none" viewBox="0 0 40 40" id="settings" xmlns="http://www.w3.org/2000/svg"><path fill-rule="evenodd" clip-rule="evenodd" d="M29.397 21.777c.4.214.709.552.926.89.423.697.389 1.552-.023 2.305l-.8 1.35a2.38 2.38 0 0 1-2.023 1.17c-.4 0-.846-.112-1.211-.337-.298-.191-.64-.259-1.006-.259a2.14 2.14 0 0 0-2.115 2.048c0 1.294-1.051 2.306-2.366 2.306h-1.554c-1.326 0-2.378-1.012-2.378-2.306-.022-1.114-.971-2.048-2.103-2.048-.377 0-.72.068-1.005.259a2.407 2.407 0 0 1-1.212.337c-.823 0-1.612-.45-2.034-1.17l-.79-1.35c-.422-.73-.445-1.608-.022-2.306.183-.337.526-.675.914-.889.32-.157.526-.416.72-.72.572-.967.229-2.238-.742-2.812a2.307 2.307 0 0 1-.846-3.184l.765-1.327a2.368 2.368 0 0 1 3.224-.855c.994.54 2.286.18 2.869-.777.182-.315.285-.652.262-.99a2.016 2.016 0 0 1 .32-1.192 2.452 2.452 0 0 1 2.024-1.17h1.611c.846 0 1.612.473 2.035 1.17.205.338.343.754.308 1.193-.023.337.08.675.263.99.583.956 1.875 1.316 2.88.776a2.355 2.355 0 0 1 3.212.855l.766 1.327a2.288 2.288 0 0 1-.846 3.184c-.971.574-1.314 1.845-.731 2.813.183.303.388.562.708.72Zm-12.63-1.766c0 1.766 1.452 3.173 3.246 3.173 1.795 0 3.212-1.407 3.212-3.173s-1.417-3.184-3.212-3.184c-1.794 0-3.246 1.418-3.246 3.184Z" fill="currentColor"/></symbol><symbol fill="none" viewBox="0 0 14 13" id="star" xmlns="http://www.w3.org/2000/svg"><path fill-rule="evenodd" clip-rule="evenodd" d="M7 .75c.238 0 .455.135.56.348l1.593 3.228 3.562.517a.625.625 0 0 1 .346 1.066l-2.577 2.512.608 3.547a.625.625 0 0 1-.906.66L7 10.952l-3.186 1.674a.625.625 0 0 1-.906-.659l.608-3.547L.939 5.91a.625.625 0 0 1 .346-1.066l3.562-.517L6.44 1.098A.625.625 0 0 1 7 .75Z" fill="currentColor"/></symbol></svg>