<svg width="240" height="176" viewBox="0 0 240 176" fill="none" xmlns="http://www.w3.org/2000/svg">
<path d="M166.994 142.004H77.1348L84.2292 135.156H159.9L166.994 142.004Z" fill="white" stroke="#263238" stroke-width="0.5" stroke-linecap="round" stroke-linejoin="round"/>
<path d="M157.008 137.797C157.008 139.195 140.736 140.346 120.651 140.346C100.565 140.346 84.293 139.204 84.293 137.797C84.293 136.389 100.565 135.242 120.651 135.242C140.736 135.242 157.008 136.384 157.008 137.797Z" fill="#E8DDFF"/>
<path opacity="0.5" d="M157.008 137.797C157.008 139.195 140.736 140.346 120.651 140.346C100.565 140.346 84.293 139.204 84.293 137.797C84.293 136.389 100.565 135.242 120.651 135.242C140.736 135.242 157.008 136.384 157.008 137.797Z" fill="white"/>
<path d="M166.994 142.002H77.1348V148.346H166.994V142.002Z" fill="#263238" stroke="#263238" stroke-width="0.5" stroke-linecap="round" stroke-linejoin="round"/>
<path d="M173.353 155.19H70.7773L77.1353 148.348H166.995L173.353 155.19Z" fill="white" stroke="#263238" stroke-width="0.5" stroke-linecap="round" stroke-linejoin="round"/>
<path d="M173.333 155.189H70.7949V161.864H173.333V155.189Z" fill="#263238" stroke="#263238" stroke-width="0.5" stroke-linecap="round" stroke-linejoin="round"/>
<path d="M121.072 74.3277V31.6634H137.307V13.7129" stroke="#263238" stroke-width="0.5" stroke-miterlimit="10"/>
<path d="M127.416 31.4629V13.7129" stroke="#263238" stroke-width="0.5" stroke-miterlimit="10"/>
<path d="M122.285 81.1257H197.033V70.498H211.32" stroke="#263238" stroke-width="0.5" stroke-miterlimit="10"/>
<path d="M118.62 80.7591H47.5411V69.4043H32.1543" stroke="#263238" stroke-width="0.5" stroke-miterlimit="10"/>
<path d="M106.528 2.35352V18.4768H97.3691V28.7315H108.729V63.1735" stroke="#263238" stroke-width="0.5" stroke-miterlimit="10"/>
<path d="M156.725 49.9795V26.897H162.952V17.0059H168.084" stroke="#263238" stroke-width="0.5" stroke-miterlimit="10"/>
<path d="M81.2492 47.7842V30.1973L76.1172 25.0653V12.2422" stroke="#263238" stroke-width="0.5" stroke-miterlimit="10"/>
<path d="M170.648 58.0448H183.472V49.6173H191.899V44.8535H199.227" stroke="#263238" stroke-width="0.5" stroke-miterlimit="10"/>
<path d="M68.4218 60.9772H54.8669V50.3496H35.8164" stroke="#263238" stroke-width="0.5" stroke-miterlimit="10"/>
<path d="M80.8818 118.494V128.022H74.6543V138.649H56.6992" stroke="#263238" stroke-width="0.5" stroke-miterlimit="10"/>
<path d="M149.398 119.963V129.854H163.685V125.827H167.717V134.25H180.177" stroke="#263238" stroke-width="0.5" stroke-miterlimit="10"/>
<path d="M138.352 13.7109C138.351 13.9172 138.289 14.1186 138.174 14.2897C138.058 14.4608 137.895 14.5939 137.704 14.6722C137.513 14.7505 137.303 14.7705 137.101 14.7297C136.899 14.6889 136.713 14.5891 136.568 14.4429C136.422 14.2967 136.323 14.1106 136.283 13.9082C136.243 13.7058 136.264 13.4961 136.344 13.3056C136.423 13.1151 136.557 12.9523 136.728 12.8378C136.9 12.7232 137.101 12.6621 137.308 12.6621C137.445 12.6621 137.581 12.6893 137.708 12.742C137.835 12.7948 137.951 12.8721 138.048 12.9696C138.145 13.067 138.222 13.1827 138.274 13.3099C138.326 13.4371 138.353 13.5734 138.352 13.7109Z" fill="#263238" stroke="#263238" stroke-width="0.5" stroke-linecap="round" stroke-linejoin="round"/>
<path d="M128.496 13.7109C128.496 13.9172 128.434 14.1186 128.318 14.2897C128.203 14.4608 128.04 14.5939 127.849 14.6722C127.658 14.7505 127.448 14.7705 127.246 14.7297C127.044 14.6889 126.858 14.5891 126.712 14.4429C126.567 14.2967 126.468 14.1106 126.428 13.9082C126.388 13.7058 126.409 13.4961 126.488 13.3056C126.567 13.1151 126.701 12.9523 126.873 12.8378C127.044 12.7232 127.246 12.6621 127.452 12.6621C127.59 12.6621 127.726 12.6893 127.853 12.742C127.98 12.7948 128.095 12.8721 128.192 12.9696C128.289 13.067 128.366 13.1827 128.418 13.3099C128.47 13.4371 128.497 13.5734 128.496 13.7109Z" fill="#263238" stroke="#263238" stroke-width="0.5" stroke-linecap="round" stroke-linejoin="round"/>
<path d="M107.582 2.04879C107.582 2.25642 107.52 2.45937 107.405 2.63194C107.289 2.80452 107.125 2.93894 106.933 3.01818C106.742 3.09742 106.53 3.11791 106.327 3.07707C106.123 3.03622 105.936 2.93587 105.79 2.78873C105.643 2.64159 105.544 2.45428 105.504 2.25053C105.464 2.04678 105.485 1.83576 105.566 1.6442C105.646 1.45264 105.781 1.28917 105.954 1.17449C106.127 1.05981 106.33 0.999088 106.538 1.00001C106.675 1.00001 106.811 1.02717 106.938 1.07993C107.065 1.1327 107.181 1.21002 107.278 1.30747C107.375 1.40492 107.452 1.52057 107.504 1.64779C107.556 1.77501 107.583 1.91128 107.582 2.04879Z" fill="#263238" stroke="#263238" stroke-width="0.5" stroke-linecap="round" stroke-linejoin="round"/>
<path d="M77.1703 11.7128C77.1693 11.9191 77.1073 12.1206 76.992 12.2916C76.8767 12.4627 76.7134 12.5958 76.5225 12.6742C76.3316 12.7525 76.1218 12.7725 75.9196 12.7317C75.7174 12.6909 75.5318 12.591 75.3862 12.4448C75.2407 12.2986 75.1417 12.1126 75.1018 11.9102C75.0618 11.7078 75.0828 11.4981 75.162 11.3075C75.2411 11.117 75.3749 10.9542 75.5465 10.8397C75.7181 10.7252 75.9198 10.6641 76.1261 10.6641C76.2637 10.6641 76.3998 10.6912 76.5268 10.744C76.6538 10.7967 76.7691 10.8741 76.8661 10.9715C76.9631 11.069 77.0399 11.1846 77.0921 11.3118C77.1443 11.4391 77.1709 11.5753 77.1703 11.7128Z" fill="#263238" stroke="#263238" stroke-width="0.5" stroke-linecap="round" stroke-linejoin="round"/>
<path d="M36.8632 50.3488C36.8641 50.5566 36.8033 50.76 36.6884 50.9332C36.5735 51.1064 36.4097 51.2416 36.2179 51.3215C36.0261 51.4015 35.8148 51.4226 35.6109 51.3823C35.4071 51.342 35.2198 51.242 35.0728 51.0951C34.9259 50.9481 34.8259 50.7608 34.7856 50.5569C34.7452 50.3531 34.7664 50.1418 34.8464 49.95C34.9263 49.7581 35.0615 49.5944 35.2346 49.4795C35.4078 49.3646 35.6112 49.3038 35.8191 49.3047C36.096 49.3047 36.3615 49.4147 36.5574 49.6105C36.7532 49.8063 36.8632 50.0719 36.8632 50.3488Z" fill="#263238" stroke="#263238" stroke-width="0.5" stroke-linecap="round" stroke-linejoin="round"/>
<path d="M33.2304 69.373C33.2304 69.5804 33.1689 69.7832 33.0536 69.9557C32.9384 70.1281 32.7746 70.2626 32.5829 70.3419C32.3913 70.4213 32.1804 70.4421 31.977 70.4016C31.7735 70.3612 31.5867 70.2613 31.44 70.1146C31.2933 69.9679 31.1934 69.781 31.153 69.5776C31.1125 69.3742 31.1333 69.1633 31.2126 68.9716C31.292 68.78 31.4265 68.6162 31.5989 68.501C31.7714 68.3857 31.9742 68.3242 32.1816 68.3242C32.4597 68.3242 32.7265 68.4347 32.9232 68.6314C33.1199 68.8281 33.2304 69.0948 33.2304 69.373Z" fill="#263238" stroke="#263238" stroke-width="0.5" stroke-linecap="round" stroke-linejoin="round"/>
<path d="M57.8378 138.451C57.8378 138.659 57.7762 138.862 57.6607 139.034C57.5453 139.207 57.3812 139.341 57.1893 139.421C56.9974 139.5 56.7863 139.52 56.5827 139.479C56.3791 139.439 56.1923 139.338 56.0458 139.191C55.8993 139.044 55.7998 138.857 55.7598 138.653C55.7199 138.449 55.7413 138.238 55.8214 138.047C55.9015 137.855 56.0367 137.692 56.2097 137.577C56.3828 137.462 56.5861 137.401 56.7937 137.402C56.9312 137.402 57.0673 137.43 57.1943 137.482C57.3213 137.535 57.4366 137.612 57.5336 137.71C57.6306 137.807 57.7075 137.923 57.7597 138.05C57.8119 138.177 57.8384 138.314 57.8378 138.451Z" fill="#263238" stroke="#263238" stroke-width="0.5" stroke-linecap="round" stroke-linejoin="round"/>
<path d="M181.752 134.046C181.753 134.254 181.692 134.457 181.577 134.63C181.463 134.803 181.299 134.938 181.108 135.018C180.916 135.098 180.705 135.12 180.501 135.08C180.298 135.04 180.11 134.94 179.963 134.794C179.816 134.648 179.716 134.461 179.675 134.257C179.634 134.054 179.654 133.842 179.734 133.65C179.813 133.459 179.947 133.294 180.12 133.179C180.292 133.064 180.495 133.002 180.703 133.002C180.841 133.001 180.977 133.028 181.104 133.08C181.231 133.132 181.347 133.209 181.444 133.306C181.542 133.403 181.619 133.518 181.672 133.645C181.725 133.772 181.752 133.909 181.752 134.046Z" fill="#263238" stroke="#263238" stroke-width="0.5" stroke-linecap="round" stroke-linejoin="round"/>
<path d="M212.895 70.2941C212.895 70.5006 212.834 70.7025 212.719 70.8742C212.604 71.0459 212.441 71.1797 212.25 71.2588C212.06 71.3378 211.85 71.3585 211.647 71.3182C211.445 71.2779 211.258 71.1785 211.112 71.0324C210.966 70.8864 210.867 70.7004 210.827 70.4978C210.786 70.2953 210.807 70.0853 210.886 69.8946C210.965 69.7038 211.099 69.5407 211.271 69.426C211.442 69.3112 211.644 69.25 211.851 69.25C212.128 69.25 212.393 69.36 212.589 69.5558C212.785 69.7516 212.895 70.0172 212.895 70.2941Z" fill="#263238" stroke="#263238" stroke-width="0.5" stroke-linecap="round" stroke-linejoin="round"/>
<path d="M200.764 44.6281C200.764 44.8346 200.703 45.0365 200.588 45.2082C200.473 45.3799 200.31 45.5137 200.119 45.5927C199.929 45.6718 199.719 45.6925 199.516 45.6522C199.314 45.6119 199.128 45.5124 198.982 45.3664C198.836 45.2204 198.736 45.0343 198.696 44.8318C198.656 44.6293 198.676 44.4193 198.755 44.2285C198.834 44.0378 198.968 43.8747 199.14 43.76C199.312 43.6452 199.513 43.584 199.72 43.584C199.997 43.584 200.262 43.694 200.458 43.8898C200.654 44.0856 200.764 44.3512 200.764 44.6281Z" fill="#263238" stroke="#263238" stroke-width="0.5" stroke-linecap="round" stroke-linejoin="round"/>
<path d="M169.805 16.9797C169.805 17.1862 169.744 17.388 169.629 17.5597C169.514 17.7315 169.351 17.8653 169.16 17.9443C168.97 18.0233 168.76 18.044 168.557 18.0037C168.355 17.9634 168.169 17.864 168.023 17.718C167.877 17.5719 167.777 17.3859 167.737 17.1834C167.697 16.9808 167.717 16.7709 167.796 16.5801C167.875 16.3893 168.009 16.2262 168.181 16.1115C168.353 15.9968 168.554 15.9355 168.761 15.9355C169.038 15.9355 169.303 16.0455 169.499 16.2414C169.695 16.4372 169.805 16.7027 169.805 16.9797Z" fill="#263238" stroke="#263238" stroke-width="0.5" stroke-linecap="round" stroke-linejoin="round"/>
<path d="M134.748 127.732V118.643H107.396V127.732C107.387 130.704 106.361 133.583 104.487 135.889L103.289 137.371H138.845L137.652 135.889C135.778 133.583 134.753 130.703 134.748 127.732Z" fill="white"/>
<mask id="mask0_12192_93179" style="mask-type:luminance" maskUnits="userSpaceOnUse" x="103" y="118" width="36" height="20">
<path d="M134.746 127.73V118.641H107.394V127.73C107.385 130.702 106.359 133.581 104.485 135.887L103.287 137.37H138.843L137.65 135.887C135.776 133.581 134.751 130.701 134.746 127.73Z" fill="white"/>
</mask>
<g mask="url(#mask0_12192_93179)">
<path d="M105.717 134.099H136.425C135.326 132.157 134.748 129.964 134.747 127.732V118.643H107.395V127.732C107.394 129.964 106.816 132.157 105.717 134.099Z" fill="#E8DDFF"/>
<path opacity="0.3" d="M105.717 134.099H136.425C135.326 132.157 134.748 129.964 134.747 127.732V118.643H107.395V127.732C107.394 129.964 106.816 132.157 105.717 134.099Z" fill="white"/>
<path d="M105.717 124.515H136.425C135.326 122.573 134.748 120.38 134.747 118.148V109.059H107.395V118.148C107.394 120.38 106.816 122.573 105.717 124.515Z" fill="#263238"/>
</g>
<path d="M134.748 127.732V118.643H107.396V127.732C107.387 130.704 106.361 133.583 104.487 135.889L103.289 137.371H138.845L137.652 135.889C135.778 133.583 134.753 130.703 134.748 127.732Z" stroke="#263238" stroke-width="0.5" stroke-linecap="round" stroke-linejoin="round"/>
<path d="M172.08 40.7949H70.0641C67.881 40.7949 66.1113 42.5646 66.1113 44.7477V117.552C66.1113 119.735 67.881 121.504 70.0641 121.504H172.08C174.263 121.504 176.033 119.735 176.033 117.552V44.7477C176.033 42.5646 174.263 40.7949 172.08 40.7949Z" fill="#263238" stroke="#263238" stroke-width="0.5" stroke-linecap="round" stroke-linejoin="round"/>
<path d="M66.1113 108.959H176.033V117.55C176.033 118.598 175.616 119.603 174.875 120.345C174.134 121.086 173.128 121.502 172.08 121.502H70.0641C69.0157 121.502 68.0103 121.086 67.2691 120.345C66.5278 119.603 66.1113 118.598 66.1113 117.55V108.959Z" fill="white" stroke="#263238" stroke-width="0.5" stroke-linecap="round" stroke-linejoin="round"/>
<path d="M170.499 45.8164H71.6387V102.837H170.499V45.8164Z" fill="white" stroke="#263238" stroke-width="0.5" stroke-linecap="round" stroke-linejoin="round"/>
<path d="M123.098 117.241C123.106 116.839 122.994 116.443 122.777 116.104C122.559 115.765 122.245 115.498 121.876 115.339C121.506 115.179 121.097 115.132 120.701 115.206C120.305 115.279 119.94 115.469 119.652 115.751C119.364 116.033 119.167 116.394 119.085 116.788C119.003 117.183 119.041 117.593 119.193 117.965C119.345 118.338 119.605 118.658 119.939 118.882C120.274 119.107 120.667 119.227 121.07 119.227C121.602 119.232 122.114 119.026 122.495 118.654C122.875 118.281 123.092 117.773 123.098 117.241Z" fill="#263238" stroke="#263238" stroke-width="0.5" stroke-linecap="round" stroke-linejoin="round"/>
<path d="M138.856 137.383H103.295V139.005H138.856V137.383Z" fill="white" stroke="#263238" stroke-width="0.5" stroke-linecap="round" stroke-linejoin="round"/>
<path d="M121.222 42.8594C116.253 47.5206 103.509 52.1819 88.6816 62.1057C88.6816 62.1057 89.6139 95.6666 121.222 113.99V42.8594Z" fill="#E8DDFF" stroke="#263238" stroke-width="0.5" stroke-linecap="round" stroke-linejoin="round"/>
<path d="M121.221 42.8594C126.194 47.5206 138.933 52.1819 153.766 62.1057C153.766 62.1057 152.833 95.6666 121.221 113.99V42.8594Z" fill="#263238" stroke="#263238" stroke-width="0.5" stroke-linecap="round" stroke-linejoin="round"/>
<path d="M121.22 45.7168C115.207 49.884 104.817 53.8507 91.0664 63.052C91.0664 63.052 91.9287 94.1425 121.22 111.137C150.516 94.1425 151.378 63.052 151.378 63.052C137.628 53.8507 127.27 49.884 121.22 45.7168Z" fill="#263238" stroke="#263238" stroke-width="0.5" stroke-linecap="round" stroke-linejoin="round"/>
<path d="M151.379 63.052C137.628 53.8553 127.271 49.884 121.221 45.7168V111.137C150.517 94.1425 151.379 63.052 151.379 63.052Z" fill="#E8DDFF" stroke="#263238" stroke-width="0.5" stroke-linecap="round" stroke-linejoin="round"/>
<path d="M176.374 79.5078H65.7715V86.6675H176.374V79.5078Z" fill="#263238" stroke="#263238" stroke-width="0.5" stroke-linecap="round" stroke-linejoin="round"/>
<path d="M67.947 80.6471C67.9498 80.7943 67.9087 80.9389 67.8289 81.0626C67.7492 81.1863 67.6344 81.2835 67.4993 81.3417C67.3641 81.4 67.2147 81.4167 67.07 81.3897C66.9253 81.3627 66.792 81.2932 66.6869 81.1902C66.5819 81.0871 66.5099 80.9551 66.4801 80.8109C66.4504 80.6668 66.4642 80.5171 66.5199 80.3808C66.5756 80.2446 66.6705 80.128 66.7927 80.0459C66.9148 79.9639 67.0587 79.92 67.2059 79.92C67.3023 79.9188 67.3981 79.9366 67.4877 79.9725C67.5773 80.0085 67.6588 80.0618 67.7277 80.1294C67.7966 80.197 67.8514 80.2775 67.8891 80.3663C67.9267 80.4552 67.9464 80.5506 67.947 80.6471Z" fill="white"/>
<path d="M66.7812 81.046C66.8624 81.1313 66.9671 81.1905 67.0821 81.2159C67.197 81.2414 67.3169 81.232 67.4265 81.189C67.5361 81.1459 67.6304 81.0712 67.6972 80.9743C67.7641 80.8775 67.8006 80.7629 67.8021 80.6451C67.8005 80.5052 67.7474 80.3708 67.6529 80.2676C67.345 80.5069 67.0537 80.767 66.7812 81.046Z" fill="#263238"/>
<path d="M70.8547 80.6471C70.8584 80.7954 70.8178 80.9414 70.7381 81.0664C70.6585 81.1915 70.5433 81.29 70.4074 81.3493C70.2715 81.4086 70.121 81.4261 69.9751 81.3995C69.8292 81.3728 69.6946 81.3033 69.5884 81.1998C69.4823 81.0963 69.4094 80.9634 69.379 80.8183C69.3487 80.6731 69.3624 80.5222 69.4182 80.3849C69.4741 80.2475 69.5696 80.1299 69.6926 80.0471C69.8157 79.9643 69.9606 79.92 70.1089 79.92C70.2056 79.9187 70.3016 79.9366 70.3914 79.9725C70.4812 80.0083 70.5631 80.0616 70.6324 80.1291C70.7016 80.1966 70.7569 80.2771 70.795 80.366C70.8332 80.4549 70.8534 80.5504 70.8547 80.6471Z" fill="white"/>
<path d="M69.6875 81.046C69.7686 81.1313 69.8734 81.1905 69.9883 81.2159C70.1033 81.2414 70.2232 81.232 70.3328 81.189C70.4423 81.1459 70.5366 81.0712 70.6035 80.9743C70.6704 80.8775 70.7069 80.7629 70.7083 80.6451C70.7067 80.5052 70.6536 80.3708 70.5592 80.2676C70.2522 80.5081 69.9611 80.7681 69.6875 81.046Z" fill="#263238"/>
<path d="M73.7604 80.6478C73.7456 80.8348 73.6608 81.0094 73.523 81.1367C73.3852 81.264 73.2045 81.3347 73.0169 81.3347C72.8293 81.3347 72.6486 81.264 72.5108 81.1367C72.373 81.0094 72.2883 80.8348 72.2734 80.6478C72.2883 80.4608 72.373 80.2862 72.5108 80.1589C72.6486 80.0316 72.8293 79.9609 73.0169 79.9609C73.2045 79.9609 73.3852 80.0316 73.523 80.1589C73.6608 80.2862 73.7456 80.4608 73.7604 80.6478Z" fill="white"/>
<path d="M72.5898 81.046C72.6455 81.1035 72.7121 81.1493 72.7858 81.1805C72.8595 81.2117 72.9387 81.2278 73.0187 81.2278C73.0958 81.2284 73.1723 81.2138 73.2438 81.1849C73.3153 81.1559 73.3804 81.1132 73.4353 81.0591C73.4903 81.005 73.5341 80.9406 73.5642 80.8695C73.5943 80.7985 73.61 80.7223 73.6107 80.6451C73.6109 80.5049 73.5575 80.3698 73.4615 80.2676C73.1546 80.5081 72.8634 80.7681 72.5898 81.046Z" fill="#263238"/>
<path d="M76.6638 80.6471C76.6666 80.7943 76.6255 80.9389 76.5457 81.0626C76.466 81.1863 76.3513 81.2835 76.2161 81.3417C76.0809 81.4 75.9315 81.4167 75.7868 81.3897C75.6421 81.3627 75.5088 81.2932 75.4037 81.1902C75.2987 81.0871 75.2267 80.9551 75.1969 80.8109C75.1672 80.6668 75.181 80.5171 75.2367 80.3808C75.2924 80.2446 75.3873 80.128 75.5095 80.0459C75.6316 79.9639 75.7755 79.92 75.9226 79.92C76.0191 79.9188 76.1149 79.9366 76.2045 79.9725C76.2941 80.0085 76.3756 80.0618 76.4445 80.1294C76.5134 80.197 76.5682 80.2775 76.6059 80.3663C76.6435 80.4552 76.6632 80.5506 76.6638 80.6471Z" fill="white"/>
<path d="M75.4941 81.046C75.5759 81.1306 75.6809 81.1892 75.7959 81.2143C75.9109 81.2394 76.0307 81.2299 76.1404 81.187C76.25 81.1442 76.3445 81.0699 76.412 80.9735C76.4794 80.877 76.5169 80.7628 76.5196 80.6451C76.518 80.5052 76.4649 80.3708 76.3705 80.2676C76.0611 80.5069 75.7683 80.767 75.4941 81.046Z" fill="#263238"/>
<path d="M79.5681 80.6471C79.5709 80.7943 79.5298 80.9389 79.45 81.0626C79.3703 81.1863 79.2556 81.2835 79.1204 81.3417C78.9852 81.4 78.8358 81.4167 78.6911 81.3897C78.5464 81.3627 78.4131 81.2932 78.308 81.1902C78.203 81.0871 78.131 80.9551 78.1012 80.8109C78.0715 80.6668 78.0853 80.5171 78.141 80.3808C78.1966 80.2446 78.2916 80.128 78.4138 80.0459C78.5359 79.9639 78.6798 79.92 78.8269 79.92C78.9234 79.9188 79.0192 79.9366 79.1088 79.9725C79.1983 80.0085 79.2799 80.0618 79.3488 80.1294C79.4177 80.197 79.4725 80.2775 79.5102 80.3663C79.5478 80.4552 79.5675 80.5506 79.5681 80.6471Z" fill="white"/>
<path d="M78.3848 81.046C78.4406 81.1033 78.5072 81.1489 78.5809 81.1801C78.6545 81.2113 78.7336 81.2275 78.8136 81.2278C78.8911 81.229 78.9681 81.2149 79.0401 81.1862C79.1122 81.1576 79.1778 81.1149 79.2333 81.0607C79.2888 81.0066 79.3329 80.942 79.3633 80.8706C79.3937 80.7993 79.4096 80.7227 79.4102 80.6451C79.4087 80.5052 79.3556 80.3708 79.2611 80.2676C78.9527 80.5081 78.66 80.7681 78.3848 81.046Z" fill="#263238"/>
<path d="M82.4724 80.6471C82.4752 80.7943 82.4341 80.9389 82.3543 81.0626C82.2746 81.1863 82.1598 81.2835 82.0247 81.3417C81.8895 81.4 81.7401 81.4167 81.5954 81.3897C81.4507 81.3627 81.3174 81.2932 81.2123 81.1902C81.1073 81.0871 81.0353 80.9551 81.0055 80.8109C80.9758 80.6668 80.9896 80.5171 81.0453 80.3808C81.1009 80.2446 81.1959 80.128 81.3181 80.0459C81.4402 79.9639 81.5841 79.92 81.7312 79.92C81.8277 79.9188 81.9235 79.9366 82.0131 79.9725C82.1026 80.0085 82.1842 80.0618 82.2531 80.1294C82.322 80.197 82.3768 80.2775 82.4144 80.3663C82.4521 80.4552 82.4718 80.5506 82.4724 80.6471Z" fill="white"/>
<path d="M81.3066 81.046C81.3878 81.1313 81.4925 81.1905 81.6075 81.2159C81.7224 81.2414 81.8423 81.232 81.9519 81.189C82.0615 81.1459 82.1557 81.0712 82.2226 80.9743C82.2895 80.8775 82.326 80.7629 82.3275 80.6451C82.3259 80.5052 82.2728 80.3708 82.1783 80.2676C81.8704 80.5069 81.5791 80.767 81.3066 81.046Z" fill="#263238"/>
<path d="M85.3761 80.6471C85.3798 80.7954 85.3393 80.9414 85.2596 81.0664C85.1799 81.1915 85.0648 81.29 84.9289 81.3493C84.793 81.4086 84.6425 81.4261 84.4966 81.3995C84.3507 81.3728 84.2161 81.3033 84.1099 81.1998C84.0037 81.0963 83.9308 80.9634 83.9005 80.8183C83.8702 80.6731 83.8838 80.5222 83.9397 80.3849C83.9956 80.2475 84.0911 80.1299 84.2141 80.0471C84.3371 79.9643 84.482 79.92 84.6303 79.92C84.727 79.9187 84.8231 79.9366 84.9129 79.9725C85.0027 80.0083 85.0846 80.0616 85.1538 80.1291C85.2231 80.1966 85.2784 80.2771 85.3165 80.366C85.3547 80.4549 85.3749 80.5504 85.3761 80.6471Z" fill="white"/>
<path d="M84.2109 81.046C84.2921 81.1313 84.3968 81.1905 84.5118 81.2159C84.6267 81.2414 84.7466 81.232 84.8562 81.189C84.9658 81.1459 85.06 81.0712 85.1269 80.9743C85.1938 80.8775 85.2303 80.7629 85.2318 80.6451C85.2302 80.5052 85.1771 80.3708 85.0826 80.2676C84.7756 80.5081 84.4845 80.7681 84.2109 81.046Z" fill="#263238"/>
<path d="M88.2849 80.6471C88.2877 80.7943 88.2466 80.9389 88.1668 81.0626C88.0871 81.1863 87.9723 81.2835 87.8372 81.3417C87.702 81.4 87.5526 81.4167 87.4079 81.3897C87.2632 81.3627 87.1299 81.2932 87.0248 81.1902C86.9198 81.0871 86.8478 80.9551 86.818 80.8109C86.7883 80.6668 86.8021 80.5171 86.8578 80.3808C86.9134 80.2446 87.0084 80.128 87.1306 80.0459C87.2527 79.9639 87.3966 79.92 87.5437 79.92C87.6402 79.9188 87.736 79.9366 87.8256 79.9725C87.9151 80.0085 87.9967 80.0618 88.0656 80.1294C88.1345 80.197 88.1893 80.2775 88.2269 80.3663C88.2646 80.4552 88.2843 80.5506 88.2849 80.6471Z" fill="white"/>
<path d="M87.1133 81.046C87.1689 81.1035 87.2356 81.1493 87.3092 81.1805C87.3829 81.2117 87.4621 81.2278 87.5421 81.2278C87.6192 81.2284 87.6957 81.2138 87.7672 81.1849C87.8387 81.1559 87.9038 81.1132 87.9588 81.0591C88.0138 81.005 88.0575 80.9406 88.0876 80.8695C88.1177 80.7985 88.1335 80.7223 88.1341 80.6451C88.1343 80.5049 88.081 80.3698 87.9849 80.2676C87.678 80.5081 87.3868 80.7681 87.1133 81.046Z" fill="#263238"/>
<path d="M91.1892 80.6471C91.192 80.7943 91.1509 80.9389 91.0711 81.0626C90.9914 81.1863 90.8766 81.2835 90.7415 81.3417C90.6063 81.4 90.4569 81.4167 90.3122 81.3897C90.1675 81.3627 90.0342 81.2932 89.9291 81.1902C89.8241 81.0871 89.7521 80.9551 89.7223 80.8109C89.6926 80.6668 89.7064 80.5171 89.7621 80.3808C89.8177 80.2446 89.9127 80.128 90.0349 80.0459C90.157 79.9639 90.3009 79.92 90.448 79.92C90.5445 79.9188 90.6403 79.9366 90.7299 79.9725C90.8194 80.0085 90.901 80.0618 90.9699 80.1294C91.0388 80.197 91.0936 80.2775 91.1313 80.3663C91.1689 80.4552 91.1886 80.5506 91.1892 80.6471Z" fill="white"/>
<path d="M90.0352 81.046C90.117 81.1306 90.2219 81.1892 90.3369 81.2143C90.4519 81.2394 90.5718 81.2299 90.6814 81.187C90.791 81.1442 90.8855 81.0699 90.953 80.9735C91.0205 80.877 91.0579 80.7628 91.0606 80.6451C91.0591 80.5052 91.006 80.3708 90.9115 80.2676C90.6031 80.5081 90.3104 80.7681 90.0352 81.046Z" fill="#263238"/>
<path d="M94.0915 80.6471C94.0943 80.7943 94.0532 80.9389 93.9735 81.0626C93.8937 81.1863 93.779 81.2835 93.6438 81.3417C93.5087 81.4 93.3592 81.4167 93.2146 81.3897C93.0699 81.3627 92.9365 81.2932 92.8315 81.1902C92.7264 81.0871 92.6544 80.9551 92.6247 80.8109C92.5949 80.6668 92.6088 80.5171 92.6644 80.3808C92.7201 80.2446 92.815 80.128 92.9372 80.0459C93.0594 79.9639 93.2032 79.92 93.3504 79.92C93.4469 79.9188 93.5427 79.9366 93.6322 79.9725C93.7218 80.0085 93.8034 80.0618 93.8722 80.1294C93.9411 80.197 93.996 80.2775 94.0336 80.3663C94.0712 80.4552 94.0909 80.5506 94.0915 80.6471Z" fill="white"/>
<path d="M92.9219 81.046C92.9777 81.1033 93.0443 81.1489 93.118 81.1801C93.1916 81.2113 93.2707 81.2275 93.3507 81.2278C93.4282 81.229 93.5052 81.2149 93.5772 81.1862C93.6493 81.1576 93.7149 81.1149 93.7704 81.0607C93.8259 81.0066 93.87 80.942 93.9004 80.8706C93.9308 80.7993 93.9467 80.7227 93.9473 80.6451C93.9458 80.5052 93.8927 80.3708 93.7982 80.2676C93.4898 80.5081 93.1971 80.7681 92.9219 81.046Z" fill="#263238"/>
<path d="M96.9978 80.6471C97.0005 80.7943 96.9594 80.9389 96.8797 81.0626C96.8 81.1863 96.6852 81.2835 96.5501 81.3417C96.4149 81.4 96.2655 81.4167 96.1208 81.3897C95.9761 81.3627 95.8428 81.2932 95.7377 81.1902C95.6327 81.0871 95.5607 80.9551 95.5309 80.8109C95.5012 80.6668 95.515 80.5171 95.5707 80.3808C95.6263 80.2446 95.7213 80.128 95.8435 80.0459C95.9656 79.9639 96.1095 79.92 96.2566 79.92C96.3531 79.9188 96.4489 79.9366 96.5385 79.9725C96.628 80.0085 96.7096 80.0618 96.7785 80.1294C96.8474 80.197 96.9022 80.2775 96.9398 80.3663C96.9775 80.4552 96.9972 80.5506 96.9978 80.6471Z" fill="white"/>
<path d="M95.8301 81.046C95.9112 81.1313 96.016 81.1905 96.1309 81.2159C96.2458 81.2414 96.3658 81.232 96.4753 81.189C96.5849 81.1459 96.6792 81.0712 96.7461 80.9743C96.813 80.8775 96.8495 80.7629 96.8509 80.6451C96.8493 80.5052 96.7962 80.3708 96.7017 80.2676C96.3948 80.5081 96.1036 80.7681 95.8301 81.046Z" fill="#263238"/>
<path d="M99.9035 80.6471C99.9072 80.7956 99.8665 80.9418 99.7866 81.0669C99.7068 81.1921 99.5913 81.2906 99.4552 81.3498C99.319 81.409 99.1682 81.4261 99.0222 81.3991C98.8762 81.3721 98.7416 81.3021 98.6356 81.1981C98.5296 81.0941 98.4571 80.9609 98.4273 80.8154C98.3975 80.6699 98.4118 80.5189 98.4684 80.3816C98.5249 80.2443 98.6212 80.127 98.7448 80.0448C98.8685 79.9626 99.0139 79.9191 99.1623 79.92C99.2588 79.9188 99.3546 79.9366 99.4442 79.9725C99.5337 80.0085 99.6153 80.0618 99.6842 80.1294C99.7531 80.197 99.8079 80.2775 99.8455 80.3663C99.8832 80.4552 99.9029 80.5506 99.9035 80.6471Z" fill="white"/>
<path d="M98.7363 81.046C98.8175 81.1313 98.9222 81.1905 99.0371 81.2159C99.1521 81.2414 99.272 81.232 99.3816 81.189C99.4912 81.1459 99.5854 81.0712 99.6523 80.9743C99.7192 80.8775 99.7557 80.7629 99.7571 80.6451C99.7574 80.5049 99.704 80.3698 99.608 80.2676C99.301 80.5081 99.0099 80.7681 98.7363 81.046Z" fill="#263238"/>
<path d="M102.808 80.6471C102.811 80.7943 102.77 80.9389 102.69 81.0626C102.611 81.1863 102.496 81.2835 102.361 81.3417C102.225 81.4 102.076 81.4167 101.931 81.3897C101.787 81.3627 101.653 81.2932 101.548 81.1902C101.443 81.0871 101.371 80.9551 101.341 80.8109C101.312 80.6668 101.326 80.5171 101.381 80.3808C101.437 80.2446 101.532 80.128 101.654 80.0459C101.776 79.9639 101.92 79.92 102.067 79.92C102.164 79.9188 102.259 79.9366 102.349 79.9725C102.439 80.0085 102.52 80.0618 102.589 80.1294C102.658 80.197 102.713 80.2775 102.75 80.3663C102.788 80.4552 102.808 80.5506 102.808 80.6471Z" fill="white"/>
<path d="M101.639 81.046C101.72 81.1306 101.825 81.1892 101.94 81.2143C102.055 81.2394 102.175 81.2299 102.285 81.187C102.395 81.1442 102.489 81.0699 102.556 80.9735C102.624 80.877 102.661 80.7628 102.664 80.6451C102.663 80.5052 102.609 80.3708 102.515 80.2676C102.206 80.5069 101.913 80.767 101.639 81.046Z" fill="#263238"/>
<path d="M105.715 80.6471C105.717 80.7943 105.676 80.9389 105.597 81.0626C105.517 81.1863 105.402 81.2835 105.267 81.3417C105.132 81.4 104.982 81.4167 104.838 81.3897C104.693 81.3627 104.56 81.2932 104.455 81.1902C104.349 81.0871 104.277 80.9551 104.248 80.8109C104.218 80.6668 104.232 80.5171 104.287 80.3808C104.343 80.2446 104.438 80.128 104.56 80.0459C104.682 79.9639 104.826 79.92 104.973 79.92C105.07 79.9188 105.166 79.9366 105.255 79.9725C105.345 80.0085 105.426 80.0618 105.495 80.1294C105.564 80.197 105.619 80.2775 105.657 80.3663C105.694 80.4552 105.714 80.5506 105.715 80.6471Z" fill="white"/>
<path d="M104.543 81.046C104.599 81.1033 104.665 81.1489 104.739 81.1801C104.813 81.2113 104.892 81.2275 104.972 81.2278C105.049 81.229 105.126 81.2149 105.198 81.1862C105.27 81.1576 105.336 81.1149 105.391 81.0607C105.447 81.0066 105.491 80.942 105.522 80.8706C105.552 80.7993 105.568 80.7227 105.568 80.6451C105.567 80.5052 105.514 80.3708 105.419 80.2676C105.111 80.5081 104.818 80.7681 104.543 81.046Z" fill="#263238"/>
<path d="M67.9469 85.2675C67.9506 85.4148 67.9103 85.5599 67.8311 85.6842C67.752 85.8085 67.6376 85.9064 67.5025 85.9653C67.3675 86.0243 67.2179 86.0417 67.0729 86.0152C66.928 85.9888 66.7942 85.9197 66.6886 85.8168C66.5831 85.7139 66.5107 85.582 66.4805 85.4377C66.4504 85.2934 66.4639 85.1435 66.5194 85.007C66.5749 84.8705 66.6699 84.7536 66.7921 84.6713C66.9144 84.589 67.0584 84.545 67.2058 84.545C67.3019 84.5437 67.3973 84.5615 67.4865 84.5971C67.5758 84.6327 67.6571 84.6856 67.726 84.7527C67.7948 84.8198 67.8497 84.8998 67.8876 84.9881C67.9255 85.0764 67.9457 85.1714 67.9469 85.2675Z" fill="white"/>
<path d="M66.7812 85.6691C66.8358 85.7266 66.9016 85.7725 66.9746 85.8037C67.0475 85.835 67.1261 85.851 67.2054 85.8508C67.2832 85.8515 67.3603 85.8368 67.4323 85.8076C67.5044 85.7784 67.57 85.7353 67.6254 85.6808C67.6808 85.6262 67.7249 85.5613 67.7552 85.4897C67.7855 85.4181 67.8015 85.3413 67.8021 85.2635C67.7994 85.1252 67.7463 84.9926 67.6529 84.8906C67.345 85.1299 67.0537 85.39 66.7812 85.6691Z" fill="#263238"/>
<path d="M70.8545 85.2675C70.8592 85.4159 70.8194 85.5623 70.7403 85.688C70.6612 85.8136 70.5464 85.9129 70.4106 85.9729C70.2748 86.0329 70.1242 86.0511 69.978 86.025C69.8319 85.9989 69.6968 85.9298 69.5902 85.8264C69.4835 85.7231 69.4101 85.5903 69.3794 85.4451C69.3487 85.2998 69.362 85.1487 69.4177 85.011C69.4734 84.8734 69.569 84.7555 69.6921 84.6725C69.8152 84.5894 69.9602 84.5451 70.1087 84.545C70.3033 84.5425 70.4909 84.6171 70.6306 84.7524C70.7703 84.8878 70.8508 85.073 70.8545 85.2675Z" fill="white"/>
<path d="M69.6875 85.6691C69.7421 85.7266 69.8079 85.7725 69.8808 85.8037C69.9538 85.835 70.0323 85.851 70.1117 85.8508C70.1894 85.8515 70.2665 85.8368 70.3386 85.8076C70.4106 85.7784 70.4762 85.7353 70.5316 85.6808C70.587 85.6262 70.6312 85.5613 70.6615 85.4897C70.6918 85.4181 70.7077 85.3413 70.7083 85.2635C70.7056 85.1252 70.6526 84.9926 70.5592 84.8906C70.2522 85.1311 69.9611 85.3912 69.6875 85.6691Z" fill="#263238"/>
<path d="M73.7608 85.2675C73.7654 85.4161 73.7255 85.5627 73.6462 85.6885C73.567 85.8142 73.4519 85.9135 73.3158 85.9734C73.1797 86.0333 73.0289 86.0511 72.8826 86.0247C72.7362 85.9982 72.6012 85.9286 72.4947 85.8248C72.3883 85.721 72.3153 85.5878 72.2851 85.4422C72.2549 85.2966 72.2689 85.1453 72.3253 85.0078C72.3817 84.8702 72.478 84.7526 72.6017 84.6702C72.7254 84.5877 72.871 84.5441 73.0196 84.545C73.1157 84.5437 73.2111 84.5615 73.3004 84.5971C73.3897 84.6327 73.471 84.6856 73.5398 84.7527C73.6087 84.8198 73.6636 84.8998 73.7015 84.9881C73.7394 85.0764 73.7596 85.1714 73.7608 85.2675Z" fill="white"/>
<path d="M72.5898 85.6691C72.6713 85.7546 72.7764 85.8139 72.8918 85.8392C73.0072 85.8645 73.1275 85.8547 73.2372 85.8111C73.347 85.7675 73.4412 85.6921 73.5078 85.5945C73.5743 85.4969 73.6101 85.3816 73.6107 85.2635C73.6102 85.1248 73.5568 84.9914 73.4615 84.8906C73.1546 85.1311 72.8634 85.3912 72.5898 85.6691Z" fill="#263238"/>
<path d="M76.6637 85.2675C76.6674 85.4148 76.6271 85.5599 76.5479 85.6842C76.4688 85.8085 76.3544 85.9064 76.2193 85.9653C76.0843 86.0243 75.9347 86.0417 75.7897 86.0152C75.6448 85.9888 75.511 85.9197 75.4054 85.8168C75.2999 85.7139 75.2274 85.582 75.1973 85.4377C75.1672 85.2934 75.1807 85.1435 75.2362 85.007C75.2917 84.8705 75.3867 84.7536 75.5089 84.6713C75.6312 84.589 75.7752 84.545 75.9225 84.545C76.0187 84.5437 76.1141 84.5615 76.2033 84.5971C76.2926 84.6327 76.3739 84.6856 76.4428 84.7527C76.5116 84.8198 76.5665 84.8998 76.6044 84.9881C76.6423 85.0764 76.6625 85.1714 76.6637 85.2675Z" fill="white"/>
<path d="M75.4941 85.6691C75.5762 85.7539 75.6816 85.8125 75.797 85.8375C75.9124 85.8624 76.0327 85.8526 76.1425 85.8091C76.2523 85.7657 76.3467 85.6907 76.4138 85.5936C76.481 85.4964 76.5178 85.3816 76.5196 85.2635C76.5169 85.1252 76.4639 84.9926 76.3705 84.8906C76.0611 85.13 75.7683 85.39 75.4941 85.6691Z" fill="#263238"/>
<path d="M79.568 85.2675C79.5717 85.4148 79.5314 85.5599 79.4522 85.6842C79.3731 85.8085 79.2587 85.9064 79.1236 85.9653C78.9886 86.0243 78.839 86.0417 78.694 86.0152C78.549 85.9888 78.4153 85.9197 78.3097 85.8168C78.2042 85.7139 78.1317 85.582 78.1016 85.4377C78.0715 85.2934 78.085 85.1435 78.1405 85.007C78.196 84.8705 78.291 84.7536 78.4132 84.6713C78.5355 84.589 78.6795 84.545 78.8268 84.545C78.9229 84.5437 79.0184 84.5615 79.1076 84.5971C79.1969 84.6327 79.2782 84.6856 79.3471 84.7527C79.4159 84.8198 79.4708 84.8998 79.5087 84.9881C79.5466 85.0764 79.5668 85.1714 79.568 85.2675Z" fill="white"/>
<path d="M78.3848 85.6691C78.4406 85.7264 78.5072 85.7719 78.5809 85.8032C78.6545 85.8344 78.7336 85.8506 78.8136 85.8508C78.8913 85.8515 78.9684 85.8368 79.0405 85.8076C79.1126 85.7784 79.1782 85.7353 79.2336 85.6808C79.289 85.6262 79.3331 85.5613 79.3634 85.4897C79.3937 85.4181 79.4096 85.3413 79.4102 85.2635C79.4075 85.1252 79.3545 84.9926 79.2611 84.8906C78.9527 85.1312 78.66 85.3912 78.3848 85.6691Z" fill="#263238"/>
<path d="M82.4723 85.2675C82.476 85.4148 82.4357 85.5599 82.3565 85.6842C82.2774 85.8085 82.163 85.9064 82.0279 85.9653C81.8929 86.0243 81.7433 86.0417 81.5983 86.0152C81.4533 85.9888 81.3196 85.9197 81.214 85.8168C81.1085 85.7139 81.036 85.582 81.0059 85.4377C80.9758 85.2934 80.9893 85.1435 81.0448 85.007C81.1003 84.8705 81.1953 84.7536 81.3175 84.6713C81.4398 84.589 81.5838 84.545 81.7311 84.545C81.8272 84.5437 81.9226 84.5615 82.0119 84.5971C82.1012 84.6327 82.1825 84.6856 82.2514 84.7527C82.3202 84.8198 82.3751 84.8998 82.413 84.9881C82.4509 85.0764 82.4711 85.1714 82.4723 85.2675Z" fill="white"/>
<path d="M81.3066 85.6691C81.3612 85.7266 81.427 85.7725 81.5 85.8037C81.5729 85.835 81.6515 85.851 81.7308 85.8508C81.8085 85.8515 81.8857 85.8368 81.9577 85.8076C82.0298 85.7784 82.0954 85.7353 82.1508 85.6808C82.2062 85.6262 82.2503 85.5613 82.2806 85.4897C82.3109 85.4181 82.3268 85.3413 82.3275 85.2635C82.3247 85.1252 82.2717 84.9926 82.1783 84.8906C81.8704 85.1299 81.5791 85.39 81.3066 85.6691Z" fill="#263238"/>
<path d="M85.376 85.2675C85.3806 85.4159 85.3409 85.5623 85.2618 85.688C85.1827 85.8136 85.0679 85.9129 84.9321 85.9729C84.7963 86.0329 84.6457 86.0511 84.4995 86.025C84.3533 85.9989 84.2183 85.9298 84.1116 85.8264C84.005 85.7231 83.9316 85.5903 83.9009 85.4451C83.8702 85.2998 83.8835 85.1487 83.9392 85.011C83.9949 84.8734 84.0904 84.7555 84.2135 84.6725C84.3366 84.5894 84.4817 84.5451 84.6302 84.545C84.8247 84.5425 85.0124 84.6171 85.1521 84.7524C85.2918 84.8878 85.3723 85.073 85.376 85.2675Z" fill="white"/>
<path d="M84.2109 85.6691C84.2655 85.7266 84.3313 85.7725 84.4043 85.8037C84.4772 85.835 84.5558 85.851 84.6351 85.8508C84.7129 85.8515 84.79 85.8368 84.862 85.8076C84.9341 85.7784 84.9997 85.7353 85.0551 85.6808C85.1105 85.6262 85.1546 85.5613 85.1849 85.4897C85.2152 85.4181 85.2311 85.3413 85.2318 85.2635C85.229 85.1252 85.176 84.9926 85.0826 84.8906C84.7756 85.1311 84.4845 85.3912 84.2109 85.6691Z" fill="#263238"/>
<path d="M88.2848 85.2675C88.2885 85.4148 88.2482 85.5599 88.169 85.6842C88.0899 85.8085 87.9755 85.9064 87.8404 85.9653C87.7054 86.0243 87.5558 86.0417 87.4108 86.0152C87.2658 85.9888 87.1321 85.9197 87.0265 85.8168C86.921 85.7139 86.8485 85.582 86.8184 85.4377C86.7883 85.2934 86.8018 85.1435 86.8573 85.007C86.9128 84.8705 87.0078 84.7536 87.13 84.6713C87.2523 84.589 87.3963 84.545 87.5436 84.545C87.6397 84.5437 87.7351 84.5615 87.8244 84.5971C87.9137 84.6327 87.995 84.6856 88.0639 84.7527C88.1327 84.8198 88.1876 84.8998 88.2255 84.9881C88.2634 85.0764 88.2836 85.1714 88.2848 85.2675Z" fill="white"/>
<path d="M87.1133 85.6691C87.1947 85.7546 87.2999 85.8139 87.4152 85.8392C87.5306 85.8645 87.6509 85.8547 87.7607 85.8111C87.8705 85.7675 87.9647 85.6921 88.0312 85.5945C88.0978 85.4969 88.1336 85.3816 88.1341 85.2635C88.1336 85.1248 88.0803 84.9914 87.9849 84.8906C87.678 85.1311 87.3868 85.3912 87.1133 85.6691Z" fill="#263238"/>
<path d="M91.1891 85.2675C91.1928 85.4148 91.1525 85.5599 91.0733 85.6842C90.9942 85.8085 90.8798 85.9064 90.7447 85.9653C90.6097 86.0243 90.4601 86.0417 90.3151 86.0152C90.1701 85.9888 90.0363 85.9197 89.9308 85.8168C89.8253 85.7139 89.7528 85.582 89.7227 85.4377C89.6926 85.2934 89.7061 85.1435 89.7616 85.007C89.8171 84.8705 89.9121 84.7536 90.0343 84.6713C90.1566 84.589 90.3006 84.545 90.4479 84.545C90.544 84.5437 90.6395 84.5615 90.7287 84.5971C90.818 84.6327 90.8993 84.6856 90.9682 84.7527C91.037 84.8198 91.0919 84.8998 91.1298 84.9881C91.1677 85.0764 91.1879 85.1714 91.1891 85.2675Z" fill="white"/>
<path d="M90.0352 85.6691C90.1172 85.7539 90.2226 85.8125 90.3381 85.8375C90.4535 85.8624 90.5737 85.8526 90.6835 85.8091C90.7933 85.7657 90.8877 85.6907 90.9549 85.5936C91.022 85.4964 91.0588 85.3816 91.0606 85.2635C91.0579 85.1252 91.0049 84.9926 90.9115 84.8906C90.6031 85.1312 90.3104 85.3912 90.0352 85.6691Z" fill="#263238"/>
<path d="M94.0914 85.2675C94.0951 85.4148 94.0548 85.5599 93.9757 85.6842C93.8965 85.8085 93.7821 85.9064 93.6471 85.9653C93.512 86.0243 93.3624 86.0417 93.2175 86.0152C93.0725 85.9888 92.9387 85.9197 92.8332 85.8168C92.7276 85.7139 92.6552 85.582 92.625 85.4377C92.5949 85.2934 92.6084 85.1435 92.664 85.007C92.7195 84.8705 92.8144 84.7536 92.9367 84.6713C93.0589 84.589 93.2029 84.545 93.3503 84.545C93.4464 84.5437 93.5418 84.5615 93.6311 84.5971C93.7203 84.6327 93.8017 84.6856 93.8705 84.7527C93.9393 84.8198 93.9943 84.8998 94.0322 84.9881C94.0701 85.0764 94.0902 85.1714 94.0914 85.2675Z" fill="white"/>
<path d="M92.9219 85.6691C92.9777 85.7264 93.0443 85.7719 93.118 85.8032C93.1916 85.8344 93.2707 85.8506 93.3507 85.8508C93.4284 85.8515 93.5055 85.8368 93.5776 85.8076C93.6497 85.7784 93.7153 85.7353 93.7707 85.6808C93.8261 85.6262 93.8702 85.5613 93.9005 85.4897C93.9308 85.4181 93.9467 85.3413 93.9473 85.2635C93.9446 85.1252 93.8916 84.9926 93.7982 84.8906C93.4898 85.1312 93.1971 85.3912 92.9219 85.6691Z" fill="#263238"/>
<path d="M96.9977 85.2675C97.0014 85.4148 96.9611 85.5599 96.8819 85.6842C96.8028 85.8085 96.6884 85.9064 96.5533 85.9653C96.4183 86.0243 96.2687 86.0417 96.1237 86.0152C95.9787 85.9888 95.8449 85.9197 95.7394 85.8168C95.6339 85.7139 95.5614 85.582 95.5313 85.4377C95.5012 85.2934 95.5147 85.1435 95.5702 85.007C95.6257 84.8705 95.7206 84.7536 95.8429 84.6713C95.9651 84.589 96.1092 84.545 96.2565 84.545C96.3526 84.5437 96.448 84.5615 96.5373 84.5971C96.6266 84.6327 96.7079 84.6856 96.7767 84.7527C96.8456 84.8198 96.9005 84.8998 96.9384 84.9881C96.9763 85.0764 96.9964 85.1714 96.9977 85.2675Z" fill="white"/>
<path d="M95.8301 85.6691C95.8847 85.7266 95.9505 85.7725 96.0234 85.8037C96.0963 85.835 96.1749 85.851 96.2543 85.8508C96.332 85.8515 96.4091 85.8368 96.4812 85.8076C96.5532 85.7784 96.6188 85.7353 96.6742 85.6808C96.7296 85.6262 96.7737 85.5613 96.8041 85.4897C96.8344 85.4181 96.8503 85.3413 96.8509 85.2635C96.8482 85.1252 96.7952 84.9926 96.7017 84.8906C96.3948 85.1311 96.1036 85.3912 95.8301 85.6691Z" fill="#263238"/>
<path d="M99.9033 85.2675C99.908 85.4161 99.8681 85.5627 99.7888 85.6885C99.7095 85.8142 99.5945 85.9135 99.4584 85.9734C99.3223 86.0333 99.1714 86.0511 99.0251 86.0247C98.8788 85.9982 98.7438 85.9286 98.6373 85.8248C98.5308 85.721 98.4578 85.5878 98.4276 85.4422C98.3975 85.2966 98.4115 85.1453 98.4679 85.0078C98.5243 84.8702 98.6206 84.7526 98.7443 84.6702C98.868 84.5877 99.0135 84.5441 99.1622 84.545C99.2583 84.5437 99.3537 84.5615 99.443 84.5971C99.5322 84.6327 99.6136 84.6856 99.6824 84.7527C99.7512 84.8198 99.8062 84.8998 99.8441 84.9881C99.882 85.0764 99.9021 85.1714 99.9033 85.2675Z" fill="white"/>
<path d="M98.7363 85.6691C98.8178 85.7546 98.9229 85.8139 99.0383 85.8392C99.1536 85.8645 99.274 85.8547 99.3837 85.8111C99.4935 85.7675 99.5877 85.6921 99.6543 85.5945C99.7208 85.4969 99.7566 85.3816 99.7571 85.2635C99.7567 85.1248 99.7033 84.9914 99.608 84.8906C99.301 85.1311 99.0099 85.3912 98.7363 85.6691Z" fill="#263238"/>
<path d="M102.808 85.2675C102.812 85.4148 102.772 85.5599 102.692 85.6842C102.613 85.8085 102.499 85.9064 102.364 85.9653C102.229 86.0243 102.079 86.0417 101.934 86.0152C101.789 85.9888 101.655 85.9197 101.55 85.8168C101.444 85.7139 101.372 85.582 101.342 85.4377C101.312 85.2934 101.325 85.1435 101.381 85.007C101.436 84.8705 101.531 84.7536 101.653 84.6713C101.776 84.589 101.92 84.545 102.067 84.545C102.163 84.5437 102.259 84.5615 102.348 84.5971C102.437 84.6327 102.518 84.6856 102.587 84.7527C102.656 84.8198 102.711 84.8998 102.749 84.9881C102.787 85.0764 102.807 85.1714 102.808 85.2675Z" fill="white"/>
<path d="M101.639 85.6691C101.721 85.7539 101.826 85.8125 101.942 85.8375C102.057 85.8624 102.177 85.8526 102.287 85.8091C102.397 85.7657 102.491 85.6907 102.558 85.5936C102.626 85.4964 102.662 85.3816 102.664 85.2635C102.661 85.1252 102.608 84.9926 102.515 84.8906C102.206 85.13 101.913 85.39 101.639 85.6691Z" fill="#263238"/>
<path d="M105.714 85.2675C105.718 85.4148 105.678 85.5599 105.599 85.6842C105.52 85.8085 105.405 85.9064 105.27 85.9653C105.135 86.0243 104.985 86.0417 104.841 86.0152C104.696 85.9888 104.562 85.9197 104.456 85.8168C104.351 85.7139 104.278 85.582 104.248 85.4377C104.218 85.2934 104.231 85.1435 104.287 85.007C104.343 84.8705 104.437 84.7536 104.56 84.6713C104.682 84.589 104.826 84.545 104.973 84.545C105.069 84.5437 105.165 84.5615 105.254 84.5971C105.343 84.6327 105.425 84.6856 105.494 84.7527C105.562 84.8198 105.617 84.8998 105.655 84.9881C105.693 85.0764 105.713 85.1714 105.714 85.2675Z" fill="white"/>
<path d="M104.543 85.6691C104.599 85.7264 104.665 85.7719 104.739 85.8032C104.813 85.8344 104.892 85.8506 104.972 85.8508C105.05 85.8515 105.127 85.8368 105.199 85.8076C105.271 85.7784 105.336 85.7353 105.392 85.6808C105.447 85.6262 105.491 85.5613 105.522 85.4897C105.552 85.4181 105.568 85.3413 105.568 85.2635C105.566 85.1252 105.513 84.9926 105.419 84.8906C105.111 85.1312 104.818 85.3912 104.543 85.6691Z" fill="#263238"/>
<path d="M137.9 80.6471C137.903 80.7943 137.862 80.9389 137.782 81.0626C137.702 81.1863 137.588 81.2835 137.452 81.3417C137.317 81.4 137.168 81.4167 137.023 81.3897C136.878 81.3627 136.745 81.2932 136.64 81.1902C136.535 81.0871 136.463 80.9551 136.433 80.8109C136.404 80.6668 136.417 80.5171 136.473 80.3808C136.529 80.2446 136.624 80.128 136.746 80.0459C136.868 79.9639 137.012 79.92 137.159 79.92C137.255 79.9188 137.351 79.9366 137.441 79.9725C137.53 80.0085 137.612 80.0618 137.681 80.1294C137.75 80.197 137.805 80.2775 137.842 80.3663C137.88 80.4552 137.9 80.5506 137.9 80.6471Z" fill="white"/>
<path d="M136.732 81.046C136.814 81.1313 136.918 81.1905 137.033 81.2159C137.148 81.2414 137.268 81.232 137.378 81.189C137.487 81.1459 137.582 81.0712 137.648 80.9743C137.715 80.8775 137.752 80.7629 137.753 80.6451C137.752 80.5052 137.699 80.3708 137.604 80.2676C137.297 80.5081 137.006 80.7681 136.732 81.046Z" fill="#263238"/>
<path d="M140.808 80.6471C140.811 80.7956 140.771 80.9418 140.691 81.0669C140.611 81.1921 140.496 81.2906 140.359 81.3498C140.223 81.409 140.073 81.4261 139.927 81.3991C139.781 81.3721 139.646 81.3021 139.54 81.1981C139.434 81.0941 139.361 80.9609 139.332 80.8154C139.302 80.6699 139.316 80.5189 139.373 80.3816C139.429 80.2443 139.526 80.127 139.649 80.0448C139.773 79.9626 139.918 79.9191 140.067 79.92C140.163 79.9188 140.259 79.9366 140.348 79.9725C140.438 80.0085 140.52 80.0618 140.588 80.1294C140.657 80.197 140.712 80.2775 140.75 80.3663C140.787 80.4552 140.807 80.5506 140.808 80.6471Z" fill="white"/>
<path d="M139.639 81.046C139.72 81.1313 139.825 81.1905 139.939 81.2159C140.054 81.2414 140.174 81.232 140.284 81.189C140.394 81.1459 140.488 81.0712 140.555 80.9743C140.622 80.8775 140.658 80.7629 140.659 80.6451C140.66 80.5049 140.606 80.3698 140.51 80.2676C140.203 80.5081 139.912 80.7681 139.639 81.046Z" fill="#263238"/>
<path d="M143.711 80.6471C143.713 80.7943 143.672 80.9389 143.593 81.0626C143.513 81.1863 143.398 81.2835 143.263 81.3417C143.128 81.4 142.978 81.4167 142.834 81.3897C142.689 81.3627 142.556 81.2932 142.451 81.1902C142.346 81.0871 142.274 80.9551 142.244 80.8109C142.214 80.6668 142.228 80.5171 142.284 80.3808C142.339 80.2446 142.434 80.128 142.556 80.0459C142.679 79.9639 142.822 79.92 142.97 79.92C143.066 79.9188 143.162 79.9366 143.251 79.9725C143.341 80.0085 143.422 80.0618 143.491 80.1294C143.56 80.197 143.615 80.2775 143.653 80.3663C143.69 80.4552 143.71 80.5506 143.711 80.6471Z" fill="white"/>
<path d="M142.541 81.046C142.623 81.1306 142.728 81.1892 142.843 81.2143C142.958 81.2394 143.078 81.2299 143.187 81.187C143.297 81.1442 143.391 81.0699 143.459 80.9735C143.526 80.877 143.564 80.7628 143.566 80.6451C143.565 80.5052 143.512 80.3708 143.417 80.2676C143.108 80.5069 142.815 80.767 142.541 81.046Z" fill="#263238"/>
<path d="M146.617 80.6471C146.62 80.7943 146.579 80.9389 146.499 81.0626C146.419 81.1863 146.304 81.2835 146.169 81.3417C146.034 81.4 145.885 81.4167 145.74 81.3897C145.595 81.3627 145.462 81.2932 145.357 81.1902C145.252 81.0871 145.18 80.9551 145.15 80.8109C145.12 80.6668 145.134 80.5171 145.19 80.3808C145.245 80.2446 145.34 80.128 145.463 80.0459C145.585 79.9639 145.729 79.92 145.876 79.92C145.972 79.9188 146.068 79.9366 146.158 79.9725C146.247 80.0085 146.329 80.0618 146.398 80.1294C146.467 80.197 146.521 80.2775 146.559 80.3663C146.597 80.4552 146.616 80.5506 146.617 80.6471Z" fill="white"/>
<path d="M145.445 81.046C145.501 81.1033 145.568 81.1489 145.641 81.1801C145.715 81.2113 145.794 81.2275 145.874 81.2278C145.952 81.229 146.029 81.2149 146.101 81.1862C146.173 81.1576 146.238 81.1149 146.294 81.0607C146.349 81.0066 146.393 80.942 146.424 80.8706C146.454 80.7993 146.47 80.7227 146.471 80.6451C146.469 80.5052 146.416 80.3708 146.322 80.2676C146.013 80.5081 145.721 80.7681 145.445 81.046Z" fill="#263238"/>
<path d="M149.519 80.6471C149.522 80.7943 149.481 80.9389 149.401 81.0626C149.321 81.1863 149.207 81.2835 149.072 81.3417C148.936 81.4 148.787 81.4167 148.642 81.3897C148.498 81.3627 148.364 81.2932 148.259 81.1902C148.154 81.0871 148.082 80.9551 148.052 80.8109C148.023 80.6668 148.036 80.5171 148.092 80.3808C148.148 80.2446 148.243 80.128 148.365 80.0459C148.487 79.9639 148.631 79.92 148.778 79.92C148.875 79.9188 148.97 79.9366 149.06 79.9725C149.15 80.0085 149.231 80.0618 149.3 80.1294C149.369 80.197 149.424 80.2775 149.461 80.3663C149.499 80.4552 149.519 80.5506 149.519 80.6471Z" fill="white"/>
<path d="M148.354 81.046C148.435 81.1313 148.539 81.1905 148.654 81.2159C148.769 81.2414 148.889 81.232 148.999 81.189C149.108 81.1459 149.203 81.0712 149.27 80.9743C149.336 80.8775 149.373 80.7629 149.374 80.6451C149.373 80.5052 149.32 80.3708 149.225 80.2676C148.917 80.5069 148.626 80.767 148.354 81.046Z" fill="#263238"/>
<path d="M152.429 80.6471C152.433 80.7954 152.392 80.9414 152.312 81.0664C152.233 81.1915 152.118 81.29 151.982 81.3493C151.846 81.4086 151.695 81.4261 151.549 81.3995C151.403 81.3728 151.269 81.3033 151.163 81.1998C151.056 81.0963 150.984 80.9634 150.953 80.8183C150.923 80.6731 150.937 80.5222 150.992 80.3849C151.048 80.2475 151.144 80.1299 151.267 80.0471C151.39 79.9643 151.535 79.92 151.683 79.92C151.78 79.9187 151.876 79.9366 151.966 79.9725C152.055 80.0083 152.137 80.0616 152.207 80.1291C152.276 80.1966 152.331 80.2771 152.369 80.366C152.407 80.4549 152.428 80.5504 152.429 80.6471Z" fill="white"/>
<path d="M151.258 81.046C151.339 81.1313 151.444 81.1905 151.559 81.2159C151.674 81.2414 151.793 81.232 151.903 81.189C152.013 81.1459 152.107 81.0712 152.174 80.9743C152.241 80.8775 152.277 80.7629 152.279 80.6451C152.277 80.5052 152.224 80.3708 152.129 80.2676C151.823 80.5081 151.531 80.7681 151.258 81.046Z" fill="#263238"/>
<path d="M155.331 80.6471C155.335 80.7956 155.294 80.9418 155.214 81.0669C155.134 81.1921 155.019 81.2906 154.883 81.3498C154.747 81.409 154.596 81.4261 154.45 81.3991C154.304 81.3721 154.169 81.3021 154.063 81.1981C153.957 81.0941 153.885 80.9609 153.855 80.8154C153.825 80.6699 153.84 80.5189 153.896 80.3816C153.953 80.2443 154.049 80.127 154.173 80.0448C154.296 79.9626 154.442 79.9191 154.59 79.92C154.687 79.9188 154.782 79.9366 154.872 79.9725C154.961 80.0085 155.043 80.0618 155.112 80.1294C155.181 80.197 155.236 80.2775 155.273 80.3663C155.311 80.4552 155.331 80.5506 155.331 80.6471Z" fill="white"/>
<path d="M154.162 81.046C154.243 81.1313 154.348 81.1905 154.463 81.2159C154.578 81.2414 154.698 81.232 154.807 81.189C154.917 81.1459 155.011 81.0712 155.078 80.9743C155.145 80.8775 155.181 80.7629 155.183 80.6451C155.183 80.5049 155.13 80.3698 155.034 80.2676C154.727 80.5081 154.436 80.7681 154.162 81.046Z" fill="#263238"/>
<path d="M158.236 80.6471C158.239 80.7943 158.198 80.9389 158.118 81.0626C158.038 81.1863 157.924 81.2835 157.788 81.3417C157.653 81.4 157.504 81.4167 157.359 81.3897C157.214 81.3627 157.081 81.2932 156.976 81.1902C156.871 81.0871 156.799 80.9551 156.769 80.8109C156.739 80.6668 156.753 80.5171 156.809 80.3808C156.865 80.2446 156.96 80.128 157.082 80.0459C157.204 79.9639 157.348 79.92 157.495 79.92C157.591 79.9188 157.687 79.9366 157.777 79.9725C157.866 80.0085 157.948 80.0618 158.017 80.1294C158.086 80.197 158.14 80.2775 158.178 80.3663C158.216 80.4552 158.235 80.5506 158.236 80.6471Z" fill="white"/>
<path d="M157.064 81.046C157.146 81.1306 157.251 81.1892 157.366 81.2143C157.481 81.2394 157.601 81.2299 157.711 81.187C157.82 81.1442 157.915 81.0699 157.982 80.9735C158.05 80.877 158.087 80.7628 158.09 80.6451C158.088 80.5052 158.035 80.3708 157.941 80.2676C157.631 80.5069 157.339 80.767 157.064 81.046Z" fill="#263238"/>
<path d="M161.14 80.6471C161.143 80.7943 161.102 80.9389 161.022 81.0626C160.943 81.1863 160.828 81.2835 160.693 81.3417C160.557 81.4 160.408 81.4167 160.263 81.3897C160.119 81.3627 159.985 81.2932 159.88 81.1902C159.775 81.0871 159.703 80.9551 159.673 80.8109C159.644 80.6668 159.658 80.5171 159.713 80.3808C159.769 80.2446 159.864 80.128 159.986 80.0459C160.108 79.9639 160.252 79.92 160.399 79.92C160.496 79.9188 160.591 79.9366 160.681 79.9725C160.771 80.0085 160.852 80.0618 160.921 80.1294C160.99 80.197 161.045 80.2775 161.082 80.3663C161.12 80.4552 161.14 80.5506 161.14 80.6471Z" fill="white"/>
<path d="M159.955 81.046C160.011 81.1033 160.078 81.1489 160.151 81.1801C160.225 81.2113 160.304 81.2275 160.384 81.2278C160.461 81.229 160.538 81.2149 160.61 81.1862C160.682 81.1576 160.748 81.1149 160.804 81.0607C160.859 81.0066 160.903 80.942 160.934 80.8706C160.964 80.7993 160.98 80.7227 160.981 80.6451C160.979 80.5052 160.926 80.3708 160.831 80.2676C160.523 80.5081 160.23 80.7681 159.955 81.046Z" fill="#263238"/>
<path d="M164.043 80.6471C164.045 80.7943 164.004 80.9389 163.925 81.0626C163.845 81.1863 163.73 81.2835 163.595 81.3417C163.46 81.4 163.31 81.4167 163.166 81.3897C163.021 81.3627 162.888 81.2932 162.783 81.1902C162.678 81.0871 162.606 80.9551 162.576 80.8109C162.546 80.6668 162.56 80.5171 162.616 80.3808C162.671 80.2446 162.766 80.128 162.888 80.0459C163.011 79.9639 163.154 79.92 163.302 79.92C163.398 79.9188 163.494 79.9366 163.583 79.9725C163.673 80.0085 163.755 80.0618 163.823 80.1294C163.892 80.197 163.947 80.2775 163.985 80.3663C164.022 80.4552 164.042 80.5506 164.043 80.6471Z" fill="white"/>
<path d="M162.877 81.046C162.958 81.1313 163.063 81.1905 163.178 81.2159C163.293 81.2414 163.413 81.232 163.522 81.189C163.632 81.1459 163.726 81.0712 163.793 80.9743C163.86 80.8775 163.896 80.7629 163.898 80.6451C163.896 80.5052 163.843 80.3708 163.749 80.2676C163.441 80.5069 163.149 80.767 162.877 81.046Z" fill="#263238"/>
<path d="M166.946 80.6471C166.95 80.7954 166.91 80.9414 166.83 81.0664C166.75 81.1915 166.635 81.29 166.499 81.3493C166.363 81.4086 166.213 81.4261 166.067 81.3995C165.921 81.3728 165.786 81.3033 165.68 81.1998C165.574 81.0963 165.501 80.9634 165.471 80.8183C165.441 80.6731 165.454 80.5222 165.51 80.3849C165.566 80.2475 165.661 80.1299 165.784 80.0471C165.907 79.9643 166.052 79.92 166.201 79.92C166.297 79.9187 166.393 79.9366 166.483 79.9725C166.573 80.0083 166.655 80.0616 166.724 80.1291C166.793 80.1966 166.849 80.2771 166.887 80.366C166.925 80.4549 166.945 80.5504 166.946 80.6471Z" fill="white"/>
<path d="M165.781 81.046C165.862 81.1313 165.967 81.1905 166.082 81.2159C166.197 81.2414 166.317 81.232 166.427 81.189C166.536 81.1459 166.63 81.0712 166.697 80.9743C166.764 80.8775 166.801 80.7629 166.802 80.6451C166.8 80.5052 166.747 80.3708 166.653 80.2676C166.346 80.5081 166.055 80.7681 165.781 81.046Z" fill="#263238"/>
<path d="M169.857 80.6471C169.86 80.7943 169.819 80.9389 169.739 81.0626C169.659 81.1863 169.545 81.2835 169.409 81.3417C169.274 81.4 169.125 81.4167 168.98 81.3897C168.836 81.3627 168.702 81.2932 168.597 81.1902C168.492 81.0871 168.42 80.9551 168.39 80.8109C168.361 80.6668 168.374 80.5171 168.43 80.3808C168.486 80.2446 168.581 80.128 168.703 80.0459C168.825 79.9639 168.969 79.92 169.116 79.92C169.212 79.9188 169.308 79.9366 169.398 79.9725C169.487 80.0085 169.569 80.0618 169.638 80.1294C169.707 80.197 169.762 80.2775 169.799 80.3663C169.837 80.4552 169.857 80.5506 169.857 80.6471Z" fill="white"/>
<path d="M168.688 81.046C168.743 81.1035 168.81 81.1493 168.883 81.1805C168.957 81.2117 169.036 81.2278 169.116 81.2278C169.193 81.2284 169.27 81.2138 169.341 81.1849C169.413 81.1559 169.478 81.1132 169.533 81.0591C169.588 81.005 169.632 80.9406 169.662 80.8695C169.692 80.7985 169.708 80.7223 169.708 80.6451C169.709 80.5049 169.655 80.3698 169.559 80.2676C169.252 80.5081 168.961 80.7681 168.688 81.046Z" fill="#263238"/>
<path d="M172.759 80.6471C172.762 80.7943 172.721 80.9389 172.641 81.0626C172.562 81.1863 172.447 81.2835 172.312 81.3417C172.177 81.4 172.027 81.4167 171.883 81.3897C171.738 81.3627 171.604 81.2932 171.499 81.1902C171.394 81.0871 171.322 80.9551 171.293 80.8109C171.263 80.6668 171.277 80.5171 171.332 80.3808C171.388 80.2446 171.483 80.128 171.605 80.0459C171.727 79.9639 171.871 79.92 172.018 79.92C172.115 79.9188 172.211 79.9366 172.3 79.9725C172.39 80.0085 172.471 80.0618 172.54 80.1294C172.609 80.197 172.664 80.2775 172.702 80.3663C172.739 80.4552 172.759 80.5506 172.759 80.6471Z" fill="white"/>
<path d="M171.609 81.046C171.691 81.1306 171.796 81.1892 171.911 81.2143C172.026 81.2394 172.146 81.2299 172.256 81.187C172.365 81.1442 172.46 81.0699 172.527 80.9735C172.595 80.877 172.632 80.7628 172.635 80.6451C172.633 80.5052 172.58 80.3708 172.486 80.2676C172.177 80.5081 171.885 80.7681 171.609 81.046Z" fill="#263238"/>
<path d="M175.666 80.6471C175.669 80.7943 175.627 80.9389 175.548 81.0626C175.468 81.1863 175.353 81.2835 175.218 81.3417C175.083 81.4 174.933 81.4167 174.789 81.3897C174.644 81.3627 174.511 81.2932 174.406 81.1902C174.301 81.0871 174.229 80.9551 174.199 80.8109C174.169 80.6668 174.183 80.5171 174.239 80.3808C174.294 80.2446 174.389 80.128 174.511 80.0459C174.634 79.9639 174.777 79.92 174.925 79.92C175.021 79.9188 175.117 79.9366 175.206 79.9725C175.296 80.0085 175.378 80.0618 175.446 80.1294C175.515 80.197 175.57 80.2775 175.608 80.3663C175.645 80.4552 175.665 80.5506 175.666 80.6471Z" fill="white"/>
<path d="M174.494 81.046C174.55 81.1033 174.617 81.1489 174.69 81.1801C174.764 81.2113 174.843 81.2275 174.923 81.2278C175 81.229 175.077 81.2149 175.15 81.1862C175.222 81.1576 175.287 81.1149 175.343 81.0607C175.398 81.0066 175.442 80.942 175.473 80.8706C175.503 80.7993 175.519 80.7227 175.52 80.6451C175.518 80.5052 175.465 80.3708 175.37 80.2676C175.062 80.5081 174.769 80.7681 174.494 81.046Z" fill="#263238"/>
<path d="M137.9 85.2675C137.904 85.4148 137.863 85.5599 137.784 85.6842C137.705 85.8085 137.591 85.9064 137.456 85.9653C137.321 86.0243 137.171 86.0417 137.026 86.0152C136.881 85.9888 136.747 85.9197 136.642 85.8168C136.536 85.7139 136.464 85.582 136.434 85.4377C136.403 85.2934 136.417 85.1435 136.473 85.007C136.528 84.8705 136.623 84.7536 136.745 84.6713C136.868 84.589 137.012 84.545 137.159 84.545C137.255 84.5437 137.35 84.5615 137.44 84.5971C137.529 84.6327 137.61 84.6856 137.679 84.7527C137.748 84.8198 137.803 84.8998 137.841 84.9881C137.879 85.0764 137.899 85.1714 137.9 85.2675Z" fill="white"/>
<path d="M136.732 85.6691C136.787 85.7266 136.853 85.7725 136.926 85.8037C136.999 85.835 137.077 85.851 137.157 85.8508C137.234 85.8515 137.311 85.8368 137.384 85.8076C137.456 85.7784 137.521 85.7353 137.577 85.6808C137.632 85.6262 137.676 85.5613 137.706 85.4897C137.737 85.4181 137.753 85.3413 137.753 85.2635C137.751 85.1252 137.697 84.9926 137.604 84.8906C137.297 85.1311 137.006 85.3912 136.732 85.6691Z" fill="#263238"/>
<path d="M140.808 85.2675C140.812 85.4161 140.772 85.5627 140.693 85.6885C140.614 85.8142 140.499 85.9135 140.363 85.9734C140.227 86.0333 140.076 86.0511 139.929 86.0247C139.783 85.9982 139.648 85.9286 139.542 85.8248C139.435 85.721 139.362 85.5878 139.332 85.4422C139.302 85.2966 139.316 85.1453 139.372 85.0078C139.429 84.8702 139.525 84.7526 139.649 84.6702C139.772 84.5877 139.918 84.5441 140.066 84.545C140.163 84.5437 140.258 84.5615 140.347 84.5971C140.437 84.6327 140.518 84.6856 140.587 84.7527C140.656 84.8198 140.71 84.8998 140.748 84.9881C140.786 85.0764 140.806 85.1714 140.808 85.2675Z" fill="white"/>
<path d="M139.639 85.6691C139.72 85.7546 139.825 85.8139 139.941 85.8392C140.056 85.8645 140.176 85.8547 140.286 85.8111C140.396 85.7675 140.49 85.6921 140.557 85.5945C140.623 85.4969 140.659 85.3816 140.659 85.2635C140.659 85.1248 140.606 84.9914 140.51 84.8906C140.203 85.1311 139.912 85.3912 139.639 85.6691Z" fill="#263238"/>
<path d="M143.711 85.2675C143.714 85.4148 143.674 85.5599 143.595 85.6842C143.516 85.8085 143.401 85.9064 143.266 85.9653C143.131 86.0243 142.982 86.0417 142.837 86.0152C142.692 85.9888 142.558 85.9197 142.452 85.8168C142.347 85.7139 142.274 85.582 142.244 85.4377C142.214 85.2934 142.228 85.1435 142.283 85.007C142.339 84.8705 142.434 84.7536 142.556 84.6713C142.678 84.589 142.822 84.545 142.969 84.545C143.066 84.5437 143.161 84.5615 143.25 84.5971C143.339 84.6327 143.421 84.6856 143.49 84.7527C143.558 84.8198 143.613 84.8998 143.651 84.9881C143.689 85.0764 143.709 85.1714 143.711 85.2675Z" fill="white"/>
<path d="M142.541 85.6691C142.623 85.7539 142.729 85.8125 142.844 85.8375C142.959 85.8624 143.08 85.8526 143.189 85.8091C143.299 85.7657 143.394 85.6907 143.461 85.5936C143.528 85.4964 143.565 85.3816 143.566 85.2635C143.564 85.1252 143.511 84.9926 143.417 84.8906C143.108 85.13 142.815 85.39 142.541 85.6691Z" fill="#263238"/>
<path d="M146.617 85.2675C146.621 85.4148 146.58 85.5599 146.501 85.6842C146.422 85.8085 146.308 85.9064 146.172 85.9653C146.037 86.0243 145.888 86.0417 145.743 86.0152C145.598 85.9888 145.464 85.9197 145.359 85.8168C145.253 85.7139 145.181 85.582 145.15 85.4377C145.12 85.2934 145.134 85.1435 145.189 85.007C145.245 84.8705 145.34 84.7536 145.462 84.6713C145.584 84.589 145.728 84.545 145.876 84.545C145.972 84.5437 146.067 84.5615 146.156 84.5971C146.246 84.6327 146.327 84.6856 146.396 84.7527C146.465 84.8198 146.52 84.8998 146.558 84.9881C146.595 85.0764 146.616 85.1714 146.617 85.2675Z" fill="white"/>
<path d="M145.445 85.6691C145.501 85.7264 145.568 85.7719 145.641 85.8032C145.715 85.8344 145.794 85.8506 145.874 85.8508C145.952 85.8515 146.029 85.8368 146.101 85.8076C146.173 85.7784 146.239 85.7353 146.294 85.6808C146.35 85.6262 146.394 85.5613 146.424 85.4897C146.454 85.4181 146.47 85.3413 146.471 85.2635C146.468 85.1252 146.415 84.9926 146.322 84.8906C146.013 85.1312 145.721 85.3912 145.445 85.6691Z" fill="#263238"/>
<path d="M149.519 85.2675C149.523 85.4148 149.483 85.5599 149.403 85.6842C149.324 85.8085 149.21 85.9064 149.075 85.9653C148.94 86.0243 148.79 86.0417 148.645 86.0152C148.5 85.9888 148.366 85.9197 148.261 85.8168C148.155 85.7139 148.083 85.582 148.053 85.4377C148.023 85.2934 148.036 85.1435 148.092 85.007C148.147 84.8705 148.242 84.7536 148.364 84.6713C148.487 84.589 148.631 84.545 148.778 84.545C148.874 84.5437 148.97 84.5615 149.059 84.5971C149.148 84.6327 149.229 84.6856 149.298 84.7527C149.367 84.8198 149.422 84.8998 149.46 84.9881C149.498 85.0764 149.518 85.1714 149.519 85.2675Z" fill="white"/>
<path d="M148.354 85.6691C148.408 85.7266 148.474 85.7725 148.547 85.8037C148.62 85.835 148.698 85.851 148.778 85.8508C148.855 85.8515 148.933 85.8368 149.005 85.8076C149.077 85.7784 149.142 85.7353 149.198 85.6808C149.253 85.6262 149.297 85.5613 149.328 85.4897C149.358 85.4181 149.374 85.3413 149.374 85.2635C149.372 85.1252 149.319 84.9926 149.225 84.8906C148.917 85.1299 148.626 85.39 148.354 85.6691Z" fill="#263238"/>
<path d="M152.429 85.2675C152.433 85.4159 152.394 85.5623 152.315 85.688C152.235 85.8136 152.121 85.9129 151.985 85.9729C151.849 86.0329 151.698 86.0511 151.552 86.025C151.406 85.9989 151.271 85.9298 151.164 85.8264C151.058 85.7231 150.984 85.5903 150.954 85.4451C150.923 85.2998 150.936 85.1487 150.992 85.011C151.048 84.8734 151.143 84.7555 151.266 84.6725C151.389 84.5894 151.534 84.5451 151.683 84.545C151.877 84.5425 152.065 84.6171 152.205 84.7524C152.345 84.8878 152.425 85.073 152.429 85.2675Z" fill="white"/>
<path d="M151.258 85.6691C151.312 85.7266 151.378 85.7725 151.451 85.8037C151.524 85.835 151.603 85.851 151.682 85.8508C151.76 85.8515 151.837 85.8368 151.909 85.8076C151.981 85.7784 152.047 85.7353 152.102 85.6808C152.157 85.6262 152.201 85.5613 152.232 85.4897C152.262 85.4181 152.278 85.3413 152.279 85.2635C152.276 85.1252 152.223 84.9926 152.129 84.8906C151.823 85.1311 151.531 85.3912 151.258 85.6691Z" fill="#263238"/>
<path d="M155.331 85.2675C155.336 85.4161 155.296 85.5627 155.217 85.6885C155.137 85.8142 155.022 85.9135 154.886 85.9734C154.75 86.0333 154.599 86.0511 154.453 86.0247C154.307 85.9982 154.172 85.9286 154.065 85.8248C153.959 85.721 153.886 85.5878 153.855 85.4422C153.825 85.2966 153.839 85.1453 153.896 85.0078C153.952 84.8702 154.048 84.7526 154.172 84.6702C154.296 84.5877 154.441 84.5441 154.59 84.545C154.686 84.5437 154.781 84.5615 154.871 84.5971C154.96 84.6327 155.041 84.6856 155.11 84.7527C155.179 84.8198 155.234 84.8998 155.272 84.9881C155.31 85.0764 155.33 85.1714 155.331 85.2675Z" fill="white"/>
<path d="M154.162 85.6691C154.244 85.7546 154.349 85.8139 154.464 85.8392C154.579 85.8645 154.7 85.8547 154.81 85.8111C154.919 85.7675 155.013 85.6921 155.08 85.5945C155.147 85.4969 155.182 85.3816 155.183 85.2635C155.182 85.1248 155.129 84.9914 155.034 84.8906C154.727 85.1311 154.436 85.3912 154.162 85.6691Z" fill="#263238"/>
<path d="M158.236 85.2675C158.24 85.4148 158.199 85.5599 158.12 85.6842C158.041 85.8085 157.927 85.9064 157.792 85.9653C157.657 86.0243 157.507 86.0417 157.362 86.0152C157.217 85.9888 157.083 85.9197 156.978 85.8168C156.872 85.7139 156.8 85.582 156.77 85.4377C156.739 85.2934 156.753 85.1435 156.808 85.007C156.864 84.8705 156.959 84.7536 157.081 84.6713C157.203 84.589 157.347 84.545 157.495 84.545C157.591 84.5437 157.686 84.5615 157.776 84.5971C157.865 84.6327 157.946 84.6856 158.015 84.7527C158.084 84.8198 158.139 84.8998 158.177 84.9881C158.215 85.0764 158.235 85.1714 158.236 85.2675Z" fill="white"/>
<path d="M157.064 85.6691C157.147 85.7539 157.252 85.8125 157.367 85.8375C157.483 85.8624 157.603 85.8526 157.713 85.8091C157.823 85.7657 157.917 85.6907 157.984 85.5936C158.051 85.4964 158.088 85.3816 158.09 85.2635C158.087 85.1252 158.034 84.9926 157.941 84.8906C157.631 85.13 157.339 85.39 157.064 85.6691Z" fill="#263238"/>
<path d="M161.14 85.2675C161.144 85.4148 161.104 85.5599 161.025 85.6842C160.945 85.8085 160.831 85.9064 160.696 85.9653C160.561 86.0243 160.411 86.0417 160.266 86.0152C160.121 85.9888 159.988 85.9197 159.882 85.8168C159.776 85.7139 159.704 85.582 159.674 85.4377C159.644 85.2934 159.657 85.1435 159.713 85.007C159.768 84.8705 159.863 84.7536 159.985 84.6713C160.108 84.589 160.252 84.545 160.399 84.545C160.495 84.5437 160.591 84.5615 160.68 84.5971C160.769 84.6327 160.851 84.6856 160.919 84.7527C160.988 84.8198 161.043 84.8998 161.081 84.9881C161.119 85.0764 161.139 85.1714 161.14 85.2675Z" fill="white"/>
<path d="M159.955 85.6691C160.011 85.7264 160.078 85.7719 160.151 85.8032C160.225 85.8344 160.304 85.8506 160.384 85.8508C160.462 85.8515 160.539 85.8368 160.611 85.8076C160.683 85.7784 160.748 85.7353 160.804 85.6808C160.859 85.6262 160.903 85.5613 160.934 85.4897C160.964 85.4181 160.98 85.3413 160.981 85.2635C160.978 85.1252 160.925 84.9926 160.831 84.8906C160.523 85.1312 160.23 85.3912 159.955 85.6691Z" fill="#263238"/>
<path d="M164.043 85.2675C164.046 85.4148 164.006 85.5599 163.927 85.6842C163.848 85.8085 163.733 85.9064 163.598 85.9653C163.463 86.0243 163.314 86.0417 163.169 86.0152C163.024 85.9888 162.89 85.9197 162.784 85.8168C162.679 85.7139 162.606 85.582 162.576 85.4377C162.546 85.2934 162.56 85.1435 162.615 85.007C162.671 84.8705 162.766 84.7536 162.888 84.6713C163.01 84.589 163.154 84.545 163.301 84.545C163.398 84.5437 163.493 84.5615 163.582 84.5971C163.671 84.6327 163.753 84.6856 163.822 84.7527C163.89 84.8198 163.945 84.8998 163.983 84.9881C164.021 85.0764 164.041 85.1714 164.043 85.2675Z" fill="white"/>
<path d="M162.877 85.6691C162.932 85.7266 162.997 85.7725 163.07 85.8037C163.143 85.835 163.222 85.851 163.301 85.8508C163.379 85.8515 163.456 85.8368 163.528 85.8076C163.6 85.7784 163.666 85.7353 163.721 85.6808C163.776 85.6262 163.821 85.5613 163.851 85.4897C163.881 85.4181 163.897 85.3413 163.898 85.2635C163.895 85.1252 163.842 84.9926 163.749 84.8906C163.441 85.1299 163.149 85.39 162.877 85.6691Z" fill="#263238"/>
<path d="M166.946 85.2675C166.951 85.4159 166.911 85.5623 166.832 85.688C166.753 85.8136 166.638 85.9129 166.502 85.9729C166.367 86.0329 166.216 86.0511 166.07 86.025C165.924 85.9989 165.789 85.9298 165.682 85.8264C165.575 85.7231 165.502 85.5903 165.471 85.4451C165.44 85.2998 165.454 85.1487 165.51 85.011C165.565 84.8734 165.661 84.7555 165.784 84.6725C165.907 84.5894 166.052 84.5451 166.201 84.545C166.395 84.5425 166.583 84.6171 166.722 84.7524C166.862 84.8878 166.943 85.073 166.946 85.2675Z" fill="white"/>
<path d="M165.781 85.6691C165.836 85.7266 165.902 85.7725 165.975 85.8037C166.048 85.835 166.126 85.851 166.205 85.8508C166.283 85.8515 166.36 85.8368 166.432 85.8076C166.504 85.7784 166.57 85.7353 166.625 85.6808C166.681 85.6262 166.725 85.5613 166.755 85.4897C166.786 85.4181 166.801 85.3413 166.802 85.2635C166.799 85.1252 166.746 84.9926 166.653 84.8906C166.346 85.1311 166.055 85.3912 165.781 85.6691Z" fill="#263238"/>
<path d="M169.857 85.2675C169.861 85.4148 169.82 85.5599 169.741 85.6842C169.662 85.8085 169.548 85.9064 169.413 85.9653C169.278 86.0243 169.128 86.0417 168.983 86.0152C168.838 85.9888 168.704 85.9197 168.599 85.8168C168.493 85.7139 168.421 85.582 168.391 85.4377C168.361 85.2934 168.374 85.1435 168.43 85.007C168.485 84.8705 168.58 84.7536 168.702 84.6713C168.825 84.589 168.969 84.545 169.116 84.545C169.212 84.5437 169.307 84.5615 169.397 84.5971C169.486 84.6327 169.567 84.6856 169.636 84.7527C169.705 84.8198 169.76 84.8998 169.798 84.9881C169.836 85.0764 169.856 85.1714 169.857 85.2675Z" fill="white"/>
<path d="M168.688 85.6691C168.769 85.7546 168.874 85.8139 168.989 85.8392C169.105 85.8645 169.225 85.8547 169.335 85.8111C169.445 85.7675 169.539 85.6921 169.605 85.5945C169.672 85.4969 169.708 85.3816 169.708 85.2635C169.708 85.1248 169.654 84.9914 169.559 84.8906C169.252 85.1311 168.961 85.3912 168.688 85.6691Z" fill="#263238"/>
<path d="M172.759 85.2675C172.763 85.4148 172.723 85.5599 172.644 85.6842C172.564 85.8085 172.45 85.9064 172.315 85.9653C172.18 86.0243 172.03 86.0417 171.885 86.0152C171.74 85.9888 171.607 85.9197 171.501 85.8168C171.396 85.7139 171.323 85.582 171.293 85.4377C171.263 85.2934 171.276 85.1435 171.332 85.007C171.387 84.8705 171.482 84.7536 171.605 84.6713C171.727 84.589 171.871 84.545 172.018 84.545C172.114 84.5437 172.21 84.5615 172.299 84.5971C172.388 84.6327 172.47 84.6856 172.538 84.7527C172.607 84.8198 172.662 84.8998 172.7 84.9881C172.738 85.0764 172.758 85.1714 172.759 85.2675Z" fill="white"/>
<path d="M171.609 85.6691C171.691 85.7539 171.797 85.8125 171.912 85.8375C172.028 85.8624 172.148 85.8526 172.258 85.8091C172.367 85.7657 172.462 85.6907 172.529 85.5936C172.596 85.4964 172.633 85.3816 172.635 85.2635C172.632 85.1252 172.579 84.9926 172.486 84.8906C172.177 85.1312 171.885 85.3912 171.609 85.6691Z" fill="#263238"/>
<path d="M175.666 85.2675C175.669 85.4148 175.629 85.5599 175.55 85.6842C175.471 85.8085 175.356 85.9064 175.221 85.9653C175.086 86.0243 174.937 86.0417 174.792 86.0152C174.647 85.9888 174.513 85.9197 174.407 85.8168C174.302 85.7139 174.229 85.582 174.199 85.4377C174.169 85.2934 174.183 85.1435 174.238 85.007C174.294 84.8705 174.389 84.7536 174.511 84.6713C174.633 84.589 174.777 84.545 174.924 84.545C175.021 84.5437 175.116 84.5615 175.205 84.5971C175.295 84.6327 175.376 84.6856 175.445 84.7527C175.514 84.8198 175.568 84.8998 175.606 84.9881C175.644 85.0764 175.664 85.1714 175.666 85.2675Z" fill="white"/>
<path d="M174.494 85.6691C174.55 85.7264 174.617 85.7719 174.69 85.8032C174.764 85.8344 174.843 85.8506 174.923 85.8508C175.001 85.8515 175.078 85.8368 175.15 85.8076C175.222 85.7784 175.288 85.7353 175.343 85.6808C175.398 85.6262 175.442 85.5613 175.473 85.4897C175.503 85.4181 175.519 85.3413 175.52 85.2635C175.517 85.1252 175.464 84.9926 175.37 84.8906C175.062 85.1312 174.769 85.3912 174.494 85.6691Z" fill="#263238"/>
<path d="M132.647 77.0626H110.175C109.687 77.0627 109.218 76.8714 108.87 76.5297C108.521 76.1881 108.32 75.7234 108.311 75.2354V64.8688C108.311 57.7977 114.188 52.041 121.413 52.041C128.638 52.041 134.521 57.7977 134.521 64.8688V75.2354C134.511 75.725 134.309 76.1911 133.958 76.533C133.608 76.8749 133.137 77.0651 132.647 77.0626ZM112.04 73.4268H130.778V64.8688C130.778 62.3839 129.791 60.0009 128.034 58.2438C126.277 56.4868 123.893 55.4997 121.409 55.4997C118.924 55.4997 116.541 56.4868 114.784 58.2438C113.027 60.0009 112.04 62.3839 112.04 64.8688V73.4268Z" fill="white" stroke="#263238" stroke-width="0.5" stroke-linecap="round" stroke-linejoin="round"/>
<path d="M135.527 72.0645H106.916V95.7343H135.527V72.0645Z" fill="#E8DDFF" stroke="#263238" stroke-width="0.5" stroke-linecap="round" stroke-linejoin="round"/>
<path d="M124.201 81.8963C124.17 81.0907 123.828 80.3285 123.247 79.7696C122.666 79.2107 121.891 78.8984 121.085 78.8984C120.279 78.8984 119.504 79.2107 118.923 79.7696C118.342 80.3285 118 81.0907 117.969 81.8963C117.971 82.4503 118.125 82.9932 118.413 83.4663C118.702 83.9395 119.114 84.3249 119.605 84.5811L119.083 89.9556H123.087L122.565 84.5811C123.056 84.3249 123.468 83.9395 123.756 83.4663C124.045 82.9932 124.198 82.4503 124.201 81.8963Z" fill="#263238" stroke="#263238" stroke-width="0.5" stroke-linecap="round" stroke-linejoin="round"/>
<path d="M178.638 166.839C178.638 166.839 170.271 171.545 170.271 173.811C170.271 176.077 175.435 174.682 178.812 173.084C182.189 171.487 184.869 170.296 184.869 167.158C184.869 164.021 178.638 166.839 178.638 166.839Z" fill="#E8DDFF" stroke="#263238" stroke-width="0.5" stroke-miterlimit="10"/>
<path d="M218.69 166.839C218.69 166.839 227.057 171.545 227.057 173.811C227.057 176.077 221.893 174.682 218.516 173.084C215.139 171.487 212.459 170.296 212.459 167.158C212.459 164.021 218.69 166.839 218.69 166.839Z" fill="#E8DDFF" stroke="#263238" stroke-width="0.5" stroke-miterlimit="10"/>
<path d="M182.021 89.8047L178.455 167.74C178.948 168.146 179.518 168.447 180.131 168.627C180.744 168.807 181.387 168.861 182.021 168.786C183.128 168.622 184.138 168.065 184.868 167.217L196.975 103.604H199.466L212.292 168.408C213.058 168.832 213.909 169.08 214.783 169.134C216.025 169.134 217.986 167.566 217.986 167.566L213.889 89.8555L182.021 89.8047Z" fill="#263238" stroke="#263238" stroke-width="0.5" stroke-miterlimit="10"/>
<path d="M194.486 42.5732L178.283 49.1895L182.554 86.8389H213.529L219.23 47.7951L201.603 42.2246L194.486 42.5732Z" fill="#E8DDFF" stroke="#263238" stroke-width="0.5" stroke-miterlimit="10"/>
<path d="M196.265 47.9728L198.218 51.1102L195.016 78.1272L198.93 83.8792L202.315 77.6043L199.642 50.7616L201.959 47.1085L198.574 45.627L196.265 47.9728Z" fill="#263238" stroke="#263238" stroke-width="0.5" stroke-miterlimit="10"/>
<path d="M198.573 45.6223L195.973 50.0743L191.34 43.9011L193.933 40.8145L198.573 45.6223Z" fill="#E8DDFF" stroke="#263238" stroke-width="0.5" stroke-miterlimit="10"/>
<path d="M198.574 45.623L201.726 50.5252L205.525 43.5386L203.302 40.7207L198.574 45.623Z" fill="#E8DDFF" stroke="#263238" stroke-width="0.5" stroke-miterlimit="10"/>
<path d="M192.283 56.1641H181.367V59.8825L186.829 61.9742L192.283 59.6501V56.1641Z" fill="#E8DDFF" stroke="#263238" stroke-width="0.5" stroke-miterlimit="10"/>
<path d="M214.121 56.1641H203.205V59.8825L208.659 61.9742L214.121 59.6501V56.1641Z" fill="#E8DDFF" stroke="#263238" stroke-width="0.5" stroke-miterlimit="10"/>
<path d="M213.89 86.1406H182.021V89.801H213.89V86.1406Z" fill="#263238" stroke="#263238" stroke-width="0.5" stroke-miterlimit="10"/>
<path d="M181.484 89.1055L175.965 91.3714C175.874 92.949 175.994 94.5316 176.321 96.0776C176.858 98.1692 177.57 102.701 178.1 103.573C178.63 104.444 181.31 106.187 181.666 105.664C182.022 105.141 183.801 89.8027 183.801 89.8027L181.484 89.1055Z" fill="#263238" stroke="#263238" stroke-width="0.5" stroke-miterlimit="10"/>
<path d="M193.932 34.4636V40.8184L198.572 45.6262L203.3 40.7239V34.3691L193.932 34.4636Z" fill="white" stroke="#263238" stroke-width="0.5" stroke-miterlimit="10"/>
<path d="M190.693 28.5683C190.693 28.5683 189.857 26.6582 189.298 27.842C188.739 29.0258 189.393 30.8342 190.228 31.5605C190.842 32.0059 191.603 32.2007 192.356 32.1052L191.891 29.3817L190.693 28.5683Z" fill="white" stroke="#263238" stroke-width="0.5" stroke-miterlimit="10"/>
<path d="M205.801 28.5683C205.801 28.5683 206.636 26.6582 207.196 27.842C207.755 29.0258 207.101 30.8342 206.266 31.5605C205.649 32.0064 204.886 32.2011 204.131 32.1052L204.596 29.3817L205.801 28.5683Z" fill="white" stroke="#263238" stroke-width="0.5" stroke-miterlimit="10"/>
<path d="M192.269 15.9496C192.269 15.9496 188.369 17.5837 188.369 20.3072C188.369 23.0307 188.928 26.1173 189.858 27.3011C190.788 28.4849 191.521 29.2983 191.521 29.2983L191.71 25.391L194.397 20.7648C194.397 20.7648 198.849 23.5754 201.071 23.5754C202.314 23.5864 203.555 23.4966 204.783 23.3067L205.618 27.933L206.823 24.5776V21.491C206.823 21.491 209.046 19.3994 208.581 18.0413C208.116 16.6832 200.592 12.4127 195.973 13.5021C191.354 14.5915 192.269 15.9496 192.269 15.9496Z" fill="#263238" stroke="#263238" stroke-width="0.5" stroke-miterlimit="10"/>
<path d="M190.41 25.1157C190.41 25.1157 191.521 31.9208 192.451 33.7364C193.673 35.7511 195.172 37.5846 196.903 39.1834C197.549 39.6337 199.961 39.2705 200.89 39.2705C201.82 39.2705 204.521 33.8236 204.964 32.8286C205.407 31.8336 205.691 23.3 205.691 23.3L204.877 21.7604C204.877 21.7604 200.89 22.7626 197.738 21.4917C196.027 20.8788 194.497 19.8477 193.286 18.4922C193.286 18.4922 193.01 21.5788 191.892 23.3945C190.773 25.2101 190.41 25.1157 190.41 25.1157Z" fill="white" stroke="#263238" stroke-width="0.5" stroke-miterlimit="10"/>
<path d="M197.549 25.839C196.427 25.2531 195.183 24.9419 193.918 24.9311C192.832 24.8881 191.751 25.1047 190.766 25.563C190.766 25.563 190.766 28.6496 191.79 29.8334C192.814 31.0172 195.777 30.6468 196.612 29.6518C197.447 28.6569 197.549 25.839 197.549 25.839Z" fill="#263238" stroke="#263238" stroke-width="0.5" stroke-miterlimit="10"/>
<path d="M198.848 25.839C199.969 25.2531 201.214 24.9419 202.479 24.9311C203.565 24.8881 204.645 25.1047 205.631 25.563C205.631 25.563 205.631 28.6496 204.607 29.8334C203.583 31.0172 200.62 30.6468 199.792 29.6518C198.964 28.6569 198.848 25.839 198.848 25.839Z" fill="#263238" stroke="#263238" stroke-width="0.5" stroke-miterlimit="10"/>
<path d="M197.549 25.8398H198.849" stroke="#263238" stroke-width="0.5" stroke-miterlimit="10"/>
<path d="M178.455 83.354L184.33 83.1797L188.782 87.1886C188.775 87.7014 188.587 88.1951 188.252 88.5831C187.715 89.106 186.291 88.7574 186.291 88.7574C186.291 88.7574 185.224 91.3719 183.263 91.3719C181.302 91.3719 176 87.7406 176 87.7406L178.455 83.354Z" fill="white" stroke="#263238" stroke-width="0.5" stroke-miterlimit="10"/>
<path d="M178.281 49.1914L158.52 75.1625L175.964 87.7124L178.455 83.3548L173.117 73.0709L180.416 66.4474L178.281 49.1914Z" fill="#E8DDFF" stroke="#263238" stroke-width="0.5" stroke-miterlimit="10"/>
<path d="M177.031 80.3906L174.01 85.794" stroke="#263238" stroke-width="0.5" stroke-linecap="round" stroke-linejoin="round"/>
<path d="M173.118 73.0708L170.801 67.1445" stroke="#263238" stroke-width="0.5" stroke-linecap="round" stroke-linejoin="round"/>
<path d="M219.228 83.354L213.352 83.1797L208.9 87.1886C208.91 87.7023 209.1 88.1962 209.438 88.5831C209.968 89.106 211.391 88.7574 211.391 88.7574C211.391 88.7574 212.459 91.3719 214.42 91.3719C216.381 91.3719 221.719 87.7406 221.719 87.7406L219.228 83.354Z" fill="white" stroke="#263238" stroke-width="0.5" stroke-miterlimit="10"/>
<path d="M219.228 47.7949L239.164 75.1605L221.719 87.7103L219.228 83.3527L224.566 73.0688L216.199 66.271L219.228 47.7949Z" fill="#E8DDFF" stroke="#263238" stroke-width="0.5" stroke-miterlimit="10"/>
<path d="M220.652 80.3906L223.674 85.794" stroke="#263238" stroke-width="0.5" stroke-linecap="round" stroke-linejoin="round"/>
<path d="M224.566 73.0708L226.883 67.1445" stroke="#263238" stroke-width="0.5" stroke-linecap="round" stroke-linejoin="round"/>
<path d="M20.5144 164.982C20.5144 164.982 12.3984 169.547 12.3984 171.745C12.3984 173.943 17.4075 172.59 20.6905 171.04C23.9735 169.49 26.5591 168.335 26.5591 165.291C26.5591 162.248 20.5144 164.982 20.5144 164.982Z" fill="#E8DDFF" stroke="#263238" stroke-width="0.5" stroke-miterlimit="10"/>
<path d="M59.3884 164.982C59.3884 164.982 67.5044 169.547 67.5044 171.745C67.5044 173.943 62.5024 172.59 59.2194 171.04C55.9363 169.49 53.3438 168.335 53.3438 165.291C53.3438 162.248 59.3884 164.982 59.3884 164.982Z" fill="#E8DDFF" stroke="#263238" stroke-width="0.5" stroke-miterlimit="10"/>
<path d="M23.7978 90.2539L20.3457 165.855C20.8226 166.249 21.3744 166.541 21.9678 166.716C22.5611 166.89 23.1837 166.942 23.7978 166.869C24.8713 166.71 25.8517 166.17 26.5595 165.348L38.3036 103.64H40.7201L53.1547 166.531C53.8979 166.942 54.7234 167.183 55.5712 167.236C56.7829 167.236 58.6781 165.714 58.6781 165.714L54.7046 90.3314L23.7978 90.2539Z" fill="#263238" stroke="#263238" stroke-width="0.5" stroke-miterlimit="10"/>
<path d="M35.8875 44.4358L20.1699 50.8539L24.3124 87.3757H54.3668L59.8902 49.5013L42.7917 44.0977L35.8875 44.4358Z" fill="#E8DDFF" stroke="#263238" stroke-width="0.5" stroke-miterlimit="10"/>
<path d="M54.7107 86.6992H23.7969V90.25H54.7107V86.6992Z" fill="#263238" stroke="#263238" stroke-width="0.5" stroke-miterlimit="10"/>
<path d="M23.2772 89.5742L17.9229 91.7723C17.8351 93.3026 17.9512 94.8378 18.2681 96.3375C18.7895 98.3665 19.4799 102.763 20.0012 103.608C20.5226 104.453 23.1081 106.144 23.4533 105.637C23.7985 105.13 25.5246 90.2505 25.5246 90.2505L23.2772 89.5742Z" fill="#263238" stroke="#263238" stroke-width="0.5" stroke-miterlimit="10"/>
<path d="M35.3594 36.5701V42.7346L39.8541 47.3984L44.4405 42.643V36.4785L35.3594 36.5701Z" fill="white" stroke="#263238" stroke-width="0.5" stroke-miterlimit="10"/>
<path d="M32.2091 30.8514C32.2091 30.8514 31.3989 28.9985 30.8564 30.1469C30.3139 31.2952 30.948 33.0494 31.7582 33.7539C32.3566 34.1865 33.097 34.3754 33.8294 34.2823L33.3786 31.6404L32.2091 30.8514Z" fill="white" stroke="#263238" stroke-width="0.5" stroke-miterlimit="10"/>
<path d="M46.8653 30.8514C46.8653 30.8514 47.6755 28.9985 48.2179 30.1469C48.7604 31.2952 48.1264 33.0494 47.3162 33.7539C46.7203 34.186 45.9822 34.375 45.252 34.2823L45.6958 31.6404L46.8653 30.8514Z" fill="white" stroke="#263238" stroke-width="0.5" stroke-miterlimit="10"/>
<path d="M33.7391 18.6113C33.7391 18.6113 29.9629 20.1964 29.9629 22.8383C29.9629 25.4803 30.4983 28.4744 31.3719 29.6228C32.2455 30.7711 32.9923 31.5602 32.9923 31.5602L33.1684 27.7699L35.7751 23.2822C35.7751 23.2822 40.0937 26.0086 42.2495 26.0086C43.4546 26.0193 44.6586 25.9322 45.8496 25.748L46.6598 30.2357L47.8292 26.9809V23.9867C47.8292 23.9867 49.985 21.9577 49.5342 20.6403C49.0833 19.3229 41.7846 15.1803 37.3039 16.2371C32.8232 17.2939 33.7391 18.6113 33.7391 18.6113Z" fill="#263238" stroke="#263238" stroke-width="0.5" stroke-miterlimit="10"/>
<path d="M31.9141 27.5032C31.9141 27.5032 32.999 34.1045 33.8937 35.8658C35.0939 37.8239 36.5617 39.6047 38.2546 41.1566C38.8817 41.5934 41.2206 41.2412 42.1224 41.2412C43.0242 41.2412 45.6449 35.9574 46.0817 34.9922C46.5185 34.027 46.7863 25.749 46.7863 25.749L46.0042 24.2484C46.0042 24.2484 42.1365 25.2206 39.0789 23.9878C37.4192 23.3933 35.9346 22.393 34.7603 21.0781C34.7603 21.0781 34.4926 24.0723 33.4147 25.8336C32.3368 27.5948 31.9141 27.5032 31.9141 27.5032Z" fill="white" stroke="#263238" stroke-width="0.5" stroke-miterlimit="10"/>
<path d="M38.8614 28.2042C37.7735 27.6358 36.5662 27.334 35.3388 27.3236C34.2854 27.2818 33.2372 27.492 32.2812 27.9365C32.2812 27.9365 32.2813 30.9306 33.2676 32.079C34.2539 33.2273 37.1353 32.868 37.9455 31.9029C38.7557 30.9377 38.8614 28.2042 38.8614 28.2042Z" fill="#263238" stroke="#263238" stroke-width="0.5" stroke-miterlimit="10"/>
<path d="M40.1211 28.2042C41.209 27.6358 42.4163 27.334 43.6436 27.3236C44.6971 27.2818 45.7453 27.492 46.7012 27.9365C46.7012 27.9365 46.7012 30.9306 45.7079 32.079C44.7145 33.2273 41.8471 32.868 41.037 31.9029C40.2268 30.9377 40.1211 28.2042 40.1211 28.2042Z" fill="#263238" stroke="#263238" stroke-width="0.5" stroke-miterlimit="10"/>
<path d="M38.8613 28.2051H40.1224" stroke="#263238" stroke-width="0.5" stroke-miterlimit="10"/>
<path d="M37.6141 49.674L39.5092 52.7175L36.4023 78.9252L40.2067 84.5049L43.4827 78.418L40.8971 52.3793L43.1375 48.8356L39.8544 47.3984L37.6141 49.674Z" fill="#263238" stroke="#263238" stroke-width="0.5" stroke-miterlimit="10"/>
<path d="M39.8548 47.3963L37.3327 51.7149L32.8379 45.7266L35.36 42.7324L39.8548 47.3963Z" fill="#E8DDFF" stroke="#263238" stroke-width="0.5" stroke-miterlimit="10"/>
<path d="M39.8555 47.3961L42.913 52.1515L46.5976 45.3741L44.4418 42.6406L39.8555 47.3961Z" fill="#E8DDFF" stroke="#263238" stroke-width="0.5" stroke-miterlimit="10"/>
<path d="M20.1697 50.8555L1 76.0487L17.9223 88.2226L20.3458 83.9956L15.1606 74.0197L22.2409 67.5946L20.1697 50.8555Z" fill="#E8DDFF" stroke="#263238" stroke-width="0.5" stroke-miterlimit="10"/>
<path d="M20.3453 83.9992L26.0378 83.8301L30.3564 87.719C30.3495 88.2163 30.1674 88.6953 29.8421 89.0716C29.3208 89.5789 27.9399 89.2407 27.9399 89.2407C27.9399 89.2407 26.9043 91.7769 25.0021 91.7769C23.0999 91.7769 17.957 88.2544 17.957 88.2544L20.3453 83.9992Z" fill="white" stroke="#263238" stroke-width="0.5" stroke-miterlimit="10"/>
<path d="M18.9652 81.1211L16.0273 86.3626" stroke="#263238" stroke-width="0.5" stroke-linecap="round" stroke-linejoin="round"/>
<path d="M15.1603 74.0203L12.9199 68.2715" stroke="#263238" stroke-width="0.5" stroke-linecap="round" stroke-linejoin="round"/>
<path d="M59.8909 49.5039L79.2297 76.0498L62.3074 88.2237L59.8909 83.9967L65.0691 74.0208L56.9531 67.4266L59.8909 49.5039Z" fill="#E8DDFF" stroke="#263238" stroke-width="0.5" stroke-miterlimit="10"/>
<path d="M59.8912 83.9992L54.1917 83.8301L49.873 87.719C49.8819 88.2172 50.0666 88.6963 50.3944 89.0716C50.9087 89.5789 52.2895 89.2407 52.2895 89.2407C52.2895 89.2407 53.3251 91.7769 55.2273 91.7769C57.1295 91.7769 62.2724 88.2544 62.2724 88.2544L59.8912 83.9992Z" fill="white" stroke="#263238" stroke-width="0.5" stroke-miterlimit="10"/>
<path d="M61.2715 81.1211L64.2093 86.3626" stroke="#263238" stroke-width="0.5" stroke-linecap="round" stroke-linejoin="round"/>
<path d="M65.0684 74.0203L67.3157 68.2715" stroke="#263238" stroke-width="0.5" stroke-linecap="round" stroke-linejoin="round"/>
<path d="M33.7528 57.6211H23.1641V61.2282L28.462 63.2572L33.7528 61.0028V57.6211Z" fill="#E8DDFF" stroke="#263238" stroke-width="0.5" stroke-miterlimit="10"/>
<path d="M54.9364 57.6211H44.3477V61.2282L49.6456 63.2572L54.9364 61.0028V57.6211Z" fill="#E8DDFF" stroke="#263238" stroke-width="0.5" stroke-miterlimit="10"/>
</svg>
