<svg width="205" height="212" viewBox="0 0 205 212" fill="none" xmlns="http://www.w3.org/2000/svg">
<path d="M69.9087 161.611C71.7674 160.956 73.6717 160.436 75.6063 160.057L75.8405 160.912C75.8667 161.012 75.9284 161.1 76.0144 161.16C76.1004 161.219 76.2049 161.245 76.3088 161.234L83.9688 160.346C86.0762 155.562 89.9452 148.313 90.001 148.202C89.9452 146.393 90.001 144.872 90.001 143.141C85.619 144.761 77.513 147.836 73.276 149.801C73.1802 149.862 73.1061 149.952 73.0641 150.057C73.0221 150.163 73.0143 150.279 73.0418 150.389C73.0418 150.389 73.1199 150.666 73.2202 151.066C71.1463 151.066 64.9358 150.766 63.4417 152.176C63.2094 152.498 63.0952 152.89 63.1183 153.286C63.0291 154.818 63.7985 166.717 65.025 170.214C65.6605 172.045 66.9985 171.845 67.9128 170.091C68.9711 167.45 69.6504 164.674 69.931 161.844C69.931 161.7 69.8975 161.711 69.9087 161.611ZM68.6264 151.677C69.9867 151.566 70.4104 151.588 73.3317 151.499C73.8558 153.475 74.9373 157.537 75.4948 159.613C73.5276 159.916 71.5858 160.365 69.6857 160.956C69.0936 157.895 68.7395 154.792 68.6264 151.677Z" fill="#6C27FF"/>
<path d="M172.533 54.53C172.812 54.1415 172.455 53.642 172.154 53.2535C173.007 52.3803 173.953 51.6024 174.975 50.9336C176.7 50.0777 178.277 48.9536 179.647 47.6036C180.216 47.0153 181.286 45.8054 180.885 45.095C180.483 44.3846 179.77 44.3402 178.8 44.7509C179.22 44.3116 179.563 43.8051 179.814 43.2524C180.127 42.3866 179.391 41.6873 177.796 42.3311C178.376 41.4098 178.51 40.4441 177.529 39.9779C176.737 39.6005 175.577 40.4996 174.908 41.0879C173.595 42.2306 172.362 43.4619 171.218 44.7731C170.515 43.3079 169.4 41.6207 168.007 42.1535C166.613 42.6863 167.694 45.0728 168.408 46.3715L165.877 48.1142C165.494 47.9086 165.062 47.8126 164.628 47.8367C161.751 48.3251 148.539 58.3373 147.201 58.3373C146.175 58.3373 131.524 51.3443 118.857 49.3241C118.833 49.2485 118.787 49.1813 118.726 49.1302C118.665 49.0791 118.591 49.0463 118.512 49.0355C116.302 48.6602 114.062 48.493 111.822 48.536C111.754 48.5406 111.688 48.5598 111.628 48.5924C111.568 48.625 111.516 48.6701 111.476 48.7247H110.539C110.316 47.8256 109.491 45.7499 109.201 44.9507C109.96 44.2958 111.008 43.9628 111.554 42.9083C112.558 40.9547 112.513 37.5581 112.234 35.3825C113.494 34.4279 113.528 32.8961 113.238 31.331C113.126 30.6983 112.781 29.2664 112.245 28.9112C111.944 28.7114 111.309 28.9112 110.762 29.111C110.216 27.8456 110.216 28.4228 110.439 27.9122C110.543 27.6769 110.603 27.425 110.617 27.1685C111.208 27.3461 112.435 26.1695 112.011 24.6155C111.789 24.0592 111.517 23.5242 111.197 23.0171C111.353 22.6397 111.688 22.1846 110.64 20.7971C110.188 20.3124 109.602 19.9723 108.956 19.8203H108.443C108.073 19.2856 107.53 18.8937 106.905 18.7103C105.96 18.4706 104.959 18.6101 104.117 19.0988C103.894 19.2653 103.716 19.4873 103.493 19.6427C102.988 19.3379 102.41 19.1768 101.82 19.1768C101.23 19.1768 100.652 19.3379 100.148 19.6427C99.8525 19.758 99.5838 19.9315 99.3577 20.1528C99.1316 20.374 98.9528 20.6385 98.8319 20.9303C98.2856 20.7427 97.706 20.6704 97.1301 20.7182C96.5541 20.766 95.9945 20.9327 95.4869 21.2078C93.5607 22.2476 92.12 23.9967 91.4729 26.0807C91.4549 26.395 91.4549 26.71 91.4729 27.0242H91.3503C89.6778 26.78 87.5481 30.7316 89.2541 33.8063C89.4548 34.1726 89.7112 34.5167 89.9565 34.9163C90.6701 36.0263 90.3914 36.3593 91.9858 37.7135C92.4541 38.1131 92.5322 38.0798 92.8221 38.324C93.112 38.5682 93.0005 38.4461 93.1677 39.0677C93.2589 39.4339 93.4221 39.7784 93.648 40.0814C93.8738 40.3843 94.1578 40.6397 94.4834 40.8326C94.6019 41.9183 95.067 42.9376 95.8103 43.7408C96.0457 44.003 96.3202 44.2277 96.6242 44.4068C96.7062 44.4528 96.7978 44.4794 96.8918 44.4845C97.2263 46.5491 97.6389 49.2353 97.8173 50.3786L96.8249 50.9114C95.5265 51.4315 94.2639 52.0359 93.0451 52.7207C92.9495 52.7866 92.8819 52.8855 92.8555 52.9982C91.6736 53.6198 90.5586 54.2081 89.9231 54.5855C81.07 59.8136 55.9267 94.2791 55.6703 95.8553C55.642 95.9457 55.642 96.0425 55.6703 96.1328C56.0307 96.7052 56.4698 97.2245 56.9748 97.6757C56.8192 97.9584 56.6322 98.2227 56.4173 98.4638C54.1873 99.9179 50.8423 102.082 49.0472 104.014C48.9213 104.126 48.8268 104.268 48.7731 104.427C48.7194 104.586 48.7084 104.757 48.741 104.922C48.7736 105.086 48.8489 105.24 48.9593 105.367C49.0697 105.494 49.2114 105.59 49.3705 105.646C49.705 105.757 49.7608 105.723 51.935 104.536C51.3375 105.057 50.8488 105.691 50.4967 106.4C50.3517 107.011 50.9092 107.366 51.6117 107.255C52.0069 107.152 52.3832 106.987 52.7267 106.767C52.5256 107.076 52.4186 107.436 52.4186 107.804C52.4186 108.173 52.5256 108.533 52.7267 108.842C53.8417 110.241 56.763 105.834 58.3017 104.746C58.9261 105.535 59.7735 107.377 61.1226 106.889C62.2934 106.456 61.0111 103.892 61.1226 103.148C61.5763 102.714 62.0607 102.314 62.5721 101.949C63.4322 102.584 64.4157 103.034 65.46 103.27C67.2997 103.27 86.5 83.9783 87.9607 82.4354C87.4366 87.3416 84.7941 108.398 85.3516 112.494C85.608 114.348 90.0792 114.614 91.9635 114.714C91.3949 128.034 91.0158 148.214 90.9154 148.425C87.9607 154.763 87.1579 156.495 86.1655 158.415C84.3592 161.856 76.7549 174.554 75.8964 177.44C75.7737 177.895 75.7626 178.073 76.242 178.917C74.8052 180.42 73.4716 182.019 72.2503 183.701C71.6371 184.811 74.2685 195.156 76.1305 198.819C76.5542 199.64 77.2455 200.906 78.171 200.872C80.9585 200.773 80.9473 190.805 80.8693 188.019C80.8688 187.933 80.8371 187.85 80.7801 187.786C81.2853 187.035 81.8364 186.316 82.4303 185.632C82.7847 185.875 83.1575 186.09 83.5453 186.276C83.9244 186.442 84.3481 186.154 84.6603 185.899C88.3732 182.99 108.399 158.149 112.691 146.427C114.643 141.077 117.241 133.684 117.976 128.445C118.426 125.132 118.468 121.777 118.099 118.455C118.099 118.408 118.118 118.363 118.151 118.329C118.185 118.296 118.23 118.277 118.278 118.277C118.325 118.277 118.37 118.296 118.404 118.329C118.437 118.363 118.456 118.408 118.456 118.455C119.014 121.796 119.123 125.197 118.779 128.567C117.954 135.838 112.19 150.989 109.112 156.561C111.766 156.073 117.163 155.007 119.772 154.23C128.469 151.6 136.497 143.752 137.199 134.938C137.426 130.786 137.426 126.625 137.199 122.473C137.124 116.741 136.375 111.038 134.969 105.479C137.333 104.203 139.496 102.704 140.198 101.328C141.704 98.3861 137.723 81.4586 136.853 76.7078C141.614 77.2295 149.721 78.173 153.5 75.2315C157.827 71.7683 167.17 62.0225 172.533 54.53ZM80.2672 187.408C78.2602 186.198 75.4504 183.323 75.0267 181.07C75.4838 180.493 75.9633 179.96 76.4093 179.361C77.9203 181.656 79.8044 183.686 81.9843 185.366C81.3719 186.012 80.7985 186.694 80.2672 187.408ZM168.91 46.6823C168.967 46.6457 169.009 46.5884 169.025 46.5224C169.042 46.4563 169.032 46.3865 168.999 46.3271C168.609 45.6056 167.438 43.0637 168.252 42.7751C168.72 42.5975 169.133 42.8861 169.478 43.2746C170.006 43.9412 170.417 44.6918 170.694 45.4946C170.714 45.5599 170.752 45.6183 170.804 45.6637C170.855 45.7091 170.918 45.7397 170.986 45.7522C171.053 45.7648 171.123 45.7588 171.188 45.7349C171.252 45.7111 171.309 45.6702 171.352 45.6167C172.467 44.3846 175.076 41.5763 176.547 40.8215C177.662 40.2443 177.93 41.3099 175.198 43.7963C174.571 44.2726 173.968 44.7801 173.392 45.317C173.36 45.3606 173.343 45.413 173.343 45.4669C173.343 45.5207 173.36 45.5731 173.392 45.6167C173.392 45.9053 173.626 46.2272 174.028 45.9275C174.997 45.0805 176.021 44.2981 177.094 43.5854C177.641 43.1982 178.278 42.9539 178.945 42.875C178.61 43.8962 175.499 46.6712 175.232 46.982C175.147 47.0578 175.095 47.1636 175.088 47.2768C175.081 47.3901 175.118 47.5016 175.193 47.5874C175.268 47.6733 175.373 47.7265 175.487 47.7358C175.6 47.745 175.713 47.7095 175.8 47.6369C177.038 46.8377 179.201 44.9729 179.948 45.2504C180.695 45.5279 178.476 47.5925 177.919 48.0809C174.719 50.8448 175.544 49.0688 171.842 52.8206C170.231 51.0634 168.381 49.539 166.345 48.2918L168.91 46.6823ZM120.463 99.7736C120.273 98.2418 120.039 96.5879 119.749 94.8674L120.229 94.2347C122.459 91.382 123.128 86.8421 122.916 83.279C124.109 88.4849 125.057 93.602 125.781 98.6858L120.463 99.7736ZM103.883 61.7672C100.95 59.5472 96.234 55.7177 93.4911 53.0981L97.9511 50.8781C102.046 54.6863 105.552 59.0779 108.354 63.9095C112.638 71.7442 115.816 80.1297 117.798 88.829L101.898 66.4403L103.972 62.1557C104 62.0897 104.006 62.0169 103.99 61.9473C103.974 61.8777 103.936 61.8148 103.883 61.7672ZM111.42 49.1798C111.487 49.3019 112.257 50.9336 113.427 53.7863C113.427 53.9084 113.215 56.6834 113.115 57.6602C111.692 57.0986 110.35 56.3522 109.123 55.4402C109.369 54.4745 110.473 50.09 110.551 49.1021L111.42 49.1798ZM107.462 61.1012C107.54 60.9014 107.618 60.635 107.707 60.3242L108.454 60.7127C108.878 60.9902 108.711 60.1466 109.09 62.5886C109.09 62.9993 109.201 63.4544 109.224 63.9539C108.711 63.0326 108.075 62.0447 107.473 61.1012H107.462ZM106.838 60.1688C104.731 57.1944 102.333 54.4355 99.6793 51.9326L108.075 55.5623C107.752 56.3282 107.284 58.6703 106.849 60.1688H106.838ZM115.412 66.6734C114.297 63.6431 113.438 60.2576 113.015 59.3696C113.04 59.0927 113.04 58.814 113.015 58.5371C113.176 58.5969 113.345 58.6342 113.516 58.6481C113.624 58.6493 113.728 58.6118 113.81 58.5424C113.892 58.4731 113.946 58.3766 113.962 58.2707C114.052 57.9044 114.197 56.0507 114.219 55.64C117.462 63.7924 120.17 72.1461 122.325 80.6483C116.025 67.3061 116.995 71.1689 115.423 66.6734H115.412ZM124.633 87.8633C122.091 75.731 117.62 60.6017 112.535 49.3907C114.402 49.3917 116.267 49.5402 118.11 49.8347C119.058 58.2707 118.266 57.9821 118.902 58.3151C119.537 58.6481 123.362 60.1799 123.931 60.413C123.875 61.2677 124.678 85.7099 124.644 87.8633H124.633ZM111.799 29.6216C112.381 30.8844 112.586 32.2867 112.39 33.662C112.3 34.0121 112.113 34.3302 111.851 34.5809C111.59 34.8317 111.263 35.0053 110.909 35.0823C110.554 35.1594 110.185 35.137 109.842 35.0175C109.499 34.8981 109.196 34.6863 108.967 34.4057C108.435 33.29 108.035 32.1167 107.774 30.9092C108.075 30.5207 111.286 29.7437 111.799 29.6216ZM96.457 40.7216C96.0496 40.537 95.6328 40.374 95.2082 40.2332C94.9232 40.1166 94.6688 39.9366 94.4645 39.7069C94.2602 39.4772 94.1115 39.2041 94.0296 38.9083C93.9478 38.6126 93.9352 38.3021 93.9925 38.0007C94.0499 37.6993 94.1759 37.415 94.3608 37.1696C95.0632 36.5813 95.6988 36.6146 96.2786 37.4915C96.6465 38.1686 96.6354 38.2241 96.8026 38.2907C96.8506 38.3118 96.9025 38.3224 96.955 38.3218C97.0074 38.3212 97.0591 38.3095 97.1066 38.2875C97.1541 38.2654 97.1963 38.2335 97.2304 38.1938C97.2645 38.1542 97.2897 38.1077 97.3044 38.0576C97.4696 37.3628 97.4962 36.6425 97.3824 35.9375C97.2486 35.1716 97.2263 31.775 97.2486 31.664C97.5743 31.8349 97.9402 31.9154 98.3079 31.8971C100.326 31.8194 100.727 30.7871 101.53 29.9435C102.456 30.0323 102.645 30.4763 103.693 29.9435C104.184 29.6656 104.634 29.322 105.031 28.9223C105.352 29.0529 105.661 29.2088 105.957 29.3885C106.625 29.7084 107.379 29.8067 108.107 29.6688C108.836 29.531 109.5 29.1643 110.004 28.6226C110.127 28.8557 110.238 29.0888 110.339 29.333C109.314 29.6495 108.349 30.1334 107.484 30.7649C107.295 30.998 107.574 32.2634 107.64 32.5631C106.706 32.6801 105.803 32.97 104.976 33.4178C104.808 32.8406 104.44 31.7639 103.861 31.4642C103.686 31.4111 103.5 31.4111 103.325 31.4642C102.322 31.6196 98.7204 32.6963 98.2856 33.2846C97.9065 33.6953 98.988 36.8699 99.3225 37.3916C100.605 39.3674 104.362 38.7902 105.065 36.4814C105.239 35.7066 105.239 34.9031 105.065 34.1282C105.388 34.1282 106.358 33.7841 106.47 33.7508C107.239 35.4713 107.462 35.5712 108.354 37.4249C108.231 37.5248 108.031 37.6913 107.863 37.8023C107.072 38.324 106.905 38.2352 106.949 38.4572C106.962 38.5013 106.991 38.5391 107.03 38.5636C107.069 38.5882 107.115 38.5977 107.161 38.5904C107.629 38.5238 108.086 38.397 108.521 38.213C108.782 38.1163 108.996 37.9263 109.123 37.6802C109.436 36.9809 107.707 34.3502 107.027 33.5621C107.161 33.5621 107.473 33.3401 107.707 33.218C108.02 34.4612 108.231 35.438 109.436 35.9264C109.784 36.0572 110.155 36.1168 110.526 36.1015C110.898 36.0863 111.263 35.9965 111.599 35.8376C111.777 37.7912 111.744 40.9658 110.807 42.6974C110.328 43.5965 109.146 43.9406 108.387 44.6843C108.164 44.8952 108.309 45.1949 108.387 45.5168C109.625 48.9467 109.647 48.9356 109.581 49.3796C109.252 51.2224 108.794 53.04 108.209 54.8186C107.93 54.6965 104.797 53.0426 98.6647 50.6672C98.4751 49.4129 97.4605 42.7196 97.1371 41.4875C97.1594 41.0546 97.1037 40.9547 96.457 40.6661V40.7216ZM104.262 36.1928C103.905 37.4027 102.222 37.9244 101.017 37.5914C99.8131 37.2584 99.7351 36.6479 99.1664 35.2049C98.8999 34.6537 98.7158 34.0665 98.6201 33.4622C98.988 33.0626 103.013 32.2412 103.515 32.1635C104.219 33.362 104.483 34.7666 104.262 36.1373V36.1928ZM60.632 102.837C60.2083 103.248 60.777 104.591 60.8662 105.757C60.8662 105.856 60.8662 106.289 60.7993 106.323C60.186 106.522 59.6174 105.601 59.2717 105.046C58.9261 104.491 58.5804 103.736 58.0341 103.936C56.9191 104.458 54.3323 107.877 53.3176 108.232C52.8047 107.255 55.7372 104.469 55.8375 104.314C55.8805 104.242 55.9031 104.16 55.9027 104.077C55.9023 103.994 55.879 103.912 55.8353 103.841C55.7916 103.771 55.7292 103.713 55.6549 103.675C55.5806 103.637 55.4972 103.62 55.4138 103.625C55.2131 103.625 55.0793 103.803 54.7671 104.08C53.8175 105.003 52.7306 105.774 51.5448 106.367C52.6199 105.139 53.7706 103.979 54.9901 102.893C55.0503 102.831 55.0927 102.754 55.1128 102.671C55.1128 102.671 54.8786 102.082 54.4215 102.316C53.7748 102.671 50.6305 104.48 49.6381 104.946C49.5043 104.857 49.5824 104.724 49.6381 104.591C51.2103 102.671 54.6668 100.34 56.7853 98.8634C57.0339 98.6085 57.2408 98.3164 57.3985 97.9976C58.8657 99.3566 60.4309 100.607 62.0815 101.738C61.573 102.07 61.0886 102.437 60.632 102.837ZM86.5781 112.927C86.3328 112.772 86.1544 112.627 86.1209 112.428C85.5077 107.899 88.9196 82.2356 88.8638 81.2255C88.8638 81.1663 88.8519 81.1076 88.8288 81.053C88.8057 80.9984 88.7719 80.9489 88.7293 80.9076C88.6867 80.8662 88.6362 80.8337 88.5808 80.8121C88.5254 80.7904 88.4662 80.78 88.4067 80.7815C87.838 80.7815 88.8415 80.7815 74.6364 94.3235C73.6998 95.2004 66.5415 102.016 65.3485 102.471C63.7094 102.349 57.5435 97.4537 56.54 95.9108C58.4801 92.0036 82.0066 59.858 90.1461 54.9407C90.7705 54.5633 91.8409 53.975 93.0116 53.3534C93.4164 53.7335 93.8529 54.0788 94.3162 54.3857C96.903 56.8277 100.504 59.8691 103.236 62.1557L101.107 66.3626C101.074 66.4183 101.057 66.4815 101.057 66.5458C101.057 66.6101 101.074 66.6732 101.107 66.7289C118.4 91.4264 118.144 91.1489 118.255 91.1489C119.364 96.856 120.053 102.636 120.318 108.443C120.318 110.008 120.318 109.875 120.385 109.764C120.452 109.653 120.385 109.841 120.385 109.841C117.687 112.772 90.9823 115.502 86.5781 112.927ZM148.215 76.1528C143.164 76.8521 137.456 75.8087 136.352 75.7643C135.738 72.8052 134.516 70.0047 132.761 67.5392C132.735 67.5033 132.695 67.4787 132.651 67.4705C132.607 67.4623 132.561 67.4709 132.523 67.4948C132.485 67.5186 132.457 67.5559 132.446 67.5991C132.434 67.6423 132.439 67.6883 132.46 67.7279C133.107 69.0377 135.27 74.6876 135.805 76.064C135.638 76.5968 140.845 98.0309 139.373 100.917C138.058 103.525 130.398 106.811 127.632 107.755C127.086 101.575 126.192 95.4309 124.956 89.3507C125.335 86.1539 124.845 67.1507 124.7 60.1244C124.696 60.0428 124.668 59.964 124.621 59.8972C124.574 59.8304 124.508 59.7783 124.432 59.747L119.426 57.6491C119.403 55.0113 119.236 52.3767 118.924 49.757C131.423 51.9104 145.985 59.0255 147.201 59.0366C148.962 59.0366 162.052 49.0466 164.762 48.647C165.966 48.4583 171.14 52.9538 171.742 54.197C166.457 61.5452 157.169 71.2022 152.865 74.5433C151.478 75.4662 149.878 76.0203 148.215 76.1528Z" fill="#6C27FF"/>
<path d="M103.112 33.972C103.099 33.8991 103.07 33.8297 103.029 33.7676C102.989 33.7056 102.936 33.6522 102.874 33.6104C102.813 33.5687 102.743 33.5394 102.67 33.5243C102.597 33.5092 102.522 33.5086 102.449 33.5224C102.376 33.5363 102.306 33.5644 102.244 33.605C102.181 33.6457 102.128 33.6982 102.086 33.7596C102.044 33.8209 102.014 33.8898 101.999 33.9625C101.984 34.0351 101.984 34.11 101.997 34.1829C102.22 35.2929 102.265 35.5482 102.756 35.5482C102.848 35.5485 102.94 35.5258 103.021 35.4821C103.103 35.4384 103.173 35.3751 103.223 35.298C103.274 35.2208 103.305 35.1323 103.313 35.0403C103.321 34.9483 103.306 34.8558 103.269 34.7712C103.235 34.5936 103.135 34.0719 103.112 33.972ZM106.524 41.3202C107.249 41.5311 107.94 41.187 107.918 41.0094C107.896 40.8318 107.918 40.9206 106.937 40.5543C106.279 40.3101 105.554 39.4443 105.298 39.5775C105.041 39.7107 105.432 40.4211 105.521 40.5543C105.759 40.9146 106.113 41.1844 106.524 41.3202ZM126.918 30.7752C125.457 36.8691 124.387 42.0417 124.208 43.074C124.09 43.5231 124.067 43.992 124.141 44.4504C124.732 45.7047 132.37 48.18 133.34 47.6916C134.31 47.2032 136.83 41.5533 139.762 35.7258C141.559 35.7829 143.356 35.6527 145.126 35.3373C146.988 34.9971 148.801 34.4265 150.522 33.639C154.291 31.9074 158.416 24.4926 158.974 20.763C159.392 16.7138 158.531 12.6356 156.51 9.09689C147.155 -7.05361 119.715 1.63769 121.945 19.5753C122.582 23.6798 124.297 27.5436 126.918 30.7752ZM133.719 43.9953C133.719 44.1729 133.518 44.1507 132.604 43.9953C130.734 43.7613 128.923 43.1856 127.263 42.297C126.483 41.8752 126.271 41.7864 126.349 41.5977C126.427 41.409 126.594 41.4756 127.799 41.8086C127.91 41.8086 131.367 42.9186 132.359 43.2627C133.641 43.8399 133.719 43.8399 133.719 43.9953ZM133.518 25.9356C134.709 25.9971 135.896 25.7524 136.964 25.2252C137.957 25.704 139.031 25.9939 140.13 26.0799C138.257 29.5542 134.455 36.636 133.229 40.41L128.501 39.1113C129.616 36.3807 132.08 29.9871 133.496 25.9356H133.518ZM133.128 25.0143C132.296 24.8891 131.528 24.4956 130.942 23.8941C130.356 23.2926 129.984 22.5163 129.884 21.6843C129.571 19.4643 130.999 16.9779 133.15 17.5662C134.5 17.9325 134.667 18.9981 134.433 20.3412C134.232 21.318 133.507 23.7711 133.106 24.9699L133.128 25.0143ZM136.161 22.3503C136.28 21.624 136.554 20.9314 136.964 20.319C137.159 19.9852 137.444 19.7125 137.787 19.532C138.13 19.3515 138.517 19.2703 138.904 19.2978C139.729 19.542 140.086 21.096 139.406 22.0728C138.752 22.9364 137.938 23.6673 137.008 24.2262C136.688 24.0392 136.434 23.7593 136.278 23.424C136.123 23.0886 136.074 22.714 136.139 22.3503H136.161ZM125.914 8.24219C130.909 2.25929 140.309 -0.116109 147.099 2.34809C150.788 3.60865 153.891 6.16101 155.83 9.52979C157.752 12.897 158.574 16.7764 158.182 20.6298C157.669 24.0819 153.722 31.2525 150.255 32.8398C147.084 34.2795 143.625 34.9781 140.142 34.8822C139.762 34.8822 139.361 34.8822 139.216 35.1486C138.558 36.4806 137.354 39.0558 136.172 41.4756C135.356 41.0833 134.51 40.7566 133.641 40.4988C134.935 36.8136 139.015 29.5764 140.956 26.0688C142.637 26.2122 144.326 25.9216 145.861 25.2252C146.276 25.0078 146.62 24.6772 146.853 24.2721C147.086 23.867 147.197 23.4042 147.175 22.9381C147.153 22.4719 146.998 22.0218 146.727 21.6405C146.457 21.2591 146.083 20.9624 145.65 20.7852C143.921 19.9416 142.372 21.9618 141.468 23.6601C141.223 24.1041 140.944 24.6258 140.632 25.2141C139.73 25.1551 138.841 24.9721 137.99 24.6702C138.838 24.0769 139.59 23.3583 140.22 22.539C140.573 22.0083 140.752 21.3816 140.732 20.7453C140.712 20.1091 140.494 19.4947 140.108 18.987C139.805 18.6368 139.384 18.4086 138.925 18.3453C138.465 18.2819 137.998 18.3877 137.611 18.6429C136.83 19.1206 136.204 19.8124 135.808 20.6355C135.413 21.4585 135.264 22.3777 135.381 23.2827C135.502 23.7935 135.778 24.2548 136.172 24.6036C135.441 24.9051 134.656 25.0562 133.864 25.0476C134.31 23.7378 135.035 21.3735 135.224 20.4078C135.343 19.8572 135.37 19.2908 135.302 18.7317C135.216 18.2517 134.992 17.8067 134.658 17.4503C134.324 17.0938 133.893 16.8412 133.418 16.7226C130.709 15.9567 128.713 18.9426 129.103 21.7287C129.213 22.7271 129.644 23.6636 130.331 24.3994C131.017 25.1352 131.924 25.631 132.916 25.8135C131.489 29.8095 129.259 36.2586 128.144 39.0114L125.691 38.3787C127.263 30.5199 127.453 30.7086 127.23 30.6087C124.696 27.393 123.075 23.5599 122.536 19.5087C122.273 17.4999 122.438 15.4585 123.02 13.5173C123.602 11.5762 124.588 9.77884 125.914 8.24219ZM141.39 25.2807C142.171 23.871 143.732 20.7852 145.248 21.54C145.552 21.6616 145.816 21.8634 146.012 22.1236C146.209 22.3838 146.33 22.6925 146.363 23.0163C146.341 24.9699 143.286 25.314 141.346 25.2807H141.39ZM184.073 30.1758C185.416 29.3891 187.003 29.1205 188.533 29.421C190.212 29.4509 191.817 30.1196 193.018 31.2899C194.218 32.4601 194.923 34.0433 194.988 35.7147C193.978 35.1312 192.797 34.9117 191.643 35.0931C188.845 35.3373 185.188 36.8469 185.678 39.5331C186.08 41.7531 189.023 41.4534 191.253 40.854C193.483 40.2546 195.256 39.1668 195.713 37.0245C198.423 38.9892 199.058 42.4302 199.17 45.7935C199.17 45.8406 199.188 45.8858 199.222 45.9191C199.255 45.9524 199.301 45.9711 199.348 45.9711C199.395 45.9711 199.441 45.9524 199.474 45.9191C199.508 45.8858 199.526 45.8406 199.526 45.7935C199.604 42.0306 198.924 38.3454 195.836 36.2031C195.868 35.2394 195.703 34.2792 195.351 33.3809C194.999 32.4825 194.468 31.6645 193.789 30.9765C193.11 30.2885 192.299 29.7447 191.403 29.3781C190.507 29.0115 189.546 28.8298 188.577 28.8438C187.029 28.6188 185.451 28.9408 184.117 29.754C183.705 29.9538 183.894 30.2535 184.073 30.1758ZM194.241 38.1345C192.981 39.7773 189.413 40.632 187.763 40.3545C187.15 40.2546 186.648 39.9993 186.514 39.3666C186.113 37.1466 189.96 35.9367 192.257 35.859C193.192 35.7876 194.125 36.0256 194.91 36.5361C194.826 37.1164 194.596 37.6662 194.241 38.1345ZM178.966 17.1999C180.159 15.7347 179.356 13.1817 176.022 13.1706C174.729 13.1706 174.104 14.4804 174.194 15.7347C174.394 18.7206 177.773 18.6318 178.966 17.1999ZM174.974 15.6792C174.974 14.9466 175.32 13.992 176.089 14.0031C177.884 14.0031 178.709 14.8356 178.709 15.7569C178.665 17.8548 174.829 18.9426 174.974 15.6792ZM174.517 141.52C164.716 137.624 160.167 156.483 152.161 172.689C152.111 173.37 152.133 174.055 152.228 174.731C152.228 176.429 152.418 187.674 153.41 188.95C153.678 189.461 154.804 188.95 155.328 188.628C159.779 185.885 163.973 182.75 167.86 179.26C167.894 179.222 167.919 179.178 167.934 179.13C167.949 179.083 167.955 179.032 167.95 178.982C170.024 176.041 177.795 160.723 179.679 153.042C180.995 147.603 179.691 143.551 174.517 141.52ZM178.018 155.617C172.771 154.948 167.698 153.298 163.066 150.755C165.675 145.838 168.897 140.232 174.216 142.341C180.137 144.683 180.014 149.534 178.018 155.584V155.617ZM159.464 184.477C159.122 184.191 158.748 183.945 158.349 183.744C156.843 182.982 155.102 182.815 153.477 183.278C153.365 181.957 152.73 173.366 152.73 173.288C161.081 176.329 158.506 175.009 166.779 179.104C165.909 179.926 162.642 182.201 159.464 184.455V184.477ZM165.218 152.353C166.305 152.945 167.422 153.482 168.563 153.963C166.007 157.959 163.749 162.137 161.806 166.462C159.933 170.358 160 170.335 158.093 174.587C156.978 174.232 155.863 173.899 154.748 173.566C155.952 171.179 164.515 153.73 165.218 152.331V152.353ZM158.528 174.698C162.152 168.226 165.842 160.179 169.009 154.107C170.124 154.573 171.239 154.951 172.354 155.284C171.763 156.394 170.035 159.346 169.578 160.201C169.12 161.056 164.538 170.047 164.214 170.735C163.702 171.845 162.297 174.942 161.862 175.93C160.724 175.43 159.632 175.053 158.483 174.676L158.528 174.698ZM162.263 176.074C162.943 174.842 165.742 169.669 166.088 169.003C166.612 167.971 172.454 156.083 172.778 155.395C173.803 155.683 174.885 155.928 175.576 156.061C173.536 161.611 167.66 172.3 165.541 177.573C163.612 176.674 163.177 176.452 162.219 176.052L162.263 176.074ZM162.943 151.077L164.939 152.187C160.917 159.006 157.414 166.115 154.458 173.455L152.786 172.944C159.264 159.202 159.565 157.404 162.899 151.055L162.943 151.077ZM167.537 178.538L165.853 177.739C167.671 174.187 173.357 165.074 175.955 156.139C176.58 156.25 177.193 156.349 177.784 156.427C174.919 164.038 171.478 171.422 167.492 178.516L167.537 178.538ZM132.604 185.742C133.049 185.376 133.366 184.88 133.512 184.324C133.658 183.769 133.625 183.181 133.418 182.645C133.324 181.872 132.967 181.154 132.408 180.609C131.849 180.064 131.12 179.725 130.341 179.647C129.562 179.57 128.78 179.758 128.123 180.182C127.467 180.606 126.975 181.24 126.728 181.979C125.301 181.058 123.751 180.081 122.268 179.149C123.383 177.673 126.661 178.327 126.996 179.537C127.003 179.584 127.029 179.627 127.068 179.655C127.106 179.683 127.155 179.695 127.202 179.687C127.249 179.68 127.292 179.654 127.32 179.616C127.348 179.577 127.36 179.529 127.353 179.482C127.185 177.55 123.149 176.418 121.521 178.694C120.083 177.817 118.299 176.751 116.805 175.941C118.087 174.831 120.952 175.453 121.265 176.607C121.279 176.646 121.308 176.679 121.344 176.7C121.381 176.721 121.424 176.728 121.466 176.72C121.507 176.712 121.545 176.689 121.571 176.656C121.598 176.624 121.611 176.582 121.61 176.54C121.465 174.742 117.73 173.532 116.035 175.508C115.325 175.112 114.578 174.785 113.805 174.531C113.664 174.473 113.509 174.457 113.358 174.484C113.208 174.512 113.069 174.582 112.958 174.687C110.137 178.183 100.626 187.263 96.2329 188.317C96.1224 188.334 96.0183 188.379 95.931 188.449C95.8437 188.518 95.7763 188.609 95.7356 188.713C95.6949 188.816 95.6824 188.928 95.6992 189.038C95.716 189.148 95.7616 189.252 95.8315 189.339C96.7961 190.313 97.9009 191.14 99.1096 191.792C97.9946 192.902 97.1249 193.901 96.4782 194.622C96.1437 194.977 95.9653 201.771 96.2552 203.269C96.2983 203.416 96.3934 203.542 96.5228 203.624C97.9277 204.579 116.024 212.371 117.875 211.328C119.113 210.628 133.886 195.322 134.121 194.855C134.477 194.123 134.355 189.239 134.332 187.285C134.243 186.697 133.139 186.064 132.604 185.742ZM96.9242 200.405V197.93C101.551 200.15 112.144 204.679 116.158 205.944C117.184 206.277 117.273 206.233 117.808 205.944C120.874 203.991 131.701 191.847 133.686 189.994V192.336C127.665 198.341 117.44 208.864 117.251 208.264C116.147 208.198 97.8831 200.849 96.9242 200.405ZM132.325 182.002C132.726 182.674 132.942 183.44 132.95 184.222C132.946 184.47 132.885 184.715 132.771 184.936C132.656 185.158 132.493 185.35 132.292 185.498C131.355 184.876 129.583 183.722 127.486 182.368C128.635 180.115 131.188 180.081 132.281 182.002H132.325ZM96.6454 189.106C101.395 187.707 110.416 179.049 113.448 175.297C114.178 175.499 114.882 175.786 115.545 176.152C114.43 178.216 115.623 180.481 116.046 180.159C116.281 179.981 115.857 179.915 115.79 178.827C115.761 178.032 115.942 177.244 116.314 176.54C117.853 177.34 119.659 178.383 121.187 179.26C120.25 181.336 121.376 183.389 121.766 183.089C122.157 182.79 121.588 182.856 121.521 181.768C121.494 181.055 121.631 180.345 121.922 179.693C123.495 180.614 125.1 181.569 126.572 182.468C126.345 183.021 126.255 183.62 126.31 184.215C126.364 184.81 126.561 185.383 126.884 185.887C126.899 185.906 126.917 185.921 126.938 185.933C126.959 185.945 126.982 185.953 127.006 185.956C127.029 185.959 127.054 185.958 127.077 185.951C127.1 185.945 127.122 185.934 127.141 185.92C127.16 185.905 127.176 185.887 127.188 185.866C127.2 185.846 127.207 185.823 127.21 185.799C127.214 185.775 127.212 185.751 127.206 185.728C127.199 185.705 127.189 185.684 127.174 185.665C126.974 185.224 126.875 184.744 126.884 184.26C126.894 183.776 127.012 183.3 127.23 182.867C129.828 184.444 131.924 185.764 132.571 186.197C132.448 186.308 120.819 196.609 116.86 199.673C114.262 198.996 100.626 192.258 96.6454 189.106ZM97.0691 195.288C102.12 197.508 113.593 202.659 116.236 203.158C116.693 203.247 116.872 203.28 117.741 202.592C121.454 199.628 133.53 187.052 133.641 187.185C133.647 187.218 133.647 187.252 133.641 187.285V189.505C131.155 191.492 117.329 205.944 117.106 205.256C115.991 205.256 97.8719 197.897 96.9465 197.486C96.9242 197.02 97.0245 195.777 97.0691 195.288ZM117.373 210.584C116.258 211.217 99.2768 204.346 97.0022 202.947C96.9168 202.24 96.8758 201.528 96.8796 200.816C101.763 203.214 115.968 209.185 117.273 209.13C119.18 209.03 132.66 193.923 133.619 192.868C133.63 193.435 133.574 194.002 133.452 194.556C133.262 194.922 118.109 210.173 117.373 210.584ZM24.9955 148.013C25.0736 149.201 25.1293 150.233 25.1293 151.199C25.1293 151.346 25.1881 151.487 25.2926 151.592C25.3972 151.696 25.539 151.754 25.6868 151.754C25.8347 151.754 25.9765 151.696 26.081 151.592C26.1856 151.487 26.2443 151.346 26.2443 151.199C26.2443 150.167 26.1886 149.146 26.1105 147.936C26.1002 147.788 26.0315 147.651 25.9196 147.555C25.8078 147.458 25.6618 147.409 25.514 147.42C25.3661 147.43 25.2284 147.498 25.1312 147.61C25.034 147.721 24.9852 147.866 24.9955 148.013ZM194.888 125.758C194.815 125.762 194.744 125.781 194.679 125.813C194.613 125.845 194.555 125.89 194.507 125.944C194.459 125.999 194.423 126.063 194.4 126.132C194.378 126.201 194.369 126.274 194.375 126.346C194.442 127.367 194.509 128.466 194.509 129.532C194.509 129.679 194.568 129.82 194.672 129.924C194.777 130.028 194.919 130.087 195.066 130.087C195.214 130.087 195.356 130.028 195.461 129.924C195.565 129.82 195.624 129.679 195.624 129.532C195.624 128.422 195.557 127.312 195.479 126.268C195.475 126.196 195.456 126.125 195.424 126.06C195.392 125.995 195.347 125.937 195.292 125.889C195.237 125.842 195.173 125.805 195.103 125.783C195.034 125.76 194.961 125.752 194.888 125.758ZM22.1077 145.249C22.2555 145.249 22.3973 145.191 22.5019 145.087C22.6064 144.983 22.6652 144.842 22.6652 144.694C22.6652 144.547 22.6064 144.406 22.5019 144.302C22.3973 144.198 22.2555 144.139 22.1077 144.139C20.7585 144.139 19.6324 144.239 18.5174 144.217C18.3685 144.217 18.2255 144.275 18.1192 144.379C18.0128 144.483 17.9516 144.624 17.9487 144.772C17.9487 144.919 18.0075 145.061 18.112 145.165C18.2166 145.269 18.3584 145.327 18.5062 145.327C19.6547 145.349 20.9146 145.305 22.1077 145.249ZM191.432 122.472C190.094 122.472 188.967 122.55 187.841 122.561C187.693 122.561 187.552 122.62 187.447 122.724C187.342 122.828 187.284 122.969 187.284 123.116C187.284 123.263 187.342 123.404 187.447 123.509C187.552 123.613 187.693 123.671 187.841 123.671C189.045 123.671 190.294 123.671 191.498 123.582C191.646 123.573 191.785 123.507 191.883 123.396C191.981 123.286 192.031 123.141 192.022 122.994C192.014 122.847 191.946 122.709 191.836 122.611C191.725 122.513 191.579 122.463 191.432 122.472ZM24.6945 138.39C24.7614 139.411 24.8283 140.51 24.8283 141.575C24.8311 141.722 24.8908 141.861 24.9947 141.965C25.0986 142.068 25.2388 142.128 25.3858 142.13C25.5336 142.13 25.6754 142.072 25.78 141.968C25.8845 141.864 25.9433 141.723 25.9433 141.575C25.9433 140.465 25.8764 139.355 25.8095 138.312C25.7991 138.165 25.7305 138.028 25.6186 137.931C25.5067 137.834 25.3608 137.786 25.2129 137.796C25.0651 137.806 24.9274 137.874 24.8302 137.986C24.7329 138.097 24.6841 138.242 24.6945 138.39ZM195.323 119.908C195.323 118.798 195.256 117.688 195.178 116.645C195.168 116.498 195.099 116.361 194.987 116.264C194.875 116.167 194.729 116.118 194.581 116.129C194.434 116.139 194.296 116.207 194.199 116.319C194.101 116.43 194.053 116.575 194.063 116.722C194.13 117.744 194.197 118.843 194.197 119.908C194.197 120.055 194.255 120.197 194.36 120.301C194.465 120.405 194.606 120.463 194.754 120.463C194.903 120.463 195.046 120.405 195.152 120.301C195.259 120.198 195.32 120.056 195.323 119.908ZM32.9232 145.105C32.9964 145.102 33.0683 145.085 33.1349 145.055C33.2014 145.024 33.2613 144.981 33.311 144.927C33.3607 144.873 33.3993 144.811 33.4246 144.742C33.4499 144.674 33.4614 144.601 33.4584 144.528C33.4471 144.383 33.3811 144.247 33.2735 144.148C33.166 144.049 33.0249 143.995 32.8786 143.995C31.5294 144.051 30.4033 144.095 29.2771 144.073C29.1293 144.073 28.9875 144.131 28.8829 144.235C28.7784 144.34 28.7196 144.481 28.7196 144.628C28.7196 144.775 28.7784 144.916 28.8829 145.02C28.9875 145.124 29.1293 145.183 29.2771 145.183C30.4702 145.205 31.719 145.161 32.9232 145.105ZM202.247 122.328C201.132 122.383 199.894 122.417 198.657 122.417C198.583 122.414 198.51 122.426 198.441 122.452C198.372 122.478 198.309 122.517 198.256 122.568C198.203 122.619 198.161 122.68 198.132 122.747C198.103 122.815 198.088 122.887 198.088 122.961C198.088 123.109 198.146 123.251 198.251 123.357C198.355 123.463 198.497 123.524 198.646 123.527C199.917 123.527 200.942 123.527 202.292 123.438C202.365 123.435 202.437 123.418 202.503 123.387C202.57 123.357 202.63 123.313 202.679 123.26C202.729 123.206 202.768 123.143 202.793 123.075C202.818 123.006 202.83 122.934 202.827 122.861C202.813 122.716 202.746 122.582 202.639 122.484C202.532 122.386 202.393 122.33 202.247 122.328ZM7.30046 112.216C7.44542 112.327 38.8884 107.687 40.2376 106.866C40.3123 106.811 40.3719 106.739 40.4109 106.656C40.4499 106.572 40.467 106.48 40.4606 106.388C40.4606 104.956 38.5762 91.5144 37.6731 88.1622C37.5616 87.7515 37.4501 87.3408 37.1936 87.1965C35.4877 86.1753 5.42727 91.8141 3.63212 92.9685C3.58346 92.9971 3.54143 93.0356 3.50877 93.0815C3.4761 93.1274 3.45354 93.1797 3.44257 93.2349C3.06347 94.578 6.33042 111.55 7.30046 112.216ZM4.12272 93.5013C6.26352 92.5356 33.5476 87.5628 36.6696 87.9513C37.4278 89.8938 39.4571 104.124 39.5909 106.211C38.041 106.666 7.72416 111.85 7.61266 111.872C7.50116 111.894 7.49002 112.027 7.25586 111.328C6.27467 108.397 4.06697 96.0099 4.12272 93.5013Z" fill="#6C27FF"/>
<path d="M42.6908 107.854C42.7515 107.742 42.7786 107.615 42.7689 107.488C42.7689 105.723 40.2267 86.1313 39.3235 84.5662C39.2527 84.4508 39.1525 84.3561 39.033 84.2918C38.9136 84.2274 38.7791 84.1957 38.6434 84.1999C34.9081 83.7448 3.39822 89.872 1.32432 91.3039C1.03442 91.5037 1.07902 92.0032 1.11247 92.536C1.29087 95.4553 4.45747 114.658 5.57247 114.547C5.69512 114.547 5.65052 114.458 5.36062 115.047C3.62122 118.61 0.32082 130.021 0.38772 132.318C0.38772 133.284 0.61072 134.538 1.56962 134.472C8.44917 133.628 42.1779 128.3 51.8784 126.313C52.2575 126.236 52.5028 125.891 52.4917 125.325C52.3772 124.382 52.09 123.468 51.6443 122.628C50.284 120.086 44.6421 110.018 42.6908 107.854ZM5.63937 114.203C4.76967 113.093 1.56962 93.9679 1.81492 91.8478C4.26792 90.5824 35.3541 84.5995 38.6099 85.0879C39.5019 87.5299 41.81 105.168 41.9549 107.288C38.0078 108.642 10.6792 113.038 5.63937 114.203ZM6.12997 114.536C7.06657 114.303 38.9667 108.986 41.888 108.22C43.4825 109.697 50.6854 122.45 51.1537 123.538C44.7536 124.648 6.78782 130.964 1.20167 131.808C1.27972 128.444 4.74737 116.69 6.12997 114.536Z" fill="#6C27FF"/>
<path d="M10.3234 126.046C11.2934 125.902 31.8763 123.438 39.3133 121.429C39.3592 121.417 39.3984 121.388 39.4225 121.347C39.4465 121.306 39.4534 121.258 39.4416 121.212C39.4297 121.167 39.4002 121.128 39.3594 121.104C39.3186 121.08 39.27 121.073 39.2241 121.085C37.7635 121.384 19.9458 123.749 10.301 125.702C10.2744 125.698 10.247 125.699 10.221 125.706C10.1949 125.714 10.1709 125.727 10.1507 125.745C10.1305 125.763 10.1147 125.785 10.1044 125.81C10.0941 125.835 10.0897 125.862 10.0914 125.889C10.0932 125.915 10.101 125.942 10.1144 125.965C10.1278 125.988 10.1464 126.009 10.1688 126.024C10.1911 126.039 10.2166 126.049 10.2434 126.053C10.2702 126.057 10.2975 126.055 10.3234 126.046ZM25.3647 48.8126C24.9482 49.7491 24.598 50.7135 24.3166 51.6986C24.3 51.8567 24.3438 52.0152 24.4392 52.1426C25.5654 53.8298 37.1056 66.7835 40.1161 68.6039C40.5287 68.8592 41.0193 69.0368 41.3203 68.6705C43.5073 65.9615 46.3613 63.8621 49.6048 62.5766C52.2447 61.6468 55.0125 61.1264 57.8112 61.0337C60.0412 60.8339 60.4314 60.6119 61.29 59.1578C62.3028 57.2442 63.6464 55.5232 65.2594 54.074C67.316 52.2838 69.5988 50.7688 72.0497 49.5674C72.1601 49.5052 72.2463 49.408 72.2948 49.2914C72.3433 49.1747 72.3512 49.0453 72.3173 48.9236C71.9404 47.9688 71.442 47.066 70.8344 46.2374C71.2358 46.1042 71.6818 45.9821 71.6818 45.5825C71.6818 44.4725 61.959 30.4643 59.2607 27.8225C58.9819 27.545 58.5805 27.1787 58.2126 27.2009C52.6376 27.5117 47.2075 32.7509 44.0632 37.3241C40.4618 37.1909 38.1314 36.869 34.0282 38.5895C31.1316 39.8136 28.52 41.6199 26.357 43.8953C26.0225 44.2394 23.7479 46.637 23.7145 46.8257C23.681 47.0144 23.7479 47.0144 25.3647 48.8126ZM69.9647 48.5018C65.3151 49.2899 62.3492 53.1416 60.1638 57.3263C59.1938 59.1911 59.283 59.2799 58.2572 59.2577C56.4634 59.1566 54.6641 59.2235 52.8829 59.4575C51.5764 59.6519 50.2919 59.9716 49.0473 60.4121C46.2152 61.4111 42.9705 64.6079 41.2423 66.9833C41.2056 67.0322 41.1589 67.0728 41.1053 67.1024C41.0518 67.132 40.9925 67.1501 40.9314 67.1553C40.8704 67.1606 40.8089 67.1529 40.751 67.1328C40.6931 67.1127 40.6402 67.0807 40.5956 67.0388C36.9718 63.3203 30.5606 56.7935 27.3382 53.0417C27.1821 52.8752 27.4497 52.631 27.6059 52.8086C29.6909 55.0286 35.0763 60.3455 40.852 66.1286C42.8033 63.6533 45.8138 60.6563 48.7908 59.6129C50.4142 59.0364 52.1035 58.6636 53.8195 58.5029C55.4265 58.3814 57.0404 58.3814 58.6474 58.5029C59.3053 57.7481 62.5611 49.1789 69.9424 48.2243C69.964 48.2401 69.9818 48.2605 69.9943 48.2841C70.0069 48.3077 70.014 48.3337 70.0151 48.3604C70.0162 48.3871 70.0112 48.4136 70.0005 48.4381C69.9899 48.4626 69.9738 48.4844 69.9535 48.5018H69.9647ZM58.2014 28.1C60.4314 29.654 69.5075 43.0295 70.6894 45.3716C68.6386 46.0185 66.6587 46.8701 64.7799 47.9135C63.0008 48.8014 61.4431 50.0732 60.2201 51.6363C58.9972 53.1993 58.14 55.0143 57.7108 56.9489C53.708 50.4665 48.1218 43.3292 44.4089 38.0789C44.6319 37.9346 50.8982 28.5329 58.2014 28.1ZM34.2735 39.2C38.3433 37.5683 40.5956 37.9457 43.9629 38.09C47.3079 43.7732 53.3177 51.7874 57.276 57.0377C53.6227 56.1771 49.7782 56.7035 46.4939 58.514C44.5204 59.624 42.112 62.288 40.629 63.9419C38.4882 62.2325 26.134 49.1345 24.1493 46.9145C27.2044 43.4735 30.0254 40.8872 34.2735 39.1556V39.2ZM13.8691 67.4273C13.5935 67.2348 13.2677 67.126 12.9312 67.1142C12.5948 67.1024 12.2621 67.188 11.9735 67.3607C11.7634 67.454 11.5738 67.5876 11.4156 67.7538C11.2573 67.9201 11.1335 68.1157 11.0512 68.3296C10.9689 68.5435 10.9297 68.7714 10.9358 69.0003C10.942 69.2293 10.9934 69.4548 11.0871 69.664C11.1808 69.8731 11.315 70.0619 11.482 70.2195C11.649 70.377 11.8455 70.5003 12.0604 70.5822C12.2752 70.6642 12.5041 70.7032 12.7341 70.697C12.9641 70.6909 13.1906 70.6397 13.4008 70.5464C13.7364 70.4734 14.0418 70.3004 14.2765 70.0506C14.5112 69.8008 14.6641 69.4859 14.7149 69.1476C14.7657 68.8093 14.712 68.4636 14.5609 68.1564C14.4099 67.8492 14.1686 67.5949 13.8691 67.4273ZM13.1332 69.6473C12.3527 69.8915 11.8843 69.6473 11.6948 69.2699C11.338 68.4818 11.784 67.2719 12.9436 67.6271C13.7576 67.9268 14.4154 69.2921 13.1332 69.7028V69.6473ZM70.5668 16.6337C70.8901 17.2886 72.3954 17.0444 73.0532 16.8335C73.3989 16.7225 73.6219 16.6004 73.6553 16.2674C73.7557 15.4349 73.8672 8.21992 73.4881 7.52062C73.4489 7.44729 73.3889 7.38711 73.3155 7.34762C73.2421 7.30812 73.1586 7.29108 73.0755 7.29862C71.8859 7.29533 70.7023 7.4674 69.5633 7.80922C69.1061 8.08672 70.1654 15.9011 70.5668 16.6337ZM69.7974 8.07562C70.8274 7.92893 71.8691 7.88061 72.9083 7.93132C72.9752 8.75272 72.7968 15.8678 72.7856 15.9788C72.3146 16.1469 71.8116 16.2076 71.3138 16.1564C71.2358 15.9011 71.102 15.2129 70.9347 14.3471C70.4434 12.2783 70.0638 10.1848 69.7974 8.07562ZM12.7875 58.0589C12.8945 58.1135 13.013 58.1419 13.1332 58.1419C13.2533 58.1419 13.3718 58.1135 13.4788 58.0589C13.9096 57.7944 14.2512 57.4079 14.46 56.9489C14.4884 56.8755 14.4971 56.796 14.4854 56.7181C14.4737 56.6403 14.4419 56.5669 14.3931 56.5049C13.8579 55.8722 8.0153 49.1345 7.3017 49.5563C6.42555 50.121 5.59429 50.7518 4.81525 51.4433C4.78385 51.4713 4.7587 51.5055 4.74141 51.5437C4.72413 51.582 4.7151 51.6234 4.7149 51.6653C4.6926 52.2425 11.1819 57.4151 12.7875 58.0589ZM7.4355 49.8449C8.24945 50.4332 10.9923 53.8076 13.5345 56.7935C13.4252 56.965 13.2898 57.1185 13.1332 57.2486C10.4603 55.5456 7.9084 53.6616 5.4954 51.6098C6.1003 50.9775 6.74856 50.3878 7.4355 49.8449ZM24.9521 25.3583C25.1974 21.0515 27.7173 19.0535 30.3487 18.5429C29.6017 21.2735 29.7243 24.8255 32.4338 25.2806C33.7272 25.4915 34.3627 24.8255 35.2993 24.0485C39.3022 20.7185 36.0687 17.3885 31.5529 17.6216C33.2366 13.0262 37.1279 9.28552 42.2904 9.16342C42.3377 9.16342 42.3831 9.14471 42.4165 9.1114C42.45 9.07809 42.4688 9.03292 42.4688 8.98582C42.4688 8.93871 42.45 8.89354 42.4165 8.86024C42.3831 8.82693 42.3377 8.80822 42.2904 8.80822C36.7154 8.69722 32.3334 12.6932 30.6052 17.6882C27.6281 18.1988 24.6734 20.4188 24.5953 25.2917C24.591 25.315 24.5912 25.339 24.5961 25.3622C24.601 25.3854 24.6105 25.4075 24.6239 25.4271C24.6374 25.4466 24.6546 25.4634 24.6746 25.4764C24.6945 25.4893 24.7169 25.4982 24.7403 25.5026C24.7637 25.507 24.7878 25.5067 24.8111 25.5018C24.8344 25.497 24.8566 25.4875 24.8762 25.4741C24.8959 25.4607 24.9127 25.4436 24.9258 25.4237C24.9388 25.4039 24.9478 25.3816 24.9521 25.3583ZM31.2965 18.4097C32.9578 18.2987 35.4331 18.8093 36.1133 20.3078C36.5035 21.1625 36.1133 22.217 34.7307 23.3714C34.3553 23.7458 33.9271 24.0636 33.4596 24.3149C31.7871 25.0253 29.9362 22.9718 31.2965 18.4097ZM34.4854 175.397C33.4082 175.11 32.2841 175.04 31.1793 175.192C30.0746 175.343 29.0114 175.713 28.0525 176.28C27.0936 176.847 26.2582 177.599 25.5955 178.492C24.9329 179.385 24.4563 180.401 24.1939 181.48C23.6986 183.722 24.1181 186.067 25.3602 188.001C26.6023 189.935 28.5652 191.299 30.817 191.792C33.0689 192.285 35.4253 191.867 37.3679 190.631C39.3105 189.394 40.6801 187.44 41.1754 185.198C41.387 184.117 41.3815 183.005 41.1593 181.926C40.937 180.847 40.5024 179.822 39.8805 178.911C39.2586 178 38.4617 177.22 37.5358 176.617C36.6098 176.014 35.5731 175.599 34.4854 175.397ZM37.9307 184.444C37.4834 186.22 36.4123 187.778 34.9113 188.837C33.4103 189.895 31.5783 190.384 29.7466 190.216C28.0652 189.561 26.6693 188.338 25.8046 186.761C24.9399 185.183 24.6617 183.352 25.019 181.591C25.4363 179.771 26.4973 178.162 28.0083 177.058C29.5192 175.953 31.379 175.426 33.2477 175.575C34.9458 176.273 36.3419 177.545 37.1904 179.168C38.0388 180.79 38.2852 182.658 37.8861 184.444H37.9307Z" fill="#6C27FF"/>
<path d="M49.3368 178.561C48.3661 178.227 47.3258 178.147 46.3151 178.328C45.8962 177.372 45.3807 176.46 44.7764 175.608C45.5012 174.953 47.4859 173.133 47.0064 172.278C45.3001 170.246 43.2743 168.503 41.0077 167.117C40.0613 166.589 39.0191 166.253 37.9415 166.129C37.2279 166.229 35.5331 168.993 35.154 169.614C34.9087 169.614 34.039 169.337 33.9721 169.303C33.9721 168.504 33.7379 165.618 33.0132 165.285C32.2027 164.988 31.3611 164.783 30.5044 164.675C29.7128 164.553 22.5879 165.851 22.0639 166.806C21.7182 167.45 22.521 169.881 22.7552 170.558C22.1538 170.887 21.5763 171.258 21.0269 171.668C19.9119 172.456 20.213 172.423 20.0123 172.334C19.7697 172.218 19.5098 172.143 19.2429 172.112C18.3522 171.592 17.3079 171.396 16.2882 171.557C15.2624 171.89 12.8428 177.373 12.4526 178.783C12.3249 179.138 12.2903 179.52 12.3522 179.893C12.6198 180.625 14.4038 181.214 15.1509 181.447C14.9446 182.875 14.9446 184.325 15.1509 185.754C14.1697 186.02 12.1292 186.619 12.2407 187.618C12.3522 188.617 14.9613 195.211 16.0429 195.733C16.6353 196.062 17.2905 196.265 17.9664 196.328C18.6423 196.392 19.3239 196.313 19.9677 196.099C20.3302 195.919 20.6804 195.715 21.0158 195.488C21.4618 195.821 21.9301 196.121 22.4095 196.41C22.0639 197.264 21.2945 199.174 21.5398 200.039C21.6625 200.494 22.0304 200.639 22.5433 200.827C23.9594 201.338 31.586 203.158 32.7456 202.959C33.1804 202.892 33.4146 202.437 33.5484 202.004C33.7961 201.019 33.9418 200.011 33.9832 198.996C34.5558 198.94 35.1252 198.854 35.6892 198.741C36.0336 199.344 36.4742 199.888 36.9937 200.35C37.5624 200.75 38.0418 200.55 38.6885 200.139C39.0007 200.539 39.469 201.094 39.9708 201.149C41.2307 201.294 46.4378 196.41 46.973 195.411C47.419 194.578 45.7911 193.091 45.0663 192.436C45.8503 191.261 46.4658 189.984 46.8949 188.64C47.6991 188.76 48.513 188.805 49.3256 188.773C49.6936 188.773 50.1173 188.64 50.2734 188.296C50.9535 186.753 50.7528 180.903 50.2734 179.416C50.2065 178.983 49.7047 178.694 49.3368 178.561ZM49.6044 179.582C49.9835 181.025 50.1061 186.475 49.5486 187.885C48.5846 187.979 47.6119 187.935 46.6608 187.752C46.5592 187.734 46.4548 187.756 46.3682 187.811C46.2815 187.866 46.2188 187.952 46.1925 188.051C45.7484 189.552 45.059 190.97 44.152 192.247C44.0874 192.332 44.0583 192.438 44.0708 192.544C44.0832 192.649 44.1363 192.746 44.2189 192.813C45.0012 193.43 45.6659 194.182 46.1813 195.033C45.6238 195.943 41.2642 199.917 40.06 200.25C39.8816 200.25 39.391 199.584 39.2683 199.407C38.8565 198.791 38.484 198.149 38.1533 197.486C38.105 197.39 38.0223 197.315 37.9212 197.276C37.8201 197.237 37.7081 197.236 37.607 197.275C34.3735 198.485 33.147 197.775 33.147 198.574C33.1484 199.771 32.9525 200.959 32.5672 202.093C29.9469 201.809 27.3665 201.236 24.8737 200.383C24.9941 199.198 25.3264 198.044 25.8549 196.976C26.1894 196.232 24.8514 196.443 22.3538 193.912C22.2734 193.838 22.1679 193.797 22.0583 193.797C21.9487 193.797 21.8432 193.838 21.7628 193.912C20.6478 194.822 19.1983 195.71 18.9084 195.566C18.3398 195.289 15.7195 189.372 15.5634 188.173C16.3565 187.623 17.2568 187.245 18.206 187.063C18.3072 187.035 18.3946 186.971 18.452 186.883C18.5094 186.795 18.5329 186.69 18.5182 186.586C18.2449 185.014 18.2449 183.407 18.5182 181.835C18.5352 181.739 18.5148 181.639 18.461 181.557C18.4072 181.474 18.324 181.415 18.2283 181.391C17.3877 181.172 16.5784 180.848 15.8199 180.426C15.5746 180.248 15.5969 180.259 15.6192 180.07C16.3409 177.479 17.4982 175.028 19.0422 172.822C19.6443 172.656 21.2722 173.843 21.8297 174.265C21.888 174.321 21.966 174.353 22.0471 174.353C22.1283 174.353 22.2063 174.321 22.2646 174.265C22.7769 173.736 23.3285 173.246 23.9148 172.8C25.6096 171.523 26.0667 171.69 25.9218 171.246C25.4092 170.132 25.1213 168.929 25.0744 167.705C25.2472 167.562 25.4433 167.449 25.6542 167.372C26.6951 166.962 27.7646 166.628 28.8542 166.373C30.1749 166.007 31.5324 165.787 32.9017 165.718C33.1358 165.818 33.3477 166.828 33.4034 167.139C33.816 169.359 33.5372 169.814 33.8606 169.847C37.0383 170.158 37.685 171.035 37.908 170.647C38.5263 169.57 39.2469 168.555 40.06 167.616C40.2941 167.383 40.283 167.272 40.9854 167.672C43.084 169.037 44.9635 170.71 46.5604 172.633C46.7277 172.922 45.2782 174.454 44.2189 175.353C43.851 175.675 44.375 175.819 45.3339 177.64C46.2928 179.46 46.0698 179.971 46.5827 179.86C47.5715 179.624 48.589 179.53 49.6044 179.582ZM204.355 86.8305C202.018 85.8801 199.567 85.2346 197.063 84.9102C195.235 84.6216 193.083 84.333 191.265 84.0999C193.016 81.6357 198.2 75.3975 199.07 73.8768C199.315 73.4661 198.847 72.8889 198.501 72.5448C196.561 70.4802 192.815 69.7032 189.938 69.2592C188.288 68.9928 181.397 68.1492 180.227 68.7042C178.822 69.3702 168.43 84.9102 168.118 87.2745C168.118 87.6741 168.252 87.8295 168.642 87.9738C170.281 88.5732 177.673 89.5056 179.323 89.8941C177.093 93.7791 167.181 106.91 166.211 108.764C165.977 109.23 166.122 109.508 166.401 109.597C167.404 109.993 168.437 110.312 169.489 110.551C169.891 110.673 170.771 110.129 172.054 109.352C177.807 105.911 202.493 89.6832 204.389 87.5853C204.441 87.536 204.482 87.4762 204.509 87.4097C204.536 87.3433 204.548 87.2718 204.545 87.2002C204.542 87.1286 204.523 87.0586 204.491 86.9948C204.458 86.931 204.412 86.8749 204.355 86.8305ZM180.394 100.15C170.916 106.378 167.716 108.198 167.605 108.276C169.132 105.956 178.621 93.0132 180.249 89.9163C180.277 89.8564 180.292 89.7911 180.292 89.7249C180.291 89.6588 180.276 89.5936 180.247 89.534C180.218 89.4744 180.177 89.422 180.125 89.3806C180.073 89.3392 180.013 89.3098 179.948 89.2947C178.833 88.8951 170.716 88.0293 168.798 87.3522C169.043 85.2876 179.167 69.681 180.394 69.0594C181.62 68.4378 193.517 69.8475 195.747 71.4348C194.577 73.7103 188.11 81.6801 187.062 83.5338C186.85 83.9112 186.783 84.2775 187.195 84.3774C187.608 84.4773 198.089 85.6983 200.375 86.442C197.587 88.7619 183.516 98.0637 180.394 100.106V100.15ZM108.867 32.2851C108.867 32.385 108.934 32.5071 109.101 33.1509C109.145 33.2905 109.241 33.4078 109.37 33.4782C109.499 33.5486 109.65 33.5665 109.792 33.5283C109.934 33.487 110.054 33.3914 110.125 33.2623C110.196 33.1333 110.213 32.9814 110.171 32.8401C110.06 32.4072 109.959 32.0409 109.892 31.8633C109.827 31.7414 109.719 31.6479 109.589 31.6012C109.458 31.5544 109.315 31.5577 109.187 31.6104C109.059 31.6631 108.955 31.7614 108.896 31.8861C108.837 32.0108 108.826 32.1531 108.867 32.2851Z" fill="#6C27FF"/>
</svg>
