<svg width="223" height="222" viewBox="0 0 223 222" fill="none" xmlns="http://www.w3.org/2000/svg">
<path d="M78.9087 166.611C80.7674 165.956 82.6717 165.436 84.6063 165.057L84.8405 165.912C84.8667 166.012 84.9284 166.1 85.0144 166.16C85.1004 166.219 85.2049 166.245 85.3088 166.234L92.9688 165.346C95.0762 160.562 98.9452 153.313 99.001 153.202C98.9452 151.393 99.001 149.872 99.001 148.141C94.619 149.761 86.513 152.836 82.276 154.801C82.1802 154.862 82.1061 154.952 82.0641 155.057C82.0221 155.163 82.0143 155.279 82.0418 155.389C82.0418 155.389 82.1199 155.666 82.2202 156.066C80.1463 156.066 73.9358 155.766 72.4417 157.176C72.2094 157.498 72.0952 157.89 72.1183 158.286C72.0291 159.818 72.7985 171.717 74.025 175.214C74.6605 177.045 75.9985 176.845 76.9128 175.091C77.9711 172.45 78.6504 169.674 78.931 166.844C78.931 166.7 78.8975 166.711 78.9087 166.611ZM77.6264 156.677C78.9867 156.566 79.4104 156.588 82.3317 156.499C82.8558 158.475 83.9373 162.537 84.4948 164.613C82.5276 164.916 80.5858 165.365 78.6857 165.956C78.0936 162.895 77.7395 159.792 77.6264 156.677Z" fill="black"/>
<path d="M181.533 59.53C181.812 59.1415 181.455 58.642 181.154 58.2535C182.007 57.3803 182.953 56.6024 183.975 55.9336C185.7 55.0777 187.277 53.9536 188.647 52.6036C189.216 52.0153 190.286 50.8054 189.885 50.095C189.483 49.3846 188.77 49.3402 187.8 49.7509C188.22 49.3116 188.563 48.8051 188.814 48.2524C189.127 47.3866 188.391 46.6873 186.796 47.3311C187.376 46.4098 187.51 45.4441 186.529 44.9779C185.737 44.6005 184.577 45.4996 183.908 46.0879C182.595 47.2306 181.362 48.4619 180.218 49.7731C179.515 48.3079 178.4 46.6207 177.007 47.1535C175.613 47.6863 176.694 50.0728 177.408 51.3715L174.877 53.1142C174.494 52.9086 174.062 52.8126 173.628 52.8367C170.751 53.3251 157.539 63.3373 156.201 63.3373C155.175 63.3373 140.524 56.3443 127.857 54.3241C127.833 54.2485 127.787 54.1813 127.726 54.1302C127.665 54.0791 127.591 54.0463 127.512 54.0355C125.302 53.6602 123.062 53.493 120.822 53.536C120.754 53.5406 120.688 53.5598 120.628 53.5924C120.568 53.625 120.516 53.6701 120.476 53.7247H119.539C119.316 52.8256 118.491 50.7499 118.201 49.9507C118.96 49.2958 120.008 48.9628 120.554 47.9083C121.558 45.9547 121.513 42.5581 121.234 40.3825C122.494 39.4279 122.528 37.8961 122.238 36.331C122.126 35.6983 121.781 34.2664 121.245 33.9112C120.944 33.7114 120.309 33.9112 119.762 34.111C119.216 32.8456 119.216 33.4228 119.439 32.9122C119.543 32.6769 119.603 32.425 119.617 32.1685C120.208 32.3461 121.435 31.1695 121.011 29.6155C120.789 29.0592 120.517 28.5242 120.197 28.0171C120.353 27.6397 120.688 27.1846 119.64 25.7971C119.188 25.3124 118.602 24.9723 117.956 24.8203H117.443C117.073 24.2856 116.53 23.8937 115.905 23.7103C114.96 23.4706 113.959 23.6101 113.117 24.0988C112.894 24.2653 112.716 24.4873 112.493 24.6427C111.988 24.3379 111.41 24.1768 110.82 24.1768C110.23 24.1768 109.652 24.3379 109.148 24.6427C108.852 24.758 108.584 24.9315 108.358 25.1528C108.132 25.374 107.953 25.6385 107.832 25.9303C107.286 25.7427 106.706 25.6704 106.13 25.7182C105.554 25.766 104.995 25.9327 104.487 26.2078C102.561 27.2476 101.12 28.9967 100.473 31.0807C100.455 31.395 100.455 31.71 100.473 32.0242H100.35C98.6778 31.78 96.5481 35.7316 98.2541 38.8063C98.4548 39.1726 98.7112 39.5167 98.9565 39.9163C99.6701 41.0263 99.3914 41.3593 100.986 42.7135C101.454 43.1131 101.532 43.0798 101.822 43.324C102.112 43.5682 102 43.4461 102.168 44.0677C102.259 44.4339 102.422 44.7784 102.648 45.0814C102.874 45.3843 103.158 45.6397 103.483 45.8326C103.602 46.9183 104.067 47.9376 104.81 48.7408C105.046 49.003 105.32 49.2277 105.624 49.4068C105.706 49.4528 105.798 49.4794 105.892 49.4845C106.226 51.5491 106.639 54.2353 106.817 55.3786L105.825 55.9114C104.527 56.4315 103.264 57.0359 102.045 57.7207C101.949 57.7866 101.882 57.8855 101.856 57.9982C100.674 58.6198 99.5586 59.2081 98.9231 59.5855C90.07 64.8136 64.9267 99.2791 64.6703 100.855C64.642 100.946 64.642 101.042 64.6703 101.133C65.0307 101.705 65.4698 102.225 65.9748 102.676C65.8192 102.958 65.6322 103.223 65.4173 103.464C63.1873 104.918 59.8423 107.082 58.0472 109.014C57.9213 109.126 57.8268 109.268 57.7731 109.427C57.7194 109.586 57.7084 109.757 57.741 109.922C57.7736 110.086 57.8489 110.24 57.9593 110.367C58.0697 110.494 58.2114 110.59 58.3705 110.646C58.705 110.757 58.7608 110.723 60.935 109.536C60.3375 110.057 59.8488 110.691 59.4967 111.4C59.3517 112.011 59.9092 112.366 60.6117 112.255C61.0069 112.152 61.3832 111.987 61.7267 111.767C61.5256 112.076 61.4186 112.436 61.4186 112.804C61.4186 113.173 61.5256 113.533 61.7267 113.842C62.8417 115.241 65.763 110.834 67.3017 109.746C67.9261 110.535 68.7735 112.377 70.1226 111.889C71.2934 111.456 70.0111 108.892 70.1226 108.148C70.5763 107.714 71.0607 107.314 71.5721 106.949C72.4322 107.584 73.4157 108.034 74.46 108.27C76.2997 108.27 95.5 88.9783 96.9607 87.4354C96.4366 92.3416 93.7941 113.398 94.3516 117.494C94.608 119.348 99.0792 119.614 100.964 119.714C100.395 133.034 100.016 153.214 99.9154 153.425C96.9607 159.763 96.1579 161.495 95.1655 163.415C93.3592 166.856 85.7549 179.554 84.8964 182.44C84.7737 182.895 84.7626 183.073 85.242 183.917C83.8052 185.42 82.4716 187.019 81.2503 188.701C80.6371 189.811 83.2685 200.156 85.1305 203.819C85.5542 204.64 86.2455 205.906 87.171 205.872C89.9585 205.773 89.9473 195.805 89.8693 193.019C89.8688 192.933 89.8371 192.85 89.7801 192.786C90.2853 192.035 90.8364 191.316 91.4303 190.632C91.7847 190.875 92.1575 191.09 92.5453 191.276C92.9244 191.442 93.3481 191.154 93.6603 190.899C97.3732 187.99 117.399 163.149 121.691 151.427C123.643 146.077 126.241 138.684 126.976 133.445C127.426 130.132 127.468 126.777 127.099 123.455C127.099 123.408 127.118 123.363 127.151 123.329C127.185 123.296 127.23 123.277 127.278 123.277C127.325 123.277 127.37 123.296 127.404 123.329C127.437 123.363 127.456 123.408 127.456 123.455C128.014 126.796 128.123 130.197 127.779 133.567C126.954 140.838 121.19 155.989 118.112 161.561C120.766 161.073 126.163 160.007 128.772 159.23C137.469 156.6 145.497 148.752 146.199 139.938C146.426 135.786 146.426 131.625 146.199 127.473C146.124 121.741 145.375 116.038 143.969 110.479C146.333 109.203 148.496 107.704 149.198 106.328C150.704 103.386 146.723 86.4586 145.853 81.7078C150.614 82.2295 158.721 83.173 162.5 80.2315C166.827 76.7683 176.17 67.0225 181.533 59.53ZM89.2672 192.408C87.2602 191.198 84.4504 188.323 84.0267 186.07C84.4838 185.493 84.9633 184.96 85.4093 184.361C86.9203 186.656 88.8044 188.686 90.9843 190.366C90.3719 191.012 89.7985 191.694 89.2672 192.408ZM177.91 51.6823C177.967 51.6457 178.009 51.5884 178.025 51.5224C178.042 51.4563 178.032 51.3865 177.999 51.3271C177.609 50.6056 176.438 48.0637 177.252 47.7751C177.72 47.5975 178.133 47.8861 178.478 48.2746C179.006 48.9412 179.417 49.6918 179.694 50.4946C179.714 50.5599 179.752 50.6183 179.804 50.6637C179.855 50.7091 179.918 50.7397 179.986 50.7522C180.053 50.7648 180.123 50.7588 180.188 50.7349C180.252 50.7111 180.309 50.6702 180.352 50.6167C181.467 49.3846 184.076 46.5763 185.547 45.8215C186.662 45.2443 186.93 46.3099 184.198 48.7963C183.571 49.2726 182.968 49.7801 182.392 50.317C182.36 50.3606 182.343 50.413 182.343 50.4669C182.343 50.5207 182.36 50.5731 182.392 50.6167C182.392 50.9053 182.626 51.2272 183.028 50.9275C183.997 50.0805 185.021 49.2981 186.094 48.5854C186.641 48.1982 187.278 47.9539 187.945 47.875C187.61 48.8962 184.499 51.6712 184.232 51.982C184.147 52.0578 184.095 52.1636 184.088 52.2768C184.081 52.3901 184.118 52.5016 184.193 52.5874C184.268 52.6733 184.373 52.7265 184.487 52.7358C184.6 52.745 184.713 52.7095 184.8 52.6369C186.038 51.8377 188.201 49.9729 188.948 50.2504C189.695 50.5279 187.476 52.5925 186.919 53.0809C183.719 55.8448 184.544 54.0688 180.842 57.8206C179.231 56.0634 177.381 54.539 175.345 53.2918L177.91 51.6823ZM129.463 104.774C129.273 103.242 129.039 101.588 128.749 99.8674L129.229 99.2347C131.459 96.382 132.128 91.8421 131.916 88.279C133.109 93.4849 134.057 98.602 134.781 103.686L129.463 104.774ZM112.883 66.7672C109.95 64.5472 105.234 60.7177 102.491 58.0981L106.951 55.8781C111.046 59.6863 114.552 64.0779 117.354 68.9095C121.638 76.7442 124.816 85.1297 126.798 93.829L110.898 71.4403L112.972 67.1557C113 67.0897 113.006 67.0169 112.99 66.9473C112.974 66.8777 112.936 66.8148 112.883 66.7672ZM120.42 54.1798C120.487 54.3019 121.257 55.9336 122.427 58.7863C122.427 58.9084 122.215 61.6834 122.115 62.6602C120.692 62.0986 119.35 61.3522 118.123 60.4402C118.369 59.4745 119.473 55.09 119.551 54.1021L120.42 54.1798ZM116.462 66.1012C116.54 65.9014 116.618 65.635 116.707 65.3242L117.454 65.7127C117.878 65.9902 117.711 65.1466 118.09 67.5886C118.09 67.9993 118.201 68.4544 118.224 68.9539C117.711 68.0326 117.075 67.0447 116.473 66.1012H116.462ZM115.838 65.1688C113.731 62.1944 111.333 59.4355 108.679 56.9326L117.075 60.5623C116.752 61.3282 116.284 63.6703 115.849 65.1688H115.838ZM124.412 71.6734C123.297 68.6431 122.438 65.2576 122.015 64.3696C122.04 64.0927 122.04 63.814 122.015 63.5371C122.176 63.5969 122.345 63.6342 122.516 63.6481C122.624 63.6493 122.728 63.6118 122.81 63.5424C122.892 63.4731 122.946 63.3766 122.962 63.2707C123.052 62.9044 123.197 61.0507 123.219 60.64C126.462 68.7924 129.17 77.1461 131.325 85.6483C125.025 72.3061 125.995 76.1689 124.423 71.6734H124.412ZM133.633 92.8633C131.091 80.731 126.62 65.6017 121.535 54.3907C123.402 54.3917 125.267 54.5402 127.11 54.8347C128.058 63.2707 127.266 62.9821 127.902 63.3151C128.537 63.6481 132.362 65.1799 132.931 65.413C132.875 66.2677 133.678 90.7099 133.644 92.8633H133.633ZM120.799 34.6216C121.381 35.8844 121.586 37.2867 121.39 38.662C121.3 39.0121 121.113 39.3302 120.851 39.5809C120.59 39.8317 120.263 40.0053 119.909 40.0823C119.554 40.1594 119.185 40.137 118.842 40.0175C118.499 39.8981 118.196 39.6863 117.967 39.4057C117.435 38.29 117.035 37.1167 116.774 35.9092C117.075 35.5207 120.286 34.7437 120.799 34.6216ZM105.457 45.7216C105.05 45.537 104.633 45.374 104.208 45.2332C103.923 45.1166 103.669 44.9366 103.464 44.7069C103.26 44.4772 103.111 44.2041 103.03 43.9083C102.948 43.6126 102.935 43.3021 102.993 43.0007C103.05 42.6993 103.176 42.415 103.361 42.1696C104.063 41.5813 104.699 41.6146 105.279 42.4915C105.647 43.1686 105.635 43.2241 105.803 43.2907C105.851 43.3118 105.903 43.3224 105.955 43.3218C106.007 43.3212 106.059 43.3095 106.107 43.2875C106.154 43.2654 106.196 43.2335 106.23 43.1938C106.265 43.1542 106.29 43.1077 106.304 43.0576C106.47 42.3628 106.496 41.6425 106.382 40.9375C106.249 40.1716 106.226 36.775 106.249 36.664C106.574 36.8349 106.94 36.9154 107.308 36.8971C109.326 36.8194 109.727 35.7871 110.53 34.9435C111.456 35.0323 111.645 35.4763 112.693 34.9435C113.184 34.6656 113.634 34.322 114.031 33.9223C114.352 34.0529 114.661 34.2088 114.957 34.3885C115.625 34.7084 116.379 34.8067 117.107 34.6688C117.836 34.531 118.5 34.1643 119.004 33.6226C119.127 33.8557 119.238 34.0888 119.339 34.333C118.314 34.6495 117.349 35.1334 116.484 35.7649C116.295 35.998 116.574 37.2634 116.64 37.5631C115.706 37.6801 114.803 37.97 113.976 38.4178C113.808 37.8406 113.44 36.7639 112.861 36.4642C112.686 36.4111 112.5 36.4111 112.325 36.4642C111.322 36.6196 107.72 37.6963 107.286 38.2846C106.906 38.6953 107.988 41.8699 108.323 42.3916C109.605 44.3674 113.362 43.7902 114.065 41.4814C114.239 40.7066 114.239 39.9031 114.065 39.1282C114.388 39.1282 115.358 38.7841 115.47 38.7508C116.239 40.4713 116.462 40.5712 117.354 42.4249C117.231 42.5248 117.031 42.6913 116.863 42.8023C116.072 43.324 115.905 43.2352 115.949 43.4572C115.962 43.5013 115.991 43.5391 116.03 43.5636C116.069 43.5882 116.115 43.5977 116.161 43.5904C116.629 43.5238 117.086 43.397 117.521 43.213C117.782 43.1163 117.996 42.9263 118.123 42.6802C118.436 41.9809 116.707 39.3502 116.027 38.5621C116.161 38.5621 116.473 38.3401 116.707 38.218C117.02 39.4612 117.231 40.438 118.436 40.9264C118.784 41.0572 119.155 41.1168 119.526 41.1015C119.898 41.0863 120.263 40.9965 120.599 40.8376C120.777 42.7912 120.744 45.9658 119.807 47.6974C119.328 48.5965 118.146 48.9406 117.387 49.6843C117.164 49.8952 117.309 50.1949 117.387 50.5168C118.625 53.9467 118.647 53.9356 118.581 54.3796C118.252 56.2224 117.794 58.04 117.209 59.8186C116.93 59.6965 113.797 58.0426 107.665 55.6672C107.475 54.4129 106.46 47.7196 106.137 46.4875C106.159 46.0546 106.104 45.9547 105.457 45.6661V45.7216ZM113.262 41.1928C112.905 42.4027 111.222 42.9244 110.017 42.5914C108.813 42.2584 108.735 41.6479 108.166 40.2049C107.9 39.6537 107.716 39.0665 107.62 38.4622C107.988 38.0626 112.013 37.2412 112.515 37.1635C113.219 38.362 113.483 39.7666 113.262 41.1373V41.1928ZM69.632 107.837C69.2083 108.248 69.777 109.591 69.8662 110.757C69.8662 110.856 69.8662 111.289 69.7993 111.323C69.186 111.522 68.6174 110.601 68.2717 110.046C67.9261 109.491 67.5804 108.736 67.0341 108.936C65.9191 109.458 63.3323 112.877 62.3176 113.232C61.8047 112.255 64.7372 109.469 64.8375 109.314C64.8805 109.242 64.9031 109.16 64.9027 109.077C64.9023 108.994 64.879 108.912 64.8353 108.841C64.7916 108.771 64.7292 108.713 64.6549 108.675C64.5806 108.637 64.4972 108.62 64.4138 108.625C64.2131 108.625 64.0793 108.803 63.7671 109.08C62.8175 110.003 61.7306 110.774 60.5448 111.367C61.6199 110.139 62.7706 108.979 63.9901 107.893C64.0503 107.831 64.0927 107.754 64.1128 107.671C64.1128 107.671 63.8786 107.082 63.4215 107.316C62.7748 107.671 59.6305 109.48 58.6381 109.946C58.5043 109.857 58.5824 109.724 58.6381 109.591C60.2103 107.671 63.6668 105.34 65.7853 103.863C66.0339 103.609 66.2408 103.316 66.3985 102.998C67.8657 104.357 69.4309 105.607 71.0815 106.738C70.573 107.07 70.0886 107.437 69.632 107.837ZM95.5781 117.927C95.3328 117.772 95.1544 117.627 95.1209 117.428C94.5077 112.899 97.9196 87.2356 97.8638 86.2255C97.8638 86.1663 97.8519 86.1076 97.8288 86.053C97.8057 85.9984 97.7719 85.9489 97.7293 85.9076C97.6867 85.8662 97.6362 85.8337 97.5808 85.8121C97.5254 85.7904 97.4662 85.78 97.4067 85.7815C96.838 85.7815 97.8415 85.7815 83.6364 99.3235C82.6998 100.2 75.5415 107.016 74.3485 107.471C72.7094 107.349 66.5435 102.454 65.54 100.911C67.4801 97.0036 91.0066 64.858 99.1461 59.9407C99.7705 59.5633 100.841 58.975 102.012 58.3534C102.416 58.7335 102.853 59.0788 103.316 59.3857C105.903 61.8277 109.504 64.8691 112.236 67.1557L110.107 71.3626C110.074 71.4183 110.057 71.4815 110.057 71.5458C110.057 71.6101 110.074 71.6732 110.107 71.7289C127.4 96.4264 127.144 96.1489 127.255 96.1489C128.364 101.856 129.053 107.636 129.318 113.443C129.318 115.008 129.318 114.875 129.385 114.764C129.452 114.653 129.385 114.841 129.385 114.841C126.687 117.772 99.9823 120.502 95.5781 117.927ZM157.215 81.1528C152.164 81.8521 146.456 80.8087 145.352 80.7643C144.738 77.8052 143.516 75.0047 141.761 72.5392C141.735 72.5033 141.695 72.4787 141.651 72.4705C141.607 72.4623 141.561 72.4709 141.523 72.4948C141.485 72.5186 141.457 72.5559 141.446 72.5991C141.434 72.6423 141.439 72.6883 141.46 72.7279C142.107 74.0377 144.27 79.6876 144.805 81.064C144.638 81.5968 149.845 103.031 148.373 105.917C147.058 108.525 139.398 111.811 136.632 112.755C136.086 106.575 135.192 100.431 133.956 94.3507C134.335 91.1539 133.845 72.1507 133.7 65.1244C133.696 65.0428 133.668 64.964 133.621 64.8972C133.574 64.8304 133.508 64.7783 133.432 64.747L128.426 62.6491C128.403 60.0113 128.236 57.3767 127.924 54.757C140.423 56.9104 154.985 64.0255 156.201 64.0366C157.962 64.0366 171.052 54.0466 173.762 53.647C174.966 53.4583 180.14 57.9538 180.742 59.197C175.457 66.5452 166.169 76.2022 161.865 79.5433C160.478 80.4662 158.878 81.0203 157.215 81.1528Z" fill="black"/>
<path d="M112.112 38.972C112.099 38.8991 112.07 38.8297 112.029 38.7676C111.989 38.7056 111.936 38.6522 111.874 38.6104C111.813 38.5687 111.743 38.5394 111.67 38.5243C111.597 38.5092 111.522 38.5086 111.449 38.5224C111.376 38.5363 111.306 38.5644 111.244 38.605C111.181 38.6457 111.128 38.6982 111.086 38.7596C111.044 38.8209 111.014 38.8898 110.999 38.9625C110.984 39.0351 110.984 39.11 110.997 39.1829C111.22 40.2929 111.265 40.5482 111.756 40.5482C111.848 40.5485 111.94 40.5258 112.021 40.4821C112.103 40.4384 112.173 40.3751 112.223 40.298C112.274 40.2208 112.305 40.1323 112.313 40.0403C112.321 39.9483 112.306 39.8558 112.269 39.7712C112.235 39.5936 112.135 39.0719 112.112 38.972ZM115.524 46.3202C116.249 46.5311 116.94 46.187 116.918 46.0094C116.896 45.8318 116.918 45.9206 115.937 45.5543C115.279 45.3101 114.554 44.4443 114.298 44.5775C114.041 44.7107 114.432 45.4211 114.521 45.5543C114.759 45.9146 115.113 46.1844 115.524 46.3202ZM135.918 35.7752C134.457 41.8691 133.387 47.0417 133.208 48.074C133.09 48.5231 133.067 48.992 133.141 49.4504C133.732 50.7047 141.37 53.18 142.34 52.6916C143.31 52.2032 145.83 46.5533 148.762 40.7258C150.559 40.7829 152.356 40.6527 154.126 40.3373C155.988 39.9971 157.801 39.4265 159.522 38.639C163.291 36.9074 167.416 29.4926 167.974 25.763C168.392 21.7138 167.531 17.6356 165.51 14.0969C156.155 -2.05361 128.715 6.63769 130.945 24.5753C131.582 28.6798 133.297 32.5436 135.918 35.7752ZM142.719 48.9953C142.719 49.1729 142.518 49.1507 141.604 48.9953C139.734 48.7613 137.923 48.1856 136.263 47.297C135.483 46.8752 135.271 46.7864 135.349 46.5977C135.427 46.409 135.594 46.4756 136.799 46.8086C136.91 46.8086 140.367 47.9186 141.359 48.2627C142.641 48.8399 142.719 48.8399 142.719 48.9953ZM142.518 30.9356C143.709 30.9971 144.896 30.7524 145.964 30.2252C146.957 30.704 148.031 30.9939 149.13 31.0799C147.257 34.5542 143.455 41.636 142.229 45.41L137.501 44.1113C138.616 41.3807 141.08 34.9871 142.496 30.9356H142.518ZM142.128 30.0143C141.296 29.8891 140.528 29.4956 139.942 28.8941C139.356 28.2926 138.984 27.5163 138.884 26.6843C138.571 24.4643 139.999 21.9779 142.15 22.5662C143.5 22.9325 143.667 23.9981 143.433 25.3412C143.232 26.318 142.507 28.7711 142.106 29.9699L142.128 30.0143ZM145.161 27.3503C145.28 26.624 145.554 25.9314 145.964 25.319C146.159 24.9852 146.444 24.7125 146.787 24.532C147.13 24.3515 147.517 24.2703 147.904 24.2978C148.729 24.542 149.086 26.096 148.406 27.0728C147.752 27.9364 146.938 28.6673 146.008 29.2262C145.688 29.0392 145.434 28.7593 145.278 28.424C145.123 28.0886 145.074 27.714 145.139 27.3503H145.161ZM134.914 13.2422C139.909 7.25929 149.309 4.88389 156.099 7.34809C159.788 8.60865 162.891 11.161 164.83 14.5298C166.752 17.897 167.574 21.7764 167.182 25.6298C166.669 29.0819 162.722 36.2525 159.255 37.8398C156.084 39.2795 152.625 39.9781 149.142 39.8822C148.762 39.8822 148.361 39.8822 148.216 40.1486C147.558 41.4806 146.354 44.0558 145.172 46.4756C144.356 46.0833 143.51 45.7566 142.641 45.4988C143.935 41.8136 148.015 34.5764 149.956 31.0688C151.637 31.2122 153.326 30.9216 154.861 30.2252C155.276 30.0078 155.62 29.6772 155.853 29.2721C156.086 28.867 156.197 28.4042 156.175 27.9381C156.153 27.4719 155.998 27.0218 155.727 26.6405C155.457 26.2591 155.083 25.9624 154.65 25.7852C152.921 24.9416 151.372 26.9618 150.468 28.6601C150.223 29.1041 149.944 29.6258 149.632 30.2141C148.73 30.1551 147.841 29.9721 146.99 29.6702C147.838 29.0769 148.59 28.3583 149.22 27.539C149.573 27.0083 149.752 26.3816 149.732 25.7453C149.712 25.1091 149.494 24.4947 149.108 23.987C148.805 23.6368 148.384 23.4086 147.925 23.3453C147.465 23.2819 146.998 23.3877 146.611 23.6429C145.83 24.1206 145.204 24.8124 144.808 25.6355C144.413 26.4585 144.264 27.3777 144.381 28.2827C144.502 28.7935 144.778 29.2548 145.172 29.6036C144.441 29.9051 143.656 30.0562 142.864 30.0476C143.31 28.7378 144.035 26.3735 144.224 25.4078C144.343 24.8572 144.37 24.2908 144.302 23.7317C144.216 23.2517 143.992 22.8067 143.658 22.4503C143.324 22.0938 142.893 21.8412 142.418 21.7226C139.709 20.9567 137.713 23.9426 138.103 26.7287C138.213 27.7271 138.644 28.6636 139.331 29.3994C140.017 30.1352 140.924 30.631 141.916 30.8135C140.489 34.8095 138.259 41.2586 137.144 44.0114L134.691 43.3787C136.263 35.5199 136.453 35.7086 136.23 35.6087C133.696 32.393 132.075 28.5599 131.536 24.5087C131.273 22.4999 131.438 20.4585 132.02 18.5173C132.602 16.5762 133.588 14.7788 134.914 13.2422ZM150.39 30.2807C151.171 28.871 152.732 25.7852 154.248 26.54C154.552 26.6616 154.816 26.8634 155.012 27.1236C155.209 27.3838 155.33 27.6925 155.363 28.0163C155.341 29.9699 152.286 30.314 150.346 30.2807H150.39ZM193.073 35.1758C194.416 34.3891 196.003 34.1205 197.533 34.421C199.212 34.4509 200.817 35.1196 202.018 36.2899C203.218 37.4601 203.923 39.0433 203.988 40.7147C202.978 40.1312 201.797 39.9117 200.643 40.0931C197.845 40.3373 194.188 41.8469 194.678 44.5331C195.08 46.7531 198.023 46.4534 200.253 45.854C202.483 45.2546 204.256 44.1668 204.713 42.0245C207.423 43.9892 208.058 47.4302 208.17 50.7935C208.17 50.8406 208.188 50.8858 208.222 50.9191C208.255 50.9524 208.301 50.9711 208.348 50.9711C208.395 50.9711 208.441 50.9524 208.474 50.9191C208.508 50.8858 208.526 50.8406 208.526 50.7935C208.604 47.0306 207.924 43.3454 204.836 41.2031C204.868 40.2394 204.703 39.2792 204.351 38.3809C203.999 37.4825 203.468 36.6645 202.789 35.9765C202.11 35.2885 201.299 34.7447 200.403 34.3781C199.507 34.0115 198.546 33.8298 197.577 33.8438C196.029 33.6188 194.451 33.9408 193.117 34.754C192.705 34.9538 192.894 35.2535 193.073 35.1758ZM203.241 43.1345C201.981 44.7773 198.413 45.632 196.763 45.3545C196.15 45.2546 195.648 44.9993 195.514 44.3666C195.113 42.1466 198.96 40.9367 201.257 40.859C202.192 40.7876 203.125 41.0256 203.91 41.5361C203.826 42.1164 203.596 42.6662 203.241 43.1345ZM187.966 22.1999C189.159 20.7347 188.356 18.1817 185.022 18.1706C183.729 18.1706 183.104 19.4804 183.194 20.7347C183.394 23.7206 186.773 23.6318 187.966 22.1999ZM183.974 20.6792C183.974 19.9466 184.32 18.992 185.089 19.0031C186.884 19.0031 187.709 19.8356 187.709 20.7569C187.665 22.8548 183.829 23.9426 183.974 20.6792ZM183.517 146.52C173.716 142.624 169.167 161.483 161.161 177.689C161.111 178.37 161.133 179.055 161.228 179.731C161.228 181.429 161.418 192.674 162.41 193.95C162.678 194.461 163.804 193.95 164.328 193.628C168.779 190.885 172.973 187.75 176.86 184.26C176.894 184.222 176.919 184.178 176.934 184.13C176.949 184.083 176.955 184.032 176.95 183.982C179.024 181.041 186.795 165.723 188.679 158.042C189.995 152.603 188.691 148.551 183.517 146.52ZM187.018 160.617C181.771 159.948 176.698 158.298 172.066 155.755C174.675 150.838 177.897 145.232 183.216 147.341C189.137 149.683 189.014 154.534 187.018 160.584V160.617ZM168.464 189.477C168.122 189.191 167.748 188.945 167.349 188.744C165.843 187.982 164.102 187.815 162.477 188.278C162.365 186.957 161.73 178.366 161.73 178.288C170.081 181.329 167.506 180.009 175.779 184.104C174.909 184.926 171.642 187.201 168.464 189.455V189.477ZM174.218 157.353C175.305 157.945 176.422 158.482 177.563 158.963C175.007 162.959 172.749 167.137 170.806 171.462C168.933 175.358 169 175.335 167.093 179.587C165.978 179.232 164.863 178.899 163.748 178.566C164.952 176.179 173.515 158.73 174.218 157.331V157.353ZM167.528 179.698C171.152 173.226 174.842 165.179 178.009 159.107C179.124 159.573 180.239 159.951 181.354 160.284C180.763 161.394 179.035 164.346 178.578 165.201C178.12 166.056 173.538 175.047 173.214 175.735C172.702 176.845 171.297 179.942 170.862 180.93C169.724 180.43 168.632 180.053 167.483 179.676L167.528 179.698ZM171.263 181.074C171.943 179.842 174.742 174.669 175.088 174.003C175.612 172.971 181.454 161.083 181.778 160.395C182.803 160.683 183.885 160.928 184.576 161.061C182.536 166.611 176.66 177.3 174.541 182.573C172.612 181.674 172.177 181.452 171.219 181.052L171.263 181.074ZM171.943 156.077L173.939 157.187C169.917 164.006 166.414 171.115 163.458 178.455L161.786 177.944C168.264 164.202 168.565 162.404 171.899 156.055L171.943 156.077ZM176.537 183.538L174.853 182.739C176.671 179.187 182.357 170.074 184.955 161.139C185.58 161.25 186.193 161.349 186.784 161.427C183.919 169.038 180.478 176.422 176.492 183.516L176.537 183.538ZM141.604 190.742C142.049 190.376 142.366 189.88 142.512 189.324C142.658 188.769 142.625 188.181 142.418 187.645C142.324 186.872 141.967 186.154 141.408 185.609C140.849 185.064 140.12 184.725 139.341 184.647C138.562 184.57 137.78 184.758 137.123 185.182C136.467 185.606 135.975 186.24 135.728 186.979C134.301 186.058 132.751 185.081 131.268 184.149C132.383 182.673 135.661 183.327 135.996 184.537C136.003 184.584 136.029 184.627 136.068 184.655C136.106 184.683 136.155 184.695 136.202 184.687C136.249 184.68 136.292 184.654 136.32 184.616C136.348 184.577 136.36 184.529 136.353 184.482C136.185 182.55 132.149 181.418 130.521 183.694C129.083 182.817 127.299 181.751 125.805 180.941C127.087 179.831 129.952 180.453 130.265 181.607C130.279 181.646 130.308 181.679 130.344 181.7C130.381 181.721 130.424 181.728 130.466 181.72C130.507 181.712 130.545 181.689 130.571 181.656C130.598 181.624 130.611 181.582 130.61 181.54C130.465 179.742 126.73 178.532 125.035 180.508C124.325 180.112 123.578 179.785 122.805 179.531C122.664 179.473 122.509 179.457 122.358 179.484C122.208 179.512 122.069 179.582 121.958 179.687C119.137 183.183 109.626 192.263 105.233 193.317C105.122 193.334 105.018 193.379 104.931 193.449C104.844 193.518 104.776 193.609 104.736 193.713C104.695 193.816 104.682 193.928 104.699 194.038C104.716 194.148 104.762 194.252 104.831 194.339C105.796 195.313 106.901 196.14 108.11 196.792C106.995 197.902 106.125 198.901 105.478 199.622C105.144 199.977 104.965 206.771 105.255 208.269C105.298 208.416 105.393 208.542 105.523 208.624C106.928 209.579 125.024 217.371 126.875 216.328C128.113 215.628 142.886 200.322 143.121 199.855C143.477 199.123 143.355 194.239 143.332 192.285C143.243 191.697 142.139 191.064 141.604 190.742ZM105.924 205.405V202.93C110.551 205.15 121.144 209.679 125.158 210.944C126.184 211.277 126.273 211.233 126.808 210.944C129.874 208.991 140.701 196.847 142.686 194.994V197.336C136.665 203.341 126.44 213.864 126.251 213.264C125.147 213.198 106.883 205.849 105.924 205.405ZM141.325 187.002C141.726 187.674 141.942 188.44 141.95 189.222C141.946 189.47 141.885 189.715 141.771 189.936C141.656 190.158 141.493 190.35 141.292 190.498C140.355 189.876 138.583 188.722 136.486 187.368C137.635 185.115 140.188 185.081 141.281 187.002H141.325ZM105.645 194.106C110.395 192.707 119.416 184.049 122.448 180.297C123.178 180.499 123.882 180.786 124.545 181.152C123.43 183.216 124.623 185.481 125.046 185.159C125.281 184.981 124.857 184.915 124.79 183.827C124.761 183.032 124.942 182.244 125.314 181.54C126.853 182.34 128.659 183.383 130.187 184.26C129.25 186.336 130.376 188.389 130.766 188.089C131.157 187.79 130.588 187.856 130.521 186.768C130.494 186.055 130.631 185.345 130.922 184.693C132.495 185.614 134.1 186.569 135.572 187.468C135.345 188.021 135.255 188.62 135.31 189.215C135.364 189.81 135.561 190.383 135.884 190.887C135.899 190.906 135.917 190.921 135.938 190.933C135.959 190.945 135.982 190.953 136.006 190.956C136.029 190.959 136.054 190.958 136.077 190.951C136.1 190.945 136.122 190.934 136.141 190.92C136.16 190.905 136.176 190.887 136.188 190.866C136.2 190.846 136.207 190.823 136.21 190.799C136.214 190.775 136.212 190.751 136.206 190.728C136.199 190.705 136.189 190.684 136.174 190.665C135.974 190.224 135.875 189.744 135.884 189.26C135.894 188.776 136.012 188.3 136.23 187.867C138.828 189.444 140.924 190.764 141.571 191.197C141.448 191.308 129.819 201.609 125.86 204.673C123.262 203.996 109.626 197.258 105.645 194.106ZM106.069 200.288C111.12 202.508 122.593 207.659 125.236 208.158C125.693 208.247 125.872 208.28 126.741 207.592C130.454 204.628 142.53 192.052 142.641 192.185C142.647 192.218 142.647 192.252 142.641 192.285V194.505C140.155 196.492 126.329 210.944 126.106 210.256C124.991 210.256 106.872 202.897 105.946 202.486C105.924 202.02 106.025 200.777 106.069 200.288ZM126.373 215.584C125.258 216.217 108.277 209.346 106.002 207.947C105.917 207.24 105.876 206.528 105.88 205.816C110.763 208.214 124.968 214.185 126.273 214.13C128.18 214.03 141.66 198.923 142.619 197.868C142.63 198.435 142.574 199.002 142.452 199.556C142.262 199.922 127.109 215.173 126.373 215.584ZM33.9955 153.013C34.0736 154.201 34.1293 155.233 34.1293 156.199C34.1293 156.346 34.1881 156.487 34.2926 156.592C34.3972 156.696 34.539 156.754 34.6868 156.754C34.8347 156.754 34.9765 156.696 35.081 156.592C35.1856 156.487 35.2443 156.346 35.2443 156.199C35.2443 155.167 35.1886 154.146 35.1105 152.936C35.1002 152.788 35.0315 152.651 34.9196 152.555C34.8078 152.458 34.6618 152.409 34.514 152.42C34.3661 152.43 34.2284 152.498 34.1312 152.61C34.034 152.721 33.9852 152.866 33.9955 153.013ZM203.888 130.758C203.815 130.762 203.744 130.781 203.679 130.813C203.613 130.845 203.555 130.89 203.507 130.944C203.459 130.999 203.423 131.063 203.4 131.132C203.378 131.201 203.369 131.274 203.375 131.346C203.442 132.367 203.509 133.466 203.509 134.532C203.509 134.679 203.568 134.82 203.672 134.924C203.777 135.028 203.919 135.087 204.066 135.087C204.214 135.087 204.356 135.028 204.461 134.924C204.565 134.82 204.624 134.679 204.624 134.532C204.624 133.422 204.557 132.312 204.479 131.268C204.475 131.196 204.456 131.125 204.424 131.06C204.392 130.995 204.347 130.937 204.292 130.889C204.237 130.842 204.173 130.805 204.103 130.783C204.034 130.76 203.961 130.752 203.888 130.758ZM31.1077 150.249C31.2555 150.249 31.3973 150.191 31.5019 150.087C31.6064 149.983 31.6652 149.842 31.6652 149.694C31.6652 149.547 31.6064 149.406 31.5019 149.302C31.3973 149.198 31.2555 149.139 31.1077 149.139C29.7585 149.139 28.6324 149.239 27.5174 149.217C27.3685 149.217 27.2255 149.275 27.1192 149.379C27.0128 149.483 26.9516 149.624 26.9487 149.772C26.9487 149.919 27.0075 150.061 27.112 150.165C27.2166 150.269 27.3584 150.327 27.5062 150.327C28.6547 150.349 29.9146 150.305 31.1077 150.249ZM200.432 127.472C199.094 127.472 197.967 127.55 196.841 127.561C196.693 127.561 196.552 127.62 196.447 127.724C196.342 127.828 196.284 127.969 196.284 128.116C196.284 128.263 196.342 128.404 196.447 128.509C196.552 128.613 196.693 128.671 196.841 128.671C198.045 128.671 199.294 128.671 200.498 128.582C200.646 128.573 200.785 128.507 200.883 128.396C200.981 128.286 201.031 128.141 201.022 127.994C201.014 127.847 200.946 127.709 200.836 127.611C200.725 127.513 200.579 127.463 200.432 127.472ZM33.6945 143.39C33.7614 144.411 33.8283 145.51 33.8283 146.575C33.8311 146.722 33.8908 146.861 33.9947 146.965C34.0986 147.068 34.2388 147.128 34.3858 147.13C34.5336 147.13 34.6754 147.072 34.78 146.968C34.8845 146.864 34.9433 146.723 34.9433 146.575C34.9433 145.465 34.8764 144.355 34.8095 143.312C34.7991 143.165 34.7305 143.028 34.6186 142.931C34.5067 142.834 34.3608 142.786 34.2129 142.796C34.0651 142.806 33.9274 142.874 33.8302 142.986C33.7329 143.097 33.6841 143.242 33.6945 143.39ZM204.323 124.908C204.323 123.798 204.256 122.688 204.178 121.645C204.168 121.498 204.099 121.361 203.987 121.264C203.875 121.167 203.729 121.118 203.581 121.129C203.434 121.139 203.296 121.207 203.199 121.319C203.101 121.43 203.053 121.575 203.063 121.722C203.13 122.744 203.197 123.843 203.197 124.908C203.197 125.055 203.255 125.197 203.36 125.301C203.465 125.405 203.606 125.463 203.754 125.463C203.903 125.463 204.046 125.405 204.152 125.301C204.259 125.198 204.32 125.056 204.323 124.908ZM41.9232 150.105C41.9964 150.102 42.0683 150.085 42.1349 150.055C42.2014 150.024 42.2613 149.981 42.311 149.927C42.3607 149.873 42.3993 149.811 42.4246 149.742C42.4499 149.674 42.4614 149.601 42.4584 149.528C42.4471 149.383 42.3811 149.247 42.2735 149.148C42.166 149.049 42.0249 148.995 41.8786 148.995C40.5294 149.051 39.4033 149.095 38.2771 149.073C38.1293 149.073 37.9875 149.131 37.8829 149.235C37.7784 149.34 37.7196 149.481 37.7196 149.628C37.7196 149.775 37.7784 149.916 37.8829 150.02C37.9875 150.124 38.1293 150.183 38.2771 150.183C39.4702 150.205 40.719 150.161 41.9232 150.105ZM211.247 127.328C210.132 127.383 208.894 127.417 207.657 127.417C207.583 127.414 207.51 127.426 207.441 127.452C207.372 127.478 207.309 127.517 207.256 127.568C207.203 127.619 207.161 127.68 207.132 127.747C207.103 127.815 207.088 127.887 207.088 127.961C207.088 128.109 207.146 128.251 207.251 128.357C207.355 128.463 207.497 128.524 207.646 128.527C208.917 128.527 209.942 128.527 211.292 128.438C211.365 128.435 211.437 128.418 211.503 128.387C211.57 128.357 211.63 128.313 211.679 128.26C211.729 128.206 211.768 128.143 211.793 128.075C211.818 128.006 211.83 127.934 211.827 127.861C211.813 127.716 211.746 127.582 211.639 127.484C211.532 127.386 211.393 127.33 211.247 127.328ZM16.3005 117.216C16.4454 117.327 47.8884 112.687 49.2376 111.866C49.3123 111.811 49.3719 111.739 49.4109 111.656C49.4499 111.572 49.467 111.48 49.4606 111.388C49.4606 109.956 47.5762 96.5144 46.6731 93.1622C46.5616 92.7515 46.4501 92.3408 46.1936 92.1965C44.4877 91.1753 14.4273 96.8141 12.6321 97.9685C12.5835 97.9971 12.5414 98.0356 12.5088 98.0815C12.4761 98.1274 12.4535 98.1797 12.4426 98.2349C12.0635 99.578 15.3304 116.55 16.3005 117.216ZM13.1227 98.5013C15.2635 97.5356 42.5476 92.5628 45.6696 92.9513C46.4278 94.8938 48.4571 109.124 48.5909 111.211C47.041 111.666 16.7242 116.85 16.6127 116.872C16.5012 116.894 16.49 117.027 16.2559 116.328C15.2747 113.397 13.067 101.01 13.1227 98.5013Z" fill="black"/>
<path d="M51.6908 112.854C51.7515 112.742 51.7786 112.615 51.7689 112.488C51.7689 110.723 49.2267 91.1313 48.3235 89.5662C48.2527 89.4508 48.1525 89.3561 48.033 89.2918C47.9136 89.2274 47.7791 89.1957 47.6434 89.1999C43.9081 88.7448 12.3982 94.872 10.3243 96.3039C10.0344 96.5037 10.079 97.0032 10.1125 97.536C10.2909 100.455 13.4575 119.658 14.5725 119.547C14.6951 119.547 14.6505 119.458 14.3606 120.047C12.6212 123.61 9.32082 135.021 9.38772 137.318C9.38772 138.284 9.61072 139.538 10.5696 139.472C17.4492 138.628 51.1779 133.3 60.8784 131.313C61.2575 131.236 61.5028 130.891 61.4917 130.325C61.3772 129.382 61.09 128.468 60.6443 127.628C59.284 125.086 53.6421 115.018 51.6908 112.854ZM14.6394 119.203C13.7697 118.093 10.5696 98.9679 10.8149 96.8478C13.2679 95.5824 44.3541 89.5995 47.6099 90.0879C48.5019 92.5299 50.81 110.168 50.9549 112.288C47.0078 113.642 19.6792 118.038 14.6394 119.203ZM15.13 119.536C16.0666 119.303 47.9667 113.986 50.888 113.22C52.4825 114.697 59.6854 127.45 60.1537 128.538C53.7536 129.648 15.7878 135.964 10.2017 136.808C10.2797 133.444 13.7474 121.69 15.13 119.536Z" fill="black"/>
<path d="M19.3234 131.046C20.2934 130.902 40.8763 128.438 48.3133 126.429C48.3592 126.417 48.3984 126.388 48.4225 126.347C48.4465 126.306 48.4534 126.258 48.4416 126.212C48.4297 126.167 48.4002 126.128 48.3594 126.104C48.3186 126.08 48.27 126.073 48.2241 126.085C46.7635 126.384 28.9458 128.749 19.301 130.702C19.2744 130.698 19.247 130.699 19.221 130.706C19.1949 130.714 19.1709 130.727 19.1507 130.745C19.1305 130.763 19.1147 130.785 19.1044 130.81C19.0941 130.835 19.0897 130.862 19.0914 130.889C19.0932 130.915 19.101 130.942 19.1144 130.965C19.1278 130.988 19.1464 131.009 19.1688 131.024C19.1911 131.039 19.2166 131.049 19.2434 131.053C19.2702 131.057 19.2975 131.055 19.3234 131.046ZM34.3647 53.8126C33.9482 54.7491 33.598 55.7135 33.3166 56.6986C33.3 56.8567 33.3438 57.0152 33.4392 57.1426C34.5654 58.8298 46.1056 71.7835 49.1161 73.6039C49.5287 73.8592 50.0193 74.0368 50.3203 73.6705C52.5073 70.9615 55.3613 68.8621 58.6048 67.5766C61.2447 66.6468 64.0125 66.1264 66.8112 66.0337C69.0412 65.8339 69.4314 65.6119 70.29 64.1578C71.3028 62.2442 72.6464 60.5232 74.2594 59.074C76.316 57.2838 78.5988 55.7688 81.0497 54.5674C81.1601 54.5052 81.2463 54.408 81.2948 54.2914C81.3433 54.1747 81.3512 54.0453 81.3173 53.9236C80.9404 52.9688 80.442 52.066 79.8344 51.2374C80.2358 51.1042 80.6818 50.9821 80.6818 50.5825C80.6818 49.4725 70.959 35.4643 68.2607 32.8225C67.9819 32.545 67.5805 32.1787 67.2126 32.2009C61.6376 32.5117 56.2075 37.7509 53.0632 42.3241C49.4618 42.1909 47.1314 41.869 43.0282 43.5895C40.1316 44.8136 37.52 46.6199 35.357 48.8953C35.0225 49.2394 32.7479 51.637 32.7145 51.8257C32.681 52.0144 32.7479 52.0144 34.3647 53.8126ZM78.9647 53.5018C74.3151 54.2899 71.3492 58.1416 69.1638 62.3263C68.1938 64.1911 68.283 64.2799 67.2572 64.2577C65.4634 64.1566 63.6641 64.2235 61.8829 64.4575C60.5764 64.6519 59.2919 64.9716 58.0473 65.4121C55.2152 66.4111 51.9705 69.6079 50.2423 71.9833C50.2056 72.0322 50.1589 72.0728 50.1053 72.1024C50.0518 72.132 49.9925 72.1501 49.9314 72.1553C49.8704 72.1606 49.8089 72.1529 49.751 72.1328C49.6931 72.1127 49.6402 72.0807 49.5956 72.0388C45.9718 68.3203 39.5606 61.7935 36.3382 58.0417C36.1821 57.8752 36.4497 57.631 36.6059 57.8086C38.6909 60.0286 44.0763 65.3455 49.852 71.1286C51.8033 68.6533 54.8138 65.6563 57.7908 64.6129C59.4142 64.0364 61.1035 63.6636 62.8195 63.5029C64.4265 63.3814 66.0404 63.3814 67.6474 63.5029C68.3053 62.7481 71.5611 54.1789 78.9424 53.2243C78.964 53.2401 78.9818 53.2605 78.9943 53.2841C79.0069 53.3077 79.014 53.3337 79.0151 53.3604C79.0162 53.3871 79.0112 53.4136 79.0005 53.4381C78.9899 53.4626 78.9738 53.4844 78.9535 53.5018H78.9647ZM67.2014 33.1C69.4314 34.654 78.5075 48.0295 79.6894 50.3716C77.6386 51.0185 75.6587 51.8701 73.7799 52.9135C72.0008 53.8014 70.4431 55.0732 69.2201 56.6363C67.9972 58.1993 67.14 60.0143 66.7108 61.9489C62.708 55.4665 57.1218 48.3292 53.4089 43.0789C53.6319 42.9346 59.8982 33.5329 67.2014 33.1ZM43.2735 44.2C47.3433 42.5683 49.5956 42.9457 52.9629 43.09C56.3079 48.7732 62.3177 56.7874 66.276 62.0377C62.6227 61.1771 58.7782 61.7035 55.4939 63.514C53.5204 64.624 51.112 67.288 49.629 68.9419C47.4882 67.2325 35.134 54.1345 33.1493 51.9145C36.2044 48.4735 39.0254 45.8872 43.2735 44.1556V44.2ZM22.8691 72.4273C22.5935 72.2348 22.2677 72.126 21.9312 72.1142C21.5948 72.1024 21.2621 72.188 20.9735 72.3607C20.7634 72.454 20.5738 72.5876 20.4156 72.7538C20.2573 72.9201 20.1335 73.1157 20.0512 73.3296C19.9689 73.5435 19.9297 73.7714 19.9358 74.0003C19.942 74.2293 19.9934 74.4548 20.0871 74.664C20.1808 74.8731 20.315 75.0619 20.482 75.2195C20.649 75.377 20.8455 75.5003 21.0604 75.5822C21.2752 75.6642 21.5041 75.7032 21.7341 75.697C21.9641 75.6909 22.1906 75.6397 22.4008 75.5464C22.7364 75.4734 23.0418 75.3004 23.2765 75.0506C23.5112 74.8008 23.6641 74.4859 23.7149 74.1476C23.7657 73.8093 23.712 73.4636 23.5609 73.1564C23.4099 72.8492 23.1686 72.5949 22.8691 72.4273ZM22.1332 74.6473C21.3527 74.8915 20.8843 74.6473 20.6948 74.2699C20.338 73.4818 20.784 72.2719 21.9436 72.6271C22.7576 72.9268 23.4154 74.2921 22.1332 74.7028V74.6473ZM79.5668 21.6337C79.8901 22.2886 81.3954 22.0444 82.0532 21.8335C82.3989 21.7225 82.6219 21.6004 82.6553 21.2674C82.7557 20.4349 82.8672 13.2199 82.4881 12.5206C82.4489 12.4473 82.3889 12.3871 82.3155 12.3476C82.2421 12.3081 82.1586 12.2911 82.0755 12.2986C80.8859 12.2953 79.7023 12.4674 78.5633 12.8092C78.1061 13.0867 79.1654 20.9011 79.5668 21.6337ZM78.7974 13.0756C79.8274 12.9289 80.8691 12.8806 81.9083 12.9313C81.9752 13.7527 81.7968 20.8678 81.7856 20.9788C81.3146 21.1469 80.8116 21.2076 80.3138 21.1564C80.2358 20.9011 80.102 20.2129 79.9347 19.3471C79.4434 17.2783 79.0638 15.1848 78.7974 13.0756ZM21.7875 63.0589C21.8945 63.1135 22.013 63.1419 22.1332 63.1419C22.2533 63.1419 22.3718 63.1135 22.4788 63.0589C22.9096 62.7944 23.2512 62.4079 23.46 61.9489C23.4884 61.8755 23.4971 61.796 23.4854 61.7181C23.4737 61.6403 23.4419 61.5669 23.3931 61.5049C22.8579 60.8722 17.0153 54.1345 16.3017 54.5563C15.4255 55.121 14.5943 55.7518 13.8153 56.4433C13.7839 56.4713 13.7587 56.5055 13.7414 56.5437C13.7241 56.582 13.7151 56.6234 13.7149 56.6653C13.6926 57.2425 20.1819 62.4151 21.7875 63.0589ZM16.4355 54.8449C17.2495 55.4332 19.9923 58.8076 22.5345 61.7935C22.4252 61.965 22.2898 62.1185 22.1332 62.2486C19.4603 60.5456 16.9084 58.6616 14.4954 56.6098C15.1003 55.9775 15.7486 55.3878 16.4355 54.8449ZM33.9521 30.3583C34.1974 26.0515 36.7173 24.0535 39.3487 23.5429C38.6017 26.2735 38.7243 29.8255 41.4338 30.2806C42.7272 30.4915 43.3627 29.8255 44.2993 29.0485C48.3022 25.7185 45.0687 22.3885 40.5529 22.6216C42.2366 18.0262 46.1279 14.2855 51.2904 14.1634C51.3377 14.1634 51.3831 14.1447 51.4165 14.1114C51.45 14.0781 51.4688 14.0329 51.4688 13.9858C51.4688 13.9387 51.45 13.8935 51.4165 13.8602C51.3831 13.8269 51.3377 13.8082 51.2904 13.8082C45.7154 13.6972 41.3334 17.6932 39.6052 22.6882C36.6281 23.1988 33.6734 25.4188 33.5953 30.2917C33.591 30.315 33.5912 30.339 33.5961 30.3622C33.601 30.3854 33.6105 30.4075 33.6239 30.4271C33.6374 30.4466 33.6546 30.4634 33.6746 30.4764C33.6945 30.4893 33.7169 30.4982 33.7403 30.5026C33.7637 30.507 33.7878 30.5067 33.8111 30.5018C33.8344 30.497 33.8566 30.4875 33.8762 30.4741C33.8959 30.4607 33.9127 30.4436 33.9258 30.4237C33.9388 30.4039 33.9478 30.3816 33.9521 30.3583ZM40.2965 23.4097C41.9578 23.2987 44.4331 23.8093 45.1133 25.3078C45.5035 26.1625 45.1133 27.217 43.7307 28.3714C43.3553 28.7458 42.9271 29.0636 42.4596 29.3149C40.7871 30.0253 38.9362 27.9718 40.2965 23.4097ZM43.4854 180.397C42.4082 180.11 41.2841 180.04 40.1793 180.192C39.0746 180.343 38.0114 180.713 37.0525 181.28C36.0936 181.847 35.2582 182.599 34.5955 183.492C33.9329 184.385 33.4563 185.401 33.1939 186.48C32.6986 188.722 33.1181 191.067 34.3602 193.001C35.6023 194.935 37.5652 196.299 39.817 196.792C42.0689 197.285 44.4253 196.867 46.3679 195.631C48.3105 194.394 49.6801 192.44 50.1754 190.198C50.387 189.117 50.3815 188.005 50.1593 186.926C49.937 185.847 49.5024 184.822 48.8805 183.911C48.2586 183 47.4617 182.22 46.5358 181.617C45.6098 181.014 44.5731 180.599 43.4854 180.397ZM46.9307 189.444C46.4834 191.22 45.4123 192.778 43.9113 193.837C42.4103 194.895 40.5783 195.384 38.7466 195.216C37.0652 194.561 35.6693 193.338 34.8046 191.761C33.9399 190.183 33.6617 188.352 34.019 186.591C34.4363 184.771 35.4973 183.162 37.0083 182.058C38.5192 180.953 40.379 180.426 42.2477 180.575C43.9458 181.273 45.3419 182.545 46.1904 184.168C47.0388 185.79 47.2852 187.658 46.8861 189.444H46.9307Z" fill="black"/>
<path d="M58.3368 183.561C57.3661 183.227 56.3258 183.147 55.3151 183.328C54.8962 182.372 54.3807 181.46 53.7764 180.608C54.5012 179.953 56.4859 178.133 56.0064 177.278C54.3001 175.246 52.2743 173.503 50.0077 172.117C49.0613 171.589 48.0191 171.253 46.9415 171.129C46.2279 171.229 44.5331 173.993 44.154 174.614C43.9087 174.614 43.039 174.337 42.9721 174.303C42.9721 173.504 42.7379 170.618 42.0132 170.285C41.2027 169.988 40.3611 169.783 39.5044 169.675C38.7128 169.553 31.5879 170.851 31.0639 171.806C30.7182 172.45 31.521 174.881 31.7552 175.558C31.1538 175.887 30.5763 176.258 30.0269 176.668C28.9119 177.456 29.213 177.423 29.0123 177.334C28.7697 177.218 28.5098 177.143 28.2429 177.112C27.3522 176.592 26.3079 176.396 25.2882 176.557C24.2624 176.89 21.8428 182.373 21.4526 183.783C21.3249 184.138 21.2903 184.52 21.3522 184.893C21.6198 185.625 23.4038 186.214 24.1509 186.447C23.9446 187.875 23.9446 189.325 24.1509 190.754C23.1697 191.02 21.1292 191.619 21.2407 192.618C21.3522 193.617 23.9613 200.211 25.0429 200.733C25.6353 201.062 26.2905 201.265 26.9664 201.328C27.6423 201.392 28.3239 201.313 28.9677 201.099C29.3302 200.919 29.6804 200.715 30.0158 200.488C30.4618 200.821 30.9301 201.121 31.4095 201.41C31.0639 202.264 30.2945 204.174 30.5398 205.039C30.6625 205.494 31.0304 205.639 31.5433 205.827C32.9594 206.338 40.586 208.158 41.7456 207.959C42.1804 207.892 42.4146 207.437 42.5484 207.004C42.7961 206.019 42.9418 205.011 42.9832 203.996C43.5558 203.94 44.1252 203.854 44.6892 203.741C45.0336 204.344 45.4742 204.888 45.9937 205.35C46.5624 205.75 47.0418 205.55 47.6885 205.139C48.0007 205.539 48.469 206.094 48.9708 206.149C50.2307 206.294 55.4378 201.41 55.973 200.411C56.419 199.578 54.7911 198.091 54.0663 197.436C54.8503 196.261 55.4658 194.984 55.8949 193.64C56.6991 193.76 57.513 193.805 58.3256 193.773C58.6936 193.773 59.1173 193.64 59.2734 193.296C59.9535 191.753 59.7528 185.903 59.2734 184.416C59.2065 183.983 58.7047 183.694 58.3368 183.561ZM58.6044 184.582C58.9835 186.025 59.1061 191.475 58.5486 192.885C57.5846 192.979 56.6119 192.935 55.6608 192.752C55.5592 192.734 55.4548 192.756 55.3682 192.811C55.2815 192.866 55.2188 192.952 55.1925 193.051C54.7484 194.552 54.059 195.97 53.152 197.247C53.0874 197.332 53.0583 197.438 53.0708 197.544C53.0832 197.649 53.1363 197.746 53.2189 197.813C54.0012 198.43 54.6659 199.182 55.1813 200.033C54.6238 200.943 50.2642 204.917 49.06 205.25C48.8816 205.25 48.391 204.584 48.2683 204.407C47.8565 203.791 47.484 203.149 47.1533 202.486C47.105 202.39 47.0223 202.315 46.9212 202.276C46.8201 202.237 46.7081 202.236 46.607 202.275C43.3735 203.485 42.147 202.775 42.147 203.574C42.1484 204.771 41.9525 205.959 41.5672 207.093C38.9469 206.809 36.3665 206.236 33.8737 205.383C33.9941 204.198 34.3264 203.044 34.8549 201.976C35.1894 201.232 33.8514 201.443 31.3538 198.912C31.2734 198.838 31.1679 198.797 31.0583 198.797C30.9487 198.797 30.8432 198.838 30.7628 198.912C29.6478 199.822 28.1983 200.71 27.9084 200.566C27.3398 200.289 24.7195 194.372 24.5634 193.173C25.3565 192.623 26.2568 192.245 27.206 192.063C27.3072 192.035 27.3946 191.971 27.452 191.883C27.5094 191.795 27.5329 191.69 27.5182 191.586C27.2449 190.014 27.2449 188.407 27.5182 186.835C27.5352 186.739 27.5148 186.639 27.461 186.557C27.4072 186.474 27.324 186.415 27.2283 186.391C26.3877 186.172 25.5784 185.848 24.8199 185.426C24.5746 185.248 24.5969 185.259 24.6192 185.07C25.3409 182.479 26.4982 180.028 28.0422 177.822C28.6443 177.656 30.2722 178.843 30.8297 179.265C30.888 179.321 30.966 179.353 31.0471 179.353C31.1283 179.353 31.2063 179.321 31.2646 179.265C31.7769 178.736 32.3285 178.246 32.9148 177.8C34.6096 176.523 35.0667 176.69 34.9218 176.246C34.4092 175.132 34.1213 173.929 34.0744 172.705C34.2472 172.562 34.4433 172.449 34.6542 172.372C35.6951 171.962 36.7646 171.628 37.8542 171.373C39.1749 171.007 40.5324 170.787 41.9017 170.718C42.1358 170.818 42.3477 171.828 42.4034 172.139C42.816 174.359 42.5372 174.814 42.8606 174.847C46.0383 175.158 46.685 176.035 46.908 175.647C47.5263 174.57 48.2469 173.555 49.06 172.616C49.2941 172.383 49.283 172.272 49.9854 172.672C52.084 174.037 53.9635 175.71 55.5604 177.633C55.7277 177.922 54.2782 179.454 53.2189 180.353C52.851 180.675 53.375 180.819 54.3339 182.64C55.2928 184.46 55.0698 184.971 55.5827 184.86C56.5715 184.624 57.589 184.53 58.6044 184.582ZM213.355 91.8305C211.018 90.8801 208.567 90.2346 206.063 89.9102C204.235 89.6216 202.083 89.333 200.265 89.0999C202.016 86.6357 207.2 80.3975 208.07 78.8768C208.315 78.4661 207.847 77.8889 207.501 77.5448C205.561 75.4802 201.815 74.7032 198.938 74.2592C197.288 73.9928 190.397 73.1492 189.227 73.7042C187.822 74.3702 177.43 89.9102 177.118 92.2745C177.118 92.6741 177.252 92.8295 177.642 92.9738C179.281 93.5732 186.673 94.5056 188.323 94.8941C186.093 98.7791 176.181 111.91 175.211 113.764C174.977 114.23 175.122 114.508 175.401 114.597C176.404 114.993 177.437 115.312 178.489 115.551C178.891 115.673 179.771 115.129 181.054 114.352C186.807 110.911 211.493 94.6832 213.389 92.5853C213.441 92.536 213.482 92.4762 213.509 92.4097C213.536 92.3433 213.548 92.2718 213.545 92.2002C213.542 92.1286 213.523 92.0586 213.491 91.9948C213.458 91.931 213.412 91.8749 213.355 91.8305ZM189.394 105.15C179.916 111.378 176.716 113.198 176.605 113.276C178.132 110.956 187.621 98.0132 189.249 94.9163C189.277 94.8564 189.292 94.7911 189.292 94.7249C189.291 94.6588 189.276 94.5936 189.247 94.534C189.218 94.4744 189.177 94.422 189.125 94.3806C189.073 94.3392 189.013 94.3098 188.948 94.2947C187.833 93.8951 179.716 93.0293 177.798 92.3522C178.043 90.2876 188.167 74.681 189.394 74.0594C190.62 73.4378 202.517 74.8475 204.747 76.4348C203.577 78.7103 197.11 86.6801 196.062 88.5338C195.85 88.9112 195.783 89.2775 196.195 89.3774C196.608 89.4773 207.089 90.6983 209.375 91.442C206.587 93.7619 192.516 103.064 189.394 105.106V105.15ZM117.867 37.2851C117.867 37.385 117.934 37.5071 118.101 38.1509C118.145 38.2905 118.241 38.4078 118.37 38.4782C118.499 38.5486 118.65 38.5665 118.792 38.5283C118.934 38.487 119.054 38.3914 119.125 38.2623C119.196 38.1333 119.213 37.9814 119.171 37.8401C119.06 37.4072 118.959 37.0409 118.892 36.8633C118.827 36.7414 118.719 36.6479 118.589 36.6012C118.458 36.5544 118.315 36.5577 118.187 36.6104C118.059 36.6631 117.955 36.7614 117.896 36.8861C117.837 37.0108 117.826 37.1531 117.867 37.2851Z" fill="black"/>
</svg>
