<svg width="180" height="153" viewBox="0 0 180 153" fill="none" xmlns="http://www.w3.org/2000/svg">
<path d="M84.1725 30.7678C65.0132 68.0538 43.2989 104.397 15.5469 135.925C66.5213 132.999 117.713 136.628 168.686 135.019C168.497 135.114 168.591 135.019 168.78 134.83C168.969 134.641 168.78 134.453 168.591 134.264C160.568 124.824 151.356 110.453 145.247 99.6764C136.225 83.7636 128.304 57.4177 123.158 39.8298C122.305 36.8874 121.643 33.893 121.176 30.8653C109.093 30.2958 96.3493 30.9593 84.1725 30.7678Z" fill="white"/>
<path d="M15.5489 136.258C15.4855 136.258 15.4232 136.24 15.3697 136.206C15.3166 136.171 15.2746 136.122 15.2485 136.064C15.2224 136.006 15.2132 135.942 15.222 135.879C15.2313 135.816 15.2588 135.757 15.3011 135.71C39.1897 108.571 60.9812 75.1786 83.8811 30.6199C83.9124 30.5681 83.9561 30.5249 84.0083 30.4942C84.0604 30.4635 84.1194 30.4463 84.1799 30.4441C96.2793 30.6313 109.158 29.9748 121.193 30.539C121.27 30.5424 121.342 30.572 121.399 30.6228C121.456 30.6735 121.493 30.7424 121.505 30.8176C121.972 33.832 122.631 36.8136 123.478 39.7443C128.768 57.6873 136.328 83.1807 145.537 99.5215C151.493 109.966 160.742 124.525 168.847 134.061C168.959 134.162 169.053 134.281 169.126 134.413C169.184 134.52 169.205 134.643 169.186 134.763C169.166 134.883 169.107 134.993 169.017 135.076C169.001 135.134 168.973 135.188 168.935 135.235C168.898 135.281 168.851 135.32 168.797 135.348C168.744 135.375 168.686 135.392 168.626 135.396C168.566 135.399 168.506 135.391 168.449 135.37C145.895 136.073 122.924 135.749 100.711 135.437C32.1033 134.466 23.2285 136.171 15.5489 136.258ZM84.375 31.1041C61.6501 75.299 40.007 108.517 16.318 135.553C66.8117 132.723 118.027 136.271 168.45 134.699C168.738 134.393 159.041 124.538 144.961 99.8432C135.72 83.4479 128.166 57.9782 122.845 39.9271C122.016 37.0557 121.365 34.1358 120.896 31.1841C109.026 30.6454 96.3276 31.2808 84.375 31.1041Z" fill="#4B1010"/>
<path d="M109.944 40.825H93.8971C93.8136 40.8189 93.7355 40.7814 93.6785 40.7201C93.6215 40.6588 93.5898 40.5782 93.5898 40.4945C93.5898 40.4108 93.6215 40.3302 93.6785 40.2689C93.7355 40.2076 93.8136 40.1702 93.8971 40.1641H109.944C110.028 40.1702 110.106 40.2076 110.163 40.2689C110.22 40.3302 110.252 40.4108 110.252 40.4945C110.252 40.5782 110.22 40.6588 110.163 40.7201C110.106 40.7814 110.028 40.8189 109.944 40.825Z" fill="#4B1010"/>
<path d="M111.828 44.3211H90.4008C90.3131 44.3211 90.2291 44.2863 90.1671 44.2243C90.1051 44.1623 90.0703 44.0783 90.0703 43.9906C90.0703 43.903 90.1051 43.8189 90.1671 43.7569C90.2291 43.695 90.3131 43.6602 90.4008 43.6602H111.828C111.916 43.6602 112 43.695 112.062 43.7569C112.124 43.8189 112.159 43.903 112.159 43.9906C112.159 44.0783 112.124 44.1623 112.062 44.2243C112 44.2863 111.916 44.3211 111.828 44.3211Z" fill="#4B1010"/>
<path d="M91.2525 48.849C91.169 48.8429 91.091 48.8054 91.034 48.7441C90.977 48.6828 90.9453 48.6022 90.9453 48.5185C90.9453 48.4348 90.977 48.3542 91.034 48.2929C91.091 48.2316 91.169 48.1942 91.2525 48.1881L106.737 48C106.82 48.0068 106.897 48.0443 106.953 48.105C107.009 48.1657 107.041 48.2452 107.041 48.328C107.042 48.4108 107.012 48.4908 106.956 48.5522C106.901 48.6137 106.824 48.6521 106.742 48.66L91.2525 48.849Z" fill="#4B1010"/>
<path d="M112.776 65.8406H84.1742C84.0866 65.8406 84.0025 65.8058 83.9405 65.7438C83.8786 65.6818 83.8438 65.5978 83.8438 65.5101C83.8438 65.4225 83.8786 65.3385 83.9405 65.2765C84.0025 65.2145 84.0866 65.1797 84.1742 65.1797H112.776C112.864 65.18 112.948 65.2147 113.01 65.2764C113.056 65.3226 113.088 65.3815 113.1 65.4457C113.113 65.5099 113.106 65.5764 113.081 65.6367C113.056 65.697 113.014 65.7486 112.96 65.7849C112.905 65.8211 112.841 65.8405 112.776 65.8406Z" fill="#4B1010"/>
<path d="M114.002 71.8797H78.6039C78.5164 71.8792 78.4326 71.8442 78.3707 71.7824C78.3089 71.7205 78.2739 71.6367 78.2734 71.5492C78.2734 71.5058 78.282 71.4628 78.2986 71.4227C78.3152 71.3827 78.3395 71.3462 78.3702 71.3155C78.4009 71.2848 78.4373 71.2605 78.4774 71.2439C78.5175 71.2273 78.5605 71.2188 78.6039 71.2188H114.002C114.09 71.2194 114.173 71.2545 114.235 71.3163C114.297 71.3781 114.332 71.4618 114.333 71.5492C114.332 71.6366 114.297 71.7203 114.235 71.7821C114.173 71.8439 114.09 71.879 114.002 71.8797Z" fill="#4B1010"/>
<path d="M112.585 78.5828H75.2953C75.2078 78.5823 75.124 78.5474 75.0621 78.4855C75.0003 78.4236 74.9653 78.3398 74.9648 78.2523C74.9648 78.1647 74.9997 78.0806 75.0616 78.0187C75.1236 77.9567 75.2077 77.9219 75.2953 77.9219H112.581C112.665 77.9275 112.743 77.9645 112.8 78.0255C112.858 78.0865 112.89 78.167 112.89 78.2507C112.891 78.3344 112.86 78.4152 112.803 78.4768C112.746 78.5384 112.668 78.5763 112.585 78.5828Z" fill="#4B1010"/>
<path d="M108.056 93.8718H80.8695C80.782 93.8714 80.6982 93.8364 80.6364 93.7746C80.5745 93.7127 80.5395 93.6289 80.5391 93.5414C80.5393 93.4538 80.5742 93.3699 80.6361 93.308C80.698 93.2461 80.782 93.2112 80.8695 93.2109H108.056C108.143 93.2116 108.227 93.2467 108.288 93.3085C108.35 93.3703 108.385 93.454 108.386 93.5414C108.385 93.6288 108.35 93.7125 108.288 93.7743C108.227 93.8361 108.143 93.8712 108.056 93.8718Z" fill="#4B1010"/>
<path d="M122.5 101.333H75.9633C75.8758 101.332 75.792 101.297 75.7301 101.235C75.6682 101.174 75.6333 101.09 75.6328 101.002C75.633 100.915 75.6679 100.831 75.7299 100.769C75.7918 100.707 75.8757 100.672 75.9633 100.672H122.5C122.588 100.673 122.671 100.708 122.733 100.769C122.795 100.831 122.83 100.915 122.831 101.002C122.83 101.09 122.795 101.173 122.733 101.235C122.671 101.297 122.588 101.332 122.5 101.333Z" fill="#4B1010"/>
<path d="M127.786 109.919H74.9242C74.8367 109.918 74.7529 109.883 74.691 109.821C74.6292 109.76 74.5942 109.676 74.5938 109.588C74.594 109.501 74.6289 109.417 74.6908 109.355C74.7527 109.293 74.8366 109.258 74.9242 109.258H127.786C127.874 109.259 127.958 109.294 128.019 109.355C128.081 109.417 128.116 109.501 128.117 109.588C128.116 109.676 128.081 109.759 128.019 109.821C127.958 109.883 127.874 109.918 127.786 109.919Z" fill="#4B1010"/>
<path d="M79.9604 11.3348C79.7122 10.4542 79.3839 9.59808 78.9796 8.77732C68.2011 5.76016 59.7227 18.5389 59.7227 25.5804C60.3713 28.1757 67.0173 31.8116 72.2773 27.6572C72.4645 27.5298 72.5999 27.3399 72.6587 27.1211L77.3387 27.0622L77.8028 20.0796C78.3181 19.0429 78.745 17.9645 79.0789 16.8559C79.7858 15.1057 80.0872 13.2181 79.9604 11.3348Z" fill="#CBB3FF"/>
<path d="M79.7335 46.3438C79.0576 45.4105 77.6567 45.3999 76.7128 44.739L76.4298 44.456C76.3349 44.2671 76.5239 43.8891 76.7128 43.7011L77.9432 42.3828L76.0554 41.1523C74.9225 42.3828 73.8143 43.7239 72.6568 44.9315C72.5401 45.0615 72.4735 45.2288 72.4688 45.4034C72.4688 45.6864 72.7517 45.8754 72.9407 45.9694C74.5273 46.7533 76.2687 47.1736 78.0381 47.1998C78.4117 47.1972 80.2872 47.112 79.7335 46.3438Z" fill="white"/>
<path d="M87.8549 29.1665C87.3229 28.6322 86.6223 28.2987 85.8722 28.2226C79.6322 26.7672 76.6669 27.0704 72.661 27.1205C71.9781 29.888 62.2227 31.0059 59.8559 25.9375C59.5667 27.831 59.8158 29.7676 60.5748 31.5262C62.5969 36.0883 65.0965 40.4234 68.032 44.4588C66.8016 44.4588 65.6713 44.4588 64.4444 44.5528C60.7418 44.7356 57.0531 45.147 53.4006 45.7833C52.599 45.7833 52.4927 47.1894 52.6447 47.9549C52.9286 48.7099 53.4006 48.6159 53.963 48.6159C61.8817 49.6011 65.1379 50.298 71.1467 50.1222C72.2074 50.2051 73.2729 50.0437 74.2614 49.6503C74.7638 49.4838 75.2125 49.186 75.5611 48.7878C75.9097 48.3896 76.1455 47.9054 76.2441 47.3854C76.3009 46.6718 76.1707 45.9557 75.8662 45.3078C75.6237 44.7022 75.4119 44.0958 75.186 43.5026C75.5463 43.6784 75.9383 43.7786 76.3382 43.7979C77.188 43.6089 78.132 42.382 78.7929 41.816C80.7628 40.1774 82.6232 38.4115 84.3623 36.5296C85.8722 35.0189 89.7427 31.6212 87.8549 29.1665ZM74.6235 42.0437C73.5279 39.226 72.3538 36.4395 71.1028 33.6874L81.3416 33.4132C80.2087 33.4149 75.7177 40.5707 74.6235 42.0437Z" fill="#CBB3FF"/>
<path d="M52.8372 46.1345C52.4183 46.003 52.0315 45.7854 51.7017 45.4956C51.3449 45.1388 51.2623 45.1484 50.7578 45.4016C49.3622 46.2372 48.0363 47.1841 46.7932 48.2333C46.3441 48.6824 46.5243 48.9882 46.8881 48.9882C48.4789 48.9882 49.3736 48.4688 52.7317 48.1436C52.506 47.4855 52.5438 46.7655 52.8372 46.1345Z" fill="white"/>
<path d="M88.1811 29.0251C87.6068 28.4443 86.8497 28.0795 86.0375 27.9925C81.6511 26.982 77.1507 26.5536 72.6523 26.7181C72.6824 26.8308 72.688 26.9485 72.6689 27.0636C72.6498 27.1786 72.6064 27.2882 72.5416 27.3852C77.0385 27.2074 81.539 27.6301 85.9241 28.6419C86.5873 28.7072 87.2086 28.9957 87.6863 29.4602C89.299 31.558 86.0322 34.5435 84.2156 36.3936C80.0744 40.6121 79.1885 41.0973 78.0284 42.282C77.5801 42.8334 77.0112 43.2745 76.3656 43.5713C76.0544 43.5274 75.7503 43.4386 75.4647 43.3076C75.3241 42.9385 75.1835 42.5755 75.0446 42.2178C75.4621 41.6132 75.8532 41.0182 76.2355 40.4372C77.9176 37.8762 77.5397 38.5442 78.423 37.2223C79.0382 36.3039 80.6527 33.8642 81.3233 33.8369C81.3691 33.8399 81.4151 33.8332 81.4582 33.8174C81.5013 33.8015 81.5406 33.7769 81.5737 33.7449C81.6067 33.713 81.6327 33.6745 81.6499 33.6319C81.6672 33.5893 81.6754 33.5436 81.6739 33.4977C81.6729 33.4517 81.6623 33.4065 81.6428 33.3649C81.6232 33.3233 81.5953 33.2862 81.5606 33.256C81.526 33.2258 81.4854 33.2032 81.4415 33.1896C81.3976 33.1759 81.3513 33.1716 81.3057 33.1769L71.3525 33.4406C71.0168 32.7041 70.6714 31.9588 70.3119 31.1977C70.2727 31.1216 70.2055 31.0636 70.1245 31.036C70.0434 31.0084 69.9548 31.0134 69.8773 31.0499C69.7999 31.0863 69.7396 31.1514 69.7092 31.2315C69.6787 31.3115 69.6806 31.4002 69.7143 31.4789C71.8991 36.1106 73.4653 40.2 75.5623 45.4389C75.8391 46.0277 75.9613 46.6781 75.9182 47.3267C75.8306 47.7925 75.6191 48.2261 75.3059 48.5818C74.9927 48.9375 74.5894 49.2022 74.1385 49.3481C73.1852 49.725 72.1581 49.8783 71.1363 49.7963C64.6739 49.9818 61.1936 49.1257 53.9658 48.2864C53.369 48.2935 53.1432 48.3444 52.9683 47.8909C52.8593 47.3443 52.905 46.1227 53.4622 46.1095C57.1024 45.4746 60.7784 45.0664 64.4692 44.887C67.6858 44.6391 68.1279 44.9977 68.3248 44.6136C68.3525 44.5595 68.3647 44.4987 68.3601 44.4381C68.3554 44.3774 68.3341 44.3193 68.2984 44.27C65.3775 40.2541 62.8899 35.9403 60.8772 31.4007C60.1961 29.8278 59.9359 28.1047 60.1223 26.4008C59.9428 26.1541 59.808 25.8777 59.7242 25.5843V24.9375C59.1552 27.1781 59.3475 29.5442 60.2708 31.6635C62.2135 36.0476 64.5972 40.2227 67.3853 44.1241C62.6956 44.2041 58.0183 44.6453 53.3963 45.4424C53.2675 45.4397 53.1397 45.4644 53.0212 45.5149C52.9027 45.5653 52.7963 45.6404 52.709 45.7351C51.4856 45.2411 51.8073 44.4941 50.583 45.112C49.1651 45.9633 47.8184 46.9279 46.5561 47.9964C45.8872 48.6661 46.237 49.3147 46.8847 49.3147C48.5063 49.3147 49.3781 48.8146 52.5587 48.4886C52.8769 48.9113 53.2759 48.957 53.9227 48.935C61.4582 49.8816 65.0905 50.6207 71.1143 50.4467C72.2235 50.533 73.3377 50.3653 74.3723 49.9563C74.9295 49.7664 75.4264 49.4321 75.8123 48.9877C76.1983 48.5432 76.4595 48.0043 76.5695 47.426C77.4791 47.5508 79.6965 47.6897 80.1078 46.8679C80.1614 46.7515 80.1803 46.6221 80.1622 46.4952C80.1441 46.3683 80.0898 46.2493 80.0058 46.1525C79.2412 45.0979 77.7761 45.0654 76.9482 44.5029C76.7268 44.2805 76.6969 44.3219 76.8226 44.103C77.457 43.75 78.0246 43.2883 78.4995 42.739C79.5128 41.7063 80.5903 41.0226 84.6885 36.8506C86.8267 34.678 90.148 31.5738 88.1811 29.0251ZM71.6478 34.0883L80.1333 33.8668C79.2907 34.792 78.5344 35.7923 77.8737 36.855C77.1706 37.9043 77.269 37.6627 75.6836 40.0743C75.3803 40.5357 75.0683 41.0059 74.7546 41.4734C73.7804 38.9863 72.7445 36.5239 71.6478 34.0883ZM52.2977 47.8523C49.3236 48.1748 48.5467 48.5993 46.8557 48.7083C46.8818 48.62 46.9335 48.5414 47.0043 48.4824C48.2274 47.4504 49.5311 46.5179 50.9029 45.6938C51.2721 45.5092 51.2369 45.4987 51.4821 45.7412C51.7537 45.9785 52.0604 46.1728 52.3909 46.3169C52.2485 46.8158 52.2167 47.3398 52.2977 47.8523ZM77.908 45.6358C78.5267 45.7764 79.0883 46.1033 79.5181 46.5709C79.0588 46.7981 78.5476 46.9 78.0363 46.8662C77.5512 46.8662 77.0669 46.831 76.587 46.7616C76.4489 45.8443 76.1739 44.9529 75.7714 44.1171C75.8848 44.1496 75.9929 44.1751 76.0905 44.1944C75.9534 44.9599 77.1811 45.3844 77.908 45.6358Z" fill="#4B1010"/>
<path d="M87.3828 4.05307C86.0047 2.675 83.6037 2.34278 82.7573 4.24202C82.5488 4.13978 82.317 4.0947 82.0853 4.11137C81.8537 4.12805 81.6307 4.20589 81.439 4.33694C80.4644 5.31161 80.104 6.10523 80.6955 8.17584C80.6955 8.17584 78.8727 8.79105 78.7233 8.86224C78.1626 9.04944 77.9385 10.9557 78.9738 11.2492C78.9738 11.2492 80.2534 10.7755 80.3993 10.6973C80.3466 11.9084 82.2994 12.9261 83.3268 12.9261C85.4036 13.1151 87.1939 11.3213 88.3302 9.71738C89.8305 7.99743 89.2838 5.57439 87.3828 4.05307Z" fill="white"/>
<path d="M82.3844 6.73091C82.2201 6.72652 82.0566 6.75508 81.9035 6.81492C81.7505 6.87476 81.6109 6.96465 81.4932 7.0793C81.3754 7.19395 81.2818 7.33103 81.2179 7.48244C81.154 7.63386 81.1211 7.79654 81.1211 7.96089C81.1211 8.12523 81.154 8.28792 81.2179 8.43933C81.2818 8.59074 81.3754 8.72782 81.4932 8.84247C81.6109 8.95712 81.7505 9.04702 81.9035 9.10685C82.0566 9.16669 82.2201 9.19526 82.3844 9.19086C82.7049 9.1823 83.0094 9.04895 83.2331 8.81922C83.4568 8.58949 83.5819 8.28152 83.5819 7.96089C83.5819 7.64025 83.4568 7.33229 83.2331 7.10255C83.0094 6.87282 82.7049 6.73948 82.3844 6.73091Z" fill="#CBB3FF"/>
<path d="M90.4053 2.45117C89.4525 1.50059 88.2877 0.789735 87.0067 0.377036C86.4513 0.206346 85.8832 0.0802667 85.3078 0C84.6507 0.0104756 84.0048 0.171957 83.42 0.471954C82.7835 0.695251 82.2105 1.06951 81.7503 1.56268C81.29 2.05586 80.9561 2.65324 80.7773 3.30367C80.484 3.93024 80.3256 4.61142 80.3123 5.3031C80.1886 5.49798 80.0833 5.70394 79.9977 5.91831C79.8966 6.23195 79.8816 6.56699 79.9542 6.88841C80.0269 7.20984 80.1846 7.50584 80.4108 7.74548C80.315 7.98277 79.3702 8.34135 79.0679 8.45912C69.8573 5.88403 61.936 14.1902 59.6888 23.3296C59.416 24.0746 59.3191 24.8726 59.4058 25.6612C59.7942 27.2142 62.9626 29.8684 66.8551 29.8684C68.8892 29.8743 70.8657 29.193 72.464 27.9349C72.6595 27.8139 72.8142 27.6371 72.9082 27.4274C73.0022 27.2176 73.0312 26.9845 72.9914 26.7581L72.8982 24.168L72.2373 23.3182C72.3348 26.9409 72.3199 26.8275 72.3489 26.9154C72.3529 27.0131 72.3299 27.1101 72.2824 27.1957C72.235 27.2812 72.165 27.3521 72.08 27.4005C70.3975 28.6995 68.2913 29.3248 66.1726 29.1545C64.0539 28.9842 62.0747 28.0305 60.6213 26.4795C60.3768 26.219 60.1852 25.9137 60.057 25.5804C59.9825 24.8716 60.0762 24.1553 60.3304 23.4895C62.4335 15.077 69.627 7.01162 78.2136 8.92492C77.9948 9.25558 77.9123 9.65803 77.9833 10.0481C78.012 10.3635 78.1183 10.6669 78.2928 10.9311C78.4674 11.1954 78.7047 11.4123 78.9835 11.5624C79.1347 11.5624 79.1593 11.4824 79.698 11.2267C79.7913 13.0634 79.473 14.8978 78.7664 16.5957L77.7162 19.5592L78.0422 20.6139C78.2813 19.9503 79.3825 16.8347 79.3825 16.8347C80.1142 15.0725 80.4479 13.1705 80.3598 11.2645C81.5436 14.0048 85.3412 14.4214 88.4823 10.2872C88.9499 10.5069 89.3665 9.60341 89.3665 9.05675C89.3814 9.43643 89.3506 9.81697 89.2724 10.1896C89.2406 10.3805 89.2586 10.5764 89.3248 10.7583C89.3911 10.9402 89.5032 11.1018 89.6503 11.2276C89.7723 11.2848 89.9079 11.3062 90.0415 11.2894C90.1752 11.2726 90.3013 11.2183 90.4053 11.1326C90.6663 10.9868 90.8667 10.753 90.9713 10.4726C92.199 8.0232 92.482 4.62285 90.4053 2.45117ZM80.1067 10.3302C79.7446 10.4709 79.3904 10.6326 79.0468 10.8136C78.8414 10.6167 78.7053 10.3586 78.6587 10.0779C78.6121 9.79719 78.6576 9.50896 78.7884 9.25626C79.2444 9.10447 79.6913 8.92665 80.1269 8.72366C80.0335 9.25459 80.0267 9.79713 80.1067 10.3302ZM87.0067 10.8523C83.3321 14.983 79.3465 11.2574 81.0603 7.83249C81.0935 7.76783 81.1052 7.69424 81.0937 7.62246C81.0821 7.55067 81.0479 7.48446 80.9961 7.43348C80.9776 7.38902 80.9504 7.34868 80.9161 7.31483C80.7692 7.16569 80.6639 6.98074 80.6105 6.77831C80.5572 6.57589 80.5577 6.36304 80.612 6.16088C81.3485 4.30295 82.731 5.05789 81.3433 6.79366C81.2483 6.8877 81.1543 7.07666 81.0603 7.17158C80.9653 7.54861 81.2483 7.64353 81.5322 7.64353C81.9295 7.5697 82.2933 7.37108 82.5702 7.07666C83.4339 6.42085 84.1429 5.58313 84.6469 4.62285C84.2954 5.84097 84.9809 7.1206 85.6857 6.41575C86.0303 5.72584 85.6603 6.29183 85.8738 7.36053C86.1823 8.90295 87.3749 8.94953 87.4725 7.54685C87.5226 8.2728 87.6975 8.98381 87.9875 9.65087C87.6904 10.0639 87.3574 10.4586 87.0067 10.8523Z" fill="#4B1010"/>
<path d="M86.7109 10.6602C86.5724 10.6602 86.4353 10.6874 86.3073 10.7404C86.1793 10.7934 86.0631 10.8711 85.9651 10.9691C85.8672 11.067 85.7895 11.1832 85.7365 11.3112C85.6835 11.4392 85.6562 11.5763 85.6562 11.7148C85.6562 11.8533 85.6835 11.9904 85.7365 12.1184C85.7895 12.2464 85.8672 12.3626 85.9651 12.4605C86.0631 12.5585 86.1793 12.6362 86.3073 12.6892C86.4353 12.7422 86.5724 12.7694 86.7109 12.7694C86.9906 12.7694 87.2589 12.6583 87.4566 12.4605C87.6544 12.2628 87.7655 11.9945 87.7655 11.7148C87.7655 11.4351 87.6544 11.1668 87.4566 10.9691C87.2589 10.7713 86.9906 10.6602 86.7109 10.6602Z" fill="#CBB3FF"/>
<path d="M85.1645 11.231C85.1589 10.5091 85.2554 9.79013 85.451 9.0953C85.5231 8.53722 86.2815 8.48625 86.4793 8.38693C86.5573 8.35022 86.6466 8.34544 86.7281 8.37362C86.8095 8.40181 86.8768 8.46072 86.9154 8.53779C86.9541 8.61486 86.9611 8.70398 86.9349 8.78613C86.9088 8.86829 86.8516 8.93697 86.7755 8.97753C86.4907 9.11991 86.2411 9.08827 86.0917 9.25877C85.9108 9.90034 85.822 10.5644 85.8281 11.231C85.8304 11.276 85.8235 11.321 85.8079 11.3632C85.7922 11.4055 85.7682 11.4442 85.7371 11.4768C85.7061 11.5095 85.6688 11.5355 85.6273 11.5533C85.5859 11.5711 85.5413 11.5802 85.4963 11.5802C85.4512 11.5802 85.4066 11.5711 85.3652 11.5533C85.3238 11.5355 85.2864 11.5095 85.2554 11.4768C85.2244 11.4442 85.2003 11.4055 85.1847 11.3632C85.1691 11.321 85.1622 11.276 85.1645 11.231Z" fill="#4B1010"/>
<path d="M89.1797 39.5491L91.2556 41.4369L90.9726 38.6992L89.1797 39.5491Z" fill="white"/>
<path d="M90.9728 38.5095C90.9728 38.5095 91.2558 39.1704 90.4068 39.6423C90.2174 39.7768 89.983 39.8322 89.7534 39.7969C89.5238 39.7617 89.3168 39.6385 89.1764 39.4534L83.5156 27.6546L85.407 26.8047L90.9728 38.5095Z" fill="#CBB3FF"/>
<path d="M91.5853 41.4007L91.3339 38.9654C91.3709 38.7683 91.3514 38.5647 91.2777 38.3783C91.2346 38.2816 86.3771 28.0076 84.9964 25.2559C84.4111 24.4754 82.2569 25.3728 82.5461 26.4467C83.1165 27.635 88.025 37.7991 88.852 39.5173C88.8471 39.5681 88.8541 39.6194 88.8726 39.667C88.891 39.7146 88.9204 39.7573 88.9583 39.7915C91.1863 41.8182 91.0755 41.7654 91.2566 41.7654C91.3029 41.7656 91.3487 41.7559 91.3911 41.7372C91.4335 41.7184 91.4714 41.6909 91.5024 41.6565C91.5334 41.6221 91.5568 41.5815 91.5711 41.5374C91.5854 41.4934 91.5902 41.4468 91.5853 41.4007ZM85.8911 28.5964L90.6695 38.6384C90.8453 39.1385 89.8583 39.7862 89.4777 39.3099L84.6062 29.1598C85.0851 29.1199 85.5372 28.9217 85.8911 28.5964ZM90.2652 40.0868C90.4392 40.0138 90.6036 39.9216 90.7565 39.8108L90.8391 40.6088L90.2652 40.0868Z" fill="#4B1010"/>
<path d="M90.8717 36.1531C90.5278 35.6198 90.0208 35.212 89.4263 34.9903C88.8318 34.7686 88.1815 34.7448 87.5724 34.9227L86.3324 35.1134C86.0089 35.892 85.4025 36.7129 84.6484 36.7164C85.1626 37.6155 86.371 37.7342 87.3835 37.5654C87.5443 37.764 87.6717 37.9873 87.7614 38.2263C88.3608 39.1263 88.9918 39.0173 88.9918 38.3212C88.8918 37.8634 88.7332 37.4203 88.5199 37.0029C88.8398 37.4037 89.1869 37.7816 89.5578 38.1367C89.7933 38.606 90.6019 38.2404 90.2187 37.4749C89.948 36.9258 89.5601 36.4427 89.0823 36.0599C89.4497 36.3499 89.7969 36.6655 90.1212 37.0029C90.9622 37.8405 91.1389 36.4202 90.8717 36.1531Z" fill="white"/>
<path d="M75.5812 12.2695L68.8789 17.0831C74.6381 27.996 79.0211 32.5152 83.3214 36.0597C83.687 36.4068 84.1475 36.6371 84.6458 36.7206C85.4948 36.7206 86.154 35.6817 86.437 34.8319C80.5846 29.0718 77.186 20.1978 75.5812 12.2695Z" fill="#CBB3FF"/>
<path d="M91.2062 35.9733C90.8142 35.3878 90.2481 34.9404 89.5879 34.6943C88.9277 34.4483 88.2068 34.4161 87.5272 34.6023L86.7538 34.7218C86.5701 34.212 79.2272 28.5864 75.9121 12.2087C75.8909 12.1268 75.8391 12.0561 75.7674 12.0112C75.6957 11.9664 75.6095 11.9507 75.5266 11.9675C75.4437 11.9843 75.3704 12.0322 75.3218 12.1015C75.2731 12.1707 75.2529 12.2559 75.2652 12.3396C76.3823 17.8686 79.2703 28.1303 86.0586 34.9186C85.7607 35.678 85.2132 36.3908 84.7122 36.3969C84.2688 36.3238 83.8583 36.1172 83.5354 35.8045C79.1841 32.2196 74.8592 27.6926 69.1756 16.9308C69.1329 16.8567 69.0633 16.8019 68.9811 16.7781C68.899 16.7543 68.8108 16.7632 68.7351 16.803C68.6595 16.8429 68.6022 16.9105 68.5753 16.9917C68.5485 17.0729 68.5541 17.1613 68.5911 17.2384C74.3372 28.1259 78.7508 32.7188 83.0925 36.2914C83.4651 36.6535 83.9344 36.9014 84.4433 37.006C84.7802 37.4023 85.2201 37.6976 85.7145 37.8594C86.2088 38.0212 86.7382 38.0431 87.2442 37.9226C87.3339 38.0817 87.4147 38.246 87.4877 38.413C88.3094 39.6434 89.3333 39.3016 89.3157 38.3752C89.7341 38.965 90.8977 38.6292 90.6033 37.5579C90.7835 37.5502 90.9575 37.4898 91.1038 37.3843C91.2501 37.2788 91.3623 37.1327 91.4264 36.9641C91.4906 36.7955 91.5039 36.6118 91.4647 36.4357C91.4256 36.2596 91.3357 36.0988 91.2062 35.9733ZM90.3581 36.7713C90.0206 36.4164 89.6572 36.0871 89.2709 35.7861C89.1999 35.7416 89.1148 35.7257 89.0325 35.7415C88.9502 35.7573 88.877 35.8037 88.8276 35.8713C88.7781 35.9389 88.7561 36.0227 88.766 36.1059C88.7758 36.189 88.8168 36.2654 88.8807 36.3196C89.3201 36.6737 89.6761 37.1193 89.9248 37.6256C90.0531 37.8831 90.025 38.1353 89.7903 37.9024C89.4309 37.5596 89.096 37.194 88.7849 36.8073C88.7354 36.7413 88.663 36.6962 88.5819 36.6808C88.5008 36.6655 88.4169 36.6811 88.3467 36.7245C88.2765 36.7679 88.2251 36.836 88.2026 36.9154C88.18 36.9949 88.1881 37.0798 88.2251 37.1536C88.4175 37.5263 88.5643 37.9209 88.6645 38.3278C88.6645 38.7936 88.2418 38.3489 88.0634 38.0852C87.8981 37.7284 87.6863 37.1879 87.3356 37.2468C86.6249 37.411 85.8782 37.2938 85.2518 36.9198C85.8505 36.5855 86.3159 36.0555 86.5701 35.4187L87.6529 35.2509C88.755 34.996 90.2535 35.3897 90.7413 36.3635C90.7799 36.4479 90.8696 37.2828 90.3546 36.7643L90.3581 36.7713Z" fill="#4B1010"/>
<path d="M83.2946 11.7606C82.8497 11.3745 82.531 10.8637 82.3798 10.2944C82.2286 9.72515 82.2518 9.12356 82.4465 8.56762C82.479 8.48886 82.5407 8.4257 82.6187 8.39134C82.6967 8.35698 82.7849 8.35407 82.865 8.38322C82.945 8.41236 83.0108 8.47132 83.0484 8.54777C83.086 8.62422 83.0927 8.71225 83.067 8.79349C82.9176 9.22432 82.9009 9.69006 83.019 10.1305C83.1372 10.5709 83.3847 10.9658 83.7296 11.264C83.7908 11.3229 83.827 11.4031 83.8306 11.488C83.8342 11.5729 83.805 11.6559 83.749 11.7198C83.693 11.7837 83.6146 11.8236 83.53 11.8312C83.4453 11.8387 83.3611 11.8135 83.2946 11.7606Z" fill="#4B1010"/>
<path d="M83.9739 7.50595C84.1978 7.26446 84.6518 7.15469 84.8292 7.311C84.9147 7.45609 84.9548 7.62348 84.9443 7.79158C84.9338 7.95967 84.8732 8.12078 84.7703 8.25412C83.915 9.08571 83.5234 7.99155 83.9739 7.50595Z" fill="#4B1010"/>
<path d="M86.6065 9.50222C86.8304 9.25986 87.2844 9.15097 87.4618 9.30728C87.5471 9.45244 87.587 9.61979 87.5765 9.78783C87.5661 9.95587 87.5056 10.117 87.4029 10.2504C86.5467 11.0811 86.1569 9.98783 86.6065 9.50222Z" fill="#4B1010"/>
<path d="M17.6223 109.117C17.1829 108.238 16.2478 108.023 15.0736 109.589C13.5556 111.579 11.7776 113.357 9.7872 114.875C5.77603 117.792 7.21914 119.638 8.74925 119.029C10.9421 118.549 13.115 117.982 15.2626 117.329L19.4161 112.138L17.6223 109.117Z" fill="#CBB3FF"/>
<path d="M9.48392 114.695C11.4958 113.181 13.2892 111.398 14.8134 109.394C16.0992 107.682 17.348 107.831 17.9149 108.964L19.7025 111.974C19.7368 112.032 19.7527 112.099 19.748 112.166C19.7433 112.233 19.7182 112.297 19.6762 112.35C15.1298 118.025 15.5015 117.608 15.3609 117.652C13.2047 118.306 11.0234 118.875 8.82213 119.357C7.04418 120.083 5.21086 117.798 9.48392 114.695ZM15.3407 109.793C13.777 111.848 11.9368 113.677 9.87238 115.229C6.76382 117.488 7.19007 119.303 8.62878 118.728C10.7969 118.251 12.9459 117.691 15.0709 117.049L19.0179 112.115L17.3296 109.273C16.8374 108.287 16.0007 108.913 15.3407 109.793Z" fill="#4B1010"/>
<path d="M57.6468 106.008C55.1235 103.799 52.1162 102.214 48.8677 101.382C44.6773 100.166 41.5353 99.2385 39.2881 98.6075C38.2853 101.445 32.6965 103.265 28.1976 102.892C24.1319 102.554 17.5756 100.842 15.751 97.2109C14.722 99.3964 14.2592 101.806 14.4053 104.217C14.5513 106.628 15.3015 108.964 16.5869 111.009C16.9648 111.481 17.0597 111.576 16.9648 112.047C15.9769 114.024 14.3642 117.943 15.9259 119.505C22.9932 121.597 30.2262 123.081 37.5461 123.942C42.2217 124.645 52.6381 125.364 54.2534 120.921C55.2923 118.294 53.8799 116.221 51.986 114.573C57.6837 114.5 62.5131 110.357 57.6468 106.008Z" fill="#4B1010"/>
<path d="M72.4671 95.4288C73.6009 95.4288 72.2035 93.9189 70.5793 93.9189C71.1506 93.9347 71.7183 93.998 72.2782 94.1078C72.4821 93.9039 72.1112 93.6359 71.9952 93.6359C70.1044 92.9547 68.0353 92.9547 66.1445 93.6359L66.5198 98.0698C66.6077 98.0698 66.5198 98.1049 69.2575 98.4477C70.6109 98.8986 72.4355 97.8457 69.2575 96.9378C71.5777 96.3578 71.8299 97.118 73.2221 96.6548C74.2407 95.6441 69.254 94.818 72.4671 95.4288Z" fill="white"/>
<path d="M66.617 93.262C65.8612 92.79 63.9734 92.8841 63.0294 92.6951C61.3306 92.4121 59.7258 92.0342 58.121 91.6572C54.8334 90.9964 51.587 90.1454 48.398 89.1084C48.1502 89.0615 47.9232 88.9385 47.7486 88.7566C47.5739 88.5746 47.4602 88.3428 47.4234 88.0933C47.3992 87.9278 47.4097 87.759 47.4541 87.5977L48.115 76.6487C48.2091 73.1552 49.0589 70.6065 47.7371 66.4538C47.012 66.4538 47.1966 66.5909 47.0771 66.8317C47.1522 67.7355 47.0495 68.6453 46.7748 69.5096C46.3415 70.5555 45.0328 67.9417 44.8114 66.8317C44.5594 65.7722 44.5918 64.665 44.9054 63.6221C45.0003 63.3391 45.3773 62.6782 45.0944 62.4901C44.8114 62.302 40.5866 63.0376 37.5431 64.283C33.4881 66.0032 29.874 68.617 26.9703 71.9292C21.7998 77.8574 17.997 84.8507 15.8315 92.413C15.392 93.5873 15.2305 94.8474 15.3596 96.0946C15.8315 98.3603 18.0023 99.8737 20.08 100.814C23.6728 102.412 28.5822 103.451 32.3507 102.703C34.7105 102.23 39.525 100.531 39.4309 97.6994C39.4046 96.7326 39.2068 95.9355 39.2613 94.9749C40.5102 96.9831 42.8805 98.036 45.1884 98.5484C48.5282 99.3191 51.9663 99.574 55.3833 99.3042C57.8925 99.1689 65.3567 98.9896 66.428 98.4543C67.8439 97.7925 67.8439 94.0169 66.617 93.262Z" fill="#CBB3FF"/>
<path d="M68.5039 110.724L71.7127 114.028L71.5246 109.402L68.5039 110.724Z" fill="#CBB3FF"/>
<path d="M63.9724 90.6703C63.9724 90.6703 64.2563 91.5202 62.742 92.1802C61.2277 92.8403 60.7601 91.9922 60.7601 91.9922L59.1553 88.0276C59.1553 88.0276 58.9663 87.2718 60.5712 86.6108C62.176 85.9499 62.3649 86.7058 62.3649 86.7058L63.9724 90.6703Z" fill="white"/>
<path d="M72.0457 114.012C71.8418 109.024 71.927 109.359 71.6335 108.641C63.3159 88.2761 63.3844 88.327 62.6936 86.6247C62.321 85.1464 58.4557 86.68 58.8573 88.1504C59.6571 90.1217 66.7311 107.31 67.9457 110.284C68.2472 111.022 67.8693 110.532 71.4788 114.255C71.5256 114.302 71.5856 114.334 71.6509 114.347C71.7162 114.36 71.7839 114.353 71.8453 114.328C71.9066 114.301 71.9585 114.257 71.9942 114.201C72.03 114.144 72.0479 114.079 72.0457 114.012ZM61.073 91.8645L59.491 87.9605C59.4242 87.2777 61.8481 86.2758 62.0696 86.8268L63.6665 90.7712C63.8203 91.5815 61.5687 92.5561 61.073 91.8645ZM69.5646 111.336C70.1919 111.315 70.7898 111.065 71.245 110.633L71.3487 113.168L69.5646 111.336Z" fill="#4B1010"/>
<path d="M57.7704 105.847C52.1456 100.822 45.4548 100.625 39.9232 98.6137C39.8616 98.5902 39.7944 98.5856 39.7302 98.6008C39.666 98.6159 39.6078 98.65 39.5633 98.6987C39.5187 98.7473 39.4898 98.8082 39.4804 98.8734C39.4709 98.9387 39.4813 99.0053 39.5101 99.0646C39.5479 99.1437 39.6156 99.2052 39.6973 99.2351C45.2342 101.246 51.8591 101.449 57.331 106.339C58.4427 107.333 60.0432 109.372 58.7082 111.375C58.1588 112.104 57.4645 112.711 56.6692 113.158C55.2391 113.814 53.7068 114.218 52.1395 114.353C46.8149 110.32 41.1249 106.794 35.1439 103.82C35.0854 103.791 35.0196 103.78 34.9548 103.788C34.89 103.796 34.8291 103.824 34.7797 103.866C34.7303 103.909 34.6947 103.965 34.6772 104.028C34.6597 104.091 34.6613 104.158 34.6816 104.22C34.7096 104.303 34.7693 104.372 34.8477 104.412C40.5577 107.301 46.0245 110.648 51.1947 114.419C53.2495 116.068 54.8983 118.139 53.8445 120.805C53.0711 122.932 50.3088 123.594 48.733 123.8C44.9921 124.251 41.2071 124.187 37.4835 123.611C30.2205 122.732 23.0419 121.259 16.0197 119.207C15.6016 117.967 15.505 116.642 15.7389 115.355C15.9729 114.069 16.5298 112.862 17.3573 111.85C22.8696 117.211 36.8348 120.189 44.2692 121.714C44.3552 121.731 44.4445 121.714 44.5179 121.666C44.5728 121.63 44.6157 121.579 44.6411 121.518C44.6665 121.458 44.6732 121.391 44.6603 121.327C44.6426 121.242 44.5925 121.166 44.5206 121.116C44.4847 121.092 44.4444 121.075 44.4019 121.066C36.4921 119.444 19.8973 116.075 16.0223 109.053C14.5045 106.321 14.4245 102.77 15.7692 97.879C15.7921 97.7945 15.7807 97.7044 15.7374 97.6283C15.6941 97.5522 15.6224 97.4964 15.5381 97.473C15.4963 97.4614 15.4526 97.4581 15.4096 97.4634C15.3666 97.4687 15.325 97.4824 15.2873 97.5038C15.2495 97.5252 15.2164 97.5538 15.1898 97.5881C15.1631 97.6223 15.1435 97.6614 15.132 97.7032C13.7628 102.685 13.4059 107.583 16.8951 111.375C13.8586 114.846 15.0872 119.829 15.7842 119.829C15.8474 119.841 16.0531 119.902 16.3879 119.998C27.4441 123.198 38.8264 124.758 43.8834 124.758C45.5321 124.76 47.1791 124.658 48.8147 124.455C50.5417 124.23 53.5712 123.488 54.4606 121.04C55.437 118.569 54.3868 116.569 52.7784 114.955C54.2223 114.759 55.6299 114.352 56.9566 113.75C60.6039 111.73 60.7717 108.528 57.7704 105.847Z" fill="white"/>
<path d="M46.4172 54.1864C45.9887 55.1734 45.733 56.2267 45.6614 57.3003C45.6981 58.5588 46.2144 59.7557 47.1045 60.6461C47.253 60.7199 46.9893 61.3826 46.9665 62.0699L45.889 62.8468C45.889 62.8468 45.8679 62.4566 45.512 62.5708C45.156 62.6851 44.4424 64.5615 44.8089 66.8342C45.1754 69.107 46.1105 69.8936 46.5077 69.7609C46.905 69.6282 47.057 67.5848 46.905 66.9872L48.1881 65.8016C50.765 69.4673 56.6956 69.9384 59.9122 62.5867C60.7658 60.9775 61.2797 59.2102 61.4221 57.3943C61.4257 50.6753 50.3906 45.2439 46.4172 54.1864Z" fill="white"/>
<path d="M60.4859 60.3882C60.064 60.4568 59.6307 60.412 59.2317 60.2573C58.9188 59.7897 58.1068 60.3109 57.8941 60.7802C57.7183 61.1704 57.6357 61.9895 58.2377 62.2128C58.867 62.4448 59.3345 61.5967 59.3802 60.9955C59.7775 61.0904 60.1897 61.1054 60.5931 61.0404C60.6789 61.0254 60.7553 60.9771 60.8057 60.9062C60.8561 60.8352 60.8764 60.7471 60.8623 60.6612C60.8482 60.5753 60.8007 60.4984 60.7302 60.4473C60.6597 60.3962 60.5719 60.375 60.4859 60.3882Z" fill="#4B1010"/>
<path d="M55.1421 58.482C54.7203 58.5505 54.287 58.5057 53.888 58.351C53.5751 57.8835 52.763 58.4046 52.5503 58.874C52.3746 59.2642 52.2919 60.0824 52.894 60.3065C53.5232 60.5385 53.9908 59.6913 54.0365 59.0893C54.4337 59.1842 54.8459 59.1991 55.2493 59.1332C55.3305 59.1137 55.4012 59.0641 55.4473 58.9946C55.4934 58.925 55.5115 58.8406 55.498 58.7582C55.4844 58.6759 55.4401 58.6017 55.3741 58.5506C55.3081 58.4996 55.2252 58.4753 55.1421 58.4829V58.482Z" fill="#4B1010"/>
<path d="M49.544 58.9614C49.2751 58.9558 49.0077 59.0039 48.7576 59.1029C48.5075 59.202 48.2797 59.3499 48.0875 59.5382C47.8953 59.7264 47.7426 59.9511 47.6384 60.1991C47.5342 60.447 47.4805 60.7133 47.4805 60.9823C47.4805 61.2513 47.5342 61.5176 47.6384 61.7656C47.7426 62.0136 47.8953 62.2383 48.0875 62.4265C48.2797 62.6147 48.5075 62.7627 48.7576 62.8617C49.0077 62.9608 49.2751 63.0089 49.544 63.0033C50.0727 62.9923 50.576 62.7745 50.946 62.3967C51.316 62.0189 51.5233 61.5111 51.5233 60.9823C51.5233 60.4535 51.316 59.9458 50.946 59.568C50.576 59.1902 50.0727 58.9724 49.544 58.9614Z" fill="#CBB3FF"/>
<path d="M73.6439 96.1555C73.5246 95.8995 73.3265 95.6882 73.0787 95.5526C73.4417 95.1571 73.0163 94.5903 72.576 94.2668C72.8397 93.8863 72.4881 93.3968 72.0786 93.315C70.4156 92.7296 68.6181 92.641 66.9056 93.0602C66.0812 92.4291 64.1072 92.5715 63.0825 92.3676C61.3942 92.0855 59.7674 91.7032 58.1845 91.3305C54.9101 90.6727 51.6769 89.8246 48.5012 88.7906C48.2723 88.7487 48.0654 88.6277 47.9167 88.4487C47.8368 88.3268 47.7836 88.1895 47.7604 88.0456C47.7372 87.9017 47.7447 87.7546 47.7822 87.6138C47.7822 87.6138 48.5477 74.8702 48.6233 74.0361C49.0099 71.4634 48.8141 68.8366 48.0503 66.3496V66.3399C48.1461 66.252 48.2428 66.1711 48.3386 66.0885C51.0393 69.6313 56.7924 69.807 59.9159 62.675C60.2147 62.0352 60.4696 61.3743 60.677 60.6984C60.8587 60.735 61.0469 60.7198 61.2204 60.6545C61.3938 60.5892 61.5454 60.4766 61.6578 60.3293C61.8445 60.4468 62.0629 60.5037 62.2832 60.4922C62.5035 60.4807 62.7148 60.4014 62.8883 60.2651C63.1502 60.0069 63.3451 59.6886 63.456 59.3379C63.7128 59.3679 63.9722 59.3083 64.1901 59.1691C64.4081 59.03 64.5713 58.8198 64.6521 58.5742C64.8281 58.3091 64.9407 58.007 64.9813 57.6914C65.0218 57.3758 64.9892 57.055 64.8859 56.7541C65.0432 56.6908 65.185 56.5945 65.3017 56.4715C65.4184 56.3486 65.5073 56.2019 65.5623 56.0416C65.6172 55.8812 65.637 55.7109 65.6202 55.5422C65.6034 55.3735 65.5505 55.2104 65.4651 55.064C65.6012 54.9633 65.7118 54.8322 65.7881 54.6811C65.8644 54.53 65.9043 54.3632 65.9045 54.1939C65.8471 53.9694 65.7462 53.7582 65.6075 53.5725C65.7321 53.4556 65.8238 53.3081 65.8735 53.1446C65.9232 52.9811 65.929 52.8074 65.8905 52.6409C65.751 52.3078 65.5058 52.0299 65.1926 51.85C65.2717 51.7347 65.3245 51.6035 65.3474 51.4656C65.3704 51.3277 65.3628 51.1865 65.3254 51.0518C65.288 50.9172 65.2215 50.7923 65.1307 50.6861C65.0399 50.5798 64.927 50.4947 64.7998 50.4367C64.8631 50.317 64.8978 50.1843 64.9013 50.0489C64.9048 49.9135 64.877 49.7792 64.82 49.6563C64.6502 49.4001 64.3922 49.2152 64.0949 49.1369C64.1099 48.8632 64.021 48.5939 63.846 48.3828C63.671 48.1718 63.4228 48.0347 63.151 47.9988C63.1413 47.8002 63.0781 47.608 62.9682 47.4424C62.9294 47.3297 62.8498 47.2356 62.745 47.1788L62.5692 47.46L62.6641 47.1181C62.5439 47.0259 62.4058 46.9594 62.2587 46.923C62.1115 46.8865 61.9584 46.8809 61.809 46.9063C61.7834 46.7722 61.7284 46.6455 61.6478 46.5353C61.5673 46.4251 61.4632 46.3342 61.3432 46.2691C61.2087 46.1631 61.0506 46.091 60.8822 46.0592C60.7139 46.0274 60.5404 46.0367 60.3764 46.0863C60.2769 45.7973 60.0734 45.5557 59.8055 45.4085C59.5376 45.2613 59.2245 45.2191 58.9272 45.2901C58.6688 45.3498 58.8551 45.3727 58.6161 45.0264C58.3815 44.7447 58.0539 44.5563 57.6925 44.4952C57.3311 44.4341 56.9597 44.5044 56.6456 44.6933C56.5717 44.4938 56.4472 44.3168 56.2844 44.1797C56.1215 44.0427 55.9259 43.9502 55.7167 43.9113C55.5074 43.8724 55.2917 43.8885 55.0905 43.958C54.8893 44.0274 54.7096 44.1478 54.5689 44.3075C54.354 44.0814 54.0626 43.9434 53.7516 43.9201C53.4405 43.8969 53.1319 43.9902 52.8858 44.1818C52.7479 44.0933 52.592 44.0368 52.4294 44.0162C52.2668 43.9956 52.1017 44.0116 51.9461 44.063C51.7904 44.1144 51.6482 44.1998 51.5299 44.3131C51.4115 44.4264 51.3198 44.5647 51.2617 44.7179C50.9101 44.5334 50.3608 44.4956 50.193 44.8304C49.9556 45.0301 49.7909 45.3026 49.7245 45.6056C49.5717 45.5627 49.4111 45.555 49.2549 45.5828C49.0986 45.6106 48.9506 45.6734 48.8219 45.7664C48.6869 45.8339 48.5688 45.931 48.4764 46.0505C48.3841 46.1699 48.3198 46.3086 48.2885 46.4563C47.952 46.3568 47.5903 46.3882 47.276 46.5442C47.1158 46.661 46.9917 46.8205 46.918 47.0046C46.8444 47.1886 46.824 47.3897 46.8594 47.5848C46.6421 47.6412 46.447 47.7624 46.3001 47.9322C46.1531 48.102 46.0613 48.3125 46.0368 48.5357C45.6606 48.5357 45.1711 48.7194 45.1474 49.1263C45.1104 49.2577 45.1019 49.3955 45.1225 49.5304C45.1431 49.6653 45.1924 49.7942 45.2669 49.9085C45.0568 50.0899 44.9157 50.3383 44.8677 50.6117C44.8197 50.885 44.8675 51.1666 45.0033 51.4088C44.6445 51.5634 44.3605 51.8524 44.2123 52.2138C44.1698 52.4002 44.1694 52.5938 44.2113 52.7803C44.2531 52.9669 44.336 53.1417 44.454 53.2922C44.169 53.4994 43.9522 53.7867 43.8308 54.1174C43.798 54.2905 43.8112 54.4692 43.8691 54.6356C43.9269 54.802 44.0274 54.9503 44.1604 55.0658C44.0507 55.2138 43.9744 55.3839 43.9366 55.5642C43.8988 55.7446 43.9004 55.931 43.9414 56.1106C43.9824 56.2903 44.0618 56.4589 44.1741 56.605C44.2863 56.7511 44.4289 56.8712 44.5919 56.9571C44.5123 57.1012 44.4669 57.2618 44.4592 57.4263C44.4516 57.5908 44.4819 57.7549 44.5478 57.9058C44.6138 58.0567 44.7136 58.1904 44.8395 58.2966C44.9654 58.4027 45.1141 58.4785 45.2739 58.5179C45.2458 58.8071 45.2493 59.4575 45.6176 59.5111C45.8742 60.1439 46.3699 60.6483 46.9965 60.9173C46.9766 61.1054 46.9631 61.2942 46.9561 61.4833C46.7162 61.7249 46.3602 62.0422 46.0412 62.3094C45.9145 62.2271 45.7671 62.1825 45.616 62.1806C45.465 62.1787 45.3165 62.2197 45.1878 62.2988H45.1676C38.0734 62.8464 31.8694 66.078 26.7263 71.8979C21.5222 77.8456 17.699 84.8714 15.5312 92.4713C15.0674 93.7072 14.8994 95.0346 15.0408 96.3471C16.1834 101.815 27.5445 104.309 32.4354 103.208C34.659 102.708 39.7757 101.02 39.6712 97.7823C39.6536 97.0792 39.658 96.3779 39.6843 95.6792C41.0695 97.3428 42.9921 98.4705 45.1201 98.8677C48.4893 99.6417 51.9565 99.8989 55.4029 99.6306C58.9325 99.4399 63.4613 99.4091 66.1647 98.8695C66.4665 98.8281 66.7472 98.6911 66.9653 98.4784C67.3248 98.532 67.969 98.6199 69.1572 98.764C69.4103 98.8475 69.6758 98.8888 69.9429 98.8879C71.3816 98.8879 71.9714 97.7973 70.5265 97.0608C71.6567 96.9729 72.2262 97.3394 73.331 96.9729C73.4738 96.8982 73.5845 96.7739 73.6421 96.6234C73.6997 96.4729 73.7003 96.3065 73.6439 96.1555ZM47.566 56.7277C47.737 56.838 47.8741 56.9934 47.9623 57.1767C48.0506 57.36 48.0865 57.5641 48.0661 57.7665C48.0661 58.1928 48.0529 57.7973 47.8772 58.8994C47.8758 59.0021 47.9035 59.1031 47.9569 59.1908C48.0104 59.2784 48.0876 59.3493 48.1795 59.3951L48.6514 59.5831C48.6973 59.6017 48.7467 59.6098 48.7961 59.6066C48.8455 59.6035 48.8935 59.5893 48.9367 59.5651C48.9798 59.5408 49.0169 59.5072 49.0453 59.4667C49.0737 59.4261 49.0926 59.3797 49.1005 59.3309C49.3438 57.8783 50.0718 56.5509 51.1659 55.5649C51.4172 55.2907 51.2353 55.4085 51.4673 55.6405C51.6399 55.801 51.8686 55.8871 52.1042 55.8802C52.3397 55.8733 52.5631 55.7739 52.7259 55.6036C52.8911 55.9288 53.1477 56.1969 53.4659 56.3744C53.8447 56.5264 54.2657 56.5326 54.6497 56.3937C54.693 56.595 54.7844 56.7827 54.9161 56.9409C55.0479 57.099 55.216 57.2229 55.4061 57.3018C55.5963 57.3807 55.8027 57.4123 56.0077 57.3939C56.2127 57.3755 56.4102 57.3076 56.5832 57.1961C56.6534 57.4913 56.829 57.7506 57.0769 57.9254C57.3249 58.1002 57.6281 58.1784 57.9297 58.1453C58.0176 58.3668 58.1811 58.5501 58.3912 58.6627C58.6012 58.7752 58.8443 58.8099 59.0775 58.7605C59.1513 59.4276 59.4791 59.7053 59.8887 59.7695C59.8975 59.9373 59.9414 60.1017 60.0205 60.2502C59.1021 63.3746 56.9849 67.1054 53.7805 67.6749C51.1668 68.1425 48.2718 66.31 47.6451 62.8604C47.559 61.8137 47.6539 60.7599 47.9281 59.7457C48.0318 59.3705 47.3709 59.1815 47.2672 59.5568C47.2057 59.7826 47.1442 60.0076 47.0985 60.237C45.2546 59.2606 46.2381 55.9314 47.566 56.7277ZM45.426 62.9967C45.4327 63.0545 45.4545 63.1096 45.4893 63.1562C45.5241 63.2029 45.5706 63.2396 45.6242 63.2625C45.6777 63.2854 45.7363 63.2938 45.7941 63.2868C45.8519 63.2798 45.9068 63.2576 45.9533 63.2225C46.217 63.0283 46.616 62.6952 46.9737 62.37C47.0628 63.4873 47.401 64.5705 47.9633 65.5401C47.3551 66.0429 46.7861 66.5911 46.2609 67.1801C46.2091 67.2416 46.1815 67.3198 46.1833 67.4002C46.185 67.4806 46.216 67.5575 46.2704 67.6167C46.3249 67.6759 46.399 67.7132 46.4789 67.7216C46.5589 67.7301 46.6392 67.7091 46.7047 67.6626C46.7179 68.472 46.6072 69.3878 46.4182 69.4906C46.2662 69.4818 45.8593 69.0846 45.5016 68.1345C44.891 66.4807 44.8643 64.6678 45.426 62.9967ZM66.0311 98.2218C63.4749 98.5927 60.8973 98.7982 58.3146 98.837C54.0029 99.0057 50.6684 99.4522 45.259 98.2218C44.1401 98.0275 43.0728 97.6062 42.1229 96.984C41.1729 96.3617 40.3604 95.5516 39.7353 94.6035C40.1778 88.1178 42.4557 81.8916 46.3031 76.6517C46.3518 76.581 46.3712 76.4941 46.357 76.4095C46.3428 76.3248 46.2962 76.249 46.2271 76.1981C46.1581 76.1471 46.0718 76.1251 45.9868 76.1366C45.9017 76.1481 45.8245 76.1922 45.7714 76.2597C41.196 82.494 38.8162 90.0691 39.0041 97.7999C39.092 100.637 33.8812 102.204 32.2843 102.562C27.5384 103.631 16.7045 101.104 15.6877 96.254C15.5614 95.0461 15.7191 93.8254 16.1482 92.6893C18.2896 85.1699 22.0696 78.218 27.2167 72.3329C32.1181 66.7837 38.0004 63.6462 44.7062 63.0011C44.6324 63.219 44.5744 63.4405 44.5304 63.6664C43.8185 67.2249 45.4796 70.6683 46.688 70.0874C47.4992 69.6998 47.3665 67.5712 47.3173 67.0113C47.378 66.9507 47.4412 66.8909 47.5036 66.8356C48.6752 70.7492 47.8701 73.2425 47.7796 76.6297L47.1275 87.5189C47.0741 87.7402 47.0675 87.9703 47.1079 88.1944C47.1483 88.4185 47.2349 88.6317 47.3621 88.8205C47.5906 89.1246 47.9193 89.3381 48.2902 89.4234C51.4873 90.4648 54.7427 91.3182 58.0395 91.9792C60.0802 92.5197 62.157 92.9133 64.254 93.1568C64.9993 93.1489 65.7393 93.2799 66.4371 93.5444C67.4592 94.1719 67.4399 97.6153 66.2745 98.1594C66.1954 98.1884 66.1137 98.2095 66.0311 98.2218ZM69.1783 96.6205C69.1077 96.6378 69.0449 96.6781 68.9997 96.7351C68.9545 96.792 68.9295 96.8624 68.9287 96.9351C68.9271 97.0079 68.9497 97.0791 68.993 97.1376C69.0363 97.1962 69.0977 97.2387 69.1678 97.2585C70.5625 97.6567 70.6926 98.0073 70.6926 98.0073C70.4872 98.1382 70.2531 98.2171 70.0104 98.2374C69.7677 98.2576 69.5238 98.2184 69.2996 98.1233C68.5025 98.024 67.8688 97.9405 67.4039 97.8746C67.6983 97.2051 67.8481 96.481 67.8434 95.7497C67.8387 95.0183 67.6797 94.2962 67.3766 93.6305C68.4265 93.419 69.5067 93.4053 70.5617 93.5901C70.4767 93.5962 70.3974 93.6348 70.3402 93.6979C70.2831 93.7611 70.2525 93.8438 70.2549 93.929C70.2573 94.0141 70.2924 94.095 70.353 94.1549C70.4136 94.2147 70.495 94.2488 70.5801 94.2501C70.9409 94.2472 71.2981 94.3214 71.6278 94.4678C71.9574 94.6142 72.252 94.8295 72.4917 95.0991L71.4467 94.8996C71.141 94.8178 70.8296 94.7591 70.5151 94.7239C70.4319 94.7187 70.3499 94.7453 70.2856 94.7984C70.2213 94.8514 70.1796 94.9269 70.1688 95.0095C70.1581 95.092 70.1787 95.1754 70.2265 95.2435C70.2744 95.3115 70.346 95.3591 70.4272 95.3769L71.3184 95.5447C72.1252 95.7636 72.9003 96.1397 72.9882 96.3858C71.8431 96.7004 71.401 96.0633 69.1783 96.6205Z" fill="#4B1010"/>
<path d="M58.4723 62.7773C58.0217 62.7773 57.5896 62.9563 57.271 63.2749C56.9524 63.5935 56.7734 64.0256 56.7734 64.4762C56.7734 64.9268 56.9524 65.3589 57.271 65.6775C57.5896 65.9961 58.0217 66.1751 58.4723 66.1751C58.9229 66.1751 59.355 65.9961 59.6736 65.6775C59.9922 65.3589 60.1711 64.9268 60.1711 64.4762C60.1711 64.0256 59.9922 63.5935 59.6736 63.2749C59.355 62.9563 58.9229 62.7773 58.4723 62.7773Z" fill="#CBB3FF"/>
<path d="M52.0584 61.2812C50.9765 62.3684 50.1521 63.67 51.1338 64.8495C52.1709 65.8865 54.2011 65.3917 55.3814 64.5656C54.9434 64.5838 54.5064 64.5115 54.0976 64.3534C53.6888 64.1953 53.3169 63.9547 53.0051 63.6466C52.6934 63.3384 52.4484 62.9694 52.2855 62.5625C52.1226 62.1555 52.0453 61.7194 52.0584 61.2812Z" fill="#CBB3FF"/>
<path d="M50.9005 65.0849C49.9592 63.9565 50.2765 62.6065 51.8251 61.05C51.871 61.004 51.9295 60.9726 51.9933 60.9597C52.057 60.9468 52.1231 60.953 52.1833 60.9775C52.2436 61.0019 52.2952 61.0437 52.3319 61.0974C52.3685 61.1511 52.3885 61.2144 52.3893 61.2794C52.376 61.6729 52.4439 62.0648 52.5888 62.4308C52.7338 62.7968 52.9526 63.129 53.2317 63.4067C53.5108 63.6843 53.8442 63.9014 54.211 64.0443C54.5777 64.1873 54.9701 64.2532 55.3634 64.2377C55.435 64.2341 55.5059 64.2539 55.5653 64.294C55.6248 64.3341 55.6696 64.3924 55.6931 64.4602C55.7165 64.5279 55.7174 64.6014 55.6955 64.6697C55.6736 64.738 55.6302 64.7974 55.5717 64.8389C54.2455 65.7687 52.0659 66.2503 50.9005 65.0849ZM51.8075 62.0467C49.9144 64.3274 51.7987 65.8188 54.3088 64.7791C53.6782 64.6029 53.1095 64.2535 52.6674 63.7705C52.2253 63.2876 51.9274 62.6904 51.8075 62.0467Z" fill="#4B1010"/>
<path d="M52.1137 57.3588C52.497 56.9439 52.9885 56.6441 53.5328 56.4932C54.0771 56.3423 54.6528 56.3462 55.195 56.5045C55.2767 56.5315 55.3446 56.5893 55.3843 56.6657C55.424 56.742 55.4324 56.8308 55.4077 56.9132C55.383 56.9956 55.3271 57.0651 55.2519 57.1069C55.1768 57.1488 55.0882 57.1597 55.0052 57.1373C54.5845 57.0137 54.1377 57.0096 53.7149 57.1256C53.2921 57.2415 52.9099 57.4729 52.6111 57.7938C52.553 57.8583 52.4719 57.8973 52.3852 57.9025C52.2986 57.9076 52.2134 57.8785 52.1481 57.8214C52.0827 57.7642 52.0425 57.6837 52.0361 57.5971C52.0296 57.5105 52.0575 57.4249 52.1137 57.3588Z" fill="#4B1010"/>
<path d="M56.576 64.009C56.1735 62.7853 55.9454 61.5111 55.8984 60.2237C55.8984 59.8089 56.5971 59.2658 56.9891 59.0047C57.062 58.9561 57.1511 58.9385 57.237 58.9556C57.3229 58.9727 57.3984 59.0233 57.447 59.0961C57.4956 59.169 57.5133 59.2581 57.4961 59.344C57.479 59.4299 57.4284 59.5054 57.3556 59.554C57.0383 59.7413 56.7628 59.9917 56.5462 60.2896C56.6147 61.4849 56.8362 62.6661 57.2027 63.8051C57.2223 63.886 57.2107 63.9714 57.1701 64.0441C57.1295 64.1168 57.063 64.1715 56.9838 64.1973C56.9046 64.223 56.8186 64.218 56.743 64.183C56.6674 64.1481 56.6078 64.086 56.576 64.009Z" fill="#4B1010"/>
<path d="M62.3245 61.1819C62.2524 61.0061 62.5495 61.1863 57.6164 59.1113C57.5359 59.0774 57.4452 59.0768 57.3642 59.1098C57.2833 59.1428 57.2188 59.2065 57.1849 59.287L56.8948 59.9822C56.6543 59.8296 56.3903 59.7174 56.1135 59.65L56.4449 58.859C56.4785 58.7786 56.4788 58.6881 56.4459 58.6074C56.413 58.5267 56.3494 58.4623 56.2691 58.4284L51.3052 56.3542C51.2653 56.3373 51.2224 56.3285 51.1791 56.3281C51.1357 56.3278 51.0927 56.3361 51.0525 56.3524C51.0124 56.3687 50.9758 56.3928 50.945 56.4233C50.9141 56.4538 50.8896 56.49 50.8728 56.53L50.4149 57.6268C49.7662 57.435 49.1342 57.1904 48.5254 56.8956C48.4445 56.8666 48.3556 56.8701 48.2772 56.9054C48.1989 56.9407 48.1374 57.005 48.1056 57.0848C48.0738 57.1646 48.0742 57.2536 48.1068 57.3331C48.1393 57.4126 48.2015 57.4763 48.2802 57.5108C49.5343 58.0118 49.9333 58.1902 50.1539 58.2543L49.6002 59.5797C49.5665 59.6604 49.5661 59.7511 49.599 59.8321C49.632 59.9131 49.6956 59.9778 49.776 60.0121C55.0677 62.2093 54.768 62.1108 54.8682 62.1108C54.9333 62.1109 54.9969 62.0918 55.0512 62.0558C55.1054 62.0199 55.1479 61.9687 55.1731 61.9087L55.8543 60.2766C56.1364 60.325 56.4044 60.4357 56.6382 60.6018L55.9123 62.3402C55.8783 62.4209 55.8778 62.5117 55.9107 62.5928C55.9437 62.6738 56.0075 62.7385 56.088 62.7726L60.6212 64.6604C60.7018 64.6943 60.7925 64.6948 60.8734 64.6619C60.9543 64.6289 61.0188 64.5652 61.0528 64.4847C62.4247 61.1977 62.3983 61.3603 62.3245 61.1819ZM54.6889 61.3489L50.3332 59.5278L51.3518 57.089L55.7075 58.9126L54.6889 61.348V61.3489ZM60.5685 63.9222L56.6488 62.2875L57.6674 59.8486L61.5871 61.4851L60.5685 63.9222Z" fill="#CBB3FF"/>
<path d="M71.9968 104.873C71.4177 104.289 70.7257 103.829 69.963 103.52C69.2003 103.212 68.3828 103.062 67.5603 103.08C66.8893 103.156 66.2439 103.382 65.6716 103.74L63.7838 104.681L61.707 107.422C61.9342 107.878 62.2846 108.261 62.7185 108.528C63.1523 108.795 63.6523 108.935 64.1617 108.932C65.1993 108.942 66.217 108.646 67.0884 108.083C68.143 108.874 68.2862 109.498 69.1651 109.498C69.2648 109.513 69.3665 109.508 69.4643 109.484C69.562 109.459 69.6537 109.414 69.7337 109.353C69.8136 109.291 69.8798 109.214 69.9281 109.125C69.9764 109.036 70.0057 108.938 70.0141 108.838C69.9946 108.637 69.93 108.443 69.8251 108.271C67.882 105.546 67.4575 106.369 70.675 107.799C70.9501 107.894 71.2498 107.894 71.5249 107.799C71.6527 107.726 71.751 107.611 71.8027 107.473C71.8544 107.335 71.8562 107.183 71.8079 107.044C71.6828 106.802 71.5239 106.58 71.3359 106.383C70.7889 105.899 70.1883 105.48 69.5457 105.133C69.9719 105.358 70.4122 105.554 70.864 105.723C72.1559 106.042 72.3624 105.235 71.9968 104.873Z" fill="white"/>
<path d="M69.0842 109.819C68.8274 109.808 68.5762 109.741 68.3483 109.622C68.1205 109.503 67.9217 109.335 67.7659 109.131C67.5576 108.926 67.3388 108.708 67.0628 108.486C66.181 109 65.1773 109.269 64.1564 109.263C63.5856 109.266 63.0254 109.109 62.5393 108.81C62.0532 108.511 61.6607 108.081 61.4064 107.57C61.3768 107.512 61.3654 107.446 61.3737 107.381C61.382 107.316 61.4096 107.255 61.453 107.205C61.4813 107.172 61.5159 107.145 61.5549 107.126C61.5939 107.107 61.6363 107.095 61.6797 107.093C61.7448 107.089 61.8096 107.104 61.8662 107.136C61.9227 107.168 61.9685 107.217 61.9979 107.275C62.1976 107.676 62.5057 108.013 62.8872 108.247C63.2688 108.482 63.7085 108.605 64.1564 108.602C65.1283 108.611 66.0818 108.337 66.8993 107.811C66.9564 107.773 67.0241 107.754 67.0927 107.756C67.1607 107.758 67.2265 107.781 67.2808 107.822C68.2879 108.577 68.4725 109.172 69.1598 109.172C69.2092 109.188 69.2615 109.194 69.3132 109.189C69.3649 109.184 69.415 109.168 69.4604 109.142C69.52 109.099 69.5706 109.045 69.6092 108.982C69.6478 108.919 69.6737 108.85 69.6853 108.777C69.2553 108.013 68.7128 107.318 68.0761 106.715C68.0184 106.656 67.9851 106.577 67.9827 106.494C67.9804 106.411 68.0092 106.331 68.0634 106.268C68.1177 106.206 68.1935 106.166 68.2757 106.156C68.358 106.147 68.4408 106.169 68.5077 106.218C69.2204 106.734 69.9912 107.165 70.8041 107.502C70.9887 107.559 71.1856 107.559 71.3701 107.502C71.4272 107.465 71.4702 107.411 71.4918 107.347C71.5134 107.283 71.5123 107.213 71.4888 107.15C70.7507 106.218 69.7723 105.505 68.6588 105.087C68.6184 105.071 68.5816 105.047 68.5505 105.017C68.5194 104.986 68.4946 104.95 68.4775 104.91C68.4604 104.87 68.4513 104.827 68.4509 104.783C68.4504 104.74 68.4585 104.697 68.4747 104.656C68.4909 104.616 68.5149 104.579 68.5454 104.548C68.5758 104.517 68.6121 104.492 68.6521 104.475C68.6921 104.458 68.7352 104.449 68.7787 104.448C68.8222 104.448 68.8654 104.456 68.9058 104.472C69.3338 104.643 70.6293 105.325 70.9386 105.402C73.2166 105.967 70.646 103.41 67.555 103.41C66.9488 103.483 66.3665 103.69 65.85 104.015L63.927 104.982C63.8685 105.011 63.8027 105.022 63.7379 105.014C63.6731 105.006 63.6122 104.978 63.5628 104.936C63.5134 104.893 63.4777 104.837 63.4603 104.774C63.4428 104.711 63.4444 104.644 63.4647 104.582C63.4925 104.499 63.5522 104.43 63.6308 104.39L65.5186 103.446C66.1212 103.069 66.801 102.832 67.5075 102.754C69.7223 102.754 71.7375 103.896 72.2666 104.687C72.3745 104.819 72.4423 104.979 72.4621 105.148C72.4819 105.317 72.4528 105.489 72.3782 105.642C72.3037 105.795 72.1869 105.924 72.0415 106.012C71.8962 106.101 71.7285 106.146 71.5582 106.143C71.7735 106.366 71.9555 106.619 72.0978 106.894C72.3738 107.704 71.7103 108.494 70.5651 108.111C70.3368 108.01 70.1103 107.906 69.8857 107.798C70.1397 108.09 70.2979 108.452 70.3392 108.836C70.3311 108.986 70.2908 109.134 70.2211 109.268C70.1514 109.402 70.0538 109.519 69.9349 109.612C69.8161 109.705 69.6787 109.772 69.532 109.808C69.3852 109.843 69.2326 109.847 69.0842 109.819Z" fill="#4B1010"/>
<path d="M64.6342 104.587C64.49 104.153 64.2413 103.738 63.7843 103.738C61.4245 103.171 59.6308 101.566 57.5549 100.434C54.2844 98.6076 51.2947 96.3186 48.6783 93.6378C43.3928 88.1624 41.41 79.5759 41.316 71.9297L31.1211 73.248C31.1168 79.8443 33.0178 86.3014 36.5956 91.8431C38.3019 94.3645 40.3332 96.6499 42.6369 98.6403C45.8466 101.566 49.3392 103.36 53.2097 105.343C55.1211 106.393 57.1487 107.216 59.2511 107.796C60.289 108.08 61.5168 108.929 62.6488 108.835C64.2167 108.522 64.904 106.341 64.6342 104.587Z" fill="#CBB3FF"/>
<path d="M62.4818 109.17C61.2778 109.17 60.1397 108.379 59.1641 108.115C57.0365 107.528 54.9848 106.695 53.0507 105.631C49.2584 103.689 45.6682 101.852 42.4164 98.8844C38.7108 95.7304 35.7475 91.797 33.7382 87.3652C31.7288 82.9334 30.7229 78.1125 30.7924 73.2469C30.7985 73.1634 30.836 73.0853 30.8973 73.0284C30.9586 72.9714 31.0392 72.9397 31.1229 72.9397C31.2066 72.9397 31.2872 72.9714 31.3485 73.0284C31.4098 73.0853 31.4473 73.1634 31.4533 73.2469C31.4507 79.78 33.3335 86.1751 36.876 91.6645C38.5653 94.1598 40.5762 96.4216 42.8567 98.3914C46.0505 101.303 49.602 103.122 53.3618 105.048C55.2524 106.088 57.2582 106.903 59.3381 107.477C60.384 107.763 61.5977 108.59 62.6216 108.505C64.5199 108.122 64.8126 104.068 63.7817 104.068C61.2497 103.474 59.5042 101.871 57.3941 100.724C54.0941 98.8856 51.0795 96.5763 48.4454 93.8687C43.8164 89.0745 41.0981 81.0794 40.9856 71.9286C40.9846 71.841 41.0184 71.7566 41.0795 71.6939C41.1406 71.6311 41.2241 71.5951 41.3116 71.5938C41.3972 71.5991 41.478 71.6349 41.5395 71.6947C41.6009 71.7546 41.6389 71.8344 41.6465 71.9198C41.7572 80.9045 44.407 88.7352 48.9165 93.4055C51.5051 96.0656 54.4672 98.3346 57.7096 100.141C59.8004 101.284 61.5625 102.866 63.8617 103.414C64.1561 103.408 64.6526 103.59 64.9479 104.481C65.3689 107.194 63.9153 109.17 62.4818 109.17Z" fill="#4B1010"/>
<path d="M117.076 68.8826L114.527 71.5253L114.715 67.8438L117.076 68.8826Z" fill="white"/>
<path d="M114.761 67.5842C114.692 67.8842 114.741 68.1995 114.9 68.4636C115.058 68.7278 115.313 68.9201 115.61 69C115.815 69.1313 116.055 69.1985 116.298 69.1932C116.542 69.1879 116.778 69.1102 116.978 68.9702C117.11 68.8779 117.223 68.7592 117.31 68.623L123.917 52.2927L121.369 51.2539L114.761 67.5842Z" fill="#CBB3FF"/>
<path d="M120.755 52.7633C120.503 53.7669 122.67 54.688 123.303 53.8012L124.622 50.5916C124.749 49.7013 122.354 48.8031 121.979 49.5536L120.755 52.7633Z" fill="white"/>
<path d="M121.669 49.4402C120.973 51.2613 118.455 57.5628 114.515 67.3006C114.351 67.7058 114.413 67.3006 114.196 71.5104C114.193 71.5773 114.211 71.6434 114.246 71.7001C114.282 71.7568 114.334 71.8015 114.395 71.8286C114.456 71.8553 114.525 71.8627 114.59 71.8499C114.656 71.837 114.716 71.8044 114.763 71.7565C115.771 70.8109 116.721 69.807 117.611 68.7499L124.951 50.6425C125.127 49.413 122.239 48.2652 121.669 49.4402ZM114.902 70.6623L114.986 69.0329C115.297 69.2517 115.645 69.4134 116.012 69.511L114.902 70.6623ZM117.031 68.4423C116.406 69.38 114.87 68.5302 115.071 67.6917L120.725 53.7177C120.973 53.9812 121.276 54.1861 121.614 54.3176C121.951 54.449 122.313 54.5038 122.674 54.4779L117.031 68.4423ZM123.035 53.6078C122.583 54.1879 120.99 53.5384 121.072 52.8555L122.264 49.7232C122.528 49.3717 124.188 49.899 124.29 50.5344L123.035 53.6078Z" fill="#4B1010"/>
<path d="M121.765 65.1639C121.708 64.7782 121.564 64.4105 121.344 64.0883C121.125 63.7662 120.835 63.4981 120.497 63.3042L119.638 62.957L118.612 65.4425C117.969 65.4198 117.339 65.6263 116.834 66.0252C116.28 66.6755 116.781 67.0095 117.115 67.071C117.9 67.1615 118.69 67.1967 119.48 67.1765C120.121 67.1413 121.317 66.9743 121.317 66.9743C121.627 66.4224 121.782 65.7968 121.765 65.1639Z" fill="white"/>
<path d="M119.1 67.5189C118.418 67.5189 117.736 67.4802 117.058 67.3993C116.327 67.2658 115.95 66.56 116.585 65.8174C117.084 65.378 117.724 65.1336 118.389 65.1292L119.335 62.8371C119.369 62.7574 119.434 62.6943 119.514 62.6614C119.594 62.6285 119.684 62.6285 119.765 62.6614L120.624 63.0085C121.02 63.2279 121.36 63.5369 121.616 63.9109C121.872 64.2849 122.037 64.7135 122.098 65.1626C122.117 65.8615 121.945 66.5522 121.6 67.1603C121.574 67.2011 121.54 67.2359 121.499 67.2621C121.459 67.2884 121.413 67.3055 121.365 67.3123C120.616 67.4266 119.859 67.496 119.1 67.5189ZM117.088 66.2428C116.938 66.4185 116.905 66.5398 116.924 66.5943C116.952 66.6375 116.99 66.674 117.033 66.701C117.077 66.7281 117.126 66.7451 117.177 66.7507C117.936 66.836 118.7 66.8694 119.463 66.8509C119.943 66.8246 120.759 66.72 121.107 66.6752C121.334 66.2105 121.447 65.6982 121.436 65.1811C121.382 64.8593 121.259 64.5529 121.076 64.283C120.892 64.013 120.653 63.7857 120.374 63.6167L119.819 63.3926L119.103 65.1266C119.178 65.1519 119.241 65.2029 119.281 65.2705C119.321 65.3381 119.336 65.4179 119.323 65.4955C119.31 65.5732 119.27 65.6436 119.21 65.6942C119.149 65.7448 119.073 65.7723 118.994 65.7717C118.324 65.7081 117.651 65.8742 117.088 66.2428Z" fill="#4B1010"/>
<path d="M116.326 65.8075C115.53 65.1044 115.843 64.853 116.831 62.4414C116.002 62.7181 115.306 63.2928 114.877 64.0541C114.672 64.3818 114.531 64.7445 114.458 65.1237C113.56 66.2012 113.334 67.6276 114.906 68.191C115.637 68.4546 116.278 68.0152 116.258 67.4562C117.047 67.4466 116.796 66.2214 116.326 65.8075Z" fill="white"/>
<path d="M117.134 62.5646C117.156 62.5079 117.163 62.4461 117.153 62.3859C117.143 62.3256 117.117 62.2692 117.078 62.2227C117.037 62.1769 116.985 62.143 116.927 62.1247C116.869 62.1064 116.807 62.1045 116.747 62.119C116.108 62.3392 115.535 62.7166 115.081 63.2163C114.626 63.7161 114.304 64.3222 114.145 64.9789C113.874 65.2716 113.672 65.6216 113.555 66.0029C113.438 66.3841 113.408 66.7869 113.467 67.1813C113.593 67.5828 113.842 67.9349 114.177 68.1887C114.513 68.4425 114.919 68.5853 115.34 68.5972C115.609 68.6095 115.875 68.5317 116.094 68.3762C116.314 68.2207 116.476 67.9963 116.554 67.7385C117.374 67.4634 117.169 66.11 116.542 65.558C115.969 65.0527 116.105 65.0782 117.134 62.5646ZM115.018 67.8765C114.842 67.8416 114.676 67.7664 114.533 67.6568C114.39 67.5472 114.274 67.4062 114.195 67.2446C114.115 67.0834 114.073 66.9058 114.073 66.7257C114.073 66.5457 114.114 66.368 114.194 66.2067C114.307 66.5837 114.52 66.9235 114.809 67.1909C115.098 67.4582 115.453 67.6434 115.838 67.7271C115.733 67.8328 115.598 67.9038 115.452 67.9305C115.305 67.9572 115.154 67.9384 115.018 67.8765ZM116.372 67.1005C116.252 67.2086 115.425 66.9642 115.105 66.5538C114.252 65.4605 115.105 63.8451 116.201 63.1078C115.596 64.586 115.134 65.1907 116.113 66.052C116.381 66.2945 116.528 66.9493 116.368 67.1013L116.372 67.1005Z" fill="#4B1010"/>
<path d="M146.639 51.4693L140.575 45.363C140.536 45.3236 140.488 45.2947 140.435 45.279C140.382 45.2634 140.325 45.2614 140.271 45.2733C140.217 45.2847 140.167 45.3095 140.125 45.3454C140.083 45.3813 140.05 45.4273 140.031 45.479L136.06 55.9753C135.848 56.8241 135.372 57.5836 134.7 58.1444C132.494 59.4003 130.138 60.3746 127.69 61.0446C127.371 61.1369 120.676 62.9694 120.465 63.0168C120.39 63.029 120.321 63.0667 120.271 63.1236C120.22 63.1805 120.191 63.2531 120.188 63.3291C120.185 63.4052 120.208 63.48 120.253 63.5409C120.299 63.6019 120.364 63.6452 120.438 63.6637C121.652 63.9669 121.765 65.9707 120.851 66.8856C120.805 66.9317 120.773 66.9904 120.761 67.0544C120.748 67.1184 120.754 67.1847 120.779 67.2451C120.917 67.5764 120.847 67.3839 125.813 67.5017C129.684 67.739 133.554 67.0289 137.089 65.4328C141.812 63.1126 144.533 57.1952 146.713 51.8306C146.737 51.7698 146.743 51.7031 146.73 51.6388C146.717 51.5745 146.685 51.5156 146.639 51.4693Z" fill="#4B1010"/>
<path d="M167.354 66.5078C166.834 67.9008 165.521 68.9686 163.652 69.7596C156.43 73.0422 149.493 70.6385 148.338 67.9579C147.289 68.1765 146.256 68.4627 145.245 68.8148C141.185 70.0453 136.749 70.8925 133.732 73.9123C132.788 74.8553 131.938 76.2721 132.413 77.593C132.784 78.4363 133.457 79.1101 134.3 79.4817C135.47 80.1294 136.753 80.547 138.08 80.7121C137.229 81.2174 136.578 81.9992 136.234 82.9269C135.89 83.8546 135.876 84.8721 136.192 85.8095C136.853 87.5093 138.74 88.1702 140.533 88.4532C143.58 88.8159 146.662 88.7523 149.69 88.2642C155.494 87.519 161.236 86.3517 166.87 84.7716C166.941 84.7585 167.005 84.7241 167.055 84.6732C167.106 84.6232 167.14 84.5588 167.153 84.4886C167.908 82.6008 167.625 79.5801 165.923 78.2583C168.762 75.0302 168.866 70.519 167.354 66.5078Z" fill="#CBB3FF"/>
<path d="M143.418 39.0742C146.061 39.4521 148.828 39.7386 151.283 40.9655C153.924 42.3087 156.268 44.1709 158.173 46.4409C162.309 51.2437 165.366 56.8781 167.138 62.9637C168.436 66.2093 166.848 68.3582 163.645 69.76C155.619 73.2754 148.066 70.0702 148.164 67.1163C148.417 61.3038 146.759 55.5683 143.444 50.7869C141.297 47.8357 139.721 44.9486 141.745 41.9103L143.418 39.0742Z" fill="#CBB3FF"/>
<path d="M174.127 83.348C173.76 82.3262 173.017 81.4824 172.05 80.9883C170.29 79.58 168.7 77.97 167.314 76.1914C166.938 76.9351 166.467 77.6271 165.914 78.2506C167.175 79.2314 167.656 81.1509 167.512 82.8418C169.241 83.4236 171.078 83.8727 172.9 84.292C173.071 84.347 173.25 84.3671 173.429 84.3509C173.607 84.3348 173.78 84.2827 173.938 84.1979C174.033 84.0806 174.1 83.9428 174.133 83.7953C174.166 83.6478 174.164 83.4947 174.127 83.348Z" fill="#CBB3FF"/>
<path d="M174.439 83.2396C174.053 82.1569 173.272 81.2602 172.253 80.7296C170.549 79.403 169.027 77.8568 167.728 76.1313C169.109 73.2179 168.498 69.6919 167.683 66.5807C168.076 65.361 167.997 64.038 167.462 62.8736C165.698 56.7361 162.618 51.0571 158.434 46.2322C156.507 43.92 154.125 42.0277 151.438 40.6725C149.159 39.6816 146.735 39.0701 144.259 38.862C143.493 38.7548 143.284 38.666 143.14 38.9103C141.705 41.1326 140.49 43.4898 139.514 45.9483C139.162 47.0091 142.722 50.3585 143.185 50.9763C146.392 55.7299 148.022 61.3722 147.843 67.1036C147.835 67.2987 147.854 67.4947 147.901 67.6854C142.833 69.4739 137.965 69.4238 133.317 73.5738C130.747 75.8694 131.179 78.6221 134.064 80.0643C135.101 80.531 136.197 80.8561 137.321 81.031C136.041 82.3432 135.219 83.955 135.971 85.9228C137.089 88.7976 141.332 89.0103 144.447 89.0103C150.253 89.0103 160.958 86.8052 167.016 85.0914C167.151 85.0649 167.274 84.9998 167.372 84.9041C167.469 84.8084 167.537 84.6862 167.566 84.5527C167.705 84.1466 167.804 83.7292 167.864 83.3047C169.667 83.878 171.504 84.3388 173.364 84.6845C173.678 84.7003 173.985 84.5913 174.218 84.3813C174.343 84.2225 174.429 84.036 174.467 83.8374C174.506 83.6388 174.496 83.4338 174.439 83.2396ZM143.715 50.587C142.198 48.7796 141.312 46.5274 141.189 44.1712C141.359 43.0691 141.585 42.8424 143.594 39.4341C146.16 39.7945 148.814 40.1003 151.138 41.2622C153.746 42.5772 156.057 44.4139 157.926 46.6584C162.056 51.4204 165.097 57.0261 166.837 63.0845C167.966 65.9083 166.852 68.051 163.514 69.4563C155.56 73.0729 148.398 69.6673 148.5 67.1229C148.681 61.2452 147.007 55.4596 143.715 50.587ZM166.871 84.4481C161.247 86.025 155.514 87.19 149.72 87.9337C146.726 88.4181 143.679 88.482 140.668 88.1235C138.418 87.7676 137.082 86.9704 136.583 85.6882C135.45 82.7255 138.726 80.5415 140.896 79.0966C144.433 76.7131 148.109 74.5449 151.906 72.6036C151.982 72.5624 152.039 72.4932 152.064 72.4107C152.09 72.3283 152.082 72.2391 152.043 72.1622C152.003 72.0854 151.935 72.0271 151.853 71.9996C151.772 71.9722 151.682 71.978 151.605 72.0156C147.711 74.0098 140.417 78.274 137.922 80.4642C136.688 80.3103 135.483 79.9757 134.345 79.471C131.932 78.2644 131.5 76.0821 133.753 74.0704C138.28 70.0276 142.942 70.1392 148.135 68.3041C149.586 71.0154 156.484 73.3778 163.779 70.0619C165.159 69.5617 166.359 68.6634 167.228 67.4806C168.861 74.1829 167.634 77.8996 161.34 80.7867C156.08 83.2783 150.203 84.608 144.14 85.8587C144.057 85.8789 143.985 85.9307 143.939 86.0031C143.893 86.0754 143.878 86.1627 143.895 86.2466C143.912 86.3304 143.961 86.4043 144.032 86.4526C144.103 86.5009 144.19 86.5199 144.274 86.5055C150.168 85.2892 161.603 82.8231 165.944 78.5957C167.549 80.5907 167.475 83.4506 166.871 84.4481ZM173.701 83.9577C173.465 84.045 173.206 84.0506 172.966 83.9735C171.261 83.6184 169.575 83.171 167.918 82.6332C167.988 80.9904 167.448 79.3798 166.401 78.1114C166.778 77.6936 167.112 77.239 167.399 76.7545C167.45 76.8151 167.498 76.8793 167.542 76.9452C168.794 78.5823 170.262 80.043 171.905 81.2877C172.793 81.7428 173.476 82.5179 173.815 83.4567C173.838 83.5435 173.84 83.6346 173.821 83.7224C173.802 83.8101 173.762 83.892 173.705 83.9612L173.701 83.9577Z" fill="#4B1010"/>
<path d="M133.669 83.0797C133.919 83.2107 133.18 83.3759 132.878 83.4427C132.064 83.6017 131.224 83.5692 130.424 83.3478C130.203 83.6085 130.013 83.8936 129.857 84.1976C129.149 85.2602 128.253 84.9833 128.253 84.1027C128.465 83.52 128.717 82.9523 129.008 82.4039C128.553 82.9538 128.047 83.4596 127.498 83.9146C126.999 84.413 126.074 84.0254 126.649 82.8758C127.052 82.172 127.599 81.5609 128.253 81.082C127.745 81.4125 127.271 81.7922 126.838 82.2149C126.106 82.9461 125.372 82.0761 126.271 81.177C126.735 80.5159 127.393 80.0155 128.154 79.7448C128.915 79.4741 129.741 79.4467 130.518 79.6662L131.818 79.9553C131.777 80.6017 131.932 81.2455 132.262 81.8028C132.592 82.36 133.082 82.805 133.669 83.0797Z" fill="white"/>
<path d="M162.407 51.2502C161.744 50.0246 160.984 48.8541 160.134 47.7496C156.267 42.9158 150.554 39.5295 147.469 38.8818C147.227 38.7684 146.949 38.7542 146.696 38.8424C146.443 38.9305 146.235 39.114 146.115 39.3538C142.971 43.4423 144.114 48.197 145.143 53.2505C143.791 58.041 142.084 62.724 140.036 67.2605C137.903 71.8238 134.986 75.9776 131.418 79.5331L130.627 79.3573C129.791 79.118 128.903 79.1423 128.082 79.4268C127.261 79.7114 126.548 80.2423 126.041 80.9472C125.152 81.8357 125.531 82.7998 126.314 82.8218C125.976 83.5662 126.184 84.0715 126.502 84.3009C126.687 84.4257 126.91 84.4812 127.131 84.4575C127.353 84.4339 127.559 84.3327 127.713 84.1717C128.079 83.8676 127.927 83.9388 127.927 84.1067C127.927 85.2791 129.22 85.7598 130.136 84.3844C130.293 84.1498 130.388 83.9169 130.543 83.7182C131.333 83.9143 132.156 83.9317 132.954 83.7692C133.239 83.7191 133.517 83.6356 133.783 83.5214C134.969 83.5574 136.852 82.1292 137.768 81.442C144.759 76.4478 150.118 69.4982 153.17 61.467C155.245 61.0712 157.209 60.2272 158.924 58.9939C160.758 57.9078 162.214 56.2833 163.093 54.3411C163.639 53.2935 162.935 52.1176 162.407 51.2502ZM130.504 83.0292C130.102 82.9299 129.819 83.6629 129.583 84.0162C129.2 84.5909 128.621 84.8071 128.585 84.155C128.79 83.6066 129.031 83.0714 129.304 82.5537C129.338 82.4814 129.345 82.3991 129.323 82.3221C129.302 82.245 129.253 82.1785 129.186 82.1346C129.119 82.0908 129.038 82.0727 128.959 82.0837C128.88 82.0946 128.807 82.1339 128.755 82.1943C128.305 82.7363 127.804 83.2345 127.261 83.6822C126.969 83.9749 126.579 83.7481 126.932 83.0415C127.312 82.3799 127.827 81.8049 128.442 81.3532C128.51 81.305 128.557 81.2329 128.574 81.1513C128.59 81.0697 128.576 80.9848 128.532 80.9138C128.489 80.8429 128.421 80.7908 128.341 80.7677C128.261 80.7447 128.176 80.7522 128.102 80.789C127.562 81.1352 127.059 81.5351 126.6 81.9833C126.154 82.4307 125.97 81.9455 126.528 81.3822C126.957 80.7735 127.563 80.3127 128.265 80.0635C128.966 79.8143 129.727 79.789 130.444 79.9909L131.349 80.1922C131.508 82.0071 131.964 82.4773 132.768 83.1294C132.016 83.2718 131.241 83.2375 130.504 83.0292Z" fill="#4B1010"/>
<path d="M140.903 41.4383L141.82 42.1555C141.82 42.1555 141.984 43.4738 142.13 44.0811C142.276 44.6884 142.98 44.6268 143.36 43.4202C143.808 41.9885 143.97 41.6536 143.36 39.0785L141.866 38.045L141.852 37.2646C142.38 37.0007 142.79 36.5485 143.001 35.9972C143.251 35.1579 142.618 33.3307 141.866 33.5074C141.115 33.684 141.203 34.686 141.233 35.172C141.263 35.658 140.408 35.9234 140.084 35.4224C139.707 34.9604 139.236 34.5836 138.703 34.317C138.17 34.0503 137.586 33.8999 136.99 33.8756C135.379 33.6597 133.791 33.3 132.244 32.8008C131.932 33.7155 131.705 34.6569 131.566 35.6132C131.195 39.3246 134.269 42.9016 136.619 43.0677C137.411 43.1446 138.209 43.0375 138.952 42.7548C139.695 42.4722 140.363 42.0216 140.903 41.4383Z" fill="white"/>
<path d="M142.314 24.3166C141.615 24.1206 140.876 24.1237 140.179 24.3256C139.482 24.5275 138.855 24.9201 138.37 25.4592C136.243 25.2298 132.833 25.8538 131.065 27.3101C129.441 28.6933 128.126 30.4021 127.204 32.3258C126.199 34.2938 125.956 36.5639 126.522 38.7002C127.273 41.3316 130.889 42.3801 133.592 41.88C135.707 44.0701 139.003 44.2248 140.944 41.7209C141.207 41.9529 141.454 42.1858 141.692 42.417C141.625 43.2396 141.651 44.971 142.483 44.971C143.037 44.971 143.537 44.0692 143.672 43.5349C144.227 42.0069 144.203 40.3281 143.602 38.8171C143.456 38.6088 143.413 38.6563 142.204 37.9215C142.204 37.7642 142.195 37.6069 142.178 37.4496C142.539 37.2695 142.843 36.9928 143.057 36.6503C143.271 36.3078 143.386 35.9128 143.389 35.5091C143.719 34.254 143.784 32.9439 143.58 31.6622C144.191 31.1958 144.661 30.5712 144.942 29.8563C145.223 29.1413 145.302 28.3632 145.172 27.6063C145.042 26.8491 144.706 26.1422 144.202 25.5623C143.699 24.9823 143.045 24.5515 142.314 24.3166ZM134.863 42.0039C133.437 40.9096 132.422 39.3658 131.983 37.6227C131.839 36.155 132.019 34.6741 132.51 33.2838C135.857 34.6258 136.405 33.7531 138.653 34.6372C140.156 35.5767 140.664 37.069 140.86 38.8303C140.868 38.8951 140.895 38.956 140.938 39.0057C140.98 39.0554 141.036 39.0916 141.098 39.1098C141.161 39.1276 141.228 39.1264 141.29 39.1063C141.352 39.0863 141.407 39.0484 141.447 38.9973C140.822 42.5136 137.185 43.8275 134.863 42.0039ZM143.124 39.297C143.513 40.6214 143.482 42.0335 143.036 43.3398C142.809 44.2512 142.348 44.9068 142.324 42.983C142.376 42.9979 142.432 42.9994 142.485 42.9876C142.538 42.9758 142.588 42.9509 142.629 42.9151C142.67 42.8794 142.702 42.834 142.722 42.7829C142.741 42.7318 142.747 42.6768 142.74 42.6226C142.731 42.5501 142.698 42.4828 142.646 42.431C142.207 41.9916 141.788 41.575 141.319 41.1698C141.78 40.4085 142.069 39.5558 142.165 38.6712C143.039 39.2108 143.033 39.2425 143.123 39.297H143.124ZM141.762 36.8361C141.762 36.4222 141.744 35.9801 141.699 35.5038C141.521 35.0583 141.524 34.5614 141.706 34.1178C141.838 33.9868 141.919 34.0044 141.985 34.0299C142.373 34.3164 142.637 34.7383 142.725 35.212C142.784 35.5533 142.719 35.9044 142.542 36.2022C142.365 36.5 142.088 36.725 141.76 36.837L141.762 36.8361Z" fill="#4B1010"/>
<path d="M133.888 39.7409C134.174 38.8348 134.359 37.8997 134.438 36.9523C134.244 36.7565 134.024 36.5891 133.784 36.4549C133.708 36.4164 133.649 36.3502 133.621 36.2698C133.592 36.1895 133.596 36.1012 133.63 36.0233C133.665 35.9451 133.729 35.8836 133.808 35.8517C133.888 35.8199 133.976 35.8203 134.056 35.8528C134.411 36.04 134.731 36.2861 135.004 36.5814C135.066 36.6433 135.101 36.7274 135.101 36.8152C135.042 37.8743 134.847 38.9213 134.521 39.9308C134.49 40.0085 134.432 40.0721 134.357 40.1087C134.282 40.1454 134.196 40.1524 134.116 40.1285C134.036 40.1045 133.969 40.0513 133.926 39.9795C133.884 39.9076 133.87 39.8225 133.888 39.7409Z" fill="#4B1010"/>
<path d="M135.172 34.4348C135.412 34.1446 135.722 33.9204 136.073 33.7837C136.424 33.647 136.803 33.6021 137.176 33.6534C137.258 33.6718 137.329 33.7201 137.376 33.7887C137.424 33.8574 137.443 33.9413 137.431 34.0238C137.42 34.1063 137.377 34.1813 137.312 34.2339C137.248 34.2864 137.165 34.3126 137.082 34.3073C136.823 34.2728 136.56 34.3043 136.316 34.3988C136.072 34.4933 135.856 34.6477 135.688 34.8478C135.633 34.9154 135.554 34.9586 135.467 34.9678C135.38 34.9771 135.294 34.9517 135.225 34.8972C135.157 34.8427 135.114 34.7635 135.104 34.6769C135.094 34.5903 135.118 34.5032 135.172 34.4348Z" fill="#4B1010"/>
<path d="M131.284 36.3499C131.426 36.1664 131.612 36.0219 131.825 35.9297C132.039 35.8375 132.272 35.8006 132.503 35.8226C132.586 35.8287 132.664 35.8661 132.721 35.9274C132.778 35.9887 132.81 36.0693 132.81 36.153C132.81 36.2367 132.778 36.3173 132.721 36.3786C132.664 36.4399 132.586 36.4774 132.503 36.4835C132.31 36.4835 131.967 36.5134 131.833 36.7137C131.782 36.7792 131.708 36.823 131.626 36.8364C131.544 36.8497 131.459 36.8316 131.39 36.7857C131.321 36.7398 131.271 36.6694 131.252 36.5886C131.232 36.5078 131.243 36.4226 131.284 36.3499Z" fill="#4B1010"/>
<path d="M132.793 39.0313C132.612 39.031 132.433 39.0664 132.266 39.1354C132.098 39.2044 131.947 39.3056 131.819 39.4332C131.691 39.5609 131.589 39.7126 131.52 39.8795C131.45 40.0465 131.414 40.2254 131.414 40.4062C131.414 40.587 131.449 40.7661 131.518 40.9332C131.587 41.1004 131.688 41.2523 131.816 41.3803C131.944 41.5083 132.095 41.6099 132.262 41.6793C132.429 41.7487 132.608 41.7845 132.789 41.7847C133.154 41.7852 133.505 41.6406 133.763 41.3827C134.022 41.1249 134.167 40.7749 134.168 40.4098C134.168 40.0446 134.023 39.6943 133.766 39.4357C133.508 39.1772 133.158 39.0317 132.793 39.0313Z" fill="#CBB3FF"/>
<path d="M139.902 35.9375C139.663 35.9378 139.428 35.9909 139.212 36.0929C138.997 36.1949 138.807 36.3434 138.656 36.5277C138.504 36.7119 138.396 36.9274 138.338 37.1586C138.28 37.3898 138.273 37.631 138.32 37.8649C138.379 38.1645 138.523 38.441 138.733 38.6622C138.944 38.8835 139.213 39.0404 139.51 39.1146C139.806 39.1888 140.117 39.1774 140.407 39.0816C140.697 38.9858 140.954 38.8095 141.148 38.5734C141.342 38.3373 141.465 38.051 141.502 37.7478C141.539 37.4446 141.49 37.137 141.359 36.8609C141.229 36.5847 141.022 36.3513 140.764 36.1878C140.506 36.0244 140.207 35.9375 139.902 35.9375Z" fill="#CBB3FF"/>
<path d="M136.447 40.3746C136.893 40.2247 137.292 39.9595 137.603 39.6059C137.914 39.2523 138.126 38.8229 138.217 38.3611C138.233 38.2748 138.282 38.1984 138.354 38.1485C138.426 38.0987 138.515 38.0795 138.602 38.0952C138.688 38.1109 138.764 38.1603 138.814 38.2324C138.864 38.3045 138.883 38.3935 138.867 38.4797C138.756 39.0557 138.494 39.5919 138.108 40.0338C137.722 40.4757 137.226 40.8077 136.67 40.9959C136.589 41.0211 136.501 41.0139 136.425 40.9759C136.349 40.9379 136.29 40.872 136.262 40.792C136.233 40.7119 136.236 40.6238 136.271 40.5461C136.305 40.4683 136.368 40.4069 136.447 40.3746Z" fill="#4B1010"/>
<path d="M137.672 35.7172C137.487 35.3471 136.985 35.0053 136.658 35.2259C136.324 35.3885 135.947 35.4394 135.582 35.3709C135.519 35.361 135.455 35.3695 135.396 35.3953C135.338 35.4211 135.289 35.4631 135.254 35.5163C135.219 35.5695 135.2 35.6317 135.199 35.6954C135.199 35.7591 135.216 35.8215 135.251 35.8753C135.297 35.9473 135.369 35.9985 135.453 36.0186C135.764 36.0801 136.085 36.0766 136.394 36.0089C136.433 36.5872 136.942 37.1928 137.522 36.9291C137.973 36.7226 137.846 36.0652 137.672 35.7172Z" fill="#4B1010"/>
<path d="M133.434 37.3613C133.249 36.9913 132.748 36.6494 132.42 36.8709C132.086 37.0326 131.708 37.0835 131.344 37.0159C131.281 37.006 131.216 37.0145 131.158 37.0403C131.1 37.0661 131.05 37.1081 131.015 37.1613C130.98 37.2145 130.961 37.2767 130.961 37.3404C130.96 37.404 130.978 37.4665 131.012 37.5203C131.059 37.5922 131.131 37.6435 131.214 37.6636C131.526 37.7251 131.845 37.7216 132.156 37.6539C132.194 38.2313 132.705 38.8378 133.284 38.5732C133.735 38.3676 133.608 37.7102 133.434 37.3613Z" fill="#4B1010"/>
</svg>
