<svg width="233" height="219" viewBox="0 0 233 219" fill="none" xmlns="http://www.w3.org/2000/svg">
<path d="M140.364 17.8049C135.47 20.7018 134.072 25.6964 133.493 27.7542C133.353 28.2537 131.716 34.3871 134.552 40.7803C135.39 42.6782 136.289 44.6361 138.326 45.5751C139.505 46.1345 140.563 46.0946 144.717 45.735C146.655 45.5751 148.752 45.3754 150.989 45.1356C152.567 43.1178 155.283 39.0821 156.082 33.4082C156.221 32.3493 157.859 19.7228 150.989 16.3664C146.495 14.1488 141.083 17.3653 140.364 17.8049Z" fill="#8E8E8E"/>
<path d="M50.0098 47.5948C52.5026 47.5948 54.5235 45.3586 54.5235 42.6001C54.5235 39.8417 52.5026 37.6055 50.0098 37.6055C47.5169 37.6055 45.4961 39.8417 45.4961 42.6001C45.4961 45.3586 47.5169 47.5948 50.0098 47.5948Z" fill="#8E8E8E"/>
<path d="M152.367 127.625C154.22 127.625 155.722 126.176 155.722 124.389C155.722 122.601 154.22 121.152 152.367 121.152C150.514 121.152 149.012 122.601 149.012 124.389C149.012 126.176 150.514 127.625 152.367 127.625Z" fill="#8E8E8E"/>
<path d="M50.0502 108.088C51.429 108.088 52.5467 106.97 52.5467 105.591C52.5467 104.212 51.429 103.094 50.0502 103.094C48.6714 103.094 47.5537 104.212 47.5537 105.591C47.5537 106.97 48.6714 108.088 50.0502 108.088Z" fill="#8E8E8E"/>
<path d="M45.3963 45.9331C47.5914 45.9331 49.3708 44.0636 49.3708 41.7576C49.3708 39.4515 47.5914 37.582 45.3963 37.582C43.2013 37.582 41.4219 39.4515 41.4219 41.7576C41.4219 44.0636 43.2013 45.9331 45.3963 45.9331Z" fill="#5222D0"/>
<path d="M151.449 122.513C152.805 122.513 153.905 121.368 153.905 119.956C153.905 118.543 152.805 117.398 151.449 117.398C150.092 117.398 148.992 118.543 148.992 119.956C148.992 121.368 150.092 122.513 151.449 122.513Z" fill="#5222D0"/>
<path d="M184.282 51.9882C185.771 51.9882 186.978 50.7002 186.978 49.1113C186.978 47.5224 185.771 46.2344 184.282 46.2344C182.793 46.2344 181.586 47.5224 181.586 49.1113C181.586 50.7002 182.793 51.9882 184.282 51.9882Z" fill="#5222D0"/>
<path d="M125.724 69.7693C125.284 69.0701 124.565 69.7294 124.266 70.2089C123.647 71.2078 123.247 72.4465 123.707 73.5852C124.046 74.4443 124.885 75.1636 125.864 75.0237C126.762 74.9038 127.441 74.1646 127.421 73.2656C127.421 73.0258 127.082 72.846 126.902 73.0458C125.844 74.3844 124.545 76.2824 125.604 78.0005C126.343 79.1793 128.16 79.3391 128.879 78.0605C128.7 78.0405 128.52 78.0205 128.34 77.9805C128.44 78.5399 128.54 79.0993 128.62 79.6587C128.68 80.0383 129.259 79.8785 129.199 79.4989C129.099 78.9395 128.999 78.3801 128.919 77.8207C128.879 77.561 128.48 77.541 128.38 77.7408C128.061 78.3002 127.342 78.5 126.762 78.2203C126.123 77.9006 125.844 77.1814 125.844 76.4821C125.844 75.3234 126.662 74.3045 127.342 73.4454C127.162 73.3655 127.002 73.3055 126.822 73.2256C126.842 73.9848 126.103 74.5442 125.364 74.3844C124.805 74.2645 124.446 73.785 124.246 73.2656C124.046 72.7262 124.066 72.1867 124.226 71.6473C124.246 71.6074 125.065 69.8293 125.185 70.0291C125.404 70.3887 125.924 70.089 125.724 69.7693Z" fill="#8E8E8E"/>
<path d="M44.1779 71.5656C44.6173 70.3669 46.0752 70.8863 46.5346 71.7254C46.6944 72.0051 46.7743 72.3248 46.8142 72.6444C46.8941 73.2438 46.8342 73.4835 46.3149 73.8431C45.7557 74.4025 45.6159 74.1828 45.9155 73.1838C46.0553 73.1239 46.215 73.064 46.3548 73.004C46.7343 72.9041 47.1737 72.9241 47.5532 73.044C48.5118 73.3637 48.9912 74.3826 48.8514 75.3216C48.8114 75.5613 49.0511 75.801 49.2907 75.6612C50.5889 74.922 52.3065 75.7411 52.6061 77.1995C52.686 77.5791 53.2652 77.4193 53.1853 77.0397C52.8058 75.2017 50.6289 74.2427 48.9912 75.1617C49.131 75.2816 49.2907 75.3815 49.4306 75.5014C49.6902 73.7432 48.3521 72.105 46.4946 72.3847C45.8555 72.4846 44.8969 72.8842 44.817 73.6434C44.7571 74.2627 45.3363 74.7222 45.9155 74.7821C47.6331 74.942 47.5931 72.4446 47.0339 71.4457C46.275 70.0872 44.1779 69.7475 43.5787 71.4257C43.4589 71.7654 44.0381 71.9252 44.1779 71.5656Z" fill="#8E8E8E"/>
<path d="M149.331 146.768C150.869 147.787 152.167 149.086 153.206 150.604C153.426 150.924 153.945 150.624 153.725 150.305C152.627 148.706 151.269 147.348 149.651 146.269C149.311 146.029 149.012 146.549 149.331 146.768Z" fill="#5222D0"/>
<path d="M153.226 147.864C153.545 148.243 153.845 148.643 154.165 149.023C154.404 149.322 154.824 148.903 154.584 148.603C154.264 148.223 153.965 147.824 153.645 147.444C153.406 147.145 152.986 147.584 153.226 147.864Z" fill="#5222D0"/>
<path d="M151.388 142.271C152.766 143.55 153.905 145.008 154.783 146.666C154.963 147.006 155.482 146.706 155.303 146.367C154.404 144.669 153.226 143.15 151.808 141.852C151.528 141.572 151.108 142.011 151.388 142.271Z" fill="#5222D0"/>
<path d="M13.3017 164.769C13.7411 169.104 14.5 173.38 15.5586 177.615C15.6584 177.995 16.2376 177.835 16.1378 177.455C15.0992 173.28 14.3403 169.044 13.9009 164.769C13.8609 164.389 13.2618 164.389 13.3017 164.769Z" fill="#E8E8E8"/>
<path d="M15.6782 177.817C19.6127 178.836 23.707 178.836 27.6415 177.817C28.021 177.718 27.8612 177.138 27.4818 177.238C23.6471 178.237 19.6727 178.237 15.838 177.238C15.4785 177.138 15.3187 177.718 15.6782 177.817Z" fill="#E8E8E8"/>
<path d="M28.1006 177.215C28.3603 172.96 28.6998 168.704 29.0992 164.449C29.1392 164.069 28.54 164.069 28.5001 164.449C28.1006 168.704 27.7611 172.96 27.5015 177.215C27.4815 177.595 28.0807 177.595 28.1006 177.215Z" fill="#E8E8E8"/>
<path d="M13.6408 165.09C18.6139 166.109 23.7267 166.069 28.6998 164.95C29.0793 164.87 28.9195 164.291 28.54 164.371C23.6868 165.45 18.6738 165.51 13.8006 164.511C13.4211 164.431 13.2613 165.01 13.6408 165.09Z" fill="#E8E8E8"/>
<path d="M13.5807 166.528C13.7404 167.347 14.779 167.307 15.4181 167.367C17.0358 167.507 18.6736 167.547 20.2913 167.507C21.8491 167.467 23.4069 167.347 24.9648 167.168C26.203 167.008 27.4014 166.848 28.4998 166.229C28.8394 166.049 28.5398 165.529 28.2003 165.709C26.223 166.808 23.4868 166.768 21.2699 166.868C20.1715 166.908 19.053 166.928 17.9546 166.908C17.3754 166.888 14.2797 167.028 14.1598 166.368C14.08 165.989 13.5207 166.149 13.5807 166.528Z" fill="#E8E8E8"/>
<path d="M14.7199 173.461C15.6785 175.159 16.8969 176.657 18.3548 177.956C18.6344 178.216 19.0738 177.796 18.7742 177.536C17.3362 176.278 16.1579 174.819 15.2392 173.161C15.0594 172.821 14.5401 173.121 14.7199 173.461Z" fill="#E8E8E8"/>
<path d="M13.9404 168.846C15.9776 172.283 18.4541 175.439 21.2902 178.276C21.5698 178.556 21.9892 178.117 21.7096 177.857C18.9135 175.06 16.4769 171.943 14.4597 168.547C14.26 168.227 13.7407 168.527 13.9404 168.846Z" fill="#E8E8E8"/>
<path d="M17.2755 167.406C19.3926 171.182 21.8492 174.758 24.6253 178.095C24.865 178.394 25.2844 177.975 25.0447 177.675C22.3085 174.379 19.8719 170.842 17.7948 167.106C17.6151 166.767 17.0958 167.066 17.2755 167.406Z" fill="#E8E8E8"/>
<path d="M21.0902 167.546C23.1473 170.622 25.2244 173.679 27.3215 176.736C27.5412 177.056 28.0605 176.756 27.8408 176.436C25.7437 173.379 23.6666 170.323 21.6095 167.246C21.3898 166.926 20.8705 167.226 21.0902 167.546Z" fill="#E8E8E8"/>
<path d="M24.2861 167.366C25.3247 169.044 26.4431 170.682 27.6015 172.281C27.8212 172.58 28.3405 172.281 28.1208 171.981C26.9624 170.383 25.844 168.745 24.8054 167.066C24.6057 166.747 24.0864 167.046 24.2861 167.366Z" fill="#E8E8E8"/>
<path d="M7.01048 147.189C7.25015 148.568 7.48981 149.966 7.74945 151.345C7.82934 151.724 7.88926 152.124 8.20881 152.363C8.42851 152.543 9.1475 152.523 9.28731 152.723C9.30728 152.603 9.32725 152.483 9.32725 152.363C9.02767 152.663 8.72809 152.963 8.40853 153.243C8.32865 153.322 8.30867 153.442 8.32864 153.542C8.50839 154.082 8.62823 154.881 8.98772 155.34C9.16747 155.58 9.48702 155.54 9.62683 155.68C9.74666 155.8 9.70672 155.72 9.6468 156.08C9.60686 156.379 9.60686 156.699 9.6468 157.019C9.70672 157.498 9.84652 157.958 10.0263 158.397C11.0648 160.914 13.082 162.952 15.0193 164.83C15.2989 165.09 15.7183 164.67 15.4387 164.411C14.2005 163.212 12.9622 161.973 11.9436 160.575C10.945 159.196 9.76664 157.338 10.3858 155.58C10.4257 155.48 10.3858 155.34 10.3059 155.28C9.92642 154.981 9.54694 155.101 9.28731 154.621C8.788 153.722 9.06761 153.422 9.70672 152.803C9.80658 152.723 9.82655 152.543 9.74666 152.443C9.58689 152.204 9.46706 152.124 9.20742 152.044C9.04764 151.984 8.80797 152.044 8.6482 151.964C8.30867 151.784 8.30867 151.345 8.24875 151.025C8.00909 149.706 7.76942 148.368 7.54973 147.049C7.50978 146.65 6.9306 146.809 7.01048 147.189Z" fill="#E8E8E8"/>
<path d="M7.44971 147.107C15.2388 149.705 20.5714 156.977 20.7312 165.208C20.7312 165.588 21.3303 165.588 21.3303 165.208C21.1706 156.717 15.6583 149.225 7.60949 146.528C7.24999 146.408 7.09021 146.987 7.44971 147.107Z" fill="#E8E8E8"/>
<path d="M19.4128 157.018C21.3501 151.644 24.2061 146.449 28.7797 142.913C29.0793 142.673 28.7797 142.154 28.4802 142.394C23.7667 146.05 20.8308 151.324 18.8336 156.858C18.7138 157.218 19.293 157.378 19.4128 157.018Z" fill="#E8E8E8"/>
<path d="M28.2603 142.793C28.4001 144.631 28.5598 146.469 28.6996 148.327C28.7396 148.706 29.3387 148.706 29.2988 148.327C29.159 146.489 28.9992 144.651 28.8594 142.793C28.8394 142.413 28.2403 142.413 28.2603 142.793Z" fill="#E8E8E8"/>
<path d="M28.9593 148.129C28.6997 148.189 28.44 148.249 28.2004 148.329C27.8209 148.429 27.9807 149.008 28.3602 148.908C28.6198 148.848 28.8794 148.788 29.1191 148.708C29.4986 148.608 29.3388 148.049 28.9593 148.129Z" fill="#E8E8E8"/>
<path d="M27.9008 148.865C27.9807 149.245 28.3003 149.485 28.6597 149.525C28.8195 149.545 28.9593 149.385 28.9593 149.225C28.9593 149.045 28.8195 148.945 28.6597 148.925C28.7197 148.925 28.6597 148.925 28.6398 148.925C28.6198 148.925 28.5799 148.905 28.6198 148.925C28.5998 148.905 28.5799 148.905 28.5599 148.885C28.5199 148.865 28.5998 148.925 28.5399 148.865C28.5199 148.845 28.5199 148.845 28.5 148.826C28.5399 148.865 28.5 148.826 28.5 148.806C28.48 148.786 28.48 148.746 28.48 148.786C28.48 148.766 28.46 148.726 28.46 148.706C28.4201 148.546 28.2403 148.446 28.1005 148.506C27.9407 148.546 27.8609 148.706 27.9008 148.865Z" fill="#E8E8E8"/>
<path d="M28.3604 149.307C28.3804 150.446 28.3404 151.564 28.2206 152.683C28.1806 153.043 28.2406 153.882 28.0009 154.162C27.9809 154.182 27.6214 154.241 27.5415 154.301C27.242 154.541 27.6614 154.961 27.961 154.721C28.0608 154.641 28.3005 154.721 28.4603 154.541C28.6999 154.301 28.66 153.742 28.6999 153.462C28.8797 152.084 28.9596 150.685 28.9396 149.287C28.9596 148.927 28.3604 148.927 28.3604 149.307Z" fill="#E8E8E8"/>
<path d="M27.3018 154.82C27.9409 155.58 27.7612 156.838 27.7013 157.757C27.6214 158.816 27.4416 159.795 26.9224 160.714C26.1834 162.073 25.1448 163.211 24.6056 164.69C24.4658 165.049 25.045 165.209 25.1848 164.85C25.9038 162.912 27.5615 161.473 28.0608 159.435C28.4203 157.977 28.7598 155.64 27.7212 154.401C27.4816 154.121 27.0622 154.541 27.3018 154.82Z" fill="#E8E8E8"/>
<path d="M22.5884 164.969C23.1476 159.295 24.6455 153.761 27.0422 148.606C27.2019 148.267 26.6827 147.947 26.5229 148.307C24.0863 153.581 22.5484 159.195 21.9892 164.989C21.9493 165.368 22.5484 165.348 22.5884 164.969Z" fill="#E8E8E8"/>
<path d="M10.805 150.445C14.3001 154.84 16.8565 159.894 18.3544 165.289C18.4543 165.668 19.0335 165.508 18.9336 165.129C17.3958 159.615 14.7794 154.5 11.2244 150.025C10.9847 149.725 10.5653 150.145 10.805 150.445Z" fill="#E8E8E8"/>
<path d="M11.1843 157.816C12.862 157.717 14.4198 158.116 15.8379 158.995C16.1574 159.195 16.477 158.675 16.1374 158.476C14.6395 157.557 12.9419 157.117 11.1843 157.217C10.7849 157.237 10.7849 157.836 11.1843 157.816Z" fill="#E8E8E8"/>
<path d="M14.8394 155.141C14.7196 154.042 14.8594 152.983 15.2788 151.945C15.4186 151.585 14.8394 151.425 14.6996 151.785C14.2602 152.864 14.1204 153.982 14.2402 155.141C14.2802 155.521 14.8793 155.521 14.8394 155.141Z" fill="#E8E8E8"/>
<path d="M21.3107 151.823C21.9697 153.442 22.9284 155.16 23.1681 156.878C23.228 157.258 23.8072 157.098 23.7473 156.718C23.4876 154.98 22.529 153.262 21.8899 151.664C21.7501 151.304 21.1709 151.464 21.3107 151.823Z" fill="#E8E8E8"/>
<path d="M24.9855 153.724C25.5647 153.064 26.1239 152.285 26.8629 151.786C27.482 151.366 28.1611 151.086 28.6404 150.507C28.8801 150.207 28.4606 149.788 28.221 150.087C27.7017 150.707 26.9428 150.967 26.3236 151.446C25.6446 151.965 25.1253 152.665 24.5661 153.304C24.3064 153.604 24.7259 154.023 24.9855 153.724Z" fill="#E8E8E8"/>
<path d="M25.1845 164.771C26.1432 164.512 27.1218 164.412 28.1204 164.472C28.4999 164.492 28.4999 163.892 28.1204 163.872C27.0619 163.812 26.0433 163.912 25.0248 164.192C24.6653 164.292 24.8051 164.871 25.1845 164.771Z" fill="#E8E8E8"/>
<path d="M25.1049 165.01C26.2234 165.11 27.3019 164.97 28.3804 164.631C28.7399 164.511 28.5801 163.932 28.2206 164.051C27.202 164.371 26.1634 164.491 25.1049 164.411C24.7254 164.391 24.7254 164.99 25.1049 165.01Z" fill="#E8E8E8"/>
<path d="M13.9008 164.908C14.1605 164.908 14.4001 164.908 14.6598 164.908C15.0392 164.908 15.0392 164.309 14.6598 164.309C14.4001 164.309 14.1605 164.309 13.9008 164.309C13.5213 164.309 13.5213 164.908 13.9008 164.908Z" fill="#E8E8E8"/>
<path d="M28.5405 169.744C34.8716 169.744 41.2228 169.744 47.5539 169.744C47.9334 169.744 47.9334 169.145 47.5539 169.145C41.2228 169.145 34.8716 169.145 28.5405 169.145C28.161 169.145 28.161 169.744 28.5405 169.744Z" fill="#E8E8E8"/>
<path d="M135.71 165.791C139.485 165.791 143.24 165.791 147.015 165.791C147.394 165.791 147.394 165.191 147.015 165.191C143.24 165.191 139.485 165.191 135.71 165.191C135.331 165.191 135.331 165.791 135.71 165.791Z" fill="#E8E8E8"/>
<path d="M169.983 166.15C186.26 166.15 202.537 166.15 218.815 166.15C223.448 166.15 228.082 166.15 232.715 166.15C233.095 166.15 233.095 165.551 232.715 165.551C216.438 165.551 200.161 165.551 183.883 165.551C179.25 165.551 174.616 165.551 169.983 165.551C169.603 165.551 169.603 166.15 169.983 166.15Z" fill="#E8E8E8"/>
<path d="M145.877 100.561C144.359 103.697 142.721 106.774 140.983 109.791C140.904 109.951 140.963 110.21 141.163 110.23C149.731 111.529 157.401 115.784 164.79 120.08C165.13 120.279 165.429 119.76 165.09 119.56C157.64 115.245 149.931 110.969 141.303 109.651C141.363 109.791 141.423 109.951 141.483 110.09C143.24 107.074 144.858 103.997 146.376 100.86C146.556 100.521 146.056 100.201 145.877 100.561Z" fill="#E8E8E8"/>
<path d="M147.195 111.449C147.794 109.73 148.393 107.992 148.993 106.274C149.252 105.555 149.432 104.756 149.771 104.057C149.851 103.637 150.111 103.317 150.51 103.078C150.75 103.138 150.99 103.197 151.229 103.257C151.589 103.357 151.948 103.437 152.288 103.537C153.107 103.737 154.425 103.737 154.285 104.836C154.185 105.615 153.726 106.454 153.466 107.213C152.867 108.911 152.288 110.61 151.689 112.308C151.569 112.667 152.148 112.827 152.268 112.468C153.047 110.23 153.826 107.972 154.605 105.735C154.784 105.215 155.284 104.336 154.884 103.777C154.445 103.178 153.127 103.138 152.448 102.958C151.789 102.798 150.63 102.199 149.951 102.518C149.372 102.778 149.252 103.777 149.072 104.276C148.254 106.614 147.435 108.971 146.616 111.309C146.496 111.648 147.075 111.808 147.195 111.449Z" fill="#E8E8E8"/>
<path d="M154.904 113.585C156.182 110.888 157.48 108.17 158.758 105.473C159.397 104.115 160.037 102.776 160.696 101.418C160.995 100.798 161.235 100.059 161.614 99.4797C161.934 98.9803 162.014 98.8604 162.573 99.0802C162.873 99.2 163.232 99.4997 163.492 99.6795C163.831 99.9193 164.371 100.179 164.61 100.499C164.91 100.878 164.79 101.278 164.61 101.757C164.371 102.397 164.011 103.016 163.711 103.635C163.052 104.994 162.393 106.352 161.694 107.711C160.376 110.288 158.998 112.845 157.58 115.383C157.38 115.722 157.9 116.022 158.099 115.682C159.837 112.606 161.495 109.489 163.052 106.332C163.831 104.774 164.69 103.176 165.349 101.558C165.808 100.379 164.81 99.8993 163.931 99.28C163.232 98.8005 162.134 97.7016 161.375 98.6007C160.895 99.1601 160.636 100.099 160.316 100.778C159.917 101.597 159.537 102.417 159.138 103.256C157.54 106.612 155.942 109.969 154.364 113.325C154.225 113.625 154.744 113.944 154.904 113.585Z" fill="#E8E8E8"/>
<path d="M161.535 117.741C163.253 115.044 165.19 112.486 167.327 110.129C167.207 110.149 167.087 110.169 166.967 110.169C167.726 110.688 168.465 111.188 169.224 111.707C169.184 111.567 169.144 111.428 169.124 111.288C167.427 113.945 165.729 116.582 164.031 119.239C163.832 119.559 164.331 119.859 164.551 119.539C166.248 116.882 167.946 114.245 169.644 111.587C169.743 111.448 169.664 111.268 169.544 111.168C168.785 110.648 168.046 110.149 167.287 109.63C167.187 109.55 167.007 109.59 166.927 109.669C164.75 112.087 162.773 114.664 161.036 117.401C160.816 117.781 161.335 118.08 161.535 117.741Z" fill="#E8E8E8"/>
<path d="M185.361 98.7423C183.364 97.9831 182.106 95.9852 182.465 93.8475C182.825 91.6698 184.962 89.7319 187.159 91.0305C188.677 91.9295 189.456 93.9674 188.876 95.6256C188.277 97.4037 186.32 98.4625 184.502 98.1828C184.123 98.1229 183.963 98.7023 184.343 98.7622C186.48 99.0819 188.737 97.9031 189.456 95.7854C190.175 93.6677 189.016 91.1104 186.939 90.2513C184.502 89.2524 182.286 91.3502 181.866 93.6877C181.427 96.165 182.885 98.4426 185.182 99.3216C185.561 99.4615 185.721 98.8821 185.361 98.7423Z" fill="#E8E8E8"/>
<path d="M189.456 98.3596C185.481 98.2397 186.979 91.8666 190.494 92.1063C194.009 92.366 192.571 99.5384 188.717 98.2198C188.357 98.0999 188.197 98.6793 188.557 98.7992C193.011 100.318 195.008 92.2062 190.754 91.5269C188.677 91.1873 186.799 93.1452 186.48 95.0831C186.16 97.0011 187.459 98.8791 189.456 98.939C189.835 98.979 189.835 98.3796 189.456 98.3596Z" fill="#E8E8E8"/>
<path d="M186.48 80.2786C186.141 79.919 185.981 79.3396 186.241 78.9001C186.5 78.4806 187.139 78.2808 187.539 78.6004C187.898 78.8801 187.978 79.4795 187.639 79.7792C187.239 80.1388 186.6 79.959 186.221 79.6593C185.921 79.4196 185.502 79.8391 185.801 80.0789C186.42 80.5583 187.379 80.7981 188.038 80.2187C188.637 79.6793 188.577 78.6804 187.978 78.1609C187.359 77.6215 186.38 77.7813 185.861 78.3807C185.282 79.0599 185.442 80.0789 186.041 80.6982C186.32 80.9779 186.74 80.5583 186.48 80.2786Z" fill="#E8E8E8"/>
<path d="M128.521 95.3257C127.961 91.9293 129.939 87.8337 133.773 87.8736C135.731 87.8936 137.628 88.6928 139.605 88.4131C141.003 88.2133 142.202 87.4141 143.04 86.3153C143.879 85.2165 144.359 83.8379 144.438 82.4594C144.538 80.4216 143.759 78.3438 144.319 76.326C144.598 75.3071 145.197 74.3681 146.216 73.9885C147.195 73.6489 148.253 73.8486 149.272 73.8087C150.75 73.7487 151.908 73.1094 152.647 71.8108C153.686 69.9928 153.446 67.8151 154.165 65.8971C155.024 63.5796 157.44 61.6017 159.997 62.7405C160.336 62.9004 160.656 62.3809 160.296 62.2211C156.821 60.6627 153.925 63.7994 153.246 66.956C152.807 69.0138 152.887 72.2104 150.43 73.0295C148.712 73.6089 146.775 72.7099 145.197 73.8886C143.899 74.8476 143.52 76.6057 143.54 78.144C143.6 80.4016 144.299 82.5993 143.3 84.757C142.381 86.7948 140.564 88.0135 138.307 87.8736C136.31 87.7538 134.332 86.9346 132.315 87.4541C128.9 88.3132 127.442 92.3488 127.981 95.5055C128.021 95.8451 128.6 95.6853 128.521 95.3257Z" fill="#E8E8E8"/>
<path d="M153.766 81.0806C153.027 79.4024 154.045 77.8041 155.663 77.2647C156.841 76.8651 158.14 76.8451 159.158 76.046C159.957 75.4267 160.217 74.6475 160.117 73.6486C160.017 72.7096 160.017 71.9704 160.756 71.331C161.375 70.7916 162.194 70.5918 162.993 70.5519C165.19 70.472 168.206 71.5908 169.803 69.4531C170.542 68.4541 170.323 67.2154 170.662 66.0966C171.122 64.5383 172.619 63.5793 174.217 63.6593C174.597 63.6792 174.597 63.0799 174.217 63.0599C172.999 63 171.821 63.4595 170.982 64.3385C169.943 65.4374 170.083 66.676 169.763 68.0545C168.905 71.8305 163.652 69.1734 161.175 70.3521C160.257 70.7916 159.518 71.5708 159.438 72.6097C159.338 73.8284 159.897 74.8273 158.659 75.6664C158 76.1059 157.241 76.2458 156.482 76.4256C155.224 76.7253 153.985 77.1049 153.346 78.3236C152.827 79.2825 152.827 80.3814 153.266 81.3603C153.406 81.7399 153.906 81.4202 153.766 81.0806Z" fill="#E8E8E8"/>
<path d="M189.356 54.4697C189.276 54.2899 189.196 54.0901 189.136 53.8903C189.395 53.5906 189.635 53.2909 189.895 52.9913C189.975 52.9713 190.334 53.211 190.454 53.211C190.754 53.251 191.013 53.1711 191.253 52.9913C191.992 52.4119 191.732 51.4929 191.952 50.7137C192.311 49.3751 193.889 50.2942 194.608 49.2952C195.327 48.3163 195.068 46.2385 196.985 46.7979C197.364 46.8978 197.524 46.3184 197.145 46.2185C196.046 45.8989 195.048 46.4183 194.648 47.4772C194.528 47.7768 194.488 48.1165 194.369 48.4162C194.109 49.1154 193.829 49.2153 193.07 49.2553C192.511 49.2952 192.072 49.2553 191.692 49.7348C191.373 50.1543 191.373 50.6937 191.313 51.1932C191.253 51.9324 191.313 52.5517 190.214 52.4718C189.995 52.4518 189.815 52.2521 189.575 52.2521C188.257 52.2321 188.477 53.8503 188.796 54.6295C188.916 54.9891 189.515 54.8293 189.356 54.4697Z" fill="#E8E8E8"/>
<path d="M193.111 56.1269C192.791 55.7074 192.252 54.4887 193.191 54.169C193.53 54.0491 193.97 54.189 194.329 54.189C194.649 54.189 194.928 54.189 195.188 53.9692C195.987 53.3299 195.408 52.1911 195.827 51.392C196.506 50.0934 197.864 51.1123 198.823 50.433C199.502 49.9535 199.682 49.0345 199.801 48.2753C199.861 47.8957 199.282 47.7359 199.222 48.1155C199.082 49.0145 198.923 50.0135 197.804 50.1133C197.225 50.1733 196.786 49.9735 196.246 50.2332C195.368 50.6528 195.088 51.4319 195.068 52.331C195.048 53.0902 195.228 53.4698 193.95 53.5297C193.79 53.5297 193.63 53.4897 193.47 53.4897C193.011 53.5297 192.611 53.7694 192.352 54.149C191.793 54.9482 192.112 55.8672 192.671 56.5664C192.931 56.8661 193.35 56.4266 193.111 56.1269Z" fill="#E8E8E8"/>
<path d="M23.307 66.9566C24.9647 64.9588 27.3214 63.3205 30.0376 63.6002C32.9935 63.8999 34.4515 66.2574 34.7311 69.0144C35.2104 73.5895 34.092 79.0637 37.1877 82.9595C38.406 84.4979 40.2234 85.317 42.1807 84.8375C44.5374 84.2781 46.3749 82.4201 48.4719 81.3213C50.9485 80.0227 54.3637 79.3234 56.6006 81.5011C58.2383 83.0994 58.5978 85.5368 59.1371 87.6545C59.6364 89.5724 60.4952 91.6902 62.2128 92.829C63.2513 93.5082 64.3897 93.5682 65.5881 93.4883C66.9262 93.3884 69.6624 93.3084 69.3828 95.4062C69.3428 95.7858 69.942 95.7858 69.9819 95.4062C70.0818 94.5871 69.7023 93.9278 69.0432 93.4483C68.0047 92.6891 66.8064 92.809 65.5881 92.8889C64.21 92.9888 63.0316 92.8689 61.9731 91.89C61.0144 91.0109 60.4352 89.7722 60.0158 88.5535C59.3168 86.4558 59.1171 84.1582 57.9187 82.2403C56.7404 80.3423 54.7032 79.4233 52.5063 79.5032C49.7302 79.6031 47.3934 81.2014 45.1765 82.6798C44.118 83.3791 42.9796 84.1183 41.6814 84.338C40.1236 84.5978 38.7455 83.9185 37.7469 82.7597C35.8695 80.5621 35.5699 77.4254 35.4701 74.6684C35.3702 72.0911 35.7097 69.2941 34.8509 66.7968C34.072 64.5193 32.0948 63.1008 29.7181 62.9809C26.9619 62.841 24.5453 64.4993 22.8477 66.5371C22.628 66.8368 23.0474 67.2563 23.307 66.9566Z" fill="#E8E8E8"/>
<path d="M13.2217 97.7811C16.3373 102.976 19.1135 108.35 21.57 113.884C21.7298 114.244 22.2491 113.924 22.0893 113.584C19.6327 108.05 16.8366 102.676 13.741 97.4814C13.5412 97.1418 13.022 97.4415 13.2217 97.7811Z" fill="#E8E8E8"/>
<path d="M13.6013 97.5415C18.4545 94.5247 23.4475 91.7077 28.5804 89.1505C28.9199 88.9707 28.6203 88.4512 28.2808 88.631C23.1679 91.1883 18.1749 94.0053 13.3017 97.022C12.9622 97.2418 13.2618 97.7613 13.6013 97.5415Z" fill="#E8E8E8"/>
<path d="M28.2205 88.8917C30.757 94.226 33.4333 99.4804 36.2693 104.655C36.4491 104.994 36.9683 104.695 36.7886 104.355C33.9525 99.1807 31.2563 93.9263 28.7398 88.592C28.5601 88.2324 28.0608 88.5321 28.2205 88.8917Z" fill="#E8E8E8"/>
<path d="M22.2487 114.005C27.022 111.128 31.7355 108.171 36.4089 105.135C36.7285 104.935 36.4289 104.415 36.1094 104.615C31.4359 107.652 26.7225 110.609 21.9491 113.486C21.6296 113.686 21.9291 114.205 22.2487 114.005Z" fill="#E8E8E8"/>
<path d="M21.8696 95.7847C21.7498 99.6206 21.9695 103.437 22.5287 107.232C22.5886 107.612 23.1678 107.452 23.1079 107.073C22.5487 103.337 22.3489 99.5607 22.4688 95.7847C22.4887 95.4051 21.8896 95.4051 21.8696 95.7847Z" fill="#E8E8E8"/>
<path d="M21.8892 95.5849C24.6653 97.7626 27.4415 99.9003 30.2575 102.018C30.5571 102.258 30.8567 101.738 30.5571 101.499C27.781 99.4208 25.0248 97.303 22.3086 95.1653C22.009 94.9256 21.5896 95.3451 21.8892 95.5849Z" fill="#E8E8E8"/>
<path d="M23.1478 107.351C25.4446 105.293 28.4404 104.194 30.6174 101.977C30.897 101.697 30.4576 101.277 30.198 101.557C28.021 103.755 25.0451 104.874 22.7284 106.931C22.4288 107.171 22.8682 107.591 23.1478 107.351Z" fill="#E8E8E8"/>
<path d="M14.0202 100.918C14.6593 100.599 15.2984 100.299 15.9376 99.9793C16.2771 99.8195 15.9775 99.3 15.638 99.4599C14.9989 99.7795 14.3598 100.079 13.7206 100.399C13.3811 100.579 13.6807 101.078 14.0202 100.918Z" fill="#E8E8E8"/>
<path d="M16.0779 104.313C16.6172 103.953 17.1964 103.654 17.7955 103.394C18.155 103.254 17.9952 102.675 17.6357 102.815C16.9767 103.094 16.3575 103.414 15.7584 103.794C15.4588 104.013 15.7584 104.533 16.0779 104.313Z" fill="#E8E8E8"/>
<path d="M18.3347 108.229C18.8939 107.949 19.4531 107.67 20.0123 107.41C20.3519 107.23 20.0523 106.731 19.7128 106.89C19.1535 107.17 18.5943 107.45 18.0351 107.71C17.6956 107.869 17.9952 108.389 18.3347 108.229Z" fill="#E8E8E8"/>
<path d="M19.4932 112.148C20.1123 111.608 20.7514 111.149 21.4704 110.749C21.8099 110.549 21.5104 110.05 21.1708 110.23C20.4319 110.649 19.7328 111.149 19.0738 111.728C18.7742 111.988 19.1936 112.407 19.4932 112.148Z" fill="#E8E8E8"/>
<path d="M29.3592 92.8289C29.8185 92.5093 30.2979 92.2895 30.8371 92.1497C31.2166 92.0498 31.0568 91.4904 30.6773 91.5703C30.0981 91.7101 29.5389 91.9499 29.0396 92.3095C28.74 92.5293 29.0396 93.0487 29.3592 92.8289Z" fill="#E8E8E8"/>
<path d="M31.1364 96.244C31.7755 95.8444 32.4147 95.4449 33.0338 95.0253C33.3533 94.8255 33.0538 94.3061 32.7342 94.5059C32.0951 94.9054 31.456 95.305 30.8369 95.7246C30.4973 95.9443 30.7969 96.4638 31.1364 96.244Z" fill="#E8E8E8"/>
<path d="M33.1736 100.339C33.8527 100.04 34.5517 99.7399 35.2307 99.4403C35.5902 99.2804 35.2707 98.761 34.9312 98.9208C34.2521 99.2205 33.5531 99.5202 32.874 99.8198C32.5145 99.9797 32.8341 100.499 33.1736 100.339Z" fill="#E8E8E8"/>
<path d="M34.6317 103.016C35.171 102.497 35.7702 102.057 36.4292 101.678C36.7688 101.498 36.4692 100.979 36.1297 101.158C35.4306 101.558 34.7915 102.017 34.2123 102.577C33.9327 102.857 34.3521 103.276 34.6317 103.016Z" fill="#E8E8E8"/>
<path d="M23.9466 111.369C24.4459 112.108 24.8654 112.887 25.1849 113.707C25.3247 114.066 25.9039 113.906 25.7641 113.547C25.4246 112.668 25.0052 111.829 24.4659 111.049C24.2462 110.75 23.7269 111.049 23.9466 111.369Z" fill="#E8E8E8"/>
<path d="M27.0021 109.711C27.3816 110.39 27.7411 111.049 28.1206 111.729C28.3003 112.068 28.8196 111.769 28.6398 111.429C28.2604 110.75 27.9009 110.09 27.5214 109.411C27.3416 109.071 26.8224 109.371 27.0021 109.711Z" fill="#E8E8E8"/>
<path d="M30.5373 107.172C30.9367 107.891 31.3362 108.61 31.7356 109.329C31.9153 109.669 32.4346 109.369 32.2549 109.03C31.8554 108.311 31.456 107.591 31.0565 106.872C30.8768 106.532 30.3575 106.832 30.5373 107.172Z" fill="#E8E8E8"/>
<path d="M33.7128 105.273C34.0323 106.032 34.3519 106.792 34.6914 107.531C34.8512 107.891 35.3505 107.571 35.2107 107.231C34.8911 106.472 34.5716 105.713 34.2321 104.974C34.0723 104.634 33.553 104.934 33.7128 105.273Z" fill="#E8E8E8"/>
<path d="M15.5986 94.4637C15.9781 95.083 16.3376 95.7024 16.7171 96.3017C16.9168 96.6414 17.4361 96.3217 17.2363 96.002C16.8569 95.3827 16.4974 94.7634 16.1179 94.164C15.9182 93.8443 15.3989 94.144 15.5986 94.4637Z" fill="#E8E8E8"/>
<path d="M19.033 92.4659C19.3925 93.2651 19.752 94.0642 20.1115 94.8634C20.2713 95.223 20.7906 94.9033 20.6308 94.5637C20.2713 93.7645 19.9118 92.9654 19.5523 92.1662C19.3726 91.8066 18.8733 92.1063 19.033 92.4659Z" fill="#E8E8E8"/>
<path d="M22.1293 90.5486C22.6685 91.2678 23.0879 92.047 23.3675 92.8861C23.4874 93.2457 24.0666 93.0859 23.9467 92.7263C23.6471 91.8272 23.2277 90.9881 22.6485 90.2489C22.4288 89.9493 21.9096 90.229 22.1293 90.5486Z" fill="#E8E8E8"/>
<path d="M25.4642 89.0106C25.8836 89.6499 26.2831 90.2692 26.7025 90.9085C26.9022 91.2282 27.4215 90.9285 27.2218 90.6088C26.8023 89.9695 26.4029 89.3502 25.9835 88.7109C25.7638 88.3912 25.2445 88.6909 25.4642 89.0106Z" fill="#E8E8E8"/>
<path d="M56.5214 49.3923C54.5841 48.7929 54.4843 46.7351 55.403 45.1968C56.3017 43.6984 58.0393 43.2988 59.3974 44.5375C60.5159 45.5764 60.6157 47.3545 59.5772 48.4933C58.5386 49.652 56.841 49.632 55.6427 48.753C55.3431 48.5132 55.0435 49.0327 55.3431 49.2724C56.861 50.3912 59.0779 50.2114 60.2163 48.6331C61.3946 47.0348 60.9752 44.7972 59.3175 43.7184C55.3231 41.1411 51.8879 48.5732 56.3616 49.9717C56.7411 50.0916 56.9009 49.5122 56.5214 49.3923Z" fill="#E8E8E8"/>
<path d="M59.737 49.9124C58.2391 50.3719 57.8796 48.5738 58.5387 47.6149C59.0779 46.8357 60.1364 46.3762 61.0951 46.6359C62.0138 46.8756 62.6729 47.8146 62.4332 48.7536C62.1337 49.9324 60.8954 50.3519 59.7969 50.1721C59.4174 50.1122 59.2577 50.6916 59.6371 50.7515C61.1151 51.0112 62.7129 50.3719 63.0324 48.7736C63.312 47.3951 62.2335 46.1364 60.8954 45.9766C59.4174 45.7968 57.7997 46.8756 57.6 48.394C57.4202 49.7126 58.6186 50.8913 59.9367 50.4718C60.2763 50.3719 60.1165 49.7925 59.737 49.9124Z" fill="#E8E8E8"/>
<path d="M46.9941 62.9189C46.5148 63.8979 47.1938 64.8768 48.1924 65.1366C48.9514 65.3363 49.7502 65.1565 50.5292 65.1965C51.368 65.2365 52.2068 65.4362 52.9658 65.7759C54.6434 66.5351 55.7219 67.9136 55.7818 69.7716C55.8417 71.3299 55.3824 72.9482 56.0614 74.4266C57.4994 77.5433 61.4539 75.1658 63.4911 77.1837C65.1887 78.8819 64.4897 81.9785 66.7665 83.2771C67.106 83.4769 67.4056 82.9575 67.0661 82.7577C65.0289 81.5989 65.5083 78.5822 64.0703 76.904C63.3113 76.0249 62.2129 75.7852 61.0944 75.7053C59.7363 75.6253 57.9788 75.905 56.9802 74.7463C55.8218 73.3877 56.4409 71.3499 56.381 69.7516C56.3411 68.493 55.9216 67.3542 55.0429 66.4551C54.264 65.676 53.2454 65.1366 52.1868 64.8569C51.6476 64.717 51.0884 64.6171 50.5292 64.5971C49.8102 64.5572 46.6945 64.9168 47.5333 63.2186C47.6931 62.879 47.1738 62.5793 46.9941 62.9189Z" fill="#E8E8E8"/>
<path d="M0.299582 170.763C3.91454 170.763 7.50952 170.763 11.1245 170.763C11.504 170.763 11.504 170.164 11.1245 170.164C7.50952 170.164 3.91454 170.164 0.299582 170.164C-0.0998607 170.164 -0.0998607 170.763 0.299582 170.763Z" fill="#E8E8E8"/>
<path d="M6.13161 184.31C13.0819 184.31 20.0123 184.31 26.9626 184.31C27.342 184.31 27.342 183.711 26.9626 183.711C20.0123 183.711 13.0819 183.711 6.13161 183.711C5.73217 183.711 5.73217 184.31 6.13161 184.31Z" fill="#E8E8E8"/>
<path d="M26.1238 180.552C32.5748 180.552 39.0458 180.552 45.4968 180.552C45.8762 180.552 45.8762 179.953 45.4968 179.953C39.0458 179.953 32.5748 179.953 26.1238 179.953C25.7244 179.953 25.7244 180.552 26.1238 180.552Z" fill="#E8E8E8"/>
<path d="M133.553 179.513C136.809 178.714 140.084 178.634 143.4 179.154C144.798 179.373 146.216 179.593 147.634 179.473C149.012 179.353 150.35 178.934 151.688 178.574C153.206 178.155 154.724 177.835 156.322 177.955C157.959 178.075 159.537 178.534 161.135 178.894C162.513 179.214 163.911 179.433 165.329 179.413C166.827 179.373 168.305 179.114 169.763 178.894C173.757 178.255 177.512 178.654 181.467 179.313C181.846 179.373 182.006 178.794 181.626 178.734C178.431 178.215 175.215 177.675 171.96 177.995C168.565 178.334 165.409 179.174 161.974 178.474C159.098 177.895 156.362 176.996 153.406 177.555C151.828 177.855 150.33 178.414 148.752 178.714C146.995 179.054 145.297 178.854 143.54 178.574C140.124 178.055 136.749 178.095 133.374 178.934C133.034 179.034 133.194 179.613 133.553 179.513Z" fill="#E8E8E8"/>
<path d="M164.231 173.44C170.502 173.1 176.773 172.761 183.044 172.441C186.14 172.281 189.136 172.341 192.211 172.761C193.59 172.941 194.908 172.981 196.286 172.821C197.824 172.641 199.421 172.401 200.859 173.14C201.199 173.32 201.499 172.801 201.159 172.621C198.722 171.382 195.906 172.541 193.29 172.301C191.732 172.161 190.214 171.862 188.656 171.782C187.039 171.702 185.421 171.742 183.803 171.822C177.272 172.121 170.741 172.521 164.211 172.861C163.851 172.861 163.851 173.46 164.231 173.44Z" fill="#E8E8E8"/>
<path d="M41.422 190.604C44.3779 190.884 47.3537 191.163 50.3096 190.824C51.6877 190.664 53.0059 190.364 54.344 189.965C56.0816 189.445 57.6394 189.305 59.4369 189.625C60.815 189.865 62.1731 190.204 63.5512 190.324C65.0091 190.444 66.4671 190.364 67.9251 190.224C70.9808 189.925 74.0365 189.405 77.0723 190.084C77.4518 190.164 77.6115 189.585 77.2321 189.505C74.3161 188.866 71.4002 189.285 68.4643 189.585C67.0063 189.725 65.5484 189.865 64.0904 189.785C62.4327 189.705 60.8349 189.265 59.2172 189.006C57.8591 188.786 56.5609 188.786 55.2228 189.106C53.7848 189.465 52.4267 189.945 50.9487 190.164C47.7931 190.624 44.5776 190.304 41.422 190.025C41.0226 189.965 41.0426 190.564 41.422 190.604Z" fill="#E8E8E8"/>
<path d="M73.0179 29.3949C72.2389 28.8555 71.1804 27.9964 71.5 26.9176C71.8395 25.7988 72.6783 26.3382 73.4572 26.0785C74.4958 25.7388 74.4359 24.4802 74.1363 23.6611C73.8367 22.8619 73.1976 20.924 74.8553 21.5833C75.2348 21.7431 75.5144 22.0028 75.9538 21.863C76.3532 21.7431 76.5529 21.3835 76.6528 21.0039C76.7327 20.6643 76.6728 20.3046 76.6528 19.945C76.6128 19.7053 76.5929 19.4456 76.5929 19.2058C76.513 18.6264 76.8725 18.3867 77.6314 18.4866C77.6514 18.8662 78.2506 18.8662 78.2306 18.4866C78.1906 17.9272 77.7712 17.5276 77.1721 17.5476C76.473 17.5676 76.0936 18.2468 76.0137 18.8862C75.9538 19.3257 76.3133 20.3446 76.1135 20.7042C75.8739 20.864 75.6342 21.0439 75.3746 21.2037C75.2747 21.1437 75.1748 21.0838 75.075 21.0239C74.8952 20.9639 74.7554 20.8441 74.5757 20.8041C73.9565 20.6643 73.4572 21.0439 73.2375 21.6033C72.8581 22.5622 73.5371 23.3614 73.7368 24.2604C73.9965 25.4991 73.0578 25.3592 72.2389 25.4991C71.8794 25.559 71.5799 25.7388 71.3402 25.9985C70.0819 27.457 71.5399 29.0753 72.7382 29.9144C73.0378 30.1341 73.3374 29.6147 73.0179 29.3949Z" fill="#E8E8E8"/>
<path d="M76.953 28.8355C76.2939 28.0763 75.7946 27.0374 77.0728 26.6378C77.3924 26.5379 77.7519 26.5779 78.0515 26.3781C78.7106 25.9186 78.4309 25.2993 78.3111 24.6599C78.2512 24.3003 78.1114 23.8208 78.3311 23.4612C78.4909 23.2015 79.0701 23.1016 79.3696 23.0417C79.7891 22.9418 80.2284 22.8818 80.5879 22.6421C81.1272 22.2625 81.3269 21.5832 80.9674 21.0038C80.7677 20.6842 80.2484 20.9839 80.4481 21.3035C81.0473 22.2625 78.2512 22.5222 77.7719 23.2215C77.2126 24.0406 78.391 25.4791 77.4124 25.9985C77.0329 26.1983 76.5536 26.0584 76.1941 26.3182C75.9344 26.498 75.7547 26.7777 75.6748 27.0773C75.4551 27.9364 76.0343 28.6756 76.5536 29.275C76.7932 29.5547 77.2126 29.1351 76.953 28.8355Z" fill="#E8E8E8"/>
<path d="M53.3653 24.1019C52.8461 23.7423 52.7861 23.103 52.9459 22.5436C53.0458 22.164 53.5251 21.1251 53.9845 21.0852C54.7434 21.0052 55.1229 21.9642 55.3226 22.5236C55.5024 23.063 55.5623 23.6025 55.5822 24.1619C55.5822 24.5415 56.1814 24.5415 56.1814 24.1619C56.1614 23.0431 55.4225 19.6067 53.585 20.6057C52.886 20.9853 52.3667 22.0841 52.2868 22.8433C52.2069 23.5625 52.4866 24.2018 53.0657 24.6214C53.3653 24.8411 53.6649 24.3217 53.3653 24.1019Z" fill="#E8E8E8"/>
<path d="M53.1258 24.4216C52.4068 24.6014 51.6878 24.7812 50.9488 24.961C50.5294 25.0609 49.8104 25.1009 49.4709 25.4205C48.8917 25.96 49.0515 27.6182 49.0515 28.3174C49.0515 28.5172 49.2512 28.6571 49.4309 28.5971C49.5308 28.5772 49.6306 28.5372 49.7505 28.5172C50.2698 28.2375 50.5294 28.4173 50.5494 29.0167C50.9488 29.4163 50.9488 29.656 50.5494 29.696C50.3097 29.7959 50.07 29.8358 49.8104 29.8358C49.6506 29.8558 49.5108 29.9557 49.5108 30.1355C49.5508 31.4141 49.6506 32.6728 49.7904 33.9514C49.8304 34.331 50.4295 34.331 50.3896 33.9514C50.2498 32.6728 50.1499 31.4141 50.11 30.1355C50.0101 30.2354 49.9103 30.3353 49.8104 30.4352C50.6492 30.3353 51.9874 29.9957 51.8076 28.8569C51.6079 27.6382 50.1299 27.778 49.2911 28.0178C49.4109 28.1177 49.5507 28.2176 49.6706 28.2975C49.6706 27.838 49.6706 27.3984 49.7105 26.9389C49.7704 26.2197 49.7305 25.96 50.3896 25.7002C51.2883 25.3406 52.3469 25.2208 53.2855 24.981C53.665 24.9211 53.5052 24.3417 53.1258 24.4216Z" fill="#E8E8E8"/>
<path d="M56.0014 24.5987C56.8402 24.5587 57.699 24.5587 58.5379 24.6586C59.3368 24.7585 59.2968 24.8784 59.4166 25.5776C59.4965 26.0172 59.5165 26.4767 59.5564 26.9162C59.7162 28.6344 59.8361 30.3525 59.9359 32.0707C59.9559 32.4503 60.5551 32.4503 60.5351 32.0707C60.4152 29.7332 60.3354 27.3357 59.9559 25.0182C59.856 24.4388 59.7562 24.259 59.157 24.1591C58.1184 23.9594 57.04 23.9594 56.0014 24.0193C55.6219 24.0193 55.6219 24.6186 56.0014 24.5987Z" fill="#E8E8E8"/>
<path d="M50.2303 34.3686C51.4086 34.1688 52.587 33.969 53.7454 33.7692C55.0835 33.5495 56.3617 33.6494 57.6999 33.5495C58.319 33.4895 61.2549 33.1898 60.1764 31.9711C59.9168 31.6914 59.4973 32.111 59.757 32.3907C59.9168 32.5705 57.2006 32.9701 57.1406 32.9701C56.3018 32.9901 55.463 32.9501 54.6241 33.05C53.1063 33.2298 51.5884 33.5495 50.0705 33.8092C49.691 33.8491 49.8508 34.4285 50.2303 34.3686Z" fill="#E8E8E8"/>
<path d="M156.322 149.426C156.262 151.524 156.202 153.621 156.143 155.739C158.799 155.919 161.435 156.079 164.091 156.258C164.091 154.101 164.091 151.943 164.091 149.785C161.495 149.666 158.919 149.546 156.322 149.426Z" fill="white" stroke="#161616" stroke-miterlimit="10"/>
<path d="M159.777 172.74C160.137 175.058 160.297 176.976 160.377 178.354C160.636 182.929 160.437 183.988 160.037 184.827C159.058 186.885 157.281 187.744 157.441 188.024C157.561 188.204 158.439 188.004 162.354 185.946C162.114 181.391 161.895 176.856 161.655 172.301C161.036 172.461 160.417 172.6 159.777 172.74Z" fill="white" stroke="#161616" stroke-miterlimit="10"/>
<path d="M154.604 158.055C158 158.075 161.395 158.115 164.79 158.135C164.411 162.69 164.051 167.225 163.672 171.78C160.716 171.54 157.74 171.32 154.784 171.081C154.704 166.745 154.644 162.41 154.604 158.055Z" fill="white" stroke="#161616" stroke-miterlimit="10"/>
<path d="M155.983 172.58C157.061 175.198 157.421 177.455 157.541 178.974C157.72 181.211 157.84 182.929 156.762 184.068C156.362 184.508 155.703 184.927 154.425 185.786C153.287 186.545 152.747 186.825 152.787 186.905C152.847 187.025 153.946 186.785 158.739 185.087C159.058 183.469 159.318 181.391 159.258 178.954C159.178 176.356 158.759 174.139 158.3 172.48C157.541 172.52 156.762 172.54 155.983 172.58Z" fill="white" stroke="#161616" stroke-miterlimit="10"/>
<path d="M157.72 188.205C158.319 187.706 158.878 187.166 159.418 186.587C160.037 185.907 160.956 184.869 161.914 185.768C161.934 185.608 161.954 185.448 161.974 185.288C160.556 185.987 159.158 186.687 157.74 187.366C157.46 187.506 157.6 187.925 157.9 187.925C159.238 187.945 160.077 185.608 161.455 186.047C161.814 186.167 161.974 185.588 161.615 185.468C161.015 185.288 160.556 185.448 160.057 185.808C159.478 186.227 158.659 187.326 157.92 187.326C157.98 187.506 158.02 187.706 158.08 187.885C159.498 187.186 160.896 186.487 162.314 185.808C162.493 185.728 162.513 185.468 162.374 185.328C161.834 184.829 160.876 184.649 160.197 184.968C159.697 185.188 159.378 185.768 159.018 186.147C158.479 186.727 157.92 187.246 157.321 187.766C157.001 188.025 157.42 188.465 157.72 188.205Z" fill="#161616"/>
<path d="M160.177 185.088C160.776 185.108 161.356 185.228 161.915 185.468C162.254 185.628 162.574 185.108 162.214 184.948C161.555 184.649 160.896 184.489 160.177 184.469C159.798 184.489 159.798 185.088 160.177 185.088Z" fill="#161616"/>
<path d="M156.901 184.388C157.361 184.508 157.76 184.748 158.079 185.107C158.339 185.387 158.759 184.968 158.499 184.688C158.099 184.268 157.6 183.969 157.041 183.829C156.701 183.709 156.542 184.288 156.901 184.388Z" fill="#161616"/>
<path d="M153.665 186.804C154.285 186.345 154.924 185.925 155.583 185.526C155.882 185.346 156.202 185.106 156.521 185.006C157.021 184.827 157.32 184.946 157.78 185.146C157.78 184.966 157.78 184.807 157.78 184.627C157.141 184.906 156.422 184.886 155.763 185.166C155.123 185.426 154.524 186.065 153.865 186.185C153.945 186.365 154.025 186.545 154.105 186.725C155.283 186.145 156.601 186.045 157.78 185.466C158.119 185.286 157.82 184.787 157.48 184.946C156.302 185.526 154.984 185.626 153.805 186.205C153.486 186.365 153.725 186.804 154.045 186.744C154.764 186.625 155.343 185.965 156.022 185.706C156.701 185.446 157.44 185.426 158.099 185.146C158.299 185.066 158.299 184.707 158.099 184.627C157.34 184.287 157.001 184.087 156.242 184.487C155.243 185.006 154.305 185.626 153.406 186.285C153.046 186.505 153.346 187.024 153.665 186.804Z" fill="#161616"/>
<path d="M157.081 175.636C157.58 175.456 158.08 175.476 158.539 175.716C158.879 175.896 159.178 175.376 158.839 175.197C158.24 174.877 157.561 174.817 156.921 175.057C156.562 175.197 156.722 175.776 157.081 175.636Z" fill="#161616"/>
<path d="M157.581 177.636C158 177.596 158.399 177.696 158.719 177.975C159.019 178.215 159.438 177.795 159.138 177.556C158.699 177.196 158.16 176.996 157.581 177.036C157.201 177.056 157.201 177.656 157.581 177.636Z" fill="#161616"/>
<path d="M157.8 180.132C158.18 180.092 158.539 180.232 158.759 180.551C158.958 180.871 159.478 180.571 159.278 180.252C158.978 179.752 158.399 179.452 157.82 179.532C157.66 179.552 157.52 179.652 157.52 179.832C157.5 179.972 157.64 180.152 157.8 180.132Z" fill="#161616"/>
<path d="M160.377 175.5C160.736 175.3 161.196 175.32 161.535 175.6C161.835 175.839 162.254 175.42 161.954 175.18C161.415 174.741 160.696 174.641 160.077 174.98C159.738 175.18 160.037 175.7 160.377 175.5Z" fill="#161616"/>
<path d="M160.716 179.274C161.036 179.135 161.395 179.194 161.655 179.434C161.935 179.694 162.374 179.274 162.074 179.015C161.615 178.595 160.976 178.495 160.397 178.775C160.057 178.915 160.377 179.434 160.716 179.274Z" fill="#161616"/>
<path d="M160.796 182.47C161.115 182.27 161.515 182.27 161.814 182.51C162.114 182.75 162.533 182.33 162.234 182.09C161.734 181.671 161.035 181.611 160.496 181.971C160.176 182.17 160.476 182.69 160.796 182.47Z" fill="#161616"/>
<path d="M165.27 158.117C164.87 162.712 164.471 167.307 164.071 171.902" stroke="#161616" stroke-miterlimit="10"/>
<path d="M154.725 171.262C158.06 171.501 161.395 171.721 164.731 171.961" stroke="#161616" stroke-miterlimit="10"/>
<path d="M164.75 149.605C164.67 151.883 164.57 154.141 164.49 156.418" stroke="#161616" stroke-miterlimit="10"/>
<path d="M165.17 160.815C167.027 160.475 169.004 161.934 169.144 163.852C169.344 166.249 166.608 166.669 164.81 166.409C164.431 166.349 164.271 166.929 164.651 166.989C166.848 167.308 169.943 166.689 169.743 163.852C169.584 161.514 167.247 159.816 165.01 160.236C164.631 160.296 164.79 160.875 165.17 160.815Z" fill="#161616"/>
<path d="M164.73 167.467C165.509 167.627 166.128 168.186 166.348 168.945C166.448 169.325 167.027 169.165 166.927 168.785C166.668 167.826 165.889 167.067 164.91 166.887C164.511 166.827 164.351 167.387 164.73 167.467Z" fill="#161616"/>
<path d="M164.431 167.268C164.91 167.968 165.13 168.747 165.05 169.606C165.03 169.985 165.629 169.985 165.649 169.606C165.709 168.667 165.47 167.748 164.93 166.969C164.731 166.649 164.211 166.949 164.431 167.268Z" fill="#161616"/>
<path d="M154.585 160.533C153.266 159.694 150.85 162.111 150.55 163.29C149.951 165.687 153.027 165.407 154.305 166.207C154.624 166.406 154.924 165.887 154.605 165.687C153.686 165.108 152.328 165.328 151.529 164.608C150.55 163.729 151.449 162.67 152.128 162.051C152.487 161.731 153.706 160.673 154.285 161.032C154.605 161.272 154.924 160.752 154.585 160.533Z" fill="#161616"/>
<path d="M154.265 165.928C153.745 166.128 153.266 166.427 152.867 166.847C152.567 167.167 152.188 167.666 152.487 168.106C152.707 168.425 153.226 168.125 153.007 167.806C152.867 167.606 153.386 167.167 153.526 167.047C153.785 166.807 154.085 166.627 154.425 166.507C154.784 166.367 154.644 165.788 154.265 165.928Z" fill="#161616"/>
<path d="M154.025 166.348C153.646 166.947 153.526 167.626 153.666 168.306C153.746 168.685 154.325 168.525 154.245 168.146C154.125 167.606 154.245 167.107 154.545 166.647C154.764 166.328 154.245 166.028 154.025 166.348Z" fill="#161616"/>
<path d="M155.923 160.156C155.823 161.614 155.843 163.093 155.943 164.551C155.983 164.931 156.582 164.931 156.542 164.551C156.422 163.093 156.422 161.614 156.522 160.156C156.562 159.776 155.963 159.776 155.923 160.156Z" fill="#161616"/>
<path d="M156.362 160.315C158.479 160.435 160.576 160.514 162.693 160.554C162.593 160.455 162.493 160.355 162.393 160.255C162.333 161.753 162.273 163.272 162.194 164.77C162.174 165.15 162.773 165.15 162.793 164.77C162.853 163.272 162.913 161.753 162.992 160.255C162.992 160.095 162.853 159.955 162.693 159.955C160.576 159.915 158.479 159.835 156.362 159.715C155.982 159.695 155.982 160.295 156.362 160.315Z" fill="#161616"/>
<path d="M156.123 164.81C157.002 165.049 157.98 164.989 158.859 165.049C159.938 165.109 161.036 165.189 162.114 165.249C162.494 165.269 162.494 164.67 162.114 164.65C161.156 164.59 160.197 164.53 159.238 164.47C158.28 164.41 157.201 164.47 156.263 164.23C155.923 164.13 155.763 164.71 156.123 164.81Z" fill="#161616"/>
<path d="M156.802 167.905C157.161 168.684 157.94 168.005 158.539 168.285C158.819 168.405 158.759 168.584 159.138 168.604C159.578 168.624 160.656 167.745 160.876 168.564C160.936 168.784 161.216 168.844 161.375 168.704C161.575 168.644 161.795 168.584 161.994 168.544C162.234 168.844 162.674 168.405 162.414 168.125C161.955 167.585 161.375 167.885 160.936 168.285C161.096 168.325 161.275 168.365 161.435 168.425C161.255 167.725 160.517 167.266 159.817 167.585C159.478 167.745 159.438 168.045 158.919 167.845C158.819 167.805 158.779 167.645 158.679 167.605C158.459 167.525 157.301 167.645 157.301 167.625C157.161 167.246 156.642 167.545 156.802 167.905Z" fill="#161616"/>
<path d="M157.86 152.183C157.9 151.963 158.159 151.903 158.339 151.983C158.599 152.083 158.739 152.383 158.858 152.603C159.018 152.942 159.537 152.642 159.378 152.303C159.158 151.863 158.818 151.404 158.279 151.344C157.84 151.304 157.38 151.564 157.301 152.003C157.201 152.403 157.78 152.563 157.86 152.183Z" fill="#161616"/>
<path d="M161.535 152.461C161.575 152.261 161.754 152.141 161.954 152.221C162.194 152.301 162.294 152.601 162.334 152.82C162.394 153.2 162.973 153.04 162.913 152.661C162.833 152.181 162.513 151.682 161.994 151.602C161.535 151.542 161.035 151.822 160.956 152.301C160.896 152.681 161.475 152.84 161.535 152.461Z" fill="#161616"/>
<path d="M158.159 153.441C158.838 154.64 160.456 154.82 161.335 153.741C161.575 153.441 161.155 153.022 160.916 153.321C160.276 154.101 159.178 154.041 158.679 153.142C158.499 152.802 157.98 153.102 158.159 153.441Z" fill="#161616"/>
<path d="M137.208 44.877C134.692 43.858 133.174 41.4207 132.255 38.9833C131.277 36.446 130.857 33.6889 130.997 30.9718C131.237 25.9572 133.374 20.8826 137.328 17.6861C141.063 14.6493 146.595 13.7902 150.75 16.5473C155.084 19.4242 155.862 25.3578 155.902 30.1327C155.942 35.447 154.704 41.0211 150.77 44.837C150.49 45.0967 150.909 45.5363 151.189 45.2566C154.924 41.6204 156.342 36.426 156.482 31.3514C156.621 26.3768 156.022 20.0835 151.928 16.6671C148.093 13.4706 142.401 13.6304 138.307 16.2276C133.773 19.1045 131.097 24.319 130.518 29.5733C130.158 32.8298 130.558 36.2062 131.756 39.2829C132.775 41.8802 134.392 44.3575 137.069 45.4364C137.408 45.5962 137.548 45.0168 137.208 44.877Z" fill="#161616"/>
<path d="M136.929 45.2585C136.25 46.2174 136.39 47.6359 137.389 48.3551C138.148 48.8946 139.266 48.9745 140.165 49.0943C141.243 49.2542 142.342 49.3141 143.44 49.3141C145.397 49.2941 147.634 49.1543 149.452 48.3951C150.77 47.8357 151.769 46.5171 151.07 45.0986C150.91 44.759 150.391 45.0587 150.55 45.3983C152.048 48.455 144.958 48.7148 143.42 48.7148C142.002 48.7148 140.584 48.5949 139.206 48.3352C138.547 48.2153 137.808 48.0954 137.389 47.516C136.969 46.9167 137.049 46.1375 137.449 45.5781C137.668 45.2385 137.149 44.9388 136.929 45.2585Z" fill="#161616"/>
<path d="M137.568 48.4919C137.568 49.4909 137.588 50.5098 137.708 51.5087C137.768 51.9682 137.868 52.3678 138.247 52.6475C138.787 53.0471 139.685 53.0271 140.325 53.087C141.403 53.1669 142.501 53.1669 143.58 53.127C144.599 53.087 145.617 53.0071 146.636 52.9072C147.235 52.8473 147.914 52.8673 148.373 52.4078C149.392 51.4088 149.412 49.5109 149.152 48.2522C149.072 47.8726 148.493 48.0324 148.573 48.412C148.713 49.0913 148.753 49.7706 148.613 50.4698C148.413 51.4488 148.134 52.0881 147.035 52.2879C145.757 52.5276 144.319 52.5276 143.021 52.5476C141.743 52.5676 140.305 52.6275 139.046 52.3278C137.888 52.0481 138.187 49.4509 138.187 48.4919C138.168 48.1124 137.568 48.1124 137.568 48.4919Z" fill="#161616"/>
<path d="M137.768 26.9749C140.165 28.4733 141.982 30.6709 143.001 33.3081C143.14 33.6677 143.72 33.5079 143.58 33.1483C142.501 30.3513 140.604 28.0338 138.087 26.4554C137.748 26.2357 137.448 26.7551 137.768 26.9749Z" fill="#161616"/>
<path d="M143.48 33.309C144.658 30.8317 146.376 28.714 148.573 27.0757C148.873 26.8559 148.573 26.3165 148.273 26.5563C145.997 28.2544 144.199 30.4521 142.961 33.0094C142.801 33.349 143.32 33.6487 143.48 33.309Z" fill="#161616"/>
<path d="M143.001 32.6083C143.301 36.7239 143.44 40.8395 143.38 44.9551C143.38 45.3347 143.98 45.3347 143.98 44.9551C144.039 40.8395 143.9 36.7039 143.6 32.6083C143.56 32.2087 142.961 32.2087 143.001 32.6083Z" fill="#161616"/>
<path d="M119.613 42.6794C122.269 41.7804 124.906 40.8814 127.562 39.9823C127.921 39.8625 127.762 39.2831 127.402 39.403C124.746 40.302 122.11 41.201 119.453 42.1001C119.074 42.2199 119.234 42.7993 119.613 42.6794Z" fill="#161616"/>
<path d="M122.649 38.683C123.568 38.4233 124.487 38.1436 125.406 37.8839C125.765 37.784 125.625 37.2046 125.246 37.3045C124.327 37.5642 123.408 37.8439 122.49 38.1036C122.13 38.2235 122.27 38.8029 122.649 38.683Z" fill="#161616"/>
<path d="M115.998 32.032C119.514 31.992 123.009 32.0919 126.504 32.3117C126.883 32.3317 126.883 31.7323 126.504 31.7123C123.009 31.4926 119.494 31.4127 115.998 31.4326C115.619 31.4326 115.619 32.032 115.998 32.032Z" fill="#161616"/>
<path d="M123.428 29.3136C124.267 29.5333 125.126 29.6332 125.984 29.6532C126.364 29.6532 126.364 29.0538 125.984 29.0538C125.165 29.0339 124.367 28.934 123.588 28.7342C123.208 28.6343 123.048 29.2137 123.428 29.3136Z" fill="#161616"/>
<path d="M122.13 10.7122C125.265 13.4093 128.121 16.3662 130.698 19.6027C130.937 19.9024 131.357 19.4828 131.117 19.1831C128.541 15.9466 125.685 12.9698 122.549 10.2927C122.27 10.0329 121.83 10.4525 122.13 10.7122Z" fill="#161616"/>
<path d="M130.898 16.3868C131.437 16.9462 131.957 17.5056 132.496 18.085C132.756 18.3647 133.175 17.9451 132.915 17.6654C132.376 17.106 131.857 16.5466 131.318 15.9672C131.058 15.6875 130.638 16.1071 130.898 16.3868Z" fill="#161616"/>
<path d="M118.734 17.5058C119.713 18.0852 120.712 18.6246 121.73 19.1241C122.07 19.3039 122.369 18.7844 122.03 18.6046C121.011 18.0852 120.013 17.5457 119.034 16.9863C118.694 16.7866 118.395 17.306 118.734 17.5058Z" fill="#161616"/>
<path d="M153.486 12.9526C156.442 9.99578 159.398 7.03894 162.354 4.0821C162.633 3.8024 162.194 3.38285 161.934 3.66255C158.979 6.61939 156.023 9.57622 153.067 12.5331C152.787 12.8128 153.207 13.2323 153.486 12.9526Z" fill="#161616"/>
<path d="M156.462 14.3284C157.221 13.769 157.979 13.2296 158.738 12.6702C159.038 12.4504 158.758 11.931 158.439 12.1508C157.68 12.7102 156.921 13.2496 156.162 13.809C155.842 14.0287 156.142 14.5482 156.462 14.3284Z" fill="#161616"/>
<path d="M144.259 9.03533C144.858 6.13843 145.317 3.22155 145.597 0.284695C145.637 -0.0948984 145.038 -0.0948984 144.998 0.284695C144.718 3.16162 144.279 6.03854 143.679 8.8755C143.6 9.2551 144.179 9.41493 144.259 9.03533Z" fill="#161616"/>
<path d="M161.056 27.4161C166.488 26.9166 171.901 26.4171 177.333 25.9177C177.713 25.8777 177.713 25.2784 177.333 25.3183C171.901 25.8178 166.488 26.3172 161.056 26.8167C160.676 26.8367 160.656 27.4361 161.056 27.4161Z" fill="#161616"/>
<path d="M138.228 45.9745C141.603 46.7137 145.038 46.6938 148.394 45.9346C148.773 45.8547 148.613 45.2753 148.234 45.3552C144.978 46.0944 141.643 46.1144 138.387 45.3952C138.008 45.3152 137.848 45.8946 138.228 45.9745Z" fill="#161616"/>
<path d="M138.727 51.0505C141.303 51.3901 143.88 51.47 146.476 51.2902C146.856 51.2702 146.856 50.6709 146.476 50.6909C143.88 50.8707 141.303 50.7908 138.727 50.4511C138.348 50.4112 138.348 51.0105 138.727 51.0505Z" fill="#161616"/>
<path d="M157.281 43.9593C161.335 46.8162 165.47 49.5733 169.664 52.2304C169.983 52.4302 170.283 51.9107 169.963 51.711C165.769 49.0538 161.635 46.2968 157.581 43.4398C157.261 43.2201 156.962 43.7395 157.281 43.9593Z" fill="#161616"/>
<path d="M106.251 184.488C102.456 189.143 98.6814 193.778 94.8867 198.433C99.3405 214.097 101.857 218.212 103.355 217.992C104.433 217.833 104.953 215.495 105.532 212.878C106.97 206.345 106.111 200.731 105.232 197.235C107.629 194.558 110.006 191.86 112.402 189.183C110.345 187.625 108.308 186.067 106.251 184.488Z" fill="#161616" stroke="#161616" stroke-width="2" stroke-miterlimit="10"/>
<path d="M92.2509 160.515C94.6275 162.353 96.9044 161.693 101.618 162.492C105.632 163.172 110.146 164.67 114.939 167.667C109.826 173.66 104.713 179.994 99.6405 186.667C98.4222 188.285 97.2039 189.903 96.0256 191.521C97.9829 191.981 100.34 192.7 102.896 193.859C105.393 194.978 107.43 196.236 109.047 197.375C116.657 190.742 123.447 184.329 129.499 178.276C132.295 175.479 136.249 171.203 136.869 165.15C136.909 164.81 136.909 164.51 136.909 164.211C136.769 154.161 124.126 146.889 116.437 144.212C108.029 141.295 93.569 139.717 89.5346 146.689C87.158 150.805 88.556 157.658 92.2509 160.515Z" fill="#8E8E8E"/>
<path opacity="0.26" d="M107.01 150.465C106.87 152.363 106.53 154.62 105.831 157.118C105.332 158.896 104.733 160.474 104.134 161.813C103.475 162.072 102.836 162.332 102.177 162.592C106.471 164.29 110.785 165.988 115.079 167.686C111.883 171.343 108.667 175.178 105.432 179.174C102.097 183.29 98.9211 187.325 95.9053 191.301C98.0423 192 100.159 192.7 102.296 193.379C109.946 184.948 117.595 176.497 125.244 168.066C126.043 165.768 126.003 163.97 125.764 162.712C124.665 156.558 117.136 151.544 107.01 150.465Z" fill="#6D6C6C"/>
<path opacity="0.23" d="M115.039 167.648C115.738 168.707 116.417 169.786 117.116 170.845C111.164 178.017 105.213 185.17 99.261 192.342C98.2024 192.062 97.124 191.763 96.0654 191.483C99.8801 186.249 103.994 180.874 108.448 175.46C110.665 172.763 112.862 170.166 115.039 167.648Z" fill="#6D6C6C"/>
<path d="M95.1671 176.898C101.059 177.977 106.971 179.036 112.862 180.115C119.673 194.979 120.432 199.774 119.154 200.593C118.235 201.172 116.318 199.734 114.181 198.116C108.828 194.06 105.852 189.225 104.234 185.969C100.679 185.489 97.1244 184.99 93.5693 184.51C94.0886 181.973 94.6279 179.436 95.1671 176.898Z" fill="#161616" stroke="#161616" stroke-width="2" stroke-miterlimit="10"/>
<path d="M83.0241 143.793C72.2791 146.949 65.7283 153.502 61.5141 157.818C55.8221 163.671 48.8318 170.844 50.849 176.138C51.8876 178.835 55.0432 180.493 69.7427 183.051C80.8472 184.988 90.4737 186.027 97.9833 186.607C98.922 183.17 99.8606 179.754 100.779 176.318C93.2299 173.88 85.7004 171.463 78.1509 169.026C82.7845 168.047 87.6577 166.888 92.7306 165.469C96.5852 164.391 100.26 163.272 103.755 162.093C106.991 155.56 107.69 148.508 104.314 144.512C99.601 138.918 89.0357 142.014 83.0241 143.793Z" fill="#8E8E8E"/>
<path opacity="0.29" d="M106.93 150.707C106.83 152.685 106.491 155.222 105.572 158.019C105.013 159.717 104.374 161.196 103.735 162.414C103.196 162.454 102.656 162.514 102.117 162.554C97.5634 164.053 92.7101 165.471 87.5773 166.79C84.2619 167.649 81.0264 168.388 77.8908 169.067C85.4602 171.445 93.0297 173.802 100.599 176.18C100.439 176.999 100.24 177.858 100 178.757C99.7204 179.796 99.4008 180.755 99.1012 181.634C88.6558 179.057 78.2104 176.479 67.7649 173.902C67.2856 173.323 65.7078 171.225 65.9475 168.448C66.2071 165.431 69.0831 163.294 72.758 161.336C83.3832 155.702 101.198 151.886 106.93 150.707Z" fill="#6D6C6C"/>
<path opacity="0.24" d="M72.5186 169.486C74.4159 169.347 76.3332 169.207 78.2306 169.047C85.6802 171.524 93.1298 174.022 100.579 176.499C100.26 177.678 99.9403 178.876 99.6208 180.055C90.5933 176.519 81.546 173.003 72.5186 169.486Z" fill="#6D6C6C"/>
<path d="M80.208 98.5194C83.1639 96.7813 88.2967 94.3039 95.1272 93.5847C105.593 92.4859 113.621 96.2419 116.797 97.9401C116.218 105.792 115.319 112.065 114.6 116.38C113.741 121.535 113.042 124.392 112.723 129.127C112.323 135.06 112.823 139.935 113.282 143.132C109.807 144.211 104.554 145.389 98.0831 145.249C91.8518 145.11 86.8188 143.751 83.4435 142.572C84.3422 135.42 84.0427 129.746 83.6033 125.89C83.104 121.595 82.4249 119.497 81.6061 114.303C80.5475 107.59 80.2679 102.096 80.208 98.5194Z" fill="white" stroke="#161616" stroke-miterlimit="10"/>
<path opacity="0.14" d="M101.818 95.9617C102.238 97.4801 102.717 99.5778 103.037 102.095C103.256 103.793 104.155 111.485 101.359 121.634C99.6413 127.888 97.8238 134.5 91.8721 139.935C89.9548 141.693 88.0974 142.871 86.7393 143.611C89.7551 144.39 93.6896 145.129 98.3431 145.169C104.435 145.229 109.468 144.13 112.963 143.051C112.763 141.553 112.503 139.295 112.403 136.578C112.324 134.201 112.324 130.405 113.961 119.716C115.259 111.305 116.178 107.689 116.638 100.077C116.697 99.1982 116.717 98.459 116.757 97.9596C115.299 97.1005 113.402 96.1615 111.065 95.4023C108.908 94.703 106.971 94.3434 105.373 94.1836C104.215 94.763 103.017 95.3623 101.818 95.9617Z" fill="#6D6C6C"/>
<path opacity="0.17" d="M116.177 101.215C115.059 107.548 113.581 112.663 112.423 116.219C109.027 126.608 106.651 133.6 100.24 138.715C96.2651 141.891 92.1309 143.23 89.4746 143.869C92.1708 144.628 95.9855 145.368 100.599 145.268C105.912 145.148 110.206 143.949 113.022 142.93C112.642 140.493 112.203 136.837 112.323 132.381C112.463 126.608 113.401 123.131 114.44 116.798C115.019 113.082 115.758 107.768 116.177 101.215Z" fill="#6D6C6C"/>
<path d="M80.0884 98.418C77.492 100.216 74.1567 103.053 71.2407 107.268C64.6699 116.818 64.8496 126.947 65.1093 130.683C66.3076 133.9 68.3648 138.115 71.9597 142.251C74.0568 144.668 77.1325 148.145 82.3852 150.382C84.1427 151.142 85.6806 151.561 86.799 151.801C87.7577 150.942 88.6964 150.083 89.6551 149.224C86.5793 145.627 83.4837 141.851 80.388 137.956C78.0113 134.979 75.7345 132.022 73.5375 129.105C73.6174 126.648 74.1367 122.193 76.813 117.538C78.3309 114.9 80.1084 112.982 81.5264 111.684C81.0471 107.269 80.5677 102.853 80.0884 98.418Z" fill="white" stroke="#161616" stroke-miterlimit="10"/>
<path opacity="0.13" d="M80.4676 102.875C74.7156 109.368 71.9794 115.521 70.6213 119.397C68.2446 126.11 68.7439 129.626 69.1034 131.305C69.403 132.623 70.0621 134.881 72.4787 138.317C74.5758 141.294 78.9896 146.628 87.3979 151.023C88.1369 150.304 88.8759 149.605 89.6148 148.886C87.2381 146.209 84.8415 143.392 82.4249 140.455C79.2493 136.599 76.2934 132.803 73.5572 129.087C73.6371 127.069 73.9766 124.252 75.155 121.096C76.9325 116.361 79.7286 113.244 81.4662 111.586C81.1067 108.689 80.7871 105.792 80.4676 102.875Z" fill="#6D6C6C"/>
<path opacity="0.16" d="M73.5371 129.344C73.8966 131.681 74.6356 134.658 76.1934 137.875C79.6286 144.867 85.0011 148.723 87.7373 150.401C88.2766 149.922 88.7958 149.462 89.3351 148.983C84.0624 142.43 78.8098 135.877 73.5371 129.344Z" fill="#6D6C6C"/>
<path d="M117.097 98.0586C120.013 99.8367 123.767 102.614 127.023 106.749C134.412 116.119 134.193 126.069 133.913 129.745C132.555 132.901 130.258 137.037 126.224 141.113C123.867 143.47 120.412 146.886 114.52 149.104C112.543 149.843 110.805 150.263 109.547 150.502C108.489 149.663 107.41 148.824 106.352 147.985C109.787 144.449 113.282 140.753 116.757 136.917C119.413 133.98 121.97 131.083 124.446 128.226C124.346 125.829 123.787 121.454 120.771 116.858C119.054 114.261 117.077 112.383 115.479 111.105C116.038 106.749 116.577 102.414 117.097 98.0586Z" fill="white" stroke="#161616" stroke-miterlimit="10"/>
<path opacity="0.16" d="M116.956 102.914C119.493 105.571 122.948 109.827 125.644 115.76C126.922 118.577 129 123.152 129.039 127.468C129.179 140.594 110.605 149.624 109.527 150.144C108.468 149.464 107.43 148.805 106.371 148.126C112.383 141.533 118.374 134.94 124.386 128.347C124.266 126.189 123.767 122.173 121.37 117.898C119.393 114.382 116.936 112.104 115.319 110.846C115.878 108.208 116.417 105.571 116.956 102.914Z" fill="#6D6C6C"/>
<path opacity="0.12" d="M124.586 128.406C124.286 130.144 123.787 132.042 123.008 134C119.493 142.871 112.383 147.726 108.788 149.803C107.929 149.244 107.09 148.685 106.231 148.125C112.343 141.552 118.454 134.979 124.586 128.406Z" fill="#6D6C6C"/>
<path d="M121.691 129.887H72.5791V160.993H121.691V129.887Z" fill="white" stroke="#161616" stroke-miterlimit="10"/>
<path d="M96.4263 148.406C93.83 148.726 92.5717 145.569 93.2508 143.471C93.9098 141.394 96.3664 140.415 98.3636 141.134C100.341 141.853 101.3 144.271 100.601 146.208C99.8216 148.366 97.1054 149.245 95.1082 148.286C94.7686 148.126 94.4491 148.646 94.8086 148.806C96.5861 149.665 98.7631 149.345 100.181 147.947C101.559 146.568 101.759 144.39 100.9 142.692C98.9428 138.816 92.8913 140.055 92.4718 144.31C92.2521 146.588 93.8899 149.325 96.4263 149.025C96.8058 148.965 96.8058 148.366 96.4263 148.406Z" fill="#161616"/>
<path opacity="0.14" d="M91.0131 129.806C97.6638 132.124 102.198 138.058 102.337 144.431C102.517 152.422 95.8064 159.934 86.6592 160.693C98.3029 160.793 109.947 160.893 121.61 160.993C121.57 150.564 121.551 140.135 121.511 129.727C111.345 129.727 101.179 129.767 91.0131 129.806Z" fill="#6D6C6C"/>
<path opacity="0.26" d="M121.61 129.707C121.431 136.06 120.172 141.015 119.114 144.271C117.556 149.006 116.437 152.463 113.222 155.519C108.848 159.715 103.396 160.494 100.999 160.694C107.81 160.754 114.62 160.814 121.431 160.894C121.45 154.96 121.49 149.026 121.53 143.073C121.53 138.617 121.57 134.162 121.61 129.707Z" fill="#6D6C6C"/>
<path d="M95.6857 82.4001C94.5872 83.7387 95.6457 85.377 95.446 89.7523C95.3461 91.9299 94.9866 93.6881 94.707 94.8668C95.6457 95.3063 97.3034 95.9257 99.4404 95.9856C102.077 96.0455 104.074 95.2264 105.053 94.7469C104.613 93.8679 104.034 92.5093 103.675 90.7512C102.776 86.276 104.374 84.1782 103.055 82.52C101.518 80.6021 97.1636 80.5821 95.6857 82.4001Z" fill="white" stroke="#161616" stroke-width="2" stroke-miterlimit="10"/>
<path d="M88.7158 63.1777C87.4575 66.4142 87.9368 69.3311 88.2164 70.5897C88.0966 70.6097 85.7599 71.1092 85.1208 72.9072C84.4817 74.7253 85.7998 77.3025 88.556 78.1416C89.5546 80.579 91.9712 85.294 97.0641 87.8712C97.9229 88.2908 98.7418 88.6304 99.5606 88.8702C100.3 88.5905 101.298 88.1509 102.437 87.4916C105.992 85.4338 107.969 82.8766 108.428 82.2572C109.267 81.1384 110.406 79.3404 111.204 76.863C111.644 76.9429 112.423 76.9829 113.182 76.6033C114.899 75.7242 115.758 72.9872 114.56 71.2091C113.561 69.7306 111.624 69.6707 111.384 69.6707C111.644 68.6318 112.443 64.8958 110.425 61.1998C108.109 56.9443 103.136 54.7067 98.4622 55.346C91.5518 56.2451 88.8356 62.858 88.7158 63.1777Z" fill="white" stroke="#161616" stroke-width="2" stroke-miterlimit="10"/>
<path d="M95.4262 87.6933C96.6445 88.4125 97.9827 89.5313 99.4806 89.4114C100.719 89.3116 102.097 88.5923 103.036 87.8331C103.335 87.5934 102.916 87.1738 102.616 87.4136C101.737 88.1128 100.319 88.852 99.161 88.8321C97.9427 88.8121 96.7044 87.7932 95.7058 87.1738C95.4063 86.9741 95.1067 87.4935 95.4262 87.6933Z" fill="#161616"/>
<path d="M95.3471 87.9508C96.4855 88.9297 97.7837 90.0285 99.3815 89.9486C100.939 89.8687 102.397 88.8298 103.416 87.711C103.675 87.4313 103.256 87.0118 102.996 87.2915C102.118 88.2504 100.879 89.1894 99.5213 89.3293C98.0234 89.4691 96.825 88.4502 95.7665 87.5312C95.4869 87.2715 95.0675 87.691 95.3471 87.9508Z" fill="#161616"/>
<path d="M96.1058 88.073C96.1058 88.053 96.1058 88.053 96.1058 88.073C95.9859 87.8932 95.7663 87.8532 95.6265 87.9931C95.6265 87.9931 95.6264 87.9931 95.6065 88.0131C95.4866 88.113 95.4866 88.3327 95.6065 88.4326C97.8034 90.5304 101.838 91.2096 103.416 87.9931C103.575 87.6535 103.076 87.3338 102.896 87.6934C101.498 90.5703 97.9632 89.8711 96.0459 88.0131C96.0459 88.1529 96.0459 88.2928 96.0459 88.4326C96.0459 88.4326 96.0459 88.4326 96.0658 88.4126C95.9061 88.3927 95.7463 88.3727 95.5865 88.3527V88.3727C95.7862 88.6923 96.3055 88.3927 96.1058 88.073Z" fill="#161616"/>
<path d="M98.5023 69.5913C98.2426 72.8278 98.3824 76.0444 98.9017 79.241C98.9217 79.4008 99.1214 79.5007 99.2612 79.4407C100.04 79.181 100.599 78.7215 101.019 78.0223C101.218 77.6826 100.699 77.383 100.499 77.7226C100.16 78.302 99.7405 78.6416 99.1014 78.8614C99.2213 78.9213 99.3411 79.0012 99.4609 79.0612C98.9417 75.9245 98.8218 72.7479 99.0815 69.5713C99.1414 69.1917 98.5422 69.1917 98.5023 69.5913Z" fill="#161616"/>
<path d="M94.947 72.7672C94.9869 72.947 95.2865 74.0658 94.947 74.2456C94.6074 74.4254 93.6488 73.7061 93.3492 72.7672C93.1095 71.968 93.3093 70.9691 93.6887 70.8892C94.0882 70.7893 94.7073 71.8881 94.947 72.7672Z" fill="#161616" stroke="#161616" stroke-miterlimit="10"/>
<path d="M105.253 72.7672C105.293 72.947 105.592 74.0658 105.253 74.2456C104.913 74.4254 103.954 73.7061 103.655 72.7672C103.415 71.968 103.615 70.9691 103.994 70.8892C104.394 70.7893 105.013 71.8881 105.253 72.7672Z" fill="#161616" stroke="#161616" stroke-miterlimit="10"/>
<path d="M97.7837 81.878C100.22 82.9169 102.437 81.4585 104.235 79.8802C104.534 79.6205 104.095 79.2009 103.815 79.4606C102.257 80.8192 100.26 82.2776 98.1033 81.3586C97.7238 81.2187 97.4242 81.7382 97.7837 81.878Z" fill="#161616"/>
<path d="M104.814 75.947C105.193 75.947 105.193 75.3477 104.814 75.3477C104.434 75.3477 104.434 75.947 104.814 75.947Z" fill="#161616"/>
<path d="M107.031 74.8272C107.051 74.8072 107.071 74.7872 107.091 74.7673C107.211 74.6474 107.211 74.4676 107.091 74.3477C106.971 74.2278 106.791 74.2278 106.671 74.3477C106.651 74.3677 106.631 74.3877 106.611 74.4077C106.492 74.5275 106.492 74.7073 106.611 74.8272C106.731 74.9471 106.911 74.9471 107.031 74.8272Z" fill="#161616"/>
<path d="M106.371 76.2869C106.391 76.2869 106.411 76.2869 106.431 76.2869C106.591 76.2869 106.73 76.147 106.73 75.9872C106.73 75.8274 106.591 75.6875 106.431 75.6875C106.411 75.6875 106.391 75.6875 106.371 75.6875C106.211 75.6875 106.071 75.8274 106.071 75.9872C106.071 76.147 106.191 76.2869 106.371 76.2869Z" fill="#161616"/>
<path d="M92.5905 69.1933C93.3494 68.554 94.4678 68.534 95.2268 69.1533C95.5264 69.3931 95.9458 68.9735 95.6462 68.7338C94.6076 67.8947 93.1697 67.8947 92.1511 68.7737C91.8715 69.0135 92.3109 69.433 92.5905 69.1933Z" fill="#161616"/>
<path d="M102.337 68.9745C103.196 68.2153 104.414 68.0754 105.433 68.6149C105.772 68.7947 106.072 68.2752 105.732 68.0954C104.474 67.4161 102.976 67.5959 101.918 68.5549C101.618 68.8146 102.037 69.2342 102.337 68.9745Z" fill="#161616"/>
<path d="M92.7504 75.8845C93.1299 75.8845 93.1299 75.2852 92.7504 75.2852C92.371 75.2852 92.371 75.8845 92.7504 75.8845Z" fill="#161616"/>
<path d="M94.8676 75.6072C95.2471 75.6072 95.2471 75.0078 94.8676 75.0078C94.4881 75.0078 94.4881 75.6072 94.8676 75.6072Z" fill="#161616"/>
<path d="M93.809 76.0665C93.789 76.0864 93.769 76.1064 93.7491 76.1264C93.6292 76.2463 93.6292 76.4261 93.7491 76.546C93.8689 76.6658 94.0486 76.6658 94.1685 76.546C94.1884 76.526 94.2084 76.506 94.2284 76.486C94.3482 76.3661 94.3482 76.1863 94.2284 76.0665C94.1086 75.9466 93.9288 75.9466 93.809 76.0665Z" fill="#161616"/>
<path d="M91.9713 56.6859C90.773 57.4251 88.1566 59.0434 86.3791 62.3598C84.6016 65.6563 84.6216 68.773 84.7015 70.1115C81.7855 75.3659 80.4674 80.0009 79.8283 83.1576C78.7897 88.1722 79.3489 90.0102 80.0679 91.2289C81.8255 94.2257 85.3605 94.9649 86.2194 95.1447C90.6332 96.0837 94.1483 93.8261 94.9472 93.3067C95.1669 92.6474 95.3866 91.8283 95.5064 90.9093C95.7261 89.331 95.6063 87.9724 95.4265 86.9935C94.4279 86.1743 93.2695 85.0755 92.1511 83.637C90.4534 81.4394 89.4948 79.2817 88.9555 77.7234C87.198 77.5436 85.8798 76.3449 85.76 75.0063C85.6402 73.7476 86.5189 72.1294 87.6773 72.1294C88.5361 72.1294 89.1553 73.0084 89.2751 73.1682C89.9342 72.7887 90.8529 72.1294 91.6717 71.0905C92.8501 69.5921 93.0498 68.2535 93.5891 66.855C94.1084 65.4965 95.107 63.6185 97.2639 61.6606C99.341 62.3998 100.999 63.119 102.137 63.6584C105.792 65.3566 107.869 66.3555 109.487 68.5332C110.386 69.7319 110.845 70.9107 111.085 71.6499C112.942 70.2314 113.701 70.611 113.861 70.6909C115.039 71.3502 114.999 74.9663 113.162 75.9653C112.463 76.3448 111.664 76.245 111.165 76.1251C110.585 78.1429 109.307 81.4394 106.371 84.3563C105.393 85.3352 104.394 86.0944 103.495 86.6738C103.415 87.413 103.375 88.4319 103.575 89.6306C103.755 90.7295 104.074 91.6285 104.374 92.2678C109.227 95.4644 115.259 94.885 118.534 91.4487C121.45 88.372 121.45 83.717 120.352 80.5404C119.353 77.6435 117.416 75.9053 116.457 75.1461C116.717 74.0273 118.155 67.3944 113.981 61.3009C112.902 59.7226 109.886 55.9067 104.454 54.5881C98.7019 53.1896 93.9685 55.4672 91.9713 56.6859Z" fill="#5222D0"/>
<path opacity="0.17" d="M104.633 64.8984C106.89 67.7354 107.489 70.3526 107.689 71.7111C108.508 77.425 105.193 82.0601 103.515 84.4375C102.137 86.3755 100.719 87.754 99.7002 88.653C100.579 91.0105 101.438 93.348 102.317 95.7055C103.215 95.4058 104.114 95.1061 105.013 94.8064C104.593 94.0672 104.154 93.1482 103.814 92.0294C103.195 90.0315 103.155 88.2734 103.215 87.0747C104.314 86.2955 105.592 85.2367 106.83 83.8382C109.307 81.0412 110.545 78.1642 111.184 76.2263C111.584 76.3062 112.442 76.4061 113.261 75.9466C114.979 74.9677 114.699 72.5303 114.679 72.3704C114.619 71.851 114.5 71.0119 113.9 70.6723C113.201 70.2927 112.043 70.6523 111.124 71.7311C110.845 70.7522 110.046 68.4946 107.889 66.6965C106.69 65.6976 105.472 65.1781 104.633 64.8984Z" fill="#6D6C6C"/>
<path opacity="0.19" d="M98.7815 69.7736C98.6617 69.7536 98.2622 71.4918 97.0439 79.1636C97.743 79.1636 98.442 79.1636 99.141 79.1636C99.0012 78.1446 98.8414 76.6662 98.7615 74.8682C98.6617 71.7914 98.9014 69.7936 98.7815 69.7736Z" fill="#6D6C6C"/>
<path opacity="0.54" d="M116.338 75.3459C115.998 75.5457 117.276 77.2639 117.097 79.8211C117.037 80.6203 116.917 82.4383 115.479 83.657C115.379 83.7369 113.242 85.4951 111.125 84.3763C109.867 83.717 109.108 82.3185 109.148 80.8001C108.549 81.9189 107.57 83.3973 106.032 84.8358C105.073 85.7348 104.135 86.3941 103.316 86.8936C103.256 87.7726 103.256 88.9713 103.576 90.3299C103.755 91.0691 103.975 91.7084 104.195 92.2279C104.814 92.6274 105.733 93.1669 106.931 93.5864C107.69 93.8461 111.864 95.3046 115.938 93.2867C116.657 92.9271 118.255 92.108 119.413 90.3499C119.553 90.1301 120.073 89.3509 120.452 88.0323C121.81 83.5172 119.813 79.4415 119.633 79.1019C118.535 76.8843 116.757 75.1062 116.338 75.3459Z" fill="#341999"/>
<path opacity="0.35" d="M88.9353 77.8051C88.7555 77.8251 89.155 79.4633 88.7156 81.0816C88.396 82.2803 87.3775 84.2382 85.6399 84.6378C83.8224 85.0374 81.5656 83.6988 80.527 81.2015C80.0477 82.3003 79.4086 84.0584 79.3087 86.296C79.2488 87.7545 79.1689 89.3128 79.8879 90.8512C81.5056 94.2875 86.259 95.626 89.7941 95.3064C92.1508 95.0866 93.9283 94.1676 94.887 93.5483C95.1266 92.869 95.3663 92.0499 95.5261 91.1109C95.7857 89.4926 95.7258 88.0741 95.586 87.0352C94.0082 85.8965 92.9297 84.7177 92.2507 83.8586C91.292 82.6399 89.9938 81.0017 89.3347 78.7241C89.2349 78.4644 89.0551 77.7851 88.9353 77.8051Z" fill="#341999"/>
</svg>
