<svg width="217" height="206" viewBox="0 0 217 206" fill="none" xmlns="http://www.w3.org/2000/svg">
<rect width="216.034" height="205.41" transform="translate(0 0.294922)" fill="white"/>
<path d="M146.606 10.935C145.198 11.0105 142.785 11.5132 142.483 11.8149C142.333 11.9155 141.981 12.016 141.654 12.016C141.327 12.016 141.076 12.1166 141.076 12.2674C141.076 12.3931 140.849 12.5188 140.573 12.5188C140.296 12.5188 140.07 12.6193 140.07 12.745C140.07 12.8707 139.819 13.0216 139.492 13.1221C138.964 13.2478 138.637 13.4741 137.38 14.5047C137.053 14.8064 136.777 14.5299 136.274 13.3484C135.721 12.0663 134.137 11.3875 131.699 11.4127C130.593 11.4378 129.612 11.5635 129.436 11.7395C129.286 11.8903 129.009 12.016 128.833 12.016C128.431 12.016 127.45 12.7953 126.068 14.2534C124.685 15.6611 122.724 19.7336 122.724 21.1414C122.724 21.4933 122.473 21.5687 121.241 21.5687C120.412 21.5687 119.657 21.6693 119.582 21.8201C119.507 21.9458 119.23 22.0715 118.979 22.0715C118.752 22.0715 118.3 22.2978 117.998 22.5743C117.697 22.8508 117.37 23.0771 117.244 23.0771C116.942 23.0771 115.937 24.51 115.937 24.9625C115.937 25.1636 115.836 25.3395 115.686 25.3395C115.308 25.3395 115.384 29.3366 115.811 30.493C116.314 31.8756 116.289 31.951 115.409 32.3533C114.454 32.7806 112.669 34.3895 112.669 34.8169C112.669 34.9928 112.568 35.1437 112.417 35.1437C112.267 35.1437 112.166 35.9481 112.166 37.0291C112.166 38.11 112.267 38.9145 112.417 38.9145C112.568 38.9145 112.669 39.0904 112.669 39.2916C112.669 39.4927 113.348 40.3222 114.177 41.1267C115.635 42.5596 115.66 42.6099 115.308 43.2886C115.107 43.6908 114.931 44.1685 114.931 44.3444C114.931 44.5456 114.831 44.6964 114.68 44.6964C114.529 44.6964 114.429 45.526 114.429 46.7075C114.429 47.889 114.529 48.7186 114.68 48.7186C114.831 48.7186 114.931 48.9448 114.931 49.2214C114.931 49.4979 115.057 49.7241 115.183 49.7241C115.334 49.7241 115.434 49.8498 115.434 50.0007C115.434 50.1515 115.761 50.5789 116.163 50.9559C116.993 51.7352 116.968 51.8861 115.384 55.2547C114.881 56.2854 114.303 57.5926 114.052 58.1456C113.8 58.6987 113.272 59.8802 112.87 60.7852C112.443 61.6902 111.99 62.6957 111.864 63.0477C111.714 63.3996 111.538 63.8521 111.437 64.0532C111.337 64.2543 111.035 65.1342 110.783 65.9889C110.507 66.8688 110.205 67.5726 110.105 67.5726C109.979 67.5726 109.904 67.8492 109.904 68.176C109.904 68.5279 109.803 68.8799 109.652 68.9553C109.527 69.0307 109.401 69.3826 109.401 69.7346C109.401 70.0614 109.3 70.3379 109.149 70.3379C109.024 70.3379 108.898 70.539 108.898 70.7653C108.873 71.2932 108.043 73.7819 107.792 74.0333C107.717 74.1087 107.641 74.4607 107.641 74.7875C107.641 75.0891 107.541 75.3657 107.39 75.3657C107.264 75.3657 107.138 75.6422 107.138 75.969C107.138 76.3209 107.038 76.6729 106.887 76.7483C106.761 76.8237 106.636 77.1505 106.636 77.4773C106.636 77.779 106.535 78.1309 106.409 78.2566C106.309 78.4074 106.083 78.9605 105.932 79.5136C105.63 80.6951 104.901 82.8319 104.599 83.4603C104.474 83.7117 104.373 84.1391 104.373 84.4156C104.373 84.6921 104.273 84.9184 104.122 84.9184C103.996 84.9184 103.87 85.1949 103.87 85.5469C103.87 85.8988 103.77 86.3764 103.644 86.6278C103.192 87.5077 102.613 88.9657 102.613 89.192C102.613 89.3428 103.116 89.4434 103.745 89.4434C104.574 89.4434 104.876 89.3428 104.876 89.0663C104.876 88.8652 105.002 88.6892 105.127 88.6892C105.278 88.6892 105.379 88.4127 105.379 88.0859C105.379 87.7842 105.655 86.7284 106.007 85.7731C106.359 84.8178 106.636 83.8374 106.636 83.6112C106.636 83.3598 106.736 83.1587 106.862 83.1587C106.988 83.1587 107.138 82.9073 107.214 82.5805C107.264 82.2788 107.641 81.223 108.018 80.2677C108.395 79.2873 108.747 78.2063 108.823 77.8041C108.898 77.427 109.049 77.1254 109.175 77.1254C109.3 77.1254 109.401 76.8488 109.401 76.4969C109.401 76.145 109.527 75.8684 109.652 75.8684C109.803 75.8684 109.904 75.617 109.904 75.2902C109.904 74.9634 110.004 74.6115 110.105 74.4607C110.23 74.335 110.532 73.5557 110.783 72.7261C111.06 71.8965 111.362 71.1172 111.462 70.9915C111.563 70.8407 111.663 70.539 111.663 70.2876C111.663 70.0362 111.789 69.8351 111.915 69.8351C112.066 69.8351 112.166 69.4832 112.166 69.081C112.166 68.6536 112.292 68.3268 112.417 68.3268C112.568 68.3268 112.669 68.1508 112.669 67.9497C112.669 67.5224 114.052 63.3242 114.278 63.1231C114.353 63.0225 114.429 62.6455 114.429 62.2432C114.429 61.8662 114.554 61.5393 114.68 61.5393C114.831 61.5393 114.931 61.3131 114.931 61.0366C114.931 60.76 115.032 60.3327 115.158 60.0813C115.283 59.8551 115.686 58.6987 116.063 57.5171C116.691 55.4306 117.018 54.6011 117.47 53.6961C117.596 53.4447 117.697 53.0927 117.697 52.8916C117.697 52.3134 118.149 52.1877 119.104 52.4894L120.009 52.7911L119.808 56.4865C119.532 60.9612 119.532 63.2739 119.833 68.2514C119.984 71.1172 119.959 72.0976 119.758 72.0976C119.582 72.0976 119.456 72.3239 119.456 72.6255C119.456 73.254 118.778 75.8182 118.451 76.4215C118.3 76.6729 118.199 77.1505 118.199 77.5025C118.199 77.8544 118.099 78.1309 117.948 78.1309C117.822 78.1309 117.697 78.5331 117.697 79.0108C117.697 79.4884 117.596 79.8906 117.445 79.8906C117.32 79.8906 117.194 80.2174 117.194 80.6197C117.194 81.047 117.093 81.4492 116.942 81.5247C116.817 81.6001 116.691 81.9269 116.691 82.2034C116.691 82.8067 116.012 85.3206 115.66 85.9742C115.535 86.2256 115.434 86.653 115.434 86.9043C115.434 87.1809 115.334 87.4825 115.183 87.558C115.057 87.6334 114.931 87.935 114.931 88.2116C114.931 88.4629 114.831 88.6892 114.68 88.6892C114.554 88.6892 114.429 88.8652 114.429 89.0663C114.429 89.3428 114.705 89.4434 115.434 89.4434C116.364 89.4434 116.415 89.3931 116.591 88.5635C116.666 88.0859 116.842 87.6082 116.968 87.5328C117.093 87.4574 117.194 87.1306 117.194 86.8038C117.194 86.477 117.32 86.125 117.445 86.0496C117.596 85.9742 117.697 85.572 117.697 85.1698C117.697 84.7676 117.822 84.3653 117.948 84.2899C118.099 84.2145 118.199 83.8626 118.199 83.5358C118.199 83.2089 118.3 82.681 118.426 82.3542C118.551 82.0274 118.979 80.6448 119.356 79.2622C119.758 77.8795 120.16 76.698 120.261 76.6729C120.361 76.6226 120.462 76.2455 120.462 75.8684C120.462 75.4662 120.588 75.064 120.713 74.9886C120.864 74.9132 120.965 74.6115 120.965 74.335C120.965 74.0836 121.115 73.6059 121.291 73.2791C121.442 72.9775 121.618 72.6758 121.643 72.6255C121.669 72.5753 122.046 72.8015 122.473 73.1032C123.73 74.0082 126.118 74.2093 129.386 73.7316C130.92 73.5305 132.604 73.2791 133.157 73.2037C133.71 73.1032 134.288 72.9523 134.414 72.8518C134.665 72.6507 136.651 72.4747 137.757 72.5501C138.059 72.5753 138.31 72.7764 138.31 72.9775C138.31 73.1786 138.436 73.3546 138.562 73.3546C138.713 73.3546 138.813 73.5808 138.813 73.8573C138.813 74.1339 138.914 74.3601 139.039 74.3601C139.995 74.3601 139.14 70.9412 138.134 70.6899C137.531 70.539 134.137 70.9412 132.503 71.3686C132.001 71.4943 131.02 71.5948 130.316 71.5948C129.612 71.5948 128.959 71.6954 128.883 71.8462C128.808 71.9719 128.004 72.0976 127.124 72.0976C126.244 72.0976 125.439 71.9719 125.364 71.8462C125.289 71.6954 124.836 71.5948 124.409 71.5948C123.328 71.5948 122.398 70.7401 121.819 69.2067C121.417 68.1508 121.342 67.2207 121.342 63.2236C121.342 59.3271 121.417 58.4221 121.719 58.1205C121.92 57.9194 122.473 57.4166 122.925 56.9892C123.428 56.5367 123.705 56.0591 123.629 55.858C123.428 55.3552 122.699 55.7574 122.096 56.6624C121.769 57.1903 121.618 57.2658 121.442 56.9892C121.266 56.6876 121.392 49.9755 121.593 49.7744C121.618 49.7241 121.819 49.8498 122.02 50.0258C122.85 50.78 123.629 51.0314 125.314 51.0314C126.395 51.0314 127.149 50.9057 127.199 50.7548C127.249 50.604 127.45 50.4783 127.677 50.4783C127.878 50.4783 128.205 50.3023 128.406 50.1012C128.984 49.523 129.311 49.6487 128.984 50.2772C128.305 51.5341 126.168 52.7408 124.635 52.7408C124.132 52.7408 123.73 52.8413 123.73 52.9922C123.73 53.2938 126.043 53.319 126.369 53.0173C126.52 52.8916 126.872 52.7156 127.199 52.6151C127.601 52.4894 127.752 52.5648 127.752 52.8413C127.752 53.0676 127.652 53.2436 127.551 53.2436C127.325 53.2436 126.747 54.7016 126.747 55.2798C126.747 55.7323 127.727 56.8384 128.481 57.2658C128.959 57.5171 129.361 57.5171 130.568 57.2658C131.372 57.0898 132.101 56.8384 132.177 56.7378C132.252 56.6122 132.528 56.5116 132.805 56.5116C133.056 56.5116 133.283 56.3859 133.283 56.2602C133.283 56.1094 133.509 56.0088 133.785 56.0088C134.263 56.0088 134.791 54.9027 134.439 54.5759C134.263 54.3748 132.378 55.2295 132.001 55.682C131.85 55.858 131.448 56.0088 131.121 56.0088C130.794 56.0088 130.517 56.1094 130.517 56.2602C130.517 56.3859 130.291 56.5116 130.04 56.5116C129.763 56.5116 129.462 56.3859 129.386 56.2602C129.311 56.1094 129.034 56.0088 128.783 56.0088C128.531 56.0088 128.205 55.7323 128.054 55.3804C127.878 55.0033 127.853 54.7519 128.004 54.7519C128.154 54.7519 128.255 54.5256 128.255 54.2491C128.255 53.9726 128.33 53.7463 128.456 53.7463C128.557 53.7463 129.084 53.3441 129.638 52.8665C130.191 52.3888 130.945 51.7352 131.322 51.4084C132.579 50.4029 132.73 48.97 131.95 45.1237C131.573 43.2132 131.02 43.1881 131.02 45.0735C131.02 45.8276 130.92 46.4561 130.769 46.4561C130.643 46.4561 130.517 46.3555 130.517 46.2299C130.517 45.5008 123.127 45.4757 122.372 46.2299C121.92 46.6321 121.694 46.4561 121.769 45.7774C121.819 45.2243 122.071 45.0232 123.277 44.5958C124.057 44.2942 124.786 43.9674 124.886 43.8668C124.987 43.7663 125.289 43.6908 125.54 43.6908C125.791 43.6908 125.992 43.5651 125.992 43.4394C125.992 43.2886 126.143 43.1881 126.344 43.1881C126.721 43.1881 129.788 41.5289 130.015 41.2021C130.09 41.1015 130.341 40.9507 130.593 40.8502C130.92 40.7245 131.02 40.4731 130.97 39.9954C130.92 39.4172 130.744 39.2664 130.165 39.2161C129.436 39.1156 127.048 39.7189 126.194 40.1966C125.942 40.3222 125.59 40.4228 125.389 40.4228C125.188 40.4228 124.987 40.4982 124.937 40.6239C124.861 40.7999 122.146 42.2076 122.071 42.1071C122.071 42.082 122.096 40.0457 122.171 37.5821C122.272 33.4342 122.322 33.1326 122.75 33.1326C123.026 33.1326 123.227 33.2331 123.227 33.3588C123.227 33.7359 125.163 34.3895 126.244 34.3895C127.375 34.3895 129.16 33.761 129.864 33.0823C130.14 32.8309 130.492 32.6298 130.618 32.6298C130.769 32.6298 131.045 32.3784 131.246 32.0767L131.573 31.5488L132.277 32.3281C132.654 32.7806 133.157 33.1326 133.383 33.1326C133.609 33.1326 133.785 33.2331 133.785 33.3337C133.785 33.9873 137.405 34.3895 138.964 33.9119C139.366 33.7862 140.221 33.5348 140.9 33.3588C141.553 33.1828 142.081 32.9315 142.081 32.8309C142.081 32.7303 142.307 32.6298 142.559 32.6298C142.835 32.6298 143.137 32.5041 143.212 32.3784C143.439 32.0013 143.941 32.0767 144.495 32.5544C145.802 33.761 147.913 34.2638 149.749 33.8364C150.503 33.6605 151.131 33.4342 151.131 33.3337C151.131 33.208 151.357 33.1326 151.609 33.1326C151.885 33.1326 152.162 32.9817 152.237 32.8058C152.363 32.5544 152.413 32.5544 152.539 32.8058C152.614 32.9817 152.815 33.1326 153.017 33.1326C153.494 33.1326 153.997 33.8113 153.645 34.0124C153.318 34.2135 153.318 35.3196 153.645 35.5207C153.796 35.5962 153.896 35.9481 153.896 36.3C153.896 36.6268 153.997 36.9034 154.123 36.9034C154.248 36.9034 154.399 37.205 154.475 37.5821C154.55 37.9843 154.801 39.015 155.003 39.92C155.706 42.811 156.033 50.9308 156.008 64.1789C155.983 71.0921 155.882 78.8097 155.782 81.3235C155.681 83.8626 155.681 85.9239 155.757 85.9239C155.832 85.9239 156.159 85.7982 156.486 85.6474L157.089 85.3709L157.24 78.0555C157.617 61.5393 157.139 40.4228 156.385 40.4228C156.259 40.4228 156.159 40.096 156.159 39.6938C156.159 38.9899 155.053 36.0487 154.6 35.5207C154.5 35.3951 154.399 35.1688 154.399 35.0431C154.399 34.5655 155.53 35.9984 155.908 36.9034C156.41 38.1855 157.265 39.4172 157.542 39.3167C157.868 39.2161 157.768 35.7721 157.416 34.6409C157.24 34.1381 157.164 33.4091 157.215 33.0069L157.29 32.2527L157.868 33.208C158.17 33.7359 158.421 34.3392 158.421 34.5403C158.421 34.7414 158.547 34.8923 158.673 34.8923C158.824 34.8923 158.924 35.2191 158.924 35.6213C158.924 36.0487 159.05 36.4509 159.176 36.5263C159.326 36.6017 159.427 37.0039 159.427 37.4313C159.427 37.8335 159.553 38.1603 159.678 38.1603C159.829 38.1603 159.93 38.3363 159.93 38.5374C159.93 38.7385 160.081 38.9145 160.257 38.9145C160.835 38.9145 161.187 37.3056 161.187 34.5655C161.187 33.0823 161.262 31.8756 161.337 31.8756C161.664 31.8756 162.192 32.6298 162.192 33.1577C162.192 33.4594 162.318 34.7163 162.494 35.923C162.745 37.8586 162.846 38.1603 163.273 38.1603C163.525 38.1603 163.801 37.9341 163.876 37.6575C163.952 37.381 164.103 37.1548 164.228 37.1548C164.354 37.1548 164.455 36.7525 164.455 36.2749C164.455 35.7973 164.58 35.3951 164.706 35.3951C164.857 35.3951 164.957 35.0934 164.957 34.6912C164.957 34.3141 165.133 33.8113 165.309 33.5599C165.636 33.1326 165.686 33.1828 165.812 34.0627C166.164 36.1744 166.717 41.8557 167.22 48.3415C167.647 53.7715 167.899 59.3523 168.2 71.0921C168.376 77.2511 168.603 82.3794 168.728 82.4799C168.829 82.6056 169.181 82.6308 169.457 82.5302C170.01 82.3542 170.01 82.3291 169.885 75.5416C169.734 66.9442 169.357 57.8942 169.105 56.8384C168.929 56.1094 169.005 56.034 169.809 55.6317C170.614 55.2547 171.594 54.4251 172.449 53.3944C172.6 53.1933 172.75 52.7911 172.75 52.4894C172.75 52.2129 172.876 51.9866 173.002 51.9866C173.153 51.9866 173.253 51.6598 173.253 51.2576C173.253 50.8302 173.153 50.428 173.002 50.3526C172.876 50.2772 172.75 49.9755 172.75 49.699C172.75 49.4476 172.65 49.2214 172.499 49.2214C172.021 49.2214 172.248 48.4169 172.851 47.9393C173.178 47.6879 173.58 47.1348 173.756 46.7075C173.932 46.3053 174.158 45.9533 174.284 45.9533C174.41 45.9533 174.51 45.7019 174.51 45.3751C174.51 45.0483 174.636 44.6712 174.812 44.4953C175.038 44.269 175.038 44.0428 174.812 43.5651C174.636 43.2132 174.51 42.6853 174.51 42.4339C174.51 42.1574 174.41 41.9311 174.284 41.9311C174.158 41.9311 173.982 41.7049 173.882 41.4535C173.806 41.177 173.429 40.5988 173.027 40.1463L172.323 39.3418L173.404 38.286C174.007 37.7078 174.51 37.1045 174.51 36.9537C174.51 36.7777 174.636 36.652 174.762 36.652C174.912 36.652 175.013 36.4257 175.013 36.1744C175.013 35.8978 175.139 35.5962 175.264 35.5207C175.415 35.4453 175.516 34.6912 175.516 33.8364C175.516 32.0013 174.535 29.7891 173.077 28.2305C172.172 27.2752 171.795 27.0238 169.558 25.8172L168.577 25.2893L168.552 23.605C168.527 22.6748 168.351 21.4933 168.125 20.9654C167.346 19.1051 164.455 17.094 161.212 16.1639C159.703 15.7365 155.254 15.636 153.997 16.0131C152.941 16.3147 152.74 16.1388 152.564 14.7059C152.464 14.0271 152.187 13.1473 151.961 12.745C151.232 11.5132 149.17 10.8094 146.606 10.935ZM131.246 18.5269C131.649 18.7783 131.397 19.3063 130.869 19.3063C130.04 19.3063 128.255 20.7643 128.255 21.443C128.255 21.6442 128.154 21.8201 128.004 21.8201C127.878 21.8201 127.752 22.1469 127.752 22.5743C127.752 23.3033 127.425 23.5798 127.124 23.0771C126.445 21.971 129.084 18.4767 130.769 18.3258C130.844 18.3258 131.045 18.4013 131.246 18.5269ZM143.288 19.2308C143.363 19.7588 143.288 19.809 142.106 19.809C140.497 19.809 138.31 20.9654 138.31 21.795C138.31 21.9458 138.21 22.0715 138.059 22.0715C137.607 22.0715 137.808 21.0408 138.386 20.4626C138.687 20.161 139.316 19.7336 139.768 19.5325C140.196 19.3565 140.573 19.1051 140.573 19.0046C140.573 18.8035 141.679 18.6024 142.584 18.6526C143.036 18.6778 143.238 18.8286 143.288 19.2308ZM157.164 22.0715C157.164 22.4235 156.988 22.5743 156.586 22.5743C156.259 22.5743 155.882 22.7 155.706 22.876C155.48 23.1022 155.405 23.0771 155.405 22.7251C155.405 22.1721 156.083 21.5939 156.737 21.5687C156.988 21.5687 157.164 21.7447 157.164 22.0715ZM146.606 24.4597C146.606 24.8116 146.883 25.3898 147.235 25.7418C148.14 26.6468 148.039 27.0993 147.008 26.697C146.782 26.6216 146.606 26.3954 146.606 26.1943C146.606 25.9932 146.506 25.8423 146.355 25.8423C146.229 25.8423 146.103 25.3898 146.103 24.8368C146.103 24.2837 146.229 23.8312 146.355 23.8312C146.506 23.8312 146.606 24.1077 146.606 24.4597ZM119.532 28.6076C120.035 29.1858 120.11 29.9399 119.657 29.8142C119.079 29.6383 118.476 28.0294 118.652 27.225L118.803 26.4708L118.954 27.2752C119.029 27.7277 119.28 28.3311 119.532 28.6076ZM156.662 34.5152C156.662 34.9928 156.561 35.3951 156.41 35.3951C156.285 35.3951 156.159 35.2694 156.159 35.0934C156.159 34.9426 155.908 34.5403 155.606 34.2135L155.078 33.6353H155.857C156.611 33.6353 156.662 33.6856 156.662 34.5152ZM129.21 47.4114C129.436 47.5622 129.311 47.8387 128.733 48.4169C127.828 49.3219 127.35 49.4225 127.124 48.7437C126.948 48.1907 126.194 47.9393 125.213 48.1404C124.61 48.241 124.484 48.4169 124.484 48.9951C124.484 49.875 124.157 49.9252 123.353 49.0957C122.498 48.2661 122.523 47.5371 123.428 47.3862C124.685 47.1851 128.883 47.2103 129.21 47.4114ZM131.045 47.7633C131.121 48.7437 130.945 49.8498 130.643 50.1515C130.216 50.5789 130.015 50.5789 130.015 50.1264C130.015 49.9252 129.839 49.699 129.612 49.6236C129.286 49.4979 129.286 49.4225 129.562 49.0957C130.316 48.2661 130.517 47.9644 130.517 47.713C130.517 47.3611 131.02 47.3862 131.045 47.7633Z" fill="#161616"/>
<path d="M47.3084 11.7644C47.1073 11.89 46.6296 12.0157 46.2274 12.0157C45.8503 12.0157 45.3476 12.1163 45.0962 12.242C44.8699 12.3677 44.2163 12.5939 43.6633 12.7699C42.0795 13.2727 39.9427 14.3285 39.4902 14.8313C39.264 15.0827 38.9623 15.2838 38.8115 15.2838C38.4595 15.2838 34.2362 19.5071 34.2362 19.859C34.2362 20.0099 34.0351 20.3115 33.7586 20.5378C33.5072 20.764 33.2307 21.1914 33.1301 21.493C33.0296 21.8199 32.8536 22.0712 32.7531 22.0712C32.6525 22.0712 32.4262 22.4735 32.2251 22.9511C32.024 23.4287 31.7978 23.8309 31.6972 23.8309C31.5967 23.8309 31.471 24.0823 31.3956 24.384C31.3453 24.7108 30.9682 25.7415 30.6163 26.7219C30.2643 27.6772 29.837 29.1101 29.661 29.8643C29.309 31.5988 29.2839 37.9086 29.6358 39.417C30.1889 41.7046 30.9431 43.6906 31.2699 43.6906C31.3956 43.6906 31.471 43.9168 31.471 44.1933C31.471 44.4699 31.5967 44.6961 31.7224 44.6961C31.8732 44.6961 31.9738 44.8218 31.9738 44.9475C31.9738 45.7268 35.8451 49.3468 37.2529 49.8747C37.454 49.9501 37.8311 50.1261 38.0573 50.2518C38.3087 50.3775 38.6858 50.478 38.8869 50.478C39.088 50.478 39.264 50.5786 39.264 50.7294C39.264 50.8551 39.4902 50.9808 39.7416 50.9808C40.0182 50.9808 40.3198 51.0814 40.3952 51.2322C40.4706 51.3579 40.8729 51.4836 41.2751 51.4836C41.6773 51.4836 42.0795 51.5841 42.1549 51.735C42.2555 51.8858 45.4733 51.9863 51.0289 51.9863C59.6012 51.9863 61.0341 52.0869 66.1876 52.9919C67.9222 53.3187 72.3969 53.3187 73.7795 53.017C74.3577 52.8913 75.7403 52.5897 76.8464 52.3634C77.9525 52.112 79.0586 51.8355 79.2849 51.7098C79.5363 51.5841 80.0139 51.4836 80.3658 51.4836C80.7178 51.4836 80.9943 51.3579 80.9943 51.2322C80.9943 51.0814 81.2708 50.9808 81.6228 50.9808C81.9747 50.9808 82.4524 50.8802 82.7037 50.7545C83.2568 50.478 85.2679 50.0507 87.0276 49.8496C88.4857 49.6736 89.994 49.2714 90.3962 48.9194C90.547 48.8189 90.8487 48.7183 91.1001 48.7183C91.3515 48.7183 91.5526 48.5926 91.5526 48.4669C91.5526 48.3161 91.7788 48.2155 92.0302 48.2155C92.3067 48.2155 92.5833 48.115 92.6587 47.9893C92.7341 47.8636 93.1615 47.7128 93.614 47.6373C94.0665 47.5619 95.3234 47.2854 96.4295 46.9837C97.5105 46.6821 98.6166 46.4558 98.868 46.4558C99.1445 46.4558 99.3456 46.3553 99.3456 46.2296C99.3456 45.9782 100.703 45.7268 103.167 45.5508C105.052 45.4 105.982 44.7967 105.379 44.0676C105.027 43.6403 104.097 43.5649 103.695 43.9671C103.393 44.2688 99.9992 44.1431 97.7116 43.6906C96.882 43.5397 95.7759 43.3638 95.2731 43.2883C94.7452 43.1878 94.3178 43.037 94.3178 42.9113C94.3178 42.7856 93.991 42.685 93.5888 42.685C93.1615 42.685 92.7844 42.5845 92.709 42.4588C92.6335 42.3331 92.1559 42.1571 91.6531 42.0817C91.1755 41.9811 90.3962 41.7046 89.9437 41.4281C89.4912 41.1767 88.8376 40.8247 88.5108 40.6236C87.6561 40.146 85.1925 37.6573 84.6394 36.702C84.3629 36.2495 84.0612 35.8975 83.9607 35.8975C83.8601 35.8975 83.7596 35.7216 83.7596 35.5205C83.7596 35.3194 83.659 35.1434 83.5082 35.1434C83.3825 35.1434 83.2568 34.9674 83.2568 34.7663C83.2568 34.5652 83.1562 34.3892 83.0557 34.3892C82.9551 34.3892 82.6535 34.0373 82.4021 33.6351C82.1758 33.2077 81.0949 31.9759 80.039 30.8698C78.9832 29.7888 77.3743 28.0794 76.4693 27.099C75.5643 26.1186 74.5839 25.0376 74.2823 24.7108C73.9555 24.384 73.7041 24.0321 73.7041 23.9566C73.7041 23.8058 69.5562 19.6831 67.6708 17.9736C66.9417 17.2949 65.6597 16.2893 64.805 15.7363C63.9502 15.1581 63.2464 14.605 63.1961 14.4793C63.1458 14.3788 62.9698 14.2782 62.819 14.2782C62.5676 14.2782 60.833 13.5241 59.3247 12.7448C59.0733 12.6191 58.5957 12.5185 58.2437 12.5185C57.8918 12.5185 57.6153 12.418 57.6153 12.2923C57.6153 11.9655 55.5288 11.7392 51.3306 11.6135C49.1435 11.5381 47.5346 11.6135 47.3084 11.7644ZM53.7188 13.6749C54.9757 13.876 56.3583 14.1274 56.8108 14.2028C57.2382 14.2782 57.6153 14.4291 57.6153 14.5548C57.6153 14.6804 57.9421 14.781 58.3443 14.781C58.7717 14.781 59.1739 14.8816 59.2493 15.0324C59.3247 15.1581 59.6264 15.2838 59.9029 15.2838C60.1543 15.2838 60.3805 15.3592 60.3805 15.4597C60.3805 15.5854 60.8833 15.862 61.5118 16.1134C62.1403 16.3899 62.643 16.6915 62.643 16.8172C62.643 16.9429 62.7939 17.0435 62.9698 17.0435C63.1458 17.0435 63.5229 17.2446 63.7994 17.4708C64.0508 17.7222 64.6793 18.225 65.1569 18.577C65.6345 18.954 66.7909 20.0099 67.7211 20.9149C68.6512 21.8199 69.531 22.574 69.6819 22.574C69.8076 22.574 69.9333 22.6746 69.9333 22.8003C69.9333 22.926 70.8131 23.9315 71.8941 25.0376C72.9499 26.1186 74.408 27.6772 75.0867 28.4816C75.7906 29.2609 77.5 31.096 78.9329 32.529C80.3407 33.9619 81.4971 35.1937 81.4971 35.2691C81.4971 35.4953 82.8294 37.4813 83.3825 38.0846C85.7455 40.6488 86.4746 41.2772 88.1086 42.132C88.8376 42.509 89.4661 42.8861 89.4912 42.9867C89.5415 43.1124 89.7426 43.1878 89.9437 43.1878C90.1448 43.1878 90.4968 43.2883 90.7481 43.414C91.4018 43.7408 92.8095 44.1431 93.9408 44.319C94.4938 44.4196 95.5748 44.671 96.3289 44.8972L97.7116 45.2994L96.5803 45.5005C95.9519 45.6262 95.072 45.7771 94.6446 45.8525C94.1922 45.953 93.8151 46.1039 93.8151 46.2296C93.8151 46.3553 93.4883 46.4558 93.1112 46.4558C92.7341 46.4558 92.3067 46.5564 92.1559 46.6569C92.0302 46.7826 91.2509 47.0843 90.4213 47.3357C89.5918 47.6122 88.8125 47.9139 88.6868 48.0144C88.5359 48.115 87.8823 48.2155 87.2287 48.2155C86.5751 48.2155 86.0221 48.3161 86.0221 48.4418C86.0221 48.5675 85.4941 48.7183 84.8405 48.7937C83.4328 48.9446 82.3267 49.1708 81.6228 49.4725C81.3463 49.5982 80.6172 49.7993 79.9888 49.9752C79.3603 50.1261 78.4553 50.3775 77.9777 50.5032C77.5 50.654 76.771 50.83 76.3436 50.9054C75.9414 50.9808 75.4638 51.1568 75.2878 51.2825C74.8856 51.5841 65.0061 51.559 64.4027 51.2322C64.1513 51.1065 63.4726 50.9808 62.9196 50.9808C62.3665 50.9808 61.6123 50.8551 61.2101 50.7043C60.7325 50.5032 57.9421 50.4277 52.1853 50.4529C45.3224 50.478 43.5627 50.4026 42.2555 50.0758C40.3952 49.6233 39.264 49.1708 39.264 48.9194C39.264 48.7937 39.1132 48.7183 38.912 48.7183C37.6802 48.7183 33.2307 44.9726 33.2307 43.9419C33.2307 43.7911 33.1301 43.6906 33.0296 43.6906C32.9039 43.6906 32.6022 43.2129 32.3508 42.6096C32.1246 42.0314 31.8229 41.3527 31.6972 41.1264C31.5715 40.875 31.471 40.4477 31.471 40.1963C31.471 39.9197 31.3704 39.6432 31.2447 39.5678C31.0185 39.417 30.6414 36.5763 30.6163 34.7663C30.6163 32.906 31.0185 29.8643 31.2447 29.8643C31.3704 29.8643 31.471 29.4872 31.471 29.0095C31.471 28.5319 31.5967 28.0543 31.7224 27.9788C31.8732 27.9034 31.9738 27.6269 31.9738 27.3504C31.9738 26.8727 33.7335 23.2528 34.0603 23.1271C34.1608 23.0768 34.2362 22.8254 34.2362 22.5489C34.2362 22.2975 34.3368 22.0712 34.4373 22.0712C34.5379 22.0712 34.8144 21.7444 35.0407 21.3674C35.5937 20.4372 37.6551 18.3256 38.7612 17.5463C39.2388 17.2195 39.6913 16.8675 39.7668 16.7921C40.0433 16.4402 43.0851 14.781 43.437 14.781C43.613 14.781 43.789 14.6804 43.789 14.5548C43.789 14.4291 44.166 14.2782 44.6185 14.2028C45.0459 14.1274 46.152 13.9011 47.057 13.7C49.2189 13.1973 50.9786 13.1973 53.7188 13.6749Z" fill="#161616"/>
<path d="M99.6723 28.4818C99.2198 28.9846 99.2701 30.0153 99.798 30.6438C100.628 31.6493 102.211 32.127 104.775 32.127C107.139 32.127 107.139 32.127 107.139 31.4985C107.139 30.9454 107.038 30.87 106.309 30.87C105.781 30.87 105.354 30.694 105.127 30.3672C104.926 30.0907 104.675 29.8645 104.549 29.8645C104.449 29.8645 103.921 29.5879 103.418 29.236C102.915 28.8841 102.287 28.6075 102.061 28.6075C101.809 28.6075 101.608 28.4818 101.608 28.3561C101.608 27.9791 100.024 28.0796 99.6723 28.4818ZM102.111 29.6131C102.111 29.7388 102.337 29.8645 102.614 29.8645C102.89 29.8645 103.116 29.965 103.116 30.1159C103.116 30.2415 103.292 30.3672 103.493 30.3672C103.695 30.3672 103.87 30.4678 103.87 30.6186C103.87 30.7443 103.544 30.87 103.141 30.87C102.714 30.87 102.312 30.7443 102.236 30.6186C102.161 30.4678 101.91 30.3672 101.709 30.3672C101.331 30.3672 100.602 29.789 100.602 29.5125C100.602 29.4371 100.954 29.3617 101.357 29.3617C101.784 29.3617 102.111 29.4622 102.111 29.6131Z" fill="#161616"/>
<path d="M138.814 38.4123C138.814 38.538 138.612 38.6637 138.336 38.6637C137.758 38.6637 137.205 39.2921 137.381 39.7698C137.531 40.172 138.889 40.8256 141.202 41.6552C142.685 42.158 146.38 42.8116 149.673 43.0881C151.006 43.2138 151.433 43.1635 151.76 42.8619C152.288 42.3088 152.238 41.6552 151.634 41.5044C151.358 41.4289 151.132 41.2781 151.132 41.1524C151.132 41.0267 150.956 40.9262 150.754 40.9262C150.553 40.9262 150.151 40.8005 149.875 40.6748C148.718 40.0966 148.391 39.996 146.607 39.5687C145.576 39.3173 144.47 39.0156 144.143 38.8899C143.816 38.7642 142.735 38.6637 141.704 38.6637C140.674 38.6637 139.769 38.538 139.693 38.4123C139.618 38.2615 139.367 38.1609 139.165 38.1609C138.964 38.1609 138.814 38.2615 138.814 38.4123Z" fill="#161616"/>
<path d="M183.811 39.0405C181.473 39.493 180.543 39.8952 180.543 40.4231C180.543 41.0264 180.92 41.2527 182.68 41.7806C183.51 42.032 184.44 42.3588 184.767 42.4594C186.551 43.1381 188.814 42.2582 188.839 40.8756C188.839 40.222 187.808 39.2919 186.677 38.9651C186.099 38.7891 185.596 38.6885 185.546 38.6885C185.496 38.7137 184.716 38.8645 183.811 39.0405ZM186.652 40.222C187.029 40.398 187.331 40.7499 187.331 40.9762C187.331 41.3532 187.104 41.4287 186.225 41.4287C185.596 41.4287 185.018 41.303 184.942 41.1773C184.867 41.0264 184.465 40.9259 184.037 40.9259C183.107 40.9259 183.107 40.5991 184.012 40.2471C184.968 39.8701 185.847 39.8701 186.652 40.222Z" fill="#161616"/>
<path d="M138.134 45.3241C137.757 45.7514 137.707 47.2095 138.059 47.2095C138.21 47.2095 138.31 47.3855 138.31 47.5866C138.31 48.215 139.592 49.472 140.774 49.9747C142.533 50.754 146.38 50.6786 148.265 49.849C149.044 49.4971 149.899 48.9692 150.15 48.6424C150.402 48.3407 150.729 47.9636 150.879 47.7877C151.231 47.3603 151.206 46.0531 150.829 45.7514C149.798 44.947 138.788 44.5699 138.134 45.3241ZM148.164 46.6816C148.969 46.7821 149.673 46.933 149.748 47.0084C150.025 47.2598 149.271 48.215 148.818 48.215C148.567 48.215 148.366 48.3156 148.366 48.4664C148.366 48.5921 148.139 48.7178 147.888 48.7178C147.611 48.7178 147.31 48.8184 147.234 48.9692C147.159 49.0949 146.807 49.2206 146.455 49.2206C146.028 49.2206 145.776 49.0195 145.575 48.5418C145.248 47.662 144.922 47.4609 143.79 47.4609C142.936 47.4609 142.081 47.9636 142.081 48.4916C142.081 49.2709 140.497 48.215 139.844 47.0084L139.542 46.4553L143.137 46.4805C145.123 46.4805 147.385 46.581 148.164 46.6816Z" fill="#161616"/>
<path d="M137.683 49.0196C137.783 49.4721 137.959 49.8743 138.085 49.9246C138.211 49.9749 138.311 50.1509 138.311 50.2765C138.311 50.8296 139.945 52.0111 141.177 52.3631C142.71 52.8156 143.238 52.8407 143.389 52.4133C143.64 51.7597 143.289 51.4832 142.182 51.4832C141.579 51.4832 141.076 51.3575 141.076 51.2318C141.076 51.081 140.85 50.9804 140.574 50.9804C140.322 50.9804 139.694 50.5782 139.191 50.1006C138.713 49.5978 138.311 48.9693 138.311 48.7179C138.311 48.4163 138.135 48.2152 137.909 48.2152C137.607 48.2152 137.557 48.3911 137.683 49.0196Z" fill="#161616"/>
<path d="M152.011 50.3033C151.885 50.4792 151.608 51.0574 151.432 51.6105C151.256 52.1635 150.98 52.8674 150.854 53.1691C150.301 54.5517 150.15 54.9539 149.773 56.1857C149.17 58.1717 149.245 59.3029 150.075 60.2331C150.879 61.1381 151.508 61.2386 152.287 60.585C153.167 59.856 153.469 58.6996 153.293 56.8142C153.192 55.8841 153.016 54.0741 152.916 52.792C152.689 50.4038 152.463 49.7754 152.011 50.3033ZM152.136 56.2109C152.136 58.0209 152.036 58.6493 151.734 58.951C151.407 59.3029 151.307 59.3029 151.106 59.0013C150.678 58.3225 150.553 57.4678 150.854 56.8645C151.005 56.5125 151.131 55.9595 151.131 55.6327C151.131 55.3059 151.256 54.9539 151.382 54.8785C151.533 54.8031 151.634 54.3506 151.634 53.9233C151.634 53.3199 151.709 53.2194 151.885 53.4959C152.011 53.697 152.136 54.9288 152.136 56.2109Z" fill="#161616"/>
<path d="M105.002 51.7357C104.926 51.8614 104.6 51.9871 104.298 51.9871C103.695 52.0122 101.206 52.8167 100.929 53.0932C100.854 53.1686 100.552 53.244 100.301 53.244C100.049 53.244 99.8483 53.3446 99.8483 53.4954C99.8483 53.6211 99.6723 53.7468 99.4461 53.7468C99.2198 53.7468 98.5914 54.1742 98.0634 54.7272C97.2841 55.4814 97.083 55.8836 97.083 56.5875C97.083 57.3919 97.1836 57.5176 97.9378 57.769C98.4405 57.9198 99.2198 57.9701 99.7729 57.8696C100.929 57.6685 102.614 56.9646 102.614 56.7132C102.614 56.5875 102.739 56.5121 102.865 56.5121C103.016 56.5121 103.493 56.135 103.946 55.6825C104.7 54.9535 106.334 53.596 106.887 53.244C107.088 53.1183 107.214 52.4145 107.164 51.786C107.139 51.4089 105.228 51.3586 105.002 51.7357ZM105.379 52.4396C105.379 52.5653 104.851 53.0932 104.222 53.6463C103.594 54.1742 102.94 54.7524 102.764 54.878C102.161 55.4311 101.105 56.0093 100.728 56.0093C100.527 56.0093 100.351 56.1098 100.351 56.2607C100.351 56.3864 99.8986 56.5121 99.3455 56.5121C97.3847 56.5121 98.4405 55.2049 101.658 53.6965C104.298 52.4396 105.379 52.0625 105.379 52.4396Z" fill="#161616"/>
<path d="M139.769 55.8573C138.738 56.7874 138.612 57.0137 139.191 57.0137C139.392 57.0137 139.568 56.888 139.568 56.7623C139.568 56.6115 139.744 56.5109 139.945 56.5109C140.422 56.5109 141.629 55.3797 141.403 55.1534C141.101 54.8517 140.674 55.0277 139.769 55.8573Z" fill="#161616"/>
<path d="M143.539 55.3304C143.364 55.5063 142.886 55.8834 142.484 56.2102C141.931 56.6376 141.855 56.7884 142.157 56.9141C142.509 57.0398 144.344 55.6069 144.344 55.2047C144.344 54.903 143.917 54.9784 143.539 55.3304Z" fill="#161616"/>
<path d="M145.978 55.9089C145.525 56.3614 145.399 56.6631 145.575 56.8391C145.751 57.015 146.078 56.8391 146.606 56.2609C147.461 55.3307 147.511 55.2553 146.983 55.2553C146.782 55.2553 146.329 55.557 145.978 55.9089Z" fill="#161616"/>
<path d="M124.107 56.9391C123.252 57.9698 123.076 58.2715 123.403 58.2715C123.83 58.2715 125.037 56.8134 124.937 56.4364C124.886 56.1347 124.66 56.2855 124.107 56.9391Z" fill="#161616"/>
<path d="M127.199 60.2326C126.545 60.4588 125.816 60.8862 125.565 61.1627C124.61 62.2437 124.107 63.928 124.459 64.8833L124.71 65.5117L130.065 65.386C133.006 65.3357 135.671 65.2352 135.998 65.1598C136.475 65.0592 136.551 64.8833 136.551 63.9783C136.551 63.1235 136.375 62.7213 135.646 61.8415C134.338 60.3331 132.956 59.7801 130.417 59.8052C129.21 59.8052 127.903 59.9812 127.199 60.2326ZM132.78 61.2884C132.78 61.4141 132.956 61.5398 133.207 61.5398C133.685 61.5398 135.042 62.9727 135.042 63.4755C135.042 63.7269 134.062 63.8023 130.266 63.8023C125.615 63.8023 125.49 63.7771 125.49 63.2995C125.49 62.6962 126.545 61.5398 127.099 61.5398C127.3 61.5398 127.551 61.4141 127.626 61.2884C127.702 61.1376 128.883 61.037 130.291 61.037C131.774 61.037 132.78 61.1376 132.78 61.2884Z" fill="#161616"/>
<path d="M79.7378 76.1453C75.062 76.3967 62.1407 76.8744 52.3366 77.1509C39.013 77.528 26.4688 78.081 19.254 78.5838C15.6591 78.8352 15.2318 79.0614 15.5083 80.5949C15.6089 81.0977 15.7848 82.8322 15.9105 84.416C16.4636 91.6559 16.9412 96.5329 17.268 98.368C17.3434 98.7702 17.5194 100.203 17.6702 101.51C18.0725 105.13 18.525 108.7 19.1283 112.823C19.254 113.728 19.4802 115.311 19.6311 116.342C19.7819 117.373 19.9579 118.504 20.0584 118.856C20.1338 119.208 20.3098 120.39 20.4355 121.496C20.5863 122.602 20.7875 124.412 20.9383 125.518C21.064 126.624 21.2399 128.208 21.3154 129.037C21.3908 129.867 21.5416 130.772 21.6673 131.048C21.793 131.325 21.9438 132.004 21.9941 132.557C22.7231 138.917 22.698 138.766 23.3265 139.394C23.9047 139.973 24.0555 139.998 25.8906 139.872C33.3065 139.294 48.0378 138.917 78.9836 138.464C90.095 138.313 99.2958 138.112 99.3963 138.062C99.698 137.861 119.08 137.207 135.847 136.805C139.669 136.73 141.353 136.604 141.529 136.378C141.68 136.202 141.831 135.196 141.906 134.14C142.107 130.822 144.973 131.199 118.25 131.174C105.58 131.174 94.997 131.174 94.7708 131.174C94.4188 131.174 94.3434 130.772 94.2177 128.333C94.0418 124.085 93.539 119.409 92.5334 112.823C92.0055 109.328 91.7793 107.317 91.6536 105.03C91.5782 103.723 91.4273 102.415 91.3016 102.139C91.1759 101.862 91.0251 100.832 90.9497 99.8763C90.7737 97.5133 90.4469 94.6223 89.919 91.4548C89.3911 88.0611 89.0391 85.4718 88.8883 83.4104C88.8129 82.5054 88.6369 81.6759 88.5112 81.525C88.3855 81.3993 88.285 80.8714 88.285 80.3686C88.285 79.8407 88.1844 79.338 88.0336 79.2625C87.9079 79.1871 87.7822 78.8352 87.7822 78.5335C87.7822 78.2067 87.6062 77.5531 87.4051 77.0755C87.1035 76.3465 86.8772 76.1705 86.0979 76.0196C85.0672 75.8688 85.1175 75.8688 79.7378 76.1453Z" fill="#161616"/>
<path d="M195.048 133.638C194.797 133.889 194.445 134.644 194.219 135.272C193.766 136.579 193.716 136.629 193.088 136.051C192.685 135.699 192.208 135.523 190.197 135.021C189.769 134.92 189.317 135.222 188.261 136.278C186.954 137.585 186.828 137.66 186.225 137.384C185.873 137.208 185.571 137.007 185.571 136.881C185.571 136.78 185.345 136.705 185.068 136.705C184.792 136.705 184.566 136.805 184.566 136.956C184.566 137.082 184.415 137.208 184.214 137.208C184.038 137.208 183.736 137.534 183.585 137.912C183.082 139.118 182.202 139.923 181.323 140.023C180.795 140.073 180.367 140.3 180.191 140.601C180.041 140.878 179.839 141.154 179.764 141.23C179.689 141.305 179.538 141.682 179.462 142.11C179.387 142.512 179.211 143.367 179.06 143.97C178.884 144.573 178.834 145.252 178.909 145.478C179.186 146.308 180.267 146.811 181.775 146.836C182.932 146.836 183.409 146.71 184.314 146.107C184.943 145.705 185.496 145.302 185.521 145.177C185.571 145.076 185.848 145.001 186.124 145.001C186.577 145.001 186.627 145.101 186.476 146.132C186.376 146.76 186.35 147.489 186.451 147.741C186.652 148.42 187.859 148.771 189.895 148.771C191.755 148.771 193.163 148.244 194.244 147.163C194.671 146.735 195.023 146.61 195.601 146.71C196.029 146.76 196.456 146.911 196.532 147.037C196.607 147.163 197.009 147.263 197.411 147.263C197.814 147.263 198.392 147.489 198.693 147.766C199.322 148.344 200.78 148.445 201.258 147.942C201.911 147.263 202.917 145.805 202.917 145.529C202.917 145.126 204.073 143.995 204.475 143.995C204.651 143.995 205.079 144.221 205.431 144.498C205.783 144.774 206.436 145.001 206.889 145.001C207.567 145.001 207.97 144.749 209.101 143.593L210.484 142.21L210.408 139.143L210.333 136.076L208.925 135.926C207.643 135.775 205.933 135.096 205.732 134.618C205.682 134.518 205.179 134.442 204.626 134.442C203.847 134.442 203.47 134.593 202.917 135.197L202.213 135.951L201.911 135.197C201.61 134.493 201.509 134.442 200.252 134.442C199.498 134.442 198.895 134.367 198.895 134.241C198.895 133.94 196.959 133.185 196.154 133.185C195.777 133.185 195.275 133.387 195.048 133.638ZM196.733 135.171C196.984 135.574 198.995 136.127 199.523 135.951C199.8 135.85 200.277 135.875 200.604 136.026C201.057 136.227 201.157 136.479 201.157 137.358C201.157 138.414 201.434 138.766 202.112 138.515C202.263 138.465 202.414 138.263 202.414 138.062C202.414 137.509 203.495 135.976 203.998 135.8C204.45 135.649 206.713 136.604 206.889 137.007C206.939 137.132 207.517 137.208 208.146 137.208C209.729 137.208 210.031 137.685 209.805 139.772C209.679 140.828 209.478 141.431 209.126 141.707C208.875 141.934 208.322 142.437 207.919 142.864C207.19 143.618 207.19 143.618 206.411 143.166C205.984 142.939 205.179 142.738 204.601 142.738C203.746 142.738 203.445 142.889 202.741 143.643C202.288 144.146 201.911 144.649 201.911 144.749C201.911 144.85 201.559 145.327 201.132 145.78C200.252 146.71 199.674 146.61 199.372 145.403C199.272 145.001 198.995 144.498 198.794 144.272C198.417 143.869 198.442 143.794 199.045 143.266C199.674 142.713 199.699 142.612 199.548 141.004C199.448 140.099 199.171 139.018 198.92 138.59C198.518 137.886 198.392 137.836 196.808 137.761C195.878 137.71 195.124 137.585 195.124 137.459C195.124 137.308 195.249 137.208 195.375 137.208C195.526 137.208 195.627 136.856 195.627 136.453C195.627 135.398 196.356 134.568 196.733 135.171ZM191.227 136.453C191.303 136.579 191.554 136.705 191.755 136.705C192.384 136.705 194.118 138.867 194.118 139.671C194.118 139.923 193.54 140.601 192.66 141.33C192.132 141.783 192.082 141.783 191.63 141.381C191.353 141.129 191.001 141.004 190.875 141.104C190.523 141.305 190.523 142.235 190.85 142.235C191.001 142.235 191.102 142.386 191.102 142.587C191.102 143.09 191.63 143.216 192.233 142.889C192.886 142.537 194.294 141.029 194.822 140.149C195.174 139.546 195.375 139.47 196.557 139.47C197.864 139.47 197.889 139.47 197.889 140.224C197.889 140.627 198.015 140.978 198.14 140.978C198.492 140.978 198.442 141.959 198.065 142.336C197.562 142.864 196.708 143.241 196.079 143.241C195.752 143.241 195.124 143.467 194.696 143.744C193.967 144.171 193.867 144.372 193.867 145.353C193.867 146.258 193.766 146.509 193.364 146.635C193.088 146.71 192.861 146.911 192.861 147.037C192.861 147.163 192.635 147.263 192.359 147.263C192.082 147.263 191.856 147.364 191.856 147.515C191.856 147.64 191.252 147.766 190.498 147.766C189.744 147.766 189.04 147.64 188.965 147.515C188.889 147.364 188.487 147.263 188.06 147.263C187.356 147.263 187.331 147.238 187.331 145.931C187.331 144.925 187.205 144.448 186.828 144.045C186.174 143.367 185.822 143.342 185.043 143.995C183.61 145.177 182.957 145.503 182.027 145.503C180.895 145.503 180.443 144.925 180.619 143.668C180.669 143.09 180.87 142.311 181.021 141.909C181.247 141.305 181.423 141.23 182.454 141.23C183.535 141.23 183.61 141.205 183.459 140.652C183.384 140.249 183.535 139.772 183.962 139.143C184.289 138.641 184.641 138.213 184.716 138.213C185.32 138.213 187.331 139.722 187.331 140.149C187.331 140.325 187.632 140.551 187.984 140.627C188.789 140.828 189.92 140.048 190.046 139.244C190.121 138.716 190.046 138.691 189.216 138.766C188.537 138.817 188.186 138.716 188.01 138.414C187.783 138.062 187.909 137.836 188.713 137.107C189.669 136.202 190.875 135.9 191.227 136.453ZM197.688 144.448C197.512 144.498 197.386 144.749 197.386 145.026C197.386 145.428 197.21 145.503 196.255 145.503C195.3 145.503 195.124 145.428 195.124 145.001C195.124 144.624 195.3 144.498 195.828 144.498C196.205 144.498 196.657 144.397 196.858 144.272C197.059 144.146 197.386 144.121 197.613 144.196C197.864 144.297 197.889 144.372 197.688 144.448Z" fill="#161616"/>
<path d="M201.686 139.445C201.334 139.722 201.108 140.149 201.108 140.577C201.108 141.532 201.334 141.658 201.988 141.054C202.289 140.778 202.742 140.476 202.993 140.401C203.245 140.3 203.421 139.973 203.421 139.596C203.421 138.817 202.591 138.741 201.686 139.445Z" fill="#161616"/>
<path d="M206.084 139.343C205.908 139.846 206.16 140.475 206.562 140.475C206.889 140.475 207.19 139.947 207.19 139.318C207.19 138.841 206.285 138.866 206.084 139.343Z" fill="#161616"/>
<path d="M144.143 140.852C143.967 141.053 143.615 141.229 143.389 141.229C143.137 141.229 142.333 141.455 141.579 141.732C140.824 142.008 140.02 142.235 139.769 142.235C139.542 142.235 139.316 142.31 139.266 142.411C139.19 142.612 138.109 143.039 135.168 144.095C134.339 144.372 133.635 144.698 133.584 144.799C133.534 144.925 133.207 145 132.881 145C132.554 145 132.277 145.101 132.277 145.251C132.277 145.377 132.101 145.503 131.9 145.503C131.699 145.503 131.322 145.603 131.071 145.729C130.14 146.232 127.451 147.262 127.099 147.262C126.898 147.262 126.747 147.363 126.747 147.514C126.747 147.64 126.47 147.765 126.118 147.765C125.766 147.765 125.49 147.866 125.49 148.017C125.49 148.142 125.264 148.268 125.012 148.268C124.736 148.268 124.434 148.369 124.359 148.519C124.283 148.645 124.007 148.771 123.78 148.771C123.554 148.771 123.026 148.947 122.624 149.148C122.247 149.349 121.694 149.525 121.442 149.525C121.166 149.525 120.965 149.626 120.965 149.776C120.965 149.902 120.638 150.028 120.211 150.028C119.808 150.028 119.457 150.128 119.457 150.279C119.457 150.405 119.281 150.531 119.079 150.531C118.878 150.531 118.501 150.631 118.25 150.757C117.32 151.26 114.63 152.29 114.278 152.29C114.077 152.29 113.926 152.391 113.926 152.542C113.926 152.667 113.649 152.793 113.298 152.793C112.946 152.793 112.669 152.894 112.669 153.044C112.669 153.17 112.443 153.296 112.166 153.296C111.89 153.296 111.664 153.396 111.664 153.547C111.664 153.673 111.513 153.799 111.337 153.799C111.01 153.799 109.854 154.276 108.848 154.829C108.597 154.955 108.22 155.055 108.018 155.055C107.817 155.055 107.641 155.156 107.641 155.307C107.641 155.433 107.415 155.558 107.139 155.558C106.862 155.558 106.636 155.659 106.636 155.81C106.636 155.935 106.485 156.061 106.334 156.061C105.932 156.061 102.262 157.871 102.161 158.122C102.111 158.248 101.859 158.324 101.583 158.324C101.331 158.324 101.105 158.399 101.105 158.5C101.105 158.625 100.602 158.902 99.974 159.153C99.3455 159.43 98.8428 159.706 98.8428 159.807C98.8428 159.907 98.4405 160.134 97.9629 160.335C97.2087 160.636 97.083 160.787 97.083 161.516C97.083 162.094 97.2087 162.346 97.4601 162.346C97.6612 162.346 98.0634 162.471 98.34 162.597C98.6165 162.723 99.069 162.949 99.3455 163.1C99.6221 163.226 100.125 163.351 100.477 163.351C100.829 163.351 101.105 163.452 101.105 163.552C101.105 163.653 101.834 163.98 102.739 164.231C103.644 164.508 104.373 164.809 104.373 164.91C104.373 165.036 104.6 165.111 104.876 165.111C105.153 165.111 105.379 165.186 105.379 165.312C105.379 165.413 105.756 165.639 106.208 165.84C106.636 166.041 107.063 166.267 107.139 166.343C107.214 166.418 107.717 166.72 108.27 166.996C108.823 167.273 109.326 167.549 109.401 167.625C109.476 167.7 109.879 167.927 110.281 168.128C110.708 168.329 111.085 168.555 111.161 168.63C111.286 168.756 112.191 169.259 113.901 170.189C114.479 170.491 114.932 170.817 114.932 170.943C114.932 171.044 115.082 171.144 115.283 171.144C115.686 171.144 118.049 172.426 118.149 172.703C118.2 172.803 118.401 172.904 118.602 172.904C118.803 172.904 118.954 173.005 118.954 173.155C118.954 173.281 119.18 173.407 119.457 173.407C119.733 173.407 119.959 173.507 119.959 173.658C119.959 173.784 120.06 173.91 120.211 173.91C120.336 173.91 120.99 174.236 121.644 174.639C123.227 175.594 126.345 177.303 127.752 178.007C128.381 178.309 128.934 178.636 128.959 178.736C129.009 178.862 129.135 178.937 129.261 178.937C129.361 178.937 130.166 179.34 131.02 179.817C131.875 180.295 132.73 180.697 132.931 180.697C133.132 180.697 133.283 180.772 133.283 180.898C133.283 180.999 133.66 181.225 134.112 181.426C134.54 181.627 134.967 181.853 135.043 181.929C135.47 182.432 137.38 183.462 137.908 183.462C138.587 183.462 140.749 182.331 141.352 181.652C141.579 181.401 141.88 181.2 142.056 181.2C142.207 181.2 142.333 181.124 142.333 180.999C142.333 180.898 142.785 180.596 143.338 180.345C143.891 180.069 144.344 179.767 144.344 179.641C144.344 179.541 144.52 179.44 144.721 179.44C144.922 179.44 145.098 179.314 145.098 179.189C145.098 179.038 145.324 178.937 145.576 178.937C145.852 178.937 146.104 178.837 146.154 178.711C146.254 178.435 149.799 176.172 150.126 176.172C150.277 176.172 150.377 176.046 150.377 175.921C150.377 175.77 150.528 175.669 150.729 175.669C150.93 175.669 151.131 175.569 151.182 175.468C151.307 175.141 154.198 173.608 154.349 173.784C154.45 173.859 154.399 174.01 154.274 174.111C154.047 174.261 153.419 175.368 152.413 177.303C152.187 177.706 151.936 178.083 151.835 178.133C151.71 178.183 151.634 178.384 151.634 178.585C151.634 178.786 151.534 178.937 151.383 178.937C151.257 178.937 151.131 179.164 151.131 179.44C151.131 179.717 151.031 179.943 150.88 179.943C150.754 179.943 150.629 180.043 150.629 180.194C150.629 180.571 149.296 183.337 149.07 183.412C148.969 183.462 148.869 183.714 148.869 183.99C148.869 184.242 148.768 184.468 148.617 184.468C148.492 184.468 148.366 184.82 148.366 185.247C148.366 186.052 148.844 186.73 149.422 186.73C149.623 186.73 149.874 186.831 150 186.957C150.151 187.057 150.981 187.359 151.886 187.585C154.098 188.188 155.229 188.565 155.531 188.792C155.656 188.892 156.059 188.993 156.436 188.993C156.813 188.993 157.215 189.093 157.29 189.244C157.366 189.37 157.768 189.496 158.195 189.496C158.598 189.496 158.924 189.596 158.924 189.722C158.924 189.848 159.301 189.998 159.754 190.074C161.262 190.325 163.072 190.778 163.5 191.004C163.751 191.155 164.279 191.255 164.706 191.255C165.108 191.255 165.46 191.356 165.46 191.507C165.46 191.632 165.838 191.758 166.315 191.758C166.793 191.758 167.27 191.859 167.346 192.009C167.421 192.135 167.874 192.261 168.351 192.261C168.829 192.261 169.282 192.361 169.357 192.512C169.432 192.638 169.759 192.764 170.061 192.764C170.79 192.764 174.284 193.518 174.812 193.794C175.063 193.92 175.717 194.021 176.27 194.021C176.823 194.021 177.276 194.121 177.276 194.247C177.276 194.372 177.804 194.548 178.482 194.599C179.764 194.75 180.921 194.951 185.194 195.755C189.267 196.509 189.242 196.509 189.443 195.152C189.543 194.523 189.719 194.021 189.87 194.021C189.996 194.021 190.096 193.895 190.096 193.719C190.096 193.342 191.932 189.646 192.183 189.546C192.283 189.496 192.359 189.244 192.359 188.968C192.359 188.716 192.459 188.49 192.56 188.49C192.686 188.49 192.912 188.088 193.113 187.61C193.314 187.133 193.54 186.73 193.666 186.73C193.767 186.73 193.867 186.554 193.867 186.353C193.867 185.926 195.149 183.387 195.451 183.261C195.552 183.211 195.627 183.01 195.627 182.809C195.627 182.608 195.753 182.306 195.878 182.13C196.306 181.627 197.889 178.887 197.889 178.661C197.889 178.535 198.015 178.435 198.141 178.435C198.292 178.435 198.392 178.208 198.392 177.957C198.392 177.68 198.468 177.429 198.593 177.379C198.82 177.278 200.152 174.613 200.152 174.211C200.152 174.06 200.278 173.91 200.403 173.91C200.554 173.91 200.655 173.683 200.655 173.432C200.655 173.155 200.73 172.904 200.856 172.854C201.082 172.753 202.917 169.058 202.917 168.681C202.917 168.505 203.043 168.379 203.169 168.379C203.319 168.379 203.42 168.153 203.42 167.876C203.42 167.6 203.495 167.373 203.621 167.373C203.722 167.373 204.149 166.569 204.551 165.614C204.979 164.658 205.381 163.854 205.506 163.854C205.607 163.854 205.682 163.628 205.682 163.376C205.682 163.1 205.758 162.849 205.884 162.798C205.984 162.748 206.512 161.843 207.04 160.762C207.568 159.706 208.096 158.826 208.221 158.826C208.347 158.826 208.448 158.6 208.448 158.349C208.448 158.072 208.523 157.821 208.649 157.77C208.749 157.72 209.202 157.192 209.654 156.589C210.258 155.734 210.459 155.206 210.459 154.377C210.459 153.472 210.383 153.296 209.956 153.296C209.679 153.296 209.453 153.195 209.453 153.07C209.453 152.944 208.473 152.768 207.266 152.692C201.384 152.341 198.82 152.039 192.485 151.008C191.655 150.857 190.373 150.681 189.669 150.606C188.94 150.556 188.337 150.38 188.337 150.279C188.337 150.153 187.583 150.003 186.652 149.927C185.697 149.877 184.164 149.701 183.183 149.55C178.407 148.871 175.265 148.444 174.133 148.343C173.455 148.268 172.776 148.117 172.625 147.992C172.499 147.866 171.971 147.765 171.443 147.765C170.614 147.765 170.413 147.891 169.734 148.871C169.332 149.5 168.98 150.103 168.98 150.254C168.98 150.405 168.879 150.531 168.728 150.531C168.603 150.531 168.427 150.807 168.326 151.159C168.15 151.888 167.472 151.989 166.365 151.41C165.988 151.209 165.486 151.033 165.31 151.033C165.108 151.033 164.958 150.908 164.958 150.782C164.958 150.631 164.731 150.531 164.455 150.531C164.178 150.531 163.952 150.405 163.952 150.279C163.952 150.128 163.676 150.028 163.324 150.028C162.972 150.028 162.695 149.902 162.695 149.776C162.695 149.626 162.469 149.525 162.192 149.525C161.916 149.525 161.69 149.399 161.69 149.274C161.69 149.123 161.489 149.022 161.237 149.022C160.986 149.022 160.558 148.846 160.282 148.645C160.03 148.444 159.603 148.268 159.377 148.268C159.125 148.268 158.924 148.142 158.924 148.017C158.924 147.866 158.698 147.765 158.447 147.765C158.17 147.765 157.919 147.69 157.869 147.564C157.843 147.464 156.662 146.835 155.279 146.131C153.897 145.452 152.665 144.799 152.514 144.673C152.011 144.296 149.296 142.738 149.12 142.738C148.995 142.738 148.869 142.662 148.819 142.536C148.718 142.31 145.048 140.475 144.721 140.475C144.57 140.5 144.319 140.651 144.143 140.852ZM146.053 142.536C146.104 142.637 146.355 142.738 146.632 142.738C146.883 142.738 147.109 142.838 147.109 142.989C147.109 143.115 147.26 143.24 147.436 143.24C147.712 143.24 150.327 144.874 150.629 145.251C150.704 145.327 151.433 145.729 152.263 146.131C153.092 146.559 153.821 146.961 153.846 147.061C153.897 147.187 154.148 147.262 154.425 147.262C154.676 147.262 154.902 147.363 154.902 147.514C154.902 147.64 155.053 147.765 155.254 147.765C155.455 147.765 156.26 148.142 157.089 148.595C157.894 149.047 158.924 149.6 159.377 149.801C159.804 149.977 160.181 150.229 160.181 150.329C160.181 150.455 160.408 150.531 160.684 150.531C160.961 150.531 161.187 150.631 161.187 150.782C161.187 150.908 161.388 151.033 161.639 151.033C161.891 151.033 162.318 151.209 162.595 151.41C162.846 151.611 163.273 151.787 163.525 151.787C163.751 151.787 163.952 151.888 163.952 152.039C163.952 152.165 164.229 152.29 164.581 152.29C164.933 152.29 165.209 152.391 165.209 152.542C165.209 152.667 165.435 152.793 165.712 152.793C165.988 152.793 166.416 152.894 166.667 153.019C167.472 153.447 170.488 154.553 170.865 154.553C171.066 154.553 171.242 154.653 171.242 154.804C171.242 154.93 171.418 155.055 171.619 155.055C171.821 155.055 172.198 155.156 172.449 155.282C172.675 155.407 173.48 155.785 174.209 156.086C174.913 156.388 175.516 156.765 175.516 156.891C175.516 157.268 172.022 160.586 171.619 160.586C171.418 160.586 171.242 160.687 171.242 160.837C171.242 160.963 171.117 161.089 170.991 161.089C170.84 161.089 170.589 161.214 170.413 161.34C169.91 161.768 167.17 163.351 166.944 163.351C166.818 163.351 166.717 163.452 166.717 163.603C166.717 163.728 166.541 163.854 166.34 163.854C166.139 163.854 165.963 163.929 165.963 164.03C165.963 164.156 165.385 164.558 164.706 164.985C164.002 165.388 163.449 165.815 163.449 165.915C163.449 166.016 163.298 166.117 163.097 166.117C162.896 166.117 162.695 166.192 162.645 166.318C162.62 166.418 161.866 166.946 161.011 167.499C160.131 168.052 159.427 168.58 159.427 168.681C159.427 168.806 159.301 168.882 159.176 168.882C158.874 168.882 156.813 170.189 156.712 170.44C156.662 170.566 156.41 170.642 156.134 170.642C155.883 170.642 155.656 170.742 155.656 170.893C155.656 171.019 155.531 171.144 155.405 171.144C155.254 171.144 155.003 171.27 154.827 171.396C154.198 171.924 152.615 172.904 152.388 172.904C152.237 172.904 152.137 173.005 152.137 173.155C152.137 173.281 152.036 173.407 151.911 173.407C151.785 173.407 150.955 173.859 150.101 174.412C149.221 174.965 148.291 175.493 148.064 175.569C147.813 175.669 147.612 175.82 147.612 175.946C147.612 176.071 147.461 176.172 147.285 176.172C147.109 176.172 146.707 176.398 146.405 176.675C146.104 176.951 145.802 177.178 145.727 177.178C145.5 177.178 143.464 178.535 143.389 178.736C143.338 178.862 143.137 178.937 142.936 178.937C142.76 178.937 142.358 179.138 142.056 179.39C141.78 179.616 141.302 180.018 141.026 180.245C140.749 180.496 140.196 180.823 139.794 180.999C139.392 181.175 139.065 181.401 139.065 181.501C139.065 181.627 138.914 181.703 138.713 181.703C138.512 181.703 138.311 181.853 138.235 182.004C138.135 182.356 137.204 181.979 136.375 181.225C136.124 180.999 135.445 180.596 134.867 180.32C134.263 180.043 133.786 179.742 133.786 179.616C133.786 179.515 133.559 179.44 133.283 179.44C133.006 179.44 132.78 179.314 132.78 179.189C132.78 179.038 132.554 178.937 132.302 178.937C132.026 178.937 131.775 178.862 131.724 178.736C131.699 178.636 130.769 178.108 129.713 177.555C128.632 177.002 127.752 176.474 127.752 176.373C127.752 176.247 127.526 176.172 127.275 176.172C126.998 176.172 126.747 176.097 126.696 175.971C126.596 175.745 125.339 174.965 124.434 174.588C124.032 174.437 123.73 174.211 123.73 174.111C123.73 174.01 123.504 173.91 123.227 173.91C122.951 173.91 122.725 173.809 122.725 173.708C122.725 173.532 121.04 172.527 119.532 171.798C119.205 171.647 118.954 171.446 118.954 171.32C118.954 171.22 118.778 171.144 118.577 171.144C118.376 171.144 118.2 171.019 118.2 170.893C118.2 170.742 117.973 170.642 117.697 170.642C117.42 170.642 117.194 170.566 117.194 170.44C117.194 170.34 116.691 170.038 116.063 169.762C115.434 169.485 114.932 169.183 114.932 169.083C114.932 168.957 114.756 168.882 114.554 168.882C114.353 168.882 114.177 168.756 114.177 168.63C114.177 168.48 114.052 168.379 113.901 168.379C113.75 168.379 113.046 167.977 112.317 167.499C111.588 167.022 110.859 166.619 110.683 166.619C110.532 166.619 110.407 166.494 110.407 166.368C110.407 166.217 110.281 166.117 110.13 166.117C109.979 166.117 109.552 165.915 109.2 165.664C108.094 164.885 105.102 163.351 104.725 163.351C104.524 163.351 104.373 163.251 104.373 163.125C104.373 162.999 104.172 162.849 103.946 162.748C100.703 161.692 99.974 161.365 99.8986 160.988C99.8483 160.762 99.974 160.586 100.2 160.586C100.426 160.586 100.602 160.46 100.602 160.335C100.602 160.184 100.829 160.083 101.08 160.083C101.357 160.083 101.608 159.983 101.658 159.882C101.734 159.656 104.499 158.324 104.876 158.324C105.027 158.324 105.127 158.198 105.127 158.072C105.127 157.921 105.354 157.821 105.63 157.821C105.907 157.821 106.133 157.695 106.133 157.569C106.133 157.419 106.359 157.318 106.636 157.318C106.912 157.318 107.139 157.192 107.139 157.067C107.139 156.916 107.315 156.815 107.516 156.815C107.717 156.815 108.471 156.539 109.2 156.187C109.904 155.835 110.658 155.558 110.834 155.558C111.01 155.558 111.161 155.433 111.161 155.307C111.161 155.156 111.387 155.055 111.638 155.055C111.915 155.055 112.166 154.98 112.217 154.854C112.292 154.704 113.7 154.1 115.635 153.447C116.063 153.296 116.44 153.095 116.44 152.994C116.44 152.868 116.716 152.793 117.068 152.793C117.42 152.793 117.697 152.667 117.697 152.542C117.697 152.391 117.873 152.29 118.074 152.29C118.275 152.29 118.652 152.19 118.903 152.064C119.13 151.938 119.834 151.637 120.462 151.41C121.091 151.184 121.794 150.882 122.021 150.757C122.272 150.631 122.649 150.531 122.85 150.531C123.051 150.531 123.227 150.405 123.227 150.279C123.227 150.128 123.504 150.028 123.831 150.028C124.157 150.028 124.484 149.952 124.535 149.827C124.585 149.726 125.238 149.45 125.993 149.198C126.747 148.947 127.878 148.494 128.506 148.218C129.135 147.941 129.864 147.614 130.14 147.514C130.417 147.413 131.297 147.011 132.101 146.659C132.906 146.307 134.012 145.855 134.54 145.679C135.093 145.528 135.545 145.302 135.545 145.201C135.545 145.075 135.772 145 136.048 145C136.325 145 136.551 144.874 136.551 144.749C136.551 144.598 136.827 144.497 137.154 144.497C137.481 144.497 137.808 144.422 137.858 144.296C137.959 144.07 141.855 142.738 142.433 142.738C142.66 142.738 142.836 142.637 142.836 142.511C142.836 142.008 145.877 142.034 146.053 142.536ZM174.762 149.424C175.667 149.5 176.496 149.676 176.647 149.801C176.773 149.927 177.703 150.028 178.709 150.028C179.764 150.028 180.544 150.128 180.544 150.279C180.544 150.405 181.172 150.531 181.926 150.531C182.68 150.531 183.787 150.631 184.365 150.757C184.968 150.908 186.476 151.134 187.708 151.31C188.965 151.486 190.599 151.712 191.353 151.838C192.107 151.963 193.239 152.114 193.867 152.19C194.496 152.265 195.225 152.416 195.501 152.542C195.778 152.667 196.456 152.818 197.01 152.894C197.563 152.969 198.744 153.145 199.649 153.271C200.554 153.396 202.842 153.623 204.752 153.773C208.347 154.05 209.453 154.226 209.453 154.528C209.453 154.88 208.825 156.061 208.649 156.061C208.523 156.061 208.448 156.212 208.448 156.413C208.448 156.614 208.372 156.815 208.272 156.865C207.995 156.966 206.688 159.027 206.688 159.329C206.688 159.455 206.587 159.58 206.437 159.58C206.311 159.58 206.185 159.807 206.185 160.083C206.185 160.36 206.11 160.586 206.009 160.586C205.884 160.586 205.682 160.837 205.532 161.164C204.803 162.698 203.269 165.488 203.118 165.563C202.993 165.614 202.917 165.865 202.917 166.142C202.917 166.393 202.817 166.619 202.666 166.619C202.54 166.619 202.414 166.72 202.414 166.871C202.414 167.248 201.082 170.013 200.856 170.088C200.755 170.139 200.655 170.39 200.655 170.667C200.655 170.918 200.554 171.144 200.403 171.144C200.278 171.144 200.152 171.295 200.152 171.446C200.152 171.848 198.342 175.518 198.091 175.619C197.965 175.669 197.889 175.921 197.889 176.197C197.889 176.449 197.814 176.675 197.713 176.675C197.588 176.675 197.311 177.178 197.06 177.806C196.783 178.435 196.482 178.937 196.356 178.937C196.23 178.937 196.13 179.164 196.13 179.44C196.13 179.717 196.029 179.943 195.878 179.943C195.753 179.943 195.627 180.119 195.627 180.32C195.627 180.521 195.526 180.697 195.376 180.697C195.25 180.697 195.124 180.823 195.124 180.948C195.124 181.099 194.848 181.652 194.496 182.205C194.144 182.758 193.867 183.362 193.867 183.588C193.867 183.789 193.767 183.965 193.616 183.965C193.49 183.965 193.364 184.141 193.364 184.342C193.364 184.543 193.264 184.719 193.113 184.719C192.987 184.719 192.862 184.87 192.862 185.071C192.862 185.247 192.459 186.152 191.982 187.082C191.504 188.012 191.102 188.943 191.102 189.144C191.102 189.345 191.001 189.496 190.851 189.496C190.725 189.496 190.599 189.722 190.599 189.998C190.599 190.275 190.499 190.501 190.348 190.501C190.222 190.501 190.096 190.677 190.096 190.878C190.096 191.079 189.996 191.255 189.845 191.255C189.719 191.255 189.594 191.431 189.594 191.658C189.594 191.884 189.342 192.487 189.041 192.99C188.714 193.467 188.337 194.121 188.211 194.398C188.01 194.75 187.733 194.875 187.205 194.85C184.993 194.649 183.812 194.448 183.812 194.247C183.812 194.121 183.435 194.021 183.007 194.021C182.555 194.021 181.097 193.769 179.79 193.493C178.482 193.216 176.873 192.914 176.22 192.839C175.541 192.764 175.013 192.613 175.013 192.487C175.013 192.361 174.51 192.261 173.882 192.261C173.253 192.261 172.751 192.135 172.751 192.009C172.751 191.859 172.348 191.758 171.871 191.758C171.393 191.758 170.79 191.658 170.538 191.532C170.312 191.406 169.206 191.104 168.1 190.878C166.994 190.652 165.838 190.35 165.511 190.225C165.184 190.099 164.656 189.998 164.329 189.998C164.002 189.998 163.65 189.873 163.575 189.747C163.5 189.596 163.097 189.496 162.695 189.496C162.293 189.496 161.891 189.395 161.815 189.244C161.74 189.118 161.338 188.993 160.935 188.993C160.533 188.993 160.131 188.867 160.056 188.741C159.98 188.591 159.628 188.49 159.327 188.49C159 188.49 157.969 188.214 157.014 187.862C156.059 187.51 155.078 187.233 154.852 187.233C154.6 187.233 154.399 187.107 154.399 186.982C154.399 186.831 154.073 186.73 153.645 186.73C153.243 186.73 152.891 186.605 152.891 186.479C152.891 186.328 152.69 186.228 152.464 186.228C151.886 186.228 150.176 185.624 149.9 185.323C149.623 185.046 149.9 184.392 153.218 177.706C155.254 173.608 155.883 172.502 156.511 172.125C156.938 171.873 157.416 171.547 157.592 171.421C157.768 171.27 158.019 171.144 158.17 171.144C158.296 171.144 158.422 171.019 158.422 170.893C158.422 170.742 158.547 170.642 158.698 170.642C158.849 170.642 159.704 170.139 160.584 169.51C161.438 168.882 162.268 168.379 162.419 168.379C162.569 168.379 162.695 168.278 162.695 168.178C162.695 168.052 163.097 167.751 163.575 167.474C164.053 167.223 164.455 166.921 164.455 166.82C164.455 166.695 164.606 166.619 164.782 166.619C164.958 166.619 165.36 166.393 165.662 166.117C165.963 165.84 166.315 165.614 166.466 165.614C166.592 165.614 166.717 165.538 166.717 165.413C166.717 165.312 167.346 164.91 168.1 164.483C168.854 164.08 169.483 163.653 169.483 163.552C169.483 163.452 169.709 163.351 169.985 163.351C170.262 163.351 170.488 163.226 170.488 163.1C170.488 162.949 170.639 162.849 170.84 162.849C171.041 162.849 171.242 162.773 171.293 162.647C171.343 162.547 172.047 162.019 172.876 161.491C174.46 160.435 177.276 157.796 177.276 157.343C177.276 157.192 177.401 157.067 177.527 157.067C177.879 157.067 177.829 156.338 177.477 155.96C177.024 155.558 173.354 153.799 172.901 153.799C172.7 153.799 172.449 153.673 172.374 153.547C172.298 153.396 171.946 153.296 171.619 153.296C171.293 153.296 170.941 153.17 170.865 153.044C170.79 152.894 170.438 152.793 170.086 152.793C169.759 152.793 169.483 152.667 169.483 152.542C169.483 152.391 169.231 152.29 168.93 152.29H168.402L168.93 151.712C169.231 151.385 169.483 151.033 169.483 150.933C169.483 150.832 169.759 150.48 170.111 150.128C170.463 149.776 170.74 149.374 170.74 149.248C170.74 149.072 171.192 149.022 171.946 149.098C172.6 149.173 173.857 149.324 174.762 149.424Z" fill="#161616"/>
<path d="M121.242 157.443C121.694 157.921 122.197 158.323 122.398 158.323C122.574 158.323 122.725 158.398 122.725 158.499C122.725 158.624 123.228 159.027 123.856 159.454C124.46 159.856 124.987 160.284 124.987 160.384C124.987 160.51 125.163 160.585 125.39 160.585C125.591 160.585 126.119 160.912 126.571 161.339C127.024 161.742 127.451 162.094 127.552 162.094C127.652 162.094 128.004 162.37 128.356 162.722C128.708 163.074 129.11 163.351 129.261 163.351C129.387 163.351 129.512 163.451 129.512 163.552C129.512 163.677 129.965 163.979 130.518 164.23C131.071 164.482 131.524 164.783 131.524 164.909C131.524 165.01 131.7 165.11 131.901 165.11C132.102 165.11 132.278 165.211 132.278 165.362C132.278 165.487 132.504 165.613 132.78 165.613C133.057 165.613 133.283 165.714 133.283 165.814C133.283 165.94 133.887 166.342 134.641 166.719C135.37 167.096 136.375 167.75 136.878 168.202C137.909 169.107 139.493 170.138 139.844 170.138C139.97 170.138 140.071 170.239 140.071 170.389C140.071 170.515 140.297 170.641 140.573 170.641C140.85 170.641 141.076 170.716 141.076 170.817C141.076 170.942 141.353 171.144 141.705 171.32C142.208 171.546 142.333 171.521 142.333 171.269C142.333 171.068 141.73 170.616 141.026 170.213C138.939 169.057 138.512 168.781 137.884 168.202C137.079 167.448 135.144 166.116 134.817 166.116C134.666 166.116 134.54 166.015 134.54 165.915C134.54 165.789 134.138 165.563 133.66 165.362C133.183 165.161 132.78 164.934 132.78 164.834C132.78 164.733 132.529 164.557 132.227 164.457C131.926 164.381 131.448 164.08 131.172 163.828C130.895 163.552 130.543 163.351 130.392 163.351C130.241 163.351 129.965 163.124 129.764 162.848C129.563 162.571 129.286 162.345 129.135 162.345C128.985 162.345 128.607 162.094 128.256 161.767C127.376 160.962 124.258 158.826 123.982 158.826C123.831 158.826 123.731 158.725 123.731 158.624C123.731 158.499 123.429 158.247 123.052 158.046C122.675 157.845 122.122 157.443 121.82 157.116C121.493 156.814 121.066 156.563 120.84 156.563C120.563 156.563 120.689 156.814 121.242 157.443Z" fill="#161616"/>
<path d="M115.458 158.575C115.433 158.776 115.81 159.128 116.263 159.304C116.69 159.505 117.344 159.958 117.696 160.31C118.4 161.013 118.902 161.365 120.159 162.019C120.587 162.245 120.964 162.522 120.964 162.648C120.964 162.748 121.14 162.849 121.341 162.849C121.542 162.849 121.718 162.949 121.718 163.05C121.718 163.15 122.271 163.578 122.975 163.98C123.654 164.407 124.232 164.809 124.232 164.91C124.232 165.036 124.408 165.111 124.609 165.111C124.81 165.111 124.986 165.212 124.986 165.312C124.986 165.438 125.288 165.689 125.69 165.89C126.067 166.092 126.419 166.293 126.494 166.368C126.57 166.443 127.123 166.72 127.751 166.971C128.38 167.223 129.084 167.524 129.31 167.65C129.561 167.776 129.913 167.876 130.089 167.876C130.265 167.876 130.567 168.103 130.768 168.379C130.969 168.656 131.246 168.882 131.396 168.882C131.522 168.882 132.151 169.36 132.779 169.963C133.407 170.541 134.312 171.32 134.79 171.672C135.997 172.552 138.586 173.96 138.737 173.809C138.938 173.633 138.309 173.08 137.229 172.527C136.701 172.251 136.047 171.823 135.796 171.572C135.519 171.346 135.217 171.144 135.092 171.144C134.966 171.144 134.287 170.616 133.583 169.938C131.623 168.103 131.044 167.7 129.536 167.097C127.047 166.142 126.746 165.991 126.746 165.815C126.746 165.689 126.57 165.614 126.369 165.614C126.167 165.614 125.992 165.538 125.992 165.413C125.992 165.312 125.539 165.011 124.986 164.759C124.433 164.483 123.98 164.181 123.98 164.055C123.98 163.955 123.804 163.854 123.603 163.854C123.402 163.854 123.226 163.779 123.226 163.653C123.226 163.553 122.522 163.025 121.643 162.472C120.788 161.918 119.908 161.29 119.682 161.039C119.455 160.787 119.179 160.586 119.078 160.586C118.978 160.586 118.324 160.184 117.671 159.706C116.992 159.229 116.288 158.826 116.087 158.826C115.886 158.826 115.659 158.676 115.609 158.5C115.509 158.299 115.458 158.324 115.458 158.575Z" fill="#161616"/>
<path d="M109.577 160.235C109.326 160.486 110.206 161.165 111.865 162.02C112.292 162.246 112.669 162.522 112.669 162.648C112.669 162.749 112.896 162.849 113.172 162.849C113.449 162.849 113.675 162.95 113.675 163.101C113.675 163.226 113.851 163.352 114.052 163.352C114.253 163.352 114.429 163.452 114.429 163.603C114.429 163.729 114.655 163.855 114.932 163.855C115.208 163.855 115.435 163.955 115.435 164.081C115.435 164.207 115.711 164.383 116.063 164.458C116.415 164.559 116.692 164.735 116.692 164.86C116.692 165.011 116.868 165.112 117.094 165.112C117.32 165.112 117.697 165.313 117.923 165.539C118.15 165.79 119.683 166.67 121.342 167.5C123.856 168.732 127.25 170.793 127.753 171.371C127.828 171.472 128.331 171.748 128.884 172.025C129.437 172.301 130.065 172.729 130.292 172.955C130.518 173.206 130.895 173.407 131.121 173.407C131.348 173.407 131.523 173.508 131.523 173.659C131.523 173.785 131.699 173.91 131.901 173.91C132.102 173.91 132.278 173.986 132.278 174.111C132.278 174.388 135.294 175.745 135.495 175.544C135.747 175.318 134.817 174.664 133.987 174.488C133.585 174.413 133.283 174.262 133.283 174.136C133.283 174.011 133.057 173.91 132.78 173.91C132.504 173.91 132.278 173.785 132.278 173.659C132.278 173.508 132.152 173.407 132.001 173.407C131.85 173.407 131.574 173.257 131.398 173.081C130.769 172.528 130.392 172.276 129.714 171.924C129.311 171.723 129.01 171.472 129.01 171.346C129.01 171.245 128.884 171.145 128.758 171.145C128.607 171.145 128.356 171.044 128.18 170.894C127.099 170.014 125.44 168.882 125.239 168.882C125.088 168.882 124.987 168.782 124.987 168.681C124.987 168.556 124.108 168.028 123.052 167.475C121.971 166.947 121.066 166.419 121.015 166.293C120.965 166.193 120.714 166.117 120.437 166.117C120.186 166.117 119.96 165.991 119.96 165.866C119.96 165.715 119.859 165.614 119.708 165.614C119.583 165.614 118.854 165.212 118.099 164.735C117.345 164.257 116.591 163.855 116.44 163.855C116.315 163.855 116.189 163.779 116.189 163.654C116.189 163.553 115.812 163.327 115.384 163.151C114.127 162.623 111.815 161.517 111.664 161.341C111.488 161.115 109.98 160.084 109.854 160.084C109.778 160.084 109.678 160.159 109.577 160.235Z" fill="#161616"/>
<path d="M159.428 175.267C159.779 175.468 160.307 175.644 160.609 175.669C160.911 175.669 161.238 175.77 161.313 175.921C161.388 176.046 161.916 176.172 162.444 176.172C162.972 176.172 163.475 176.273 163.55 176.398C163.626 176.524 164.128 176.675 164.631 176.75C166.24 176.977 170.966 178.083 171.142 178.259C171.243 178.359 171.645 178.435 172.022 178.435C172.399 178.435 172.801 178.535 172.877 178.686C172.952 178.812 173.354 178.937 173.782 178.937C174.184 178.937 174.511 179.038 174.511 179.189C174.511 179.314 174.838 179.44 175.24 179.44C175.667 179.44 176.044 179.541 176.12 179.641C176.195 179.767 177.251 180.043 178.458 180.295C179.664 180.546 180.871 180.848 181.097 180.974C181.349 181.099 181.952 181.2 182.429 181.2C182.907 181.2 183.309 181.3 183.309 181.451C183.309 181.577 183.611 181.703 184.013 181.703C184.843 181.703 188.186 182.884 188.287 183.211C188.438 183.613 189.016 183.513 189.192 183.06C189.443 182.406 189.368 182.205 188.84 182.205C188.563 182.205 188.337 182.13 188.337 182.004C188.337 181.753 186.502 181.2 185.698 181.2C185.346 181.2 185.069 181.074 185.069 180.948C185.069 180.798 184.692 180.697 184.239 180.697C183.787 180.697 182.807 180.546 182.052 180.345C181.298 180.169 179.991 179.867 179.161 179.717C178.332 179.541 177.452 179.289 177.226 179.164C176.974 179.038 176.472 178.937 176.069 178.937C175.692 178.937 175.265 178.837 175.114 178.736C174.812 178.46 173.53 178.083 171.243 177.555C170.212 177.303 169.106 177.027 168.779 176.901C168.452 176.775 167.748 176.675 167.221 176.675C166.667 176.675 166.215 176.549 166.215 176.423C166.215 176.273 165.712 176.172 165.109 176.172C164.48 176.172 163.902 176.046 163.827 175.921C163.751 175.77 163.399 175.669 163.048 175.669C162.696 175.669 162.218 175.569 161.967 175.443C161.715 175.292 160.911 175.116 160.157 175.041C158.874 174.89 158.824 174.915 159.428 175.267Z" fill="#161616"/>
<path d="M156.159 179.163C156.159 179.289 156.411 179.439 156.738 179.515C158.271 179.867 161.665 180.722 162.344 180.948C162.771 181.099 163.324 181.199 163.601 181.199C164.053 181.199 165.587 181.677 166.089 181.978C166.24 182.054 167.045 182.356 167.899 182.607C168.779 182.858 169.483 183.16 169.483 183.261C169.483 183.386 169.81 183.462 170.212 183.462C170.639 183.462 171.042 183.562 171.117 183.713C171.192 183.839 171.72 183.964 172.248 183.964C172.776 183.964 173.304 184.065 173.38 184.216C173.455 184.342 173.857 184.467 174.259 184.467C175.114 184.467 177.603 185.071 179.564 185.749C180.318 186.001 181.147 186.227 181.374 186.227C181.6 186.227 181.801 186.327 181.801 186.478C181.801 186.604 182.178 186.73 182.656 186.73C183.133 186.73 183.586 186.83 183.686 186.981C183.888 187.308 184.566 187.006 184.566 186.579C184.566 186.378 184.315 186.227 183.988 186.227C183.661 186.227 182.203 185.825 180.72 185.347C179.237 184.869 177.829 184.467 177.578 184.467C177.326 184.467 177.025 184.367 176.899 184.241C176.748 184.115 176.145 183.964 175.516 183.889C173.581 183.663 169.709 182.733 169.382 182.431C169.232 182.305 168.93 182.205 168.679 182.205C168.427 182.205 168.226 182.079 168.226 181.953C168.226 181.803 168 181.702 167.723 181.702C167.447 181.702 167.019 181.601 166.768 181.476C165.888 180.998 161.816 179.942 159.226 179.515C158.774 179.439 158.347 179.289 158.271 179.163C158.095 178.861 156.159 178.861 156.159 179.163Z" fill="#161616"/>
<path d="M154.777 183.211C154.701 183.362 154.902 183.462 155.254 183.462C155.606 183.462 155.958 183.563 156.034 183.714C156.109 183.839 156.511 183.965 156.939 183.965C157.341 183.965 157.668 184.066 157.668 184.216C157.668 184.342 157.944 184.468 158.296 184.468C158.849 184.468 159.704 184.694 163.45 185.775C163.927 185.901 164.757 186.077 165.285 186.152C165.788 186.228 166.215 186.378 166.215 186.504C166.215 186.63 166.667 186.73 167.195 186.73C167.748 186.73 168.276 186.831 168.352 186.982C168.427 187.107 168.779 187.233 169.106 187.233C169.458 187.233 170.815 187.51 172.148 187.862C173.48 188.213 174.837 188.49 175.164 188.49C175.466 188.49 175.818 188.591 175.893 188.741C175.969 188.867 176.371 188.993 176.773 188.993C177.175 188.993 177.754 189.093 178.08 189.219C178.885 189.521 182.354 190.451 183.158 190.551C183.41 190.602 183.686 190.501 183.737 190.35C183.862 190.023 183.334 189.747 181.927 189.47C179.74 189.043 179.388 188.942 178.91 188.741C178.633 188.641 177.728 188.389 176.899 188.239C176.069 188.063 174.938 187.836 174.385 187.686C173.832 187.56 172.927 187.384 172.374 187.308C171.821 187.233 171.268 187.082 171.142 186.957C170.991 186.831 170.488 186.73 169.986 186.73C169.483 186.73 168.98 186.63 168.829 186.504C168.704 186.378 168.151 186.228 167.598 186.152C166.667 186.052 164.983 185.624 162.695 184.945C162.218 184.795 161.439 184.619 161.011 184.543C160.559 184.468 160.182 184.317 160.182 184.216C160.182 184.116 159.754 183.965 159.251 183.89C158.724 183.814 157.617 183.588 156.788 183.362C154.978 182.884 154.978 182.884 154.777 183.211Z" fill="#161616"/>
<path d="M16.9657 146.961C16.6389 147.238 16.3875 147.741 16.3875 148.118C16.3875 148.47 16.2869 148.771 16.1361 148.771C16.0104 148.771 15.8847 148.998 15.8847 149.274C15.8847 149.526 15.7842 150.003 15.6585 150.33C14.1753 154.126 13.6222 155.785 13.6222 156.388C13.6222 156.615 13.5217 156.816 13.3709 156.816C13.2452 156.816 13.1195 157.193 13.1195 157.645C13.1195 158.123 13.0441 158.575 12.9435 158.651C12.8681 158.751 12.5161 159.807 12.1893 161.014C11.8625 162.246 11.4603 163.628 11.3346 164.106C11.1838 164.584 11.0078 165.363 10.9324 165.79C10.857 166.243 10.7061 166.62 10.5805 166.62C10.4548 166.62 10.3542 166.846 10.3542 167.123C10.3542 167.374 10.2537 167.852 10.128 168.178C10.0023 168.505 9.7006 169.486 9.44921 170.391C9.22296 171.296 8.9213 172.125 8.7956 172.276C8.69505 172.402 8.59449 172.754 8.59449 173.055C8.59449 173.382 8.49394 173.709 8.34311 173.784C8.21741 173.86 8.09172 174.162 8.09172 174.438C8.09172 174.689 7.99116 175.117 7.86547 175.368C7.41297 176.198 6.33201 179.893 6.33201 180.522C6.33201 180.874 6.18117 181.2 6.03034 181.276C5.80409 181.351 5.87951 181.552 6.25659 181.955C6.7845 182.508 8.72019 183.061 11.2341 183.387C11.7871 183.463 12.3402 183.614 12.4659 183.739C12.6167 183.865 13.1446 183.966 13.6725 183.966C14.2004 183.966 14.6278 184.066 14.6278 184.192C14.6278 184.318 15.1054 184.468 15.7088 184.544C20.108 185.047 22.3202 185.373 27.1972 186.253C27.9513 186.379 29.0323 186.555 29.5853 186.63C30.1384 186.731 30.6915 186.882 30.8171 187.007C30.968 187.133 31.3702 187.234 31.7473 187.234C32.0992 187.234 33.5321 187.51 34.9399 187.862C36.3477 188.214 37.7554 188.491 38.1074 188.491C38.4593 188.491 38.8113 188.591 38.8867 188.742C38.9621 188.868 39.49 188.993 40.0431 188.993C40.571 188.993 41.0235 189.094 41.0235 189.245C41.0235 189.37 41.4508 189.496 41.9787 189.496C42.5067 189.496 43.0346 189.597 43.1603 189.722C43.3111 189.848 43.9144 189.999 44.5429 190.074C45.1714 190.15 46.5791 190.401 47.6852 190.627C48.7913 190.854 50.0986 191.08 50.5762 191.155C51.0538 191.231 51.6823 191.382 51.9588 191.507C52.2354 191.633 53.0901 191.809 53.8442 191.884C54.5984 191.96 56.0816 192.136 57.1123 192.261C58.143 192.412 59.9781 192.588 61.1847 192.664L63.3467 192.814L63.8243 191.708C64.1008 191.13 64.4528 189.898 64.6288 188.993C65.031 186.907 65.2069 186.203 66.2879 182.86C66.7655 181.326 67.1678 179.843 67.1678 179.516C67.1678 179.189 67.2935 178.938 67.4192 178.938C67.57 178.938 67.6705 178.561 67.6705 178.083C67.6705 177.606 67.7962 177.128 67.9219 177.052C68.0476 176.977 68.1733 176.525 68.1733 176.047C68.1733 175.569 68.2739 175.142 68.3996 175.066C68.5253 174.991 68.6761 174.564 68.7515 174.111C69.0532 172.352 69.5308 170.642 69.7319 170.642C69.8325 170.642 69.933 170.315 69.933 169.913C69.933 169.486 70.0587 169.083 70.1844 169.008C70.3353 168.933 70.4358 168.581 70.4358 168.254C70.4358 167.927 70.5615 167.575 70.6872 167.5C70.838 167.424 70.9386 167.123 70.9386 166.846C70.9386 166.595 71.0391 166.167 71.19 165.916C71.3157 165.69 71.5419 164.91 71.6927 164.232C71.8436 163.528 72.095 162.472 72.2207 161.844C72.4972 160.662 72.8743 158.249 73.1005 156.263C73.2513 155.157 73.2011 155.056 72.6229 154.93C72.2709 154.83 71.743 154.83 71.4665 154.93C71.1648 155.006 70.5615 154.981 70.1341 154.83C69.6816 154.704 68.3996 154.402 67.2935 154.176C66.1874 153.95 65.0813 153.648 64.855 153.523C64.6036 153.397 64.0003 153.296 63.5227 153.296C63.045 153.296 62.6428 153.171 62.6428 153.045C62.6428 152.894 62.3663 152.794 62.0143 152.794C61.6624 152.794 61.1847 152.693 60.9334 152.542C60.7071 152.416 58.9725 152.039 57.1123 151.687C52.4867 150.833 51.984 150.757 49.9477 150.632C48.9925 150.556 47.9618 150.405 47.6852 150.28C47.4087 150.154 45.8753 150.003 44.2915 149.928C41.476 149.802 40.2944 149.702 33.6075 148.872C31.8227 148.671 29.7865 148.419 29.0826 148.344C28.4038 148.269 27.7251 148.118 27.5994 147.992C27.4486 147.866 26.8201 147.766 26.1665 147.766C25.5129 147.766 24.8844 147.64 24.809 147.514C24.7336 147.364 24.1554 147.263 23.5269 147.263C22.8984 147.263 22.1946 147.162 21.9683 147.037C21.7169 146.911 20.636 146.735 19.5298 146.635C17.745 146.484 17.4433 146.509 16.9657 146.961ZM19.3036 147.992C19.4293 148.118 20.108 148.269 20.7868 148.344C21.4907 148.419 23.3509 148.671 24.9347 148.897C29.9373 149.626 31.2948 149.802 33.2305 149.928C34.2612 150.003 35.2164 150.179 35.3421 150.305C35.493 150.431 36.2974 150.531 37.1772 150.531C38.032 150.531 39.2386 150.632 39.8168 150.782C40.4201 150.908 42.4815 151.16 44.4172 151.31C50.0734 151.788 52.1097 151.989 53.7185 152.291C54.5481 152.442 55.7548 152.643 56.4335 152.718C57.0871 152.768 57.615 152.944 57.615 153.045C57.615 153.146 58.143 153.296 58.8217 153.372C59.4753 153.422 61.1847 153.799 62.6428 154.176C64.1008 154.553 65.6594 154.905 66.1119 154.981C66.5393 155.056 66.9164 155.207 66.9164 155.307C66.9164 155.509 68.123 155.71 70.7626 155.961L72.2207 156.112L72.095 156.891C71.4916 160.662 71.3408 161.492 71.1397 161.718C71.0391 161.844 70.9386 162.371 70.9386 162.899C70.9386 163.427 70.838 163.855 70.6872 163.855C70.5615 163.855 70.4358 164.257 70.4358 164.734C70.4358 165.212 70.3353 165.614 70.1844 165.614C70.0587 165.614 69.933 165.866 69.933 166.167C69.933 166.469 69.7822 167.173 69.5811 167.751C69.38 168.304 69.0783 169.259 68.9023 169.888C68.7264 170.516 68.5001 171.12 68.3744 171.271C68.2739 171.396 68.1733 171.798 68.1733 172.176C68.1733 172.553 68.0728 172.955 67.9219 173.03C67.7962 173.106 67.6705 173.458 67.6705 173.81C67.6705 174.136 67.57 174.614 67.4443 174.865C67.2935 175.092 67.0169 176.198 66.7655 177.304C66.5393 178.41 66.2376 179.416 66.1119 179.566C66.0114 179.692 65.9108 180.119 65.9108 180.496C65.9108 180.874 65.8103 181.2 65.6594 181.2C65.5338 181.2 65.4081 181.477 65.4081 181.829C65.4081 182.181 65.3075 182.658 65.1818 182.91C65.0561 183.136 64.6539 184.468 64.2768 185.851C63.9249 187.234 63.4975 188.717 63.3718 189.144C63.2461 189.572 63.1456 190.2 63.1456 190.552C63.1456 191.356 62.6177 191.809 61.8384 191.658C61.5367 191.583 60.1792 191.407 58.872 191.256C55.8553 190.929 51.808 190.351 50.2745 189.999C49.5958 189.873 48.54 189.622 47.8864 189.471C47.2076 189.345 46.1266 189.119 45.4228 188.993C42.3558 188.44 41.1743 188.214 40.9983 188.114C40.8978 188.038 40.219 187.862 39.4649 187.711C38.7358 187.56 37.68 187.334 37.127 187.183C34.9399 186.681 32.5517 186.153 29.2083 185.499C27.7502 185.197 26.2168 184.845 25.7894 184.72C25.362 184.569 24.3313 184.468 23.4766 184.468C22.5968 184.468 21.918 184.368 21.918 184.217C21.918 184.066 21.3398 183.966 20.636 183.966C19.9069 183.966 18.9265 183.865 18.4237 183.714C17.1417 183.387 12.1642 182.407 11.033 182.256C10.5302 182.206 10.0274 182.055 9.95199 181.929C9.87657 181.804 9.49949 181.703 9.09727 181.703C8.69505 181.703 8.06658 181.577 7.71464 181.401C7.21186 181.175 7.08617 180.999 7.21186 180.597C7.31242 180.295 7.43811 179.692 7.51353 179.24C7.58894 178.812 7.73978 178.435 7.86547 178.435C7.99116 178.435 8.09172 178.159 8.09172 177.807C8.09172 177.455 8.19227 176.977 8.31797 176.726C8.72019 175.997 9.85143 172.251 9.85143 171.673C9.85143 171.396 9.97712 171.145 10.1028 171.145C10.2537 171.145 10.3542 170.919 10.3542 170.642C10.3542 170.366 10.4548 169.938 10.5805 169.687C10.7061 169.461 10.9575 168.757 11.1084 168.128C11.2843 167.5 11.586 166.519 11.762 165.916C11.9631 165.338 12.1139 164.634 12.1139 164.357C12.1139 164.106 12.2396 163.804 12.3653 163.729C12.5161 163.654 12.6167 163.302 12.6167 162.975C12.6167 162.648 12.7424 162.296 12.8681 162.221C13.0189 162.145 13.1195 161.693 13.1195 161.215C13.1195 160.737 13.2452 160.285 13.3709 160.209C13.5217 160.134 13.6222 159.656 13.6222 159.179C13.6222 158.701 13.7479 158.324 13.8736 158.324C14.0245 158.324 14.125 158.073 14.125 157.746C14.125 157.268 14.6781 155.106 15.2563 153.347C15.3568 153.045 15.5328 152.794 15.6585 152.794C15.7842 152.794 15.8847 152.567 15.8847 152.291C15.8847 152.014 16.0104 151.788 16.1361 151.788C16.2869 151.788 16.3875 151.562 16.3875 151.31C16.3875 151.034 16.6892 150.129 17.0411 149.299C17.6193 147.967 17.7953 147.766 18.3735 147.766C18.7505 147.766 19.1528 147.866 19.3036 147.992Z" fill="#161616"/>
<path d="M51.582 157.871C51.582 158.751 50.4508 163.376 50.0486 164.155C49.9229 164.407 49.8223 164.935 49.8223 165.362C49.8223 165.764 49.7217 166.116 49.5709 166.116C49.4452 166.116 49.3195 166.342 49.3195 166.619C49.3195 167.247 48.1129 171.848 47.7861 172.451C47.6604 172.703 47.5598 173.13 47.5598 173.406C47.5598 173.683 47.4593 174.11 47.3336 174.362C46.9816 175.015 45.2973 180.546 45.2973 181.024C45.2973 181.25 45.1968 181.501 45.0459 181.577C44.9202 181.652 44.7946 182.004 44.7946 182.356C44.7946 182.683 44.694 182.959 44.5432 182.959C44.4175 182.959 44.2918 183.286 44.2918 183.713C44.2918 184.543 44.4175 184.618 44.8951 184.141C45.2471 183.814 46.5543 179.993 46.5543 179.314C46.5543 179.113 46.68 178.937 46.8057 178.937C46.9565 178.937 47.057 178.66 47.057 178.309C47.057 177.957 47.1576 177.479 47.2833 177.228C47.409 177.001 47.8363 175.619 48.1883 174.161C48.5654 172.703 48.9676 171.27 49.0933 170.943C49.219 170.616 49.3195 170.038 49.3195 169.636C49.3195 169.208 49.4452 168.881 49.5709 168.881C49.7217 168.881 49.8223 168.429 49.8223 167.901C49.8223 167.348 49.9229 166.845 50.0486 166.77C50.1742 166.694 50.3251 166.267 50.4005 165.815C50.4508 165.362 50.7524 164.08 51.0541 162.999C51.3306 161.893 51.582 160.762 51.582 160.435C51.582 160.108 51.7077 159.781 51.8334 159.706C51.9842 159.63 52.0848 159.052 52.0848 158.424C52.0848 157.82 51.9842 157.318 51.8334 157.318C51.7077 157.318 51.582 157.569 51.582 157.871Z" fill="#161616"/>
<path d="M66.4396 159.882C66.4396 160.284 66.3139 160.586 66.1631 160.586C66.0374 160.586 65.9117 160.913 65.9117 161.315C65.9117 161.742 65.8111 162.145 65.6603 162.22C65.5346 162.296 65.4089 162.698 65.4089 163.125C65.4089 163.527 65.3083 163.854 65.1575 163.854C65.0318 163.854 64.9061 164.206 64.9061 164.608C64.9061 165.036 64.8056 165.564 64.6799 165.815C64.3279 166.469 63.6492 168.781 63.6492 169.36C63.6492 169.636 63.5486 169.938 63.3978 170.013C63.2721 170.089 63.1464 170.44 63.1464 170.767C63.1464 171.094 63.0458 171.446 62.895 171.521C62.7693 171.597 62.6436 171.999 62.6436 172.401C62.6436 172.804 62.5431 173.206 62.3922 173.281C62.2665 173.357 62.1409 173.759 62.1409 174.161C62.1409 174.563 62.0403 174.94 61.9146 175.016C61.7889 175.116 61.6129 175.619 61.5124 176.172C61.4118 176.725 61.2359 177.228 61.1102 177.329C60.9845 177.404 60.8839 177.731 60.8839 178.058C60.8839 178.384 60.7834 178.736 60.6325 178.812C60.5068 178.887 60.3811 179.239 60.3811 179.566C60.3811 179.893 60.2806 180.245 60.1298 180.32C60.0041 180.395 59.8784 180.697 59.8784 180.974C59.8784 181.225 59.7778 181.652 59.6521 181.904C59.3253 182.507 58.6214 184.87 58.6214 185.373C58.6214 185.7 58.6968 185.725 58.9985 185.473C59.1996 185.297 59.3756 184.946 59.3756 184.694C59.3756 184.443 59.5013 184.166 59.627 184.091C59.7778 184.015 59.8784 183.613 59.8784 183.211C59.8784 182.809 60.0041 182.407 60.1298 182.331C60.2806 182.256 60.3811 181.853 60.3811 181.476C60.3811 181.099 60.4817 180.697 60.5823 180.571C60.7079 180.421 61.0096 179.641 61.2359 178.812C61.4621 177.982 61.7638 177.102 61.9146 176.876C62.0403 176.625 62.1409 176.147 62.1409 175.795C62.1409 175.443 62.2665 175.167 62.3922 175.167C62.5431 175.167 62.6436 174.89 62.6436 174.563C62.6436 174.211 62.7693 173.859 62.895 173.784C63.0458 173.709 63.1464 173.357 63.1464 173.005C63.1464 172.678 63.247 172.2 63.3727 171.949C63.4983 171.723 63.8 170.792 64.0263 169.887C64.2525 168.982 64.5542 168.052 64.6799 167.826C64.8056 167.575 64.9061 167.097 64.9061 166.745C64.9061 166.393 65.0318 166.117 65.1575 166.117C65.3083 166.117 65.4089 165.79 65.4089 165.362C65.4089 164.96 65.5094 164.382 65.6351 164.055C66.2133 162.572 66.691 160.561 66.5904 159.907L66.4899 159.203L66.4396 159.882Z" fill="#161616"/>
<path d="M57.0363 160.511C56.8854 161.692 55.8799 165.589 55.5782 166.167C55.4525 166.418 55.352 166.896 55.352 167.248C55.352 167.6 55.2514 167.876 55.1006 167.876C54.9749 167.876 54.8492 168.228 54.8492 168.631C54.8492 169.058 54.7487 169.586 54.623 169.837C54.4973 170.063 54.271 170.717 54.1202 171.27C53.3912 174.136 53.0141 175.343 52.813 175.72C52.6873 175.971 52.5867 176.398 52.5867 176.65C52.5867 176.926 52.4862 177.228 52.3353 177.303C52.2096 177.379 52.0839 177.781 52.0839 178.208C52.0839 178.611 51.9834 178.937 51.8326 178.937C51.7069 178.937 51.5812 179.164 51.5812 179.44C51.5812 179.717 51.3046 180.773 50.9527 181.803C50.2488 183.94 50.1483 184.77 50.6762 184.568C51.1287 184.393 51.5812 183.362 51.5812 182.457C51.5812 182.055 51.7069 181.652 51.8326 181.577C51.9834 181.502 52.0839 181.15 52.0839 180.823C52.0839 180.496 52.2096 180.144 52.3353 180.069C52.4862 179.993 52.5867 179.591 52.5867 179.164C52.5867 178.761 52.6873 178.435 52.813 178.435C52.9387 178.435 53.0895 178.133 53.1649 177.731C53.2403 177.354 53.4917 176.373 53.718 175.544C53.9694 174.714 54.1956 173.658 54.271 173.206C54.3464 172.753 54.4973 172.326 54.623 172.25C54.7487 172.175 54.8492 171.723 54.8492 171.245C54.8492 170.767 54.9749 170.39 55.1006 170.39C55.2514 170.39 55.352 170.189 55.352 169.913C55.352 169.661 55.7039 168.103 56.1313 166.469C56.5838 164.835 56.986 162.999 57.0363 162.396C57.1117 161.818 57.2625 161.34 57.3882 161.34C57.5139 161.34 57.6145 160.938 57.6145 160.46C57.6145 159.279 57.1871 159.329 57.0363 160.511Z" fill="#161616"/>
<path d="M62.3408 159.832C61.9134 160.988 61.6117 162.12 61.4861 163.175C61.3855 163.829 61.2095 164.432 61.109 164.508C60.9833 164.583 60.8827 164.96 60.8827 165.362C60.8827 165.765 60.7822 166.142 60.6565 166.217C60.5308 166.293 60.38 166.72 60.3045 167.172C60.0783 168.53 59.852 169.485 59.6258 170.013C59.5001 170.29 59.3493 170.792 59.299 171.144C59.2236 171.496 58.9973 172.452 58.7459 173.281C58.5197 174.111 58.2432 175.091 58.1929 175.468C58.1175 175.87 57.9666 176.172 57.8409 176.172C57.7152 176.172 57.6147 176.499 57.6147 176.926C57.6147 177.329 57.5141 177.68 57.3633 177.68C57.2376 177.68 57.1119 177.882 57.1119 178.108C57.1119 178.585 55.9555 182.105 55.6036 182.758C55.4528 183.01 55.3522 183.387 55.3522 183.588C55.3522 183.789 55.2516 183.965 55.1008 183.965C54.9751 183.965 54.8494 184.191 54.8494 184.468C54.8494 184.744 54.95 184.971 55.0757 184.971C55.3271 184.971 56.6091 182.18 56.6091 181.602C56.6091 181.376 56.7348 181.2 56.8605 181.2C57.0114 181.2 57.1119 180.873 57.1119 180.471C57.1119 180.044 57.2376 179.641 57.3633 179.566C57.5141 179.49 57.6147 179.189 57.6147 178.912C57.6147 178.661 57.7152 178.234 57.8409 177.982C58.5448 176.625 59.3744 173.859 59.3744 172.929C59.3744 172.628 59.5001 172.401 59.6258 172.401C59.7766 172.401 59.8772 172.024 59.8772 171.547C59.8772 171.069 59.9777 170.616 60.1034 170.541C60.2291 170.466 60.38 170.038 60.4554 169.586C60.5308 169.133 60.7068 168.304 60.8576 167.751C60.9833 167.198 61.2849 166.016 61.5112 165.111C61.7374 164.206 61.9888 163.025 62.0642 162.472C62.1397 161.918 62.3156 161.391 62.4413 161.315C62.567 161.24 62.6424 160.787 62.5922 160.31C62.5419 159.832 62.4413 159.606 62.3408 159.832Z" fill="#161616"/>
<path d="M114.542 87.9113H104.14L101.168 89.3973L99.1864 95.3413L92.8413 115.084L94.2554 131.299H114.146L127.421 108.22L130.393 131.006H152.187C152.187 131.006 152.626 134.232 153.673 135.959C154.666 137.596 155.474 138.483 157.141 139.426C159.355 140.68 161.039 140.55 163.58 140.417C165.97 140.292 167.344 139.917 169.524 138.931C172.168 137.735 173.164 136.237 175.468 134.473C177.219 133.132 179.926 131.006 179.926 131.006L180.917 130.51L202.216 129.52C202.216 129.52 203.229 103.827 202.216 87.4159C201.918 82.5737 202.216 80.4812 201.226 75.0325C200.235 69.5838 200.297 69.5515 198.749 64.1351C198.749 64.1351 195.381 54.7838 192.31 52.247C190.774 50.9786 189.697 50.5185 187.852 49.7703C185.46 48.8008 183.981 48.5345 181.412 48.2843C179.487 48.0968 178.386 48.1203 176.459 48.2843C174.304 48.4677 171.01 49.275 171.01 49.275L171.506 51.2563L171.01 53.733L168.534 55.7144L168.038 56.2097L169.86 82.9579H168.534L164.571 83.4532L156.645 85.4346L155.72 86.2375L156.097 68.2319C156.097 68.2319 149.732 82.8348 142.776 80.9765C138.476 79.8277 134.98 72.6626 134.98 72.6626C134.98 72.6626 130.866 73.4765 128.193 73.6053C126.759 73.6744 125.908 73.9574 124.516 73.6053C122.971 73.2145 120.981 71.5651 120.981 71.5651L116.523 87.9113H114.542Z" fill="#6C27FF"/>
<path d="M185.375 121.1L180.422 130.016L183.394 123.081L200.731 85.4356L199.244 90.3889L192.805 105.744L185.375 121.1Z" fill="white"/>
<path d="M170.515 83.4542L170.98 93.684L176.459 73.0521L177.45 72.5568V73.5475L171.506 96.333H171.1L172.001 116.146L170.515 115.651L170.02 110.202L170.276 96.333L170.02 97.819H168.534L157.141 100.296L152.835 100.742L153.178 127.539H151.692V126.053L152.366 100.791L152.367 100.747L152.683 88.9029L152.833 100.632L170.276 96.333L170.515 83.4542Z" fill="white"/>
<path d="M160.113 112.679L157.636 111.688H160.113V112.679Z" fill="white"/>
<path d="M160.608 114.66L158.132 113.67L158.627 114.66H160.608Z" fill="white"/>
<path d="M128.411 83.9495L134.355 77.0148L128.411 81.9682L127.916 76.5195L127.421 75.5288V82.9589L128.411 83.9495Z" fill="white"/>
<path d="M125.935 107.23L123.953 86.4262L124.944 90.8843L126.925 106.735V107.726L125.935 107.23Z" fill="white"/>
<path d="M122.467 95.3423L120.981 93.8563L120.486 94.3516L122.963 96.333L122.467 95.3423Z" fill="white"/>
<path d="M120.486 99.305L119.495 98.8096L121.477 100.791V100.296L120.486 99.305Z" fill="white"/>
<path d="M104.635 98.8096L98.6912 100.296L99.1865 99.305L104.635 97.3236L111.57 95.8376L115.037 94.8469L116.028 94.3516V93.3609L116.523 90.8843L117.019 89.3982L117.514 88.4076L118.505 89.3982V92.3703L117.514 98.8096L115.037 110.202L114.047 118.128V120.604L113.056 121.595H112.561V118.623L113.056 111.688L114.542 104.258L115.533 96.333L112.561 96.8283L110.084 97.3236L104.635 98.8096Z" fill="white"/>
<path d="M145.844 84.9402L147.33 87.4169M172.001 73.5475L172.992 77.0148M176.459 61.6594L179.926 61.1641M178.44 64.1361H178.936M195.282 85.4356L196.768 84.9402M152.683 87.4169L156.646 85.9309L166.057 83.4542H170.515M170.515 83.4542L172.001 116.146L170.515 115.651L170.02 110.202L170.276 96.333M170.515 83.4542L170.276 96.333M152.366 100.791L151.692 126.053V127.539H153.178L152.683 88.9029L152.366 100.791ZM152.366 100.791L157.141 100.296L168.534 97.819H170.02L170.276 96.333M170.276 96.333L152.188 100.791M170.276 96.333L176.459 73.0521L177.45 72.5568V73.5475L171.506 96.333H170.276ZM200.731 85.4356L199.245 90.3889L192.805 105.744L185.375 121.1L180.422 130.016L183.394 123.081L200.731 85.4356ZM157.636 111.688L160.113 112.679V111.688H157.636ZM158.132 113.67L160.608 114.66H158.627L158.132 113.67ZM134.355 77.0148L128.411 83.9495L127.421 82.9589V75.5288L127.916 76.5195L128.411 81.9682L134.355 77.0148ZM123.953 86.4262L125.935 107.23L126.925 107.726V106.735L124.944 90.8843L123.953 86.4262ZM120.981 93.8563L122.467 95.3423L122.963 96.333L120.486 94.3516L120.981 93.8563ZM119.495 98.8096L120.486 99.305L121.477 100.296V100.791L119.495 98.8096ZM98.6912 100.296L104.635 98.8096L110.084 97.3236L112.561 96.8283L115.533 96.333L114.542 104.258L113.056 111.688L112.561 118.623V121.595H113.056L114.047 120.604V118.128L115.037 110.202L117.514 98.8096L118.505 92.3703V89.3982L117.514 88.4076L117.019 89.3982L116.523 90.8843L116.028 93.3609V94.3516L115.037 94.8469L111.57 95.8376L104.635 97.3236L99.1865 99.305L98.6912 100.296Z" stroke="white" stroke-width="0.990673"/>
</svg>
