<svg width="14" height="45" viewBox="0 0 14 45" fill="none" xmlns="http://www.w3.org/2000/svg">
<path d="M0.987853 0.750295C0.849945 0.757004 0.743587 0.874239 0.750295 1.01215L0.859616 3.25949C0.866325 3.3974 0.983559 3.50376 1.12147 3.49705C1.25938 3.49034 1.36573 3.3731 1.35903 3.2352L1.26185 1.23756L3.25949 1.14038C3.3974 1.13368 3.50376 1.01644 3.49705 0.878532C3.49034 0.740624 3.3731 0.634266 3.2352 0.640974L0.987853 0.750295ZM1 44L1.16155 44.1908C3.22469 42.4438 9.47826 37.2792 12.0868 29.7064C13.3937 25.9122 13.7859 21.5139 12.283 16.645C10.7811 11.779 7.39203 6.46145 1.16798 0.814843L1 1L0.832021 1.18516C7.00843 6.78855 10.3363 12.0335 11.8053 16.7925C13.2734 21.5486 12.8905 25.8378 11.614 29.5436C9.05569 36.9708 2.9088 42.0562 0.838449 43.8092L1 44Z" fill="#8A63E6"/>
</svg>
