<svg width="175" height="175" viewBox="0 0 175 175" fill="none" xmlns="http://www.w3.org/2000/svg">
<path d="M118.115 44.6666C117.181 45.8469 115.935 46.7419 114.518 47.2505C113.912 47.3958 113.274 47.3411 112.701 47.0947C112.128 46.8482 111.65 46.4232 111.338 45.8829C110.662 44.9207 110.376 43.7385 110.535 42.5736C110.725 41.6845 111.151 40.8629 111.768 40.1951C112.385 39.5274 113.171 39.0381 114.042 38.7788C114.353 38.6356 114.691 38.5615 115.033 38.5615C115.376 38.5615 115.714 38.6356 116.024 38.7788C116.168 38.8593 116.292 38.9709 116.387 39.1053C116.482 39.2397 116.547 39.3936 116.575 39.5558C116.603 39.7181 116.595 39.8846 116.551 40.0433C116.507 40.2021 116.429 40.3491 116.321 40.4736C116.603 40.3571 116.917 40.3461 117.206 40.4425C117.496 40.5389 117.74 40.7364 117.896 40.9986C118.035 41.2669 118.076 41.5755 118.011 41.8707C117.945 42.1658 117.778 42.4286 117.539 42.613C117.935 42.2866 118.529 42.683 118.669 43.1879C118.689 43.4598 118.65 43.7329 118.554 43.9882C118.459 44.2435 118.309 44.475 118.115 44.6666Z" fill="white"/>
<path d="M110.618 42.5159C105.616 43.9746 100.855 46.1613 96.4896 49.0057C97.8572 48.1237 95.3302 39.5557 94.8848 38.2161C94.1413 36.1245 93.195 34.1106 92.0594 32.2031C92.3511 34.2899 91.8931 36.4125 90.7671 38.1934C89.4169 40.4139 87.779 42.4461 85.8959 44.237L79.7849 50.6814C78.7909 51.755 77.4811 53.169 76.0391 53.7089C79.1376 54.6189 82.1728 55.7319 85.1251 57.0409C87.9889 58.3385 89.5946 60.7159 93.0517 60.6284C95.2587 60.5221 97.4115 59.9086 99.3429 58.8355C104.872 55.9261 109.637 51.8101 114.076 47.4115C113.515 47.3448 112.974 47.1609 112.489 46.8718C112.003 46.5826 111.584 46.1947 111.258 45.7332C110.932 45.2716 110.706 44.7467 110.596 44.1925C110.486 43.6382 110.493 43.067 110.618 42.5159Z" fill="#C9AFFF"/>
<path d="M118.61 44.8938C118.476 44.731 118.34 44.5691 118.204 44.4082C117.949 44.9919 117.491 45.4634 116.916 45.7356C116.52 45.8431 116.1 45.8204 115.719 45.6708L116.391 46.5581C116.483 46.6781 116.618 46.7576 116.768 46.7798C116.918 46.802 117.07 46.7651 117.193 46.6771L118.491 45.6857C118.61 45.5954 118.689 45.462 118.711 45.314C118.734 45.166 118.697 45.0152 118.61 44.8938Z" fill="#4B1010"/>
<path d="M112.628 39.8732C112.91 39.2607 113.654 39.0857 113.836 38.8407C113.985 38.643 113.966 38.7217 113.836 38.4645C113.742 38.3271 110.536 34.2146 110.468 34.1262L111.467 33.3868C111.566 33.3132 111.65 33.2207 111.714 33.1146C111.778 33.0084 111.82 32.8908 111.838 32.7683C111.857 32.6459 111.851 32.521 111.821 32.4009C111.791 32.2807 111.737 32.1677 111.664 32.0682L110.225 30.1248C110.076 29.924 109.854 29.7904 109.607 29.7535C109.359 29.7166 109.108 29.7793 108.907 29.928L104.518 33.1751C104.318 33.3239 104.184 33.5464 104.147 33.7937C104.11 34.0409 104.173 34.2927 104.322 34.4937L105.759 36.4371C105.908 36.6377 106.131 36.7711 106.378 36.8081C106.625 36.845 106.877 36.7824 107.078 36.634L108.228 35.7826L111.595 40.2258C111.905 40.0261 112.26 39.9051 112.628 39.8732Z" fill="#4B1010"/>
<path d="M118.374 42.1873C118.464 41.9518 118.499 41.6988 118.477 41.4476C118.454 41.1964 118.374 40.9538 118.243 40.7384C118.112 40.523 117.933 40.3406 117.72 40.2051C117.507 40.0696 117.266 39.9847 117.016 39.9569C117.058 39.6432 117.003 39.3241 116.859 39.0425C116.714 38.761 116.487 38.5304 116.207 38.3819C115.841 38.2157 115.443 38.1292 115.041 38.1282C114.639 38.1271 114.241 38.2115 113.874 38.3758C113.257 38.6398 112.687 39.0007 112.185 39.445C112.16 39.4668 112.138 39.4918 112.119 39.5194C111.531 39.6762 111.013 40.0256 110.647 40.5118C110.281 40.9979 110.088 41.5928 110.1 42.2012C105.451 43.5926 101.012 45.6093 96.9065 48.1959C96.9104 42.5322 95.3922 36.9716 92.5105 32.0959C90.4508 28.6072 88.237 22.9232 75.4262 19.8459C74.606 19.6059 73.745 19.5383 72.8974 19.6472C69.1787 20.6054 53.874 36.5925 52.6945 38.15C52.4295 38.4875 52.2554 38.8872 52.1888 39.3111C51.5702 41.867 51.6638 43.8743 52.4618 45.2786C53.4374 46.9919 55.309 47.8109 56.9855 48.4426C61.1208 50.0238 65.6279 51.2059 70.1875 52.507C71.528 52.8894 73.0812 53.9394 74.755 53.9394C76.7588 53.9394 78.4134 52.1579 79.781 50.6809L85.892 44.2365C87.7751 42.4456 89.413 40.4134 90.7632 38.1929C91.6869 36.6987 92.1661 34.9724 92.1448 33.2159C94.8301 38.031 96.1682 43.4808 96.0184 48.9921C96.016 49.072 96.0355 49.1511 96.0748 49.2207C96.1141 49.2903 96.1718 49.3478 96.2415 49.387C96.3112 49.4261 96.3904 49.4454 96.4703 49.4427C96.5502 49.4401 96.6278 49.4156 96.6948 49.3719C100.833 46.6747 105.331 44.5736 110.055 43.1305C109.994 44.1243 110.266 45.11 110.829 45.9314C111.392 46.7528 112.213 47.3628 113.161 47.6648C109.023 51.9244 104.285 55.5577 99.0975 58.45C95.0804 60.564 90.8463 61.075 87.3568 58.1131C87.313 58.0759 87.2623 58.0477 87.2076 58.03C87.1529 58.0124 87.0953 58.0057 87.038 58.0103C86.9807 58.0149 86.9249 58.0308 86.8738 58.057C86.8226 58.0832 86.7771 58.1192 86.7399 58.163C86.6647 58.2514 86.6277 58.3661 86.6371 58.4818C86.6464 58.5975 86.7014 58.7047 86.7898 58.7799C88.5217 60.2832 90.7468 61.0959 93.0399 61.0628C95.307 60.9516 97.5186 60.323 99.5053 59.2253C105.187 56.2345 110.034 51.9986 114.351 47.7208C114.374 47.6972 114.395 47.6711 114.413 47.6429C116.014 47.1636 117.43 46.2057 118.471 44.898C119.266 44.0624 119.425 42.7315 118.374 42.1873ZM116.346 41.0559C116.433 41.0183 117.053 40.4346 117.508 41.202C117.598 41.3753 117.626 41.5743 117.586 41.7656C117.547 41.9568 117.443 42.1286 117.291 42.252C117.104 42.3815 116.906 42.4937 116.698 42.5871C115.859 43.0246 115.135 43.4621 114.661 43.323C114.296 43.218 114.091 42.6694 114.873 41.9729C115.314 41.5939 115.811 41.2846 116.346 41.0559ZM115.81 39.1624C115.966 39.2495 116.081 39.3949 116.129 39.5666C116.157 39.6934 116.153 39.825 116.118 39.9499C116.082 40.0748 116.017 40.1892 115.928 40.2832C115.499 40.4742 115.091 40.7103 114.712 40.9876C114.827 40.425 114.48 39.7766 113.545 39.5237C113.86 39.2748 114.234 39.1108 114.63 39.0475C115.027 38.9842 115.433 39.0238 115.81 39.1624ZM110.924 43.4998C110.976 43.476 111.024 43.4422 111.063 43.4002C111.102 43.3582 111.133 43.3088 111.153 43.2549C111.174 43.201 111.183 43.1437 111.181 43.0861C111.179 43.0286 111.166 42.972 111.142 42.9196C110.989 42.5825 110.941 42.2074 111.003 41.8425C111.066 41.4777 111.236 41.1399 111.492 40.8726C111.748 40.6054 112.078 40.4209 112.44 40.343C112.802 40.2651 113.179 40.2973 113.522 40.4355C113.597 40.4587 113.666 40.4974 113.724 40.5491C113.783 40.6008 113.83 40.6644 113.862 40.7356C113.93 41.0489 113.06 41.4137 112.713 42.0752C112.666 42.1658 112.652 42.27 112.673 42.3699C112.695 42.4698 112.75 42.559 112.831 42.6221C113.091 42.8283 113.301 43.0916 113.444 43.3916C113.587 43.6917 113.659 44.0205 113.655 44.3529C113.653 44.4688 113.698 44.5806 113.778 44.6637C113.859 44.7469 113.97 44.7947 114.085 44.7965C114.201 44.7972 114.312 44.7525 114.396 44.672C114.479 44.5915 114.527 44.4817 114.53 44.366V44.191C114.596 44.2047 114.664 44.214 114.731 44.219C114.651 44.4066 114.612 44.6091 114.616 44.813C114.62 45.0169 114.668 45.2176 114.755 45.4018C114.843 45.586 114.968 45.7496 115.124 45.8816C115.279 46.0136 115.461 46.1111 115.657 46.1676C115.279 46.3815 114.882 46.5613 114.472 46.7049C112.736 47.3121 110.97 45.4125 110.924 43.4998ZM117.811 44.3258C117.636 44.5926 117.409 44.8213 117.144 44.9984C116.879 45.1755 116.58 45.2973 116.267 45.3565C116.124 45.3867 115.975 45.3704 115.842 45.31C115.708 45.2495 115.598 45.1481 115.527 45.0205C115.302 44.3607 116.072 43.9005 117.102 43.3667C117.764 43.0238 118.025 42.6947 118.239 43.2661C118.241 43.4622 118.204 43.6568 118.131 43.8387C118.057 44.0205 117.949 44.1861 117.811 44.3258Z" fill="#4B1010"/>
<path d="M141.985 48.0237C19.3919 48.0237 24.7557 47.9694 24.5597 48.1269C23.2979 49.3869 23.2655 49.3581 23.2655 49.6004C23.2655 132.563 23.2209 129.009 23.346 129.186L24.4065 130.681C24.4176 130.79 24.4686 130.89 24.5495 130.962C24.6303 131.035 24.7353 131.075 24.844 131.074H141.985C142.101 131.074 142.212 131.028 142.294 130.946C142.376 130.864 142.422 130.753 142.422 130.637V48.4612C142.422 48.3451 142.376 48.2339 142.294 48.1518C142.212 48.0698 142.101 48.0237 141.985 48.0237Z" fill="#4B1010"/>
<path d="M38.9215 138.595C38.8462 138.595 38.7727 138.287 38.7071 138.25L31.6633 134.257C31.5792 134.21 31.5132 134.136 31.4757 134.046C31.4382 133.957 31.4312 133.858 31.456 133.765C31.5067 133.573 31.68 133.534 31.8786 133.534C147.173 133.534 139.795 133.464 140.283 133.658L151.32 138.033C151.415 138.071 151.494 138.14 151.543 138.23C151.592 138.319 151.608 138.423 151.589 138.523C151.566 138.644 156.878 138.931 38.9215 138.595ZM39.0396 137.714H148.839L140.036 134.41H33.5428L39.0396 137.714Z" fill="#4B1010"/>
<path d="M159.902 139.714L142.152 132.334C141.489 132.058 152.887 132.159 25.1561 132.159C24.9234 132.145 24.7186 132.178 24.695 132.413L24.408 135.673C24.4011 135.751 24.4148 135.828 24.4477 135.898C24.4806 135.968 24.5315 136.028 24.5952 136.072C37.7045 145.085 36.9074 144.591 37.1077 144.591H159.808C159.923 144.591 160.034 144.545 160.116 144.464C160.198 144.383 160.244 144.273 160.246 144.158L160.296 140.156C160.297 140.046 160.258 139.94 160.185 139.858C160.112 139.777 160.011 139.725 159.902 139.714ZM37.2451 143.714L25.3014 135.494L25.4764 133.468C37.6669 141.01 36.9214 140.587 37.106 140.587H159.415L159.377 143.714H37.2451Z" fill="#4B1010"/>
<path d="M29.5625 53.5557H137.119V122.402H29.5625V53.5557Z" fill="white"/>
<path d="M147.875 137.141C147.788 137.172 152.118 137.118 37.5117 137.118L38.9213 138.156H151.158L147.875 137.141Z" fill="white"/>
<path d="M143.873 135.503H34.6641L35.9687 136.241H145.734L143.873 135.503Z" fill="white"/>
<path d="M141.664 134.627L140.125 133.971H31.8789L33.1608 134.603C33.2518 134.574 28.8628 134.627 141.664 134.627Z" fill="white"/>
<path d="M87.8178 71.6143H38.7347C38.6187 71.6143 38.5074 71.6604 38.4254 71.7424C38.3433 71.8244 38.2972 71.9357 38.2972 72.0518V111.812C38.2574 111.9 38.2373 111.995 38.2383 112.092C38.2393 112.188 38.2615 112.283 38.3032 112.37C38.3449 112.457 38.4051 112.534 38.4796 112.596C38.5542 112.657 38.6412 112.701 38.7347 112.725H87.8178C87.9339 112.725 88.0451 112.679 88.1272 112.597C88.2092 112.515 88.2553 112.404 88.2553 112.288V72.0518C88.2553 71.9357 88.2092 71.8244 88.1272 71.7424C88.0451 71.6604 87.9339 71.6143 87.8178 71.6143ZM39.1722 72.7518L62.6003 92.0219L39.1722 111.088V72.7518ZM40.2327 72.4893H86.5981L63.2933 91.4566L40.2327 72.4893ZM63.2898 92.588L86.7083 111.85H39.6228L63.2898 92.588ZM63.982 92.0236L87.3803 72.9801V111.27L63.982 92.0236Z" fill="#4B1010"/>
<path d="M120.444 106.73H100.932C99.8422 106.715 98.8025 106.271 98.0376 105.494C97.2726 104.718 96.8438 103.672 96.8438 102.583C96.8438 101.493 97.2726 100.447 98.0376 99.6705C98.8025 98.8944 99.8422 98.4504 100.932 98.4346H120.444C121.534 98.4504 122.574 98.8944 123.339 99.6705C124.104 100.447 124.533 101.493 124.533 102.583C124.533 103.672 124.104 104.718 123.339 105.494C122.574 106.271 121.534 106.715 120.444 106.73ZM100.932 99.3096C100.073 99.3236 99.2543 99.6746 98.6519 100.287C98.0496 100.899 97.712 101.724 97.712 102.583C97.712 103.441 98.0496 104.266 98.6519 104.878C99.2543 105.49 100.073 105.841 100.932 105.855H120.444C121.303 105.841 122.122 105.49 122.724 104.878C123.327 104.266 123.664 103.441 123.664 102.583C123.664 101.724 123.327 100.899 122.724 100.287C122.122 99.6746 121.303 99.3236 120.444 99.3096H100.932Z" fill="white"/>
<path d="M124.815 90.6504H97.707C97.591 90.6504 97.4797 90.6043 97.3977 90.5223C97.3156 90.4402 97.2695 90.3289 97.2695 90.2129C97.2695 90.0969 97.3156 89.9856 97.3977 89.9035C97.4797 89.8215 97.591 89.7754 97.707 89.7754H124.815C124.931 89.7754 125.042 89.8215 125.124 89.9035C125.206 89.9856 125.252 90.0969 125.252 90.2129C125.252 90.3289 125.206 90.4402 125.124 90.5223C125.042 90.6043 124.931 90.6504 124.815 90.6504Z" fill="white"/>
<path d="M115.391 86.0928H106.266C106.15 86.0928 106.038 86.0467 105.956 85.9646C105.874 85.8826 105.828 85.7713 105.828 85.6553C105.828 85.5392 105.874 85.428 105.956 85.3459C106.038 85.2639 106.15 85.2178 106.266 85.2178H115.391C115.507 85.2178 115.618 85.2639 115.7 85.3459C115.782 85.428 115.829 85.5392 115.829 85.6553C115.829 85.7713 115.782 85.8826 115.7 85.9646C115.618 86.0467 115.507 86.0928 115.391 86.0928Z" fill="white"/>
<path d="M122.528 81.5254H98.8477C98.7316 81.5254 98.6204 81.4793 98.5383 81.3973C98.4563 81.3152 98.4102 81.2039 98.4102 81.0879C98.4102 80.9719 98.4563 80.8606 98.5383 80.7785C98.6204 80.6965 98.7316 80.6504 98.8477 80.6504H122.528C122.644 80.6504 122.755 80.6965 122.837 80.7785C122.919 80.8606 122.965 80.9719 122.965 81.0879C122.965 81.2039 122.919 81.3152 122.837 81.3973C122.755 81.4793 122.644 81.5254 122.528 81.5254Z" fill="white"/>
<path d="M128.994 66.0198H38.5352C38.4191 66.0198 38.3078 65.9737 38.2258 65.8916C38.1437 65.8096 38.0977 65.6983 38.0977 65.5823V61.3018C38.0977 61.1857 38.1437 61.0744 38.2258 60.9924C38.3078 60.9104 38.4191 60.8643 38.5352 60.8643H128.994C129.11 60.8643 129.221 60.9104 129.303 60.9924C129.385 61.0744 129.431 61.1857 129.431 61.3018V65.5823C129.431 65.6983 129.385 65.8096 129.303 65.8916C129.221 65.9737 129.11 66.0198 128.994 66.0198ZM38.9727 65.1448H128.556V61.7393H38.9727V65.1448Z" fill="white"/>
<path d="M47.6953 57.1207L49.7971 42.1494L98.1189 48.9315L96.0181 63.9037L47.6953 57.1207Z" fill="white"/>
<path d="M98.4678 48.667C98.3042 48.4482 101.705 49.1482 49.8581 41.7151C49.7645 41.7022 49.6692 41.7195 49.5861 41.7645C49.503 41.8095 49.4364 41.8799 49.3961 41.9654C49.3462 42.073 47.4912 55.457 47.262 57.06C47.246 57.1749 47.2763 57.2914 47.3462 57.3839C47.4161 57.4764 47.5199 57.5374 47.6347 57.5535C97.7722 64.508 95.9347 64.3409 96.0222 64.3409C96.1284 64.3419 96.2313 64.3043 96.3118 64.2351C96.3923 64.1659 96.4449 64.0697 96.4597 63.9646L98.5597 48.9916C98.5667 48.9341 98.5621 48.8758 98.5463 48.8201C98.5306 48.7644 98.5039 48.7123 98.4678 48.667ZM48.2227 56.5061L50.1477 42.7984L71.5852 52.8127L48.2227 56.5061ZM73.0019 53.4751L93.6755 63.1325L50.3647 57.0504L73.0019 53.4751ZM52.6144 42.9856L95.5935 49.0179L73.1305 52.5695L52.6144 42.9856ZM95.6871 63.1106L74.5471 53.231L97.5841 49.5892L95.6871 63.1106Z" fill="#4B1010"/>
<path d="M60.9062 45.0103L79.7117 31.5703L101.977 62.7256L83.1706 76.1656L60.9062 45.0103Z" fill="white"/>
<path d="M80.0653 31.3159C80.0319 31.2689 79.9895 31.2289 79.9405 31.1983C79.8916 31.1678 79.8371 31.1472 79.7802 31.1377C79.7232 31.1283 79.665 31.1302 79.6088 31.1434C79.5526 31.1565 79.4996 31.1807 79.4528 31.2144L60.9457 44.4453C60.8531 44.4495 60.7643 44.4829 60.692 44.5408C60.6196 44.5986 60.5675 44.6779 60.5432 44.7673C60.2921 45.1471 59.6201 44.0367 82.8154 76.4204C82.8489 76.4675 82.8913 76.5075 82.9402 76.538C82.9891 76.5686 83.0436 76.5892 83.1006 76.5987C83.1575 76.6081 83.2157 76.6062 83.2719 76.593C83.3281 76.5798 83.3811 76.5557 83.4279 76.5219C97.9792 66.1095 101.386 63.7233 102.177 63.0959C102.548 62.8002 102.458 62.7066 102.296 62.4519C101.611 61.3739 97.9687 56.3278 80.0653 31.3159ZM81.0278 53.1358L61.9187 44.8233L79.4528 32.2977L81.0278 53.1358ZM81.1031 54.1228L82.6728 74.7151L62.0228 45.8191L81.1031 54.1228ZM82.0104 54.5174L101.092 62.8194L83.5916 75.3249L82.0104 54.5174ZM81.9352 53.5313L80.4013 33.2856L100.701 61.6951L81.9352 53.5313Z" fill="#4B1010"/>
<path d="M67.25 47.7748C67.5932 49.3043 68.0131 50.8156 68.5082 52.3029C68.5328 52.4799 68.595 52.6496 68.6907 52.8006C68.7864 52.9515 68.9134 53.0802 69.063 53.1779C69.1141 53.2002 69.1703 53.2081 69.2256 53.201C69.2809 53.1938 69.3332 53.1717 69.377 53.1371C69.4207 53.1026 69.4543 53.0568 69.474 53.0046C69.4938 52.9525 69.499 52.8959 69.4891 52.841C69.5468 52.3479 69.4997 51.8482 69.3509 51.3745C70.211 53.9785 70.1559 53.9024 70.3615 54.1492C70.4266 54.2262 70.5141 54.281 70.6119 54.3058C70.7096 54.3306 70.8127 54.3242 70.9066 54.2874C71.1341 54.1684 71.1525 53.8499 71.1341 53.5944C71.0839 52.894 70.9509 52.202 70.7378 51.5329C71.8026 53.4675 71.6486 54.2104 72.353 54.486C72.4165 54.5065 72.4853 54.5038 72.547 54.4783C72.6087 54.4528 72.6593 54.4062 72.6899 54.3469C72.7926 54.1216 72.8416 53.8754 72.8329 53.6279C72.8243 53.3804 72.7582 53.1383 72.64 52.9207L72.0275 51.2258C72.7511 51.8383 72.7511 53.0099 73.4441 53.6434C73.4813 53.701 73.5336 53.7473 73.5954 53.7771C73.6571 53.8069 73.7259 53.819 73.7941 53.8123C74.5186 53.7362 73.7941 50.9388 73.7066 50.5625C73.5134 48.9918 72.7563 47.5446 71.576 46.4903C71.3082 46.2549 70.9965 46.0747 70.659 45.9599C70.3214 45.8451 69.9645 45.798 69.6087 45.8212C69.2529 45.8444 68.9052 45.9376 68.5855 46.0954C68.2657 46.2531 67.9802 46.4723 67.7452 46.7405C67.4667 47.0185 67.2919 47.3835 67.25 47.7748Z" fill="white"/>
<path d="M65.9516 33.7182C69.9941 32.2421 72.8073 30.8666 73.789 26.0698C74.1189 24.4554 74.776 21.1208 73.145 20.1251C71.8535 19.3376 68.399 19.9369 66.9623 20.0551C62.4052 20.4307 57.9789 21.7644 53.9729 23.9689C52.9167 24.4526 51.9848 25.1708 51.2481 26.0689C50.5387 27.2068 50.1931 28.534 50.2576 29.8734C50.4099 34.0621 52.6079 37.9059 55.3108 41.0988C58.6629 45.0626 63.3555 47.8862 67.9335 50.3126C69.1907 48.9536 70.567 47.7099 72.046 46.5964C69.7561 41.9222 68.3693 38.2857 65.9516 33.7182Z" fill="#C9AFFF"/>
<path d="M56.3293 39.1673C54.7543 36.7943 53.5196 33.8578 54.1418 30.9536C54.9091 27.3583 58.6734 25.155 61.6711 23.5721C65.062 21.7773 68.7181 20.5366 72.501 19.8971C70.9453 19.5113 68.2004 19.975 66.9526 20.0721C62.3999 20.4404 57.9765 21.7673 53.9729 23.9659C52.9167 24.4495 51.9848 25.1678 51.2481 26.0659C50.5387 27.2038 50.1931 28.531 50.2576 29.8704C50.549 37.895 58.0574 45.0131 65.2201 48.8036C61.8208 46.0227 58.8281 42.779 56.3293 39.1673Z" fill="#C9AFFF"/>
<path d="M82.9734 23.0996C84.2129 22.1814 85.5103 21.344 86.8576 20.5928C86.7386 21.6891 86.7386 22.7952 86.8576 23.8915C86.9643 24.4241 86.9231 24.9758 86.7386 25.4866C86.4968 25.8777 86.1564 26.1982 85.7516 26.4159C85.4223 26.6431 85.0573 26.8138 84.6718 26.9208C84.4218 26.973 84.1631 26.9653 83.9167 26.8982C83.6703 26.8311 83.4433 26.7066 83.2543 26.5349C82.4318 25.8909 81.7878 24.7516 82.2638 23.8495C82.4517 23.5576 82.6923 23.3033 82.9734 23.0996Z" fill="white"/>
<path d="M85.319 21.7158C84.448 22.7589 83.9931 24.087 84.0415 25.4451C84.0263 25.5369 84.0164 25.6295 84.0117 25.7224C84.0407 26.0246 84.1658 26.3095 84.3687 26.5353C84.8255 26.9781 85.3951 26.6709 85.8711 26.3131C85.2146 24.875 85.0217 23.2684 85.319 21.7158Z" fill="#6C27FF"/>
<path d="M85.6913 25.888C85.0341 26.35 84.8696 26.5268 84.4015 26.6248C83.4101 26.7035 82.5588 25.6334 82.4196 24.7216C82.2805 23.8099 83.1196 23.3549 83.7575 22.8894C84.2335 22.5394 84.7769 22.1561 85.3124 21.7808C85.3605 21.443 85.4253 21.1079 85.504 20.7754C84.7008 21.3336 83.908 21.919 83.1039 22.5131C82.7122 22.7688 82.3587 23.0787 82.0539 23.4336C81.0914 24.712 82.1344 26.6711 83.6989 27.2189C84.0477 27.3011 84.4114 27.2952 84.7574 27.2019C85.1033 27.1086 85.4206 26.9307 85.6808 26.6843L85.9625 26.4926C85.8621 26.2957 85.7716 26.0939 85.6913 25.888Z" fill="#4B1010"/>
<path d="M54.1824 24.3534C58.5638 21.9866 63.4267 20.6484 68.4022 20.4404C73.3777 20.2324 78.3353 21.16 82.899 23.1529C82.9235 23.1337 83.473 22.7207 83.7049 22.5544C78.9782 20.4049 73.8183 19.3782 68.6288 19.5546C63.4394 19.731 58.3611 21.1057 53.7913 23.5712C52.66 24.0919 51.6637 24.8658 50.8793 25.833C50.1217 27.0423 49.7522 28.4545 49.8205 29.8799C50.1705 39.4629 59.2075 46.1707 67.6705 50.669C67.842 51.3783 68.0559 52.0766 68.311 52.7603C68.486 53.2214 69.0539 53.8505 69.5885 53.434C69.6107 53.4155 69.6317 53.3956 69.6515 53.3745C69.6865 53.4935 69.7233 53.6125 69.7644 53.7307C69.9315 54.2067 70.2308 54.722 70.8144 54.722C71.2466 54.722 71.4208 54.3913 71.4733 54.0308C71.6771 54.4412 72.0061 54.8682 72.4883 54.8603C72.9415 54.8524 73.141 54.3283 73.1716 53.8637C73.2737 54.0023 73.4242 54.0973 73.5932 54.1298C73.7623 54.1622 73.9373 54.1297 74.0834 54.0387C74.2256 53.8948 74.3315 53.7191 74.3923 53.5262C74.4532 53.3332 74.4673 53.1286 74.4334 52.9292C74.4067 52.4052 74.3338 51.8846 74.2155 51.3734C73.9708 49.7413 73.3554 48.1869 72.4165 46.8295C72.4558 46.7668 72.4784 46.6951 72.4824 46.6212C72.4864 46.5472 72.4715 46.4735 72.4393 46.4069C70.1643 41.7169 68.7721 38.1032 66.3851 33.617L65.5565 33.9242L65.6344 34.0703C61.1946 32.2424 56.7873 35.3889 55.1904 39.7832C55.1485 39.8962 55.1103 40.0106 55.0758 40.1262C52.1769 36.5194 50.8154 33.1542 50.6955 29.8475C50.6325 28.6175 50.9437 27.3972 51.588 26.3475C52.2903 25.4946 53.1775 24.8126 54.1824 24.3534ZM73.4621 51.0995C73.637 51.6583 73.7325 52.2388 73.7456 52.8242C73.7763 54.0877 73.225 52.664 73.1944 52.5757C73.0058 51.9991 72.7025 51.4666 72.3028 51.0103C72.0648 50.8029 71.5975 51.0103 71.7183 51.3472C72.0424 52.0947 72.3074 52.8665 72.511 53.6554C72.511 54.1909 72.5626 54.1629 72.3133 54.0124C71.7734 53.1943 71.9694 52.9362 71.0944 51.3874C71.0494 51.3201 70.9825 51.2704 70.905 51.2469C70.8276 51.2233 70.7443 51.2274 70.6695 51.2584C70.5947 51.2893 70.5329 51.3453 70.4947 51.4167C70.4565 51.4881 70.4443 51.5705 70.46 51.6499C70.6759 52.3011 70.806 52.9776 70.8468 53.6624C70.8468 53.8112 70.8468 54.078 70.6718 53.9302C70.4968 53.7823 70.4968 53.5434 70.4434 53.3947C70.39 53.2459 69.7434 51.3043 69.7434 51.3043C69.7079 51.2295 69.6471 51.1698 69.5718 51.1356C69.4964 51.1014 69.4114 51.095 69.3318 51.1176C69.2522 51.1401 69.1832 51.1902 69.1369 51.2588C69.0907 51.3274 69.0703 51.4102 69.0793 51.4924C69.209 51.9393 69.2594 52.4054 69.228 52.8697C68.9221 52.3335 68.7175 51.7456 68.6243 51.1354C68.5569 50.9035 68.4913 50.6699 68.4248 50.4354C69.503 49.2856 70.6681 48.2204 71.9099 47.2495C72.2018 47.5639 72.4385 47.9255 72.6099 48.3188C73.0007 49.2096 73.2867 50.1427 73.4621 51.0995ZM71.496 46.4708C70.1943 47.4749 68.9729 48.579 67.8429 49.773C60.0983 45.6404 61.3434 45.5407 60.9006 45.2677C60.9521 44.4356 61.1834 43.6247 61.5786 42.8907C61.9738 42.1567 62.5234 41.5171 63.1896 41.016C63.9055 40.3438 64.7494 39.8227 65.6711 39.4839C66.5117 39.1906 67.4253 39.1814 68.2716 39.4577C68.591 40.1489 70.6499 44.712 71.496 46.4673V46.4708ZM56.0085 40.0833C56.7267 37.9881 58.1905 36.2304 60.121 35.1448C61.0655 34.6375 62.1276 34.3898 63.199 34.427C64.2704 34.4642 65.3128 34.785 66.2198 35.3565C66.2515 35.377 66.286 35.3929 66.3221 35.4038C66.832 36.4086 67.3247 37.422 67.8 38.4435C66.9849 38.3113 66.1496 38.385 65.3701 38.6579C64.3496 39.0306 63.4144 39.6046 62.62 40.3458C61.9003 40.8928 61.3004 41.5818 60.8576 42.37C60.4148 43.1582 60.1385 44.0289 60.0458 44.9282C58.5177 43.7822 57.1104 42.4834 55.8458 41.0519C55.8255 40.7202 55.8824 40.3884 56.012 40.0824L56.0085 40.0833Z" fill="#4B1010"/>
<path d="M129.044 128.17C129.695 129.827 130.623 131.356 131.776 132.67C132.93 133.984 134.285 135.057 135.766 135.827C137.247 136.598 138.823 137.052 140.406 137.163C141.989 137.273 143.546 137.038 144.99 136.472C146.434 135.905 147.735 135.018 148.82 133.86C149.905 132.702 150.752 131.297 151.313 129.725C151.874 128.153 152.138 126.444 152.09 124.696C152.041 122.949 151.682 121.197 151.031 119.54C150.381 117.883 149.453 116.354 148.299 115.04C147.146 113.726 145.79 112.653 144.31 111.882C142.829 111.111 141.252 110.658 139.67 110.547C138.087 110.437 136.529 110.671 135.086 111.238C133.642 111.805 132.341 112.692 131.256 113.85C130.171 115.007 129.324 116.412 128.763 117.985C128.202 119.557 127.938 121.266 127.986 123.013C128.034 124.761 128.394 126.513 129.044 128.17Z" fill="#C9AFFF"/>
<path d="M141.155 137.637C136.222 137.637 130.966 134.268 128.636 128.333C125.818 121.151 128.636 113.301 134.926 110.833C141.527 108.24 148.751 112.541 151.438 119.381C154.963 128.37 149.626 137.637 141.155 137.637ZM138.919 110.95C131.051 110.95 126.154 119.608 129.451 128.008C132.002 134.506 138.776 138.438 144.83 136.062C150.667 133.772 153.266 126.43 150.624 119.7C148.418 114.08 143.476 110.95 138.919 110.95Z" fill="#4B1010"/>
<path d="M147.87 127.823C147.593 126.905 147.2 126.026 146.701 125.207C146.225 124.315 145.78 123.097 146.701 122.334C146.958 122.116 146.701 121.769 146.453 121.739C145.854 121.653 145.305 121.353 144.91 120.894C144.515 120.435 144.299 119.848 144.303 119.242C144.326 118.225 144.144 117.213 143.768 116.267C143.371 115.463 142.763 114.782 142.009 114.297C141.255 113.812 140.384 113.541 139.487 113.513C139.403 113.524 139.326 113.565 139.27 113.629C139.214 113.693 139.184 113.775 139.184 113.86C139.184 113.944 139.214 114.026 139.27 114.09C139.326 114.154 139.403 114.195 139.487 114.207L139.497 114.246C140.544 114.294 141.538 114.724 142.29 115.454C143.042 116.184 143.501 117.164 143.58 118.21C143.489 119.246 143.721 120.285 144.243 121.185C144.635 121.704 145.178 122.091 145.797 122.292C145.02 123.44 145.806 124.972 146.423 126.128C147.298 127.724 148.038 130.29 146.017 131.378C145.62 131.586 146.017 132.19 146.367 131.973C147.041 131.545 147.555 130.906 147.827 130.155C148.099 129.404 148.114 128.584 147.87 127.823Z" fill="#4B1010"/>
<path d="M143.344 132.65C141.124 133.432 139.748 131.094 139.144 129.35C138.714 128.106 138.094 126.617 136.736 126.388C137.048 125.719 137.118 124.963 136.935 124.248C136.561 123.341 135.961 122.546 135.191 121.939C134.476 121.181 134.062 120.189 134.025 119.148C133.989 118.107 134.332 117.088 134.992 116.282C135.28 115.945 134.794 115.449 134.507 115.787V115.816C133.914 116.524 133.526 117.382 133.386 118.296C133.246 119.21 133.36 120.144 133.715 120.998C134.146 121.838 134.739 122.585 135.459 123.197C135.931 123.61 136.233 124.183 136.306 124.806C136.379 125.428 136.218 126.056 135.854 126.567C135.656 126.843 135.974 127.111 136.241 127.072C137.45 126.903 138.056 128.234 138.351 129.162C138.619 130.012 138.981 130.83 139.431 131.6C139.828 132.297 140.445 132.844 141.184 133.156C141.924 133.468 142.746 133.526 143.523 133.323C143.941 133.175 143.76 132.499 143.344 132.65Z" fill="#4B1010"/>
<path d="M29.4123 142.626L15.1445 139.485L25.2709 117.945L39.5378 119.659L29.4123 142.626Z" fill="white"/>
<path d="M29.4115 143.063C29.324 143.063 30.136 143.238 15.0501 139.913C14.9861 139.899 14.9261 139.87 14.8745 139.83C14.8229 139.789 14.7811 139.738 14.7521 139.679C14.7231 139.62 14.7077 139.556 14.7071 139.49C14.7064 139.425 14.7204 139.36 14.7482 139.3L24.8737 117.761C24.9128 117.678 24.9771 117.609 25.0575 117.565C25.138 117.52 25.2304 117.502 25.3217 117.513L39.5895 119.227C39.6577 119.235 39.7232 119.259 39.7805 119.296C39.8379 119.334 39.8855 119.385 39.9196 119.445C39.9537 119.504 39.9732 119.571 39.9767 119.64C39.9801 119.708 39.9674 119.777 39.9395 119.839L29.8113 142.8C29.7774 142.878 29.7215 142.944 29.6505 142.991C29.5794 143.038 29.4964 143.063 29.4115 143.063ZM15.7728 139.175L29.1551 142.121L38.8982 120.023L25.5317 118.418L15.7728 139.175Z" fill="#4B1010"/>
<path d="M23.1293 132.898C23.0288 132.897 22.9314 132.862 22.8536 132.799C22.7759 132.735 22.7224 132.646 22.7023 132.548L21.8501 128.585C21.8316 128.501 21.8383 128.413 21.8694 128.333C21.9005 128.252 21.9547 128.183 22.0251 128.133C23.2535 127.241 24.5284 126.415 25.8444 125.659C25.9547 125.622 26.0749 125.631 26.1786 125.683C26.2823 125.736 26.361 125.827 26.3974 125.937C26.4339 126.047 26.425 126.168 26.3729 126.271C26.3207 126.375 26.2294 126.454 26.1192 126.49C25.8567 126.592 24.2511 127.657 22.7636 128.685L23.5511 132.36C23.566 132.424 23.5664 132.491 23.5523 132.555C23.5381 132.619 23.5097 132.679 23.4692 132.73C23.4287 132.782 23.3772 132.824 23.3183 132.853C23.2595 132.882 23.1949 132.897 23.1293 132.898Z" fill="#4B1010"/>
<path d="M23.7025 136.068C23.625 136.068 23.5489 136.047 23.482 136.008C23.4151 135.969 23.3598 135.912 23.3218 135.845C23.2838 135.777 23.2644 135.701 23.2657 135.623C23.2669 135.546 23.2887 135.47 23.3289 135.404L30.1758 124.138C30.2045 124.087 30.2432 124.042 30.2897 124.006C30.3361 123.97 30.3894 123.943 30.4462 123.928C30.5031 123.914 30.5624 123.91 30.6206 123.919C30.6787 123.927 30.7346 123.947 30.7849 123.978C30.8351 124.008 30.8787 124.049 30.913 124.096C30.9473 124.144 30.9716 124.198 30.9845 124.256C30.9974 124.313 30.9986 124.372 30.988 124.43C30.9775 124.488 30.9554 124.543 30.923 124.592L24.077 135.858C24.0379 135.922 23.9829 135.975 23.9173 136.012C23.8517 136.049 23.7777 136.068 23.7025 136.068Z" fill="#4B1010"/>
<path d="M28.4096 134.364C28.32 134.364 28.2326 134.336 28.1592 134.285C28.0858 134.234 28.0299 134.161 27.9992 134.077C27.9685 133.993 27.9643 133.901 27.9873 133.814C28.0103 133.728 28.0594 133.65 28.1279 133.592L32.4478 129.947L31.2875 127.243C31.2639 127.19 31.2511 127.132 31.2497 127.075C31.2484 127.017 31.2586 126.959 31.2797 126.905C31.3009 126.851 31.3325 126.802 31.3729 126.76C31.4132 126.718 31.4614 126.685 31.5147 126.662C31.568 126.64 31.6253 126.627 31.6833 126.627C31.7412 126.626 31.7987 126.637 31.8524 126.659C31.9061 126.681 31.9549 126.714 31.996 126.755C32.037 126.796 32.0695 126.844 32.0916 126.898L33.3787 129.9C33.4158 129.986 33.4242 130.082 33.4028 130.173C33.3813 130.264 33.3312 130.346 33.2598 130.407C28.302 134.588 28.638 134.364 28.4096 134.364Z" fill="#4B1010"/>
<path d="M50.8121 147.331L30.9767 151.899L18.7109 142.051L37.2583 138.206L50.8121 147.331Z" fill="white"/>
<path d="M30.9772 152.337C30.7427 152.337 31.5223 152.896 18.4376 142.393C18.3727 142.341 18.324 142.272 18.2971 142.193C18.2702 142.114 18.2661 142.03 18.2855 141.949C18.3049 141.868 18.3468 141.795 18.4064 141.737C18.4661 141.679 18.5409 141.64 18.6222 141.623L37.1722 137.779C37.2293 137.767 37.2882 137.766 37.3454 137.778C37.4027 137.789 37.4571 137.811 37.5056 137.844L51.0593 146.969C51.1295 147.017 51.1843 147.084 51.2169 147.162C51.2496 147.241 51.2587 147.327 51.2432 147.41C51.2277 147.494 51.1883 147.571 51.1297 147.633C51.0711 147.694 50.9959 147.737 50.9132 147.756C30.2072 152.524 31.0647 152.337 30.9772 152.337ZM19.7098 142.29L31.0848 151.424L49.7311 147.131L37.1661 138.671L19.7098 142.29Z" fill="#4B1010"/>
<path d="M36.268 148.006C35.5846 148.302 34.8432 148.441 34.0988 148.412C33.93 148.42 33.7614 148.39 33.6053 148.325C33.4492 148.26 33.3097 148.161 33.1967 148.035C33.026 147.777 32.8989 147.492 32.8205 147.193C32.7019 146.79 32.4463 146.44 32.0977 146.205C31.7492 145.97 31.3295 145.864 30.9112 145.906C31.3163 145.132 30.353 144.676 29.3922 144.676C28.827 144.676 27.966 144.676 27.847 143.983C27.8302 143.711 27.8911 143.44 28.0227 143.202C28.1542 142.963 28.3509 142.767 28.5898 142.636C28.9862 142.418 28.5898 141.823 28.2398 142.042H28.2801C28.0412 142.162 27.8299 142.33 27.6597 142.536C27.4894 142.742 27.364 142.981 27.2913 143.239C27.2186 143.496 27.2003 143.765 27.2375 144.03C27.2747 144.295 27.3667 144.549 27.5075 144.776C28.6003 145.838 29.8525 145.043 30.2716 145.539C30.3591 145.648 30.2716 145.677 30.1841 145.802C30.0966 145.926 30.0091 146.04 29.9268 146.168C29.8947 146.229 29.8806 146.297 29.8863 146.365C29.892 146.434 29.9172 146.499 29.9589 146.553C30.0006 146.607 30.057 146.649 30.1214 146.672C30.1859 146.695 30.2556 146.699 30.3223 146.684C30.8281 146.555 31.6007 146.495 31.9577 146.951C32.3401 147.615 32.2045 147.883 32.6813 148.497C33.5327 149.547 35.3851 149.092 36.4438 148.665C36.8525 148.511 36.6748 147.838 36.268 148.006Z" fill="#4B1010"/>
<path d="M41.8172 145.261C41.3631 144.837 40.8009 144.545 40.1923 144.419C39.1922 144.194 38.2227 144.327 38.8938 143.746C38.9587 143.681 38.9955 143.593 38.9965 143.502C38.9975 143.41 38.9625 143.322 38.8991 143.256C38.753 143.106 38.7241 143.151 37.2191 143.151C37.1902 143.151 37.269 142.893 37.269 142.834C37.2911 142.611 37.2633 142.386 37.1877 142.175C37.112 141.964 36.9903 141.773 36.8315 141.615C36.4048 141.286 35.9137 141.05 35.3901 140.923C34.8665 140.795 34.3219 140.779 33.7917 140.876C33.3455 140.876 33.3455 141.59 33.7917 141.569L33.7418 141.53C34.7673 141.417 36.4543 141.582 36.5357 142.58C36.4963 142.796 36.4963 143.018 36.5357 143.234C36.5486 143.342 36.5903 143.446 36.6567 143.533C36.723 143.62 36.8115 143.688 36.9128 143.729C37.2568 143.829 37.6125 143.883 37.9707 143.89C37.9346 144.013 37.9333 144.143 37.9668 144.267C38.0003 144.39 38.0674 144.502 38.1606 144.59C38.8492 145.294 40.2063 144.617 41.42 145.849C41.8268 146.344 41.07 146.503 40.6876 146.572C40.3052 146.641 40.4391 147.316 40.8757 147.236C41.3232 147.193 41.741 146.993 42.0543 146.671C42.134 146.564 42.1912 146.441 42.2225 146.312C42.2537 146.182 42.2584 146.047 42.2363 145.915C42.2141 145.784 42.1656 145.658 42.0936 145.545C42.0216 145.433 41.9276 145.336 41.8172 145.261Z" fill="#4B1010"/>
<path d="M123.386 128.873C123.674 129.005 123.916 129.22 124.082 129.489C124.248 129.759 124.329 130.072 124.317 130.388C124.236 131.936 122.593 132.039 121.342 132.033C119.941 132.03 118.558 131.719 117.29 131.122C117.071 131.038 116.87 130.912 116.7 130.75C116.53 130.589 116.394 130.395 116.3 130.18C116.254 129.941 116.277 129.694 116.366 129.468C116.456 129.242 116.608 129.046 116.804 128.903C117.203 128.618 117.655 128.415 118.133 128.308C116.969 128.305 115.816 128.524 114.734 128.952C113.981 129.302 112.97 129.834 112.752 130.736C112.729 131.065 112.786 131.395 112.919 131.697C113.052 131.999 113.256 132.264 113.515 132.469C113.626 132.557 116.823 131.238 72.1698 149.036C70.5734 148.831 68.959 148.808 67.3573 148.966C65.4446 149.158 60.927 149.65 60.7948 152.285C60.7353 153.494 62.0995 154.246 63.2317 154.643C63.5012 154.737 63.727 154.93 64.0052 154.871C63.803 154.681 63.6735 154.427 63.639 154.152C63.6045 153.877 63.6672 153.599 63.8162 153.365C64.1228 152.908 64.5673 152.561 65.085 152.375C66.1847 151.888 67.3807 151.659 68.5823 151.704C69.7838 151.748 70.9595 152.066 72.0202 152.632C72.6979 152.944 73.2547 153.47 73.6057 154.128C73.6804 154.268 73.7252 154.423 73.7371 154.581C73.749 154.74 73.7278 154.899 73.6748 155.049C73.245 155.555 72.6944 155.943 72.0743 156.179C71.4541 156.414 70.7845 156.489 70.1276 156.397C70.405 156.516 70.1276 156.58 70.3857 156.635C72.3445 157.01 74.3488 157.087 76.3305 156.862C77.1695 156.797 77.9924 156.596 78.7673 156.268C80.7702 155.38 81.5227 153.11 79.7482 151.631L119.036 134.788C120.803 135.097 122.609 135.126 124.385 134.875C125.895 134.633 127.59 133.883 127.497 132.091C127.38 129.812 124.823 129.16 123.386 128.873Z" fill="#C9AFFF"/>
<path d="M127.933 132.065C127.787 129.809 125.672 128.885 123.471 128.445C123.366 128.425 123.258 128.443 123.166 128.497C123.074 128.551 123.005 128.636 122.972 128.737C122.938 128.838 122.943 128.948 122.985 129.046C123.027 129.144 123.103 129.223 123.199 129.269C123.406 129.364 123.581 129.517 123.703 129.71C123.824 129.904 123.886 130.128 123.88 130.356C123.834 131.247 123.127 131.598 121.443 131.598C120.063 131.596 118.7 131.295 117.448 130.714C117.131 130.593 116.872 130.356 116.723 130.051C116.705 129.902 116.726 129.751 116.785 129.613C116.844 129.474 116.939 129.354 117.059 129.264C117.411 129.013 117.81 128.835 118.231 128.739C118.337 128.716 118.43 128.654 118.492 128.566C118.555 128.479 118.583 128.371 118.571 128.264C118.559 128.156 118.508 128.057 118.428 127.986C118.347 127.914 118.243 127.874 118.135 127.874C116.052 127.851 112.789 128.716 112.318 130.703C112.266 131.301 112.439 131.897 112.803 132.375L72.1155 148.592C70.5213 148.399 68.9109 148.38 67.3126 148.535C65.2773 148.746 60.5095 149.24 60.3616 152.268C60.3486 152.541 60.3933 152.815 60.4928 153.07C60.4736 153.77 60.6218 154.463 60.9251 155.094C61.2771 155.692 61.7638 156.199 62.3466 156.575C62.9293 156.952 63.592 157.187 64.2816 157.261C64.3425 157.269 64.4044 157.264 64.4632 157.246C64.522 157.228 64.5763 157.198 64.6227 157.158C64.6691 157.117 64.7065 157.068 64.7325 157.012C64.7584 156.956 64.7723 156.896 64.7733 156.834C64.7814 156.371 64.7563 155.908 64.6981 155.448C64.9622 155.192 65.2559 154.968 65.5731 154.782C66.639 154.331 67.7946 154.132 68.9499 154.2C70.1052 154.269 71.2292 154.603 72.2345 155.176C72.3719 155.253 72.5027 155.341 72.6256 155.439C71.8943 155.884 71.034 156.069 70.1843 155.964C70.0979 155.96 70.0122 155.981 69.938 156.026C69.8639 156.07 69.8045 156.135 69.7675 156.214C69.7306 156.292 69.7176 156.379 69.7302 156.465C69.7429 156.55 69.7807 156.63 69.8387 156.694C69.7836 157.49 69.5981 158.482 69.9472 158.891C70.2097 159.195 70.7811 159.323 71.9151 159.31C74.0151 159.554 77.1108 159.509 79.0621 158.693C79.7733 158.384 80.3737 157.867 80.7834 157.209C81.193 156.551 81.3926 155.783 81.3555 155.009C81.3056 154.661 81.286 154.31 81.2968 153.959C81.3765 153.276 83.0582 152.681 83.9612 152.361C84.803 152.063 81.3135 153.539 118.874 137.441C119.016 137.485 119.163 137.511 119.311 137.518C120.937 137.758 122.59 137.758 124.216 137.518C127.205 136.993 127.906 135.068 127.855 132.897C127.92 132.625 127.947 132.345 127.933 132.065ZM67.3983 149.402C68.9687 149.25 70.551 149.273 72.1163 149.47C72.2913 149.491 69.2542 150.595 113.748 132.933C113.818 132.905 113.879 132.86 113.926 132.801C113.973 132.743 114.005 132.673 114.017 132.599C114.03 132.525 114.023 132.449 113.997 132.378C113.972 132.307 113.928 132.244 113.871 132.195L113.784 132.121C113.586 131.972 113.428 131.777 113.323 131.553C113.217 131.33 113.168 131.083 113.178 130.836C113.417 129.844 115.142 129.199 116.141 128.968C116.003 129.168 115.91 129.396 115.868 129.635C115.827 129.875 115.837 130.12 115.9 130.355C116.133 130.885 116.565 131.302 117.104 131.515C118.429 132.14 119.875 132.466 121.339 132.469C122.315 132.474 124.643 132.498 124.752 130.399C124.763 130.141 124.721 129.884 124.63 129.642C125.84 130.044 126.969 130.748 127.058 132.108C127.163 134.83 122.348 134.793 119.637 134.44C119.381 134.407 119.112 134.278 118.861 134.384L79.574 151.227C79.5053 151.257 79.4453 151.304 79.3998 151.363C79.3543 151.422 79.3247 151.492 79.3139 151.566C79.3031 151.64 79.3115 151.716 79.3382 151.785C79.3648 151.855 79.409 151.917 79.4663 151.965C80.9477 153.19 80.3256 155.069 78.5913 155.864C77.8535 156.17 77.0723 156.36 76.2761 156.426C75.0182 156.557 73.7512 156.575 72.49 156.482C72.8576 156.32 73.2043 156.114 73.5225 155.869C73.7584 155.691 73.9503 155.461 74.0833 155.196C74.156 154.989 74.185 154.769 74.1684 154.55C74.1519 154.331 74.0901 154.118 73.9871 153.924C73.5967 153.191 72.9798 152.604 72.2283 152.25C71.1146 151.65 69.8785 151.313 68.6144 151.264C67.3504 151.215 66.0919 151.456 64.9352 151.968C64.4489 152.103 64.0187 152.39 63.7077 152.787C63.3968 153.184 63.2216 153.671 63.208 154.175C62.571 153.943 61.1841 153.32 61.234 152.311C61.3451 150.029 65.7455 149.574 67.3983 149.402Z" fill="#4B1010"/>
<path d="M145.224 170.625L103.621 162.184L121.623 147.996L159.045 154.951L145.224 170.625Z" fill="white"/>
<path d="M159.126 154.526L121.705 147.57C121.644 147.559 121.581 147.562 121.521 147.577C121.46 147.592 121.404 147.619 121.355 147.658L103.584 161.663C103.475 161.684 103.377 161.74 103.305 161.823C103.232 161.906 103.19 162.011 103.184 162.121C103.179 162.231 103.21 162.34 103.274 162.43C103.338 162.52 103.43 162.586 103.536 162.618L145.139 171.06C145.215 171.075 145.292 171.07 145.365 171.046C145.438 171.021 145.503 170.978 145.554 170.92C145.641 170.841 145.438 171.06 159.379 155.247C159.431 155.188 159.466 155.117 159.481 155.041C159.496 154.964 159.49 154.885 159.464 154.812C159.438 154.738 159.393 154.673 159.334 154.623C159.275 154.572 159.203 154.539 159.126 154.526ZM156.248 154.881L132.729 157.909L123.21 148.74L156.248 154.881ZM121.699 148.499L131.617 158.053L105.273 161.438L121.699 148.499ZM106.025 162.226L132.425 158.827L143.94 169.919L106.025 162.226ZM145.236 169.952L133.538 158.684L157.945 155.541L145.236 169.952Z" fill="#4B1010"/>
<path d="M107.931 12.9494C107.895 12.8859 107.84 12.8354 107.773 12.805C106.382 9.38549 103.028 6.84799 99.5481 5.78574C96.6781 4.92124 94.9937 5.34824 93.2367 5.48824C92.0021 5.58974 90.6301 5.76037 90.2215 7.03524C89.7917 6.99324 89.361 7.10518 89.0061 7.35112C88.8242 7.50962 88.7025 7.72591 88.6613 7.96362C88.4594 7.94247 88.2553 7.96318 88.0617 8.02447C87.8681 8.08575 87.6893 8.18629 87.5363 8.31981C87.3833 8.45332 87.2595 8.61694 87.1726 8.80045C87.0857 8.98396 87.0376 9.18342 87.0312 9.38637C86.8473 9.40156 86.6685 9.45438 86.5059 9.54155C86.3432 9.62872 86.2003 9.74839 86.0858 9.89312C85.9714 10.0379 85.8879 10.2046 85.8405 10.3829C85.7932 10.5613 85.783 10.7474 85.8106 10.9299C85.5642 11.0118 85.3599 11.1872 85.2414 11.4182C85.123 11.6492 85.0999 11.9175 85.1771 12.1654C84.9557 12.3591 84.805 12.6209 84.7484 12.9096C84.6919 13.1983 84.7328 13.4976 84.8647 13.7605C84.6132 13.9801 84.4403 14.276 84.3724 14.6029C84.3045 14.9299 84.3452 15.2701 84.4885 15.5717C84.3268 15.6881 84.1907 15.8365 84.0886 16.0075C83.9865 16.1786 83.9206 16.3688 83.895 16.5664C83.8693 16.7639 83.8844 16.9646 83.9394 17.1561C83.9944 17.3476 84.088 17.5258 84.2146 17.6796C84.0348 17.8848 83.9316 18.1459 83.9226 18.4185C83.9137 18.6912 83.9996 18.9585 84.1656 19.175C83.9841 19.4576 83.9089 19.7956 83.9537 20.1285C83.9984 20.4615 84.16 20.7676 84.4097 20.9924C84.258 21.4898 84.3002 22.0263 84.5278 22.4939C84.6038 22.8099 84.7145 23.1165 84.8577 23.4082C84.8556 24.6177 85.1363 25.8109 85.6776 26.8925C87.4906 30.5194 91.9356 31.355 95.6202 29.8089C95.8066 29.8885 96.0094 29.9221 96.2115 29.9069C96.4135 29.8916 96.609 29.828 96.7813 29.7214C96.9688 29.8498 97.1916 29.9165 97.4188 29.9121C97.6459 29.9077 97.866 29.8325 98.0483 29.6969C98.2595 29.7945 98.4948 29.828 98.7248 29.7931C98.9549 29.7583 99.1696 29.6567 99.3425 29.5009C99.6301 29.5784 99.9345 29.5671 100.216 29.4684C100.497 29.3697 100.741 29.1882 100.917 28.9479C101.143 29.0038 101.38 28.979 101.589 28.8778C101.797 28.7766 101.964 28.6054 102.059 28.394C102.232 28.3602 102.395 28.2861 102.533 28.1777C102.672 28.0693 102.784 27.9296 102.858 27.7701C103.098 27.7468 103.326 27.6514 103.51 27.4965C103.695 27.3416 103.829 27.1344 103.893 26.9021C104.118 26.9013 104.336 26.8238 104.511 26.6824C104.686 26.541 104.808 26.3441 104.856 26.1242C105.349 26.1015 108.437 23.6489 108.743 19.2791C108.936 17.1353 108.659 14.9751 107.931 12.9494Z" fill="#4B1010"/>
<path d="M86.4584 17.2013C86.5271 17.4024 86.5769 17.6095 86.6072 17.8199C86.8986 17.3614 88.6591 15.4994 89.4947 14.5964C89.5381 14.1117 89.5965 13.6285 89.6697 13.1474C90.2113 11.5251 85.5117 13.4204 86.4584 17.2013Z" fill="white"/>
<path d="M93.3803 15.4808C93.0977 15.4808 92.815 15.4729 92.5333 15.458C92.5439 15.5492 92.5282 15.6416 92.4878 15.7241C92.4475 15.8067 92.3843 15.8759 92.3058 15.9235C92.2653 15.9449 92.2207 15.9576 92.175 15.9606C92.1292 15.9637 92.0834 15.9571 92.0404 15.9412C91.9974 15.9254 91.9582 15.9007 91.9254 15.8687C91.8925 15.8367 91.8668 15.7981 91.8499 15.7555C91.8851 15.8795 91.8782 16.0116 91.8305 16.1313C91.7827 16.2509 91.6966 16.3514 91.5857 16.4171C91.4748 16.4827 91.3453 16.5098 91.2174 16.4941C91.0895 16.4784 90.9704 16.4209 90.8787 16.3304C90.8052 16.8326 90.2662 17.2421 89.8584 16.9245C89.787 16.8523 89.747 16.7548 89.747 16.6533C89.747 16.5517 89.787 16.4542 89.8584 16.382C89.787 16.4211 89.703 16.4304 89.6248 16.4078C89.5466 16.3851 89.4805 16.3325 89.441 16.2613C89.4164 16.0287 89.4134 15.7944 89.4323 15.5613C86.5789 18.7393 85.8378 20.5155 85.5753 22.5753C85.2165 26.2205 87.5502 29.6085 91.3424 29.8089C95.0402 30.0959 98.1919 27.8909 101.03 25.7926C99.1231 24.6808 97.4622 23.1936 96.1474 21.4211C94.8326 19.6486 93.8912 17.6277 93.3803 15.4808Z" fill="white"/>
<path d="M95.3984 26.4462C95.4067 26.5858 95.4507 26.7209 95.5262 26.8385C95.6017 26.9562 95.7062 27.0524 95.8297 27.1181C95.9531 27.1837 96.0914 27.2165 96.2311 27.2133C96.3709 27.2101 96.5075 27.171 96.6278 27.0998C96.8792 26.9352 97.0731 26.6964 97.1826 26.4165C97.2326 26.3174 97.2541 26.2063 97.2444 26.0958C97.2347 25.9852 97.1944 25.8795 97.1279 25.7907C97.0614 25.7018 96.9714 25.6333 96.8681 25.5928C96.7647 25.5523 96.6521 25.5415 96.5429 25.5616C96.0774 25.5913 95.4553 25.8556 95.3984 26.4462Z" fill="#4B1010"/>
<path d="M91.6725 20.213C91.5512 20.323 91.4691 20.4697 91.4388 20.6306C91.4085 20.7915 91.4315 20.958 91.5045 21.1046C91.7959 21.648 92.5212 21.4616 92.9211 20.9952C93.8792 20.0546 92.5562 19.2374 91.6725 20.213Z" fill="#4B1010"/>
<path d="M98.5595 22.8496C97.8079 22.5996 97.0014 22.5651 96.2312 22.7499C95.6619 22.9973 95.1467 23.354 94.7148 23.7999C93.8123 24.5845 93.0164 25.4838 92.347 26.4748C92.102 26.8458 92.697 27.1958 92.9517 26.8248C93.551 25.9425 94.2602 25.1401 95.0622 24.4369C95.4013 24.0788 95.7878 23.7688 96.211 23.5155C96.908 23.2574 97.6744 23.2574 98.3714 23.5155C98.8072 23.6249 98.9953 22.9485 98.5595 22.8496Z" fill="#4B1010"/>
<path d="M92.5703 28.17C92.5703 28.7031 92.7821 29.2143 93.159 29.5912C93.5359 29.9682 94.0471 30.1799 94.5802 30.1799C95.1132 30.1799 95.6245 29.9682 96.0014 29.5912C96.3783 29.2143 96.5901 28.7031 96.5901 28.17C96.5901 27.637 96.3783 27.1258 96.0014 26.7488C95.6245 26.3719 95.1132 26.1602 94.5802 26.1602C94.0471 26.1602 93.5359 26.3719 93.159 26.7488C92.7821 27.1258 92.5703 27.637 92.5703 28.17Z" fill="#6C27FF"/>
<path d="M87.1055 19.9453C87.1055 20.5635 87.3511 21.1564 87.7882 21.5935C88.2253 22.0307 88.8182 22.2763 89.4365 22.2763C90.0547 22.2763 90.6476 22.0307 91.0847 21.5935C91.5219 21.1564 91.7675 20.5635 91.7675 19.9453C91.7675 19.327 91.5219 18.7341 91.0847 18.297C90.6476 17.8598 90.0547 17.6143 89.4365 17.6143C88.8182 17.6143 88.2253 17.8598 87.7882 18.297C87.3511 18.7341 87.1055 19.327 87.1055 19.9453Z" fill="#6C27FF"/>
<path d="M100.836 27.0601C100.783 26.8694 100.672 26.6997 100.519 26.5745C99.2821 25.4969 97.9565 24.5257 96.5561 23.6712C96.3461 23.5 96.1021 23.3754 95.8404 23.3055C95.8078 23.0875 95.7306 22.8785 95.6134 22.6918C95.4963 22.5051 95.3418 22.3446 95.1596 22.2205C94.7879 20.706 94.2972 19.2232 93.6922 17.786C93.595 17.4333 93.441 17.0987 93.2364 16.7955C93.093 16.6614 92.9166 16.5678 92.7252 16.5243C92.5338 16.4808 92.3342 16.4889 92.147 16.5478C92.0242 16.5784 91.9028 16.614 91.783 16.6546C91.5863 16.2629 91.4709 15.8355 91.4435 15.3981C91.3639 14.8836 91.3341 14.3481 91.2554 13.8327C91.2313 13.744 91.1733 13.6683 91.0939 13.6219C91.0145 13.5756 90.9201 13.5624 90.831 13.5851C90.7433 13.6108 90.6692 13.6697 90.6244 13.7493C90.5796 13.829 90.5677 13.9229 90.5912 14.0112C90.6059 15.0086 90.7921 15.996 91.1416 16.9302C90.6932 17.1505 90.2862 17.4465 89.9385 17.8052C89.6693 18.1651 89.4879 18.5828 89.4086 19.0252C89.3293 19.4675 89.3543 19.9223 89.4817 20.3532C89.6312 21.076 89.9466 21.7542 90.4031 22.3342C90.9099 22.8461 91.5606 23.1914 92.2685 23.3243C92.9765 23.4571 93.7081 23.3712 94.366 23.078C94.5475 23.0228 94.7232 22.9504 94.891 22.8618C95.0107 22.9804 95.099 23.1268 95.148 23.2879C95.1971 23.4491 95.2052 23.6199 95.1719 23.785C95.076 23.9047 94.9914 24.033 94.919 24.1682C94.5633 24.617 94.3276 25.1489 94.2341 25.7139C94.1406 26.2789 94.1923 26.8584 94.3844 27.3978C94.7367 28.169 95.3222 28.8102 96.0582 29.231C96.7355 29.7297 98.3079 30.3588 99.4375 29.3185C99.81 29.0335 100.143 28.7004 100.428 28.328C100.589 28.162 100.709 27.9614 100.78 27.7415C100.85 27.5217 100.869 27.2885 100.836 27.0601ZM92.721 22.6851C92.1487 22.7051 91.5854 22.5383 91.1162 22.21C90.6187 21.7445 90.2732 21.1398 90.1249 20.4748C89.9854 20.1482 89.9277 19.7925 89.957 19.4386C89.9863 19.0846 90.1016 18.7432 90.2929 18.444C90.74 17.9887 91.2717 17.6252 91.8582 17.3738C92.1081 17.2338 92.3977 17.1815 92.6807 17.2251C92.7236 17.2894 92.7569 17.3595 92.7796 17.4333C93.2142 18.3997 93.5851 19.3935 93.89 20.4083C94.24 21.4933 94.1157 21.2658 94.3555 22.1583C94.0912 22.5258 93.1462 22.6623 92.721 22.6807V22.6851ZM98.2799 29.2143C97.6487 29.301 97.0087 29.1374 96.4966 28.7585C95.9557 28.4613 95.4987 28.032 95.1684 27.5107C94.4806 26.3968 95.0809 25.0353 95.85 24.114C96.8914 24.7402 97.8948 25.4277 98.8547 26.1728C99.3107 26.4916 99.7353 26.8532 100.123 27.2526C100.305 27.7233 98.8066 29.1023 98.2799 29.21V29.2143Z" fill="#4B1010"/>
<path d="M90.6313 27.8648C90.5722 27.8648 90.5138 27.8529 90.4595 27.8297C90.4053 27.8065 90.3562 27.7726 90.3154 27.73C89.8027 27.1976 89.4331 26.5441 89.2408 25.8305C89.0485 25.1168 89.0398 24.3661 89.2155 23.6482C89.2428 23.5354 89.3137 23.4381 89.4128 23.3776C89.5118 23.3171 89.6308 23.2985 89.7436 23.3257C89.8564 23.353 89.9537 23.424 90.0142 23.523C90.0746 23.622 90.0933 23.741 90.066 23.8538C89.9249 24.4292 89.9317 25.0309 90.0857 25.6029C90.2398 26.175 90.5361 26.6987 90.9471 27.1254C91.0062 27.1874 91.0458 27.2652 91.061 27.3495C91.0762 27.4337 91.0664 27.5205 91.0328 27.5992C90.9992 27.6779 90.9432 27.745 90.8718 27.7922C90.8005 27.8394 90.7168 27.8646 90.6313 27.8648Z" fill="#4B1010"/>
<path d="M110.092 16.9349C110.033 11.614 108.051 7.50236 103.097 5.52048C101.532 4.88698 96.7763 4.15373 94.0419 5.68936C93.8293 5.80573 92.7592 7.83486 92.8327 11.138C91.6895 11.76 90.6194 12.5078 89.6424 13.3675C88.1339 14.9773 86.9527 16.865 86.1643 18.9255C85.2778 20.8879 85.0453 23.0833 85.501 25.1879C85.27 20.5364 89.0387 15.9575 93.1389 13.8645C93.7954 16.8738 95.0822 19.7099 96.9145 22.1857C99.4713 25.7925 103.593 26.8425 104.227 26.545C106.991 25.208 110.165 22.7107 110.092 16.9349Z" fill="#C9AFFF"/>
<path d="M110.53 16.9295C110.464 10.9926 108.017 7.01752 103.261 5.11702C101.704 4.48789 96.7856 3.65052 93.8307 5.30864C93.4326 5.52739 92.9557 6.76814 92.7168 7.82514C92.4848 8.86076 92.3752 9.92007 92.3905 10.9813C90.5181 11.9318 88.8805 13.2867 87.5962 14.9481C86.312 16.6094 85.4133 18.5356 84.9652 20.587C84.7843 21.4257 84.6586 22.2754 84.589 23.1306C84.5733 23.6681 84.6185 24.2055 84.7237 24.7328C85.0956 27.0078 85.6862 26.5703 85.7203 25.9823C85.8399 23.6283 86.5553 21.3432 87.7994 19.3412C89.0435 17.3393 90.7756 15.686 92.8332 14.5364C93.5509 17.387 94.816 20.0708 96.5581 22.4385C99.1358 26.075 103.453 27.391 104.418 26.9386C108.598 24.9156 110.586 21.6326 110.53 16.9295ZM85.6048 21.9555C85.8714 19.8666 86.6288 17.8704 87.8151 16.1304C89.0013 14.3904 90.5827 12.9561 92.4298 11.9446C92.4719 12.5133 92.544 13.0794 92.646 13.6404C89.327 15.4159 86.8091 18.3893 85.6048 21.9555ZM104.054 26.1433C103.529 26.3034 99.702 25.361 97.2721 21.9319C90.5783 12.4898 94.2743 6.07339 94.256 6.07077C95.1481 5.60886 96.1255 5.33459 97.1277 5.26489C93.1543 11.9446 96.0532 20.9676 104.661 25.0784C104.899 25.1921 105.146 25.3111 105.396 25.4048C104.963 25.6758 104.515 25.9224 104.054 26.1433ZM106.397 24.563C106.089 24.8255 105.199 24.2463 104.91 24.108C96.6517 19.9745 94.2866 11.3838 98.3763 5.20802C99.9243 5.19722 101.464 5.43958 102.933 5.92552C107.388 7.71927 109.591 11.3111 109.654 16.9383C109.694 20.1968 108.83 22.533 106.397 24.563Z" fill="#4B1010"/>
</svg>
