<svg width="68" height="68" viewBox="0 0 68 68" fill="none" xmlns="http://www.w3.org/2000/svg">
<path d="M34 0.25C52.6396 0.250001 67.75 15.3604 67.75 34C67.75 52.6396 52.6396 67.75 34 67.75C15.3604 67.75 0.250001 52.6396 0.25 34C0.25 15.3604 15.3604 0.25 34 0.25Z" fill="#8A63E6" stroke="#8A63E6" stroke-width="0.5"/>
<path d="M42 44L34 38.4444L26 44V26.2222C26 25.6329 26.2408 25.0676 26.6695 24.6509C27.0981 24.2341 27.6795 24 28.2857 24H39.7143C40.3205 24 40.9019 24.2341 41.3305 24.6509C41.7592 25.0676 42 25.6329 42 26.2222V44Z" fill="#8A63E6" stroke="white" stroke-width="0.8" stroke-linecap="round" stroke-linejoin="round"/>
</svg>
