<svg width="179" height="285" viewBox="0 0 179 285" fill="none" xmlns="http://www.w3.org/2000/svg">
  <g clip-path="url(#clip0_3822_55891)">
    <path d="M106.602 61.4297C104.291 57.1257 102.174 55.1836 99.9833 50.8169C88.7426 28.4087 106.267 11.349 128.442 14.3357C142.741 16.2616 159.143 30.9816 155.577 46.8372C154.031 53.7078 147.397 58.6928 141.678 62.093C129.902 69.0958 118.207 67.1672 111.896 81.3285C112.238 73.5631 110.185 68.1049 106.602 61.4297Z" stroke="#6C27FF" stroke-width="2"/>
    <path d="M126.439 42.6378C126.935 42.5732 126.935 42.5731 126.935 42.5729L126.935 42.5727L126.935 42.5721L126.935 42.5706L126.934 42.5665L126.932 42.5537C126.931 42.5432 126.929 42.5288 126.926 42.511C126.92 42.4754 126.911 42.4258 126.899 42.3661C126.875 42.2478 126.837 42.0847 126.778 41.9099C126.721 41.7375 126.639 41.5382 126.523 41.3558C126.409 41.1767 126.24 40.9784 125.994 40.8604C125.784 40.7598 125.559 40.7382 125.341 40.8004C125.137 40.859 124.977 40.9808 124.858 41.1031C124.834 41.1274 124.811 41.1527 124.789 41.1788C124.734 41.0127 124.656 40.826 124.544 40.6571C124.423 40.473 124.233 40.2682 123.95 40.1737C123.727 40.099 123.476 40.1077 123.331 40.1187C123.249 40.1249 123.177 40.1342 123.125 40.1419C123.099 40.1458 123.078 40.1494 123.062 40.1521L123.043 40.1555L123.037 40.1567L123.035 40.1571L123.034 40.1572L123.034 40.1573L123.034 40.1573C123.034 40.1573 123.034 40.1573 123.13 40.648L123.034 40.1573L123.016 40.1609L122.998 40.1656C122.554 40.287 122.316 40.6461 122.187 40.957C122.147 40.8836 122.09 40.7866 122.018 40.6869C121.944 40.5837 121.841 40.4603 121.711 40.3584C121.584 40.2583 121.39 40.148 121.145 40.148C120.9 40.148 120.706 40.2583 120.578 40.3584C120.449 40.4603 120.346 40.5837 120.271 40.6869C120.195 40.7928 120.135 40.8957 120.095 40.9705C120.074 41.0085 120.058 41.0407 120.047 41.0642C120.041 41.076 120.036 41.0857 120.033 41.0929L120.029 41.102L120.027 41.1052L120.027 41.1064L120.027 41.1069L120.026 41.1071C120.026 41.1072 120.026 41.1073 120.483 41.3113L120.026 41.1073L119.983 41.2046V41.3113V47.2556L119.029 56.661L117.674 56.4656L117.674 54.6106C117.675 54.6035 117.676 54.5954 117.677 54.5863C117.682 54.5481 117.688 54.4931 117.695 54.4225C117.708 54.2813 117.725 54.0772 117.735 53.8186C117.757 53.3015 117.757 52.5654 117.671 51.6772C117.501 49.9021 116.99 47.5104 115.626 45.0486C114.392 42.8235 114.648 40.2585 116.237 38.311C119.336 34.5157 123.295 34.2019 126.285 35.737C129.308 37.2883 131.354 40.7267 130.582 44.5283C130.274 46.0477 129.643 47.0473 128.848 47.9605C128.497 48.3625 128.119 48.7436 127.714 49.1519C127.65 49.2161 127.586 49.2809 127.521 49.3466C127.047 49.8257 126.546 50.3422 126.053 50.9437C125.441 51.6906 124.765 52.7073 124.249 53.525C123.99 53.9364 123.768 54.302 123.61 54.5649C123.569 54.6339 123.532 54.6959 123.5 54.7498L122.276 54.7899C122.272 54.7267 122.269 54.6569 122.265 54.5813C122.248 54.1957 122.234 53.6602 122.253 53.0614C122.29 51.8424 122.455 50.4419 122.918 49.4895C123.301 48.7019 123.603 48.3137 124.182 47.5944C124.442 47.2707 124.708 47.0635 125.01 46.8278C125.056 46.7918 125.103 46.7551 125.151 46.7172C125.512 46.433 125.897 46.1006 126.214 45.5352C126.517 44.9933 126.694 44.2607 126.796 43.7053C126.848 43.4197 126.883 43.165 126.906 42.9815C126.917 42.8896 126.925 42.8152 126.93 42.7631C126.931 42.7499 126.932 42.7382 126.933 42.7279C126.934 42.7179 126.935 42.7093 126.936 42.7022L126.937 42.6855L126.938 42.6808L126.938 42.6793L126.938 42.6788L126.938 42.6786C126.938 42.6786 126.938 42.6785 126.439 42.6378ZM126.439 42.6378L126.935 42.5732L126.942 42.6257L126.938 42.6785L126.439 42.6378ZM120.98 47.3314L120.983 47.3062V47.2809V41.4304C121.009 41.3834 121.043 41.3266 121.082 41.2724C121.105 41.2413 121.126 41.2152 121.145 41.1941C121.164 41.2152 121.185 41.2413 121.207 41.2724C121.251 41.3322 121.288 41.3951 121.314 41.4447C121.327 41.4689 121.337 41.4886 121.343 41.5013L121.35 41.5147L121.35 41.5154L121.35 41.5156L121.35 41.5159L121.351 41.5164L121.351 41.5164L121.351 41.5167L121.388 41.5992L121.453 41.6644L121.964 42.1771C121.96 42.3006 121.96 42.4088 121.962 42.4917C121.963 42.5456 121.965 42.5894 121.967 42.6205L121.969 42.6573L121.969 42.6681L121.97 42.6715L121.97 42.6726L121.97 42.6731L121.97 42.6733L121.97 42.6734L122.468 42.6378L121.97 42.6735L122.968 42.6378V42.1052C122.983 41.8575 123.019 41.5927 123.093 41.3873C123.161 41.1972 123.227 41.147 123.252 41.1342C123.258 41.1332 123.265 41.1321 123.273 41.131C123.307 41.1259 123.354 41.1198 123.407 41.1158C123.46 41.1117 123.513 41.1103 123.559 41.1127C123.582 41.1139 123.6 41.1159 123.614 41.1181C123.624 41.1198 123.63 41.1213 123.633 41.1219C123.636 41.1238 123.665 41.1402 123.709 41.2079C123.762 41.2873 123.811 41.3991 123.852 41.5297C123.891 41.657 123.918 41.783 123.935 41.879C123.936 41.8829 123.936 41.8868 123.937 41.8906L123.345 43.0779L122.984 43.8011H123.792H124.454H124.863L124.944 43.4003L124.944 43.4003L124.944 43.4002L124.944 43.4001L124.944 43.3998L124.945 43.3961L124.948 43.3793C124.952 43.3641 124.957 43.3409 124.964 43.311C124.977 43.2513 124.998 43.1653 125.025 43.0629C125.081 42.8562 125.161 42.5922 125.263 42.3456C125.369 42.0874 125.479 41.8987 125.574 41.8013C125.581 41.7945 125.587 41.7888 125.592 41.784C125.613 41.803 125.643 41.8362 125.679 41.8922C125.736 41.9819 125.787 42.0986 125.83 42.2266C125.872 42.3522 125.901 42.4739 125.919 42.5653C125.926 42.6005 125.932 42.6304 125.936 42.6533L125.935 42.6642C125.93 42.7099 125.923 42.7772 125.913 42.8613C125.892 43.0298 125.86 43.2638 125.812 43.5249C125.713 44.0633 125.559 44.6573 125.341 45.0468C125.121 45.44 124.858 45.6747 124.532 45.932C124.49 45.9648 124.447 45.9984 124.403 46.0329C124.101 46.2672 123.741 46.547 123.402 46.9675C122.811 47.7021 122.452 48.1608 122.019 49.0521C121.456 50.208 121.291 51.7924 121.253 53.0311C121.234 53.6612 121.248 54.2228 121.266 54.6271C121.273 54.7852 121.281 54.9197 121.289 55.0251L121.237 55.069L120.097 56.0417L120.98 47.3314ZM117.674 57.476L117.776 57.4907L117.674 57.5532V57.476ZM117.674 58.9732V58.9477L117.762 58.9568L117.674 58.9732ZM118.306 59.7634L118.163 58.9981L118.408 59.0233L118.306 59.7634ZM121.763 56.0284L121.897 56.0671H121.736L121.763 56.0284ZM120.342 58.0241L120.941 57.1828L121.002 57.2794L120.768 57.8549L120.347 58.0656L120.342 58.0241ZM122.256 58.1128L122.061 59.2824V58.9776V58.6359L121.743 58.5117L121.713 58.4999L122.031 58.3407L122.18 58.266L122.254 58.1169L122.256 58.1128ZM121.21 41.1348C121.21 41.1348 121.21 41.1352 121.208 41.1359C121.21 41.1351 121.21 41.1348 121.21 41.1348ZM121.081 41.1359C121.08 41.1353 121.079 41.1349 121.079 41.1348C121.079 41.1347 121.08 41.1351 121.081 41.1359ZM131.091 32.3464L130.924 32.6264L130.835 32.5623L131.091 32.3464ZM123.206 29.5352L123.292 29.3204V29.5352H123.206ZM116.029 31.3276L115.607 30.7047L116.24 31.233L116.029 31.3276ZM111.171 37.4891L111.162 37.5028L111.125 37.4615L111.171 37.4891ZM110.717 45.2379V45.3442L110.452 45.291L110.717 45.2379Z" stroke="#6C27FF"/>
    <path d="M145.353 285H53.0625H51.7896V283.725C51.7896 283.725 52.1926 280.227 52.426 277.984C53.0213 272.264 53.4507 269.059 53.699 263.314C53.9464 257.59 53.8635 254.371 53.699 248.644C53.5629 243.907 53.0625 236.525 53.0625 236.525H53.699C53.699 236.525 49.9598 234.788 48.6071 232.698C47.0948 230.362 47.6279 228.451 47.3341 225.682C46.9137 221.719 47.3341 215.477 47.3341 215.477L46.6977 205.909L42.2422 195.066L29.8335 176.217L22.5112 155.521L14.2368 134.472C14.2368 134.472 8.4684 120.401 7.87196 110.872C7.68522 107.889 7.40676 106.171 7.87196 103.219C8.36233 100.106 9.00708 98.3803 10.4179 95.5646C11.6244 93.1567 12.6012 91.9625 14.2368 89.8241C15.8443 87.7226 16.9314 86.6957 18.6922 84.7215C24.9011 77.7601 35.2409 67.5 35.2409 67.5C35.2409 67.5 45.1097 59.5336 51.1531 54.1056C54.9509 50.6944 56.5468 48.1417 60.7004 45.176C62.6101 43.8124 65.7923 41.9868 65.7923 41.9868L77.8855 61.1217L74.7031 63.673C74.7031 63.673 67.6991 68.3061 63.2463 71.327C56.7374 75.7429 52.4978 77.4918 46.6977 82.808C43.1935 86.0197 41.3349 87.9782 38.4233 91.7376C37.1123 93.4303 36.3853 94.3924 35.2409 96.2024C33.1586 99.4958 30.7855 105.132 30.7855 105.132V110.872L33.3314 118.526L40.3328 135.11C40.3328 135.11 45.9997 153.6 51.7896 164.45C55.1069 170.667 61.3368 179.758 61.3368 179.758C61.3368 179.758 60.8072 183.374 61.9733 186.136C62.6717 187.791 63.9108 189.309 65.1558 190.601C67.4721 193.005 68.2538 193.757 71.5206 194.428C74.9382 195.131 81.0679 194.428 81.0679 194.428L98.8896 189.963L111.619 186.774L108.437 195.066L115.438 198.255L120.53 200.169L123.076 194.428L125.622 189.963L128.168 186.774L126.895 184.223L124.349 185.499V182.309H124.986L128.168 180.396L134.533 177.207L137.715 181.672L140.261 188.688L142.171 203.358L145.353 232.06L145.99 252.471L147.263 270.968V280.535L145.353 285Z" fill="#6C27FF"/>
    <path d="M106.344 200.977L106.602 198L107.264 196.673L106.344 200.977L105.278 213.256V218.562L107.264 235.144L109.911 252.39L113.22 264.329L115.868 273.615L121.824 287.545H120.5L117.853 281.575L115.206 276.269L110.573 260.35L104.617 226.522V220.112V211.266L105.278 205.959L106.344 200.977Z" fill="white"/>
    <path d="M125.795 233.154L124.471 222.542L124.212 220.112L125.795 229.175L127.78 237.134L131.751 251.727L133.075 260.35L137.046 270.299L139.693 274.279V275.605L137.708 274.942L135.061 269.636L132.413 264.329L129.766 250.4L125.795 233.154Z" fill="white"/>
    <path d="M129.766 211.266L127.78 209.276L129.766 210.602L131.751 211.929H130.428L129.766 211.266Z" fill="white"/>
    <path d="M133.737 221.215L131.09 217.899L138.37 223.868L139.693 224.532H138.37L133.737 221.215Z" fill="white"/>
    <path d="M109.249 223.205L108.587 218.562L109.911 222.542L113.22 226.522V227.848L111.235 225.195L109.249 223.205Z" fill="white"/>
    <path d="M113.882 234.481L109.911 231.165L108.985 229.175L113.882 234.481Z" fill="white"/>
    <path d="M96.0128 237.798L94.6891 237.134H101.969L103.955 235.808L101.307 237.798H96.0128Z" fill="white"/>
    <path d="M66.8924 239.787L61.5978 238.461L57.6268 236.187L66.2306 239.124H72.187L76.158 238.461L75.4962 239.124L73.5107 239.787H66.8924Z" fill="white"/>
    <path d="M80.7908 199.99L76.8198 198.663L81.4526 199.326H83.4381V199.99H80.7908Z" fill="white"/>
    <path d="M62.9215 194.02L60.2741 188.714L64.2451 195.347L66.2306 197.337L70.8634 200.653L74.1725 202.643L76.8198 203.306L76.158 203.969L73.5107 202.643L69.5397 200.653L64.9069 197.337L62.9215 194.02Z" fill="white"/>
    <path d="M40.4194 186.06H41.0812L39.8726 176.774L39.7575 182.081L40.4194 186.06Z" fill="white"/>
    <path d="M125.795 205.959L127.78 209.276M127.78 209.276L129.766 211.266L130.428 211.929H131.751L129.766 210.602L127.78 209.276ZM108.985 227.848V229.175M108.985 229.175L109.911 231.165L113.882 234.481L108.985 229.175ZM56.965 235.808L57.6268 236.187M57.6268 236.187L61.5978 238.461L66.8924 239.787H73.5107L75.4962 239.124L76.158 238.461L72.187 239.124H66.2306L57.6268 236.187ZM74.8343 197.337L76.8198 198.663M76.8198 198.663L80.7908 199.99H83.4381V199.326H81.4526L76.8198 198.663ZM39.0957 170.805L39.8726 176.774M39.8726 176.774L41.0812 186.06H40.4194L39.7575 182.081L39.8726 176.774ZM43.7285 186.06L45.714 194.683M106.602 198L105.278 213.256V218.562L107.264 235.144L109.911 252.39L113.22 264.329L115.868 273.615L121.824 287.545H120.5L117.853 281.575L115.206 276.269L110.573 260.35L104.617 226.522V220.112V211.266L105.278 205.959L107.264 196.673L106.602 198ZM122.486 203.969L124.471 222.542L125.795 233.154L129.766 250.4L132.413 264.329L135.061 269.636L137.708 274.942L139.693 275.605V274.279L137.046 270.299L133.075 260.35L131.751 251.727L127.78 237.134L125.795 229.175L124.212 220.112L123.667 215.022L122.486 203.969ZM131.09 217.899L133.737 221.215L138.37 224.532H139.693L138.37 223.868L131.09 217.899ZM108.587 218.562L109.249 223.205L111.235 225.195L113.22 227.848V226.522L109.911 222.542L108.587 218.562ZM94.6891 237.134L96.0128 237.798H101.307L103.955 235.808L101.969 237.134H94.6891ZM60.2741 188.714L62.9215 194.02L64.9069 197.337L69.5397 200.653L73.5107 202.643L76.158 203.969L76.8198 203.306L74.1725 202.643L70.8634 200.653L66.2306 197.337L64.2451 195.347L60.2741 188.714Z" stroke="white"/>
    <ellipse cx="5.29723" cy="2.65187" rx="5.29723" ry="2.65187" transform="matrix(0.881197 0.472749 -0.471122 0.882068 63.4346 125.96)" fill="#6C27FF"/>
    <ellipse cx="6.26309" cy="2.65117" rx="6.26309" ry="2.65117" transform="matrix(0.809631 0.58694 -0.585234 0.810865 85.6211 134.866)" fill="#6C27FF"/>
    <path d="M70.3314 40.2376C67.7923 41.2873 65.5707 42.6868 65.4438 43.3548C65.2851 44.2136 66.2689 44.3727 67.0624 43.6411C68.078 42.655 71.9817 40.7147 72.8386 40.7147C73.5368 40.7147 73.6003 40.8102 73.4416 41.669C73.1877 42.8141 73.6638 42.9095 75.0603 41.9871C75.9806 41.3827 77.7579 41.0964 77.7579 41.5736C77.7579 41.7326 77.5358 42.1143 77.2819 42.4324C76.7106 43.1958 76.6471 44.2136 77.2184 44.2136C77.4088 44.2136 78.1705 44.0546 78.8688 43.8955C80.3287 43.5457 82.233 43.9592 82.8677 44.7226C83.2168 45.1679 83.1851 45.4223 82.5503 46.5356C81.8204 47.7761 81.8204 47.8397 82.3916 48.2532C82.709 48.4759 83.5342 48.6667 84.2642 48.6667C85.7558 48.6667 86.3271 49.0803 86.3271 50.1935C86.3271 50.9887 84.772 52.6428 83.2803 53.438C82.5503 53.8515 82.4234 53.7878 81.5665 52.7382C80.3287 51.2432 77.4088 49.3029 75.5363 48.7622C72.0769 47.7443 70.7122 50.3208 73.6321 52.3883C74.3303 52.8654 74.9016 53.3425 74.9016 53.438C74.9016 53.5334 74.1716 53.5334 73.2829 53.4698C71.8548 53.3743 71.6961 53.438 71.7913 53.9469C71.8865 54.424 72.2991 54.583 73.9494 54.7739C78.0753 55.1874 78.2023 54.2013 74.3303 51.6885C72.9338 50.7661 72.6799 49.8755 73.7273 49.6846C75.3459 49.3665 80.3604 52.9926 81.4078 55.2192C81.8521 56.1734 81.8838 56.4915 81.5347 57.3185C81.0904 58.3682 79.5035 59.6723 77.504 60.563C76.7741 60.9128 76.1711 61.2945 76.1711 61.4854C76.1711 61.9625 78.2023 61.5172 80.1383 60.6266C82.4234 59.5769 83.2486 58.3046 83.0581 56.1416L82.8994 54.5194L84.2959 53.9469C85.0576 53.6288 86.1049 52.8972 86.6445 52.2929C88.517 50.1299 87.5331 47.3944 84.8672 47.3944C83.6611 47.3944 83.6611 47.4262 84.1055 46.313C84.772 44.5635 82.8042 42.6232 80.3287 42.6232C79.1544 42.6232 79.0275 42.5596 79.0275 41.828C79.0275 40.6829 77.7579 39.9513 76.1711 40.2058C75.1872 40.3649 74.8381 40.3012 74.7111 39.9195C74.4255 39.188 72.4895 39.347 70.3314 40.2376Z" fill="#161616"/>
    <path d="M71.0923 101.309C63.7926 102.804 59.3811 106.398 57.096 112.632C55.9217 115.845 55.3504 119.153 54.8744 125.356C54.1444 135.025 52.5575 138.238 46.813 141.641C42.8776 143.963 42.5284 144.918 43.9884 149.562C45.6705 154.874 51.2563 166.643 54.7157 172.177C55.6678 173.704 56.9056 175.771 57.4451 176.789C58.0164 177.775 59.0955 179.111 59.8572 179.716C63.1579 182.356 68.1724 184.073 70.0132 183.151C71.8857 182.26 72.4253 180.288 72.8696 172.241C73.0917 168.551 72.7109 165.084 71.8857 163.494C71.4414 162.635 71.4096 162.635 67.379 162.444C63.1579 162.285 60.6189 161.712 59.3176 160.663L58.5877 160.09L59.1589 156.941C59.635 154.301 60.6506 150.643 61.0315 150.261C61.0632 150.198 62.3644 150.675 63.9196 151.279C68.0455 152.901 70.2671 153.41 73.3139 153.41C76.6146 153.379 78.9632 152.583 81.0261 150.739C82.5495 149.403 83.1843 147.908 82.5178 147.112C82.3274 146.89 80.4866 146.317 78.4554 145.84C74.0121 144.79 65.5699 142.278 61.9518 140.91L59.3494 139.892L60.1111 138.429C61.0315 136.552 64.0148 129.523 65.4112 125.96C65.9825 124.465 66.8077 122.525 67.2838 121.666C70.6797 115.4 71.4731 114.032 72.8061 112.346C74.4882 110.12 76.0116 108.879 76.2655 109.515C76.329 109.738 77.2811 110.088 78.3602 110.31C81.3435 110.947 83.1843 112.823 83.6604 115.75C83.9143 117.372 84.4221 117.149 84.4221 115.4C84.4221 112.41 82.1687 109.738 79.1219 109.102C77.4081 108.72 77.3446 108.688 78.0745 108.37C78.5189 108.179 80.4549 108.02 82.3591 108.052C85.1838 108.052 86.5485 108.243 89.5001 109.038C93.6894 110.151 97.9105 111.646 102.1 113.491C103.687 114.223 105.908 114.954 107.019 115.177C108.098 115.4 109.05 115.591 109.082 115.622C109.146 115.654 108.86 116.449 108.479 117.404C107.527 119.917 107.368 124.242 108.098 129.332C108.479 132.067 108.67 135.184 108.67 138.683C108.638 143.295 108.574 144.154 107.971 145.681C106.987 148.162 107.051 148.766 108.384 149.403C110.542 150.42 111.462 154.206 110.13 156.432C109.304 157.8 108.067 158.277 104.798 158.563C102.322 158.786 102.132 158.85 101.719 159.708C100.926 161.203 100.354 164.384 99.9735 168.901C99.8148 171.255 99.4974 175.167 99.307 177.584C99.0848 180.384 99.0531 182.101 99.2435 182.292C99.4339 182.483 100.481 182.038 102.1 181.052C105.781 178.761 109.336 177.012 114.033 175.231C119.238 173.259 122.539 172.559 125.268 172.845C129.966 173.322 132.854 175.358 135.647 180.161C139.392 186.586 140.439 191.103 141.708 206.116C141.994 209.361 142.47 214.068 142.819 216.613C143.74 223.483 144.311 229.145 144.755 235.634C145.009 239.419 145.263 241.55 145.517 241.741C146.088 242.218 148.849 242.505 150.531 242.25C153.642 241.773 157.101 238.242 158.402 234.171C158.942 232.485 159.132 231.117 159.196 227.523C159.259 224.183 159.418 222.784 159.767 222.052C160.053 221.511 161.386 220.303 162.75 219.348C165.797 217.217 166.051 216.899 167.13 214.545C168.717 211.11 168.178 206.657 165.797 203.19C165.321 202.522 163.322 200.614 161.354 198.959C156.086 194.538 155.483 193.17 155.038 185.409C154.372 173.481 151.134 168.265 141.074 162.889C138.027 161.267 134.377 158.531 132.6 156.528C130.569 154.237 127.649 149.593 127.109 147.812C126.506 145.808 126.474 140.56 127.014 133.244C127.585 125.133 126.887 121.03 123.872 115.05C123.142 113.587 122.539 112.76 121.936 112.505C121.46 112.314 120.159 111.456 119.048 110.597C114.16 106.875 108.955 105.189 97.8788 103.726C95.2446 103.376 90.1348 102.581 86.5485 101.945C79.344 100.736 74.9008 100.545 71.0923 101.309ZM85.3742 105.253C86.8659 105.603 91.1504 106.843 94.8955 107.988C102.386 110.342 104.734 110.788 106.924 110.374C108.225 110.151 108.32 110.151 107.781 110.565C106.987 111.137 103.941 111.137 101.402 110.565C100.354 110.31 96.641 109.324 93.1499 108.338C81.6926 105.126 75.7577 104.808 70.4258 107.13C68.2994 108.052 65.2843 110.978 64.4591 112.951C63.8561 114.35 63.7609 115.05 63.8244 118.358C63.8561 120.425 63.7926 122.239 63.6657 122.366C63.5705 122.493 63.2213 122.334 62.9357 122.048C62.4914 121.602 62.3962 120.807 62.3644 117.308C62.3644 113.459 62.4279 112.951 63.1261 111.678C64.713 108.656 68.3946 105.857 72.0761 104.808C74.4247 104.14 81.6609 104.394 85.3742 105.253ZM113.938 124.052C113.018 134.739 114.351 141.323 118.794 148.13C120.571 150.834 121.269 151.534 124.38 153.951C126.919 155.86 127.903 156.909 127.903 157.673C127.903 158.404 127.077 158.118 125.459 156.718C124.57 155.987 123.047 154.778 122.095 154.047C115.811 149.275 112.066 138.779 112.954 128.473C113.398 123.511 114.002 118.899 114.192 119.121C114.287 119.185 114.16 121.411 113.938 124.052ZM60.4284 130C59.762 135.789 58.3972 138.143 53.8905 141.419C51.6054 143.041 51.3198 143.168 50.8754 142.723C50.6215 142.468 50.4946 142.087 50.5898 141.896C50.7167 141.705 52.0815 140.687 53.6683 139.606C55.3504 138.429 56.9056 137.093 57.4451 136.298C58.429 134.866 59.5081 131.94 59.8572 129.809C60.1428 127.996 60.6506 128.155 60.4284 130ZM57.4451 143.932C57.4451 144.186 57.3182 144.409 57.1277 144.409C56.969 144.409 56.2391 145.204 55.5091 146.158C54.1127 148.035 53.827 148.194 53.5096 147.367C53.351 146.985 53.7953 146.349 55.0965 145.14C56.9373 143.391 57.4451 143.136 57.4451 143.932ZM118.889 156.496C120.349 159.772 123.205 161.903 129.648 164.448C135.9 166.929 140.852 170.046 144.723 173.99C147.516 176.789 148.881 178.984 148.976 180.765C149.008 181.56 148.881 181.783 148.437 181.783C148.024 181.783 147.643 181.242 147.136 179.938C146.183 177.616 144.66 175.771 141.486 173.036C138.312 170.364 135.044 168.392 129.521 165.879C124.475 163.589 122.856 162.635 120.984 160.822C119.492 159.39 119.048 158.722 118.127 156.241C117.239 153.951 117.842 154.174 118.889 156.496ZM113.303 164.48C113.303 164.798 113.811 165.72 114.446 166.515C115.557 168.01 115.652 168.678 114.636 168.074C113.938 167.66 112.732 165.243 112.478 163.812C112.319 162.762 112.319 162.73 112.795 163.303C113.081 163.653 113.303 164.193 113.303 164.48ZM141.55 179.97C143.994 182.865 144.66 184.01 145.644 187C146.31 189.035 146.501 190.562 146.12 190.944C145.676 191.389 145.073 190.689 144.882 189.481C144.374 186.332 143.517 184.137 141.74 181.624C141.169 180.829 140.629 180.002 140.471 179.779C140.122 179.175 141.01 179.302 141.55 179.97ZM151.96 190.753C152.404 191.771 152.499 193.043 152.499 198.8V205.639L153.356 207.134C153.832 207.929 154.848 209.074 155.578 209.647C157.228 210.888 157.768 211.524 157.545 211.874C156.911 212.923 153.673 210.41 152.214 207.739C151.071 205.576 150.881 203.603 151.515 198.928C152.023 195.015 151.864 192.343 151.103 190.88C150.658 190.085 150.658 189.576 151.103 189.576C151.261 189.576 151.674 190.117 151.96 190.753ZM149.294 214.832C149.802 216.072 152.341 219.476 152.721 219.476C152.88 219.476 152.975 219.762 152.975 220.112C152.975 220.462 152.753 220.748 152.499 220.748C151.134 220.748 148.215 215.5 147.961 212.637C147.739 210.092 148.246 209.297 148.564 211.715C148.691 212.796 149.008 214.164 149.294 214.832Z" fill="#161616"/>
    <path d="M70.839 117.722C70.9342 118.485 71.1247 119.344 71.2516 119.662C71.4103 120.076 71.1881 120.203 70.1725 120.394C66.364 121.03 68.4587 126.183 73.4732 128.536C76.044 129.745 78.3926 129.045 78.3926 127.105C78.3926 125.197 78.0117 124.083 76.9326 122.811C76.1392 121.889 75.6949 120.934 75.2823 119.089C74.9649 117.754 74.6158 116.831 74.5206 117.086C74.4254 117.34 74.5523 118.294 74.7745 119.249C75.0284 120.203 75.1553 121.03 75.0919 121.093C74.6793 121.507 73.6319 120.425 73.4415 119.344C73.3463 118.708 73.1241 117.722 72.9654 117.213C72.7433 116.418 72.7115 116.545 72.8068 117.849C72.902 118.708 73.0607 119.694 73.1559 119.98C73.3146 120.362 73.2193 120.553 72.9654 120.553C72.0768 120.553 71.6959 119.98 71.5055 118.358C71.4103 117.467 71.1881 116.64 70.9977 116.513C70.8073 116.386 70.7438 116.831 70.839 117.722ZM71.8864 122.27C71.1564 123.384 71.569 124.624 72.8702 125.228C73.8224 125.706 73.981 125.706 74.711 125.197C75.2506 124.847 75.5362 124.37 75.5362 123.797V122.938L76.3296 123.765C76.774 124.179 77.25 125.006 77.4087 125.578C77.6626 126.437 77.5991 126.66 77.0279 127.073C74.9966 128.505 70.0138 126.024 69.3156 123.225C68.9665 121.889 69.3474 121.507 70.9342 121.507H72.3624L71.8864 122.27Z" fill="#161616"/>
    <path d="M97.2441 116.736C94.7368 117.308 95.0224 117.849 97.8471 117.881C102.417 117.913 105.178 119.821 106.067 123.638C106.543 125.578 106.956 125.833 106.956 124.211C106.956 121.602 105.242 118.74 102.989 117.595C102.132 117.149 101.529 117.022 98.8627 116.609C98.5136 116.545 97.7836 116.609 97.2441 116.736Z" fill="#161616"/>
    <path d="M80.7416 127.423C79.726 128.632 77.1235 131.336 74.9971 133.467C70.8077 137.602 70.4269 138.333 71.7599 139.669C72.3312 140.242 72.6485 140.306 73.8863 140.115C76.9966 139.669 78.0757 139.288 78.0757 138.62C78.0757 137.92 78.0122 137.92 74.521 138.715C73.5054 138.938 72.6168 139.033 72.4898 138.938C72.1725 138.62 72.9659 137.697 75.2193 135.693C78.996 132.354 83.1537 126.787 82.7728 125.578C82.7093 125.388 81.789 126.215 80.7416 127.423Z" fill="#161616"/>
    <path d="M69.1885 126.882C69.1885 127.423 71.4101 129.141 72.1083 129.141C72.6479 129.141 72.5209 128.95 71.4736 128.218C70.7754 127.709 70.1089 127.137 69.9819 126.946C69.728 126.532 69.1885 126.501 69.1885 126.882Z" fill="#161616"/>
    <path d="M101.307 127.646C99.5614 128.218 99.1488 128.282 97.911 127.932C97.1176 127.709 95.5625 127.55 94.4516 127.55C92.8013 127.55 92.0713 127.741 90.5797 128.536C89.5323 129.045 88.4215 129.777 88.0724 130.095C87.4694 130.731 87.4694 130.731 88.1041 131.59C89.8814 134.007 94.0708 135.343 99.2123 135.152C102.354 134.993 102.989 134.58 102.64 132.735C102.45 131.749 102.481 131.685 103.402 131.685C104.639 131.685 106.004 131.176 106.004 130.699C106.004 130.477 105.718 130.413 105.147 130.572C103.37 131.017 101.942 131.113 101.751 130.795C101.656 130.604 102.005 130.381 102.576 130.254C104.132 129.968 105.369 129.427 105.369 129.077C105.369 128.886 105.115 128.823 104.83 128.918C102.069 129.84 101.593 129.904 100.767 129.459C99.7836 128.95 100.133 128.695 102.164 128.377C103.878 128.123 104.132 127.964 103.878 127.391C103.687 126.819 103.783 126.819 101.307 127.646ZM93.4043 130.063C93.2774 131.049 93.3726 131.399 93.9756 131.972C95.5625 133.435 97.6889 132.353 97.3398 130.254C97.1176 128.918 97.4032 128.854 99.1806 129.872C100.291 130.508 101.878 132.321 101.878 132.958C101.878 133.626 94.7373 133.848 92.6426 133.276C91.3731 132.926 89.4688 131.717 89.2784 131.176C89.1832 130.89 92.7061 128.823 93.3091 128.823C93.4678 128.823 93.4995 129.363 93.4043 130.063Z" fill="#161616"/>
    <path d="M65.3164 130.763C65.4117 131.781 65.5703 132.321 65.7925 132.226C66.2686 132.067 66.1099 130.063 65.6021 129.554C65.3164 129.236 65.253 129.522 65.3164 130.763Z" fill="#161616"/>
    <path d="M67.4419 130.89C67.7593 132.799 67.918 133.276 68.2988 133.276C68.8066 133.276 68.3623 130.731 67.7593 130.127C67.2832 129.65 67.2515 129.713 67.4419 130.89Z" fill="#161616"/>
    <path d="M69.7268 130.922C69.6316 131.018 69.6633 131.463 69.8537 131.908C70.0124 132.322 70.1394 133.117 70.1394 133.626C70.1394 134.23 70.2981 134.548 70.6154 134.548C71.2185 134.548 71.2502 133.276 70.6472 131.845C70.1711 130.7 70.0759 130.604 69.7268 130.922Z" fill="#161616"/>
    <path d="M92.9912 135.757C92.9912 136.266 93.8799 136.457 95.7841 136.425L97.5932 136.393L96.0063 136.139C95.1176 136.011 94.0703 135.82 93.6894 135.693C93.3086 135.566 92.9912 135.598 92.9912 135.757Z" fill="#161616"/>
    <path d="M85.5017 138.429C85.5969 138.842 85.6921 139.701 85.6921 140.337C85.6921 141.196 85.8191 141.546 86.1682 141.546C86.7395 141.546 86.8347 139.733 86.2634 138.524C85.8191 137.538 85.2161 137.474 85.5017 138.429Z" fill="#161616"/>
    <path d="M88.707 140.783C88.9609 142.532 89.3735 143.2 89.6909 142.405C89.9131 141.833 89.31 139.733 88.8022 139.447C88.6118 139.32 88.5801 139.797 88.707 140.783Z" fill="#161616"/>
    <path d="M90.992 141.45C91.1825 142.723 91.5633 143.391 91.9124 143.041C92.1981 142.755 91.4681 140.274 91.0872 140.274C90.9286 140.274 90.8968 140.814 90.992 141.45Z" fill="#161616"/>
    <path d="M20.4711 157.323C17.6464 160.567 16.3452 163.112 15.8374 166.388C15.1709 170.714 16.1548 173.799 20.3759 180.67C24.8826 188.017 25.5491 190.976 24.4383 198.323C24.0574 200.772 23.6766 204.844 23.5813 207.388C23.4544 211.619 23.5179 212.255 24.2478 215.181C25.6443 220.557 28.5324 225.71 31.8649 228.795C35.8003 232.39 43.4808 235.92 49.0349 236.652C50.0822 236.779 51.4787 237.129 52.1769 237.447C52.8434 237.733 53.6051 237.892 53.8273 237.797C54.589 237.511 54.3351 236.366 53.3512 235.888C52.8751 235.634 51.7643 234.648 50.9074 233.694C48.3049 230.831 47.7654 228.159 47.4798 216.39C47.3211 210.029 47.1624 208.597 46.4959 205.989C45.4168 201.695 43.9569 198.291 40.4975 192.025C35.8003 183.501 31.7062 174.881 27.1677 163.875C25.8347 160.662 24.4383 157.45 24.0574 156.718C23.7083 155.987 23.4227 155.351 23.4544 155.287C23.4544 155.255 23.4861 155.064 23.4861 154.905C23.4861 154.142 22.7244 154.746 20.4711 157.323ZM23.9939 167.342C23.7083 168.265 23.4861 170.109 23.4861 171.414C23.5179 175.294 24.2478 176.694 30.1828 184.328C33.5787 188.685 35.7368 193.488 34.626 194.156C34.0865 194.506 33.3248 193.965 33.1344 193.107C32.6583 191.198 29.6432 186.013 27.0725 182.737C23.5179 178.157 22.8196 176.63 22.5975 172.718C22.4705 170.205 22.5657 169.282 23.1688 167.342C23.6131 165.784 23.9622 165.116 24.1844 165.338C24.3748 165.529 24.3113 166.197 23.9939 167.342ZM30.0241 197.305C30.1193 198.228 29.9606 200.168 29.7067 201.663C28.2468 209.52 28.1198 210.569 28.5007 212.414C28.7228 213.4 29.2941 214.8 29.8337 215.531C30.3415 216.263 30.7858 217.09 30.7858 217.376C30.7858 218.935 28.945 217.599 27.739 215.181C26.9455 213.527 26.9138 213.209 27.0725 210.156C27.1994 207.77 27.5168 205.989 28.2785 203.412C29.1037 200.709 29.3259 199.309 29.3576 197.305C29.3576 194.506 29.7702 194.506 30.0241 197.305Z" fill="#161616"/>
    <path d="M113.082 180.097C112.701 180.511 112.13 181.974 111.78 183.406C111.082 186.173 109.591 189.576 107.369 193.425C105.972 195.811 105.877 196.638 106.861 197.019C107.623 197.337 108.035 196.829 109.876 193.139C112.193 188.59 112.923 186.65 113.272 184.042C113.558 181.974 114.319 180.543 114.986 180.765C115.145 180.797 115.462 181.338 115.652 181.942C116.16 183.469 116.7 183.469 117.303 181.974C117.588 181.243 117.938 180.67 118.096 180.67C118.509 180.67 119.334 182.038 119.334 182.769C119.334 184.773 120.286 185.028 121.016 183.215C121.556 181.815 121.778 181.72 122.666 182.388C123.174 182.769 123.269 183.183 123.206 184.932C123.174 186.077 123.301 187.095 123.46 187.191C123.619 187.286 124.158 186.904 124.666 186.364C125.999 184.932 126.761 185.25 126.475 187.127C126.094 189.354 125.237 191.294 123.047 194.729C120.857 198.164 119.715 200.455 119.62 201.504C119.461 203.445 120.032 203.413 120.762 201.409C121.302 200.009 121.746 199.31 125.174 194.443C127.522 191.135 128.728 186.841 127.84 185.123C127.3 184.137 125.872 183.565 125.078 184.073C124.602 184.36 124.444 184.201 123.809 182.865C123.016 181.084 121.936 180.543 120.953 181.465C120.381 181.942 120.318 181.942 120.159 181.37C120.032 181.052 119.588 180.447 119.144 180.034C118.445 179.334 118.255 179.302 117.366 179.652C116.731 179.875 116.192 179.907 115.811 179.716C114.859 179.207 113.78 179.366 113.082 180.097Z" fill="#161616"/>
  </g>
  <defs>
    <clipPath id="clip0_3822_55891">
      <rect width="179" height="285" fill="white"/>
    </clipPath>
  </defs>
</svg>
