<?xml version="1.0" encoding="utf-8"?><svg xmlns="http://www.w3.org/2000/svg" xmlns:xlink="http://www.w3.org/1999/xlink"><symbol fill="none" viewBox="0 0 28 15" id="academic-hat" xmlns="http://www.w3.org/2000/svg"><path d="M20.667 14H6.333V6.665h14.334v7.333Z" stroke="currentColor"/><path d="M25.333 4.667 13.667 10 2 4.667l5.833-1.834 2.917-.916L13.667 1l11.666 3.667Z" fill="currentColor" stroke="currentColor" stroke-linecap="round"/><path d="m22.666 11.334 3.334-2m-1.667-1v4m-1.666-3 3.333 2M24.532 5.002c.709.593 1.595 2.489-.532 5.333" stroke="currentColor"/></symbol><symbol fill="none" viewBox="0 0 16 16" id="accent-error" xmlns="http://www.w3.org/2000/svg"><path d="M7.979 3.5C5.509 3.5 3.5 5.519 3.5 8s2.019 4.5 4.5 4.5 4.5-2.019 4.5-4.5-2.028-4.5-4.521-4.5Zm.471 6.75h-.9v-.9h.9v.9Zm0-1.8h-.9v-2.7h.9v2.7Z" fill="#6C27FF"/></symbol><symbol fill="none" viewBox="0 0 20 12" id="arrow-no-body" xmlns="http://www.w3.org/2000/svg"><path d="m19 10.5-9-9-9 9" stroke="currentColor" stroke-width="2" stroke-linecap="round" stroke-linejoin="round"/></symbol><symbol fill="none" viewBox="0 0 20 20" id="arrowright" xmlns="http://www.w3.org/2000/svg"><path fill-rule="evenodd" clip-rule="evenodd" d="M7.683 14.192a.625.625 0 0 1 0-.884L10.991 10 7.683 6.692a.625.625 0 1 1 .884-.884l3.75 3.75a.625.625 0 0 1 0 .884l-3.75 3.75a.625.625 0 0 1-.884 0Z" fill="#332E2D"/></symbol><symbol fill="none" viewBox="0 0 24 24" id="attach" xmlns="http://www.w3.org/2000/svg"><path d="M17.338 5.873c-1.881-1.83-4.945-1.83-6.824 0L5.302 10.94a.172.172 0 0 0-.052.124c0 .047.018.091.052.124l.737.717a.182.182 0 0 0 .253 0l5.213-5.067a3.452 3.452 0 0 1 2.422-.975c.915 0 1.776.346 2.42.975a3.265 3.265 0 0 1 0 4.71l-5.312 5.166-.86.837a2.106 2.106 0 0 1-2.918 0 1.964 1.964 0 0 1-.603-1.418c0-.536.214-1.04.603-1.418l5.27-5.126c.134-.128.31-.2.498-.2h.002c.187 0 .36.072.493.2a.668.668 0 0 1 0 .964L9.212 14.74a.173.173 0 0 0-.052.124c0 .047.018.092.052.125l.737.717a.182.182 0 0 0 .254 0l4.305-4.19a2.007 2.007 0 0 0 0-2.891 2.15 2.15 0 0 0-2.975 0l-.511.5-4.757 4.626a3.343 3.343 0 0 0-.753 1.093 3.3 3.3 0 0 0 .753 3.671 3.51 3.51 0 0 0 2.45.985c.887 0 1.773-.328 2.448-.985l6.175-6.004a4.608 4.608 0 0 0 0-6.638Z" fill="currentColor"/></symbol><symbol fill="none" viewBox="0 0 25 24" id="basket" xmlns="http://www.w3.org/2000/svg"><path d="M18.313 6.094H6.5m7.594-.844h-3.375M7.344 9.469v8.437c0 .563.281.844.843.844h8.438c.563 0 .844-.281.844-.844V9.47" stroke="currentColor" stroke-width="2" stroke-linecap="round" stroke-linejoin="round"/></symbol><symbol fill="none" viewBox="0 0 20 22" id="bell" xmlns="http://www.w3.org/2000/svg"><path d="M12.389 19.857c-1.364 1.515-3.492 1.533-4.87 0M10 16.847c5.64 0 8.248-.723 8.5-3.627 0-2.901-1.819-2.715-1.819-6.275C16.681 4.165 14.045 1 10 1S3.319 4.164 3.319 6.945c0 3.56-1.819 3.374-1.819 6.275.253 2.915 2.862 3.628 8.5 3.628Z" stroke="currentColor" stroke-width="2" stroke-linecap="round" stroke-linejoin="round"/></symbol><symbol fill="none" viewBox="0 0 20 17" id="book" xmlns="http://www.w3.org/2000/svg"><path d="M10 5.8V16m0-10.2c0-1.68 0-2.52.327-3.162a3 3 0 0 1 1.31-1.311C12.28 1 13.12 1 14.8 1h2.6c.56 0 .84 0 1.054.109.188.096.34.249.437.437C19 1.76 19 2.04 19 2.6v8.8c0 .56 0 .84-.11 1.054a.999.999 0 0 1-.436.437c-.213.109-.493.109-1.052.109h-2.833c-.939 0-1.41 0-1.836.13a2.996 2.996 0 0 0-1.032.552c-.344.283-.605.674-1.126 1.455L10 16m0-10.2c0-1.68 0-2.52-.327-3.162a3 3 0 0 0-1.311-1.311C7.72 1 6.88 1 5.2 1H2.6c-.56 0-.84 0-1.054.109a1 1 0 0 0-.437.437C1 1.76 1 2.04 1 2.6v8.8c0 .56 0 .84.109 1.054a1 1 0 0 0 .437.437C1.76 13 2.039 13 2.598 13h2.833c.939 0 1.408 0 1.835.13.377.114.73.302 1.034.552.343.282.602.67 1.118 1.446L10 16" stroke="currentColor" stroke-width="2" stroke-linecap="round" stroke-linejoin="round"/></symbol><symbol fill="none" viewBox="0 0 23 21" id="chats" xmlns="http://www.w3.org/2000/svg"><path d="M13.135 17.43c3.814 0 5.721 0 6.905-1.185 1.185-1.184 1.185-3.091 1.185-6.905 0-3.813 0-5.72-1.185-6.905C18.856 1.25 16.95 1.25 13.135 1.25H9.09c-3.813 0-5.72 0-6.905 1.185C1 3.62 1 5.527 1 9.34c0 3.814 0 5.72 1.185 6.905.66.662 1.78 1.057 3.094 1.185" stroke="currentColor" stroke-width="1.922" stroke-linecap="round" stroke-linejoin="round"/><path d="M11.113 9.34v.01m-4.045-.01v.01m8.09-.01v.01M13.137 17.43c-1.25 0-2.627.505-3.884 1.158-2.02 1.048-3.031 1.573-3.529 1.238-.497-.333-.375-.324-.186-2.396l-1.701-.303" stroke="currentColor" stroke-width="1.922" stroke-linecap="round"/></symbol><symbol fill="none" viewBox="0 0 12 10" id="check" xmlns="http://www.w3.org/2000/svg"><path d="M1 4.125 4.75 8.25 11 1.375" stroke="currentColor" stroke-width="2" stroke-linecap="round"/></symbol><symbol fill="none" viewBox="0 0 23 23" id="circle-check" xmlns="http://www.w3.org/2000/svg"><path d="M11.5 0C5.149 0 0 5.149 0 11.5 0 17.852 5.149 23 11.5 23 17.852 23 23 17.852 23 11.5 23 5.149 17.852 0 11.5 0Zm0 21.585c-5.548 0-10.063-4.537-10.063-10.085 0-5.548 4.515-10.063 10.063-10.063 5.548 0 10.063 4.515 10.063 10.063 0 5.548-4.515 10.085-10.063 10.085Zm4.59-14.293-6.748 6.79-3.038-3.039a.72.72 0 0 0-1.017 1.017l3.558 3.557a.72.72 0 0 0 1.101-.104l7.16-7.204a.72.72 0 0 0-1.016-1.017Z" fill="currentColor"/></symbol><symbol fill="none" viewBox="0 0 24 24" id="cross" xmlns="http://www.w3.org/2000/svg"><path fill-rule="evenodd" clip-rule="evenodd" d="M7.227 7.227a.75.75 0 0 1 1.06 0L12 10.939l3.712-3.712a.75.75 0 1 1 1.061 1.06L13.061 12l3.712 3.712a.75.75 0 0 1-1.06 1.061L12 13.061l-3.712 3.712a.75.75 0 1 1-1.06-1.06L10.938 12 7.227 8.288a.75.75 0 0 1 0-1.061Z" fill="currentColor"/></symbol><symbol fill="none" viewBox="0 0 4 16" id="dots" xmlns="http://www.w3.org/2000/svg"><path d="M2 3.25a.75.75 0 1 0 0-1.5.75.75 0 0 0 0 1.5ZM2 8.75a.75.75 0 1 0 0-1.5.75.75 0 0 0 0 1.5ZM2 14.25a.75.75 0 1 0 0-1.5.75.75 0 0 0 0 1.5Z" fill="currentColor" stroke="currentColor" stroke-width="2" stroke-linecap="round" stroke-linejoin="round"/></symbol><symbol fill="none" viewBox="0 0 24 24" id="download" xmlns="http://www.w3.org/2000/svg"><path d="M12 14.681a.824.824 0 0 1-.281-.047.653.653 0 0 1-.244-.159l-2.7-2.7a.711.711 0 0 1-.206-.525c0-.213.068-.387.206-.525a.756.756 0 0 1 .534-.216.695.695 0 0 1 .535.197l1.406 1.407V6.75c0-.213.072-.39.216-.535A.725.725 0 0 1 12 6c.213 0 .39.072.535.215a.727.727 0 0 1 .215.535v5.363l1.406-1.407a.695.695 0 0 1 .535-.197.756.756 0 0 1 .534.216.711.711 0 0 1 .206.525.711.711 0 0 1-.206.525l-2.7 2.7a.653.653 0 0 1-.244.159.824.824 0 0 1-.281.047ZM7.5 18c-.412 0-.766-.147-1.059-.44A1.445 1.445 0 0 1 6 16.5V15c0-.213.072-.39.215-.535a.727.727 0 0 1 .535-.215c.213 0 .39.072.535.215A.727.727 0 0 1 7.5 15v1.5h9V15c0-.213.072-.39.216-.535a.725.725 0 0 1 .534-.215c.212 0 .39.072.534.215A.726.726 0 0 1 18 15v1.5c0 .413-.147.766-.44 1.06-.294.293-.647.44-1.06.44h-9Z" fill="currentColor"/></symbol><symbol fill="none" viewBox="0 0 32 32" id="edit-pen" xmlns="http://www.w3.org/2000/svg"><path fill-rule="evenodd" clip-rule="evenodd" d="M21.904 6.226a2.962 2.962 0 0 1 3.228 4.831l-6.064 6.064a3.24 3.24 0 0 1-1.656.887l-2.804.56a1 1 0 0 1-1.177-1.176l.56-2.803a3.245 3.245 0 0 1 .889-1.658l6.063-6.063c.275-.275.602-.494.961-.643ZM23.038 8a.962.962 0 0 0-.68.282l-1.002 1.001 1.361 1.36 1.001-1a.96.96 0 0 0-.312-1.57.962.962 0 0 0-.368-.073Zm-1.735 4.058-1.361-1.36-3.649 3.648a1.244 1.244 0 0 0-.34.635l-.267 1.332 1.333-.267a1.24 1.24 0 0 0 .635-.34l3.649-3.648Zm-12.185-1.94A1.118 1.118 0 0 0 8 11.235v11.647A1.117 1.117 0 0 0 9.118 24h11.647a1.118 1.118 0 0 0 1.117-1.118v-3.176a1 1 0 1 1 2 0v3.176A3.118 3.118 0 0 1 20.765 26H9.118A3.118 3.118 0 0 1 6 22.882V11.235a3.118 3.118 0 0 1 3.118-3.118h3.176a1 1 0 1 1 0 2H9.118Z" fill="currentColor"/></symbol><symbol fill="none" viewBox="0 0 12 11" id="error" xmlns="http://www.w3.org/2000/svg"><path d="M6 4.034v1.989M6 8.01h.005M5.182 1.48l-4.054 7.03a1.024 1.024 0 0 0-.002.99c.082.15.202.276.346.364a.93.93 0 0 0 .475.137h8.106a.93.93 0 0 0 .475-.137.978.978 0 0 0 .346-.365 1.024 1.024 0 0 0-.002-.99l-4.054-7.03a.975.975 0 0 0-.348-.35.93.93 0 0 0-.94 0 .975.975 0 0 0-.348.35Z" stroke="#000" stroke-width=".8" stroke-linecap="round" stroke-linejoin="round"/></symbol><symbol fill="none" viewBox="0 0 22 22" id="eye" xmlns="http://www.w3.org/2000/svg"><path d="M11 8.525c.646 0 1.267.26 1.724.725.457.464.713 1.094.713 1.75 0 .656-.256 1.286-.713 1.75a2.42 2.42 0 0 1-1.724.725 2.42 2.42 0 0 1-1.724-.725A2.495 2.495 0 0 1 8.563 11c0-.656.256-1.286.713-1.75A2.419 2.419 0 0 1 11 8.525Zm0-3.713c4.063 0 7.532 2.566 8.938 6.188-1.406 3.622-4.875 6.188-8.938 6.188-4.063 0-7.532-2.566-8.938-6.188C3.468 7.378 6.939 4.812 11 4.812ZM3.834 11a8.06 8.06 0 0 0 2.943 3.31A7.89 7.89 0 0 0 11 15.54a7.89 7.89 0 0 0 4.223-1.228A8.061 8.061 0 0 0 18.166 11a8.061 8.061 0 0 0-2.943-3.31A7.89 7.89 0 0 0 11 6.46 7.89 7.89 0 0 0 6.777 7.69 8.06 8.06 0 0 0 3.834 11Z" fill="currentColor"/></symbol><symbol class="aqsvg-icon" style="width:1em;height:1em;vertical-align:middle;fill:currentColor;overflow:hidden" viewBox="0 0 1024 1024" id="eye-off" xmlns="http://www.w3.org/2000/svg"><path d="M69.526 954.365a42.627 42.627 0 0 1 0-60.338l118.984-119.04C96.137 679.183 56.987 557.686 56.987 511.882c0-80.963 118.729-398.06 454.907-398.06 97.388 0 184.03 27.226 258.389 79.427L894.028 69.502a42.648 42.648 0 0 1 60.287 60.338L129.811 954.365a42.748 42.748 0 0 1-60.287 0zm72.772-442.483c0 20.42 27.277 120.216 106.498 202.87l116.628-116.636c-38.433-65.353-30.194-150.82 25.845-206.81 55.988-56.039 141.4-64.33 206.857-25.894L708.565 254.97c-57.113-36.388-122.721-55.836-196.671-55.836-289.147 0-369.596 280.916-369.596 312.748zm309.258-60.288c-22.057 22.007-27.994 53.02-20.828 81.22l102.046-102.048a92.781 92.781 0 0 0-22.79-2.872c-21.224 0-42.248 7.517-58.427 23.7zm-64.536 442.28a42.633 42.633 0 1 1 22.313-82.294c32.091 8.7 66.532 13.05 102.561 13.05 289.147 0 369.646-280.812 369.646-312.747 0-9.775-7.932-47.237-31.32-94.935a42.685 42.685 0 0 1 76.663-37.564C951.192 428.872 966.8 480.92 966.8 511.882c0 81.066-118.73 398.061-454.907 398.061-43.602 0-85.618-5.428-124.874-16.07z"/></symbol><symbol fill="none" viewBox="0 0 20 19" id="feed" xmlns="http://www.w3.org/2000/svg"><path d="M1 6.2h18m-18 0v8.112c0 1.165 0 1.747.245 2.192.216.391.56.71.983.91.481.226 1.11.226 2.369.226h10.806c1.258 0 1.887 0 2.368-.227.423-.199.768-.518.984-.91.245-.444.245-1.025.245-2.188V6.2m-18 0V4.328c0-1.165 0-1.748.245-2.193.216-.39.56-.709.983-.908C2.71 1 3.34 1 4.6 1h10.8c1.26 0 1.89 0 2.37.227.424.2.77.517.985.908C19 2.58 19 3.162 19 4.325V6.2" stroke="currentColor" stroke-width="2" stroke-linecap="round" stroke-linejoin="round"/></symbol><symbol fill="none" viewBox="0 0 24 24" id="file" xmlns="http://www.w3.org/2000/svg"><path clip-rule="evenodd" d="M14.738 2.762H8.085A3.82 3.82 0 0 0 4.25 6.49v10.713a3.828 3.828 0 0 0 3.742 3.91c.03 0 .06.002.092 0h7.989a3.887 3.887 0 0 0 3.729-3.91V8.038l-5.065-5.276Z" stroke="currentColor" stroke-width="1.5" stroke-linecap="round" stroke-linejoin="round"/><path d="M14.475 2.75v2.909a2.574 2.574 0 0 0 2.568 2.575h2.755M14.288 15.358h-5.4M12.243 11.606H8.887" stroke="currentColor" stroke-width="1.5" stroke-linecap="round" stroke-linejoin="round"/></symbol><symbol fill="none" viewBox="0 0 32 32" id="file_arch" xmlns="http://www.w3.org/2000/svg"><path d="M24.25 30H7.75c-.73 0-1.429-.295-1.945-.82A2.826 2.826 0 0 1 5 27.2V4.801c0-.742.29-1.455.805-1.98a2.725 2.725 0 0 1 1.945-.82h9.625a.14.14 0 0 1 .037 0h.008a.202.202 0 0 0 .04.009c.121.008.24.032.356.071h.058c.026.018.05.038.072.06.15.068.286.163.402.28l8.25 8.4c.116.119.209.258.276.41.012.03.022.061.031.092l.014.04c.038.116.06.238.067.36a.142.142 0 0 0 .01.041v.009c.002.009.004.018.004.028v15.4c0 .742-.29 1.454-.805 1.979a2.725 2.725 0 0 1-1.945.82ZM17.375 4.801v7h6.875l-6.875-7Z" fill="#332E2D"/><path d="M8.25 5.25v-2h2v2h2v2h-2v2h2v2h-2v2h2v2h-2v2h2v5h-4v-7h2v-2h-2v-2h2v-2h-2v-2h2v-2h-2Z" fill="#fff"/></symbol><symbol fill="none" viewBox="0 0 32 32" id="file_csv" xmlns="http://www.w3.org/2000/svg"><path d="M24.25 30H7.75c-.73 0-1.429-.295-1.945-.82A2.826 2.826 0 0 1 5 27.2V4.801c0-.742.29-1.455.805-1.98a2.725 2.725 0 0 1 1.945-.82h9.625a.14.14 0 0 1 .037 0h.008a.202.202 0 0 0 .04.009c.121.008.24.032.356.071h.058c.026.018.05.038.072.06.15.068.286.163.402.28l8.25 8.4c.116.119.209.258.276.41.012.03.022.061.031.092l.014.04c.038.116.06.238.067.36a.142.142 0 0 0 .01.041v.009c.002.009.004.018.004.028v15.4c0 .742-.29 1.454-.805 1.979a2.725 2.725 0 0 1-1.945.82ZM17.375 4.801v7h6.875l-6.875-7Z" fill="#332E2D"/><path d="M11.011 25.11c-.528 0-.982-.12-1.363-.359a2.375 2.375 0 0 1-.874-.997c-.203-.424-.305-.91-.305-1.456 0-.554.104-1.043.312-1.467.209-.426.502-.759.88-.998.38-.239.826-.359 1.34-.359.414 0 .783.077 1.108.231.324.152.586.365.784.64.202.274.321.595.36.962h-1.034a1.239 1.239 0 0 0-.39-.66c-.202-.185-.472-.278-.81-.278-.296 0-.556.078-.778.235-.22.154-.392.374-.515.66-.123.284-.185.62-.185 1.009 0 .398.06.74.181 1.03.121.288.292.512.512.67.222.16.484.239.784.239.202 0 .384-.037.547-.11.166-.076.305-.184.416-.324.114-.14.193-.307.238-.504h1.033a2.008 2.008 0 0 1-.344.945 1.984 1.984 0 0 1-.77.653c-.32.159-.696.238-1.127.238Zm6.964-4.233-.962.17a1.14 1.14 0 0 0-.192-.351.949.949 0 0 0-.348-.273 1.26 1.26 0 0 0-.55-.107c-.301 0-.552.068-.753.203-.202.132-.302.304-.302.514 0 .183.067.33.202.44.135.112.353.203.653.274l.867.199c.502.116.876.295 1.122.536.246.242.37.555.37.941 0 .327-.095.618-.285.874a1.86 1.86 0 0 1-.784.596c-.334.145-.721.217-1.162.217-.61 0-1.109-.13-1.495-.39-.386-.263-.622-.636-.71-1.12l1.026-.155c.064.267.196.47.395.607.198.135.458.202.777.202.348 0 .627-.072.835-.216.208-.147.312-.326.312-.537a.557.557 0 0 0-.192-.43c-.125-.115-.318-.203-.578-.262l-.924-.203c-.509-.116-.885-.3-1.129-.553-.241-.254-.362-.575-.362-.963 0-.322.09-.604.27-.845.18-.241.428-.43.746-.565.317-.137.68-.206 1.09-.206.59 0 1.053.128 1.392.384.338.253.562.593.671 1.02Zm5.44-1.331L21.437 25h-1.136l-1.982-5.454h1.14l1.382 4.197h.056l1.378-4.197h1.14Z" fill="#fff"/></symbol><symbol fill="none" viewBox="0 0 32 32" id="file_doc" xmlns="http://www.w3.org/2000/svg"><path d="M24.25 30H7.75c-.73 0-1.429-.295-1.945-.82A2.826 2.826 0 0 1 5 27.2V4.801c0-.742.29-1.455.805-1.98a2.725 2.725 0 0 1 1.945-.82h9.625a.14.14 0 0 1 .037 0h.008a.202.202 0 0 0 .04.009c.121.008.24.032.356.071h.058c.026.018.05.038.072.06.15.068.286.163.402.28l8.25 8.4c.116.119.209.258.276.41.012.03.022.061.031.092l.014.04c.038.116.06.238.067.36a.142.142 0 0 0 .01.041v.009c.002.009.004.018.004.028v15.4c0 .742-.29 1.454-.805 1.979a2.725 2.725 0 0 1-1.945.82ZM17.375 4.801v7h6.875l-6.875-7Z" fill="#332E2D"/><path d="M9.756 25.107c-.44 0-.834-.113-1.18-.338a2.3 2.3 0 0 1-.809-.97c-.194-.42-.291-.926-.291-1.516s.098-1.093.295-1.512c.198-.42.47-.74.816-.963a2.124 2.124 0 0 1 1.176-.334c.338 0 .61.057.816.17.209.112.37.242.483.392.117.149.207.28.27.394h.064v-2.703h1.062V25h-1.037v-.849h-.089a2.809 2.809 0 0 1-.277.398c-.118.15-.281.28-.49.39-.208.112-.478.168-.81.168Zm.234-.906c.306 0 .563-.08.774-.242.213-.163.374-.389.483-.678.111-.289.167-.625.167-1.008 0-.38-.054-.71-.163-.995a1.461 1.461 0 0 0-.48-.664c-.21-.158-.47-.238-.78-.238-.32 0-.587.083-.8.249a1.52 1.52 0 0 0-.483.678c-.106.287-.16.61-.16.97 0 .364.055.692.164.983.109.292.27.522.483.693.215.168.48.252.795.252Zm5.781.91c-.511 0-.958-.118-1.339-.352a2.37 2.37 0 0 1-.887-.984c-.211-.421-.316-.914-.316-1.477 0-.566.105-1.061.316-1.485.21-.424.506-.753.887-.987.381-.234.828-.352 1.34-.352.51 0 .957.118 1.338.352.381.234.677.563.888.987.21.424.316.919.316 1.485 0 .563-.106 1.056-.316 1.477a2.37 2.37 0 0 1-.888.984c-.381.234-.828.351-1.339.351Zm.004-.892c.331 0 .606-.088.824-.263a1.54 1.54 0 0 0 .482-.7c.107-.29.16-.612.16-.962 0-.348-.053-.668-.16-.959a1.562 1.562 0 0 0-.482-.706c-.218-.178-.493-.267-.824-.267-.334 0-.611.089-.831.267-.218.177-.38.413-.487.706-.104.291-.156.611-.156.959 0 .35.052.671.156.962.107.292.269.525.487.7.22.175.497.263.83.263Zm5.522.891c-.528 0-.983-.12-1.364-.359a2.375 2.375 0 0 1-.874-.997c-.203-.424-.305-.91-.305-1.456 0-.554.104-1.043.312-1.467.209-.426.502-.759.881-.998s.825-.359 1.339-.359c.414 0 .784.077 1.108.231.324.152.586.365.785.64.2.274.32.595.358.962h-1.033a1.238 1.238 0 0 0-.39-.66c-.202-.185-.472-.278-.81-.278-.296 0-.555.078-.778.235-.22.154-.392.374-.515.66-.123.284-.185.62-.185 1.009 0 .398.06.74.181 1.03.121.288.292.512.512.67.222.16.484.239.785.239.2 0 .383-.037.547-.11.165-.076.304-.184.415-.324.114-.14.193-.307.238-.504h1.033a2.008 2.008 0 0 1-.344.945 1.983 1.983 0 0 1-.77.653c-.32.159-.696.238-1.126.238Z" fill="#fff"/></symbol><symbol fill="none" viewBox="0 0 32 32" id="file_file" xmlns="http://www.w3.org/2000/svg"><path d="M24.25 30H7.75c-.73 0-1.429-.295-1.945-.82A2.826 2.826 0 0 1 5 27.2V4.801c0-.742.29-1.455.805-1.98a2.725 2.725 0 0 1 1.945-.82h9.625a.14.14 0 0 1 .037 0h.008a.202.202 0 0 0 .04.009c.121.008.24.032.356.071h.058c.026.018.05.038.072.06.15.068.286.163.402.28l8.25 8.4c.116.119.209.258.276.41.012.03.022.061.031.092l.014.04c.038.116.06.238.067.36a.142.142 0 0 0 .01.041v.009c.002.009.004.018.004.028v15.4c0 .742-.29 1.454-.805 1.979a2.725 2.725 0 0 1-1.945.82ZM17.375 4.801v7h6.875l-6.875-7Z" fill="#332E2D"/><path d="M12.31 19.546v.852H9.227v-.852h3.083ZM10.072 25v-6.087c0-.34.075-.623.224-.848.15-.228.347-.397.593-.508.246-.114.514-.17.803-.17.213 0 .395.017.547.053.151.033.264.064.337.092l-.249.86a5.208 5.208 0 0 0-.191-.05 1.094 1.094 0 0 0-.284-.032c-.258 0-.443.064-.554.191-.11.128-.164.313-.164.554V25h-1.062Zm2.833 0v-5.454h1.062V25h-1.062Zm.536-6.296a.675.675 0 0 1-.475-.185.6.6 0 0 1-.196-.447c0-.175.065-.325.196-.448a.668.668 0 0 1 .475-.188c.185 0 .342.063.473.188a.588.588 0 0 1 .199.448.595.595 0 0 1-.2.447.662.662 0 0 1-.472.185Zm2.516-.977V25h-1.062v-7.273h1.062Zm3.28 7.383c-.538 0-1-.115-1.389-.344a2.336 2.336 0 0 1-.895-.977c-.208-.421-.312-.915-.312-1.48 0-.56.104-1.052.312-1.478.21-.426.504-.759.88-.998.38-.239.822-.359 1.329-.359.308 0 .606.051.895.153.289.102.548.262.777.48.23.217.411.5.544.848.132.346.199.766.199 1.26v.377H17.24v-.795h3.295c0-.28-.057-.527-.17-.742a1.29 1.29 0 0 0-.48-.515 1.34 1.34 0 0 0-.717-.188c-.298 0-.559.073-.781.22-.22.144-.39.334-.512.568a1.64 1.64 0 0 0-.177.756v.622c0 .364.064.674.192.93.13.256.31.451.543.586.232.133.503.199.813.199.201 0 .385-.029.55-.085a1.143 1.143 0 0 0 .707-.692l1.005.18a1.82 1.82 0 0 1-.433.778 2.1 2.1 0 0 1-.778.515c-.31.12-.664.181-1.061.181Z" fill="#fff"/></symbol><symbol fill="none" viewBox="0 0 32 32" id="file_image" xmlns="http://www.w3.org/2000/svg"><path d="M24.25 30H7.75c-.73 0-1.429-.295-1.945-.82A2.826 2.826 0 0 1 5 27.2V4.801c0-.742.29-1.455.805-1.98a2.725 2.725 0 0 1 1.945-.82h9.625a.14.14 0 0 1 .037 0h.008a.202.202 0 0 0 .04.009c.121.008.24.032.356.071h.058c.026.018.05.038.072.06.15.068.286.163.402.28l8.25 8.4c.116.119.209.258.276.41.012.03.022.061.031.092l.014.04c.038.116.06.238.067.36a.142.142 0 0 0 .01.041v.009c.002.009.004.018.004.028v15.4c0 .742-.29 1.454-.805 1.979a2.725 2.725 0 0 1-1.945.82ZM17.375 4.801v7h6.875l-6.875-7Z" fill="#332E2D"/><path d="M23.7 27.667H8.724a.3.3 0 0 1-.212-.513l7.276-7.275a.3.3 0 0 1 .424 0l2.242 2.242a.3.3 0 0 0 .425 0l4.609-4.609a.3.3 0 0 1 .512.212v9.643a.3.3 0 0 1-.3.3ZM8.448 13.781a2.667 2.667 0 1 1 3.771 3.772 2.667 2.667 0 0 1-3.771-3.772Z" fill="#fff"/></symbol><symbol fill="none" viewBox="0 0 32 32" id="file_jpeg" xmlns="http://www.w3.org/2000/svg"><path d="M24.25 30H7.75c-.73 0-1.429-.295-1.945-.82A2.826 2.826 0 0 1 5 27.2V4.801c0-.742.29-1.455.805-1.98a2.725 2.725 0 0 1 1.945-.82h9.625a.14.14 0 0 1 .037 0h.008a.202.202 0 0 0 .04.009c.121.008.24.032.356.071h.058c.026.018.05.038.072.06.15.068.286.163.402.28l8.25 8.4c.116.119.209.258.276.41.012.03.022.061.031.092l.014.04c.038.116.06.238.067.36a.142.142 0 0 0 .01.041v.009c.002.009.004.018.004.028v15.4c0 .742-.29 1.454-.805 1.979a2.725 2.725 0 0 1-1.945.82ZM17.375 4.801v7h6.875l-6.875-7Z" fill="#332E2D"/><path d="M6.714 19.546h1.062v5.81c0 .364-.067.671-.2.922-.13.251-.324.442-.582.572-.255.13-.571.195-.948.195H5.94c-.036 0-.073 0-.11-.003v-.913H6c.25 0 .432-.067.543-.202.114-.133.17-.326.17-.579v-5.802Zm.525-.842a.675.675 0 0 1-.476-.185.6.6 0 0 1-.195-.447c0-.175.065-.325.195-.448a.668.668 0 0 1 .476-.188c.185 0 .342.063.473.188a.588.588 0 0 1 .199.448.596.596 0 0 1-.2.447.663.663 0 0 1-.472.185Zm1.365 8.341v-7.5h1.037v.885h.089c.061-.114.15-.245.266-.395.116-.149.277-.279.483-.39.206-.114.478-.17.817-.17.44 0 .833.11 1.179.333.345.223.617.544.813.963.199.419.298.923.298 1.512 0 .59-.098 1.095-.295 1.517a2.3 2.3 0 0 1-.81.97 2.097 2.097 0 0 1-1.175.337c-.331 0-.602-.056-.813-.167a1.537 1.537 0 0 1-.49-.391 2.95 2.95 0 0 1-.273-.398h-.064v2.895H8.604Zm1.04-4.772c0 .383.056.72.167 1.008.112.29.273.515.483.678.211.162.47.242.774.242.318 0 .583-.084.796-.252.213-.17.374-.401.483-.693.111-.29.167-.619.167-.983 0-.36-.055-.683-.163-.97a1.485 1.485 0 0 0-.484-.678c-.213-.166-.479-.249-.799-.249-.307 0-.568.08-.78.238-.211.159-.371.38-.48.664a2.77 2.77 0 0 0-.163.995Zm6.883 2.837c-.538 0-1-.115-1.389-.344a2.337 2.337 0 0 1-.895-.977c-.208-.421-.312-.915-.312-1.48 0-.56.104-1.052.312-1.478.211-.426.505-.759.881-.998.379-.239.821-.359 1.328-.359.308 0 .606.051.895.153.289.102.548.262.778.48.23.217.41.5.543.848.133.346.199.766.199 1.26v.377H14.53v-.795h3.295c0-.28-.056-.527-.17-.742a1.288 1.288 0 0 0-.48-.515 1.34 1.34 0 0 0-.717-.188c-.298 0-.558.073-.781.22-.22.144-.39.334-.511.568a1.64 1.64 0 0 0-.178.756v.622c0 .364.064.674.192.93.13.256.311.451.543.586.232.133.503.199.813.199.202 0 .385-.029.55-.085a1.142 1.142 0 0 0 .707-.692l1.005.18a1.82 1.82 0 0 1-.433.778 2.1 2.1 0 0 1-.777.515c-.31.12-.665.181-1.062.181Zm5.205 2.05c-.433 0-.806-.058-1.119-.171a2.165 2.165 0 0 1-.76-.451 1.892 1.892 0 0 1-.44-.615l.913-.376c.064.104.149.214.255.33.11.119.256.22.44.302.188.083.428.124.722.124.402 0 .735-.098.998-.294.262-.195.394-.505.394-.93v-1.073h-.068a2.424 2.424 0 0 1-.277.387 1.499 1.499 0 0 1-.49.37c-.208.103-.48.155-.813.155-.43 0-.82-.1-1.165-.302a2.141 2.141 0 0 1-.817-.898c-.198-.398-.298-.887-.298-1.467 0-.58.098-1.077.295-1.491.199-.414.471-.732.817-.952a2.125 2.125 0 0 1 1.175-.334c.339 0 .612.057.82.17.209.112.37.242.487.392.118.149.21.28.273.394h.078v-.884h1.04v5.575c0 .469-.108.853-.326 1.154-.218.3-.512.523-.884.668a3.41 3.41 0 0 1-1.25.216Zm-.01-3.122c.305 0 .563-.071.773-.213.213-.145.374-.35.483-.618.112-.27.167-.593.167-.97 0-.367-.054-.69-.163-.97a1.44 1.44 0 0 0-.48-.653c-.21-.158-.47-.238-.78-.238-.32 0-.587.083-.8.249a1.5 1.5 0 0 0-.483.668c-.106.281-.16.596-.16.944 0 .358.055.671.164.941.109.27.27.48.483.632.215.152.48.228.795.228Z" fill="#fff"/></symbol><symbol fill="none" viewBox="0 0 32 32" id="file_mp3" xmlns="http://www.w3.org/2000/svg"><path d="M24.25 30H7.75c-.73 0-1.429-.295-1.945-.82A2.826 2.826 0 0 1 5 27.2V4.801c0-.742.29-1.455.805-1.98a2.725 2.725 0 0 1 1.945-.82h9.625a.14.14 0 0 1 .037 0h.008a.202.202 0 0 0 .04.009c.121.008.24.032.356.071h.058c.026.018.05.038.072.06.15.068.286.163.402.28l8.25 8.4c.116.119.209.258.276.41.012.03.022.061.031.092l.014.04c.038.116.06.238.067.36a.142.142 0 0 0 .01.041v.009c.002.009.004.018.004.028v15.4c0 .742-.29 1.454-.805 1.979a2.725 2.725 0 0 1-1.945.82ZM17.375 4.801v7h6.875l-6.875-7Z" fill="#332E2D"/><path d="M6.214 25v-5.454h1.019v.887H7.3c.114-.3.3-.535.558-.703.258-.17.567-.256.927-.256.364 0 .67.086.916.256a1.5 1.5 0 0 1 .55.703h.057c.13-.291.338-.523.622-.696.284-.175.622-.263 1.015-.263.495 0 .899.155 1.211.466.315.31.473.777.473 1.402V25h-1.062v-3.558c0-.37-.1-.637-.302-.803a1.098 1.098 0 0 0-.721-.248c-.346 0-.614.106-.806.32-.192.21-.288.481-.288.812V25H9.392v-3.626c0-.296-.092-.534-.277-.713-.185-.18-.425-.27-.72-.27-.202 0-.388.053-.558.16-.168.104-.305.25-.409.436a1.338 1.338 0 0 0-.152.65V25H6.214Zm8.238 2.046v-7.5h1.037v.884h.088c.062-.114.15-.245.267-.395.116-.149.277-.279.483-.39.206-.114.478-.17.816-.17.44 0 .834.11 1.18.333.345.223.616.544.813.963.198.419.298.923.298 1.512 0 .59-.098 1.095-.295 1.517a2.3 2.3 0 0 1-.81.97 2.097 2.097 0 0 1-1.175.337c-.331 0-.602-.056-.813-.167a1.537 1.537 0 0 1-.49-.391 2.949 2.949 0 0 1-.274-.398h-.063v2.895h-1.062Zm1.04-4.773c0 .383.056.72.167 1.008.111.29.272.515.483.678.21.162.469.242.774.242.317 0 .582-.084.796-.252.213-.17.374-.401.483-.693a2.74 2.74 0 0 0 .166-.983c0-.36-.054-.683-.163-.97a1.484 1.484 0 0 0-.483-.678c-.213-.166-.48-.249-.799-.249-.308 0-.568.08-.781.238-.21.159-.37.38-.48.664a2.77 2.77 0 0 0-.163.995Zm7.05 2.826c-.488 0-.924-.084-1.308-.252a2.218 2.218 0 0 1-.905-.7c-.22-.3-.339-.648-.355-1.043h1.115a.961.961 0 0 0 .216.56c.133.157.306.278.519.363.213.085.45.128.71.128.287 0 .54-.05.76-.15.223-.099.397-.237.522-.415a1.06 1.06 0 0 0 .188-.621c0-.244-.062-.458-.188-.643a1.226 1.226 0 0 0-.543-.44 2.085 2.085 0 0 0-.86-.16H21.8v-.895h.614c.27 0 .507-.049.71-.146.207-.097.368-.232.484-.404.116-.176.174-.38.174-.615 0-.225-.051-.42-.153-.586-.1-.168-.241-.3-.426-.394a1.384 1.384 0 0 0-.647-.142 1.68 1.68 0 0 0-.664.131c-.203.086-.369.209-.497.37a.95.95 0 0 0-.206.571h-1.061c.011-.392.127-.738.348-1.037a2.25 2.25 0 0 1 .88-.699c.365-.168.77-.252 1.215-.252.466 0 .869.091 1.207.273.341.18.604.42.788.721.188.3.28.63.277.987.003.408-.11.753-.34 1.037-.228.284-.53.475-.91.572v.057c.483.073.857.265 1.123.575.267.31.4.695.397 1.154.003.4-.109.759-.333 1.076a2.272 2.272 0 0 1-.913.75 3.1 3.1 0 0 1-1.325.27Z" fill="#fff"/></symbol><symbol fill="none" viewBox="0 0 32 32" id="file_mp4" xmlns="http://www.w3.org/2000/svg"><path d="M24.25 30H7.75c-.73 0-1.429-.295-1.945-.82A2.826 2.826 0 0 1 5 27.2V4.801c0-.742.29-1.455.805-1.98a2.725 2.725 0 0 1 1.945-.82h9.625a.14.14 0 0 1 .037 0h.008a.202.202 0 0 0 .04.009c.121.008.24.032.356.071h.058c.026.018.05.038.072.06.15.068.286.163.402.28l8.25 8.4c.116.119.209.258.276.41.012.03.022.061.031.092l.014.04c.038.116.06.238.067.36a.142.142 0 0 0 .01.041v.009c.002.009.004.018.004.028v15.4c0 .742-.29 1.454-.805 1.979a2.725 2.725 0 0 1-1.945.82ZM17.375 4.801v7h6.875l-6.875-7Z" fill="#332E2D"/><path d="M6.214 25v-5.454h1.019v.887H7.3c.114-.3.3-.535.558-.703.258-.17.567-.256.927-.256.364 0 .67.086.916.256a1.5 1.5 0 0 1 .55.703h.057c.13-.291.338-.523.622-.696.284-.175.622-.263 1.015-.263.495 0 .899.155 1.211.466.315.31.473.777.473 1.402V25h-1.062v-3.558c0-.37-.1-.637-.302-.803a1.098 1.098 0 0 0-.721-.248c-.346 0-.614.106-.806.32-.192.21-.288.481-.288.812V25H9.392v-3.626c0-.296-.092-.534-.277-.713-.185-.18-.425-.27-.72-.27-.202 0-.388.053-.558.16-.168.104-.305.25-.409.436a1.338 1.338 0 0 0-.152.65V25H6.214Zm8.238 2.046v-7.5h1.037v.884h.088c.062-.114.15-.245.267-.395.116-.149.277-.279.483-.39.206-.114.478-.17.816-.17.44 0 .834.11 1.18.333.345.223.616.544.813.963.198.419.298.923.298 1.512 0 .59-.098 1.095-.295 1.517a2.3 2.3 0 0 1-.81.97 2.097 2.097 0 0 1-1.175.337c-.331 0-.602-.056-.813-.167a1.537 1.537 0 0 1-.49-.391 2.949 2.949 0 0 1-.274-.398h-.063v2.895h-1.062Zm1.04-4.773c0 .383.056.72.167 1.008.111.29.272.515.483.678.21.162.469.242.774.242.317 0 .582-.084.796-.252.213-.17.374-.401.483-.693a2.74 2.74 0 0 0 .166-.983c0-.36-.054-.683-.163-.97a1.484 1.484 0 0 0-.483-.678c-.213-.166-.48-.249-.799-.249-.308 0-.568.08-.781.238-.21.159-.37.38-.48.664a2.77 2.77 0 0 0-.163.995Zm4.365 1.306v-.887l3.142-4.965h.7v1.307h-.444l-2.248 3.558v.057h4.308v.93h-5.458ZM23.305 25v-1.69l.007-.405v-5.178h1.04V25h-1.047Z" fill="#fff"/></symbol><symbol fill="none" viewBox="0 0 32 32" id="file_pdf" xmlns="http://www.w3.org/2000/svg"><path d="M24.25 30H7.75c-.73 0-1.429-.295-1.945-.82A2.826 2.826 0 0 1 5 27.2V4.801c0-.742.29-1.455.805-1.98a2.725 2.725 0 0 1 1.945-.82h9.625a.14.14 0 0 1 .037 0h.008a.202.202 0 0 0 .04.009c.121.008.24.032.356.071h.058c.026.018.05.038.072.06.15.068.286.163.402.28l8.25 8.4c.116.119.209.258.276.41.012.03.022.061.031.092l.014.04c.038.116.06.238.067.36a.142.142 0 0 0 .01.041v.009c.002.009.004.018.004.028v15.4c0 .742-.29 1.454-.805 1.979a2.725 2.725 0 0 1-1.945.82ZM17.375 4.801v7h6.875l-6.875-7Z" fill="#332E2D"/><path d="M8.714 27.046v-7.5H9.75v.884h.088c.062-.114.15-.245.267-.395.116-.149.277-.279.483-.39.206-.114.478-.17.816-.17.44 0 .834.11 1.18.333.345.223.616.544.813.963.199.419.298.923.298 1.512 0 .59-.098 1.095-.295 1.517a2.3 2.3 0 0 1-.81.97 2.097 2.097 0 0 1-1.175.337c-.331 0-.602-.056-.813-.167a1.537 1.537 0 0 1-.49-.391 2.955 2.955 0 0 1-.274-.398h-.063v2.895H8.714Zm1.04-4.773c0 .383.056.72.167 1.008.111.29.272.515.483.678.21.162.469.242.774.242.317 0 .583-.084.796-.252.213-.17.374-.401.483-.693a2.74 2.74 0 0 0 .167-.983c0-.36-.055-.683-.164-.97a1.484 1.484 0 0 0-.483-.678c-.213-.166-.48-.249-.799-.249-.308 0-.568.08-.781.238-.21.159-.37.38-.48.664a2.77 2.77 0 0 0-.163.995Zm6.674 2.834c-.44 0-.834-.113-1.18-.338a2.3 2.3 0 0 1-.81-.97c-.193-.42-.29-.926-.29-1.516s.098-1.093.295-1.512c.198-.42.47-.74.816-.963a2.125 2.125 0 0 1 1.176-.334c.338 0 .61.057.816.17.209.112.37.242.483.392.116.149.206.28.27.394h.064v-2.703h1.062V25h-1.037v-.849h-.089a2.817 2.817 0 0 1-.277.398c-.118.15-.282.28-.49.39-.208.112-.478.168-.81.168Zm.234-.906c.305 0 .563-.08.774-.242.213-.163.374-.389.483-.678.111-.289.167-.625.167-1.008 0-.38-.054-.71-.163-.995a1.461 1.461 0 0 0-.48-.664c-.21-.158-.47-.238-.781-.238-.32 0-.586.083-.8.249a1.52 1.52 0 0 0-.482.678c-.107.287-.16.61-.16.97 0 .364.055.692.163.983.11.292.27.522.484.693.215.168.48.252.795.252Zm6.08-4.655v.852h-3.083v-.852h3.082ZM20.503 25v-6.087c0-.34.075-.623.224-.848.149-.228.347-.397.593-.508.246-.114.514-.17.802-.17.213 0 .396.017.547.053.152.033.264.064.338.092l-.249.86a5.274 5.274 0 0 0-.192-.05 1.093 1.093 0 0 0-.284-.032c-.258 0-.443.064-.554.191-.109.128-.163.313-.163.554V25h-1.062Z" fill="#fff"/></symbol><symbol fill="none" viewBox="0 0 32 32" id="file_png" xmlns="http://www.w3.org/2000/svg"><path d="M24.25 30H7.75c-.73 0-1.429-.295-1.945-.82A2.826 2.826 0 0 1 5 27.2V4.801c0-.742.29-1.455.805-1.98a2.725 2.725 0 0 1 1.945-.82h9.625a.14.14 0 0 1 .037 0h.008a.202.202 0 0 0 .04.009c.121.008.24.032.356.071h.058c.026.018.05.038.072.06.15.068.286.163.402.28l8.25 8.4c.116.119.209.258.276.41.012.03.022.061.031.092l.014.04c.038.116.06.238.067.36a.142.142 0 0 0 .01.041v.009c.002.009.004.018.004.028v15.4c0 .742-.29 1.454-.805 1.979a2.725 2.725 0 0 1-1.945.82ZM17.375 4.801v7h6.875l-6.875-7Z" fill="#332E2D"/><path d="M7.714 27.046v-7.5H8.75v.884h.088c.062-.114.15-.245.267-.395.116-.149.277-.279.483-.39.206-.114.478-.17.816-.17.44 0 .834.11 1.18.333.345.223.616.544.813.963.199.419.298.923.298 1.512 0 .59-.098 1.095-.295 1.517a2.3 2.3 0 0 1-.81.97 2.097 2.097 0 0 1-1.175.337c-.331 0-.602-.056-.813-.167a1.537 1.537 0 0 1-.49-.391 2.953 2.953 0 0 1-.274-.398h-.063v2.895H7.714Zm1.04-4.773c0 .383.056.72.167 1.008.111.29.272.515.483.678.21.162.469.242.774.242.317 0 .583-.084.796-.252.213-.17.374-.401.483-.693a2.74 2.74 0 0 0 .167-.983c0-.36-.055-.683-.164-.97a1.484 1.484 0 0 0-.483-.678c-.213-.166-.48-.249-.799-.249-.308 0-.568.08-.781.238-.21.159-.37.38-.48.664a2.77 2.77 0 0 0-.163.995Zm5.593-.512V25h-1.061v-5.454h1.019v.887h.067a1.56 1.56 0 0 1 .59-.696c.27-.175.61-.263 1.019-.263.372 0 .697.079.976.235.28.154.496.383.65.689.154.305.231.683.231 1.133V25h-1.062v-3.342c0-.395-.103-.704-.308-.927-.206-.224-.49-.337-.85-.337a1.33 1.33 0 0 0-.656.16 1.15 1.15 0 0 0-.451.469c-.11.203-.164.45-.164.738Zm6.602 5.398c-.433 0-.806-.057-1.119-.17a2.165 2.165 0 0 1-.76-.451 1.892 1.892 0 0 1-.44-.615l.913-.376c.064.104.149.214.256.33.108.119.255.22.44.302.187.083.427.124.72.124.403 0 .736-.098.999-.294.263-.195.394-.505.394-.93v-1.073h-.068a2.424 2.424 0 0 1-.277.387 1.499 1.499 0 0 1-.49.37c-.208.103-.48.155-.813.155-.43 0-.819-.1-1.165-.302a2.142 2.142 0 0 1-.816-.898c-.2-.398-.299-.887-.299-1.467 0-.58.099-1.077.295-1.491.199-.414.471-.732.817-.952a2.124 2.124 0 0 1 1.175-.334c.339 0 .612.057.82.17.209.112.371.242.487.392.118.149.21.28.273.394h.079v-.884h1.04v5.575c0 .469-.109.853-.327 1.154-.217.3-.512.523-.884.668a3.41 3.41 0 0 1-1.25.216Zm-.01-3.121c.305 0 .563-.071.774-.213.213-.145.374-.35.483-.618.11-.27.166-.593.166-.97 0-.367-.054-.69-.163-.97a1.44 1.44 0 0 0-.48-.653c-.21-.158-.47-.238-.78-.238-.32 0-.586.083-.8.249a1.5 1.5 0 0 0-.482.668c-.107.281-.16.596-.16.944 0 .358.054.671.163.941.109.27.27.48.483.632.215.152.48.228.796.228Z" fill="#fff"/></symbol><symbol fill="none" viewBox="0 0 32 32" id="file_ppt" xmlns="http://www.w3.org/2000/svg"><path d="M24.25 30H7.75c-.73 0-1.429-.295-1.945-.82A2.826 2.826 0 0 1 5 27.2V4.801c0-.742.29-1.455.805-1.98a2.725 2.725 0 0 1 1.945-.82h9.625a.14.14 0 0 1 .037 0h.008a.202.202 0 0 0 .04.009c.121.008.24.032.356.071h.058c.026.018.05.038.072.06.15.068.286.163.402.28l8.25 8.4c.116.119.209.258.276.41.012.03.022.061.031.092l.014.04c.038.116.06.238.067.36a.142.142 0 0 0 .01.041v.009c.002.009.004.018.004.028v15.4c0 .742-.29 1.454-.805 1.979a2.725 2.725 0 0 1-1.945.82ZM17.375 4.801v7h6.875l-6.875-7Z" fill="#332E2D"/><path d="M8.714 27.046v-7.5H9.75v.884h.088c.062-.114.15-.245.267-.395.116-.149.277-.279.483-.39.206-.114.478-.17.816-.17.44 0 .834.11 1.18.333.345.223.616.544.813.963.199.419.298.923.298 1.512 0 .59-.098 1.095-.295 1.517a2.3 2.3 0 0 1-.81.97 2.097 2.097 0 0 1-1.175.337c-.331 0-.602-.056-.813-.167a1.537 1.537 0 0 1-.49-.391 2.955 2.955 0 0 1-.274-.398h-.063v2.895H8.714Zm1.04-4.773c0 .383.056.72.167 1.008.111.29.272.515.483.678.21.162.469.242.774.242.317 0 .583-.084.796-.252.213-.17.374-.401.483-.693a2.74 2.74 0 0 0 .167-.983c0-.36-.055-.683-.164-.97a1.484 1.484 0 0 0-.483-.678c-.213-.166-.48-.249-.799-.249-.308 0-.568.08-.781.238-.21.159-.37.38-.48.664a2.77 2.77 0 0 0-.163.995Zm4.632 4.773v-7.5h1.037v.884h.088c.062-.114.15-.245.267-.395.116-.149.277-.279.483-.39.206-.114.478-.17.816-.17.44 0 .834.11 1.18.333.345.223.616.544.813.963.198.419.298.923.298 1.512 0 .59-.098 1.095-.295 1.517a2.3 2.3 0 0 1-.81.97 2.097 2.097 0 0 1-1.175.337c-.331 0-.602-.056-.813-.167a1.537 1.537 0 0 1-.49-.391 2.949 2.949 0 0 1-.274-.398h-.064v2.895h-1.061Zm1.04-4.773c0 .383.056.72.167 1.008.111.29.272.515.483.678.21.162.469.242.774.242.317 0 .582-.084.796-.252.213-.17.374-.401.483-.693a2.74 2.74 0 0 0 .166-.983c0-.36-.054-.683-.163-.97a1.483 1.483 0 0 0-.483-.678c-.213-.166-.48-.249-.799-.249-.308 0-.568.08-.781.238-.21.159-.37.38-.48.664a2.77 2.77 0 0 0-.163.995Zm7.178-2.727v.852h-2.98v-.852h2.98Zm-2.18-1.307h1.061v5.16c0 .205.03.36.092.465.062.101.141.171.238.21.1.035.207.052.323.052.086 0 .16-.006.224-.017l.15-.029.191.877a2.07 2.07 0 0 1-.689.114c-.28.005-.54-.045-.781-.15a1.34 1.34 0 0 1-.586-.482c-.15-.218-.224-.491-.224-.82v-5.38Z" fill="#fff"/></symbol><symbol fill="none" viewBox="0 0 32 32" id="file_svg" xmlns="http://www.w3.org/2000/svg"><path d="M24.25 30H7.75c-.73 0-1.429-.295-1.945-.82A2.826 2.826 0 0 1 5 27.2V4.801c0-.742.29-1.455.805-1.98a2.725 2.725 0 0 1 1.945-.82h9.625a.14.14 0 0 1 .037 0h.008a.202.202 0 0 0 .04.009c.121.008.24.032.356.071h.058c.026.018.05.038.072.06.15.068.286.163.402.28l8.25 8.4c.116.119.209.258.276.41.012.03.022.061.031.092l.014.04c.038.116.06.238.067.36a.142.142 0 0 0 .01.041v.009c.002.009.004.018.004.028v15.4c0 .742-.29 1.454-.805 1.979a2.725 2.725 0 0 1-1.945.82ZM17.375 4.801v7h6.875l-6.875-7Z" fill="#332E2D"/><path d="m12.801 20.877-.962.17a1.142 1.142 0 0 0-.192-.351.949.949 0 0 0-.348-.273 1.26 1.26 0 0 0-.55-.107c-.301 0-.552.068-.753.203-.201.132-.302.304-.302.514 0 .183.067.33.202.44.135.112.353.203.654.274l.866.199c.502.116.876.295 1.122.536.247.242.37.555.37.941 0 .327-.095.618-.284.874a1.86 1.86 0 0 1-.785.596c-.334.145-.721.217-1.161.217-.611 0-1.11-.13-1.495-.39-.386-.263-.623-.636-.71-1.12l1.026-.155c.063.267.195.47.394.607.199.135.458.202.777.202.348 0 .627-.072.835-.216.208-.147.313-.326.313-.537a.557.557 0 0 0-.192-.43c-.126-.115-.319-.203-.58-.262l-.922-.203c-.51-.116-.886-.3-1.13-.553-.241-.254-.362-.575-.362-.963 0-.322.09-.604.27-.845.18-.241.428-.43.746-.565.317-.137.68-.206 1.09-.206.59 0 1.053.128 1.392.384.338.253.562.593.671 1.02Zm5.34-1.331L16.163 25h-1.136l-1.982-5.454h1.14l1.382 4.197h.056l1.378-4.197h1.14Zm2.5 7.613c-.434 0-.807-.057-1.12-.17a2.165 2.165 0 0 1-.759-.451 1.892 1.892 0 0 1-.44-.615l.912-.376c.064.104.15.214.256.33.109.119.256.22.44.302.187.083.428.124.721.124.403 0 .735-.098.998-.294.263-.195.394-.505.394-.93v-1.073h-.067a2.424 2.424 0 0 1-.277.387 1.499 1.499 0 0 1-.49.37c-.209.103-.48.155-.814.155-.43 0-.819-.1-1.164-.302a2.141 2.141 0 0 1-.817-.898c-.199-.398-.298-.887-.298-1.467 0-.58.098-1.077.294-1.491.2-.414.472-.732.817-.952a2.124 2.124 0 0 1 1.176-.334c.338 0 .612.057.82.17.208.112.37.242.486.392.119.149.21.28.274.394h.078v-.884h1.04v5.575c0 .469-.108.853-.326 1.154-.218.3-.513.523-.884.668a3.41 3.41 0 0 1-1.25.216Zm-.011-3.121c.305 0 .563-.071.774-.213.213-.145.374-.35.483-.618.111-.27.167-.593.167-.97 0-.367-.054-.69-.163-.97a1.44 1.44 0 0 0-.48-.653c-.21-.158-.471-.238-.781-.238-.32 0-.586.083-.8.249a1.5 1.5 0 0 0-.482.668c-.107.281-.16.596-.16.944 0 .358.055.671.164.941.108.27.27.48.482.632.216.152.481.228.796.228Z" fill="#fff"/></symbol><symbol fill="none" viewBox="0 0 32 32" id="file_txt" xmlns="http://www.w3.org/2000/svg"><path d="M24.25 30H7.75c-.73 0-1.429-.295-1.945-.82A2.826 2.826 0 0 1 5 27.2V4.801c0-.742.29-1.455.805-1.98a2.725 2.725 0 0 1 1.945-.82h9.625a.14.14 0 0 1 .037 0h.008a.202.202 0 0 0 .04.009c.121.008.24.032.356.071h.058c.026.018.05.038.072.06.15.068.286.163.402.28l8.25 8.4c.116.119.209.258.276.41.012.03.022.061.031.092l.014.04c.038.116.06.238.067.36a.142.142 0 0 0 .01.041v.009c.002.009.004.018.004.028v15.4c0 .742-.29 1.454-.805 1.979a2.725 2.725 0 0 1-1.945.82ZM17.375 4.801v7h6.875l-6.875-7Z" fill="#332E2D"/><path d="M12.26 19.546v.852H9.28v-.852h2.98Zm-2.18-1.307h1.061v5.16c0 .205.031.36.093.465.061.101.14.171.238.21.099.035.207.052.323.052.085 0 .16-.006.223-.017l.15-.029.191.877a2.07 2.07 0 0 1-.689.114 1.87 1.87 0 0 1-.78-.15 1.34 1.34 0 0 1-.587-.482c-.149-.218-.224-.491-.224-.82v-5.38Zm3.693 1.306 1.203 2.124 1.215-2.123h1.161l-1.7 2.727L17.365 25h-1.16l-1.23-2.038L13.751 25h-1.165l1.698-2.727-1.676-2.727h1.165Zm6.715 0v.853H17.51v-.852h2.98Zm-2.18-1.306h1.062v5.16c0 .205.03.36.092.465.062.101.141.171.238.21.1.035.207.052.323.052.085 0 .16-.006.224-.017l.15-.029.19.877a2.07 2.07 0 0 1-.689.114 1.87 1.87 0 0 1-.78-.15 1.34 1.34 0 0 1-.586-.482c-.15-.218-.224-.491-.224-.82v-5.38Z" fill="#fff"/></symbol><symbol fill="none" viewBox="0 0 32 32" id="file_video" xmlns="http://www.w3.org/2000/svg"><path d="M24.25 30H7.75c-.73 0-1.429-.295-1.945-.82A2.826 2.826 0 0 1 5 27.2V4.801c0-.742.29-1.455.805-1.98a2.725 2.725 0 0 1 1.945-.82h9.625a.14.14 0 0 1 .037 0h.008a.202.202 0 0 0 .04.009c.121.008.24.032.356.071h.058c.026.018.05.038.072.06.15.068.286.163.402.28l8.25 8.4c.116.119.209.258.276.41.012.03.022.061.031.092l.014.04c.038.116.06.238.067.36a.142.142 0 0 0 .01.041v.009c.002.009.004.018.004.028v15.4c0 .742-.29 1.454-.805 1.979a2.725 2.725 0 0 1-1.945.82ZM17.375 4.801v7h6.875l-6.875-7Z" fill="#332E2D"/><path d="M17.25 24h-5c-.354 0-.65-.112-.89-.336-.24-.223-.36-.5-.36-.83v-4.667c0-.33.12-.608.36-.832.24-.223.536-.335.89-.335h5c.354 0 .651.112.891.335.24.224.359.501.359.832v1.166l1.594-.787a.618.618 0 0 1 .608.029c.199.117.298.282.298.496v2.858c0 .214-.1.38-.297.496a.618.618 0 0 1-.61.03l-1.593-.788v1.166c0 .33-.12.608-.359.831-.24.224-.537.336-.891.336Z" fill="#fff"/></symbol><symbol fill="none" viewBox="0 0 32 32" id="file_webp" xmlns="http://www.w3.org/2000/svg"><path d="M24.25 30H7.75c-.73 0-1.429-.295-1.945-.82A2.826 2.826 0 0 1 5 27.2V4.801c0-.742.29-1.455.805-1.98a2.725 2.725 0 0 1 1.945-.82h9.625a.14.14 0 0 1 .037 0h.008a.202.202 0 0 0 .04.009c.121.008.24.032.356.071h.058c.026.018.05.038.072.06.15.068.286.163.402.28l8.25 8.4c.116.119.209.258.276.41.012.03.022.061.031.092l.014.04c.038.116.06.238.067.36a.142.142 0 0 0 .01.041v.009c.002.009.004.018.004.028v15.4c0 .742-.29 1.454-.805 1.979a2.725 2.725 0 0 1-1.945.82ZM17.375 4.801v7h6.875l-6.875-7Z" fill="#332E2D"/><path d="m6.707 25-1.445-4.91h.988l.962 3.606h.048l.965-3.605h.987l.96 3.589h.047l.956-3.59h.987L10.721 25h-.975l-.997-3.544h-.074L7.678 25h-.971Zm7.788.1c-.483 0-.9-.104-1.25-.31a2.103 2.103 0 0 1-.804-.88c-.188-.38-.282-.823-.282-1.333 0-.502.094-.946.281-1.33.19-.383.454-.682.793-.897.341-.215.74-.323 1.195-.323.277 0 .546.046.806.137.26.092.493.236.7.432.206.196.37.45.489.764.119.31.179.689.179 1.134v.34h-3.903v-.717h2.966a1.41 1.41 0 0 0-.153-.668 1.159 1.159 0 0 0-.432-.463 1.206 1.206 0 0 0-.645-.17c-.269 0-.503.067-.703.199-.198.13-.352.3-.46.51-.107.21-.16.437-.16.682v.559c0 .328.057.607.172.837.117.23.28.406.49.528.208.119.452.179.731.179.181 0 .346-.026.495-.077a1.027 1.027 0 0 0 .636-.623l.905.163c-.073.266-.202.5-.39.7a1.89 1.89 0 0 1-.7.463 2.62 2.62 0 0 1-.956.163ZM17.2 25v-6.546h.955v2.433h.058c.055-.103.135-.22.24-.355.104-.134.249-.252.434-.352.186-.102.43-.153.735-.153.397 0 .75.1 1.061.3.311.2.555.49.732.866.18.378.269.831.269 1.362 0 .53-.089.986-.266 1.365-.176.377-.42.668-.728.872a1.887 1.887 0 0 1-1.058.304c-.298 0-.542-.05-.732-.15a1.386 1.386 0 0 1-.441-.352 2.66 2.66 0 0 1-.246-.358h-.08V25h-.933Zm.936-2.454c0 .345.05.647.15.907.1.26.245.463.435.61.19.146.422.218.697.218.285 0 .524-.076.716-.227.191-.153.336-.361.434-.623.1-.262.15-.557.15-.886 0-.323-.048-.614-.146-.872a1.336 1.336 0 0 0-.435-.61c-.192-.15-.432-.224-.72-.224-.276 0-.51.071-.702.214-.19.143-.334.342-.432.598a2.493 2.493 0 0 0-.147.895Zm4.08 4.295v-6.75h.934v.796h.08c.055-.103.135-.22.24-.355.104-.134.249-.252.434-.352.186-.102.43-.153.735-.153.397 0 .75.1 1.061.3.311.2.555.49.732.866.18.378.269.831.269 1.362 0 .53-.089.986-.265 1.365-.177.377-.42.668-.73.872a1.887 1.887 0 0 1-1.057.304c-.298 0-.542-.05-.732-.15a1.386 1.386 0 0 1-.441-.352 2.66 2.66 0 0 1-.246-.358h-.058v2.605h-.955Zm.937-4.296c0 .346.05.648.15.908.1.26.245.463.435.61.19.146.422.218.697.218.285 0 .524-.076.716-.227.192-.153.336-.361.434-.623.1-.262.15-.557.15-.886 0-.323-.048-.614-.146-.872a1.336 1.336 0 0 0-.435-.61c-.192-.15-.432-.224-.72-.224-.276 0-.51.071-.702.214-.19.143-.334.342-.432.598a2.493 2.493 0 0 0-.147.895Z" fill="#fff"/></symbol><symbol fill="none" viewBox="0 0 32 32" id="file_xls" xmlns="http://www.w3.org/2000/svg"><path d="M24.25 30H7.75c-.73 0-1.429-.295-1.945-.82A2.826 2.826 0 0 1 5 27.2V4.801c0-.742.29-1.455.805-1.98a2.725 2.725 0 0 1 1.945-.82h9.625a.14.14 0 0 1 .037 0h.008a.202.202 0 0 0 .04.009c.121.008.24.032.356.071h.058c.026.018.05.038.072.06.15.068.286.163.402.28l8.25 8.4c.116.119.209.258.276.41.012.03.022.061.031.092l.014.04c.038.116.06.238.067.36a.142.142 0 0 0 .01.041v.009c.002.009.004.018.004.028v15.4c0 .742-.29 1.454-.805 1.979a2.725 2.725 0 0 1-1.945.82ZM17.375 4.801v7h6.875l-6.875-7Z" fill="#332E2D"/><path d="m10.552 19.546 1.204 2.123 1.214-2.123h1.161l-1.7 2.727L14.145 25h-1.162l-1.228-2.038L10.53 25H9.367l1.697-2.727-1.676-2.727h1.165Zm5.231-1.819V25h-1.061v-7.273h1.061Zm5.016 3.15-.962.17a1.14 1.14 0 0 0-.192-.351.95.95 0 0 0-.348-.273 1.261 1.261 0 0 0-.55-.107c-.301 0-.552.068-.753.203-.201.132-.302.304-.302.514 0 .183.067.33.202.44.135.112.353.203.654.274l.866.199c.502.116.876.295 1.122.536.247.242.37.555.37.941 0 .327-.095.618-.284.874a1.86 1.86 0 0 1-.785.596c-.334.145-.721.217-1.161.217-.611 0-1.11-.13-1.495-.39-.386-.263-.623-.636-.71-1.12l1.026-.155c.064.267.195.47.394.607.199.135.458.202.778.202.348 0 .626-.072.834-.216.208-.147.313-.326.313-.537a.557.557 0 0 0-.192-.43c-.126-.115-.319-.203-.58-.262l-.922-.203c-.51-.116-.886-.3-1.13-.553-.241-.254-.362-.575-.362-.963 0-.322.09-.604.27-.845.18-.241.428-.43.746-.565.317-.137.68-.206 1.09-.206.59 0 1.053.128 1.392.384.339.253.562.593.671 1.02Z" fill="#fff"/></symbol><symbol fill="none" viewBox="0 0 32 32" id="file_xlsx" xmlns="http://www.w3.org/2000/svg"><path d="M24.25 30H7.75c-.73 0-1.429-.295-1.945-.82A2.826 2.826 0 0 1 5 27.2V4.801c0-.742.29-1.455.805-1.98a2.725 2.725 0 0 1 1.945-.82h9.625a.14.14 0 0 1 .037 0h.008a.202.202 0 0 0 .04.009c.121.008.24.032.356.071h.058c.026.018.05.038.072.06.15.068.286.163.402.28l8.25 8.4c.116.119.209.258.276.41.012.03.022.061.031.092l.014.04c.038.116.06.238.067.36a.142.142 0 0 0 .01.041v.009c.002.009.004.018.004.028v15.4c0 .742-.29 1.454-.805 1.979a2.725 2.725 0 0 1-1.945.82ZM17.375 4.801v7h6.875l-6.875-7Z" fill="#332E2D"/><path d="m8.552 19.546 1.204 2.123 1.214-2.123h1.161l-1.7 2.727L12.145 25h-1.162l-1.228-2.038L8.53 25H7.366l1.697-2.727-1.676-2.727h1.165Zm5.231-1.819V25h-1.061v-7.273h1.061Zm5.016 3.15-.962.17a1.14 1.14 0 0 0-.192-.351.95.95 0 0 0-.348-.273 1.261 1.261 0 0 0-.55-.107c-.301 0-.552.068-.753.203-.201.132-.302.304-.302.514 0 .183.067.33.202.44.135.112.353.203.654.274l.866.199c.502.116.876.295 1.122.536.247.242.37.555.37.941 0 .327-.095.618-.284.874a1.86 1.86 0 0 1-.785.596c-.334.145-.721.217-1.161.217-.611 0-1.11-.13-1.495-.39-.386-.263-.623-.636-.71-1.12l1.026-.155c.063.267.195.47.394.607.199.135.458.202.778.202.348 0 .626-.072.834-.216.208-.147.313-.326.313-.537a.557.557 0 0 0-.192-.43c-.126-.115-.319-.203-.58-.262l-.922-.203c-.51-.116-.886-.3-1.13-.553-.241-.254-.362-.575-.362-.963 0-.322.09-.604.27-.845.18-.241.428-.43.746-.565.317-.137.68-.206 1.09-.206.59 0 1.053.128 1.392.384.339.253.562.593.671 1.02Zm1.612-1.331 1.204 2.123 1.215-2.123h1.16l-1.7 2.727L24.005 25h-1.161l-1.229-2.038L20.39 25h-1.165l1.698-2.727-1.677-2.727h1.165Z" fill="#fff"/></symbol><symbol fill="none" viewBox="0 0 34 34" id="filter" xmlns="http://www.w3.org/2000/svg"><path fill-rule="evenodd" clip-rule="evenodd" d="M7.438 10.002c0-1.4 1.121-2.565 2.54-2.565h14.045c1.42 0 2.54 1.167 2.54 2.565v.884c0 .883-.336 1.733-.938 2.375l-4.578 4.868-.011.012a3.804 3.804 0 0 0-1.066 2.648v2.16c0 .835-.452 1.614-1.192 2.018l-2.608 1.421c-.985.535-2.122-.206-2.122-1.27V20.8a3.81 3.81 0 0 0-1.025-2.604 1.08 1.08 0 0 1-.07-.067l-4.576-4.867a3.47 3.47 0 0 1-.94-2.376v-.884Zm7.003 6.607.049.046a5.933 5.933 0 0 1 1.683 4.145v3.166l1.587-.864a.174.174 0 0 0 .085-.154v-2.16c0-1.537.594-3.018 1.66-4.12l4.57-4.86a1.35 1.35 0 0 0 .363-.922v-.884c0-.26-.203-.44-.415-.44H9.978a.429.429 0 0 0-.415.44v.884c0 .345.13.675.362.92l4.516 4.803Z" fill="currentColor"/></symbol><symbol fill="none" viewBox="0 0 15 13" id="folder" xmlns="http://www.w3.org/2000/svg"><path d="M1.346 13c-.384 0-.704-.143-.96-.429-.257-.287-.386-.643-.386-1.07V1.5C0 1.073.129.716.386.43.642.143.963 0 1.346 0h4.15l1.667 1.857h6.491c.383 0 .704.143.96.43.257.286.386.643.386 1.07V11.5c0 .428-.128.784-.385 1.07-.257.287-.578.43-.96.43H1.344Zm0-.929h12.308c.15 0 .272-.053.369-.16a.591.591 0 0 0 .144-.41V3.356a.591.591 0 0 0-.144-.41.473.473 0 0 0-.369-.161H6.83L5.162.929H1.346a.473.473 0 0 0-.369.16.591.591 0 0 0-.144.41V11.5c0 .167.048.304.145.41.096.108.218.161.368.161Z" fill="currentColor"/></symbol><symbol fill="none" viewBox="0 0 7 10" id="geo-point" xmlns="http://www.w3.org/2000/svg"><path d="M3.5 2.25a1.25 1.25 0 1 1 0 2.5 1.25 1.25 0 0 1 0-2.5ZM3.5 0A3.5 3.5 0 0 1 7 3.5C7 6.125 3.5 10 3.5 10S0 6.125 0 3.5A3.5 3.5 0 0 1 3.5 0Zm0 1A2.5 2.5 0 0 0 1 3.5C1 4 1 5 3.5 8.355 6 5 6 4 6 3.5A2.5 2.5 0 0 0 3.5 1Z" fill="currentColor"/></symbol><symbol fill="none" viewBox="0 0 20 22" id="hand" xmlns="http://www.w3.org/2000/svg"><path d="M17.504 16.63c-1.062 3.965-5.536 6.207-9.999 5.011-3.29-.882-5.77-3.459-6.264-6.504L.011 7.493a.832.832 0 0 1 .08-.513.896.896 0 0 1 .375-.378c.165-.09.357-.133.554-.125.198.008.392.066.56.168l.735.446c.522.313.883.823.973 1.376l.52 3.225a.517.517 0 0 0 .388.412l.424.113L7.444 1.68c.08-.298.289-.547.582-.694.293-.147.646-.179.98-.09.335.09.624.295.805.568a1.1 1.1 0 0 1 .157.892L7.985 9.755c-.067.25.102.508.385.583.283.076.558-.062.625-.313L11.458.833a1.1 1.1 0 0 1 .582-.694c.293-.147.646-.179.98-.09.335.09.624.295.805.568.18.274.237.595.157.892l-2.463 9.192c-.068.252.102.508.384.584.283.076.558-.062.625-.313l2.103-7.847c.08-.298.289-.547.582-.694.293-.147.646-.179.98-.09.335.09.624.295.805.568.18.274.237.595.157.892l-2.103 7.847c-.067.251.102.508.385.584.283.076.558-.062.625-.313l1.382-5.157c.08-.297.289-.547.582-.694.293-.146.645-.179.98-.089.335.09.624.294.804.568.18.273.237.594.157.891l-2.463 9.193Z" fill="currentColor"/></symbol><symbol fill="none" viewBox="0 0 19 19" id="hint" xmlns="http://www.w3.org/2000/svg"><circle cx="9.372" cy="9.372" r="8.872" stroke="#8C888A"/><path d="M8.162 11.209v-.275c0-.309.033-.584.1-.825.075-.242.183-.45.325-.625.15-.183.279-.32.387-.412.117-.1.275-.221.475-.363.2-.141.35-.254.45-.337.1-.092.196-.217.287-.375.092-.167.138-.35.138-.55 0-.333-.113-.6-.338-.8a1.153 1.153 0 0 0-.812-.312c-.316 0-.596.104-.837.312-.242.2-.367.48-.375.838H6.25c.008-.592.158-1.104.45-1.537.291-.442.654-.763 1.087-.963.433-.2.9-.3 1.4-.3.8 0 1.482.25 2.049.75.575.5.862 1.17.862 2.012 0 .283-.033.538-.1.762a1.566 1.566 0 0 1-.3.6 3.81 3.81 0 0 1-.362.4c-.1.092-.246.217-.438.375a7.027 7.027 0 0 0-.462.375c-.1.091-.2.225-.3.4a1.219 1.219 0 0 0-.137.575v.275H8.162Zm-.05 2.724v-1.95h1.937v1.95H8.112Z" fill="#8C888A"/></symbol><symbol fill="none" viewBox="0 0 97 97" id="inline-check" xmlns="http://www.w3.org/2000/svg"><path fill-rule="evenodd" clip-rule="evenodd" d="M17.323.2c-4.78.456-9.34 2.894-12.785 6.835-1.498 1.714-3.325 5.24-4.033 7.783L0 16.632v63.7l.505 1.814c2.266 8.141 8.843 13.767 17.08 14.611 3.147.323 58.553.324 61.698.002 2.848-.292 4.789-.873 7.285-2.179 4.476-2.342 8.012-6.613 9.494-11.465.877-2.869.938-5.132.938-34.633 0-29.5-.061-31.764-.938-34.632-1.482-4.852-5.018-9.123-9.494-11.466C84.072 1.078 82.13.498 79.283.205 76.648-.065 20.14-.07 17.322.2Zm52.855 29.898c2.4 1.23 3.385 4.35 2.07 6.562-.593.998-23.393 23.516-24.734 24.429-1.04.708-2.795.928-4.221.529-.956-.268-1.763-.969-7.21-6.269-3.539-3.444-6.349-6.365-6.643-6.906-1.225-2.25-.276-5.253 2.02-6.396 1.49-.743 3.008-.782 4.342-.113.547.275 2.663 2.172 4.949 4.435l3.993 3.956 10.253-10.004c5.639-5.501 10.581-10.146 10.982-10.32 1.078-.468 3.191-.42 4.199.097Z" fill="currentColor"/></symbol><symbol fill="none" viewBox="0 0 24 24" id="left-arrow" xmlns="http://www.w3.org/2000/svg"><path fill-rule="evenodd" clip-rule="evenodd" d="M14.78 17.03a.75.75 0 0 0 0-1.06L10.81 12l3.97-3.97a.75.75 0 0 0-1.06-1.06l-4.5 4.5a.75.75 0 0 0 0 1.06l4.5 4.5a.75.75 0 0 0 1.06 0Z" fill="#332E2D"/></symbol><symbol fill="none" viewBox="0 0 22 23" id="like" xmlns="http://www.w3.org/2000/svg"><path d="M18.069 11.9c.318-.408.494-.908.494-1.427 0-.824-.475-1.604-1.239-2.039a1.309 1.309 0 0 0-.648-.17h-4.534l.113-2.256a1.932 1.932 0 0 0-.557-1.457 2.017 2.017 0 0 0-.671-.455 2.068 2.068 0 0 0-.802-.158c-.983 0-1.853.642-2.114 1.561l-1.624 5.708H4.043a.596.596 0 0 0-.606.588v6.68c0 .325.27.587.606.587H15.41c.174 0 .344-.033.5-.099.9-.372 1.481-1.226 1.481-2.173 0-.23-.034-.459-.102-.679a2.317 2.317 0 0 0 .392-2.105c.317-.407.493-.906.493-1.426a2.438 2.438 0 0 0-.106-.68ZM4.799 17.74V12.53H6.33v5.212H4.8Zm12.032-6.479-.414.349.262.466c.087.154.132.326.13.501 0 .303-.135.591-.37.79l-.414.348.263.466c.087.154.132.326.13.501 0 .303-.136.591-.37.79l-.414.348.263.467c.086.153.131.325.13.5 0 .412-.25.782-.635.951H7.54V12.47l1.881-6.616a.809.809 0 0 1 .297-.427.85.85 0 0 1 .501-.166c.144 0 .286.04.4.123a.645.645 0 0 1 .275.56l-.181 3.64h5.944c.336.2.544.539.544.89 0 .302-.136.588-.37.788Z" fill="currentColor"/></symbol><symbol fill="none" viewBox="0 0 26 26" id="link" xmlns="http://www.w3.org/2000/svg"><path d="M12.188 17.063h-3.25c-1.124 0-2.083-.397-2.875-1.19-.793-.792-1.189-1.75-1.188-2.873 0-1.124.396-2.082 1.189-2.875.792-.792 1.75-1.188 2.873-1.188h3.25v1.626h-3.25a2.35 2.35 0 0 0-1.726.71A2.35 2.35 0 0 0 6.5 13c0 .677.237 1.253.71 1.727a2.35 2.35 0 0 0 1.728.71h3.25v1.626Zm-2.438-3.25v-1.626h6.5v1.626h-6.5Zm4.063 3.25v-1.625h3.25c.677 0 1.252-.238 1.726-.711.474-.474.711-1.05.711-1.727s-.237-1.253-.71-1.727a2.351 2.351 0 0 0-1.727-.71h-3.25V8.937h3.25c1.123 0 2.082.397 2.874 1.19.793.792 1.188 1.75 1.188 2.873 0 1.124-.396 2.082-1.189 2.875-.792.792-1.75 1.188-2.873 1.188h-3.25Z" fill="currentColor"/></symbol><symbol fill="none" viewBox="0 0 20 21" id="logout" xmlns="http://www.w3.org/2000/svg"><path d="M11.25 8V6.75A1.25 1.25 0 0 0 10 5.5H5.625a1.25 1.25 0 0 0-1.25 1.25v7.5a1.25 1.25 0 0 0 1.25 1.25H10a1.25 1.25 0 0 0 1.25-1.25V13" stroke="currentColor" stroke-width="1.5" stroke-linecap="round" stroke-linejoin="round"/><path d="M6.875 10.5h8.75L13.75 8.625m0 3.75 1.875-1.875" stroke="currentColor" stroke-width="1.5" stroke-linecap="round" stroke-linejoin="round"/></symbol><symbol fill="none" viewBox="0 0 24 24" id="logout2" xmlns="http://www.w3.org/2000/svg"><path d="m12 15 3-3m0 0-3-3m3 3H4m0-4.752V7.2c0-1.12 0-1.68.218-2.108.192-.377.497-.682.874-.874C5.52 4 6.08 4 7.2 4h9.6c1.12 0 1.68 0 2.107.218.377.192.683.497.875.874.218.427.218.987.218 2.105v9.607c0 1.118 0 1.677-.218 2.104a2.002 2.002 0 0 1-.875.874c-.427.218-.986.218-2.104.218H7.197c-1.118 0-1.678 0-2.105-.218a2 2 0 0 1-.874-.874C4 18.48 4 17.92 4 16.8v-.05" stroke="currentColor" stroke-width="2" stroke-linecap="round" stroke-linejoin="round"/></symbol><symbol fill="none" viewBox="0 0 12 19" id="medal" xmlns="http://www.w3.org/2000/svg"><path d="m8.178 11.268.99.099V19l-2.734-2.766v-4.4l.794.367.95-.933Zm-4.356 0-.99.099V19l2.733-2.766v-4.4l-.794.367-.95-.933Zm7.496-4.782.32 1.057-.961.614-.08 1.097-1.126.266-.47 1.004-1.154-.116-.805.789L6 10.715l-1.042.482-.805-.791L3 10.52l-.471-1.004-1.125-.263-.08-1.096-.965-.616.32-1.056L0 5.596l.682-.889-.323-1.054.962-.614.08-1.096L2.53 1.68l.47-1.004L4.154.79 4.958 0 6 .482 7.042 0l.805.79L9 .677l.471 1.004 1.125.265.08 1.096.962.614-.32 1.057.682.884-.682.89Zm-2.145-.89c0-.59-.185-1.167-.531-1.658A3.118 3.118 0 0 0 7.229 2.84a3.31 3.31 0 0 0-1.82-.17c-.61.115-1.171.4-1.612.817-.44.417-.74.949-.861 1.528a2.84 2.84 0 0 0 .179 1.724 3.025 3.025 0 0 0 1.16 1.339 3.274 3.274 0 0 0 1.749.503 3.244 3.244 0 0 0 2.225-.876c.59-.559.922-1.317.924-2.108Zm-3.15-2.16c-.45 0-.89.127-1.265.364a2.189 2.189 0 0 0-.84.97 2.055 2.055 0 0 0-.129 1.247c.088.419.305.804.624 1.106a2.32 2.32 0 0 0 1.166.59c.442.084.9.041 1.317-.122.416-.164.772-.44 1.023-.795a2.08 2.08 0 0 0 .384-1.2 2.109 2.109 0 0 0-.67-1.525 2.349 2.349 0 0 0-1.61-.633v-.002Z" fill="currentColor"/></symbol><symbol fill="none" viewBox="0 0 22 21" id="medal-outlined" xmlns="http://www.w3.org/2000/svg"><path d="M10.146 6.023C10.526 5.34 10.716 5 11 5c.284 0 .474.34.854 1.023l.098.176c.108.194.162.29.246.354.085.064.19.088.4.135l.19.044c.738.167 1.107.25 1.195.532.088.283-.164.577-.667 1.165l-.13.152c-.143.167-.215.25-.247.354-.032.104-.021.215 0 .438l.02.203c.076.785.114 1.178-.115 1.352-.23.174-.576.015-1.267-.303l-.178-.082c-.197-.09-.295-.135-.4-.135-.103 0-.201.045-.398.135l-.178.082c-.691.319-1.037.477-1.267.303-.23-.174-.191-.567-.115-1.352l.02-.203c.02-.223.032-.334 0-.438-.032-.103-.104-.187-.247-.354l-.13-.152c-.503-.588-.755-.882-.667-1.165.088-.282.457-.365 1.195-.532l.19-.044c.21-.047.315-.07.4-.135.084-.064.138-.16.246-.354l.098-.176Z" stroke="currentColor"/><path d="M18 8a7.002 7.002 0 0 1-9.679 6.467A7 7 0 1 1 18 8Z" stroke="currentColor"/><path d="m4.456 11-2.464 2.551c-.54.559-.81.839-.904 1.076-.213.539-.03 1.138.433 1.422.204.124.57.163 1.305.241.415.044.622.065.795.132a1.433 1.433 0 0 1 .835.864c.064.18.085.394.128.824.074.76.112 1.14.232 1.35.274.48.853.668 1.373.448.23-.096.5-.375 1.04-.935l3.77-3.905 3.772 3.905c.54.56.81.839 1.04.935.52.22 1.099.032 1.373-.448.12-.21.157-.59.232-1.35.043-.43.064-.644.128-.824.144-.402.446-.715.835-.864.173-.067.38-.088.795-.132.734-.078 1.1-.117 1.305-.241.463-.284.646-.883.433-1.422-.094-.237-.364-.517-.904-1.076L17.544 11" stroke="currentColor"/></symbol><symbol fill="none" viewBox="0 0 40 40" id="menu-burger" xmlns="http://www.w3.org/2000/svg"><path d="M6.667 30c-.473 0-.868-.16-1.187-.48A1.608 1.608 0 0 1 5 28.333c0-.472.16-.867.48-1.186.319-.32.714-.48 1.187-.48h26.666c.473 0 .868.16 1.187.48.32.319.48.714.48 1.186 0 .473-.16.868-.48 1.187-.319.32-.714.48-1.187.48H6.667Zm0-8.333c-.473 0-.868-.16-1.187-.48A1.609 1.609 0 0 1 5 20c0-.472.16-.868.48-1.188a1.611 1.611 0 0 1 1.187-.479h26.666c.473 0 .868.16 1.187.479.32.32.48.716.48 1.188s-.16.868-.48 1.187c-.319.32-.714.48-1.187.48H6.667Zm0-8.334c-.473 0-.868-.16-1.187-.478-.32-.32-.48-.716-.48-1.188 0-.473.16-.869.48-1.189A1.611 1.611 0 0 1 6.667 10h26.666c.473 0 .868.16 1.187.478.32.32.48.716.48 1.189 0 .472-.16.868-.48 1.188a1.611 1.611 0 0 1-1.187.478H6.667Z" fill="#332E2D"/></symbol><symbol fill="none" viewBox="0 0 40 40" id="menu-cross" xmlns="http://www.w3.org/2000/svg"><path d="M31.496 29.073a1.716 1.716 0 0 1 0 2.429 1.728 1.728 0 0 1-2.428 0L20 22.43l-9.068 9.07a1.728 1.728 0 0 1-2.428 0 1.714 1.714 0 0 1 0-2.428l9.068-9.07-9.068-9.072a1.717 1.717 0 0 1 2.428-2.428L20 17.573l9.068-9.07a1.717 1.717 0 1 1 2.428 2.428l-9.068 9.071 9.068 9.071Z" fill="#332E2D"/></symbol><symbol fill="none" viewBox="0 0 24 24" id="message" xmlns="http://www.w3.org/2000/svg"><path d="M13.783 18.267c3.363 0 5.045 0 6.089-1.045 1.045-1.044 1.045-2.726 1.045-6.088 0-3.363 0-5.045-1.045-6.089C18.828 4 17.146 4 13.783 4h-3.566C6.854 4 5.172 4 4.128 5.045 3.083 6.09 3.083 7.771 3.083 11.134c0 3.362 0 5.044 1.045 6.088.582.583 1.363.841 2.522.954" stroke="currentColor" stroke-width="1.5" stroke-linecap="round" stroke-linejoin="round"/><path d="M12 11.134v.009m-3.567-.01v.01m7.134-.01v.01" stroke="currentColor" stroke-width="2.5" stroke-linecap="round"/><path d="M13.783 18.267c-1.102 0-2.316.446-3.425 1.021-1.781.925-2.672 1.388-3.11 1.093-.44-.294-.357-1.209-.19-3.036l.037-.415" stroke="currentColor" stroke-width="1.5" stroke-linecap="round"/></symbol><symbol fill="none" viewBox="0 0 13 12" id="message-inline" xmlns="http://www.w3.org/2000/svg"><path d="M.5 1.842c0-.389.158-.762.44-1.037.28-.275.662-.43 1.06-.43h9c.398 0 .78.155 1.06.43.282.275.44.648.44 1.037v5.87c0 .39-.158.763-.44 1.038-.28.275-.662.43-1.06.43H9.125a.764.764 0 0 0-.6.293L7.1 11.331a.746.746 0 0 1-.6.294.763.763 0 0 1-.6-.293L4.475 9.473a.746.746 0 0 0-.6-.293H2c-.398 0-.78-.155-1.06-.43A1.451 1.451 0 0 1 .5 7.712v-5.87Zm3.75 2.935a.726.726 0 0 0-.22-.519.759.759 0 0 0-1.06 0 .726.726 0 0 0 0 1.038.759.759 0 0 0 1.06 0 .726.726 0 0 0 .22-.519Zm3 0a.726.726 0 0 0-.22-.519.759.759 0 0 0-1.06 0 .726.726 0 0 0 0 1.038.759.759 0 0 0 1.06 0 .726.726 0 0 0 .22-.519Zm2.25.734c.199 0 .39-.077.53-.215a.726.726 0 0 0 0-1.038.758.758 0 0 0-1.06 0 .726.726 0 0 0 0 1.038c.14.138.331.215.53.215Z" fill="currentColor"/></symbol><symbol fill="none" viewBox="0 0 24 24" id="people" xmlns="http://www.w3.org/2000/svg"><path d="M17.888 10.897a2.875 2.875 0 0 0 2.472-2.841 2.875 2.875 0 0 0-2.406-2.836M19.729 14.25c1.35.202 2.294.675 2.294 1.65 0 .671-.445 1.107-1.163 1.381" stroke="currentColor" stroke-width="1.5" stroke-linecap="round" stroke-linejoin="round"/><path clip-rule="evenodd" d="M11.887 14.664c-3.214 0-5.96.487-5.96 2.432 0 1.944 2.729 2.445 5.96 2.445 3.214 0 5.958-.482 5.958-2.428s-2.727-2.45-5.958-2.45ZM11.887 11.888a3.819 3.819 0 1 0-3.82-3.82 3.804 3.804 0 0 0 3.792 3.82h.028Z" stroke="currentColor" stroke-width="1.5" stroke-linecap="round" stroke-linejoin="round"/><path d="M5.885 10.897a2.875 2.875 0 0 1-2.472-2.841A2.875 2.875 0 0 1 5.819 5.22M4.044 14.25c-1.351.202-2.294.675-2.294 1.65 0 .671.444 1.107 1.162 1.381" stroke="currentColor" stroke-width="1.5" stroke-linecap="round" stroke-linejoin="round"/></symbol><symbol fill="none" viewBox="0 0 24 18" id="people-bold" xmlns="http://www.w3.org/2000/svg"><path d="M17.888 7.898a2.876 2.876 0 0 0 2.472-2.841 2.875 2.875 0 0 0-2.406-2.836M19.729 11.25c1.35.202 2.294.675 2.294 1.65 0 .671-.445 1.107-1.163 1.381" stroke="currentColor" stroke-width="2" stroke-linecap="round" stroke-linejoin="round"/><path clip-rule="evenodd" d="M11.887 11.664c-3.214 0-5.96.487-5.96 2.432 0 1.944 2.729 2.445 5.96 2.445 3.214 0 5.958-.482 5.958-2.428s-2.727-2.449-5.958-2.449ZM11.886 8.888a3.819 3.819 0 1 0-3.819-3.819 3.804 3.804 0 0 0 3.791 3.819h.028Z" stroke="currentColor" stroke-width="2" stroke-linecap="round" stroke-linejoin="round"/><path d="M5.885 7.898a2.875 2.875 0 0 1-2.472-2.841A2.875 2.875 0 0 1 5.82 2.22M4.044 11.25c-1.351.202-2.294.675-2.294 1.65 0 .671.444 1.107 1.162 1.381" stroke="currentColor" stroke-width="2" stroke-linecap="round" stroke-linejoin="round"/></symbol><symbol fill="none" viewBox="0 0 24 18" id="people-filled" xmlns="http://www.w3.org/2000/svg"><path fill-rule="evenodd" clip-rule="evenodd" d="M16.536 4.762c0 2.643-2.043 4.763-4.592 4.763-2.548 0-4.592-2.12-4.592-4.763C7.352 2.118 9.396 0 11.944 0c2.549 0 4.592 2.118 4.592 4.762ZM11.945 18c-3.743 0-6.94-.612-6.94-3.06s3.176-3.083 6.94-3.083c3.743 0 6.939.612 6.939 3.061 0 2.448-3.176 3.082-6.94 3.082Zm6.554-13.152a6.63 6.63 0 0 1-1.074 3.646.18.18 0 0 0 .117.275c.17.03.347.047.527.053a3.85 3.85 0 0 0 3.846-2.95C22.573 3.196 20.64.794 18.179.794c-.268 0-.524.03-.773.082-.034.008-.07.025-.09.056-.023.038-.006.09.018.124a6.673 6.673 0 0 1 1.165 3.792Zm2.968 5.853c1.205.245 1.997.743 2.325 1.468a2.224 2.224 0 0 1 0 1.878c-.502 1.124-2.12 1.484-2.75 1.578-.13.02-.234-.097-.22-.231.32-3.114-2.235-4.59-2.897-4.93-.028-.015-.034-.038-.031-.052.002-.01.014-.027.035-.03 1.431-.027 2.97.176 3.538.32ZM5.931 8.822c.18-.005.356-.02.528-.052a.18.18 0 0 0 .116-.275 6.63 6.63 0 0 1-1.073-3.646c0-1.406.426-2.717 1.165-3.792.023-.034.04-.086.018-.124-.02-.03-.057-.048-.09-.056A3.729 3.729 0 0 0 5.82.794c-2.462 0-4.395 2.402-3.735 5.078a3.85 3.85 0 0 0 3.845 2.95Zm.175 1.59c.003.016-.003.038-.03.054-.663.34-3.22 1.816-2.898 4.928.014.136-.09.252-.22.232-.629-.093-2.247-.454-2.75-1.577a2.217 2.217 0 0 1 0-1.879c.329-.724 1.12-1.223 2.325-1.468.57-.143 2.107-.345 3.539-.318a.04.04 0 0 1 .034.029Z" fill="currentColor"/></symbol><symbol fill="none" viewBox="0 0 25 24" id="person" xmlns="http://www.w3.org/2000/svg"><path fill-rule="evenodd" clip-rule="evenodd" d="M15.974 8.821c0 1.983-1.545 3.573-3.474 3.573-1.928 0-3.474-1.59-3.474-3.573 0-1.982 1.546-3.571 3.474-3.571 1.929 0 3.474 1.589 3.474 3.571ZM12.5 18.75c-2.847 0-5.25-.476-5.25-2.312 0-1.837 2.419-2.296 5.25-2.296 2.847 0 5.25.476 5.25 2.312 0 1.837-2.419 2.296-5.25 2.296Z" fill="currentColor"/></symbol><symbol fill="none" viewBox="0 0 24 24" id="pin" xmlns="http://www.w3.org/2000/svg"><path d="M17.886 9.067 15.66 6.988c-1.522-1.422-2.282-2.132-3.1-1.964-.817.168-1.186 1.112-1.927 2.999L10.133 9.3c-.198.503-.297.754-.475.95-.08.087-.17.165-.27.232-.222.149-.498.22-1.05.362-1.247.32-1.87.481-2.105.862a1.017 1.017 0 0 0-.153.541c.003.44.46.866 1.373 1.72l1.063.992-3.36 3.139a.516.516 0 0 0-.156.375c.002.139.062.272.168.37a.594.594 0 0 0 .397.157c.15.002.293-.05.402-.146l3.359-3.138 1.1 1.028c.92.859 1.38 1.289 1.854 1.289.199 0 .395-.048.568-.14.411-.22.584-.805.93-1.977.152-.515.227-.772.387-.98.07-.09.15-.173.241-.247.207-.166.475-.26 1.01-.448l1.384-.486c2-.7 3-1.051 3.175-1.811.176-.761-.578-1.467-2.09-2.877Z" fill="#6C27FF"/></symbol><symbol fill="none" viewBox="0 0 19 19" id="plus" xmlns="http://www.w3.org/2000/svg"><path fill-rule="evenodd" clip-rule="evenodd" d="M9.5.219c.57 0 1.031.461 1.031 1.031v7.219h7.219a1.031 1.031 0 0 1 0 2.062h-7.219v7.219a1.031 1.031 0 0 1-2.062 0v-7.219H1.25a1.031 1.031 0 1 1 0-2.062h7.219V1.25C8.469.68 8.93.219 9.5.219Z" fill="currentColor"/></symbol><symbol fill="none" viewBox="0 0 21 16" id="program" xmlns="http://www.w3.org/2000/svg"><path d="M1 4.25V4.2c0-1.12 0-1.68.23-2.108.203-.377.525-.682.922-.874C2.604 1 3.196 1 4.378 1h12.244c1.183 0 1.773 0 2.225.218.397.192.72.497.923.874.23.427.23.987.23 2.105v7.606c0 1.118 0 1.677-.23 2.104a2.062 2.062 0 0 1-.923.875c-.451.218-1.042.218-2.222.218h-4.014m-9.5 0c0-1.105-.945-2-2.111-2m5.278 2c0-2.761-2.363-5-5.278-5m8.444 5c0-4.418-3.78-8-8.444-8" stroke="currentColor" stroke-width="2" stroke-linecap="round" stroke-linejoin="round"/></symbol><symbol fill="none" viewBox="0 0 24 24" id="projects" xmlns="http://www.w3.org/2000/svg"><path clip-rule="evenodd" d="M3 6.5C3 3.875 3.028 3 6.5 3s3.5.875 3.5 3.5.011 3.5-3.5 3.5S3 9.125 3 6.5ZM14 6.5c0-2.625.028-3.5 3.5-3.5s3.5.875 3.5 3.5.011 3.5-3.5 3.5S14 9.125 14 6.5ZM3 17.5c0-2.625.028-3.5 3.5-3.5s3.5.875 3.5 3.5.011 3.5-3.5 3.5S3 20.125 3 17.5ZM14 17.5c0-2.625.028-3.5 3.5-3.5s3.5.875 3.5 3.5.011 3.5-3.5 3.5-3.5-.875-3.5-3.5Z" stroke="currentColor" stroke-width="1.5" stroke-linecap="round" stroke-linejoin="round"/></symbol><symbol fill="none" viewBox="0 0 20 20" id="projects-filled" xmlns="http://www.w3.org/2000/svg"><path fill-rule="evenodd" clip-rule="evenodd" d="M1 4.5C1 1.875 1.028 1 4.5 1S8 1.875 8 4.5 8.011 8 4.5 8 1 7.125 1 4.5ZM12 4.5c0-2.625.028-3.5 3.5-3.5s3.5.875 3.5 3.5.011 3.5-3.5 3.5S12 7.125 12 4.5ZM1 15.5c0-2.625.028-3.5 3.5-3.5s3.5.875 3.5 3.5.011 3.5-3.5 3.5S1 18.125 1 15.5ZM12 15.5c0-2.625.028-3.5 3.5-3.5s3.5.875 3.5 3.5.011 3.5-3.5 3.5-3.5-.875-3.5-3.5Z" fill="currentColor" stroke="currentColor" stroke-width="1.5" stroke-linecap="round" stroke-linejoin="round"/></symbol><symbol fill="none" viewBox="0 0 16 17" id="reload" xmlns="http://www.w3.org/2000/svg"><path d="M12.627 9.11a4.667 4.667 0 1 1-5.79-5.127c2.275-.584 4.63.587 5.498 2.769" stroke="currentColor" stroke-width="1.5" stroke-linecap="round" stroke-linejoin="round"/><path d="M12.666 3.835v2.917H9.749" stroke="currentColor" stroke-width="1.5" stroke-linecap="round" stroke-linejoin="round"/></symbol><symbol fill="none" viewBox="0 0 24 25" id="reply" xmlns="http://www.w3.org/2000/svg"><path d="M13 14.5h2a8.999 8.999 0 0 1 7.968 4.81c.021-.27.032-.54.032-.81 0-5.523-4.477-10-10-10v-5l-10 8 10 8v-5Z" fill="currentColor"/></symbol><symbol fill="none" viewBox="0 0 32 32" id="search" xmlns="http://www.w3.org/2000/svg"><path fill-rule="evenodd" clip-rule="evenodd" d="M15.664 9C11.961 9 9 11.925 9 15.482c0 3.557 2.96 6.482 6.664 6.482 3.704 0 6.665-2.925 6.665-6.482 0-3.557-2.961-6.482-6.665-6.482ZM7 15.482C7 10.775 10.902 7 15.664 7c4.763 0 8.665 3.775 8.665 8.482a8.334 8.334 0 0 1-2.035 5.461l2.404 2.34a1 1 0 0 1-1.396 1.433L20.82 22.3a8.757 8.757 0 0 1-5.156 1.665C10.902 23.964 7 20.189 7 15.482Z" fill="currentColor"/></symbol><symbol fill="none" viewBox="0 0 20 20" id="search-sidebar" xmlns="http://www.w3.org/2000/svg"><path fill-rule="evenodd" clip-rule="evenodd" d="M9.643 2.563c-3.935 0-7.08 3.107-7.08 6.887 0 3.78 3.145 6.887 7.08 6.887s7.081-3.108 7.081-6.887c0-3.78-3.146-6.887-7.08-6.887ZM.437 9.45C.438 4.448 4.583.438 9.643.438s9.206 4.01 9.206 9.012a8.855 8.855 0 0 1-2.161 5.802l2.553 2.487a1.062 1.062 0 1 1-1.482 1.522l-2.638-2.568a9.305 9.305 0 0 1-5.478 1.768c-5.06 0-9.206-4.01-9.206-9.011Z" fill="currentColor"/></symbol><symbol fill="none" viewBox="0 0 24 24" id="send" xmlns="http://www.w3.org/2000/svg"><path fill-rule="evenodd" clip-rule="evenodd" d="M4.112 3.858a.75.75 0 0 1 .736-.023l14.338 7.5a.75.75 0 0 1 0 1.33l-14.338 7.5A.75.75 0 0 1 3.75 19.5v-5.94a.75.75 0 0 1 .568-.728l6.477-.869L4.3 11a.75.75 0 0 1-.551-.723V4.5a.75.75 0 0 1 .362-.642Z" fill="currentColor"/></symbol><symbol fill="none" viewBox="0 0 40 40" id="settings" xmlns="http://www.w3.org/2000/svg"><path fill-rule="evenodd" clip-rule="evenodd" d="M29.397 21.777c.4.214.709.552.926.89.423.697.389 1.552-.023 2.305l-.8 1.35a2.38 2.38 0 0 1-2.023 1.17c-.4 0-.846-.112-1.211-.337-.298-.191-.64-.259-1.006-.259a2.14 2.14 0 0 0-2.115 2.048c0 1.294-1.051 2.306-2.366 2.306h-1.554c-1.326 0-2.378-1.012-2.378-2.306-.022-1.114-.971-2.048-2.103-2.048-.377 0-.72.068-1.005.259a2.407 2.407 0 0 1-1.212.337c-.823 0-1.612-.45-2.034-1.17l-.79-1.35c-.422-.73-.445-1.608-.022-2.306.183-.337.526-.675.914-.889.32-.157.526-.416.72-.72.572-.967.229-2.238-.742-2.812a2.307 2.307 0 0 1-.846-3.184l.765-1.327a2.368 2.368 0 0 1 3.224-.855c.994.54 2.286.18 2.869-.777.182-.315.285-.652.262-.99a2.016 2.016 0 0 1 .32-1.192 2.452 2.452 0 0 1 2.024-1.17h1.611c.846 0 1.612.473 2.035 1.17.205.338.343.754.308 1.193-.023.337.08.675.263.99.583.956 1.875 1.316 2.88.776a2.355 2.355 0 0 1 3.212.855l.766 1.327a2.288 2.288 0 0 1-.846 3.184c-.971.574-1.314 1.845-.731 2.813.183.303.388.562.708.72Zm-12.63-1.766c0 1.766 1.452 3.173 3.246 3.173 1.795 0 3.212-1.407 3.212-3.173s-1.417-3.184-3.212-3.184c-1.794 0-3.246 1.418-3.246 3.184Z" fill="currentColor"/></symbol><symbol fill="none" viewBox="0 0 22 23" id="share" xmlns="http://www.w3.org/2000/svg"><path fill-rule="evenodd" clip-rule="evenodd" d="M14.438 7.375a.687.687 0 1 0 0 1.375.687.687 0 0 0 0-1.375Zm-2.063.688a2.062 2.062 0 1 1 .63 1.484L9.61 11.245a2.084 2.084 0 0 1 0 .51l3.397 1.698a2.062 2.062 0 1 1-.615 1.23l-3.397-1.698a2.062 2.062 0 1 1 0-2.969l3.397-1.699a2.08 2.08 0 0 1-.016-.255Zm-4.813 2.75a.687.687 0 1 0 0 1.374.687.687 0 0 0 0-1.374Zm6.875 3.437a.687.687 0 1 0 0 1.375.687.687 0 0 0 0-1.375Z" fill="currentColor"/></symbol><symbol viewBox="0 0 24 24" id="spinner" xmlns="http://www.w3.org/2000/svg"><path fill="none" stroke="currentColor" stroke-dasharray="15" stroke-dashoffset="15" stroke-linecap="round" stroke-width="2" d="M12 3a9 9 0 0 1 9 9"><animate fill="freeze" attributeName="stroke-dashoffset" dur="0.3s" values="15;0"/><animateTransform attributeName="transform" dur="1.5s" repeatCount="indefinite" type="rotate" values="0 12 12;360 12 12"/></path></symbol><symbol fill="none" viewBox="0 0 14 13" id="star" xmlns="http://www.w3.org/2000/svg"><path fill-rule="evenodd" clip-rule="evenodd" d="M7 .75c.238 0 .455.135.56.348l1.593 3.228 3.562.517a.625.625 0 0 1 .346 1.066l-2.577 2.512.608 3.547a.625.625 0 0 1-.906.66L7 10.952l-3.186 1.674a.625.625 0 0 1-.906-.659l.608-3.547L.939 5.91a.625.625 0 0 1 .346-1.066l3.562-.517L6.44 1.098A.625.625 0 0 1 7 .75Z" fill="currentColor"/></symbol><symbol fill="none" viewBox="0 0 14 12" id="telegram" xmlns="http://www.w3.org/2000/svg"><path d="M12.777.478.957 5.036C.15 5.36.155 5.81.809 6.01l3.034.946 7.022-4.43c.332-.202.635-.093.386.128L5.56 7.79l-.208 3.129c.306 0 .442-.14.614-.307L7.44 9.178l3.066 2.264c.565.312.97.152 1.112-.523l2.012-9.485c.206-.826-.315-1.2-.854-.956Z" fill="currentColor"/></symbol><symbol fill="none" viewBox="0 0 22 17" id="two-people" xmlns="http://www.w3.org/2000/svg"><path d="M20.66 16c0-1.742-1.81-3.223-4.339-3.773M14.151 16c0-2.21-2.913-4-6.508-4s-6.51 1.79-6.51 4m13.019-7c2.396 0 4.339-1.79 4.339-4s-1.943-4-4.34-4M7.644 9c-2.397 0-4.34-1.79-4.34-4s1.943-4 4.34-4c2.396 0 4.339 1.79 4.339 4s-1.943 4-4.34 4Z" stroke="currentColor" stroke-width="2" stroke-linecap="round" stroke-linejoin="round"/></symbol><symbol fill="none" viewBox="0 0 60 60" id="upload" xmlns="http://www.w3.org/2000/svg"><path d="M18.75 45c-1.031 0-1.914-.367-2.648-1.1C15.367 43.163 15 42.28 15 41.25V37.5c0-.531.18-.977.538-1.337.36-.359.806-.538 1.337-.538.531 0 .977.18 1.337.538.359.36.538.806.538 1.337v3.75h22.5V37.5c0-.531.18-.977.54-1.337.359-.359.804-.538 1.335-.538.531 0 .976.18 1.335.538.36.36.54.806.54 1.337v3.75c0 1.031-.367 1.914-1.1 2.65-.736.733-1.619 1.1-2.65 1.1h-22.5Z" fill="currentColor"/><path d="M30.703 15.118A2.061 2.061 0 0 0 30 15c-.25 0-.484.04-.703.118-.219.078-.422.21-.61.398l-6.75 6.75c-.343.343-.515.78-.515 1.312 0 .531.172.969.515 1.313.344.343.79.523 1.335.54.548.015.994-.15 1.337-.494l3.516-3.515v13.406c0 .531.18.977.538 1.337.36.359.806.538 1.337.538.531 0 .976-.18 1.335-.538.36-.36.54-.806.54-1.337V21.422l3.516 3.515c.343.344.789.509 1.337.494.546-.017.99-.197 1.334-.54.344-.344.516-.782.516-1.313 0-.531-.172-.969-.516-1.312l-6.75-6.75a1.634 1.634 0 0 0-.609-.398Z" fill="currentColor"/></symbol><symbol fill="none" viewBox="0 0 22 23" id="views" xmlns="http://www.w3.org/2000/svg"><path d="M11 9.025c.646 0 1.267.26 1.724.725.457.464.713 1.094.713 1.75 0 .656-.256 1.286-.713 1.75a2.42 2.42 0 0 1-1.724.725 2.42 2.42 0 0 1-1.724-.725 2.495 2.495 0 0 1-.713-1.75c0-.656.256-1.286.713-1.75A2.419 2.419 0 0 1 11 9.025Zm0-3.713c4.063 0 7.532 2.566 8.938 6.188-1.406 3.622-4.875 6.188-8.938 6.188-4.063 0-7.532-2.566-8.938-6.188C3.468 7.878 6.939 5.312 11 5.312ZM3.834 11.5a8.06 8.06 0 0 0 2.943 3.31A7.89 7.89 0 0 0 11 16.04a7.89 7.89 0 0 0 4.223-1.228 8.06 8.06 0 0 0 2.943-3.311 8.06 8.06 0 0 0-2.943-3.31A7.89 7.89 0 0 0 11 6.96 7.89 7.89 0 0 0 6.777 8.19 8.06 8.06 0 0 0 3.834 11.5Z" fill="currentColor"/></symbol><symbol fill="none" viewBox="0 0 14 9" id="vk" xmlns="http://www.w3.org/2000/svg"><path d="M2.302 0H0c.11 5.242 2.73 8.392 7.325 8.392h.26v-3c1.69.169 2.966 1.404 3.478 3h2.386c-.655-2.386-2.377-3.705-3.452-4.209C11.072 3.562 12.584 2.05 12.945 0h-2.167c-.47 1.663-1.865 3.175-3.192 3.318V0H5.418v5.813C4.074 5.477 2.378 3.847 2.302 0Z" fill="currentColor"/></symbol><symbol fill="none" viewBox="0 0 20 20" id="work" xmlns="http://www.w3.org/2000/svg"><path d="M.836 18.334h18.333M16.484 18.342v-3.717M14.664 10.908v1.891c0 1.017.817 1.834 1.833 1.834a1.828 1.828 0 0 0 1.834-1.834v-1.891a1.828 1.828 0 0 0-1.834-1.834 1.828 1.828 0 0 0-1.833 1.834ZM1.75 18.333V5.025c0-1.676.833-2.517 2.492-2.517h5.191c1.659 0 2.484.841 2.484 2.516v13.309M4.836 6.875H8.96M4.836 10H8.96M6.875 18.334v-3.125" stroke="#fff" stroke-width="1.5" stroke-linecap="round" stroke-linejoin="round"/></symbol></svg>