<svg width="170" height="174" viewBox="0 0 170 174" fill="none" xmlns="http://www.w3.org/2000/svg">
<path d="M79.4558 88.8831C78.7047 88.9709 77.9473 88.9904 77.1927 88.9413C76.4356 88.9597 75.6784 88.9116 74.9297 88.7977C75.6822 88.7124 76.4407 88.6929 77.1966 88.7395C77.9524 88.7207 78.7084 88.7688 79.4558 88.8831Z" fill="#263238"/>
<path d="M7.64062 87.1473C7.64062 87.1473 9.14673 95.6871 10.5713 97.4882C11.9959 99.2893 12.9004 104.945 12.9004 104.945L24.5455 100.749L23.7692 96.4789L24.4795 85.6761C24.4795 85.6761 20.4891 79.0189 20.6444 79.248C20.7997 79.477 7.64062 87.1473 7.64062 87.1473Z" fill="white"/>
<path d="M12.916 104.939C12.916 104.885 11.9766 99.2797 10.587 97.4902C9.84942 96.5508 9.09248 93.787 8.58786 91.6327C8.03666 89.3036 7.66013 87.1648 7.65625 87.1415C7.69119 87.1415 10.9596 85.2201 14.1814 83.3025C19.8099 79.9487 20.6717 79.3198 20.6794 79.2461C20.6794 79.2461 20.6794 79.2461 20.6988 79.2461C20.8696 79.5605 24.4913 85.6082 24.5301 85.6703L23.8042 96.4654L24.5806 100.735L12.916 104.939ZM7.65625 87.1493C7.70671 87.4288 9.20894 95.7123 10.5831 97.4785C11.3206 98.4179 11.9184 100.398 12.291 101.892C12.6637 103.387 12.9082 104.792 12.9315 104.931L24.5767 100.739L23.8003 96.4693L24.5068 85.6703C24.4641 85.5927 23.517 84.0167 22.5853 82.4563C22.0264 81.5247 21.5839 80.7794 21.2656 80.2437C21.0754 79.9293 20.9317 79.6808 20.8308 79.5139C20.7299 79.347 20.7027 79.3004 20.6833 79.2616C20.299 79.774 8.25792 86.7844 7.65625 87.1493Z" fill="#B0B0B0"/>
<path d="M46.0313 83.5273C46.0313 83.5273 40.0108 85.3712 39.083 91.71C38.6522 94.6446 34.2581 121.677 34.2581 121.677L27.4495 102.346L9.57031 108.976C9.57031 108.976 16.0838 129.006 16.472 130.182C19.8181 139.948 22.6012 153.709 37.8215 152.176C53.6434 150.576 50.67 119.837 50.67 119.837L46.0313 83.5273Z" fill="#455A64"/>
<path d="M107.732 6.04528L0.0664062 98.5547L0.984693 99.6234L108.651 7.11402L107.732 6.04528Z" fill="#E0E0E0"/>
<path d="M0.982075 99.6237C1.0257 99.573 1.07377 99.5262 1.1257 99.484L1.54104 99.0958L3.17136 97.6557L9.43258 92.1941L32.4356 72.2615C51.8559 55.4769 78.6592 32.338 108.382 6.79627L108.335 7.38241L107.423 6.31882L108.005 6.3654C51.5686 54.852 5.08506 94.5736 0.0931634 98.5873V98.5291C0.458045 98.9794 0.6793 99.2472 0.811278 99.4063C0.87088 99.4757 0.926606 99.5482 0.978195 99.6237C0.978195 99.6237 0.939379 99.5927 0.803519 99.4452L0.0271749 98.5834L0 98.5524L0.0310545 98.5252C4.75899 94.1932 51.0213 54.2231 107.462 5.73656L107.776 5.46484L108.048 5.77926L108.96 6.83897L109.232 7.15339L108.917 7.42511C79.0667 33.0716 52.0383 56.1873 32.5172 72.8437L9.42094 92.5202C6.70373 94.822 4.59208 96.6115 3.15584 97.8226L1.5294 99.1812C1.35748 99.3413 1.17459 99.4891 0.982075 99.6237Z" fill="#263238"/>
<path d="M20.3548 72.8563C20.4673 72.9262 22.0394 74.4828 23.5533 75.6861C25.0672 76.8894 25.5368 76.9748 25.9561 78.7915C26.3753 80.6081 27.0624 86.5122 26.8877 87.832C26.713 89.1518 22.2063 97.7071 22.2063 97.7071C22.2063 97.7071 17.9132 99.2598 17.6181 93.573C17.3231 87.8863 22.2762 84.2569 22.2762 84.2569L21.6163 79.8706C21.6163 79.8706 19.2252 77.5881 18.9535 75.756C18.6817 73.9238 19.4891 72.3284 20.3548 72.8563Z" fill="white"/>
<path d="M10.8104 84.048C8.93163 83.1048 8.09318 84.1412 7.76323 84.7428C7.45395 85.3711 7.38894 86.0918 7.58079 86.7652C7.76351 87.3896 8.07713 87.9678 8.50076 88.4615C9.04421 89.137 9.72738 89.7309 10.5348 89.7852C11.3422 89.8395 12.3204 88.8342 12.4213 87.8715" fill="white"/>
<path d="M12.4207 87.8847C12.4207 87.8847 12.4207 87.9313 12.4207 88.0167C12.4071 88.1493 12.3772 88.2797 12.3314 88.4048C12.1694 88.8527 11.8841 89.2456 11.5085 89.5383C11.2472 89.7572 10.9212 89.8841 10.5808 89.8993C10.1968 89.8818 9.82439 89.7625 9.50163 89.5538C9.15344 89.3269 8.8408 89.0495 8.5739 88.7309C8.27577 88.3998 8.01539 88.0366 7.79756 87.6479C7.58246 87.2698 7.4452 86.8524 7.39387 86.4204C7.34254 85.9885 7.37817 85.5506 7.49867 85.1326C7.59741 84.7876 7.78257 84.4736 8.03663 84.2202C8.29068 83.9668 8.60521 83.7825 8.95043 83.6847C9.41986 83.5921 9.90644 83.6463 10.344 83.8399C10.4612 83.8869 10.5753 83.9413 10.6856 84.003C10.7632 84.0457 10.802 84.0728 10.7981 84.0767C10.6341 84.0335 10.4733 83.979 10.3168 83.9137C9.89087 83.7567 9.42901 83.7244 8.98537 83.8205C8.67034 83.9217 8.38562 84.1001 8.15714 84.3394C7.92867 84.5787 7.76368 84.8714 7.67722 85.1908C7.56948 85.5845 7.54043 85.9956 7.59171 86.4006C7.643 86.8055 7.77363 87.1964 7.97612 87.5509C8.18462 87.9205 8.43045 88.2678 8.70976 88.5873C8.96564 88.8861 9.26226 89.1474 9.59092 89.3636C9.88264 89.5611 10.2215 89.6776 10.573 89.7013C10.8777 89.6897 11.1711 89.5824 11.4114 89.3947C11.7764 89.1242 12.0641 88.7629 12.246 88.3466C12.3858 88.0632 12.4013 87.8808 12.4207 87.8847Z" fill="#B0B0B0"/>
<path d="M13.2589 80.3519C12.7533 80.148 12.2066 80.0669 11.6636 80.1151C11.3709 80.1561 11.0925 80.2676 10.8525 80.4401C10.6124 80.6125 10.4179 80.8406 10.2855 81.1049C10.0818 81.6158 10.0136 82.1708 10.0876 82.7158C10.2855 85.2234 11.4384 87.5253 13.1541 88.9033C13.3887 89.0988 13.6825 89.209 13.9878 89.216C14.293 89.2231 14.5916 89.1265 14.8349 88.9421C15.1765 88.6898 15.5065 88.3288 15.7704 86.8266" fill="white"/>
<path d="M15.7677 86.8243C15.777 86.8796 15.777 86.936 15.7677 86.9912C15.7677 87.0999 15.7289 87.2591 15.6862 87.4609C15.6357 87.7098 15.5643 87.9539 15.4727 88.1907C15.3586 88.5177 15.1473 88.8022 14.8671 89.0058C14.6962 89.1342 14.4987 89.2225 14.289 89.2642C14.0794 89.3059 13.863 89.2998 13.656 89.2465C13.4274 89.1861 13.2161 89.0731 13.0388 88.9166C12.8519 88.7643 12.6731 88.6024 12.5032 88.4313C11.7515 87.6648 11.1521 86.7625 10.737 85.7724C10.3206 84.7851 10.0701 83.7359 9.99558 82.667C9.94602 82.194 9.99357 81.7158 10.1353 81.2618C10.2756 80.8642 10.5501 80.5279 10.9117 80.3108C11.207 80.1326 11.5449 80.0374 11.8899 80.0352C12.1453 80.034 12.3999 80.0666 12.6468 80.1322C12.8007 80.1734 12.9523 80.2226 13.101 80.2797C13.2045 80.3186 13.2549 80.3418 13.2523 80.3496C13.2523 80.3496 13.0311 80.2914 12.6313 80.2099C12.0748 80.0655 11.484 80.1449 10.9854 80.4311C10.6567 80.6369 10.4087 80.9494 10.2828 81.3162C10.1554 81.7491 10.1171 82.2033 10.1703 82.6515C10.2523 83.6991 10.5027 84.7267 10.9117 85.6947C11.3164 86.6668 11.8982 87.5553 12.6274 88.3149C12.7943 88.4857 12.969 88.6448 13.1436 88.7924C13.3006 88.9345 13.4878 89.0393 13.691 89.099C13.8755 89.1481 14.0687 89.1558 14.2566 89.1216C14.4444 89.0874 14.6225 89.0121 14.7779 88.901C15.0422 88.7182 15.2451 88.4598 15.3601 88.1596C15.4581 87.9306 15.5386 87.6944 15.6008 87.4532C15.6939 87.0456 15.7522 86.8204 15.7677 86.8243Z" fill="#B0B0B0"/>
<path d="M16.666 78.4448C16.407 78.1768 16.0874 77.9749 15.7341 77.856C15.3809 77.7371 15.0042 77.7048 14.6359 77.7617C14.2375 77.8629 13.8778 78.0793 13.6017 78.3837C13.3256 78.6882 13.1452 79.0672 13.0832 79.4735C13.0343 79.9832 13.0925 80.4975 13.254 80.9835C13.716 82.7426 14.3397 84.4553 15.1172 86.0996C15.272 86.4998 15.5195 86.8576 15.8392 87.1438C16.1156 87.3192 16.4423 87.398 16.7682 87.3678C17.0942 87.3376 17.4009 87.2001 17.6403 86.9769C18.1838 86.546 18.5525 85.9249 18.7777 84.6478" fill="white"/>
<path d="M18.7754 84.6499C18.7841 84.7105 18.7841 84.7719 18.7754 84.8324C18.7526 85.001 18.7202 85.1682 18.6784 85.3331C18.618 85.6005 18.5296 85.8607 18.4144 86.1095C18.2623 86.4441 18.0399 86.742 17.7623 86.9829C17.4259 87.2927 16.9852 87.4645 16.5279 87.4642C16.2681 87.4571 16.0165 87.3719 15.8059 87.2196C15.5938 87.0556 15.418 86.8494 15.2896 86.6141C14.7645 85.5974 14.3106 84.5455 13.931 83.466C13.7253 82.8954 13.5429 82.3287 13.3837 81.7775C13.2154 81.2493 13.0856 80.7096 12.9955 80.1627C12.9219 79.6475 13.0274 79.1227 13.2944 78.676C13.5307 78.2913 13.8787 77.988 14.292 77.8065C14.6357 77.6638 15.0143 77.6273 15.3789 77.7017C15.6529 77.7582 15.9153 77.8606 16.1552 78.0044C16.302 78.0946 16.4398 78.1986 16.5667 78.315C16.6136 78.3535 16.6553 78.3978 16.6909 78.447C16.6909 78.447 16.5007 78.2878 16.1164 78.0588C15.8834 77.933 15.6318 77.8452 15.3711 77.7987C15.0302 77.7411 14.6798 77.7829 14.3619 77.919C13.9807 78.0953 13.6624 78.3838 13.4497 78.7459C13.2096 79.1639 13.1192 79.6514 13.1935 80.1277C13.2856 80.6628 13.4153 81.1908 13.5817 81.7076C13.7447 82.2549 13.9233 82.8139 14.129 83.3806C14.5041 84.4439 14.9488 85.4813 15.4604 86.486C15.5728 86.7031 15.7287 86.8947 15.9185 87.0489C16.1003 87.1823 16.318 87.258 16.5434 87.2662C16.9603 87.2689 17.3637 87.1184 17.6769 86.8431C18.1373 86.431 18.4632 85.8901 18.6124 85.2904C18.7133 84.8906 18.756 84.6499 18.7754 84.6499Z" fill="#B0B0B0"/>
<path d="M20.8466 78.9425C21.199 79.8457 21.4351 80.7901 21.5492 81.7529C21.6822 82.7 21.473 83.6635 20.9591 84.4701C20.7313 84.8235 20.3737 85.0732 19.9634 85.1654C19.5532 85.2576 19.1231 85.1849 18.766 84.9631C18.3261 84.5868 17.9961 84.0986 17.8111 83.5501C17.3941 82.506 17.0529 81.4331 16.7902 80.34C16.6236 79.7882 16.522 79.2189 16.4874 78.6436C16.4547 78.0916 16.538 77.5389 16.7319 77.0211C16.9416 76.5048 18.0401 75.6237 19.061 76.3495C19.8936 77.0237 20.5137 77.9242 20.8466 78.9425Z" fill="white"/>
<path d="M20.8421 78.9427C20.8421 78.9427 20.7179 78.6516 20.454 78.1664C20.29 77.861 20.1004 77.5702 19.8872 77.2969C19.6165 76.9333 19.2872 76.6171 18.9129 76.3614C18.6835 76.2265 18.4199 76.161 18.154 76.1727C17.8881 76.1844 17.6313 76.2729 17.4146 76.4274C17.1599 76.5786 16.9539 76.7995 16.8207 77.064C16.7038 77.3625 16.6306 77.6762 16.6033 77.9956C16.5505 78.694 16.6241 79.3962 16.8207 80.0684C17.0031 80.7788 17.2088 81.5163 17.4379 82.2577C17.6514 82.9788 17.9444 83.674 18.3112 84.3306C18.4822 84.6315 18.739 84.8748 19.0488 85.0293C19.3503 85.1574 19.688 85.1725 19.9998 85.072C20.2896 84.9671 20.5517 84.7975 20.7662 84.5763C20.9808 84.355 21.1421 84.0878 21.2381 83.7949C21.4287 83.2797 21.5196 82.7331 21.5059 82.184C21.4799 81.3799 21.3494 80.5826 21.1177 79.8122L20.9275 79.1834C20.8969 79.1117 20.8773 79.0358 20.8693 78.9583C20.9072 79.0254 20.9396 79.0955 20.9663 79.1679C21.0207 79.3115 21.1022 79.5172 21.1915 79.7889C21.461 80.5599 21.6217 81.3647 21.6689 82.1801C21.6935 82.7504 21.6064 83.32 21.4127 83.857C21.3048 84.16 21.1416 84.4403 20.9314 84.6838C20.7002 84.9448 20.4043 85.1403 20.0735 85.2505C19.7191 85.3688 19.3335 85.3523 18.9905 85.2039C18.6438 85.0333 18.3559 84.7629 18.1637 84.4276C17.7865 83.7569 17.4857 83.046 17.2671 82.3082C17.0264 81.559 16.8284 80.8215 16.646 80.1034C16.5528 79.7488 16.484 79.3882 16.4403 79.0242C16.4053 78.6732 16.4053 78.3195 16.4403 77.9684C16.4703 77.6299 16.5501 77.2977 16.677 76.9825C16.829 76.6878 17.062 76.4427 17.3486 76.276C17.6043 76.1086 17.901 76.0146 18.2064 76.0043C18.4907 75.9979 18.7704 76.0763 19.01 76.2294C19.3949 76.4994 19.7298 76.8343 19.9998 77.2192C20.2081 77.5016 20.3913 77.8016 20.5471 78.1159C20.6458 78.3137 20.7327 78.5172 20.8072 78.7254C20.8254 78.7966 20.8371 78.8694 20.8421 78.9427Z" fill="#B0B0B0"/>
<path d="M21.5909 79.8984C21.6288 79.9999 21.6549 80.1054 21.6686 80.2129C21.7074 80.4496 21.7617 80.7446 21.8277 81.1056C21.9558 81.9092 22.1344 82.9922 22.3401 84.2731V84.343L22.2702 84.3702C21.725 84.5742 21.2163 84.8652 20.7641 85.2319C20.2676 85.6419 19.8288 86.1172 19.4599 86.6449C18.043 88.4343 17.7791 90.5266 17.6782 91.9861C17.6449 92.5658 17.6566 93.1472 17.7131 93.7251C17.7597 94.1327 17.8218 94.354 17.8024 94.3578C17.783 94.3617 17.7752 94.3074 17.7441 94.2026C17.6988 94.0535 17.6625 93.9018 17.6355 93.7484C17.5449 93.1682 17.5111 92.5806 17.5345 91.9939C17.5645 91.1222 17.6841 90.2558 17.8917 89.4087C18.0148 88.9041 18.1931 88.4146 18.4234 87.9491C18.6823 87.461 18.9727 86.9903 19.293 86.5401C19.6744 85.9963 20.1289 85.5078 20.6438 85.0883C21.1106 84.7139 21.6349 84.4177 22.1965 84.211L22.1383 84.312C21.9597 83.0271 21.8083 81.9402 21.6996 81.1328C21.653 80.7718 21.6181 80.4729 21.587 80.2323C21.5754 80.1212 21.5767 80.0092 21.5909 79.8984Z" fill="#B0B0B0"/>
<path d="M36.7384 136.147C36.6794 135.963 36.6353 135.775 36.6064 135.584C36.5327 135.196 36.4356 134.66 36.3192 134.031C36.0785 132.688 35.7563 130.899 35.3992 128.923C35.0421 126.947 34.7393 125.119 34.5414 123.803C34.4404 123.147 34.3628 122.615 34.3162 122.25C34.278 122.061 34.2598 121.869 34.2619 121.676C34.3209 121.86 34.365 122.048 34.3939 122.239L34.6811 123.791C34.9218 125.134 35.244 126.924 35.6011 128.9C35.9582 130.875 36.261 132.704 36.4589 134.016C36.5599 134.676 36.6375 135.207 36.6841 135.568C36.7228 135.759 36.741 135.953 36.7384 136.147Z" fill="#263238"/>
<path d="M10.4968 108.637L8.75391 102.702L24.9484 97.5586L26.4274 102.667L10.4968 108.637Z" fill="#E0E0E0"/>
<path d="M10.5003 108.636L10.5818 108.597L10.8186 108.504L11.7152 108.155L15.038 106.878L26.3998 102.577L26.3377 102.693C25.868 101.075 25.3711 99.3589 24.8549 97.5888L24.983 97.6548L24.5948 97.7829L8.79619 102.767L8.83889 102.682C9.36292 104.514 9.78215 105.993 10.0772 107.025C10.2169 107.53 10.3295 107.926 10.4071 108.209C10.442 108.337 10.4692 108.442 10.4925 108.524C10.5058 108.56 10.5137 108.598 10.5158 108.636L10.4809 108.539L10.3877 108.244L10.0306 107.08L8.70691 102.717L8.6875 102.651L8.75349 102.631L24.5366 97.5849L24.9247 97.4607L25.0257 97.4258L25.0528 97.5267L26.5318 102.635L26.5551 102.724L26.4697 102.755L15.0147 106.998L11.692 108.213L10.8069 108.531L10.5818 108.609L10.5003 108.636Z" fill="#263238"/>
<g opacity="0.3">
<path d="M34.2617 121.695C37.2545 127.161 38.6092 133.729 38.6791 139.939C38.6791 140.483 38.5006 141.213 37.9571 141.201C37.4137 141.189 37.2739 140.572 37.2157 140.083C36.517 134.198 34.9604 127.564 34.2617 121.68" fill="black"/>
</g>
<path d="M150.09 32.902C143.945 26.8387 144.089 16.0204 139.384 8.78483C133.798 0.198465 123.356 -1.15237 113.291 0.761315C113.018 0.81489 112.763 0.939387 112.553 1.12231L79.916 29.5171C79.6328 29.7388 79.4353 30.0519 79.3573 30.403C79.2793 30.754 79.3255 31.1213 79.4882 31.4421C79.6509 31.7628 79.9199 32.0171 80.2492 32.1616C80.5785 32.3061 80.9478 32.3318 81.294 32.2343C88.3199 30.6816 97.1702 30.996 101.867 35.9569C106.653 41.0031 110.38 55.0239 114.261 60.8542C120.414 70.1082 127.413 76.5286 139.819 77.4874C140.044 77.5045 140.271 77.472 140.483 77.3922C140.695 77.3124 140.887 77.1872 141.045 77.0255L142.47 75.5853C142.501 75.5543 142.528 75.5194 142.555 75.4883C152.031 64.208 160.287 53.6342 169.619 42.4393C169.804 42.2265 169.928 41.9671 169.977 41.6891C170.026 41.4111 169.999 41.1249 169.897 40.8614C169.796 40.5979 169.625 40.3671 169.402 40.1937C169.179 40.0203 168.913 39.9109 168.633 39.8774C161.824 38.9186 154.95 37.6998 150.09 32.902Z" fill="#8A63E6"/>
<path d="M123.081 60.267C123.068 60.2344 123.059 60.2006 123.054 60.166C123.054 60.0845 123.019 59.9836 122.991 59.8594C122.937 59.576 122.863 59.1801 122.77 58.6949C122.724 58.4348 122.673 58.1514 122.615 57.8409C122.557 57.5303 122.533 57.1849 122.487 56.82C122.401 56.0825 122.269 55.2673 122.235 54.3202C122.203 53.8544 122.172 53.3653 122.141 52.8606C122.11 52.356 122.141 51.8242 122.114 51.2769C122.079 50.1784 122.157 49.01 122.211 47.7833C122.405 45.1184 122.803 42.4723 123.403 39.8685C124.038 37.2704 124.869 34.7243 125.891 32.2526C126.396 31.1308 126.85 30.0516 127.374 29.089C127.63 28.6038 127.855 28.1224 128.108 27.6838L128.845 26.4222C129.299 25.6071 129.788 24.92 130.192 24.2989C130.398 23.9923 130.58 23.7012 130.767 23.445L131.291 22.754C131.597 22.3658 131.842 22.0281 132.016 21.7991L132.207 21.5546C132.253 21.5002 132.277 21.473 132.28 21.4769C132.266 21.5088 132.248 21.5387 132.226 21.5662L132.048 21.8224L131.372 22.7851L130.867 23.4838C130.689 23.7439 130.506 24.0389 130.309 24.3455C129.92 24.9705 129.431 25.6614 128.989 26.4766L128.267 27.7614C128.014 28.2039 127.793 28.6814 127.545 29.1666C127.028 30.1293 126.578 31.2084 126.081 32.3302C125.072 34.789 124.245 37.319 123.609 39.8996C123.013 42.4941 122.611 45.1292 122.405 47.7833C122.343 49.0061 122.262 50.1706 122.289 51.2769C122.289 51.8203 122.289 52.3482 122.289 52.8529C122.289 53.3575 122.343 53.8466 122.367 54.3085C122.398 55.2401 122.518 56.0708 122.588 56.8045C122.63 57.1926 122.662 57.5148 122.704 57.8254C122.747 58.1359 122.797 58.4231 122.84 58.6793C122.918 59.184 122.98 59.5799 123.023 59.8438C123.042 59.9719 123.054 60.0729 123.065 60.1544C123.078 60.1904 123.084 60.2288 123.081 60.267Z" fill="#263238"/>
<g opacity="0.3">
<path d="M158.542 52.8716L150.111 48.2562C147.926 47.0607 145.628 45.834 143.124 45.768C139.926 45.6865 136.844 47.6778 135.31 50.4843C133.777 53.2908 133.715 56.7844 134.829 59.8005C135.943 62.8166 138.152 65.3241 140.791 67.1369C141.704 67.6883 142.561 68.328 143.349 69.0467C144.095 69.8231 144.63 70.8711 144.467 71.927L145.244 72.2724L159.637 54.6184L158.542 52.8716Z" fill="black"/>
</g>
<path d="M115.402 2.32812C115.333 2.41565 115.257 2.49626 115.173 2.56879L114.486 3.23645C113.884 3.81094 113.007 4.63387 111.916 5.647C109.734 7.66549 106.687 10.4215 103.26 13.4104C99.8322 16.3994 96.6608 19.0118 94.3628 20.8827C93.1983 21.8221 92.2667 22.5713 91.6107 23.0837L90.8576 23.6737C90.7736 23.7477 90.6811 23.8116 90.582 23.8639C90.6598 23.7835 90.7428 23.7083 90.8305 23.6388L91.5641 23.0255L94.2813 20.7741C96.5676 18.872 99.7157 16.2286 103.139 13.259C106.563 10.2895 109.626 7.54904 111.831 5.55772L114.443 3.19375L115.146 2.52609C115.225 2.45308 115.311 2.38686 115.402 2.32812Z" fill="#263238"/>
<g opacity="0.3">
<path d="M112.428 5.06205L89.332 24.9015C97.0372 20.4919 106.318 14.3277 113.868 3.75391C113.752 3.882 112.545 4.93395 112.428 5.06205Z" fill="black"/>
</g>
<path d="M101.915 110.736L93.1037 68.7858L89.6606 63.3203L66.7895 70.6956C66.7895 70.6956 65.1359 74.0688 65.1398 74.4764L56.3516 80.4853L59.9499 126.74L56.8445 140.997L58.0517 172.89H107.307L101.915 110.736Z" fill="#E0E0E0"/>
<path d="M62.7477 75.7812C62.1694 76.1694 45.6992 83.6805 45.6992 83.6805L49.9691 151.277L46.8249 173.014L60.6206 172.91C60.6206 172.91 62.6856 162.654 63.264 145.314C63.8424 127.975 62.7477 75.7812 62.7477 75.7812Z" fill="#455A64"/>
<path d="M92.2331 67.2656C92.2331 67.2656 90.2262 139.633 91.3907 144.644C92.5552 149.655 97.912 172.899 97.912 172.899H127.782L115.069 138.452L117.398 103.789L115.069 70.5457L100.423 70.1575L92.2331 67.2656Z" fill="#455A64"/>
<path d="M45.3961 93.3633C45.4086 93.4116 45.4164 93.461 45.4194 93.5108L45.466 93.9494C45.5009 94.3376 45.5514 94.9121 45.6174 95.6341C45.7455 97.1014 45.9202 99.2208 46.1181 101.845C46.3161 104.469 46.5374 107.59 46.747 111.056C46.8479 112.791 46.9488 114.616 47.0226 116.491C47.0963 118.365 47.1157 120.337 47.2361 122.336C47.4496 126.342 47.7873 130.146 48.1094 133.593C48.4316 137.04 48.7616 140.165 49.0449 142.778C49.3283 145.39 49.5651 147.49 49.7242 148.965C49.8058 149.687 49.8679 150.25 49.9106 150.646L49.9572 151.084C49.9615 151.135 49.9615 151.185 49.9572 151.236C49.9413 151.188 49.9309 151.139 49.9261 151.088C49.9261 150.98 49.8912 150.836 49.864 150.65C49.8096 150.262 49.7359 149.695 49.6388 148.973C49.4525 147.513 49.1925 145.405 48.8936 142.793C48.5947 140.181 48.2531 137.068 47.9154 133.609C47.5777 130.15 47.2438 126.342 47.0265 122.333C46.9061 120.33 46.8945 118.369 46.8168 116.483C46.7392 114.596 46.6499 112.772 46.5529 111.048C46.3549 107.582 46.1453 104.449 45.9667 101.837C45.7882 99.2247 45.6368 97.1053 45.532 95.6263C45.4815 94.9004 45.4427 94.3337 45.4155 93.9378C45.4155 93.7515 45.4155 93.6078 45.3922 93.4991C45.369 93.3905 45.3961 93.3633 45.3961 93.3633Z" fill="#263238"/>
<path d="M96.3203 68.793C96.3367 68.8203 96.3509 68.8489 96.363 68.8784L96.4794 69.1384C96.5842 69.3752 96.7356 69.7168 96.9258 70.1593C97.314 71.056 97.8497 72.3758 98.4785 74.0721C100.246 78.7475 101.707 83.5335 102.849 88.3995L102.869 88.4811L102.791 88.5043L100.144 89.3195V89.1409C100.771 89.2981 101.335 89.6419 101.762 90.1269C102.197 90.62 102.518 91.2014 102.706 91.831C103.094 93.1119 102.911 94.4938 102.624 95.8136C101.999 98.4493 101.347 101.19 100.683 104C98.1292 114.644 95.8157 124.278 94.1388 131.261C93.2964 134.755 92.6094 137.558 92.1358 139.518C91.8951 140.484 91.7088 141.238 91.5807 141.758C91.516 142.016 91.4655 142.211 91.4293 142.34C91.3944 142.472 91.3711 142.538 91.3711 142.538C91.3711 142.538 91.3711 142.468 91.4099 142.336L91.538 141.75C91.6584 141.226 91.833 140.469 92.0582 139.498C92.5201 137.538 93.1839 134.712 93.999 131.227C95.6643 124.239 97.9545 114.601 100.485 103.954C101.157 101.143 101.809 98.4066 102.426 95.7709C102.71 94.4628 102.873 93.1158 102.512 91.8892C102.336 91.2865 102.03 90.7298 101.615 90.2589C101.214 89.8012 100.683 89.4763 100.093 89.3273L99.7634 89.2458L100.089 89.1487L102.737 88.3413L102.679 88.4461C101.545 83.5832 100.11 78.7955 98.3815 74.1109C97.7526 72.4107 97.217 71.0871 96.8599 70.1826L96.4406 69.154C96.394 69.0414 96.363 68.9521 96.3358 68.8861C96.3264 68.8559 96.3211 68.8246 96.3203 68.793Z" fill="#263238"/>
<path d="M62.1135 144.641C62.1135 144.641 62.1135 144.575 62.0902 144.451C62.0669 144.327 62.0553 144.129 62.032 143.892C61.9854 143.391 61.9194 142.669 61.834 141.742C61.6593 139.875 61.3993 137.173 61.0577 133.838C60.3745 127.166 59.3187 117.962 58.224 107.788C57.9329 105.071 57.6573 102.424 57.4127 99.8773C57.2924 98.6118 57.1371 97.3309 57.4399 96.112C57.5882 95.5113 57.8694 94.9515 58.2628 94.4739C58.6474 94.0003 59.1741 93.6628 59.7651 93.5113L59.8 93.6898L56.7218 94.109L56.5859 94.1284L56.6286 93.9965C58.259 88.6436 59.6214 84.1757 60.5763 81.0354C61.0577 79.4827 61.4381 78.2522 61.6982 77.406C61.8301 76.9945 61.9311 76.6762 62.0009 76.4511L62.0825 76.2065C62.0904 76.1798 62.1008 76.1538 62.1135 76.1289C62.1135 76.1289 62.1135 76.1561 62.0941 76.2104C62.0747 76.2648 62.0553 76.3579 62.0281 76.4589C61.9621 76.6879 61.869 77.0062 61.7525 77.4215C61.5002 78.2716 61.1392 79.5021 60.6773 81.0665L56.7956 94.0469L56.6985 93.9344L59.7728 93.5074L59.8078 93.6898C59.2556 93.835 58.7645 94.1533 58.4065 94.5981C58.0349 95.0512 57.7696 95.5817 57.6301 96.1508C57.339 97.3153 57.4904 98.5847 57.6301 99.8501C57.8902 102.393 58.1619 105.04 58.4414 107.757C59.5399 117.931 60.5725 127.139 61.2207 133.815C61.5429 137.153 61.7797 139.855 61.9311 141.726C62.0009 142.654 62.0553 143.38 62.0941 143.88C62.1096 144.121 62.1213 144.307 62.129 144.439C62.1276 144.507 62.1224 144.574 62.1135 144.641Z" fill="#263238"/>
<path d="M73.0859 84.3257L74.8948 88.7353H79.6305L81.3695 83.6309L77.4762 78.9961L76.2068 79.1669L73.0859 84.3257Z" fill="#8A63E6"/>
<path d="M76.8673 78.1449C76.8466 78.201 76.8192 78.2544 76.7858 78.304L76.5218 78.7465L75.5281 80.3768C74.6819 81.7665 73.5213 83.719 72.2636 85.9859L72.1898 86.1218L72.0967 85.9976C71.6774 85.4309 71.2466 84.8331 70.8196 84.2314C69.2776 82.0589 67.8698 79.7942 66.604 77.45C66.1149 76.5534 65.7501 75.812 65.5016 75.2996L65.226 74.7018C65.1881 74.6348 65.1593 74.563 65.1406 74.4883C65.1863 74.5493 65.2266 74.6143 65.261 74.6824C65.3425 74.8338 65.4434 75.0278 65.5715 75.2607C65.8432 75.7654 66.2275 76.4951 66.736 77.3802C68.041 79.6954 69.4663 81.9408 71.0059 84.1072C71.4329 84.7166 71.8638 85.3028 72.2791 85.8695H72.1122C73.3815 83.6064 74.5654 81.6617 75.4388 80.2876C75.8775 79.6044 76.2346 79.0571 76.4869 78.6883L76.778 78.2652C76.8033 78.2219 76.8332 78.1816 76.8673 78.1449Z" fill="#263238"/>
<path d="M91.3926 68.793C91.3651 68.8843 91.3287 68.9727 91.2839 69.0569L90.9385 69.7983L89.6265 72.5155L85.2323 81.4435L83.241 85.4184L83.1828 85.5387L83.0858 85.4456C81.4468 83.8307 79.8983 82.1266 78.4471 80.3411C77.9192 79.6734 77.5194 79.1261 77.2593 78.7457C77.1273 78.5555 77.0303 78.4041 76.9682 78.3032C76.9309 78.254 76.8996 78.2006 76.875 78.144C76.9214 78.1848 76.9619 78.2318 76.9953 78.2838L77.3098 78.7069C77.5892 79.0951 78.0007 79.6113 78.5403 80.2596C79.6155 81.5755 81.2575 83.3339 83.2216 85.3058L83.0702 85.3291C83.6835 84.0908 84.3512 82.7361 85.0499 81.3309C86.7811 77.8684 88.3494 74.732 89.4945 72.4418L90.8647 69.7595L91.2529 69.0336C91.2934 68.95 91.3401 68.8696 91.3926 68.793Z" fill="#263238"/>
<g opacity="0.3">
<path d="M76.8359 167.024C77.1232 166.476 85.6707 155.103 85.6707 155.103L79.5104 89.8008L76.8359 167.024Z" fill="black"/>
</g>
<path d="M74.9795 88.7383C74.9795 88.7383 69.3199 154.398 70.302 158.326L76.8349 167.025L83.624 154.13C83.7754 153.513 79.4551 88.7383 79.4551 88.7383H74.9795Z" fill="#8A63E6"/>
<path d="M100.562 151.226C100.562 151.432 104.231 157.914 104.231 157.914L123.783 157.81L119.447 151.18L100.562 151.226Z" fill="#455A64"/>
<path d="M100.562 151.218H100.648H100.912H101.948L105.857 151.183L119.443 151.102H119.497L119.525 151.144L123.864 157.77L123.965 157.926H123.608L104.242 157.999H104.2L104.18 157.961C103.016 155.899 102.104 154.226 101.463 153.07C101.152 152.487 100.916 152.037 100.764 151.727C100.683 151.571 100.632 151.451 100.594 151.369C100.578 151.328 100.565 151.285 100.555 151.241L100.613 151.362L100.799 151.707C100.97 152.022 101.218 152.464 101.533 153.031C102.185 154.195 103.124 155.841 104.285 157.895L104.223 157.856L123.589 157.724H123.775L123.69 157.879L119.362 151.245L119.439 151.288H105.915H101.983H100.927H100.652L100.562 151.218Z" fill="#263238"/>
<path d="M80.0109 82.0469C79.7909 82.3929 79.5443 82.7212 79.2733 83.0289C78.8036 83.619 78.1554 84.4419 77.4528 85.358C76.7502 86.2741 76.133 87.1164 75.6866 87.7258C75.4613 88.0695 75.2082 88.3941 74.9297 88.6963C75.1113 88.328 75.3242 87.976 75.5663 87.6443C75.9855 87.0116 76.5911 86.1537 77.2937 85.2338C77.9962 84.3138 78.6639 83.5064 79.1646 82.9358C79.4193 82.6145 79.7025 82.317 80.0109 82.0469Z" fill="#263238"/>
<g opacity="0.3">
<path d="M77.3633 78.8418C77.3633 78.8418 81.4624 86.2171 83.2247 86.8071C84.987 87.3972 88.073 75.4492 88.073 75.4492L83.1509 85.1186L77.3633 78.8418Z" fill="black"/>
</g>
<g opacity="0.3">
<path d="M92.2383 139.288C92.2383 139.288 101.461 109.155 103.429 100.665C105.397 92.1759 102.843 89.7964 102.843 89.7964L104.66 88.694L99.1982 76.1289L102.789 88.4146L100.141 89.2258C100.141 89.2258 102.222 89.3811 102.766 92.4399C103.309 95.4987 92.2383 139.288 92.2383 139.288Z" fill="black"/>
</g>
<path d="M142.084 50.0811C142.084 50.0811 141.059 49.0951 139.247 50.0461C139.247 50.0461 137.356 51.0437 137.088 51.8744C136.821 52.7051 137.244 53.8425 137.593 54.6848C137.942 55.5271 140.031 58.6403 140.031 58.6403C140.136 60.5567 140.739 62.4125 141.781 64.0242C143.54 66.7841 146.486 66.8656 147.045 68.8608C147.604 70.856 147.821 71.4538 147.48 72.8241L146.595 76.5428L158.085 82.4119C158.085 82.4119 158.818 74.1439 158.601 69.2645C158.384 64.3852 158.376 59.4904 158.682 57.9066C158.989 56.3229 158.578 54.0016 158.085 53.7571C158.085 53.7571 159.428 50.4343 157.79 49.4872C156.152 48.54 145.671 45.3648 144.538 45.784C143.404 46.2032 142.985 46.7777 142.686 48.016C142.525 48.7152 142.324 49.4046 142.084 50.0811Z" fill="white"/>
<path d="M151.875 58.4282C151.76 58.3162 151.667 58.1848 151.599 58.04C151.493 57.8288 151.442 57.5939 151.451 57.3576C151.461 57.1213 151.53 56.8913 151.653 56.6892L151.677 56.7746L150.174 56.2118L150.271 56.1225L150.706 57.353V57.3219C150.88 57.4994 151.034 57.696 151.164 57.9081C151.303 58.1439 151.379 58.411 151.385 58.6844C151.381 58.9768 151.294 59.2619 151.135 59.5071C150.976 59.7522 150.75 59.9474 150.485 60.0702C150.205 60.203 149.89 60.2451 149.584 60.1905C149.433 60.1605 149.284 60.115 149.142 60.0547C149.002 60.0042 148.862 59.9421 148.723 59.88C148.152 59.6191 147.617 59.2864 147.131 58.8901C146.794 58.6218 146.485 58.3186 146.211 57.9857L146.281 58.0245C145.563 57.9595 144.883 57.6687 144.34 57.1938C144.1 56.9663 143.908 56.6933 143.775 56.3907C143.642 56.0881 143.57 55.7621 143.564 55.4315L143.63 55.5208C143.189 55.3926 142.776 55.1848 142.411 54.9075C142.239 54.7771 142.091 54.6166 141.976 54.4339C141.887 54.2443 141.839 54.0379 141.836 53.8284C141.83 53.1657 141.888 52.5039 142.011 51.8526C142.104 51.3091 142.194 50.886 142.26 50.5988C142.289 50.45 142.33 50.3034 142.38 50.1602C142.371 50.3117 142.35 50.4622 142.318 50.6104C142.267 50.9016 142.194 51.3247 142.116 51.8681C142.013 52.5097 141.969 53.1594 141.984 53.809C141.988 53.9929 142.03 54.1741 142.108 54.3408C142.212 54.5056 142.343 54.6514 142.496 54.7716C142.848 55.0281 143.242 55.2212 143.661 55.3423L143.727 55.3617V55.4315C143.753 56.046 144.019 56.6257 144.468 57.0463C144.98 57.4877 145.616 57.759 146.289 57.8227H146.331L146.359 57.8537C146.623 58.1731 146.92 58.4644 147.244 58.7232C147.719 59.1082 148.24 59.4316 148.796 59.6859C148.932 59.748 149.068 59.8062 149.208 59.8606C149.333 59.9143 149.463 59.9572 149.596 59.9887C149.859 60.0324 150.13 59.9959 150.372 59.8839C150.606 59.7775 150.805 59.6074 150.946 59.3933C151.088 59.1791 151.166 58.9294 151.172 58.6728C151.132 58.1962 150.911 57.753 150.555 57.4345L150.139 56.1962L150.089 56.0487L150.233 56.107L151.719 56.7009L151.785 56.7241L151.746 56.7824C151.609 56.9936 151.538 57.2408 151.541 57.4927C151.541 57.6826 151.58 57.8703 151.657 58.0439C151.778 58.2807 151.89 58.4282 151.875 58.4282Z" fill="#B0B0B0"/>
<path d="M155.521 52.6318C155.333 52.6213 155.146 52.594 154.962 52.5503L153.456 52.2514L151.228 51.7856L149.916 51.5061C149.465 51.3755 148.995 51.323 148.526 51.3508C148.302 51.3852 148.089 51.4739 147.906 51.6092C147.723 51.7445 147.576 51.9223 147.478 52.1272C147.276 52.519 147.121 52.9334 147.016 53.3616C146.823 54.0913 146.677 54.833 146.581 55.5819C146.496 56.2224 146.446 56.7464 146.403 57.1035C146.392 57.2909 146.364 57.4768 146.317 57.6586C146.3 57.4714 146.3 57.283 146.317 57.0958C146.317 56.7348 146.364 56.2107 146.434 55.5625C146.506 54.8033 146.636 54.0506 146.822 53.3111C146.923 52.8658 147.081 52.4353 147.292 52.0301C147.409 51.8085 147.57 51.613 147.765 51.4556C147.973 51.2951 148.219 51.1921 148.48 51.1567C148.973 51.1259 149.468 51.1811 149.943 51.3198L151.255 51.6148L153.471 52.1194L154.966 52.4804C155.156 52.5116 155.342 52.5623 155.521 52.6318Z" fill="#B0B0B0"/>
<path d="M153.694 50.2403C153.5 50.2164 153.308 50.1775 153.12 50.1239L151.567 49.7357C150.915 49.5804 150.138 49.4019 149.269 49.235C148.834 49.1535 148.376 49.0719 147.902 49.0137C147.425 48.9353 146.935 48.9645 146.47 49.0991C146.021 49.2694 145.637 49.5762 145.372 49.9764C145.115 50.3531 144.909 50.7615 144.758 51.1914C144.49 51.9262 144.267 52.6768 144.091 53.4389C143.939 54.0871 143.846 54.6228 143.784 54.9916C143.763 55.1844 143.727 55.3752 143.675 55.5622C143.666 55.3675 143.676 55.1724 143.706 54.9799C143.745 54.5917 143.815 54.0677 143.951 53.4272C144.109 52.6541 144.321 51.8927 144.584 51.1487C144.735 50.701 144.945 50.2754 145.209 49.8832C145.495 49.4452 145.914 49.1105 146.404 48.9283C146.899 48.7826 147.421 48.7507 147.93 48.8352C148.411 48.9011 148.869 48.9865 149.304 49.0719C150.177 49.2466 150.954 49.4601 151.602 49.6154C152.25 49.7706 152.766 49.9453 153.127 50.054C153.322 50.0967 153.512 50.1592 153.694 50.2403Z" fill="#B0B0B0"/>
<path d="M158.072 51.5083C158.037 51.5587 157.478 51.1201 156.67 50.8445C155.863 50.5689 155.164 50.5301 155.168 50.4563C155.699 50.3955 156.237 50.4572 156.74 50.6369C157.244 50.8166 157.699 51.1094 158.072 51.4927V51.5083Z" fill="#B0B0B0"/>
<path d="M147.931 47.2993C147.786 47.3159 147.638 47.3159 147.493 47.2993C147.105 47.2768 146.716 47.2768 146.328 47.2993C145.754 47.3311 145.196 47.5016 144.702 47.7962C144.418 47.9716 144.178 48.2108 144.003 48.4949C143.826 48.8094 143.695 49.1481 143.615 49.5003C143.258 50.9792 143.029 52.3456 142.881 53.3354C142.811 53.7973 142.757 54.1894 142.71 54.4999C142.697 54.6458 142.67 54.79 142.629 54.9308C142.608 54.7853 142.608 54.6376 142.629 54.4922C142.629 54.2127 142.675 53.809 142.734 53.3276C142.884 52.0213 143.112 50.7251 143.417 49.4459C143.504 49.0728 143.648 48.7154 143.844 48.3862C144.041 48.0784 144.307 47.8206 144.62 47.6332C145.144 47.3308 145.735 47.1652 146.34 47.1518C146.738 47.1399 147.136 47.1594 147.531 47.21C147.668 47.2242 147.802 47.2541 147.931 47.2993Z" fill="#B0B0B0"/>
<path d="M153.436 48.7222C152.51 48.6221 151.603 48.3908 150.742 48.0352C151.208 48.05 151.67 48.1323 152.112 48.2797C152.573 48.3632 153.018 48.5122 153.436 48.7222Z" fill="#B0B0B0"/>
<path d="M143.7 56.0312C143.135 56.2904 142.591 56.5941 142.074 56.9396C141.6 57.3434 141.16 57.7848 140.758 58.2594C141.03 57.6766 141.44 57.169 141.953 56.7807C142.466 56.3924 143.065 56.1351 143.7 56.0312Z" fill="#B0B0B0"/>
<path d="M142.023 54.3537C142.023 54.3537 141.895 54.509 141.615 54.6604C141.245 54.8573 140.831 54.9562 140.412 54.9476C139.999 54.9315 139.592 54.838 139.213 54.672C138.925 54.5439 138.762 54.4352 138.774 54.4119C138.786 54.3886 139.5 54.7069 140.416 54.7458C141.332 54.7846 141.992 54.2877 142.023 54.3537Z" fill="#B0B0B0"/>
<path d="M153.725 59.3686C153.158 59.4267 152.594 59.5174 152.037 59.6403C150.698 59.9667 149.478 60.6615 148.514 61.646C147.55 62.6305 146.881 63.8653 146.583 65.2106C146.473 65.7698 146.395 66.3349 146.35 66.903C146.319 66.7511 146.307 66.5959 146.315 66.4411C146.316 66.0174 146.359 65.5948 146.443 65.1795C146.712 63.7928 147.382 62.5155 148.37 61.506C149.358 60.4965 150.621 59.7992 152.002 59.5006C152.415 59.4083 152.836 59.3563 153.259 59.3453C153.415 59.3333 153.572 59.3411 153.725 59.3686Z" fill="#B0B0B0"/>
<path d="M155.566 70.7643C155.236 70.884 154.889 70.9521 154.537 70.9661C153.692 71.0497 152.838 71.0144 152.003 70.8613C151.167 70.7141 150.356 70.4528 149.592 70.085C149.269 69.946 148.968 69.7603 148.699 69.5338C148.699 69.5066 149.064 69.7007 149.654 69.953C151.189 70.6176 152.856 70.9191 154.526 70.8342C155.166 70.7954 155.562 70.7332 155.566 70.7643Z" fill="#B0B0B0"/>
<path d="M141.466 93.4411L122.609 78.908C122.609 78.908 119.045 70.4807 115.105 70.5428V104.842L132.43 115.194C133.897 116.219 140.67 120.345 147.017 121.521C150.472 122.162 155.437 120.784 157.253 117.783C157.777 116.918 159.287 113.16 159.423 112.062C159.974 107.671 161.05 74.149 161.05 74.149L142.184 70.5234L141.466 93.4411Z" fill="#455A64"/>
<path d="M143.696 114.592C143.638 114.539 143.588 114.478 143.548 114.41C143.443 114.27 143.315 114.088 143.16 113.867L142.881 113.478C142.784 113.327 142.69 113.16 142.582 112.982C142.376 112.624 142.116 112.228 141.895 111.755C141.778 111.522 141.654 111.277 141.53 111.021C141.406 110.765 141.301 110.486 141.18 110.206C140.928 109.643 140.73 109.018 140.509 108.362C140.077 106.927 139.781 105.455 139.624 103.964C139.493 102.471 139.501 100.969 139.647 99.477C139.74 98.79 139.81 98.1378 139.954 97.5362C140.016 97.2373 140.062 96.9423 140.136 96.6667C140.21 96.3911 140.288 96.131 140.354 95.8903C140.482 95.3818 140.66 94.9432 140.792 94.5511C140.866 94.357 140.924 94.1629 140.994 94.0077L141.188 93.5652C141.305 93.3167 141.398 93.1149 141.468 92.9557C141.495 92.8818 141.532 92.8125 141.58 92.75C141.562 92.8257 141.537 92.8997 141.506 92.9712C141.444 93.1343 141.363 93.34 141.262 93.5962C141.208 93.7321 141.145 93.8835 141.083 94.0426C141.021 94.2018 140.967 94.392 140.901 94.5899C140.777 94.9781 140.61 95.4206 140.513 95.9252C140.447 96.1776 140.381 96.4415 140.307 96.7016C140.233 96.9617 140.198 97.2683 140.136 97.5672C140.004 98.165 139.938 98.8132 139.853 99.5081C139.555 102.473 139.845 105.467 140.707 108.32C140.924 108.972 141.095 109.593 141.355 110.152C141.472 110.435 141.569 110.711 141.689 110.967L142.042 111.701C142.252 112.178 142.5 112.574 142.698 112.939C142.799 113.117 142.888 113.288 142.982 113.436L143.245 113.824L143.603 114.387C143.64 114.452 143.671 114.521 143.696 114.592Z" fill="#263238"/>
<path d="M118.952 80.5C118.957 80.549 118.957 80.5985 118.952 80.6475C118.952 80.7601 118.952 80.9037 118.932 81.09C118.913 81.4782 118.882 82.0527 118.839 82.7786C118.75 84.2575 118.618 86.3769 118.451 88.9893C118.109 94.2452 117.636 101.485 117.116 109.481C116.596 117.477 116.079 124.717 115.722 129.969C115.532 132.581 115.381 134.697 115.276 136.179C115.218 136.901 115.175 137.468 115.144 137.864C115.144 138.05 115.113 138.194 115.105 138.303C115.097 138.411 115.105 138.454 115.105 138.454C115.101 138.404 115.101 138.353 115.105 138.303L115.124 137.864C115.148 137.476 115.179 136.898 115.221 136.176C115.311 134.697 115.439 132.577 115.61 129.965C115.951 124.713 116.425 117.473 116.945 109.473C117.465 101.473 117.981 94.2413 118.338 88.9893C118.529 86.3769 118.68 84.2575 118.785 82.7786C118.843 82.0527 118.886 81.486 118.917 81.09C118.917 80.9037 118.948 80.7601 118.956 80.6514C118.951 80.6011 118.95 80.5505 118.952 80.5Z" fill="#263238"/>
<g opacity="0.3">
<path d="M141.498 110.287C140.54 108.191 139.93 105.953 139.693 103.661C139.339 100.994 139.84 96.9335 140.857 94.4453C137.418 99.3673 136.335 106.378 138.648 111.913C138.943 112.62 139.425 113.404 140.201 113.466C140.869 113.508 141.443 112.918 141.614 112.274C141.794 111.617 141.754 110.918 141.498 110.287Z" fill="black"/>
</g>
<path d="M90.438 49.2139C91.7617 45.305 93.0698 41.3651 93.7026 37.2854C94.3353 33.2057 94.2615 28.9436 92.8719 25.0541C92.6623 24.4641 90.8495 20.5086 90.2284 20.5591C89.782 20.5979 90.8805 24.2855 90.6515 24.6698C88.4584 28.3303 87.8179 32.7593 88.109 37.0214C88.4297 41.1595 89.2109 45.249 90.438 49.2139Z" fill="#263238"/>
<path d="M75.5095 14.0547L74.5508 14.0935C69.903 14.285 65.4977 16.2192 62.2114 19.5113C58.925 22.8034 56.9985 27.2121 56.8152 31.8601C56.4658 40.8308 56.1902 50.7408 56.4503 55.5386C56.9821 65.4564 66.9736 66.5744 66.9736 66.5744L67.0163 70.7589L76.9031 77.3578L89.8913 63.3836L91.0364 33.4633C91.4983 23.1224 85.8621 14.2294 75.5095 14.0547Z" fill="white"/>
<path d="M66.9727 66.574C66.9727 66.574 73.2455 66.6827 79.7396 62.2188C79.7396 62.2188 76.9409 69.8114 66.9959 69.3262L66.9727 66.574Z" fill="#B0B0B0"/>
<path d="M61.3945 40.1562C61.4066 40.5256 61.5622 40.8756 61.8282 41.1322C62.0941 41.3887 62.4496 41.5316 62.8191 41.5304C62.9998 41.5355 63.1797 41.5046 63.3483 41.4394C63.5168 41.3741 63.6707 41.2759 63.8008 41.1505C63.931 41.025 64.0348 40.8749 64.1062 40.7088C64.1775 40.5428 64.2151 40.3641 64.2165 40.1834C64.2054 39.8137 64.0502 39.4631 63.784 39.2063C63.5178 38.9496 63.1618 38.8071 62.7919 38.8093C62.6111 38.8036 62.431 38.8341 62.2622 38.8992C62.0934 38.9642 61.9393 39.0624 61.8091 39.1879C61.6788 39.3135 61.575 39.4638 61.5038 39.6301C61.4326 39.7964 61.3955 39.9753 61.3945 40.1562Z" fill="#263238"/>
<path d="M59.1104 36.1624C59.2929 36.341 60.3332 35.5025 61.8587 35.4404C63.3842 35.3783 64.5371 36.1003 64.6924 35.9062C64.77 35.8208 64.5798 35.4948 64.0752 35.157C63.3948 34.7291 62.5994 34.5205 61.7966 34.5593C61.0038 34.5892 60.2412 34.8706 59.6189 35.3628C59.1725 35.7432 59.0212 36.0848 59.1104 36.1624Z" fill="#263238"/>
<path d="M75.0859 40.1528C75.0971 40.5224 75.2523 40.8731 75.5185 41.1299C75.7847 41.3866 76.1407 41.5291 76.5105 41.5269C76.6914 41.5331 76.8717 41.5032 77.0409 41.439C77.21 41.3748 77.3647 41.2775 77.4959 41.1528C77.6271 41.0282 77.7321 40.8786 77.8049 40.7129C77.8776 40.5472 77.9166 40.3687 77.9196 40.1877C77.9084 39.8181 77.7532 39.4674 77.487 39.2107C77.2208 38.9539 76.8648 38.8114 76.495 38.8136C76.3139 38.8063 76.1331 38.8355 75.9635 38.8993C75.7938 38.9631 75.6387 39.0604 75.5073 39.1853C75.3759 39.3101 75.2709 39.4601 75.1985 39.6263C75.1262 39.7925 75.0879 39.9715 75.0859 40.1528Z" fill="#263238"/>
<path d="M74.0795 35.9126C74.2619 36.0911 75.3061 35.2527 76.8316 35.1906C78.3572 35.1285 79.5062 35.8505 79.6614 35.6564C79.7391 35.571 79.5489 35.2449 79.0442 34.9111C78.3665 34.48 77.5718 34.2698 76.7695 34.3094C75.9754 34.3386 75.2113 34.62 74.588 35.1129C74.1377 35.4778 73.9902 35.8194 74.0795 35.9126Z" fill="#263238"/>
<path d="M69.0868 47.846C69.0868 47.7606 68.1358 47.6364 66.5909 47.5005C66.2027 47.4772 65.8146 47.4151 65.7524 47.1512C65.6903 46.8872 65.7913 46.4486 65.9621 45.9867C66.292 45.0279 66.6336 44.0458 66.9907 42.9744C68.4192 38.6851 69.4323 35.1644 69.2576 35.1062C69.083 35.048 67.7904 38.4833 66.3658 42.7726C66.0242 43.8284 65.6942 44.8377 65.3837 45.8003C65.2556 46.2506 65.0227 46.763 65.2439 47.353C65.306 47.4881 65.3981 47.6072 65.5131 47.7014C65.6281 47.7956 65.7631 47.8623 65.9077 47.8965C66.1266 47.9462 66.3509 47.9684 66.5754 47.9625C68.1242 47.9663 69.083 47.9469 69.0868 47.846Z" fill="#263238"/>
<path d="M73.388 31.1421C73.6131 31.5303 75.0765 31.0528 76.8815 30.9403C78.6865 30.8277 80.1965 31.0412 80.375 30.6336C80.4488 30.4395 80.1266 30.1018 79.4823 29.8107C78.6259 29.4674 77.7025 29.3239 76.7823 29.3911C75.8621 29.4584 74.9694 29.7347 74.1721 30.1989C73.5549 30.5793 73.287 30.9597 73.388 31.1421Z" fill="#263238"/>
<path d="M58.8506 31.6772C59.1767 32.0149 60.4033 31.6229 61.9055 31.5685C63.4077 31.5142 64.6693 31.7277 64.9527 31.3589C65.073 31.1765 64.8673 30.8349 64.3044 30.5243C63.5335 30.1331 62.6708 29.9587 61.8085 30.0197C60.9466 30.0527 60.1102 30.3212 59.3902 30.7961C58.87 31.1532 58.707 31.5142 58.8506 31.6772Z" fill="#263238"/>
<path d="M90.5312 40.8527C90.6982 40.7751 97.2699 38.5548 97.332 45.3517C97.3941 52.1486 90.5584 50.8094 90.5468 50.6153C90.5351 50.4212 90.5312 40.8527 90.5312 40.8527Z" fill="white"/>
<path d="M92.5897 48.0187C92.6208 47.9993 92.71 48.1002 92.9119 48.1895C93.1954 48.306 93.5134 48.306 93.7969 48.1895C94.5112 47.9178 95.1051 46.7727 95.1284 45.5499C95.1406 44.9667 95.0211 44.3882 94.779 43.8575C94.714 43.6458 94.5983 43.4532 94.4421 43.2963C94.2859 43.1394 94.0937 43.0229 93.8823 42.9569C93.7457 42.9219 93.6011 42.9358 93.4735 42.996C93.3459 43.0562 93.2434 43.1591 93.1836 43.2869C93.0943 43.4771 93.1409 43.613 93.106 43.6246C93.071 43.6362 92.9585 43.512 93.0089 43.2364C93.0464 43.0674 93.1393 42.9157 93.2729 42.8056C93.4592 42.6643 93.6928 42.6004 93.925 42.627C94.2052 42.6798 94.4672 42.8035 94.686 42.9863C94.9048 43.1691 95.0731 43.4049 95.1749 43.6712C95.4673 44.2578 95.6138 44.9063 95.6019 45.5616C95.5709 46.9318 94.8799 48.2167 93.9017 48.5117C93.72 48.5663 93.5282 48.5792 93.3408 48.5497C93.1533 48.5201 92.9749 48.4488 92.8187 48.3409C92.6052 48.1817 92.5509 48.0304 92.5897 48.0187Z" fill="#B0B0B0"/>
<path d="M61.205 20.6055C60.1065 20 63.406 16.4366 66.1076 15.2099C70.1912 13.3545 76.4291 12.2094 80.1983 13.2691C84.7321 14.5539 88.5013 16.8092 90.7798 20.9355C93.0584 25.0617 93.9163 29.8634 93.7882 34.5797C93.7494 36.0198 93.598 37.5182 92.8333 38.7332C91.8861 40.2354 90.0617 41.1825 90.1432 43.2554C90.1691 43.6308 90.1203 44.0076 89.9997 44.364C89.8791 44.7204 89.6891 45.0495 89.4407 45.3321C88.1985 46.6557 86.673 45.4136 85.9743 44.1676C84.4798 41.5047 84.3129 38.345 84.177 35.2784C84.0839 33.1124 83.9946 30.896 84.604 28.8154C84.9379 27.6819 85.4697 26.6105 85.7375 25.4616C86.0053 24.3126 85.9704 23.0083 85.2562 22.0689C85.0885 21.8661 84.9027 21.679 84.7011 21.51C83.7531 20.6838 82.6024 20.1248 81.367 19.8901C80.1317 19.6555 78.8562 19.7537 77.6713 20.1746C73.8439 21.5527 67.3226 23.5634 65.603 22.263C63.1459 20.3959 62.5559 19.1576 62.5559 19.1576L61.205 20.6055Z" fill="#263238"/>
<path d="M73.8782 48.7893C73.6453 48.7893 73.6375 50.342 72.2945 51.4367C70.9514 52.5313 69.2939 52.3566 69.2822 52.574C69.2589 52.6749 69.651 52.8807 70.3536 52.9039C71.2678 52.9207 72.1586 52.6141 72.8689 52.0383C73.5502 51.4852 73.99 50.6891 74.0956 49.818C74.1577 49.1658 73.9869 48.7777 73.8782 48.7893Z" fill="#263238"/>
</svg>
