<svg width="29" height="26" viewBox="0 0 29 26" fill="none" xmlns="http://www.w3.org/2000/svg">
  <path d="M4.57304 10.5329L10.6011 17.6875L24.3202 1.40461C24.8284 0.801537 25.4751 0.5 26.2603 0.5C27.0456 0.5 27.6923 0.801537 28.2004 1.40461C28.7104 2.00548 28.9764 2.75877 28.9986 3.66447C29.0208 4.57018 28.7778 5.32456 28.2697 5.92763L12.5412 24.5954C12.0331 25.1985 11.3864 25.5 10.6011 25.5C9.81587 25.5 9.16917 25.1985 8.66106 24.5954L0.762173 15.2204C0.254058 14.6173 0 13.8498 0 12.9178C0 11.9857 0.254058 11.2182 0.762173 10.6151C1.26844 10.0099 1.90312 9.69408 2.66622 9.66777C3.42932 9.64145 4.06492 9.92983 4.57304 10.5329Z" fill="#92E3A9"/>
</svg>
