<svg width="559" height="42" viewBox="0 0 559 42" fill="none" xmlns="http://www.w3.org/2000/svg">
<path d="M449.283 -247.406C449.992 -207.886 427.11 -133.652 329.913 -152.87C208.416 -176.892 176.437 -221.143 116.651 -170.863C68.8213 -130.639 -30.9659 -178.326 -74.8808 -207.198M452.541 -241.25C453.217 -201.741 430.296 -127.52 333.198 -146.705C211.825 -170.686 179.91 -214.917 120.134 -164.633C72.3137 -124.406 -27.3489 -172.052 -71.2027 -200.903M456.219 -234.955C456.832 -195.379 433.78 -121.018 336.661 -140.181C215.263 -164.134 183.402 -208.423 123.514 -158.018C75.6038 -117.695 -24.0353 -165.367 -67.866 -194.243M459.571 -228.26C460.215 -188.762 437.253 -114.554 340.254 -133.706C219.006 -157.647 187.154 -201.856 127.39 -151.568C79.5781 -111.338 -19.9599 -158.943 -63.7524 -187.775M463.669 -221.827C464.345 -182.318 441.424 -108.097 344.326 -127.282C222.953 -151.263 191.038 -195.494 131.262 -145.21C83.4419 -104.982 -16.2208 -152.629 -60.0745 -181.48M467.347 -215.532C468.024 -176.023 445.102 -101.802 348.004 -120.987C226.631 -144.968 194.716 -189.199 134.941 -138.915C87.1201 -98.6875 -12.5425 -146.334 -56.3963 -175.185M470.989 -209.249C471.698 -169.73 448.817 -95.4953 351.619 -114.713C230.122 -138.735 198.144 -182.987 138.357 -132.706C90.5277 -92.4821 -9.25954 -140.17 -53.1745 -169.041M474.703 -202.943C475.38 -163.434 452.458 -89.2127 355.36 -108.398C233.988 -132.379 202.073 -176.609 142.297 -126.325C94.4764 -86.0981 -5.18621 -133.744 -49.04 -162.596M478.345 -196.66C479.054 -157.14 456.173 -82.9058 358.975 -102.124C237.478 -126.146 205.5 -170.397 145.713 -120.117C97.8839 -79.8927 -1.90335 -127.58 -45.8183 -156.452M481.64 -190.492C482.284 -150.994 459.322 -76.7857 362.323 -95.9378C241.075 -119.878 209.223 -164.088 149.459 -113.8C101.647 -73.5697 2.10905 -121.175 -41.6835 -150.006M485.738 -184.058C486.351 -144.482 463.299 -70.1209 366.18 -89.2837C244.782 -113.237 212.92 -157.526 153.033 -107.122C105.123 -66.7983 5.48353 -114.47 -38.3472 -143.346M489.053 -177.375C489.73 -137.867 466.808 -63.6455 369.71 -82.8305C248.338 -106.812 216.422 -151.042 156.647 -100.758C108.826 -60.531 9.16366 -108.177 -34.6901 -137.029M492.732 -171.08C493.408 -131.572 470.487 -57.3505 373.389 -76.5355C252.016 -100.517 220.101 -144.747 160.325 -94.4632C112.505 -54.236 12.842 -101.882 -31.0117 -130.734M496.41 -164.786C497.086 -125.277 474.165 -51.0559 377.067 -70.2408C255.694 -94.222 223.779 -138.453 164.003 -88.1685C116.183 -47.9413 16.5201 -95.5875 -27.3336 -124.439M500.052 -158.503C500.761 -118.984 477.879 -44.7491 380.682 -63.967C259.185 -87.9892 227.206 -132.241 167.42 -81.9603C119.59 -41.736 19.8031 -89.4234 -24.1118 -118.295M504.186 -152.057C504.895 -112.538 482.013 -38.3035 384.816 -57.5214C263.319 -81.5436 231.341 -125.795 171.554 -75.5147C123.725 -35.2904 23.9374 -82.9778 -19.9775 -111.85M507.444 -145.901C508.121 -106.393 485.199 -32.1715 388.101 -51.3564C266.729 -75.3376 234.814 -119.568 175.038 -69.2841C127.217 -29.0569 27.5547 -76.7031 -16.299 -105.555M511.122 -139.607C511.799 -100.098 488.877 -25.8771 391.779 -45.062C270.406 -69.0432 238.491 -113.274 178.716 -62.9897C130.895 -22.7625 31.2325 -70.4087 -12.6212 -99.2602M514.801 -133.312C515.414 -93.7361 492.362 -19.3747 395.243 -38.5376C273.845 -62.4911 241.984 -106.779 182.096 -56.3754C134.186 -16.0521 34.5466 -63.7235 -9.28417 -92.5996M518.08 -126.641C518.789 -87.1217 495.907 -12.8873 398.71 -32.1051C277.213 -56.1274 245.234 -100.379 185.448 -50.0985C137.618 -9.8742 37.8311 -57.5616 -6.08385 -86.4333M521.83 -120.322C522.474 -80.8244 499.513 -6.61645 402.514 -25.7686C281.266 -49.7087 249.414 -93.9183 189.65 -43.6306C141.838 -3.40047 42.2998 -51.0055 -1.49271 -79.8368M525.892 -113.901C526.601 -74.3815 503.72 -0.147045 406.522 -19.3649C285.025 -43.3871 253.047 -87.6386 193.26 -37.3582C145.431 2.86605 45.6435 -44.8213 1.72861 -73.693M529.151 -107.745C529.827 -68.2363 506.905 5.98495 409.807 -13.2C288.435 -37.1812 256.52 -81.4118 196.744 -31.1277C148.924 9.09948 49.2609 -38.5467 5.40713 -67.3982M532.828 -101.45C533.505 -61.9417 510.583 12.2795 413.485 -6.90545C292.113 -30.8867 260.197 -75.1172 200.422 -24.8332C152.601 15.394 52.9386 -32.2522 9.08486 -61.1037M536.507 -95.1556C537.183 -55.6468 514.262 18.5744 417.164 -0.610583C295.791 -24.5918 263.876 -68.8223 204.1 -18.5383C156.28 21.6889 56.617 -25.9573 12.7633 -54.8088M540.185 -88.8608C540.861 -49.352 517.94 24.8692 420.842 5.68421C299.469 -18.297 267.554 -62.5276 207.778 -12.2435C159.958 27.9837 60.2951 -19.6625 16.4413 -48.514M543.899 -82.5541C544.48 -42.9888 521.388 31.3593 424.368 12.2293C303.094 -11.6832 271.296 -55.9505 211.42 -5.5428C163.518 34.7834 64.004 -12.8469 20.2344 -41.7028M547.599 -75.744C548.308 -36.2246 525.426 38.0099 428.229 18.7921C306.732 -5.2302 274.754 -49.4817 214.967 0.798715C167.138 41.023 67.3503 -6.6644 23.4354 -35.5361M551.313 -69.4376C551.989 -29.9288 529.068 44.2924 431.97 25.1074C310.597 1.12622 278.682 -43.1043 218.906 7.1797C171.086 47.4069 71.4232 -0.239275 27.5694 -29.0908M554.955 -63.1546C555.664 -23.6352 532.783 50.5993 435.585 31.3815C314.088 7.35921 282.11 -36.8923 222.323 13.3881C174.494 53.6124 74.7065 5.92503 30.7915 -22.9467M445.641 -253.689C446.317 -214.18 423.396 -139.959 326.298 -159.144C204.925 -183.125 173.01 -227.355 113.234 -177.071C65.4139 -136.844 -34.2487 -184.49 -78.1025 -213.342M558.213 -56.999C558.889 -17.4903 535.968 56.7309 438.87 37.546C317.497 13.5648 285.582 -30.6658 225.806 19.6183C177.986 59.8455 78.3231 12.1993 34.4694 -16.6522" stroke="url(#paint0_linear_9086_64625)"/>
<defs>
<linearGradient id="paint0_linear_9086_64625" x1="509.355" y1="40.1259" x2="368.323" y2="-91.5356" gradientUnits="userSpaceOnUse">
<stop stop-color="white"/>
<stop offset="1" stop-color="#6C27FF"/>
</linearGradient>
</defs>
</svg>
