<svg width="34" height="34" viewBox="0 0 34 34" fill="none" xmlns="http://www.w3.org/2000/svg">
  <path d="M10.4533 15.5321L14.4288 19.7891L23.4763 10.1007C23.8114 9.74191 24.2379 9.5625 24.7557 9.5625C25.2736 9.5625 25.7001 9.74191 26.0352 10.1007C26.3715 10.4583 26.547 10.9065 26.5616 11.4454C26.5762 11.9843 26.416 12.4331 26.0809 12.7919L15.7082 23.8993C15.3731 24.2581 14.9466 24.4375 14.4288 24.4375C13.9109 24.4375 13.4844 24.2581 13.1493 23.8993L7.94014 18.3211C7.60505 17.9623 7.4375 17.5056 7.4375 16.9511C7.4375 16.3965 7.60505 15.9398 7.94014 15.581C8.27401 15.2209 8.69258 15.033 9.19583 15.0173C9.69908 15.0017 10.1182 15.1732 10.4533 15.5321Z" fill="currentColor"/>
</svg>
