<svg width="32" height="32" viewBox="0 0 32 32" fill="none" xmlns="http://www.w3.org/2000/svg">
  <path fill-rule="evenodd" clip-rule="evenodd" d="M9.63545 9.63604C10.026 9.24551 10.6591 9.24551 11.0497 9.63604L15.9994 14.5858L20.9492 9.63604C21.3397 9.24552 21.9728 9.24552 22.3634 9.63604C22.7539 10.0266 22.7539 10.6597 22.3634 11.0503L17.4136 16L22.3634 20.9497C22.7539 21.3403 22.7539 21.9734 22.3634 22.364C21.9728 22.7545 21.3397 22.7545 20.9492 22.364L15.9994 17.4142L11.0497 22.364C10.6591 22.7545 10.026 22.7545 9.63545 22.364C9.24492 21.9734 9.24492 21.3403 9.63545 20.9497L14.5852 16L9.63545 11.0503C9.24492 10.6597 9.24492 10.0266 9.63545 9.63604Z" fill="currentColor"/>
</svg>
