<svg width="7" height="10" viewBox="0 0 7 10" fill="none" xmlns="http://www.w3.org/2000/svg">
  <path d="M3.5 2.25C3.83152 2.25 4.14946 2.3817 4.38388 2.61612C4.6183 2.85054 4.75 3.16848 4.75 3.5C4.75 3.66415 4.71767 3.8267 4.65485 3.97835C4.59203 4.13001 4.49996 4.26781 4.38388 4.38388C4.26781 4.49996 4.13001 4.59203 3.97835 4.65485C3.8267 4.71767 3.66415 4.75 3.5 4.75C3.16848 4.75 2.85054 4.6183 2.61612 4.38388C2.3817 4.14946 2.25 3.83152 2.25 3.5C2.25 3.16848 2.3817 2.85054 2.61612 2.61612C2.85054 2.3817 3.16848 2.25 3.5 2.25ZM3.5 0C4.42826 0 5.3185 0.368749 5.97487 1.02513C6.63125 1.6815 7 2.57174 7 3.5C7 6.125 3.5 10 3.5 10C3.5 10 0 6.125 0 3.5C0 2.57174 0.368749 1.6815 1.02513 1.02513C1.6815 0.368749 2.57174 0 3.5 0ZM3.5 1C2.83696 1 2.20107 1.26339 1.73223 1.73223C1.26339 2.20107 1 2.83696 1 3.5C1 4 1 5 3.5 8.355C6 5 6 4 6 3.5C6 2.83696 5.73661 2.20107 5.26777 1.73223C4.79893 1.26339 4.16304 1 3.5 1Z" fill="currentColor"/>
</svg>
