<svg width="24" height="24" viewBox="0 0 24 24" fill="none" xmlns="http://www.w3.org/2000/svg">
  <path d="M3 14.9992V16.799C3 17.9191 3 18.4788 3.21799 18.9066C3.40973 19.2829 3.71547 19.5895 4.0918 19.7812C4.5192 19.999 5.07899 19.999 6.19691 19.999H21.0002M3 14.9992V4.99902M3 14.9992L6.8534 11.7881L6.85658 11.7855C7.55366 11.2046 7.90288 10.9136 8.28154 10.7954C8.72887 10.6558 9.21071 10.6779 9.64355 10.8574C10.0105 11.0096 10.3323 11.3314 10.9758 11.9749L10.9822 11.9814C11.6357 12.6349 11.9633 12.9625 12.3362 13.1144C12.7774 13.2941 13.2685 13.3096 13.7207 13.1596C14.1041 13.0324 14.4542 12.7266 15.1543 12.114L21 6.99902" stroke="currentColor" stroke-width="2" stroke-linecap="round" stroke-linejoin="round"/>
</svg>
