<svg width="19" height="19" viewBox="0 0 19 19" fill="none" xmlns="http://www.w3.org/2000/svg">
<circle cx="9.37207" cy="9.37207" r="8.87207" stroke="#8C888A"/>
<path d="M8.1619 11.2085V10.9336C8.1619 10.6254 8.19523 10.3504 8.26187 10.1089C8.33685 9.86726 8.44515 9.65899 8.58677 9.48405C8.73672 9.30077 8.86585 9.16331 8.97415 9.07168C9.09078 8.97171 9.24906 8.85091 9.449 8.70929C9.64894 8.56767 9.79889 8.4552 9.89886 8.37189C9.99883 8.28026 10.0946 8.1553 10.1863 7.99701C10.2779 7.8304 10.3237 7.64712 10.3237 7.44718C10.3237 7.11395 10.2113 6.84737 9.98633 6.64743C9.7614 6.43917 9.49065 6.33503 9.17409 6.33503C8.85752 6.33503 8.57844 6.43917 8.33685 6.64743C8.09526 6.84737 7.9703 7.12645 7.96196 7.48467H6.25C6.25833 6.89319 6.40828 6.38085 6.69986 5.94765C6.99143 5.50612 7.35382 5.18539 7.78702 4.98545C8.22022 4.78552 8.68674 4.68555 9.18658 4.68555C9.98633 4.68555 10.6695 4.93547 11.2359 5.43531C11.8108 5.93516 12.0982 6.60578 12.0982 7.44718C12.0982 7.73043 12.0648 7.98452 11.9982 8.20945C11.9399 8.43438 11.8399 8.63431 11.6983 8.80926C11.5567 8.9842 11.4359 9.11749 11.3359 9.20913C11.2359 9.30077 11.0902 9.42573 10.8985 9.58402C10.6903 9.7423 10.5362 9.86726 10.4362 9.9589C10.3362 10.0505 10.2363 10.1838 10.1363 10.3588C10.0446 10.5337 9.99883 10.7253 9.99883 10.9336V11.2085H8.1619ZM8.11192 13.9327V11.9833H10.0488V13.9327H8.11192Z" fill="#8C888A"/>
</svg>
