<svg width="24" height="24" viewBox="0 0 24 24" fill="none" xmlns="http://www.w3.org/2000/svg">
  <path d="M12 9.79883V19.9988M12 9.79883C12 8.11867 12 7.27894 12.327 6.63721C12.6146 6.07272 13.0732 5.61362 13.6377 5.326C14.2794 4.99902 15.1196 4.99902 16.7998 4.99902H19.3998C19.9599 4.99902 20.2401 4.99902 20.454 5.10802C20.6422 5.20389 20.7948 5.35676 20.8906 5.54492C20.9996 5.75883 21 6.03907 21 6.59912V15.3991C21 15.9592 20.9996 16.2388 20.8906 16.4527C20.7948 16.6409 20.6425 16.7943 20.4543 16.8901C20.2406 16.999 19.961 16.999 19.402 16.999H16.5693C15.6301 16.999 15.1597 16.999 14.7334 17.1285C14.356 17.2431 14.0057 17.4307 13.701 17.6812C13.3568 17.964 13.096 18.3548 12.575 19.1362L12 19.9988M12 9.79883C12 8.11867 11.9998 7.27894 11.6729 6.63721C11.3852 6.07272 10.9263 5.61362 10.3618 5.326C9.72004 4.99902 8.87977 4.99902 7.19961 4.99902H4.59961C4.03956 4.99902 3.75981 4.99902 3.5459 5.10802C3.35774 5.20389 3.20487 5.35676 3.10899 5.54492C3 5.75883 3 6.03907 3 6.59912V15.3991C3 15.9592 3 16.2388 3.10899 16.4527C3.20487 16.6409 3.35774 16.7943 3.5459 16.8901C3.7596 16.999 4.03901 16.999 4.59797 16.999H7.43073C8.36994 16.999 8.83942 16.999 9.26569 17.1285C9.64306 17.2431 9.99512 17.4307 10.2998 17.6812C10.6426 17.9629 10.9017 18.3516 11.4185 19.1267L12 19.9988" stroke="currentColor" stroke-width="2" stroke-linecap="round" stroke-linejoin="round"/>
</svg>
