<svg width="24" height="25" viewBox="0 0 24 25" fill="none" xmlns="http://www.w3.org/2000/svg">
<path d="M18.1875 23H5.8125C5.26549 23 4.74089 22.7788 4.35409 22.385C3.9673 21.9911 3.75 21.457 3.75 20.9001V4.10083C3.75 3.5439 3.9673 3.00978 4.35409 2.61597C4.74089 2.22216 5.26549 2.00092 5.8125 2.00092H13.0312C13.0405 1.99969 13.0499 1.99969 13.0591 2.00092H13.0653C13.075 2.00402 13.085 2.00613 13.0952 2.00722C13.1859 2.01352 13.2757 2.03137 13.3623 2.06077H13.4056C13.4246 2.07434 13.4426 2.08943 13.4592 2.10592C13.5716 2.15678 13.6739 2.22793 13.7614 2.31591L19.9489 8.61563C20.0353 8.70465 20.1052 8.80888 20.1551 8.92327C20.1641 8.94597 20.172 8.9691 20.1788 8.99257L20.1892 9.02197C20.218 9.10911 20.2345 9.20046 20.2397 9.29285C20.2406 9.30331 20.243 9.31358 20.2469 9.3233V9.3296C20.2486 9.33649 20.2496 9.34352 20.25 9.3506V20.9001C20.25 21.457 20.0327 21.9911 19.6459 22.385C19.2591 22.7788 18.7345 23 18.1875 23ZM14.4998 14.6004V19.8501H15.4691V17.7082H16.9748V16.8284H15.4691V15.4834H17.1562V14.6004H14.4998ZM10.6841 14.6004V19.8501H11.9278C12.1854 19.8631 12.4426 19.817 12.6803 19.7152C12.9181 19.6135 13.1303 19.4586 13.3014 19.2622C13.6571 18.8001 13.8353 18.2219 13.8026 17.6358V16.7853C13.8266 16.2053 13.6434 15.6362 13.287 15.1831C12.9518 14.7946 12.462 14.5804 11.9536 14.6004H10.6841ZM6.84375 14.6004V19.8501H7.81313V18.0033H8.45869C8.88975 18.0274 9.3105 17.8647 9.61781 17.556C9.91057 17.2224 10.0625 16.7848 10.0406 16.338C10.0598 15.8805 9.90795 15.4326 9.61575 15.0844C9.473 14.9232 9.29698 14.7962 9.10031 14.7126C8.90364 14.6289 8.69122 14.5906 8.47828 14.6004H6.84375ZM13.0312 4.10083V9.3506H18.1875L13.0312 4.10083ZM11.9443 18.9703H11.6535V15.4834H12.0062C12.1294 15.476 12.2525 15.5002 12.3642 15.5537C12.4759 15.6073 12.5727 15.6885 12.6456 15.79C12.7972 16.1081 12.8621 16.4619 12.8332 16.8147V17.7271C12.8559 18.0631 12.7848 18.3991 12.627 18.6941C12.5437 18.7931 12.4381 18.8699 12.3192 18.918C12.2002 18.9662 12.0716 18.9841 11.9443 18.9703ZM8.47828 17.1203H7.81209V15.4834H8.48756C8.57052 15.4843 8.65188 15.5066 8.72403 15.5483C8.79618 15.59 8.85675 15.6497 8.90006 15.7217C9.01144 15.9097 9.06506 16.126 9.05475 16.3454C9.06768 16.5496 9.01442 16.7525 8.90316 16.9229C8.85259 16.9875 8.78776 17.039 8.71393 17.0733C8.6401 17.1076 8.55936 17.1237 8.47828 17.1203Z" fill="#6C27FF"/>
</svg>
