<svg width="34" height="34" viewBox="0 0 34 34" fill="none" xmlns="http://www.w3.org/2000/svg">
<path fill-rule="evenodd" clip-rule="evenodd" d="M16.6434 9.5625C12.7084 9.5625 9.5625 12.6699 9.5625 16.4495C9.5625 20.2291 12.7084 23.3365 16.6434 23.3365C20.5783 23.3365 23.7243 20.2291 23.7243 16.4495C23.7243 12.6699 20.5783 9.5625 16.6434 9.5625ZM7.4375 16.4495C7.4375 11.4483 11.5834 7.4375 16.6434 7.4375C21.7034 7.4375 25.8493 11.4483 25.8493 16.4495C25.8493 18.6659 25.035 20.6879 23.6877 22.2523L26.2413 24.7387C26.6617 25.148 26.6707 25.8207 26.2613 26.2411C25.852 26.6616 25.1793 26.6705 24.7589 26.2612L22.121 23.6928C20.5872 24.8053 18.6901 25.4615 16.6434 25.4615C11.5834 25.4615 7.4375 21.4507 7.4375 16.4495Z" fill="#332E2D"/>
</svg>

