<svg width="22" height="22" viewBox="0 0 22 22" fill="none" xmlns="http://www.w3.org/2000/svg">
<path d="M10.406 0.0313702C9.00251 0.177643 8.17363 0.386602 6.89201 0.905518C5.56512 1.44185 4.52729 2.13141 3.44767 3.19362C1.99888 4.61455 1.14563 5.96582 0.529198 7.79421C0.212276 8.73801 -0.0315096 10.3853 0.00331698 11.3465C0.0242129 11.8933 0.128693 12.8023 0.226207 13.2446C0.776467 15.8113 2.40983 18.1969 4.69446 19.7711C5.29696 20.1855 5.47109 20.2865 6.10493 20.6034C6.87808 20.99 7.63034 21.2477 8.51842 21.4323C9.65724 21.6656 11.4787 21.7039 12.6001 21.5124C13.4464 21.3696 14.3728 21.1119 15.0693 20.8194C15.32 20.7149 16.1141 20.3248 16.3579 20.1855C16.6295 20.0288 17.4793 19.4402 17.7022 19.2556C18.0296 18.9875 18.7853 18.2317 19.0012 17.9636C20.4291 16.1944 21.1431 14.6899 21.46 12.7918C21.7699 10.9147 21.4983 8.66836 20.7286 6.80862C20.4813 6.21309 20.4221 6.15737 20.039 6.1713C19.9729 6.17478 19.8963 6.22005 19.8057 6.3106C19.6002 6.51608 19.6107 6.65539 19.8997 7.38674C20.3316 8.47681 20.5614 9.61564 20.5963 10.8067C20.6485 12.4958 20.255 14.1675 19.4679 15.5954C19.2346 16.0168 18.7017 16.8038 18.3709 17.2148C17.7579 17.9775 16.7828 18.8203 15.9713 19.2905C15.024 19.8407 13.8817 20.2865 12.9379 20.4711C11.4438 20.7601 10.5209 20.7706 8.9433 20.5059C6.79798 20.1507 4.73277 18.9561 3.27353 17.2322C2.08943 15.8357 1.35459 14.2441 1.08294 12.4784C0.988909 11.8689 0.999357 10.441 1.10035 9.76888C1.32324 8.28179 1.73768 7.16734 2.56655 5.8091C3.79245 3.79961 5.95866 2.12445 8.14229 1.49409C8.98857 1.24682 9.807 1.09706 10.406 1.0692C10.9981 1.04482 11.0364 1.03786 11.1966 0.898552C11.5483 0.599043 11.3951 0.0975418 10.9284 0.00350952C10.8797 -0.00693893 10.6463 0.00699234 10.406 0.0313702Z" fill="#A59FB9"/>
<path d="M18.1384 1.04147C18.0339 1.05192 17.7832 1.07978 17.5812 1.11113C16.317 1.29919 15.415 1.6579 14.7149 2.25344C14.2274 2.66787 13.1547 3.95994 13.1965 4.08183C13.2035 4.09925 13.5099 4.42662 13.8791 4.80623C14.5025 5.45052 14.9274 5.92068 15.0911 6.15053L15.1607 6.24805L15.3349 6.16795C16.2787 5.72913 16.7453 5.46793 17.111 5.17539C17.5812 4.79926 17.825 4.4893 18.1036 3.9286C18.4518 3.21813 18.6991 2.42409 18.7827 1.72756C18.8489 1.21561 18.8489 1.25043 18.7583 1.14595C18.6712 1.04844 18.4936 1.02058 18.1384 1.04147ZM16.5503 2.5216C16.8185 2.60867 16.9891 2.74449 17.1215 2.9639C17.205 3.11017 17.2155 3.15893 17.2155 3.45844C17.2155 3.8276 17.1841 3.91467 16.9647 4.15845C16.7732 4.36741 16.5364 4.47537 16.2229 4.49627C16.0035 4.5102 15.9269 4.49975 15.7771 4.43358C15.4324 4.28383 15.213 3.93208 15.213 3.52809C15.213 3.12759 15.3592 2.84549 15.6831 2.6226C15.9548 2.43802 16.202 2.40668 16.5503 2.5216Z" fill="#A59FB9"/>
<path d="M16.079 2.96727C15.7377 3.07523 15.6054 3.41653 15.7691 3.75783C15.8631 3.9459 16.0268 4.02948 16.2566 4.00858C16.7581 3.95983 16.9149 3.33643 16.4969 3.03692C16.3959 2.9603 16.2009 2.92896 16.079 2.96727Z" fill="#A59FB9"/>
<path d="M8.15859 2.02054C7.92525 2.0693 7.41678 2.34791 7.03021 2.63349C5.73466 3.59819 4.70728 5.39176 4.51573 7.02164C4.40429 7.98634 4.66548 9.32716 5.15654 10.3093C5.73118 11.4516 7.21827 12.9909 8.24566 13.5063C9.18597 13.98 10.2795 14.276 11.2233 14.3143C12.0626 14.3492 12.9368 14.2307 13.5985 13.9939C14.0443 13.8337 14.194 13.7049 14.2881 13.4019C14.3299 13.2591 14.3299 13.2382 14.2811 13.2208C14.2498 13.2068 13.9328 13.2695 13.5776 13.3601C12.7174 13.5725 12.404 13.6108 11.5542 13.6108C10.9552 13.6073 10.7775 13.5969 10.4467 13.5307C9.47852 13.3357 8.74019 13.0466 8.05411 12.5904C7.73719 12.378 6.89787 11.6396 6.59488 11.3053C5.72421 10.3476 5.25057 9.16696 5.19485 7.8122C5.15654 6.99029 5.29585 6.25545 5.62322 5.52061C6.18741 4.25293 6.99538 3.34047 8.2979 2.50115C8.47203 2.39319 8.62178 2.28174 8.63571 2.26085C8.73671 2.11457 8.43372 1.95785 8.15859 2.02054Z" fill="#A59FB9"/>
<path d="M13.2626 2.02966C12.7054 2.12717 12.1099 2.48937 11.5492 3.064C11.2775 3.34262 11.2183 3.45755 11.2566 3.61426C11.2915 3.74661 11.3855 3.78143 11.6153 3.73616C11.9497 3.67695 12.4338 3.69088 12.6427 3.77098C12.8587 3.85109 12.8796 3.85457 12.8796 3.79536C12.8796 3.58989 13.9069 2.36399 14.2865 2.11324L14.3875 2.05055L14.304 2.02617C14.189 1.99483 13.4542 1.99831 13.2626 2.02966Z" fill="#A59FB9"/>
<path d="M12.5235 4.41676C12.3041 4.57696 12.2693 4.64662 12.339 4.79289C12.4852 5.09936 13.9166 6.68049 14.143 6.78845L14.2683 6.84766L14.5295 6.67701C14.6758 6.58297 14.7873 6.48894 14.7838 6.46805C14.7803 6.44367 14.5783 6.2173 14.338 5.96306C14.0977 5.70534 13.6519 5.22822 13.3524 4.90433C13.0529 4.57696 12.7778 4.3088 12.7464 4.30532C12.7151 4.29835 12.6141 4.35059 12.5235 4.41676Z" fill="#A59FB9"/>
<path d="M4.20341 4.53517C4.05366 4.68492 4.06062 4.88692 4.22082 5.04712C4.43327 5.25956 4.69795 5.17946 4.79894 4.8695C4.90691 4.53865 4.45416 4.28442 4.20341 4.53517Z" fill="#A59FB9"/>
<path d="M11.8788 5.32473C11.6594 5.55806 11.4469 5.97598 11.3668 6.33121C11.3146 6.575 11.2066 7.37601 11.1997 7.5989C11.1927 7.79045 11.2658 7.82179 11.6942 7.79393C12.429 7.75214 12.8435 7.65114 13.2509 7.42477C13.4703 7.29939 13.7838 7.02078 13.7838 6.95113C13.7838 6.88496 13.4042 6.48793 13.3415 6.48793C13.3171 6.48793 13.2126 6.5541 13.1116 6.6342C12.8783 6.81879 12.6484 6.92327 12.3141 6.98944C11.9624 7.06257 11.938 7.05909 11.938 6.96506C11.938 6.86058 12.0877 6.32425 12.1574 6.17449C12.1922 6.10484 12.2967 5.95509 12.3907 5.83668C12.4882 5.71827 12.5649 5.59986 12.5649 5.57199C12.5649 5.52672 12.14 5.1297 12.0912 5.1297C12.0738 5.1297 11.9798 5.21676 11.8788 5.32473Z" fill="#A59FB9"/>
<path d="M3.59398 5.54436C3.44075 5.63839 3.37109 5.74984 3.37109 5.90656C3.37109 6.30358 3.7925 6.48119 4.06763 6.20258C4.15469 6.11552 4.17211 6.07024 4.17211 5.92745C4.17211 5.78118 4.15469 5.73591 4.06066 5.63491C3.91439 5.47819 3.74722 5.44684 3.59398 5.54436Z" fill="#A59FB9"/>
<path d="M17.127 5.68027C16.6568 6.02505 15.9986 6.38376 15.5842 6.52307L15.3439 6.59969L15.3682 6.7982C15.3926 7.02805 15.3439 7.42159 15.2429 7.75245C15.1837 7.95444 15.1802 7.99972 15.2185 8.0833C15.3195 8.29574 15.5598 8.21216 16.2215 7.73155C16.723 7.36239 17.0713 6.88178 17.2419 6.31759C17.3255 6.02853 17.4091 5.50961 17.3673 5.5131C17.3603 5.51658 17.2524 5.58972 17.127 5.68027Z" fill="#A59FB9"/>
<path d="M10.1203 6.75393C10.0054 6.81662 9.95312 6.90369 9.95312 7.043C9.95312 7.19623 10.0088 7.29723 10.1447 7.3843C10.2944 7.48529 10.4059 7.48529 10.5243 7.39126C10.7507 7.21365 10.7646 6.98379 10.5591 6.80269C10.4233 6.68428 10.277 6.66687 10.1203 6.75393Z" fill="#A59FB9"/>
<path d="M3.13058 6.93106C2.90769 7.0425 2.82759 7.29674 2.93207 7.54749C3.00172 7.71117 3.10968 7.77734 3.31864 7.77734C3.61119 7.77734 3.78532 7.62062 3.7888 7.35246C3.7888 7.22708 3.76791 7.1644 3.69825 7.08081C3.52412 6.87534 3.34302 6.82658 3.13058 6.93106Z" fill="#A59FB9"/>
<path d="M8.84249 7.05861C8.56387 7.21185 8.63004 7.73425 8.93652 7.8248C9.29871 7.92927 9.59822 7.3825 9.33006 7.11085C9.24647 7.03075 9.19772 7.00985 9.07582 7.00985C8.99224 7.01334 8.88776 7.03423 8.84249 7.05861Z" fill="#A59FB9"/>
<path d="M7.63456 7.68694C7.46391 7.85759 7.46043 8.08745 7.62411 8.2372C7.80521 8.40785 8.07686 8.35561 8.19527 8.12575C8.33806 7.85062 8.16741 7.56853 7.86093 7.56853C7.78431 7.56853 7.71814 7.60336 7.63456 7.68694Z" fill="#A59FB9"/>
<path d="M6.58211 8.34352C6.47066 8.46193 6.48459 8.59775 6.6239 8.73706C6.72142 8.83457 6.76669 8.85547 6.89555 8.85547C7.07665 8.85547 7.1672 8.77885 7.1672 8.63258C7.1672 8.51069 7.08013 8.347 6.99655 8.29824C6.87117 8.23207 6.66221 8.25645 6.58211 8.34352Z" fill="#A59FB9"/>
<path d="M3.03353 8.52985C2.89074 8.59951 2.7793 8.77712 2.7793 8.93036C2.7793 9.10101 2.90467 9.33087 3.02308 9.37962C3.16239 9.43883 3.441 9.40748 3.55593 9.3239C3.69524 9.22639 3.79972 8.98956 3.77185 8.85026C3.70917 8.55075 3.32607 8.38707 3.03353 8.52985Z" fill="#A59FB9"/>
<path d="M6.5196 9.36056C6.43254 9.4929 6.39771 9.6949 6.4395 9.80286C6.5405 10.0571 6.99673 9.98396 7.04897 9.70535C7.07683 9.55211 7.01762 9.40584 6.89225 9.3327C6.74249 9.24564 6.58926 9.25608 6.5196 9.36056Z" fill="#A59FB9"/>
<path d="M3.4402 10.0826C3.25911 10.208 3.18945 10.3229 3.18945 10.5075C3.18945 10.6712 3.24169 10.7826 3.37403 10.9149C3.46458 11.0055 3.76409 11.0055 3.91733 10.9115C4.15067 10.7687 4.23425 10.3751 4.06708 10.1975C3.87554 9.99203 3.63872 9.95024 3.4402 10.0826Z" fill="#A59FB9"/>
<path d="M17.8756 10.085C17.6841 10.2487 17.7502 10.6492 17.9836 10.7363C18.2517 10.8407 18.492 10.7293 18.5373 10.482C18.6035 10.1372 18.1368 9.85863 17.8756 10.085Z" fill="#A59FB9"/>
<path d="M16.9989 11.3108C16.7481 11.4187 16.6611 11.7879 16.8352 12.0178C17.0198 12.2546 17.3123 12.2894 17.5108 12.0944C17.772 11.8401 17.7302 11.4779 17.4273 11.3282C17.2566 11.2481 17.1556 11.2411 16.9989 11.3108Z" fill="#A59FB9"/>
<path d="M4.45004 11.5867C4.16447 11.6911 4.07392 12.1021 4.27243 12.4155C4.40129 12.6175 4.46397 12.6523 4.70428 12.6523C5.13961 12.6523 5.37643 12.2379 5.17792 11.8235C5.05603 11.5762 4.75303 11.4787 4.45004 11.5867Z" fill="#A59FB9"/>
<path d="M15.7093 12.5799C15.5317 12.6635 15.4551 12.7993 15.4551 13.0327C15.4551 13.266 15.5387 13.4297 15.7058 13.5237C16.0297 13.7048 16.4302 13.4262 16.4302 13.0187C16.4302 12.6635 16.0402 12.4267 15.7093 12.5799Z" fill="#A59FB9"/>
<path d="M5.82558 12.8472C5.51562 13.0074 5.42159 13.2686 5.56089 13.5786C5.65144 13.7771 5.78378 13.8711 5.97185 13.8711C6.17384 13.8711 6.33056 13.8014 6.44897 13.6587C6.53952 13.5507 6.54649 13.5263 6.52907 13.3348C6.50818 13.0979 6.43504 12.983 6.24001 12.8716C6.07981 12.7775 5.96836 12.7706 5.82558 12.8472Z" fill="#A59FB9"/>
<path d="M14.5082 13.8572C14.456 13.8851 14.3724 13.9756 14.3236 14.0592C14.0589 14.5085 14.442 14.9926 14.8599 14.7383C15.0689 14.6095 15.2082 14.404 15.2117 14.2159C15.2152 13.906 14.8007 13.697 14.5082 13.8572Z" fill="#A59FB9"/>
<path d="M7.23718 13.8715C7.18843 13.8924 7.10484 13.9725 7.0526 14.0526C6.80882 14.4323 7.04912 14.9512 7.474 14.9512C7.64814 14.9512 7.77351 14.892 7.91282 14.7457C8.12178 14.5298 8.05213 14.1119 7.78048 13.9447C7.64117 13.8576 7.36604 13.8228 7.23718 13.8715Z" fill="#A59FB9"/>
<path d="M8.96042 14.6031C8.77584 14.6937 8.69922 14.826 8.69922 15.0629C8.69922 15.5295 9.18331 15.843 9.53854 15.6027C9.7266 15.4773 9.82063 15.2823 9.79974 15.0663C9.77884 14.84 9.68829 14.7007 9.48978 14.6066C9.30172 14.5161 9.13803 14.5126 8.96042 14.6031Z" fill="#A59FB9"/>
<path d="M12.7459 14.6369C12.4813 14.7971 12.4221 15.1001 12.5997 15.3822C12.7773 15.6608 13.0315 15.7166 13.3067 15.5459C13.5121 15.4136 13.6236 15.2046 13.5992 15.0096C13.5539 14.6648 13.0559 14.4489 12.7459 14.6369Z" fill="#A59FB9"/>
<path d="M10.9207 14.8461C10.6491 14.9923 10.5446 15.3023 10.6804 15.567C10.8546 15.9118 11.1924 15.9884 11.471 15.7446C11.7218 15.5217 11.7601 15.2466 11.572 14.9993C11.4048 14.7799 11.1576 14.7242 10.9207 14.8461Z" fill="#A59FB9"/>
</svg>
