<svg width="22" height="23" viewBox="0 0 22 23" fill="none" xmlns="http://www.w3.org/2000/svg">
<path d="M10.406 0.666136C9.00251 0.812408 8.17363 1.02137 6.89201 1.54028C5.56512 2.07661 4.52729 2.76618 3.44767 3.82839C1.99888 5.24931 1.14563 6.60058 0.529198 8.42898C0.212276 9.37278 -0.0315096 11.0201 0.00331698 11.9813C0.0242129 12.5281 0.128693 13.437 0.226207 13.8793C0.776467 16.4461 2.40983 18.8317 4.69446 20.4058C5.29696 20.8203 5.47109 20.9213 6.10493 21.2382C6.87808 21.6248 7.63034 21.8825 8.51842 22.0671C9.65724 22.3004 11.4787 22.3387 12.6001 22.1472C13.4464 22.0044 14.3728 21.7467 15.0693 21.4541C15.32 21.3496 16.1141 20.9596 16.3579 20.8203C16.6295 20.6636 17.4793 20.075 17.7022 19.8904C18.0296 19.6222 18.7853 18.8665 19.0012 18.5983C20.4291 16.8291 21.1431 15.3246 21.46 13.4266C21.7699 11.5494 21.4983 9.30313 20.7286 7.44339C20.4813 6.84785 20.4221 6.79213 20.039 6.80606C19.9729 6.80954 19.8963 6.85482 19.8057 6.94537C19.6002 7.15084 19.6107 7.29015 19.8997 8.02151C20.3316 9.11158 20.5614 10.2504 20.5963 11.4415C20.6485 13.1306 20.255 14.8022 19.4679 16.2301C19.2346 16.6515 18.7017 17.4386 18.3709 17.8496C17.7579 18.6123 16.7828 19.4551 15.9713 19.9252C15.024 20.4755 13.8817 20.9213 12.9379 21.1059C11.4438 21.3949 10.5209 21.4054 8.9433 21.1407C6.79798 20.7854 4.73277 19.5909 3.27353 17.867C2.08943 16.4704 1.35459 14.8789 1.08294 13.1132C0.988909 12.5037 0.999357 11.0758 1.10035 10.4036C1.32324 8.91655 1.73768 7.8021 2.56655 6.44386C3.79245 4.43437 5.95866 2.75921 8.14229 2.12885C8.98857 1.88158 9.807 1.73183 10.406 1.70397C10.9981 1.67959 11.0364 1.67262 11.1966 1.53332C11.5483 1.23381 11.3951 0.732307 10.9284 0.638275C10.8797 0.627827 10.6463 0.641758 10.406 0.666136Z" fill="#A59FB9"/>
<path d="M17.4566 0.663989C17.399 0.67695 17.1384 0.735271 16.8808 0.790353C16.1685 0.945878 15.0684 1.20508 14.5925 1.32821C14.3592 1.38977 13.9894 1.48373 13.7682 1.53557C13.0377 1.71054 13.0196 1.80126 13.5984 2.40392L13.953 2.77005L13.8318 2.90289C13.6742 3.07786 13.0105 3.60276 12.7286 3.78096C12.4619 3.9462 12.174 4.08877 11.9588 4.15681C11.8315 4.19569 11.4466 4.20865 9.87968 4.22809C7.80361 4.25077 7.89756 4.24429 7.43992 4.4387C6.47007 4.85343 5.62146 5.53709 4.93044 6.46376C4.81831 6.61604 4.70314 6.76833 4.67889 6.80397C4.57585 6.94005 4.30611 7.40015 4.21822 7.58483C4.10002 7.83432 4 8.18749 4 8.34949C4 8.44022 4.02122 8.49854 4.07577 8.55362C4.22428 8.71562 4.31823 8.64434 4.46674 8.25553C4.6698 7.72092 4.79406 7.50707 5.25474 6.89793C5.9609 5.9745 6.90347 5.23252 7.79149 4.90203L8.07638 4.79835L9.50084 4.78863C11.5405 4.77891 11.9588 4.76271 12.1922 4.67847C12.571 4.54238 13.2469 4.13737 13.5439 3.87168C14.6289 2.88993 14.6077 2.91261 14.6077 2.83485C14.6077 2.80245 14.5622 2.70201 14.5046 2.61453C14.3743 2.40716 14.2106 2.08315 14.2258 2.06371C14.2561 2.03131 15.7169 1.67166 16.0321 1.61982C16.1079 1.60686 16.3261 1.55502 16.5201 1.50317C16.902 1.39949 17.3414 1.30877 17.3626 1.33145C17.3808 1.34765 17.2354 2.90289 17.1414 3.74208C17.102 4.08877 17.0596 4.4711 17.0474 4.59098C17.0384 4.71411 17.0141 4.81131 17.002 4.81131C16.9747 4.81131 16.7777 4.6331 16.3534 4.21513C16.1594 4.02721 16.1109 3.99805 16.0473 4.01425C16.0049 4.02721 15.8351 4.16977 15.6745 4.33502C15.3017 4.71411 14.8986 5.09968 14.8107 5.16124C14.7744 5.1904 14.6228 5.32325 14.4713 5.46257C14.0621 5.83518 13.9409 5.9259 13.6439 6.09115C13.3469 6.25315 12.9892 6.37628 12.6407 6.4346C12.3801 6.47672 11.389 6.43136 10.6525 6.34387C9.9797 6.26287 8.21882 6.26287 7.93999 6.34387C7.67632 6.4184 7.39749 6.56744 7.28838 6.69057L7.20049 6.79101L7.25504 6.90117C7.28838 6.96273 7.34293 7.03726 7.38233 7.06318C7.4672 7.1215 7.60358 7.09558 7.92484 6.95949L8.13699 6.86877L9.31899 6.87201C10.2767 6.87201 10.598 6.88497 11.0162 6.93681C11.3405 6.97569 11.7285 6.99837 12.0618 6.99513C12.5225 6.99513 12.6377 6.98217 12.9408 6.90765C13.5136 6.76833 13.8985 6.58688 14.3955 6.22399C14.6289 6.05227 15.4624 5.31352 15.8321 4.95063C15.9473 4.83723 16.0564 4.74651 16.0776 4.74651C16.114 4.74651 16.2837 4.93119 16.6019 5.32001C16.8171 5.58245 17.0474 5.7315 17.1808 5.69586C17.3323 5.65698 17.4233 5.55977 17.4687 5.38481C17.5657 5.01544 17.8112 3.1135 17.9082 1.99243C17.9264 1.7883 17.9567 1.46429 17.9779 1.27637C18.0112 0.958838 18.0082 0.923197 17.9597 0.842195C17.9051 0.754712 17.693 0.631588 17.6081 0.634828C17.5839 0.638068 17.5142 0.651029 17.4566 0.663989Z" fill="#A59FB9"/>
<path d="M5.53633 5.68437C5.0976 5.78267 4.55389 6.18343 4.2689 6.62199C4.20516 6.72028 4.11516 6.93956 4.07016 7.11348C3.99892 7.37056 3.99142 7.48776 4.00642 7.80156C4.02892 8.25903 4.07016 8.39891 4.25015 8.66734C4.49764 9.03785 4.73762 9.25713 5.06386 9.41214C5.22885 9.49153 5.44258 9.57471 5.53258 9.59361C5.81756 9.66166 6.26004 9.64276 6.51502 9.5558C7.13748 9.34408 7.50871 9.04541 7.74495 8.56148C8.08993 7.85449 8.08618 7.20799 7.7262 6.62577C7.24998 5.85451 6.41003 5.49534 5.53633 5.68437ZM6.60126 6.44429C6.83 6.55771 7.07749 6.8148 7.21623 7.08323C7.47871 7.59362 7.32122 8.27415 6.8525 8.68246C6.51127 8.98114 6.14379 9.05675 5.61132 8.93199C5.03761 8.80345 4.73013 8.42916 4.63263 7.74863C4.57638 7.33276 4.70763 6.93578 4.97386 6.70516C5.12385 6.5804 5.48383 6.39514 5.67507 6.346C5.93005 6.28172 6.36128 6.32709 6.60126 6.44429Z" fill="#A59FB9"/>
<path d="M16.5646 8.0275C16.4217 8.12371 16.3197 8.32488 16.3459 8.45608C16.3838 8.66599 16.62 8.86133 16.8357 8.86133C17.0573 8.86133 17.2935 8.56978 17.2556 8.34237C17.206 8.02458 16.8241 7.85257 16.5646 8.0275Z" fill="#A59FB9"/>
<path d="M2.89798 8.38915C2.82218 8.45912 2.80469 8.49994 2.80469 8.59906C2.80469 8.70985 2.81343 8.72151 2.90965 8.76233C3.07874 8.8323 3.21286 8.80606 3.29157 8.68944C3.32948 8.63405 3.35863 8.57282 3.35863 8.55241C3.35863 8.4737 3.20119 8.33375 3.09624 8.31918C3.00877 8.3046 2.9767 8.31626 2.89798 8.38915Z" fill="#A59FB9"/>
<path d="M11.9893 9.07076C11.8406 9.1728 11.7706 9.28359 11.7735 9.4177C11.7794 9.57222 11.8552 9.67426 12.0272 9.76173C12.1642 9.82878 12.17 9.82878 12.2954 9.77922C12.5403 9.68884 12.6453 9.38563 12.5053 9.17863C12.3829 8.99787 12.1642 8.95122 11.9893 9.07076Z" fill="#A59FB9"/>
<path d="M14.7413 10.0573C14.6451 10.0952 14.5547 10.2293 14.5547 10.3313C14.5547 10.5325 14.89 10.7133 15.0766 10.6112C15.2165 10.5383 15.2952 10.3051 15.2252 10.171C15.1611 10.0515 14.9045 9.99024 14.7413 10.0573Z" fill="#A59FB9"/>
<path d="M2.42376 10.1222C2.23134 10.2797 2.23426 10.5275 2.42959 10.6295C2.69199 10.7636 2.9398 10.4284 2.75904 10.1835C2.68907 10.0902 2.5054 10.0581 2.42376 10.1222Z" fill="#A59FB9"/>
<path d="M16.2401 10.1622C16.0827 10.2468 16.0535 10.4334 16.1731 10.5762C16.4034 10.8532 16.8786 10.5733 16.7124 10.2585C16.6425 10.1273 16.3946 10.0777 16.2401 10.1622Z" fill="#A59FB9"/>
<path d="M17.3421 10.2054C17.1847 10.3279 17.1351 10.5319 17.2226 10.6981C17.2838 10.8177 17.3771 10.873 17.5199 10.873C17.6774 10.873 17.8319 10.7448 17.8844 10.5786C17.9106 10.4824 17.9106 10.4474 17.8698 10.3628C17.7736 10.1617 17.5024 10.08 17.3421 10.2054Z" fill="#A59FB9"/>
<path d="M18.8441 10.3043C18.7392 10.418 18.7246 10.4501 18.7246 10.5725C18.7275 10.73 18.7771 10.8087 18.9229 10.8845C19.1765 11.0157 19.4826 10.8582 19.4826 10.5959C19.4826 10.3918 19.2669 10.1731 19.0686 10.1731C18.9841 10.1731 18.9433 10.1964 18.8441 10.3043Z" fill="#A59FB9"/>
<path d="M4.81048 9.67675C4.42794 9.77926 3.95635 10.1009 3.61339 10.4897C3.16489 11.0058 3.05606 11.4088 3.01319 12.7343C3 13.1903 2.9967 13.5897 3.0033 13.6251C3.01979 13.6852 3.05606 13.6922 3.28031 13.6922H3.54083V13.3635C3.54083 13.1868 3.55732 12.7237 3.57381 12.3384C3.60349 11.6986 3.61668 11.6138 3.69913 11.384C3.75189 11.2426 3.85742 11.0376 3.93327 10.9281C4.09486 10.6983 4.43783 10.4332 4.65548 10.366C4.7808 10.3271 4.80058 10.3307 4.84346 10.3908C4.86654 10.4261 4.89952 10.4968 4.90941 10.5428C4.94569 10.6983 5.03473 10.7973 5.29525 10.9775C5.69098 11.2497 5.71077 11.3063 5.56567 11.7516C5.45684 12.0945 5.12377 13.5508 5.12377 13.6887C5.12377 13.7771 5.15345 13.823 5.28206 13.929C5.3678 14.0033 5.52609 14.1694 5.63162 14.3037C5.86576 14.5971 6.00427 14.6819 6.12959 14.6113C6.17576 14.5865 6.30107 14.4593 6.4066 14.3285C6.51543 14.1977 6.68031 14.0316 6.76935 13.9538C6.90786 13.8442 6.93754 13.7983 6.93754 13.7099C6.93754 13.5968 6.77265 12.8297 6.7067 12.653C6.62755 12.4303 6.44288 11.5855 6.44288 11.4477C6.44288 11.3098 6.45936 11.2851 6.71659 11.02C7.02658 10.7018 7.11232 10.5852 7.11232 10.4579C7.11232 10.3519 7.16509 10.3448 7.36295 10.4226C7.81145 10.5922 8.24016 11.1472 8.35558 11.7128C8.37867 11.8188 8.40505 12.3066 8.41824 12.7979C8.42813 13.2857 8.44462 13.6922 8.45452 13.7028C8.49079 13.7382 8.97556 13.7664 8.99535 13.7346C9.00525 13.717 8.99865 13.2504 8.98216 12.699C8.94918 11.5431 8.90961 11.3063 8.67547 10.8715C8.44133 10.4261 7.90709 9.95953 7.4487 9.7934C6.9936 9.62726 6.91446 9.61666 6.53521 9.67675C6.1065 9.74745 5.813 9.74745 5.47003 9.68029C5.15345 9.62019 5.02813 9.62019 4.81048 9.67675ZM6.48904 10.26L6.64734 10.3342L6.50553 10.4615C6.33735 10.6099 6.24831 10.6523 6.09661 10.6523C5.93502 10.6523 5.84928 10.5993 5.72066 10.419C5.56237 10.1964 5.62173 10.1539 6.06693 10.1716C6.24501 10.1822 6.38352 10.207 6.48904 10.26ZM6.16916 12.7732C6.21863 12.9287 6.24171 13.0913 6.24501 13.2716C6.24501 13.5226 6.23841 13.5473 6.16256 13.6003C6.05044 13.6781 5.99768 13.671 5.91853 13.565C5.83938 13.4589 5.83279 13.3034 5.88225 12.9499C5.9548 12.4586 6.05044 12.3985 6.16916 12.7732Z" fill="#A59FB9"/>
<path d="M12.536 11.2811C12.2765 11.3481 12.0549 11.5289 11.9324 11.7767C11.8771 11.8846 11.8625 11.972 11.8508 12.249C11.8392 12.5755 11.8333 12.593 11.775 12.593C11.7429 12.5959 11.3843 12.6076 10.9849 12.6193C10.154 12.6484 10.0403 12.6747 9.84496 12.8904C9.65254 13.1061 9.66128 12.975 9.66128 15.4181C9.65837 17.8788 9.64671 17.7097 9.85662 17.9954C10.0578 18.2666 9.78082 18.2462 13.0986 18.252L16.0287 18.2578L16.1803 18.1908C16.3465 18.1208 16.5214 17.9488 16.5856 17.7972C16.6176 17.7184 16.6235 17.3044 16.6176 15.4444L16.6118 13.1907L16.5477 13.0682C16.466 12.9196 16.2707 12.7534 16.1045 12.6951C16.0025 12.6601 15.0112 12.5959 14.5214 12.593C14.4777 12.593 14.4689 12.5639 14.4689 12.4093C14.4689 12.144 14.4194 11.8467 14.3552 11.7213C14.2823 11.5813 14.0899 11.4064 13.9179 11.3306C13.8013 11.2781 13.7167 11.2694 13.2153 11.2636C12.9033 11.2577 12.5972 11.2665 12.536 11.2811ZM13.7634 11.8233C13.8829 11.905 13.915 12.0158 13.915 12.3306V12.628L13.1657 12.6047C12.7517 12.5959 12.4048 12.5784 12.3931 12.5726C12.3494 12.5493 12.3669 12.0391 12.4164 11.9487C12.4922 11.8 12.5884 11.7796 13.1715 11.7767C13.603 11.7767 13.7109 11.7854 13.7634 11.8233ZM15.8305 13.1353C15.8859 13.144 15.9558 13.1878 16.0112 13.2519L16.1016 13.354V14.1032C16.1016 14.8467 16.1016 14.8554 16.0316 14.9575C15.9296 15.1062 15.6963 15.2111 15.4106 15.2345C15.2823 15.2461 14.9237 15.2432 14.6089 15.2315L14.0374 15.2111L14.0258 15.0333C14.0141 14.8904 13.9995 14.8467 13.9383 14.7942C13.8654 14.7301 13.8479 14.7301 13.1424 14.7359C12.5418 14.7417 12.4164 14.7505 12.3785 14.7884C12.3494 14.8175 12.329 14.9108 12.3173 15.042L12.3027 15.2519L11.498 15.2403C10.5797 15.2286 10.5447 15.2199 10.2998 14.9691L10.1686 14.835V14.0653V13.2957L10.2531 13.2082L10.3406 13.1178L11.7983 13.112C13.5505 13.1003 15.7022 13.1149 15.8305 13.1353ZM13.5301 15.6018L13.5214 15.9604H13.1657C12.9704 15.9604 12.8042 15.9517 12.7925 15.9429C12.7838 15.9313 12.7721 15.7709 12.7692 15.5843L12.7634 15.2461H13.1511H13.5389L13.5301 15.6018ZM10.3377 15.596C10.5097 15.7184 10.6934 15.7417 11.5622 15.7417H12.2823V15.9371C12.2823 16.424 12.3319 16.4531 13.1191 16.4823C13.7284 16.5056 13.7663 16.4969 13.915 16.3394C13.9791 16.2724 13.9879 16.2286 14.0024 15.9954L14.017 15.7272L14.8188 15.7243C15.6643 15.7213 15.7838 15.7068 15.9996 15.5814L16.1162 15.5143L16.1249 16.561L16.1366 17.6047L16.0608 17.6805C15.9996 17.7418 15.9587 17.7534 15.8188 17.7534C15.7255 17.7563 14.466 17.7563 13.017 17.7534C10.1336 17.7534 10.2473 17.7593 10.1802 17.5843C10.1453 17.4969 10.1657 15.5085 10.2006 15.5085C10.2065 15.5085 10.2677 15.5493 10.3377 15.596Z" fill="#A59FB9"/>
<path d="M17.4008 11.8934C17.2084 12.0625 17.2025 12.2607 17.3833 12.389C17.704 12.6164 18.0976 12.319 17.9227 11.9808C17.8235 11.7913 17.567 11.7505 17.4008 11.8934Z" fill="#A59FB9"/>
<path d="M19.0193 11.8818C18.9698 11.9227 18.9144 12.0072 18.8969 12.0684C18.8561 12.2025 18.9027 12.2988 19.0543 12.3891C19.1972 12.4766 19.343 12.4649 19.4683 12.3571C19.5908 12.2463 19.6024 12.1267 19.5033 11.978C19.3779 11.7915 19.1739 11.7506 19.0193 11.8818Z" fill="#A59FB9"/>
<path d="M17.5472 14.0244C17.3869 14.1527 17.5035 14.4297 17.7222 14.4297C17.9467 14.4297 18.0196 14.1294 17.8242 14.0128C17.7134 13.9486 17.6405 13.9486 17.5472 14.0244Z" fill="#A59FB9"/>
<path d="M17.5288 15.529C17.4005 15.6339 17.3743 15.7214 17.4238 15.8438C17.4676 15.9459 17.6192 16.0625 17.7096 16.0625C17.7854 16.0625 17.9311 15.9255 17.9661 15.8147C17.9924 15.736 17.9895 15.6981 17.9545 15.6281C17.8553 15.4415 17.6804 15.3978 17.5288 15.529Z" fill="#A59FB9"/>
<path d="M4.6183 16.109C4.45795 16.2198 4.47836 16.3889 4.65912 16.4385C4.81364 16.4822 4.93318 16.4093 4.93318 16.2752C4.93318 16.1294 4.73784 16.0245 4.6183 16.109Z" fill="#A59FB9"/>
<path d="M6.54697 17.1275C6.18837 17.282 6.31665 17.8622 6.70732 17.8534C6.9843 17.8476 7.17089 17.4627 7.00179 17.247C6.87934 17.0925 6.7219 17.0517 6.54697 17.1275Z" fill="#A59FB9"/>
<path d="M4.74142 17.1357C4.6627 17.1853 4.58398 17.366 4.58398 17.4972C4.58398 17.6168 4.59856 17.6488 4.68603 17.7363C4.81139 17.8617 4.94259 17.9054 5.06212 17.8587C5.23122 17.7917 5.30994 17.4914 5.20498 17.3165C5.12043 17.1707 4.84929 17.0628 4.74142 17.1357Z" fill="#A59FB9"/>
<path d="M8.10883 17.1796C8.05343 17.2146 7.98638 17.2962 7.95431 17.3575C7.8785 17.5091 7.92223 17.6578 8.07676 17.7627C8.25752 17.8881 8.3479 17.8939 8.47618 17.7802C8.72108 17.5645 8.70067 17.2962 8.42661 17.1534C8.31583 17.0951 8.22253 17.1038 8.10883 17.1796Z" fill="#A59FB9"/>
<path d="M6.5503 18.6695C6.47158 18.7482 6.45117 18.792 6.45117 18.8853C6.45117 19.0369 6.55904 19.1681 6.71648 19.2176C6.81852 19.2468 6.84185 19.2439 6.9089 19.1943C7.16547 19.0019 7.16838 18.7424 6.91182 18.6112C6.77479 18.5412 6.66109 18.5587 6.5503 18.6695Z" fill="#A59FB9"/>
<path d="M8.08646 18.6466C7.90862 18.8099 7.95527 19.0519 8.19142 19.1918C8.2818 19.2414 8.29055 19.2443 8.38968 19.1947C8.74828 19.0256 8.70163 18.6145 8.32262 18.5766C8.19725 18.565 8.1681 18.5737 8.08646 18.6466Z" fill="#A59FB9"/>
</svg>
