<svg width="22" height="22" viewBox="0 0 22 22" fill="none" xmlns="http://www.w3.org/2000/svg">
<mask id="path-1-inside-1_13599_41042" fill="white">
<path d="M10.406 0.0313705C9.00251 0.177642 8.17363 0.386602 6.89201 0.905518C5.56512 1.44185 4.52729 2.13141 3.44767 3.19362C1.99888 4.61455 1.14563 5.96582 0.529198 7.79421C0.212276 8.73801 -0.0315096 10.3853 0.00331698 11.3465C0.0242129 11.8933 0.128693 12.8023 0.226207 13.2446C0.776467 15.8113 2.40983 18.1969 4.69446 19.7711C5.29696 20.1855 5.47109 20.2865 6.10493 20.6034C6.87808 20.99 7.63034 21.2477 8.51842 21.4323C9.65724 21.6656 11.4787 21.7039 12.6001 21.5124C13.4464 21.3696 14.3728 21.1119 15.0693 20.8194C15.32 20.7149 16.1141 20.3248 16.3579 20.1855C16.6295 20.0288 17.4793 19.4402 17.7022 19.2556C18.0296 18.9875 18.7853 18.2317 19.0012 17.9636C20.4291 16.1944 21.1431 14.6899 21.46 12.7918C21.7699 10.9147 21.4983 8.66836 20.7286 6.80862C20.4813 6.21309 20.4221 6.15737 20.039 6.1713C19.9729 6.17478 19.8963 6.22005 19.8057 6.3106C19.6002 6.51608 19.6107 6.65538 19.8997 7.38674C20.3316 8.47681 20.5614 9.61564 20.5963 10.8067C20.6485 12.4958 20.255 14.1675 19.4679 15.5954C19.2346 16.0168 18.7017 16.8038 18.3709 17.2148C17.7579 17.9775 16.7828 18.8203 15.9713 19.2905C15.024 19.8407 13.8817 20.2865 12.9379 20.4711C11.4438 20.7601 10.5209 20.7706 8.9433 20.5059C6.79798 20.1507 4.73277 18.9561 3.27353 17.2322C2.08943 15.8357 1.35459 14.2441 1.08294 12.4784C0.988909 11.8689 0.999357 10.441 1.10035 9.76888C1.32324 8.28179 1.73768 7.16734 2.56655 5.8091C3.79245 3.79961 5.95866 2.12445 8.14229 1.49409C8.98857 1.24682 9.807 1.09706 10.406 1.0692C10.9981 1.04482 11.0364 1.03786 11.1966 0.898552C11.5483 0.599044 11.3951 0.097541 10.9284 0.0035092C10.8797 -0.00693877 10.6463 0.00699186 10.406 0.0313705Z"/>
</mask>
<path d="M10.406 0.0313705C9.00251 0.177642 8.17363 0.386602 6.89201 0.905518C5.56512 1.44185 4.52729 2.13141 3.44767 3.19362C1.99888 4.61455 1.14563 5.96582 0.529198 7.79421C0.212276 8.73801 -0.0315096 10.3853 0.00331698 11.3465C0.0242129 11.8933 0.128693 12.8023 0.226207 13.2446C0.776467 15.8113 2.40983 18.1969 4.69446 19.7711C5.29696 20.1855 5.47109 20.2865 6.10493 20.6034C6.87808 20.99 7.63034 21.2477 8.51842 21.4323C9.65724 21.6656 11.4787 21.7039 12.6001 21.5124C13.4464 21.3696 14.3728 21.1119 15.0693 20.8194C15.32 20.7149 16.1141 20.3248 16.3579 20.1855C16.6295 20.0288 17.4793 19.4402 17.7022 19.2556C18.0296 18.9875 18.7853 18.2317 19.0012 17.9636C20.4291 16.1944 21.1431 14.6899 21.46 12.7918C21.7699 10.9147 21.4983 8.66836 20.7286 6.80862C20.4813 6.21309 20.4221 6.15737 20.039 6.1713C19.9729 6.17478 19.8963 6.22005 19.8057 6.3106C19.6002 6.51608 19.6107 6.65538 19.8997 7.38674C20.3316 8.47681 20.5614 9.61564 20.5963 10.8067C20.6485 12.4958 20.255 14.1675 19.4679 15.5954C19.2346 16.0168 18.7017 16.8038 18.3709 17.2148C17.7579 17.9775 16.7828 18.8203 15.9713 19.2905C15.024 19.8407 13.8817 20.2865 12.9379 20.4711C11.4438 20.7601 10.5209 20.7706 8.9433 20.5059C6.79798 20.1507 4.73277 18.9561 3.27353 17.2322C2.08943 15.8357 1.35459 14.2441 1.08294 12.4784C0.988909 11.8689 0.999357 10.441 1.10035 9.76888C1.32324 8.28179 1.73768 7.16734 2.56655 5.8091C3.79245 3.79961 5.95866 2.12445 8.14229 1.49409C8.98857 1.24682 9.807 1.09706 10.406 1.0692C10.9981 1.04482 11.0364 1.03786 11.1966 0.898552C11.5483 0.599044 11.3951 0.097541 10.9284 0.0035092C10.8797 -0.00693877 10.6463 0.00699186 10.406 0.0313705Z" fill="#161616"/>
<path d="M10.406 0.0313705L10.3922 -0.101245L10.3926 -0.101282L10.406 0.0313705ZM6.89201 0.905518L6.94205 1.0291L6.94198 1.02913L6.89201 0.905518ZM3.44767 3.19362L3.54118 3.28867L3.54103 3.28882L3.44767 3.19362ZM0.529198 7.79421L0.402801 7.75177L0.402852 7.75162L0.529198 7.79421ZM0.00331698 11.3465L-0.129919 11.3516L-0.129929 11.3514L0.00331698 11.3465ZM0.226207 13.2446L0.356416 13.2159L0.356578 13.2166L0.226207 13.2446ZM4.69446 19.7711L4.61889 19.8809L4.61881 19.8809L4.69446 19.7711ZM8.51842 21.4323L8.49165 21.5629L8.49128 21.5628L8.51842 21.4323ZM12.6001 21.5124L12.5776 21.381L12.5779 21.3809L12.6001 21.5124ZM15.0693 20.8194L15.0177 20.6964L15.018 20.6963L15.0693 20.8194ZM16.3579 20.1855L16.4245 20.301L16.424 20.3013L16.3579 20.1855ZM17.7022 19.2556L17.6171 19.1529L17.6177 19.1525L17.7022 19.2556ZM19.0012 17.9636L18.8974 17.88L18.8975 17.8798L19.0012 17.9636ZM21.46 12.7918L21.5915 12.8135L21.5915 12.8138L21.46 12.7918ZM20.7286 6.80862L20.8518 6.75749L20.8518 6.75764L20.7286 6.80862ZM20.039 6.1713L20.032 6.03813L20.0342 6.03805L20.039 6.1713ZM19.8057 6.3106L19.7114 6.21632L19.8057 6.3106ZM19.8997 7.38674L19.7758 7.43585L19.7757 7.43575L19.8997 7.38674ZM20.5963 10.8067L20.463 10.8108L20.463 10.8106L20.5963 10.8067ZM19.4679 15.5954L19.5847 15.6597L19.5845 15.66L19.4679 15.5954ZM18.3709 17.2148L18.2669 17.1313L18.267 17.1312L18.3709 17.2148ZM15.9713 19.2905L15.9043 19.1752L15.9045 19.1751L15.9713 19.2905ZM12.9379 20.4711L12.9635 20.6019L12.9632 20.602L12.9379 20.4711ZM8.9433 20.5059L8.96508 20.3744L8.96536 20.3744L8.9433 20.5059ZM3.27353 17.2322L3.37523 17.146L3.3753 17.1461L3.27353 17.2322ZM1.08294 12.4784L1.21472 12.4581L1.21472 12.4581L1.08294 12.4784ZM1.10035 9.76888L1.23221 9.78864L1.23221 9.78869L1.10035 9.76888ZM2.56655 5.8091L2.68038 5.87854L2.68037 5.87856L2.56655 5.8091ZM8.14229 1.49409L8.17968 1.62207L8.17927 1.62219L8.14229 1.49409ZM10.406 1.0692L10.3998 0.936011L10.4005 0.935982L10.406 1.0692ZM11.1966 0.898552L11.1091 0.797933L11.1101 0.797035L11.1966 0.898552ZM10.9284 0.0035092L10.9021 0.134225L10.9005 0.133883L10.9284 0.0035092ZM10.4198 0.163986C9.02879 0.308959 8.2121 0.514873 6.94205 1.0291L6.84197 0.78193C8.13516 0.258331 8.97622 0.0463256 10.3922 -0.101245L10.4198 0.163986ZM6.94198 1.02913C5.63228 1.55851 4.60905 2.23802 3.54118 3.28867L3.35415 3.09858C4.44553 2.02481 5.49796 1.32518 6.84205 0.7819L6.94198 1.02913ZM3.54103 3.28882C2.1066 4.69565 1.265 6.0291 0.655544 7.83681L0.402852 7.75162C1.02626 5.90253 1.89116 4.53344 3.3543 3.09843L3.54103 3.28882ZM0.655596 7.83666C0.343605 8.76577 0.102337 10.3971 0.136563 11.3417L-0.129929 11.3514C-0.165357 10.3735 0.0809482 8.71025 0.402801 7.75177L0.655596 7.83666ZM0.136553 11.3414C0.157229 11.8824 0.261025 12.7832 0.356413 13.2159L0.0960007 13.2733C-0.00363933 12.8213 -0.108803 11.9042 -0.129919 11.3516L0.136553 11.3414ZM0.356578 13.2166C0.899271 15.748 2.51174 18.1052 4.77011 19.6613L4.61881 19.8809C2.30793 18.2886 0.653663 15.8745 0.095836 13.2725L0.356578 13.2166ZM4.77002 19.6612C5.36732 20.0721 5.53611 20.1699 6.16456 20.4842L6.04531 20.7227C5.40606 20.4031 5.2266 20.2989 4.61889 19.8809L4.77002 19.6612ZM6.16456 20.4842C6.92684 20.8653 7.66809 21.1194 8.54555 21.3018L8.49128 21.5628C7.59258 21.3761 6.82933 21.1147 6.04531 20.7227L6.16456 20.4842ZM8.54518 21.3017C9.66844 21.5318 11.4732 21.5696 12.5776 21.381L12.6225 21.6438C11.4842 21.8383 9.64605 21.7994 8.49165 21.5629L8.54518 21.3017ZM12.5779 21.3809C13.4158 21.2396 14.3321 20.9844 15.0177 20.6964L15.1209 20.9423C14.4135 21.2394 13.4769 21.4997 12.6223 21.6439L12.5779 21.3809ZM15.018 20.6963C15.2637 20.5939 16.0527 20.2063 16.2917 20.0697L16.424 20.3013C16.1754 20.4433 15.3764 20.8358 15.1206 20.9424L15.018 20.6963ZM16.2912 20.07C16.5567 19.9169 17.4003 19.3325 17.6171 19.1529L17.7872 19.3583C17.5583 19.5479 16.7023 20.1407 16.4245 20.301L16.2912 20.07ZM17.6177 19.1525C17.9388 18.8895 18.6878 18.1402 18.8974 17.88L19.1051 18.0472C18.8827 18.3233 18.1203 19.0855 17.7867 19.3588L17.6177 19.1525ZM18.8975 17.8798C20.3135 16.1253 21.0159 14.6416 21.3285 12.7699L21.5915 12.8138C21.2702 14.7382 20.5447 16.2634 19.105 18.0473L18.8975 17.8798ZM21.3284 12.7701C21.6341 10.9187 21.3661 8.69756 20.6054 6.85961L20.8518 6.75764C21.6305 8.63916 21.9057 10.9106 21.5915 12.8135L21.3284 12.7701ZM20.6055 6.85975C20.5436 6.71077 20.4955 6.60053 20.4522 6.51752C20.4087 6.43403 20.3745 6.38733 20.3442 6.35926C20.2945 6.31328 20.2365 6.29754 20.0439 6.30454L20.0342 6.03805C20.2246 6.03113 20.3878 6.03627 20.5253 6.16356C20.5886 6.22213 20.6396 6.30014 20.6886 6.39416C20.7379 6.48866 20.79 6.60871 20.8518 6.75749L20.6055 6.85975ZM20.0461 6.30445C20.0317 6.3052 19.9856 6.31931 19.9 6.40488L19.7114 6.21632C19.807 6.12079 19.914 6.04436 20.032 6.03815L20.0461 6.30445ZM19.9 6.40488C19.8535 6.4514 19.8289 6.48484 19.8152 6.51612C19.8025 6.54512 19.7951 6.58153 19.8001 6.64005C19.8112 6.76862 19.8772 6.96685 20.0237 7.33773L19.7757 7.43575C19.6333 7.07528 19.5495 6.83818 19.5344 6.66289C19.5264 6.56947 19.5369 6.48682 19.571 6.40906C19.604 6.33357 19.6552 6.27254 19.7114 6.21632L19.9 6.40488ZM20.0237 7.33763C20.4614 8.44258 20.6943 9.59675 20.7296 10.8028L20.463 10.8106C20.4286 9.63454 20.2017 8.51105 19.7758 7.43585L20.0237 7.33763ZM20.7295 10.8026C20.7825 12.5146 20.3837 14.2101 19.5847 15.6597L19.3511 15.531C20.1262 14.1249 20.5145 12.477 20.463 10.8108L20.7295 10.8026ZM19.5845 15.66C19.3472 16.0886 18.81 16.882 18.4747 17.2984L18.267 17.1312C18.5935 16.7257 19.1219 15.9449 19.3512 15.5308L19.5845 15.66ZM18.4748 17.2983C17.8519 18.0733 16.8644 18.9271 16.0381 19.4058L15.9045 19.1751C16.7012 18.7135 17.6639 17.8817 18.2669 17.1313L18.4748 17.2983ZM16.0383 19.4058C15.0801 19.9624 13.9239 20.4141 12.9635 20.6019L12.9123 20.3402C13.8396 20.1589 14.968 19.7191 15.9043 19.1752L16.0383 19.4058ZM12.9632 20.602C11.453 20.8942 10.514 20.9046 8.92124 20.6374L8.96536 20.3744C10.5279 20.6366 11.4347 20.6261 12.9126 20.3402L12.9632 20.602ZM8.92152 20.6375C6.74359 20.2768 4.65049 19.0653 3.17176 17.3184L3.3753 17.1461C4.81504 18.847 6.85237 20.0245 8.96508 20.3744L8.92152 20.6375ZM3.17183 17.3184C1.97229 15.9037 1.22666 14.2894 0.951158 12.4987L1.21472 12.4581C1.48251 14.1987 2.20657 15.7677 3.37523 17.146L3.17183 17.3184ZM0.951167 12.4987C0.90246 12.183 0.881689 11.6649 0.885181 11.1462C0.888679 10.6269 0.916599 10.0945 0.968501 9.74907L1.23221 9.78869C1.18311 10.1154 1.15531 10.6331 1.15184 11.148C1.14837 11.6637 1.16939 12.1643 1.21472 12.4581L0.951167 12.4987ZM0.968494 9.74912C1.1942 8.24326 1.61523 7.11204 2.45274 5.73964L2.68037 5.87856C1.86014 7.22263 1.45229 8.32031 1.23221 9.78864L0.968494 9.74912ZM2.45273 5.73966C3.69535 3.70275 5.88845 2.00594 8.10531 1.36598L8.17927 1.62219C6.02887 2.24296 3.88955 3.89646 2.68038 5.87854L2.45273 5.73966ZM8.10489 1.3661C8.95782 1.1169 9.78711 0.964511 10.3998 0.936013L10.4122 1.20239C9.82688 1.22962 9.01933 1.37674 8.17968 1.62207L8.10489 1.3661ZM10.4005 0.935982C10.7023 0.923555 10.8457 0.915813 10.9353 0.896602C11.0067 0.881292 11.036 0.861527 11.1091 0.797938L11.2841 0.999166C11.197 1.07488 11.127 1.12825 10.9912 1.15735C10.8736 1.18254 10.7018 1.19047 10.4115 1.20242L10.4005 0.935982ZM11.1101 0.797035C11.2476 0.680016 11.2784 0.534007 11.2418 0.412494C11.2045 0.289163 11.0917 0.172418 10.9021 0.134216L10.9548 -0.127197C11.2318 -0.0713679 11.4289 0.109654 11.4971 0.335459C11.5657 0.563084 11.4973 0.817579 11.283 1.00007L11.1101 0.797035ZM10.9005 0.133883C10.9047 0.134798 10.8954 0.133126 10.8609 0.133357C10.8314 0.133555 10.7925 0.13496 10.7464 0.13751C10.6544 0.142597 10.5381 0.151989 10.4195 0.164023L10.3926 -0.101282C10.5142 -0.113627 10.6347 -0.123389 10.7317 -0.12875C10.78 -0.131424 10.8236 -0.133066 10.8591 -0.133304C10.8896 -0.133508 10.9277 -0.133003 10.9564 -0.126864L10.9005 0.133883Z" fill="#161616" mask="url(#path-1-inside-1_13599_41042)"/>
<path d="M14.0445 2.13393L14.0009 2.0889L13.6465 1.72297C13.6465 1.72293 13.6464 1.7229 13.6464 1.72286C13.5016 1.5721 13.3974 1.45667 13.3323 1.36519C13.2648 1.27021 13.2518 1.21767 13.2577 1.18742C13.2628 1.16162 13.2875 1.12732 13.3792 1.08644C13.4683 1.04675 13.6007 1.00948 13.7836 0.965665C13.7836 0.965657 13.7837 0.965649 13.7837 0.965641L13.7682 0.900809C13.9894 0.848968 14.3592 0.755005 14.5925 0.693443C15.0684 0.570319 16.1685 0.311112 16.8808 0.155587L14.0445 2.13393ZM14.0445 2.13393L14.0023 2.18022M14.0445 2.13393L14.0023 2.18022M16.8948 0.22075C16.1832 0.376135 15.0843 0.635065 14.6094 0.757927L16.8948 0.22075ZM16.8948 0.22075C17.1527 0.165606 17.4136 0.107245 17.4712 0.0942631C17.5249 0.0821881 17.5882 0.0703673 17.6131 0.0666938C17.6217 0.0670485 17.6398 0.0705638 17.6675 0.0810895C17.696 0.0919714 17.7288 0.108045 17.7616 0.127236C17.7943 0.146402 17.8256 0.167916 17.8513 0.189123C17.8776 0.210789 17.8947 0.229329 17.9029 0.242262C17.9139 0.2608 17.9202 0.273215 17.9245 0.285922C17.9286 0.298409 17.9318 0.314026 17.9329 0.338825C17.9353 0.391425 17.9284 0.474033 17.9116 0.634381C17.8903 0.823201 17.86 1.1477 17.8418 1.35175L17.8418 1.35192C17.7934 1.91121 17.7079 2.66597 17.6223 3.32719C17.5365 3.99077 17.4514 4.55355 17.4042 4.73311L17.4042 4.73328C17.3834 4.81337 17.3535 4.87047 17.3157 4.91125C17.2783 4.95152 17.2296 4.97975 17.1642 4.99652L17.1636 4.99668C17.1257 5.0068 17.0561 4.99245 16.9583 4.92902C16.8644 4.8681 16.758 4.77044 16.6535 4.64297C16.4942 4.44833 16.3713 4.30383 16.2832 4.20767C16.2394 4.15976 16.2031 4.12266 16.1747 4.09711C16.1606 4.08446 16.147 4.0733 16.1344 4.06491C16.1281 4.06071 16.1207 4.05633 16.1126 4.05281C16.1053 4.0496 16.0929 4.04508 16.0776 4.04508C16.0575 4.04508 16.0408 4.05368 16.0353 4.05653L16.0351 4.05661C16.0264 4.06109 16.0174 4.06678 16.0088 4.07268C15.9914 4.08462 15.9704 4.10098 15.9475 4.12002C15.9014 4.15832 15.8439 4.21067 15.7853 4.26837C15.4164 4.63044 14.5859 5.36635 14.3561 5.53545C13.8658 5.89341 13.4889 6.07096 12.925 6.20811L12.9248 6.20815C12.6286 6.281 12.5191 6.2937 12.0618 6.2937H12.0612C11.7309 6.29692 11.3459 6.27442 11.0243 6.23587C10.6017 6.1835 10.2769 6.17058 9.31909 6.17058L9.31918 6.17058L9.31899 6.23724V6.17058L16.8948 0.22075ZM14.0023 2.18022L13.8813 2.31275C13.8813 2.31282 13.8812 2.31289 13.8811 2.31297C13.7978 2.40536 13.5881 2.58358 13.3683 2.75816C13.147 2.93382 12.9083 3.11144 12.7642 3.20255L12.7637 3.20287M14.0023 2.18022L12.7637 3.20287M12.7637 3.20287C12.4944 3.36971 12.2013 3.51529 11.9789 3.58561L11.9783 3.5858M12.7637 3.20287L11.9783 3.5858M11.9783 3.5858C11.9044 3.60837 11.7664 3.62118 11.4614 3.6316C11.1525 3.64216 10.6638 3.65027 9.88051 3.65999L9.88041 3.65999L11.9783 3.5858ZM4.73408 6.20675L4.73401 6.2067C4.74717 6.18737 4.78878 6.13151 4.84294 6.05881C4.88489 6.0025 4.93438 5.93608 4.984 5.86869C5.66862 4.95066 6.5081 4.27492 7.4661 3.86524C7.46611 3.86524 7.46612 3.86523 7.46613 3.86523L4.73408 6.20675ZM4.73408 6.20675L4.73204 6.20945M4.73408 6.20675L4.73204 6.20945M4.73204 6.20945C4.63244 6.34098 4.36494 6.7969 4.27841 6.97871L4.21822 6.95007L4.27846 6.97861C4.22121 7.09945 4.16787 7.24657 4.1289 7.38346C4.08947 7.52197 4.06667 7.6434 4.06667 7.71473C4.06667 7.75505 4.07141 7.78391 4.07996 7.80705C4.08829 7.82959 4.10147 7.85007 4.12314 7.87194L4.12317 7.87191M4.73204 6.20945L4.12317 7.87191M4.12317 7.87191L4.12491 7.8738M4.12317 7.87191L4.12491 7.8738M4.12491 7.8738C4.15958 7.91162 4.18353 7.92698 4.19855 7.93168C4.20756 7.9345 4.21568 7.93489 4.23086 7.92333C4.24988 7.90884 4.27475 7.87847 4.30532 7.82229C4.33526 7.76727 4.36775 7.69308 4.40444 7.59703C4.61035 7.05493 4.73829 6.83553 5.20156 6.22295L5.20156 6.22295M4.12491 7.8738L5.20156 6.22295M5.20156 6.22295L5.20178 6.22267M5.20156 6.22295L5.20178 6.22267M5.20178 6.22267C5.91383 5.29155 6.86601 4.54056 7.76823 4.20479L7.76869 4.20462M5.20178 6.22267L7.76869 4.20462M7.76869 4.20462L8.05358 4.10094L8.0644 4.097M7.76869 4.20462L8.0644 4.097M8.0644 4.097L8.07592 4.09692M8.0644 4.097L8.07592 4.09692M8.07592 4.09692L9.50038 4.0872L9.50052 4.0872M8.07592 4.09692L9.50052 4.0872M9.50052 4.0872C10.5207 4.08234 11.1339 4.07585 11.5212 4.06012C11.91 4.04431 12.0635 4.01925 12.1695 3.98099L12.1696 3.98096M9.50052 4.0872L12.1696 3.98096M12.1696 3.98096C12.3531 3.91505 12.6125 3.7823 12.8645 3.63168M12.1696 3.98096L12.8645 3.63168M14.4482 2.01523L14.4489 2.01642C14.4759 2.05737 14.5001 2.10146 14.5173 2.13859C14.5259 2.15718 14.5323 2.17317 14.5365 2.18556C14.5402 2.19666 14.5409 2.20134 14.541 2.20133C14.541 2.20133 14.541 2.2009 14.541 2.20009L14.4482 2.01523ZM14.4482 2.01523C14.3817 1.90944 14.3072 1.77473 14.2512 1.66397C14.2232 1.60865 14.1993 1.55827 14.1832 1.51984C14.1752 1.50089 14.1685 1.48318 14.1641 1.46854C14.1621 1.46149 14.1598 1.45268 14.1588 1.44361C14.1583 1.43911 14.1578 1.43227 14.1586 1.42436C14.1594 1.41743 14.1619 1.40245 14.1732 1.38796L14.173 1.38779M14.4482 2.01523L14.173 1.38779M14.173 1.38779L14.1771 1.3834M14.173 1.38779L14.1771 1.3834M14.1771 1.3834C14.1847 1.37533 14.1927 1.37074 14.1952 1.36929C14.199 1.36713 14.2027 1.36538 14.2056 1.36407C14.2116 1.36143 14.2184 1.35884 14.2253 1.35638C14.2393 1.35139 14.2579 1.34547 14.28 1.33884C14.3245 1.32551 14.386 1.3084 14.4593 1.2888C14.606 1.24956 14.8018 1.19983 15.0062 1.14955C15.4136 1.04935 15.8602 0.945793 16.0211 0.919303C16.0937 0.906852 16.309 0.855811 16.5028 0.804031C16.6949 0.751855 16.9016 0.70294 17.0632 0.669847C17.1439 0.653327 17.2144 0.64055 17.2666 0.633328C17.2925 0.629753 17.3155 0.627301 17.3337 0.626671C17.3426 0.626364 17.3526 0.626392 17.3621 0.627576C17.3668 0.628166 17.3734 0.629269 17.3806 0.631665C17.3866 0.633657 17.3989 0.638478 17.4102 0.649925C17.4198 0.659712 17.4239 0.669858 17.4251 0.673124C17.4271 0.678235 17.4282 0.682628 17.4287 0.685119C17.4297 0.690216 17.4301 0.694846 17.4304 0.697715C17.4308 0.70387 17.4309 0.710874 17.4309 0.717684C17.4308 0.731724 17.43 0.750886 17.4288 0.774022C17.4263 0.820579 17.4217 0.886594 17.4154 0.967343C17.4028 1.129 17.3834 1.35152 17.3605 1.59952C17.3146 2.09553 17.2547 2.69458 17.2076 3.11473L17.2076 3.11484M14.1771 1.3834L17.2076 3.11484M17.2076 3.11484C17.1683 3.46078 17.1261 3.84165 17.1139 3.96204C17.1091 4.026 17.1004 4.08391 17.091 4.12685C17.0863 4.1481 17.0811 4.16752 17.0754 4.18275C17.0727 4.18994 17.0688 4.19922 17.0633 4.20787C17.0606 4.21208 17.0558 4.21898 17.0484 4.22554C17.0414 4.23164 17.0255 4.24321 17.002 4.24321C16.9852 4.24321 16.972 4.23729 16.9669 4.23496C16.9599 4.23175 16.9533 4.22783 16.9476 4.22411C16.9359 4.21658 16.9222 4.20634 16.9071 4.19415C16.8764 4.16955 16.8347 4.13306 16.7816 4.08436C16.675 3.98676 16.519 3.83709 16.3068 3.62805C16.2091 3.53335 16.1531 3.4839 16.1152 3.45931C16.0971 3.44758 16.0869 3.44406 16.0813 3.44291C16.0775 3.44213 16.0736 3.44195 16.0672 3.44328C16.066 3.44388 16.0638 3.44508 16.0602 3.44723C16.0534 3.45138 16.0443 3.45748 16.033 3.46571C16.0105 3.48213 15.9817 3.50515 15.9485 3.53345C15.8824 3.58997 15.8013 3.6655 15.7223 3.74672L15.722 3.74699C15.5352 3.93699 15.3407 4.12864 15.1819 4.28061C15.0273 4.42846 14.9015 4.5436 14.851 4.57968C14.8139 4.6097 14.6659 4.73944 14.5164 4.87688L14.5162 4.87709C14.1051 5.25145 13.9796 5.34591 13.6763 5.51464L13.6758 5.51491C13.3721 5.68057 13.0074 5.80607 12.6517 5.86559L12.6513 5.86564C12.5129 5.88801 12.1928 5.8866 11.822 5.86967C11.4483 5.8526 11.0147 5.81927 10.6447 5.77531L10.6446 5.7753C10.3124 5.7353 9.70729 5.71502 9.14851 5.71502C8.8696 5.71502 8.60343 5.72008 8.38998 5.73014C8.28322 5.73517 8.19019 5.74143 8.11562 5.74887C8.03968 5.75644 7.98704 5.76487 7.95859 5.77313L7.95813 5.77326C7.83116 5.80915 7.69995 5.86319 7.58757 5.92307C7.47392 5.98362 7.38519 6.04714 7.3384 6.09987L7.33855 6.0997L7.28838 6.0558M17.2076 3.11484L7.33827 6.10001M7.25504 6.26641C7.28838 6.32797 7.34293 6.40249 7.38233 6.42841M7.25504 6.26641L7.20049 6.15624M7.25504 6.26641L7.31366 6.23466C7.31385 6.235 7.31404 6.23535 7.31423 6.2357M7.25504 6.26641L7.31478 6.23682L7.31423 6.2357M7.38233 6.42841L10.6525 5.70911C9.9797 5.62811 8.21882 5.62811 7.93999 5.70911C7.67632 5.78363 7.39749 5.93268 7.28838 6.0558M7.38233 6.42841C7.4672 6.48673 7.60358 6.46081 7.92484 6.32473L8.13699 6.234L7.38233 6.42841ZM7.20049 6.15624L7.28838 6.0558M7.20049 6.15624L7.26023 6.12666L7.28001 6.1666M7.20049 6.15624L7.25066 6.20014L7.28001 6.1666M7.28838 6.0558L7.33827 6.10001M7.33827 6.10001L7.28001 6.1666M7.33827 6.10001L7.31423 6.2357M7.28001 6.1666L7.31423 6.2357M12.8645 3.63168C13.1164 3.48114 13.3554 3.31607 13.4993 3.18738M12.8645 3.63168L13.4993 3.18738M13.4993 3.18738C13.5454 3.14562 13.5896 3.10569 13.6318 3.0675C14.0864 2.65616 14.318 2.4467 14.4362 2.33172C14.502 2.26766 14.5274 2.23788 14.5374 2.22172C14.5395 2.21836 14.5403 2.21645 14.5406 2.21569L14.5408 2.21513L13.4993 3.18738ZM7.89884 6.26334L7.92483 6.3247L7.89863 6.26343L7.89884 6.26334ZM17.1808 5.06109C17.3323 5.02221 17.4233 4.92501 17.4687 4.75004L17.1808 5.06109ZM15.6745 3.70025C15.3017 4.07934 14.8986 4.46491 14.8107 4.52647L15.6745 3.70025Z" fill="#161616" stroke="#161616" stroke-width="0.133333"/>
<path d="M6.8525 8.0477L6.89641 8.09786C6.71848 8.2536 6.53102 8.3533 6.31683 8.39659C6.10356 8.4397 5.8685 8.42592 5.59643 8.36221C5.29804 8.29529 5.06378 8.16304 4.89199 7.95499C4.72092 7.74781 4.61647 7.47113 4.56664 7.12332L4.56664 7.12332L4.56657 7.1228C4.50793 6.68925 4.64373 6.26817 4.93021 6.02001L4.9302 6.02L4.93123 6.01914C5.01182 5.95211 5.14439 5.87198 5.27857 5.80314C5.41273 5.73431 5.5557 5.67308 5.65847 5.64666L5.65877 5.64659C5.79656 5.61186 5.97665 5.6076 6.15081 5.62603C6.32502 5.64447 6.50114 5.68644 6.63052 5.74962L6.63088 5.7498C6.87454 5.87062 7.13142 6.13919 7.27545 6.41785L7.27551 6.41798C7.5538 6.9591 7.38508 7.67217 6.89629 8.09797L6.8525 8.0477ZM6.8525 8.0477C7.32122 7.63938 7.47871 6.95886 7.21623 6.44847M6.8525 8.0477C6.51127 8.34637 6.14379 8.42199 5.61132 8.29722C5.03761 8.16868 4.73013 7.79439 4.63263 7.11387L7.21623 6.44847M7.21623 6.44847C7.07749 6.18004 6.83 5.92295 6.60126 5.80953L7.21623 6.44847ZM4.13471 6.49541L4.13471 6.49541L4.13441 6.49651C4.06557 6.74492 4.05824 6.85467 4.07301 7.16361L4.00646 7.16679L4.073 7.16352C4.08423 7.39173 4.09997 7.53453 4.13337 7.6524C4.16627 7.76851 4.21733 7.86392 4.30552 7.99545L4.30559 7.99555C4.54791 8.35832 4.77934 8.56837 5.09247 8.71716L5.09276 8.7173C5.2569 8.79628 5.4646 8.87644 5.54628 8.8936L5.54629 8.89358L5.54806 8.894C5.68284 8.92618 5.85823 8.93839 6.0324 8.93146C6.20677 8.92452 6.3742 8.89862 6.4935 8.85794L6.49355 8.85792C7.10332 8.65052 7.45831 8.36192 7.68504 7.89747C8.02188 7.20715 8.01533 6.5854 7.6695 6.02606L7.66947 6.02603C7.20795 5.27857 6.39632 4.93184 5.55065 5.11472C5.3431 5.16128 5.10603 5.28079 4.88458 5.44443C4.66342 5.60786 4.46221 5.81209 4.3248 6.02355L4.26899 5.98728L4.32484 6.02349C4.26626 6.11382 4.1786 6.32575 4.13471 6.49541Z" fill="#161616" stroke="#161616" stroke-width="0.133333"/>
<path d="M16.6018 7.44801L16.6018 7.44803C16.5413 7.48879 16.4871 7.55379 16.4512 7.62416C16.4147 7.69588 16.4023 7.76308 16.4113 7.80824L16.4113 7.80823L16.4115 7.80946C16.427 7.89512 16.4846 7.98346 16.5666 8.05129C16.6486 8.11907 16.747 8.1599 16.8357 8.1599C16.9188 8.1599 17.0161 8.10316 17.0911 8.01042C17.1659 7.91807 17.2046 7.80712 17.1898 7.71857L17.1897 7.71788C17.1473 7.44594 16.8188 7.30172 16.6018 7.44801Z" fill="#161616" stroke="#161616" stroke-width="0.133333"/>
<path d="M2.94328 7.8033L2.9432 7.80337C2.90751 7.83632 2.89219 7.85656 2.88389 7.87535C2.87566 7.89397 2.87135 7.91786 2.87135 7.9643C2.87135 7.99203 2.87196 8.00952 2.87363 8.02194C2.87441 8.02777 2.87529 8.0313 2.87596 8.03336C2.87655 8.0352 2.87696 8.0358 2.87698 8.03584L2.87698 8.03584L2.87725 8.03618L2.87841 8.03732C2.87973 8.03849 2.88223 8.04043 2.88682 8.04317C2.89672 8.04908 2.9113 8.05584 2.9354 8.06607C3.01199 8.09772 3.0741 8.10481 3.12193 8.09562C3.168 8.08677 3.20628 8.06188 3.23632 8.01738L3.23632 8.01738L3.23655 8.01703C3.25371 7.99196 3.2688 7.96565 3.27934 7.94394C3.28462 7.93304 3.28834 7.92418 3.29058 7.9178C3.29092 7.91683 3.2912 7.916 3.29143 7.91528C3.2903 7.91122 3.28692 7.90192 3.27705 7.88722C3.26449 7.86852 3.2456 7.84734 3.2225 7.8268C3.17404 7.78373 3.12047 7.75508 3.08706 7.75044L3.08706 7.75047L3.08528 7.75017C3.04472 7.74341 3.02859 7.74501 3.0161 7.74943C3.00136 7.75466 2.98235 7.76712 2.94328 7.8033Z" fill="#161616" stroke="#161616" stroke-width="0.133333"/>
<path d="M12.2709 9.08246L12.2709 9.08244L12.2723 9.08191C12.4799 9.00531 12.5639 8.74954 12.4501 8.5812L12.5053 8.54386L12.4501 8.58125C12.347 8.42903 12.1693 8.39369 12.0269 8.49103L11.9893 8.43599L12.027 8.49096C11.8895 8.5853 11.8381 8.67738 11.8402 8.78096C11.8427 8.84676 11.8597 8.89726 11.8917 8.94049C11.9245 8.98489 11.9765 9.02635 12.0569 9.06731C12.1298 9.10296 12.1519 9.11176 12.1699 9.11291C12.1861 9.11394 12.2035 9.10909 12.2709 9.08246Z" fill="#161616" stroke="#161616" stroke-width="0.133333"/>
<path d="M14.7666 9.4842L14.7666 9.4842L14.7657 9.48455C14.7341 9.49702 14.697 9.52885 14.6671 9.57294C14.6371 9.61705 14.6214 9.66316 14.6214 9.69658C14.6214 9.76082 14.6788 9.83862 14.7772 9.89151C14.8745 9.9438 14.9793 9.95367 15.0446 9.91798L15.0446 9.91797L15.0458 9.91734C15.0958 9.89126 15.1416 9.8316 15.1665 9.75798C15.1914 9.68416 15.1898 9.61282 15.1663 9.56743C15.1476 9.53298 15.0908 9.49452 15.0051 9.47429C14.9221 9.45469 14.832 9.45732 14.7666 9.4842Z" fill="#161616" stroke="#161616" stroke-width="0.133333"/>
<path d="M2.58398 9.52466C2.5285 9.51469 2.4851 9.52442 2.46538 9.53956C2.38282 9.60736 2.34711 9.69014 2.34793 9.76112C2.34874 9.83059 2.3842 9.89573 2.4602 9.93554C2.55744 9.98509 2.65076 9.95021 2.70688 9.87425C2.7636 9.79748 2.77647 9.68478 2.70557 9.58851C2.68392 9.5598 2.63846 9.53446 2.58398 9.52466Z" fill="#161616" stroke="#161616" stroke-width="0.133333"/>
<path d="M16.2721 9.58597L16.2721 9.58597L16.2717 9.58622C16.2103 9.61916 16.1771 9.66965 16.1686 9.72316C16.1599 9.77717 16.1755 9.84045 16.2242 9.8987L16.2242 9.8987L16.2243 9.89886C16.3137 10.0064 16.4518 10.0094 16.5576 9.94709C16.61 9.91622 16.6496 9.87149 16.6682 9.82176C16.6862 9.77364 16.6862 9.71697 16.6535 9.65495C16.6316 9.614 16.5747 9.5762 16.4948 9.56002C16.4164 9.54417 16.3326 9.55288 16.2721 9.58597Z" fill="#161616" stroke="#161616" stroke-width="0.133333"/>
<path d="M17.3832 9.62316L17.383 9.62326C17.2487 9.72772 17.2105 9.89727 17.2816 10.0323L17.2819 10.033C17.308 10.0839 17.3387 10.1171 17.3745 10.1382C17.4106 10.1595 17.4571 10.1716 17.5199 10.1716C17.6425 10.1716 17.7746 10.0683 17.8204 9.92496C17.8331 9.87822 17.8368 9.85484 17.8357 9.83544C17.8346 9.81713 17.8289 9.79662 17.8098 9.75705L17.8097 9.75683C17.7705 9.67502 17.6947 9.61586 17.6109 9.59077C17.5268 9.56561 17.4426 9.57667 17.3832 9.62316Z" fill="#161616" stroke="#161616" stroke-width="0.133333"/>
<path d="M18.9229 10.2497L18.9535 10.1905C19.0605 10.2459 19.1776 10.2399 19.2673 10.1937C19.3567 10.1477 19.416 10.0638 19.416 9.96108C19.416 9.8814 19.3728 9.79158 19.3024 9.71989C19.2319 9.64804 19.1445 9.60501 19.0686 9.60501C19.0339 9.60501 19.0152 9.60955 18.9954 9.62109C18.9718 9.63486 18.9427 9.66083 18.8932 9.71464L18.8931 9.71475C18.84 9.7723 18.8176 9.80135 18.8059 9.82755C18.7953 9.85137 18.7913 9.87781 18.7913 9.93714C18.7927 10.0091 18.8046 10.0542 18.8265 10.0886C18.8485 10.1234 18.8858 10.1553 18.9536 10.1906L18.9229 10.2497ZM18.9229 10.2497C19.1765 10.3809 19.4826 10.2235 19.4826 9.96108C19.4826 9.757 19.2669 9.53834 19.0686 9.53834C18.9841 9.53834 18.9433 9.56166 18.8441 9.66954L18.7246 9.93776C18.7275 10.0952 18.7771 10.1739 18.9229 10.2497Z" fill="#161616" stroke="#161616" stroke-width="0.133333"/>
<path d="M3.47417 12.9908H3.28031C3.16511 12.9908 3.10909 12.9886 3.07926 12.9815C3.07428 12.9804 3.07121 12.9793 3.06946 12.9786C3.06927 12.9781 3.06905 12.9774 3.06881 12.9767C3.06863 12.9742 3.06826 12.9685 3.06792 12.9583C3.06743 12.9439 3.06707 12.9243 3.06687 12.8998C3.06646 12.8508 3.06667 12.7838 3.06749 12.7033L3.47417 12.9908ZM3.47417 12.9908V12.7287C3.47417 12.5503 3.49073 12.0857 3.50721 11.7008L3.50722 11.7006C3.53689 11.061 3.55018 10.967 3.63638 10.7268L3.63637 10.7267L3.63667 10.726C3.69115 10.58 3.79913 10.3699 3.87845 10.2553L3.87874 10.2549C3.9645 10.133 4.09594 10.0047 4.23246 9.89864C4.36823 9.79322 4.51576 9.70463 4.63573 9.66759L3.47417 12.9908ZM4.90941 9.908L4.97433 9.89285C5.00452 10.0223 5.07442 10.1089 5.33318 10.2879L5.29527 10.3427L5.33303 10.2878C5.43177 10.3558 5.51079 10.4127 5.56986 10.4667C5.6295 10.5213 5.67307 10.5767 5.69621 10.6429C5.71941 10.7093 5.71944 10.7791 5.70599 10.8576C5.69271 10.9351 5.6653 11.0263 5.62913 11.1373C5.57568 11.3058 5.46586 11.7526 5.3689 12.1771C5.32053 12.3889 5.27562 12.5941 5.24283 12.7547C5.22642 12.835 5.21313 12.9038 5.20397 12.9566C5.19438 13.0119 5.19043 13.0436 5.19043 13.0539C5.19043 13.0886 5.19575 13.1086 5.21041 13.1309C5.22785 13.1574 5.26027 13.1899 5.32447 13.2428L5.32448 13.2428L5.32569 13.2439C5.4151 13.3213 5.57616 13.4905 5.68388 13.6276C5.80027 13.7734 5.88737 13.86 5.9564 13.9025C5.99003 13.9232 6.01618 13.9315 6.03687 13.933C6.05662 13.9345 6.07573 13.9303 6.09683 13.9184L6.09682 13.9184L6.0981 13.9177C6.10243 13.9154 6.11408 13.9072 6.13354 13.8901C6.15181 13.8741 6.17386 13.853 6.19825 13.8282C6.247 13.7785 6.30328 13.7156 6.35472 13.6518L6.35471 13.6518L6.35535 13.6511C6.46642 13.5176 6.63377 13.3489 6.7255 13.2688L6.72545 13.2688L6.72799 13.2667C6.79722 13.212 6.83189 13.1785 6.85033 13.1515C6.86565 13.1291 6.87087 13.1096 6.87087 13.0751C6.87087 13.0542 6.86203 12.9918 6.84516 12.8991C6.82884 12.8094 6.80633 12.6982 6.7817 12.5847C6.73196 12.3554 6.67521 12.1245 6.64424 12.0415L6.64423 12.0416L6.64388 12.0406C6.60267 11.9246 6.5359 11.6536 6.47998 11.398C6.45184 11.2693 6.42611 11.1431 6.40738 11.04C6.38915 10.9397 6.37621 10.8546 6.37621 10.8129C6.37621 10.7779 6.37713 10.7444 6.3843 10.7112C6.39178 10.6764 6.40535 10.6448 6.42716 10.6108C6.46794 10.5472 6.54232 10.4691 6.66874 10.3388L6.66884 10.3387C6.82414 10.1793 6.91956 10.074 6.97633 9.99402C7.03178 9.91586 7.04566 9.86824 7.04566 9.82316C7.04566 9.79342 7.04892 9.759 7.06549 9.7294C7.08504 9.69448 7.11744 9.67568 7.15421 9.67054C7.18646 9.66603 7.22194 9.67186 7.25727 9.68114C7.29372 9.69073 7.33682 9.70592 7.38695 9.72562C7.62587 9.81612 7.85433 10.0066 8.03699 10.2438C8.22004 10.4814 8.3608 10.7706 8.42082 11.0642C8.43371 11.1239 8.4462 11.2784 8.45718 11.4723C8.46836 11.6697 8.47827 11.9152 8.48489 12.1614L8.48489 12.1618C8.48983 12.4054 8.49642 12.6285 8.50299 12.7919C8.50628 12.8736 8.50955 12.94 8.51259 12.9864C8.5134 12.9988 8.51419 13.0096 8.51493 13.0187C8.52726 13.0213 8.54267 13.0239 8.56079 13.0264C8.60934 13.0332 8.67207 13.0389 8.73502 13.0426C8.79801 13.0463 8.85958 13.0479 8.90587 13.0466C8.9158 13.0464 8.9247 13.046 8.93252 13.0455C8.93278 13.0347 8.93298 13.022 8.93312 13.0075C8.93363 12.9534 8.93322 12.8768 8.93199 12.7831C8.92952 12.5958 8.92376 12.3417 8.91552 12.0662L8.91552 12.0661C8.89901 11.4873 8.8809 11.1438 8.8385 10.8911C8.79672 10.642 8.73134 10.4811 8.61677 10.2683L8.61646 10.2678C8.50413 10.0541 8.31793 9.83229 8.10221 9.64308C7.88645 9.45382 7.64533 9.30081 7.42598 9.22131L7.42583 9.22126C7.19715 9.13777 7.07052 9.0964 6.95503 9.0816C6.84133 9.06702 6.73511 9.07781 6.54588 9.10779C6.11113 9.17947 5.80952 9.17991 5.45738 9.11098C5.30014 9.08113 5.1946 9.06709 5.10285 9.06668C5.01242 9.06627 4.93275 9.07911 4.82754 9.10643C4.46128 9.20464 4.00053 9.51692 3.66354 9.8989C3.44445 10.151 3.311 10.372 3.22558 10.691C3.13914 11.0137 3.10126 11.4389 3.07983 12.1016L4.71809 9.64501C4.74131 9.64017 4.76545 9.6372 4.78938 9.64046C4.8454 9.64809 4.87547 9.68609 4.89773 9.71728L4.89777 9.71725L4.89927 9.71955C4.92563 9.75991 4.96256 9.83814 4.97458 9.89397L4.90941 9.908ZM4.90941 9.908C4.89952 9.86205 4.86654 9.79135 4.84346 9.756L5.12377 13.0539C5.12377 12.9161 5.45684 11.4598 5.56567 11.1169C5.71077 10.6715 5.69098 10.6149 5.29525 10.3428C5.03473 10.1625 4.94569 10.0635 4.90941 9.908ZM6.67564 9.63909L6.76679 9.68183L6.69186 9.74907L6.55006 9.87632L6.54965 9.87668C6.46434 9.95198 6.39427 10.0049 6.32317 10.0382C6.25001 10.0725 6.17967 10.0842 6.09661 10.0842C6.0078 10.0842 5.9326 10.0695 5.86113 10.0252C5.79196 9.98229 5.73215 9.91517 5.66639 9.823L5.66633 9.82291C5.62659 9.76701 5.5943 9.71432 5.58115 9.66705C5.57429 9.64236 5.57119 9.61426 5.57898 9.58586C5.58715 9.55603 5.60538 9.53287 5.62873 9.51619C5.67043 9.48639 5.73146 9.47528 5.79772 9.47026C5.86744 9.46499 5.95782 9.4658 6.06957 9.47023L6.06957 9.47022L6.07089 9.4703C6.25096 9.48102 6.4003 9.50626 6.51814 9.56523L6.67564 9.63909ZM6.31166 12.6356L6.31168 12.6356V12.6368C6.31168 12.7588 6.3105 12.8376 6.29688 12.8917C6.2893 12.9218 6.27742 12.947 6.2589 12.9695C6.24152 12.9906 6.22054 13.0064 6.20076 13.0202L6.20056 13.0203C6.14377 13.0597 6.08345 13.092 6.01875 13.0828C5.9529 13.0734 5.90572 13.0245 5.8651 12.9701C5.8154 12.9035 5.79144 12.8241 5.7856 12.7192C5.77985 12.6159 5.79142 12.4832 5.81623 12.3059L5.81623 12.3059L5.8163 12.3054C5.83463 12.1813 5.85479 12.0816 5.87723 12.0081C5.88844 11.9714 5.90081 11.9392 5.91487 11.913C5.92828 11.888 5.94671 11.8618 5.9733 11.8454C6.00469 11.8259 6.0412 11.8241 6.07439 11.8401C6.10252 11.8538 6.1236 11.8779 6.13957 11.9014C6.17211 11.9492 6.20268 12.0235 6.23269 12.1182C6.28449 12.2811 6.30827 12.4503 6.31166 12.6356ZM6.50554 9.8267L6.50555 9.82671L6.50554 9.8267Z" fill="#161616" stroke="#161616" stroke-width="0.133333"/>
<path d="M14.5214 11.9583V12.0249C14.504 12.0249 14.4786 12.0222 14.4551 12.0049C14.4317 11.9876 14.4206 11.9634 14.4147 11.9428C14.4039 11.9053 14.4023 11.8491 14.4023 11.7746C14.4023 11.6457 14.3902 11.5087 14.3704 11.389C14.3502 11.2676 14.3232 11.1704 14.296 11.1171C14.2645 11.0567 14.2044 10.9843 14.1292 10.9167C14.0543 10.8495 13.969 10.7912 13.891 10.7569L13.8905 10.7566C13.7894 10.7111 13.721 10.7013 13.2145 10.6955L13.214 10.6954C13.059 10.6926 12.9055 10.6933 12.7834 10.6965C12.7223 10.6982 12.6695 10.7004 12.6284 10.7031C12.5862 10.7059 12.5613 10.7089 12.5519 10.711C12.3119 10.7733 12.1061 10.9409 11.9922 11.1715L11.9922 11.1715L11.9918 11.1724C11.9437 11.266 11.9291 11.3401 11.9174 11.6168M14.5214 11.9583L14.521 12.0249C14.764 12.0264 15.1328 12.043 15.4541 12.0638C15.6146 12.0741 15.7626 12.0855 15.8766 12.0964C15.9337 12.1018 15.9817 12.1071 16.0184 12.1121C16.0574 12.1173 16.0774 12.1215 16.0829 12.1234L16.1045 12.0603M14.5214 11.9583C15.0112 11.9612 16.0025 12.0253 16.1045 12.0603M14.5214 11.9583C14.4777 11.9583 14.4689 11.9291 14.4689 11.7746C14.4689 11.5093 14.4194 11.2119 14.3552 11.0865L16.5477 12.4335C16.466 12.2848 16.2707 12.1186 16.1045 12.0603M16.1045 12.0603L16.0824 12.1232C16.1558 12.1489 16.2392 12.2001 16.3148 12.2639C16.3902 12.3276 16.4531 12.4 16.4889 12.465L16.5452 12.5724L16.551 14.8098V14.8098C16.5539 15.74 16.5539 16.3079 16.5492 16.6531C16.5468 16.8258 16.5433 16.9417 16.5384 17.019C16.536 17.0576 16.5333 17.0855 16.5304 17.1056C16.5275 17.1258 16.5249 17.1345 16.5239 17.137C16.4962 17.2022 16.4427 17.2758 16.3747 17.3421C16.3066 17.4084 16.2281 17.4635 16.1544 17.4945L16.1533 17.495L16.1533 17.495L16.0147 17.5564L13.0988 17.5505L13.0988 17.5505C12.8704 17.5501 12.6591 17.5499 12.4636 17.5496C11.2369 17.548 10.6309 17.5472 10.3142 17.522C10.1287 17.5072 10.0569 17.4846 10.0186 17.4589C10.0008 17.447 9.98757 17.4325 9.97184 17.4105C9.96509 17.4011 9.95847 17.3911 9.95066 17.3794C9.94891 17.3767 9.94709 17.374 9.9452 17.3712C9.93522 17.3562 9.9238 17.3393 9.91026 17.3211M9.91026 17.3211C9.89594 17.3016 9.88327 17.2849 9.87193 17.2699C9.83823 17.2256 9.81624 17.1966 9.79788 17.156C9.77434 17.1039 9.75691 17.0307 9.74562 16.8825C9.72533 16.6165 9.72603 16.134 9.72745 15.1545C9.72762 15.038 9.7278 14.9145 9.72795 14.7834L9.72795 14.7834C9.72795 14.6781 9.72794 14.5776 9.72792 14.4817C9.72776 13.4629 9.72768 12.9599 9.74745 12.6891C9.75828 12.5407 9.77468 12.4708 9.79549 12.4262C9.81209 12.3907 9.83152 12.3694 9.86543 12.3323C9.87416 12.3228 9.88386 12.3122 9.89471 12.3L9.84496 12.2556M9.91026 17.3211C9.91029 17.3211 9.91032 17.3211 9.91035 17.3212L9.85662 17.3607L9.91016 17.3209C9.91019 17.321 9.91022 17.321 9.91026 17.3211ZM9.84496 12.2556L9.89438 12.3004C9.94173 12.2481 9.98097 12.2109 10.025 12.1822C10.0685 12.154 10.1195 12.1322 10.192 12.115C10.3408 12.0797 10.5694 12.0658 10.987 12.0511C11.3737 12.0398 11.7269 12.0284 11.7776 12.0249C11.7929 12.0249 11.8232 12.0239 11.85 12.0036C11.8784 11.9821 11.8894 11.9499 11.8954 11.9234C11.9074 11.8705 11.9117 11.7765 11.9174 11.6168M9.84496 12.2556C9.81395 12.2904 9.78817 12.3162 9.76673 12.3451M9.84496 12.2556L9.76673 12.3451M11.9174 11.6168C11.9174 11.6168 11.9174 11.6167 11.9174 11.6166L11.8508 11.6142M11.9174 11.6168C11.9174 11.6169 11.9174 11.617 11.9174 11.617L11.8508 11.6142M11.8508 11.6142C11.8625 11.3373 11.8771 11.2498 11.9324 11.1419C12.0549 10.8941 12.2765 10.7133 12.536 10.6463L10.9849 11.9845C11.3843 11.9728 11.7429 11.9612 11.775 11.9583C11.8333 11.9583 11.8392 11.9408 11.8508 11.6142ZM13.8017 11.134C13.8732 11.183 13.9205 11.2435 13.9479 11.3358C13.9739 11.4232 13.9816 11.5382 13.9816 11.6959V11.9932V12.062L13.9129 12.0599L13.1643 12.0366C13.1642 12.0366 13.1641 12.0366 13.164 12.0366C12.9566 12.0322 12.766 12.0256 12.6256 12.0194C12.5554 12.0163 12.4975 12.0133 12.4563 12.0106C12.4357 12.0093 12.4189 12.0081 12.4065 12.0069C12.4005 12.0064 12.3948 12.0058 12.3901 12.0051C12.3878 12.0048 12.3849 12.0044 12.382 12.0038L12.3818 12.0037C12.3806 12.0035 12.3721 12.0019 12.3633 11.9975L12.3633 11.9975L12.3617 11.9967C12.3386 11.9844 12.3285 11.9635 12.3248 11.9553C12.3199 11.9444 12.3167 11.9327 12.3144 11.9224C12.3098 11.9014 12.3068 11.8755 12.3048 11.848C12.3009 11.7922 12.3005 11.7209 12.3031 11.6486C12.3058 11.5762 12.3114 11.5011 12.3196 11.4377C12.3237 11.406 12.3286 11.3764 12.3344 11.351C12.3398 11.3271 12.3471 11.3017 12.358 11.2819L12.4164 11.3139L12.357 11.2837C12.3783 11.242 12.4038 11.2036 12.4429 11.1725C12.482 11.1415 12.5296 11.1217 12.589 11.1082C12.7041 11.0822 12.8821 11.0767 13.1712 11.0753H13.1715C13.3868 11.0753 13.5243 11.0774 13.6148 11.0846C13.7027 11.0915 13.7593 11.1037 13.8017 11.134ZM13.8017 11.134C13.8015 11.1338 13.8012 11.1337 13.801 11.1335L13.7634 11.1886L13.8024 11.1345C13.8022 11.1344 13.8019 11.1342 13.8017 11.134ZM16.1683 12.6939L16.1515 12.675L16.0617 12.5736C16.0616 12.5735 16.0615 12.5734 16.0614 12.5733C15.9999 12.5022 15.917 12.4467 15.8409 12.4347C15.8197 12.4313 15.7667 12.4288 15.6943 12.4266C15.6193 12.4242 15.5175 12.422 15.3938 12.42C15.1464 12.4159 14.8104 12.4126 14.4238 12.4102C13.6506 12.4054 12.6744 12.4047 11.798 12.4105L11.7981 12.4105L11.7983 12.4772L11.7979 12.4105L10.3403 12.4164L10.3122 12.4165L10.2927 12.4367L10.2052 12.5271L10.2052 12.5271L10.1206 12.6146L10.1019 12.6339V12.6609V13.4306V14.2003V14.2275L10.1209 14.2469L10.2521 14.381C10.3128 14.4431 10.3651 14.4952 10.4231 14.5356C10.4829 14.5772 10.547 14.6054 10.6316 14.6246C10.7944 14.6616 11.0418 14.6664 11.4972 14.6722L11.4971 14.6722L11.498 14.6055L11.4972 14.6722L12.3018 14.6838L12.3649 14.6848L12.3692 14.6218L12.3838 14.4125C12.3894 14.3488 12.3971 14.2964 12.4062 14.2574C12.4108 14.2379 12.4155 14.2232 12.4198 14.2127C12.4225 14.2063 12.4245 14.2028 12.4255 14.2013C12.4277 14.2002 12.4333 14.1978 12.4447 14.1951C12.4658 14.1902 12.4994 14.1856 12.554 14.1819C12.6628 14.1744 12.8422 14.1707 13.1429 14.1678C13.143 14.1678 13.143 14.1678 13.143 14.1678L16.1683 12.6939ZM16.1683 12.6939V12.7192M16.1683 12.6939V12.7192M16.1683 12.7192V13.4685V13.4762C16.1683 13.841 16.1683 14.0309 16.1593 14.1415C16.1547 14.198 16.1475 14.2387 16.1347 14.2737C16.1216 14.3092 16.104 14.335 16.0866 14.3604L16.0866 14.3604L16.1683 12.7192ZM13.9748 14.6408L14.0351 14.643L14.6064 14.6634C14.9203 14.675 15.2829 14.6782 15.4164 14.6661C15.4165 14.6661 15.4166 14.6661 15.4167 14.6661L15.4106 14.5997L13.9748 14.6408ZM13.9748 14.6408L13.9709 14.5807M13.9748 14.6408L13.9709 14.5807M13.9709 14.5807L13.9593 14.4034L13.9709 14.5807ZM9.76673 12.3451C9.65513 12.496 9.66128 12.7339 9.66128 14.7834L9.76673 12.3451ZM12.7122 15.1989C12.7077 15.1328 12.704 15.0449 12.7025 14.9507L12.7025 14.9506L12.6967 14.6125L12.6955 14.5447H12.7634H13.1511H13.5389H13.6072L13.6055 14.613L13.5968 14.9687L13.5968 14.9687L13.588 15.3273L13.5865 15.3923H13.5214H13.1657C13.0672 15.3923 12.9757 15.3901 12.907 15.3868C12.8728 15.3851 12.8435 15.3831 12.8216 15.3809C12.8107 15.3798 12.8006 15.3786 12.7922 15.377C12.7881 15.3763 12.7831 15.3753 12.7782 15.3739L12.7779 15.3738C12.775 15.373 12.7635 15.3697 12.7525 15.3615L12.7449 15.3558L12.7392 15.3482C12.7313 15.3377 12.728 15.3268 12.7271 15.3239L12.7271 15.3237C12.7256 15.3188 12.7245 15.314 12.7237 15.31C12.7221 15.3018 12.7207 15.2919 12.7194 15.2814C12.7168 15.2602 12.7144 15.2319 12.7122 15.1989ZM10.3747 14.9057L10.3747 14.9057L10.3763 14.9069C10.4512 14.9602 10.5288 14.9937 10.6966 15.0138C10.8679 15.0344 11.127 15.0403 11.5622 15.0403H12.2823H12.349V15.107V15.3023C12.349 15.425 12.3523 15.5105 12.3672 15.5735C12.3812 15.6325 12.404 15.6661 12.4417 15.6906C12.4839 15.718 12.5513 15.7382 12.6645 15.7523C12.7765 15.7664 12.9243 15.7736 13.1215 15.7809L13.1216 15.7809C13.4298 15.7927 13.5826 15.7956 13.6778 15.7783C13.7224 15.7702 13.7513 15.758 13.7767 15.7412C13.8036 15.7232 13.8293 15.6983 13.8665 15.6589L13.8668 15.6586C13.8926 15.6316 13.9039 15.6138 13.9126 15.5789C13.9229 15.5375 13.9285 15.475 13.9359 15.3567C13.9359 15.3566 13.9359 15.3566 13.9359 15.3565L13.9505 15.0888L13.9539 15.026L14.0168 15.0257L14.8185 15.0228L14.8186 15.0228C15.2426 15.0214 15.4795 15.0169 15.6373 14.9978C15.7899 14.9793 15.8651 14.9476 15.9661 14.889L15.9663 14.8888L16.0829 14.8218L16.1819 14.7649L16.1828 14.879L16.1916 15.9255L16.1916 15.9257L16.2032 16.9692L16.2036 16.9973L16.1837 17.0171L16.1079 17.0929C16.0729 17.128 16.0381 17.1542 15.9884 17.1691C15.9429 17.1827 15.889 17.1853 15.8198 17.1853C15.7169 17.1883 14.4595 17.1882 13.0169 17.1853L13.017 17.1187V17.1853C12.9225 17.1853 12.8312 17.1853 12.7431 17.1853C11.4873 17.1854 10.859 17.1855 10.5385 17.1663C10.4524 17.1611 10.3865 17.1545 10.3356 17.1456C10.2853 17.1369 10.2455 17.1254 10.2142 17.1082C10.153 17.0746 10.135 17.0225 10.1231 16.9878C10.1213 16.9825 10.1196 16.9777 10.118 16.9734L10.1802 16.9496L10.1183 16.9743C10.1142 16.964 10.1123 16.9529 10.1113 16.9462C10.11 16.9379 10.1089 16.9283 10.1079 16.9179C10.106 16.897 10.1044 16.8699 10.103 16.8382C10.1003 16.7744 10.0983 16.6888 10.0971 16.5891C10.0946 16.3898 10.095 16.1325 10.0975 15.8782C10.1001 15.6239 10.1048 15.372 10.1112 15.1836C10.1143 15.0894 10.1179 15.0105 10.1218 14.9547C10.1237 14.927 10.1259 14.9037 10.1283 14.8868C10.1294 14.8787 10.1309 14.8695 10.1333 14.8613C10.1343 14.8577 10.1365 14.8503 10.141 14.8424C10.1432 14.8385 10.1477 14.8312 10.1556 14.8242C10.1639 14.8169 10.1792 14.8071 10.2006 14.8071C10.2144 14.8071 10.2252 14.8115 10.2267 14.8121C10.2268 14.8122 10.2268 14.8122 10.2269 14.8122C10.2304 14.8136 10.2335 14.8151 10.2356 14.8162C10.2399 14.8184 10.2445 14.821 10.2488 14.8236C10.2575 14.8288 10.2688 14.8359 10.2813 14.844C10.3065 14.8603 10.3396 14.8823 10.3743 14.9055L10.3747 14.9057ZM10.1751 14.935L10.1751 14.935L10.1751 14.935Z" fill="#161616" stroke="#161616" stroke-width="0.133333"/>
<path d="M17.4445 11.3089C17.581 11.1919 17.786 11.2288 17.8635 11.3768C17.9353 11.5157 17.8906 11.6395 17.7986 11.7091C17.7052 11.7797 17.5585 11.7968 17.4219 11.6999L17.4445 11.3089ZM17.4445 11.3089C17.357 11.3859 17.3208 11.4617 17.3187 11.524C17.3167 11.5837 17.3456 11.6457 17.4218 11.6998L17.4445 11.3089Z" fill="#161616" stroke="#161616" stroke-width="0.133333"/>
<path d="M19.0625 11.2979L19.0625 11.2979L19.0617 11.2985C19.0438 11.3133 19.0218 11.3388 19.0018 11.3693C18.9819 11.3997 18.9673 11.4299 18.961 11.452L18.961 11.452L18.9607 11.4531C18.9438 11.5084 18.947 11.5478 18.9633 11.5811C18.9807 11.6167 19.0179 11.655 19.0885 11.6971L19.0885 11.6971L19.0891 11.6975C19.1506 11.7352 19.209 11.7493 19.2627 11.7451C19.3162 11.7409 19.3707 11.7181 19.4242 11.6723C19.477 11.6243 19.4987 11.5812 19.5025 11.5408C19.5064 11.4993 19.4926 11.4475 19.4479 11.3804C19.3932 11.299 19.325 11.2545 19.2592 11.2414C19.1944 11.2285 19.1252 11.2446 19.0625 11.2979Z" fill="#161616" stroke="#161616" stroke-width="0.133333"/>
<path d="M17.5893 13.4414L17.5893 13.4414L17.5889 13.4417C17.5373 13.483 17.5264 13.5499 17.5539 13.6142C17.5814 13.6786 17.6433 13.7283 17.7222 13.7283C17.7995 13.7283 17.8503 13.6784 17.8659 13.6144C17.8816 13.55 17.8599 13.4772 17.7904 13.4355C17.7396 13.4061 17.7068 13.3971 17.6814 13.398C17.6574 13.3988 17.6295 13.4087 17.5893 13.4414Z" fill="#161616" stroke="#161616" stroke-width="0.133333"/>
<path d="M17.5724 14.9446L17.5724 14.9446L17.571 14.9458C17.5111 14.9948 17.4837 15.033 17.473 15.0657C17.4631 15.0962 17.4645 15.1316 17.4854 15.1834C17.5013 15.22 17.5404 15.2659 17.5898 15.3038C17.6138 15.3222 17.6383 15.3371 17.6605 15.3472C17.6835 15.3576 17.7001 15.3611 17.7096 15.3611C17.7096 15.3611 17.7096 15.3611 17.7096 15.3611C17.7098 15.361 17.7128 15.3608 17.7189 15.3587C17.7252 15.3565 17.7333 15.3527 17.743 15.3471C17.7624 15.3357 17.7848 15.3185 17.8071 15.2972C17.853 15.2533 17.8897 15.2005 17.9026 15.1598L17.9025 15.1598L17.9029 15.1588C17.915 15.1226 17.9177 15.103 17.9167 15.0877C17.9158 15.0727 17.9108 15.0552 17.8952 15.0239C17.852 14.9429 17.7973 14.9017 17.7459 14.8895C17.6957 14.8775 17.6354 14.8901 17.5724 14.9446Z" fill="#161616" stroke="#161616" stroke-width="0.133333"/>
<path d="M4.6568 15.5287L4.6562 15.5291C4.58884 15.5757 4.57331 15.6241 4.57696 15.6538C4.58036 15.6815 4.6039 15.7194 4.67675 15.7394L4.67675 15.7394L4.67727 15.7396C4.74157 15.7578 4.79014 15.7494 4.81979 15.7316C4.84749 15.715 4.86651 15.6858 4.86651 15.6404C4.86651 15.5987 4.83771 15.5556 4.78928 15.5299C4.74092 15.5042 4.69039 15.5049 4.6568 15.5287Z" fill="#161616" stroke="#161616" stroke-width="0.133333"/>
<path d="M6.57348 16.5539L6.57335 16.5539C6.43064 16.6154 6.38024 16.7621 6.41127 16.9025C6.4423 17.0429 6.55008 17.1555 6.70583 17.152L6.70592 17.152C6.81228 17.1498 6.90916 17.0736 6.96186 16.9651C7.01457 16.8564 7.01348 16.7354 6.94942 16.6535C6.89514 16.585 6.83678 16.5462 6.77717 16.5306C6.7177 16.515 6.64998 16.5207 6.57348 16.5539Z" fill="#161616" stroke="#161616" stroke-width="0.133333"/>
<path d="M4.77874 16.5562L4.77876 16.5562L4.77694 16.5574C4.75507 16.5711 4.7224 16.6132 4.69431 16.6777C4.66735 16.7396 4.65065 16.8084 4.65065 16.8625C4.65065 16.9212 4.65464 16.9472 4.66345 16.9677C4.6725 16.9887 4.68956 17.0108 4.73317 17.0544C4.84867 17.1699 4.9528 17.195 5.03771 17.1619C5.09468 17.1393 5.14699 17.0709 5.17185 16.9763C5.19638 16.883 5.18856 16.7839 5.14782 16.716L5.14781 16.716L5.14731 16.7151C5.11528 16.6599 5.04137 16.6043 4.95757 16.5714C4.91674 16.5553 4.87724 16.5462 4.84407 16.5445C4.80987 16.5428 4.78914 16.5492 4.77874 16.5562Z" fill="#161616" stroke="#161616" stroke-width="0.133333"/>
<path d="M8.14581 16.6003L8.14582 16.6003L8.14443 16.6012C8.12471 16.6137 8.09911 16.6373 8.07352 16.6672C8.04851 16.6965 8.02693 16.7279 8.01365 16.7531C7.98246 16.8157 7.97785 16.8731 7.99301 16.9237C8.00841 16.975 8.04652 17.0268 8.11421 17.0728L8.11422 17.0728L8.11475 17.0732C8.20393 17.135 8.25828 17.1578 8.29932 17.1598C8.33536 17.1615 8.37349 17.1474 8.43196 17.0956L8.43211 17.0954C8.54439 16.9965 8.58615 16.8944 8.57954 16.8099C8.57305 16.7268 8.5183 16.6416 8.3958 16.5777L8.3958 16.5777L8.39556 16.5776C8.34856 16.5529 8.31027 16.5448 8.27447 16.5479C8.23792 16.551 8.1969 16.5663 8.14581 16.6003Z" fill="#161616" stroke="#161616" stroke-width="0.133333"/>
<path d="M6.53177 18.1651C6.54167 18.1436 6.55965 18.1197 6.59744 18.0819C6.64607 18.0333 6.69005 18.0103 6.73172 18.0037L6.53177 18.1651ZM6.53177 18.1651C6.52245 18.1853 6.51784 18.2087 6.51784 18.2505M6.53177 18.1651L6.51784 18.2505M6.51784 18.2505C6.51784 18.368 6.60162 18.4765 6.73568 18.519M6.51784 18.2505L6.73568 18.519M6.73568 18.519C6.78746 18.5338 6.80615 18.536 6.81776 18.5346C6.82614 18.5335 6.83661 18.5301 6.86909 18.5061C6.98718 18.4175 7.03558 18.322 7.03612 18.2446C7.03663 18.1706 6.99331 18.093 6.8815 18.0358L6.73568 18.519Z" fill="#161616" stroke="#161616" stroke-width="0.133333"/>
<path d="M8.35985 18.5003L8.35986 18.5003C8.30633 18.5271 8.2951 18.5292 8.28915 18.529C8.28294 18.5289 8.27401 18.5263 8.22447 18.4991C8.11934 18.4366 8.06365 18.3558 8.04916 18.2806C8.03501 18.2071 8.05795 18.1287 8.13122 18.0613C8.17122 18.0256 8.18936 18.0143 8.20711 18.0091L8.35985 18.5003ZM8.35985 18.5003L8.36124 18.4997C8.52072 18.4245 8.57691 18.3034 8.56649 18.209C8.55636 18.1173 8.48025 18.0247 8.31621 18.0082L8.35985 18.5003Z" fill="#161616" stroke="#161616" stroke-width="0.133333"/>
</svg>
