<svg width="22" height="22" viewBox="0 0 22 22" fill="none" xmlns="http://www.w3.org/2000/svg">
<mask id="path-1-inside-1_13599_40828" fill="white">
<path d="M10.406 0.0313705C9.00251 0.177642 8.17363 0.386602 6.89201 0.905518C5.56512 1.44185 4.52729 2.13141 3.44767 3.19362C1.99888 4.61455 1.14563 5.96582 0.529198 7.79421C0.212276 8.73801 -0.0315096 10.3853 0.00331698 11.3465C0.0242129 11.8933 0.128693 12.8023 0.226207 13.2446C0.776467 15.8113 2.40983 18.1969 4.69446 19.7711C5.29696 20.1855 5.47109 20.2865 6.10493 20.6034C6.87808 20.99 7.63034 21.2477 8.51842 21.4323C9.65724 21.6656 11.4787 21.7039 12.6001 21.5124C13.4464 21.3696 14.3728 21.1119 15.0693 20.8194C15.32 20.7149 16.1141 20.3248 16.3579 20.1855C16.6295 20.0288 17.4793 19.4402 17.7022 19.2556C18.0296 18.9875 18.7853 18.2317 19.0012 17.9636C20.4291 16.1944 21.1431 14.6899 21.46 12.7918C21.7699 10.9147 21.4983 8.66836 20.7286 6.80862C20.4813 6.21309 20.4221 6.15737 20.039 6.1713C19.9729 6.17478 19.8963 6.22005 19.8057 6.3106C19.6002 6.51608 19.6107 6.65538 19.8997 7.38674C20.3316 8.47681 20.5614 9.61564 20.5963 10.8067C20.6485 12.4958 20.255 14.1675 19.4679 15.5954C19.2346 16.0168 18.7017 16.8038 18.3709 17.2148C17.7579 17.9775 16.7828 18.8203 15.9713 19.2905C15.024 19.8407 13.8817 20.2865 12.9379 20.4711C11.4438 20.7601 10.5209 20.7706 8.9433 20.5059C6.79798 20.1507 4.73277 18.9561 3.27353 17.2322C2.08943 15.8357 1.35459 14.2441 1.08294 12.4784C0.988909 11.8689 0.999357 10.441 1.10035 9.76888C1.32324 8.28179 1.73768 7.16734 2.56655 5.8091C3.79245 3.79961 5.95866 2.12445 8.14229 1.49409C8.98857 1.24682 9.807 1.09706 10.406 1.0692C10.9981 1.04482 11.0364 1.03786 11.1966 0.898552C11.5483 0.599044 11.3951 0.097541 10.9284 0.0035092C10.8797 -0.00693877 10.6463 0.00699186 10.406 0.0313705Z"/>
</mask>
<path d="M10.406 0.0313705C9.00251 0.177642 8.17363 0.386602 6.89201 0.905518C5.56512 1.44185 4.52729 2.13141 3.44767 3.19362C1.99888 4.61455 1.14563 5.96582 0.529198 7.79421C0.212276 8.73801 -0.0315096 10.3853 0.00331698 11.3465C0.0242129 11.8933 0.128693 12.8023 0.226207 13.2446C0.776467 15.8113 2.40983 18.1969 4.69446 19.7711C5.29696 20.1855 5.47109 20.2865 6.10493 20.6034C6.87808 20.99 7.63034 21.2477 8.51842 21.4323C9.65724 21.6656 11.4787 21.7039 12.6001 21.5124C13.4464 21.3696 14.3728 21.1119 15.0693 20.8194C15.32 20.7149 16.1141 20.3248 16.3579 20.1855C16.6295 20.0288 17.4793 19.4402 17.7022 19.2556C18.0296 18.9875 18.7853 18.2317 19.0012 17.9636C20.4291 16.1944 21.1431 14.6899 21.46 12.7918C21.7699 10.9147 21.4983 8.66836 20.7286 6.80862C20.4813 6.21309 20.4221 6.15737 20.039 6.1713C19.9729 6.17478 19.8963 6.22005 19.8057 6.3106C19.6002 6.51608 19.6107 6.65538 19.8997 7.38674C20.3316 8.47681 20.5614 9.61564 20.5963 10.8067C20.6485 12.4958 20.255 14.1675 19.4679 15.5954C19.2346 16.0168 18.7017 16.8038 18.3709 17.2148C17.7579 17.9775 16.7828 18.8203 15.9713 19.2905C15.024 19.8407 13.8817 20.2865 12.9379 20.4711C11.4438 20.7601 10.5209 20.7706 8.9433 20.5059C6.79798 20.1507 4.73277 18.9561 3.27353 17.2322C2.08943 15.8357 1.35459 14.2441 1.08294 12.4784C0.988909 11.8689 0.999357 10.441 1.10035 9.76888C1.32324 8.28179 1.73768 7.16734 2.56655 5.8091C3.79245 3.79961 5.95866 2.12445 8.14229 1.49409C8.98857 1.24682 9.807 1.09706 10.406 1.0692C10.9981 1.04482 11.0364 1.03786 11.1966 0.898552C11.5483 0.599044 11.3951 0.097541 10.9284 0.0035092C10.8797 -0.00693877 10.6463 0.00699186 10.406 0.0313705Z" fill="#161616"/>
<path d="M10.406 0.0313705L10.3922 -0.101245L10.3926 -0.101282L10.406 0.0313705ZM6.89201 0.905518L6.94205 1.0291L6.94198 1.02913L6.89201 0.905518ZM3.44767 3.19362L3.54118 3.28867L3.54103 3.28882L3.44767 3.19362ZM0.529198 7.79421L0.402801 7.75177L0.402852 7.75162L0.529198 7.79421ZM0.00331698 11.3465L-0.129919 11.3516L-0.129929 11.3514L0.00331698 11.3465ZM0.226207 13.2446L0.356416 13.2159L0.356578 13.2166L0.226207 13.2446ZM4.69446 19.7711L4.61889 19.8809L4.61881 19.8809L4.69446 19.7711ZM8.51842 21.4323L8.49165 21.5629L8.49128 21.5628L8.51842 21.4323ZM12.6001 21.5124L12.5776 21.381L12.5779 21.3809L12.6001 21.5124ZM15.0693 20.8194L15.0177 20.6964L15.018 20.6963L15.0693 20.8194ZM16.3579 20.1855L16.4245 20.301L16.424 20.3013L16.3579 20.1855ZM17.7022 19.2556L17.6171 19.1529L17.6177 19.1525L17.7022 19.2556ZM19.0012 17.9636L18.8974 17.88L18.8975 17.8798L19.0012 17.9636ZM21.46 12.7918L21.5915 12.8135L21.5915 12.8138L21.46 12.7918ZM20.7286 6.80862L20.8518 6.75749L20.8518 6.75764L20.7286 6.80862ZM20.039 6.1713L20.032 6.03813L20.0342 6.03805L20.039 6.1713ZM19.8057 6.3106L19.7114 6.21632L19.8057 6.3106ZM19.8997 7.38674L19.7758 7.43585L19.7757 7.43575L19.8997 7.38674ZM20.5963 10.8067L20.463 10.8108L20.463 10.8106L20.5963 10.8067ZM19.4679 15.5954L19.5847 15.6597L19.5845 15.66L19.4679 15.5954ZM18.3709 17.2148L18.2669 17.1313L18.267 17.1312L18.3709 17.2148ZM15.9713 19.2905L15.9043 19.1752L15.9045 19.1751L15.9713 19.2905ZM12.9379 20.4711L12.9635 20.6019L12.9632 20.602L12.9379 20.4711ZM8.9433 20.5059L8.96508 20.3744L8.96536 20.3744L8.9433 20.5059ZM3.27353 17.2322L3.37523 17.146L3.3753 17.1461L3.27353 17.2322ZM1.08294 12.4784L1.21472 12.4581L1.21472 12.4581L1.08294 12.4784ZM1.10035 9.76888L1.23221 9.78864L1.23221 9.78869L1.10035 9.76888ZM2.56655 5.8091L2.68038 5.87854L2.68037 5.87856L2.56655 5.8091ZM8.14229 1.49409L8.17968 1.62207L8.17927 1.62219L8.14229 1.49409ZM10.406 1.0692L10.3998 0.936011L10.4005 0.935982L10.406 1.0692ZM11.1966 0.898552L11.1091 0.797933L11.1101 0.797035L11.1966 0.898552ZM10.9284 0.0035092L10.9021 0.134225L10.9005 0.133883L10.9284 0.0035092ZM10.4198 0.163986C9.02879 0.308959 8.2121 0.514873 6.94205 1.0291L6.84197 0.78193C8.13516 0.258331 8.97622 0.0463256 10.3922 -0.101245L10.4198 0.163986ZM6.94198 1.02913C5.63228 1.55851 4.60905 2.23802 3.54118 3.28867L3.35415 3.09858C4.44553 2.02481 5.49796 1.32518 6.84205 0.7819L6.94198 1.02913ZM3.54103 3.28882C2.1066 4.69565 1.265 6.0291 0.655544 7.83681L0.402852 7.75162C1.02626 5.90253 1.89116 4.53344 3.3543 3.09843L3.54103 3.28882ZM0.655596 7.83666C0.343605 8.76577 0.102337 10.3971 0.136563 11.3417L-0.129929 11.3514C-0.165357 10.3735 0.0809482 8.71025 0.402801 7.75177L0.655596 7.83666ZM0.136553 11.3414C0.157229 11.8824 0.261025 12.7832 0.356413 13.2159L0.0960007 13.2733C-0.00363933 12.8213 -0.108803 11.9042 -0.129919 11.3516L0.136553 11.3414ZM0.356578 13.2166C0.899271 15.748 2.51174 18.1052 4.77011 19.6613L4.61881 19.8809C2.30793 18.2886 0.653663 15.8745 0.095836 13.2725L0.356578 13.2166ZM4.77002 19.6612C5.36732 20.0721 5.53611 20.1699 6.16456 20.4842L6.04531 20.7227C5.40606 20.4031 5.2266 20.2989 4.61889 19.8809L4.77002 19.6612ZM6.16456 20.4842C6.92684 20.8653 7.66809 21.1194 8.54555 21.3018L8.49128 21.5628C7.59258 21.3761 6.82933 21.1147 6.04531 20.7227L6.16456 20.4842ZM8.54518 21.3017C9.66844 21.5318 11.4732 21.5696 12.5776 21.381L12.6225 21.6438C11.4842 21.8383 9.64605 21.7994 8.49165 21.5629L8.54518 21.3017ZM12.5779 21.3809C13.4158 21.2396 14.3321 20.9844 15.0177 20.6964L15.1209 20.9423C14.4135 21.2394 13.4769 21.4997 12.6223 21.6439L12.5779 21.3809ZM15.018 20.6963C15.2637 20.5939 16.0527 20.2063 16.2917 20.0697L16.424 20.3013C16.1754 20.4433 15.3764 20.8358 15.1206 20.9424L15.018 20.6963ZM16.2912 20.07C16.5567 19.9169 17.4003 19.3325 17.6171 19.1529L17.7872 19.3583C17.5583 19.5479 16.7023 20.1407 16.4245 20.301L16.2912 20.07ZM17.6177 19.1525C17.9388 18.8895 18.6878 18.1402 18.8974 17.88L19.1051 18.0472C18.8827 18.3233 18.1203 19.0855 17.7867 19.3588L17.6177 19.1525ZM18.8975 17.8798C20.3135 16.1253 21.0159 14.6416 21.3285 12.7699L21.5915 12.8138C21.2702 14.7382 20.5447 16.2634 19.105 18.0473L18.8975 17.8798ZM21.3284 12.7701C21.6341 10.9187 21.3661 8.69756 20.6054 6.85961L20.8518 6.75764C21.6305 8.63916 21.9057 10.9106 21.5915 12.8135L21.3284 12.7701ZM20.6055 6.85975C20.5436 6.71077 20.4955 6.60053 20.4522 6.51752C20.4087 6.43403 20.3745 6.38733 20.3442 6.35926C20.2945 6.31328 20.2365 6.29754 20.0439 6.30454L20.0342 6.03805C20.2246 6.03113 20.3878 6.03627 20.5253 6.16356C20.5886 6.22213 20.6396 6.30014 20.6886 6.39416C20.7379 6.48866 20.79 6.60871 20.8518 6.75749L20.6055 6.85975ZM20.0461 6.30445C20.0317 6.3052 19.9856 6.31931 19.9 6.40488L19.7114 6.21632C19.807 6.12079 19.914 6.04436 20.032 6.03815L20.0461 6.30445ZM19.9 6.40488C19.8535 6.4514 19.8289 6.48484 19.8152 6.51612C19.8025 6.54512 19.7951 6.58153 19.8001 6.64005C19.8112 6.76862 19.8772 6.96685 20.0237 7.33773L19.7757 7.43575C19.6333 7.07528 19.5495 6.83818 19.5344 6.66289C19.5264 6.56947 19.5369 6.48682 19.571 6.40906C19.604 6.33357 19.6552 6.27254 19.7114 6.21632L19.9 6.40488ZM20.0237 7.33763C20.4614 8.44258 20.6943 9.59675 20.7296 10.8028L20.463 10.8106C20.4286 9.63454 20.2017 8.51105 19.7758 7.43585L20.0237 7.33763ZM20.7295 10.8026C20.7825 12.5146 20.3837 14.2101 19.5847 15.6597L19.3511 15.531C20.1262 14.1249 20.5145 12.477 20.463 10.8108L20.7295 10.8026ZM19.5845 15.66C19.3472 16.0886 18.81 16.882 18.4747 17.2984L18.267 17.1312C18.5935 16.7257 19.1219 15.9449 19.3512 15.5308L19.5845 15.66ZM18.4748 17.2983C17.8519 18.0733 16.8644 18.9271 16.0381 19.4058L15.9045 19.1751C16.7012 18.7135 17.6639 17.8817 18.2669 17.1313L18.4748 17.2983ZM16.0383 19.4058C15.0801 19.9624 13.9239 20.4141 12.9635 20.6019L12.9123 20.3402C13.8396 20.1589 14.968 19.7191 15.9043 19.1752L16.0383 19.4058ZM12.9632 20.602C11.453 20.8942 10.514 20.9046 8.92124 20.6374L8.96536 20.3744C10.5279 20.6366 11.4347 20.6261 12.9126 20.3402L12.9632 20.602ZM8.92152 20.6375C6.74359 20.2768 4.65049 19.0653 3.17176 17.3184L3.3753 17.1461C4.81504 18.847 6.85237 20.0245 8.96508 20.3744L8.92152 20.6375ZM3.17183 17.3184C1.97229 15.9037 1.22666 14.2894 0.951158 12.4987L1.21472 12.4581C1.48251 14.1987 2.20657 15.7677 3.37523 17.146L3.17183 17.3184ZM0.951167 12.4987C0.90246 12.183 0.881689 11.6649 0.885181 11.1462C0.888679 10.6269 0.916599 10.0945 0.968501 9.74907L1.23221 9.78869C1.18311 10.1154 1.15531 10.6331 1.15184 11.148C1.14837 11.6637 1.16939 12.1643 1.21472 12.4581L0.951167 12.4987ZM0.968494 9.74912C1.1942 8.24326 1.61523 7.11204 2.45274 5.73964L2.68037 5.87856C1.86014 7.22263 1.45229 8.32031 1.23221 9.78864L0.968494 9.74912ZM2.45273 5.73966C3.69535 3.70275 5.88845 2.00594 8.10531 1.36598L8.17927 1.62219C6.02887 2.24296 3.88955 3.89646 2.68038 5.87854L2.45273 5.73966ZM8.10489 1.3661C8.95782 1.1169 9.78711 0.964511 10.3998 0.936013L10.4122 1.20239C9.82688 1.22962 9.01933 1.37674 8.17968 1.62207L8.10489 1.3661ZM10.4005 0.935982C10.7023 0.923555 10.8457 0.915813 10.9353 0.896602C11.0067 0.881292 11.036 0.861527 11.1091 0.797938L11.2841 0.999166C11.197 1.07488 11.127 1.12825 10.9912 1.15735C10.8736 1.18254 10.7018 1.19047 10.4115 1.20242L10.4005 0.935982ZM11.1101 0.797035C11.2476 0.680016 11.2784 0.534007 11.2418 0.412494C11.2045 0.289163 11.0917 0.172418 10.9021 0.134216L10.9548 -0.127197C11.2318 -0.0713679 11.4289 0.109654 11.4971 0.335459C11.5657 0.563084 11.4973 0.817579 11.283 1.00007L11.1101 0.797035ZM10.9005 0.133883C10.9047 0.134798 10.8954 0.133126 10.8609 0.133357C10.8314 0.133555 10.7925 0.13496 10.7464 0.13751C10.6544 0.142597 10.5381 0.151989 10.4195 0.164023L10.3926 -0.101282C10.5142 -0.113627 10.6347 -0.123389 10.7317 -0.12875C10.78 -0.131424 10.8236 -0.133066 10.8591 -0.133304C10.8896 -0.133508 10.9277 -0.133003 10.9564 -0.126864L10.9005 0.133883Z" fill="#161616" mask="url(#path-1-inside-1_13599_40828)"/>
<path d="M13.1965 4.08183C13.2035 4.09925 13.5099 4.42662 13.8791 4.80623L18.1384 1.04147M13.1965 4.08183C13.1547 3.95994 14.2274 2.66787 14.7149 2.25344C15.415 1.6579 16.317 1.29919 17.5812 1.11113C17.7832 1.07978 18.0339 1.05192 18.1384 1.04147M13.1965 4.08183L13.2584 4.05707C13.2566 4.05252 13.2547 4.04936 13.2542 4.04851L13.2527 4.04626C13.2526 4.04615 13.2526 4.0461 13.2526 4.04611C13.2526 4.04613 13.2529 4.04653 13.2536 4.04739C13.2555 4.04975 13.2586 4.05352 13.2632 4.05892C13.2642 4.06003 13.2652 4.06119 13.2662 4.0624C13.2655 4.0643 13.2648 4.06608 13.2642 4.06775L13.2623 4.07394C13.2619 4.07546 13.2618 4.07611 13.2619 4.07601L13.2619 4.07601C13.2619 4.07593 13.2621 4.07455 13.2619 4.07216C13.2618 4.06978 13.2614 4.06552 13.2596 4.06021L13.1965 4.08183ZM18.1384 1.04147L18.145 1.10781C18.1446 1.10785 18.1441 1.1079 18.1437 1.10795C18.1432 1.10797 18.1428 1.108 18.1423 1.10803L18.1384 1.04147ZM18.7083 1.19C18.7081 1.18987 18.708 1.18974 18.7079 1.18962L18.7583 1.14595L18.7086 1.19035C18.7085 1.19024 18.7084 1.19012 18.7083 1.19ZM15.3067 6.10749C15.3068 6.10748 15.3068 6.10746 15.3069 6.10744L15.307 6.10738L15.3349 6.16795L15.3067 6.10749ZM18.1036 3.9286L18.0437 3.89925C18.0437 3.89919 18.0438 3.89913 18.0438 3.89906C18.0438 3.89902 18.0438 3.89898 18.0439 3.89893L18.1036 3.9286ZM15.1329 6.18748L15.1829 6.16445L15.215 6.2093L15.1607 6.24805L15.1329 6.18748ZM15.1454 6.11186L15.0911 6.15053L15.1453 6.11178L15.1454 6.11186ZM17.1785 2.92947L17.1786 2.92946L17.1793 2.93082C17.2223 3.00593 17.2501 3.06231 17.2653 3.14112C17.2797 3.21634 17.2822 3.30987 17.2822 3.45844C17.2822 3.64276 17.2747 3.76747 17.2351 3.87795C17.1951 3.98955 17.1246 4.08053 17.0143 4.20305L17.0143 4.20305L17.0139 4.2035C16.8095 4.4265 16.5559 4.54088 16.2274 4.56279L16.2272 4.5628C16.1168 4.56981 16.0371 4.57112 15.9647 4.56099C15.8909 4.55066 15.8281 4.52896 15.7504 4.49465C15.3792 4.3333 15.1463 3.95605 15.1463 3.52809C15.1463 3.31956 15.1844 3.13789 15.2674 2.97803C15.3504 2.81808 15.4762 2.68406 15.6453 2.56768L15.6456 2.56746C15.7881 2.47067 15.9278 2.41167 16.0801 2.39358C16.2319 2.37556 16.3909 2.39881 16.571 2.45824C16.8536 2.55 17.0375 2.69565 17.1785 2.92947Z" fill="#161616" stroke="#161616" stroke-width="0.133333"/>
<path d="M16.4581 3.09111L16.4581 3.09113L16.4566 3.09004C16.4176 3.0604 16.355 3.03631 16.285 3.02478C16.2151 3.01326 16.147 3.01578 16.099 3.03087L16.079 2.96728L16.0991 3.03083C15.9462 3.07919 15.8442 3.17798 15.7968 3.29931C15.7492 3.42108 15.7541 3.57224 15.8289 3.72851C15.8705 3.81147 15.9255 3.86791 15.9924 3.90226C16.0599 3.93692 16.1449 3.95177 16.2504 3.94221C16.6858 3.89971 16.8297 3.35745 16.4581 3.09111Z" fill="#161616" stroke="#161616" stroke-width="0.133333"/>
<path d="M8.1734 2.08555L8.17223 2.0858C8.06592 2.10801 7.88789 2.18556 7.68375 2.29675C7.48169 2.40681 7.26057 2.5462 7.06992 2.68704C5.78943 3.64058 4.77142 5.41739 4.58195 7.02934C4.47219 7.97953 4.73013 9.30736 5.21615 10.2794C5.49939 10.8424 6.00993 11.5073 6.57926 12.0966C7.14899 12.6862 7.77153 13.1939 8.27555 13.4468L8.27565 13.4468C9.20841 13.9166 10.2927 14.2098 11.226 14.2477L11.2261 14.2477C12.0584 14.2823 12.9238 14.1646 13.576 13.9312C13.7973 13.8516 13.9365 13.7827 14.0318 13.7009C14.1243 13.6213 14.1797 13.5258 14.2242 13.3826C14.2346 13.3472 14.2419 13.321 14.2465 13.3009C14.2478 13.2952 14.2488 13.2904 14.2495 13.2863C14.2409 13.287 14.2301 13.2882 14.2168 13.29C14.1791 13.2951 14.1269 13.3041 14.0638 13.3166C13.9376 13.3416 13.7708 13.3796 13.5941 13.4247L13.5936 13.4248C12.7283 13.6385 12.4095 13.6775 11.5542 13.6775L11.5538 13.6775C10.9538 13.674 10.7709 13.6636 10.4336 13.5961L10.4335 13.5961C9.45861 13.3997 8.71182 13.1078 8.0172 12.6459L8.01699 12.6458C7.85449 12.5369 7.56249 12.2965 7.27522 12.0436C6.98762 11.7904 6.6997 11.5202 6.54553 11.3501C5.66388 10.3803 5.18461 9.18464 5.12825 7.81512C5.08949 6.98298 5.23071 6.23784 5.56232 5.49348C6.13238 4.21261 6.94968 3.29061 8.26178 2.4451L8.26277 2.44449C8.34849 2.39134 8.42817 2.33736 8.48788 2.29428C8.51778 2.27271 8.54223 2.25419 8.55973 2.2401C8.56853 2.23302 8.57505 2.22747 8.57943 2.22347C8.58075 2.22227 8.5817 2.22137 8.58233 2.22075C8.59131 2.20671 8.59046 2.19679 8.58379 2.18444C8.57419 2.16664 8.55028 2.14329 8.50796 2.12175C8.4243 2.07917 8.29571 2.05768 8.1734 2.08555Z" fill="#161616" stroke="#161616" stroke-width="0.133333"/>
<path d="M11.6025 3.67075L11.6025 3.67074L11.6037 3.67051C11.7764 3.63994 11.9857 3.62849 12.1782 3.6347C12.3687 3.64084 12.551 3.6645 12.6662 3.7086C12.7202 3.72861 12.7608 3.7434 12.7917 3.7536C12.8014 3.7568 12.8097 3.75939 12.8168 3.76149C12.8197 3.74789 12.8241 3.73451 12.8288 3.72197C12.8378 3.69787 12.8505 3.67119 12.8657 3.64283C12.8962 3.58604 12.9394 3.51802 12.9912 3.44317C13.095 3.29321 13.2366 3.11119 13.3896 2.92849C13.5426 2.74568 13.7078 2.56122 13.8588 2.4064C13.9926 2.26935 14.1182 2.15253 14.2157 2.08138C14.188 2.07913 14.1546 2.07723 14.117 2.0757C14.0302 2.07216 13.9226 2.07064 13.8123 2.07107C13.5897 2.07195 13.3637 2.08075 13.2738 2.09539C12.7353 2.18973 12.1519 2.5418 11.5969 3.11056C11.461 3.24989 11.3846 3.34224 11.3456 3.41601C11.3096 3.48408 11.306 3.53512 11.3213 3.59786C11.3347 3.64852 11.3548 3.66846 11.3847 3.67882C11.4234 3.69221 11.4891 3.69307 11.6025 3.67075Z" fill="#161616" stroke="#161616" stroke-width="0.133333"/>
<path d="M12.5629 4.47059L12.5629 4.4706C12.4516 4.55182 12.4018 4.60056 12.3827 4.63949C12.3685 4.66823 12.3678 4.69848 12.3991 4.76417C12.4144 4.79621 12.4493 4.84995 12.5029 4.92267C12.5555 4.99417 12.6235 5.08051 12.7023 5.17653C12.8597 5.36849 13.0587 5.5974 13.2604 5.82039C13.4621 6.04339 13.666 6.25986 13.8333 6.42704C13.917 6.51068 13.991 6.58147 14.0507 6.63439C14.1128 6.68949 14.1532 6.71947 14.1717 6.72828L14.2631 6.77145L14.4931 6.62119L14.4935 6.62093C14.5649 6.57505 14.627 6.5296 14.6703 6.49377C14.683 6.48322 14.6936 6.47389 14.7021 6.46593C14.6998 6.463 14.6973 6.45988 14.6946 6.45657C14.6724 6.42907 14.64 6.39139 14.5998 6.34595C14.5195 6.25524 14.4094 6.13565 14.2896 6.00886L14.2892 6.00853C14.2438 5.95981 14.191 5.90323 14.1333 5.84133C13.8856 5.57587 13.5464 5.21234 13.3035 4.9496L13.3032 4.94933C13.1541 4.78637 13.0113 4.63834 12.9021 4.53088C12.8474 4.47707 12.8017 4.43395 12.7681 4.40436C12.7527 4.39077 12.7406 4.38067 12.7317 4.37389C12.7317 4.37389 12.7317 4.3739 12.7317 4.37391C12.7208 4.37742 12.7058 4.38376 12.6873 4.39311C12.6505 4.41169 12.6057 4.4393 12.5629 4.47059Z" fill="#161616" stroke="#161616" stroke-width="0.133333"/>
<path d="M4.73556 4.84885L4.73557 4.84882C4.77739 4.72065 4.71333 4.60428 4.60306 4.54237C4.49256 4.48032 4.35064 4.48222 4.25055 4.58231C4.18711 4.64575 4.16017 4.71634 4.16251 4.78495C4.16487 4.85418 4.19739 4.9294 4.26796 4.99998C4.36117 5.09319 4.45584 5.1138 4.53218 5.09046C4.61055 5.0665 4.68949 4.99022 4.73556 4.84885Z" fill="#161616" stroke="#161616" stroke-width="0.133333"/>
<path d="M11.1997 7.5989C11.2066 7.37601 11.3146 6.575 11.3668 6.33121L11.1997 7.5989ZM11.1997 7.5989C11.1927 7.79045 11.2658 7.82179 11.6942 7.79393L11.1997 7.5989ZM11.9275 5.37027L11.9273 5.37039C11.7172 5.59383 11.5098 6.00035 11.4319 6.34553C11.3803 6.58685 11.2731 7.38312 11.2663 7.60098L11.2663 7.60098L11.2663 7.60132C11.2646 7.64685 11.2685 7.67249 11.2751 7.68792C11.2798 7.69908 11.2873 7.70835 11.3084 7.71677C11.3329 7.72654 11.3726 7.73357 11.4372 7.73551C11.5009 7.73742 11.5832 7.73434 11.6899 7.7274L11.6899 7.7274L11.6904 7.72737C12.4198 7.68589 12.823 7.58615 13.2182 7.36669C13.3226 7.30696 13.4519 7.20918 13.5553 7.11722C13.607 7.07129 13.6508 7.02813 13.681 6.99323C13.6961 6.97577 13.7067 6.96173 13.7131 6.95141C13.7123 6.95006 13.7114 6.94858 13.7105 6.94698C13.7019 6.93296 13.6886 6.91434 13.6711 6.89203C13.6362 6.8477 13.5884 6.79353 13.5379 6.74077C13.4875 6.688 13.4358 6.63793 13.3935 6.60151C13.3722 6.58318 13.3546 6.56935 13.3414 6.56049C13.3407 6.56002 13.34 6.55957 13.3393 6.55914C13.3273 6.56523 13.3109 6.57471 13.291 6.5873C13.2515 6.61245 13.202 6.64763 13.1531 6.68644L13.153 6.68649C12.9106 6.87822 12.6708 6.98675 12.3274 7.05477C12.2397 7.073 12.171 7.08675 12.1177 7.09549C12.0657 7.10403 12.0229 7.10877 11.9895 7.10644C11.9551 7.10405 11.915 7.09284 11.8908 7.05424C11.8714 7.02336 11.8713 6.98639 11.8713 6.96506C11.8713 6.93022 11.8826 6.86971 11.8974 6.8039C11.9129 6.73519 11.9341 6.65254 11.9573 6.56888C12.0033 6.40349 12.0595 6.22691 12.0969 6.14638L12.0969 6.14637L12.0978 6.14468C12.1359 6.06839 12.2441 5.91405 12.3385 5.79522L12.3385 5.79521L12.3393 5.7943C12.3867 5.73671 12.4287 5.67946 12.4586 5.63387C12.4734 5.61122 12.4846 5.59237 12.4919 5.57835C12.482 5.56579 12.4675 5.54914 12.4489 5.52922C12.4097 5.48713 12.3563 5.4344 12.3008 5.38259C12.2453 5.33078 12.1889 5.28084 12.1438 5.24418C12.1243 5.2284 12.1077 5.21569 12.0947 5.20651C12.0855 5.2141 12.0744 5.22389 12.0615 5.23578C12.0247 5.26962 11.9772 5.31714 11.9275 5.37027Z" fill="#161616" stroke="#161616" stroke-width="0.133333"/>
<path d="M4.06066 5.63491L4.01192 5.6804C3.94566 5.6094 3.87922 5.57166 3.81734 5.55976C3.7566 5.54808 3.69363 5.55997 3.62978 5.6006L3.62978 5.60061L3.62885 5.60118C3.55822 5.64452 3.51134 5.68915 3.48179 5.73698C3.45265 5.78417 3.43776 5.83869 3.43776 5.90656C3.43776 6.07976 3.52842 6.19835 3.64219 6.24655C3.75577 6.29467 3.90103 6.27641 4.02019 6.15574L4.02019 6.15574L4.02048 6.15544C4.06204 6.11388 4.08006 6.08888 4.09021 6.06221C4.10083 6.03429 4.10544 5.99775 4.10544 5.92745C4.10544 5.8555 4.10084 5.81807 4.08936 5.78796C4.07805 5.75832 4.05768 5.72954 4.01187 5.68034L4.06066 5.63491ZM4.06066 5.63491C4.15469 5.73591 4.17211 5.78118 4.17211 5.92745C4.17211 6.07024 4.15469 6.11552 4.06763 6.20258C3.7925 6.48119 3.37109 6.30358 3.37109 5.90656C3.37109 5.74984 3.44075 5.63839 3.59398 5.54436M4.06066 5.63491C3.91439 5.47819 3.74722 5.44684 3.59398 5.54436M3.59398 5.54436L3.59398 5.54436L3.59398 5.54436Z" fill="#161616" stroke="#161616" stroke-width="0.133333"/>
<path d="M17.2858 5.79524C17.2954 5.73414 17.3027 5.679 17.3071 5.63433C17.2672 5.66205 17.2182 5.69659 17.1662 5.73416C16.6922 6.08176 16.028 6.44422 15.6054 6.58626L15.6054 6.58627L15.6044 6.58658L15.4168 6.64641L15.4344 6.79007L15.4344 6.79007L15.4345 6.79117C15.4601 7.0326 15.4093 7.43531 15.3067 7.77155C15.2769 7.87354 15.2635 7.92847 15.2606 7.9672C15.2582 7.99989 15.2632 8.02069 15.2789 8.05509C15.2988 8.09667 15.3204 8.11445 15.3444 8.12185C15.3717 8.13027 15.4157 8.12959 15.4877 8.1044C15.6325 8.0537 15.8504 7.91866 16.1821 7.67774C16.6727 7.31661 17.0118 6.84792 17.178 6.29868C17.2187 6.15763 17.26 5.95872 17.2858 5.79524Z" fill="#161616" stroke="#161616" stroke-width="0.133333"/>
<path d="M10.1527 6.81221L10.1527 6.81221L10.1522 6.81246C10.1026 6.83953 10.0711 6.86927 10.0512 6.90332C10.0312 6.93753 10.0198 6.9817 10.0198 7.043C10.0198 7.11132 10.0321 7.16297 10.0562 7.20593C10.0803 7.24907 10.1191 7.28872 10.1806 7.32817L10.1807 7.32816L10.1819 7.32902C10.2512 7.37575 10.3038 7.39364 10.3472 7.39425C10.3889 7.39485 10.4319 7.37952 10.4828 7.33905L10.4828 7.33905L10.4831 7.33881C10.5864 7.25776 10.6325 7.1719 10.6371 7.09432C10.6417 7.01772 10.6068 6.9336 10.5152 6.85282C10.4551 6.80049 10.3968 6.77393 10.34 6.7675C10.2834 6.76109 10.2215 6.77399 10.1527 6.81221Z" fill="#161616" stroke="#161616" stroke-width="0.133333"/>
<path d="M3.1602 6.99078C2.97379 7.08411 2.90046 7.29802 2.99351 7.52162C3.02461 7.59461 3.06113 7.63892 3.10736 7.6666C3.15478 7.69498 3.22041 7.71068 3.31864 7.71068C3.45348 7.71068 3.55246 7.67464 3.61745 7.61598C3.68156 7.5581 3.7205 7.47109 3.72214 7.35202C3.72211 7.29285 3.71707 7.25405 3.7064 7.22205C3.69596 7.19072 3.67863 7.16143 3.64722 7.1237C3.56546 7.02729 3.48759 6.97426 3.4117 6.95414C3.33714 6.93438 3.25545 6.94398 3.1602 6.99078Z" fill="#161616" stroke="#161616" stroke-width="0.133333"/>
<path d="M8.87433 7.11718C8.76773 7.17601 8.71821 7.31186 8.73625 7.45699C8.75429 7.60203 8.83622 7.72553 8.9552 7.7608C9.09551 7.80115 9.23351 7.71818 9.31125 7.57675C9.38879 7.43571 9.38919 7.26632 9.28324 7.15832C9.24394 7.12073 9.21834 7.10259 9.19243 7.09216C9.16649 7.08173 9.13419 7.0766 9.07723 7.07652C9.0397 7.07817 8.99684 7.08373 8.95825 7.09169C8.91783 7.10002 8.88826 7.10975 8.87433 7.11718Z" fill="#161616" stroke="#161616" stroke-width="0.133333"/>
<path d="M7.66911 8.18801L7.66912 8.18801L7.66983 8.18868C7.8163 8.3267 8.03639 8.28859 8.136 8.09522L8.1361 8.09504C8.1978 7.97616 8.18956 7.86163 8.13945 7.77834C8.08936 7.69509 7.99275 7.6352 7.86093 7.6352C7.80969 7.6352 7.75955 7.65623 7.6817 7.73408C7.60684 7.80894 7.57201 7.89317 7.57062 7.9711C7.56923 8.04848 7.60062 8.12535 7.66911 8.18801Z" fill="#161616" stroke="#161616" stroke-width="0.133333"/>
<path d="M6.63117 8.38866L6.63117 8.38866L6.63066 8.38921C6.58519 8.43752 6.57076 8.48263 6.57527 8.52547C6.58005 8.57087 6.6074 8.62628 6.67104 8.68992C6.71887 8.73775 6.74724 8.75969 6.7748 8.7718C6.80155 8.78356 6.83386 8.7888 6.89555 8.7888C6.97824 8.7888 7.02828 8.77108 7.0568 8.7475C7.083 8.72584 7.10053 8.6913 7.10053 8.63258C7.10053 8.58555 7.08307 8.5248 7.05401 8.46862C7.02472 8.41202 6.98995 8.37214 6.96408 8.3565C6.91642 8.33183 6.84781 8.32207 6.77975 8.32967C6.70958 8.33751 6.6558 8.36188 6.63117 8.38866Z" fill="#161616" stroke="#161616" stroke-width="0.133333"/>
<path d="M3.06277 8.58977L3.06276 8.58977C3.00459 8.61815 2.94969 8.67041 2.90921 8.7344C2.86867 8.79848 2.84596 8.869 2.84596 8.93036C2.84596 9.00143 2.8728 9.09057 2.91536 9.16886C2.95923 9.24958 3.0108 9.30247 3.04847 9.31798L3.04847 9.31797L3.04916 9.31827C3.10375 9.34147 3.1951 9.34937 3.29154 9.33902C3.38833 9.32864 3.47307 9.30173 3.51672 9.26998L3.51671 9.26998L3.5177 9.26928C3.5746 9.22945 3.62897 9.15702 3.66581 9.07534C3.70308 8.9927 3.71648 8.91388 3.70654 8.86361C3.68041 8.73934 3.58684 8.63909 3.46247 8.5854C3.33807 8.5317 3.18963 8.52785 3.06277 8.58977Z" fill="#161616" stroke="#161616" stroke-width="0.133333"/>
<path d="M6.85874 9.39034C6.72188 9.31077 6.61576 9.33674 6.57518 9.39739C6.5375 9.45473 6.50991 9.5294 6.49686 9.60256C6.48356 9.67714 6.487 9.74063 6.50157 9.77853C6.53615 9.86512 6.63585 9.90669 6.75198 9.88809C6.86748 9.8696 6.96407 9.79588 6.98341 9.69324C7.00691 9.5636 6.95637 9.44729 6.85866 9.39029L6.89225 9.3327L6.85874 9.39034Z" fill="#161616" stroke="#161616" stroke-width="0.133333"/>
<path d="M3.88246 10.8546L3.88253 10.8546C3.97983 10.795 4.05077 10.6791 4.07716 10.5538C4.10381 10.4273 4.08162 10.3102 4.01854 10.2432L4.01832 10.243C3.9302 10.1484 3.83538 10.0955 3.74435 10.079C3.65436 10.0626 3.56311 10.0809 3.47766 10.1377C3.39146 10.1975 3.33743 10.2509 3.30425 10.3069C3.27166 10.3617 3.25612 10.4242 3.25612 10.5075C3.25612 10.5817 3.26787 10.6407 3.29276 10.6953C3.31795 10.7505 3.35836 10.805 3.42117 10.8678C3.4319 10.8785 3.45461 10.8915 3.49239 10.9013C3.5289 10.9108 3.5737 10.9159 3.6219 10.9157C3.72005 10.9153 3.81983 10.8931 3.88246 10.8546ZM3.91733 10.9115C4.15067 10.7687 4.23425 10.3751 4.06708 10.1975L3.91733 10.9115Z" fill="#161616" stroke="#161616" stroke-width="0.133333"/>
<path d="M17.9193 10.1354L17.9193 10.1354L17.9189 10.1357C17.8467 10.1974 17.8166 10.3114 17.836 10.4285C17.8555 10.5458 17.9202 10.6415 18.0069 10.6738L18.0069 10.6738L18.0078 10.6741C18.1284 10.7211 18.2364 10.7172 18.3161 10.6805C18.3947 10.6443 18.4528 10.5734 18.4717 10.47L18.4717 10.47L18.4719 10.4695C18.4982 10.3322 18.4195 10.201 18.295 10.1265C18.1704 10.0519 18.0216 10.0467 17.9193 10.1354Z" fill="#161616" stroke="#161616" stroke-width="0.133333"/>
<path d="M17.026 11.3717L17.026 11.3717L17.0253 11.372C16.9233 11.4159 16.8502 11.5152 16.8226 11.6337C16.7951 11.7518 16.815 11.8804 16.8881 11.9771C16.9708 12.0831 17.0745 12.1402 17.1754 12.1518C17.2758 12.1633 17.3787 12.1307 17.4641 12.0468L17.4641 12.0468L17.4643 12.0466C17.5822 11.9319 17.6275 11.7974 17.6144 11.6795C17.6014 11.5624 17.5302 11.4537 17.3983 11.3883C17.3166 11.3499 17.2581 11.3324 17.2048 11.3299C17.1524 11.3275 17.0986 11.3394 17.026 11.3717Z" fill="#161616" stroke="#161616" stroke-width="0.133333"/>
<path d="M5.11796 11.8526C5.01456 11.6433 4.7519 11.55 4.47269 11.6494C4.35621 11.6921 4.27469 11.7989 4.24486 11.9368C4.21505 12.0747 4.23885 12.2378 4.32869 12.3798C4.39287 12.4804 4.43305 12.5262 4.47866 12.5512C4.52426 12.5763 4.58461 12.5857 4.70428 12.5857C4.89927 12.5857 5.04458 12.4938 5.12091 12.3602C5.19759 12.226 5.20869 12.0423 5.11796 11.8526Z" fill="#161616" stroke="#161616" stroke-width="0.133333"/>
<path d="M15.7375 12.6403C15.6586 12.6775 15.6069 12.7237 15.5737 12.7828L15.7384 13.4655C15.8749 13.5419 16.0286 13.5228 16.1514 13.4372C16.2745 13.3515 16.3636 13.2002 16.3636 13.0187C16.3636 12.7159 16.0275 12.5062 15.7375 12.6403Z" fill="#161616" stroke="#161616" stroke-width="0.133333"/>
<path d="M5.8571 12.9059L5.8571 12.9059L5.85619 12.9064C5.7117 12.9811 5.6251 13.0752 5.58746 13.1794C5.54993 13.2832 5.55722 13.4077 5.62163 13.5511C5.66355 13.6429 5.71274 13.7053 5.76845 13.7449C5.8235 13.7841 5.8896 13.8044 5.97185 13.8044C6.15606 13.8044 6.29317 13.7421 6.39765 13.6161L6.39765 13.6161L6.39789 13.6158C6.44367 13.5612 6.45811 13.5388 6.46483 13.5119C6.47246 13.4814 6.47163 13.4393 6.46268 13.3408L6.46266 13.3406C6.45269 13.2276 6.43084 13.1514 6.39335 13.0915C6.35604 13.032 6.29914 12.9821 6.20694 12.9295L6.20693 12.9295L6.20627 12.9291C6.13084 12.8848 6.07341 12.865 6.0223 12.8619C5.97229 12.859 5.92107 12.8716 5.8571 12.9059Z" fill="#161616" stroke="#161616" stroke-width="0.133333"/>
<path d="M14.5402 13.9157L14.5396 13.916C14.5236 13.9246 14.4957 13.9475 14.4637 13.9824C14.4329 14.016 14.4028 14.0558 14.3812 14.0928L14.3812 14.0928L14.3811 14.0931C14.2617 14.2957 14.2915 14.499 14.3881 14.6212C14.4365 14.6825 14.5015 14.7236 14.5747 14.7371C14.6473 14.7504 14.7331 14.7374 14.8251 14.6815C15.0215 14.5603 15.142 14.3732 15.145 14.215C15.1463 14.0924 15.0648 13.9827 14.9408 13.9197C14.817 13.8569 14.6638 13.848 14.5402 13.9157ZM14.5082 13.8572C14.456 13.8851 14.3724 13.9756 14.3236 14.0592L14.5082 13.8572Z" fill="#161616" stroke="#161616" stroke-width="0.133333"/>
<path d="M7.86454 14.6997L7.86454 14.6997L7.86491 14.6993C7.95142 14.6099 7.98376 14.4745 7.96111 14.3378C7.9385 14.2014 7.86243 14.0734 7.74554 14.0015L7.74554 14.0015L7.74514 14.0012C7.68658 13.9646 7.59333 13.9361 7.49619 13.9233C7.39893 13.9104 7.31174 13.9152 7.2623 13.9333C7.24913 13.9394 7.22376 13.9574 7.19272 13.9877C7.16228 14.0173 7.13165 14.0535 7.10857 14.0889C7.00008 14.258 6.99921 14.4581 7.07296 14.6161C7.14659 14.7738 7.29161 14.8845 7.474 14.8845C7.553 14.8845 7.61793 14.8712 7.67816 14.8429C7.73894 14.8144 7.79858 14.769 7.86454 14.6997ZM7.23718 13.8715C7.18843 13.8924 7.10484 13.9725 7.0526 14.0526C6.80882 14.4323 7.04912 14.9512 7.474 14.9512C7.64814 14.9512 7.77351 14.892 7.91282 14.7457C8.12178 14.5298 8.05213 14.1119 7.78048 13.9447C7.64117 13.8576 7.36604 13.8228 7.23718 13.8715Z" fill="#161616" stroke="#161616" stroke-width="0.133333"/>
<path d="M9.79974 15.0663C9.82063 15.2823 9.7266 15.4773 9.53854 15.6027L9.79974 15.0663ZM9.79974 15.0663C9.77884 14.84 9.68829 14.7007 9.48978 14.6066L9.79974 15.0663ZM8.9907 14.6625L8.9907 14.6625L8.98978 14.663C8.9061 14.704 8.85247 14.7517 8.8185 14.8112C8.78404 14.8716 8.76589 14.9511 8.76589 15.0629C8.76589 15.2725 8.87455 15.4469 9.02179 15.5418C9.16858 15.6365 9.34922 15.6503 9.50119 15.5475L9.50156 15.5472C9.66995 15.4349 9.75182 15.2633 9.73338 15.0728L9.73335 15.0725C9.72359 14.9667 9.69809 14.8869 9.65595 14.8239C9.61403 14.7612 9.55224 14.71 9.46124 14.6669L9.46124 14.6669L9.46086 14.6667C9.37337 14.6246 9.29511 14.6044 9.22051 14.6036C9.14623 14.6029 9.07146 14.6214 8.9907 14.6625Z" fill="#161616" stroke="#161616" stroke-width="0.133333"/>
<path d="M12.7805 14.6939L12.7805 14.694C12.6629 14.7652 12.5942 14.8656 12.5724 14.9767C12.5505 15.0884 12.5748 15.2175 12.656 15.3465C12.7382 15.4755 12.833 15.5451 12.9314 15.5675C13.0298 15.59 13.1441 15.5682 13.271 15.4896C13.4601 15.3676 13.5534 15.1815 13.5331 15.018C13.5143 14.8761 13.4002 14.7521 13.2452 14.6846C13.0905 14.6172 12.9123 14.614 12.7805 14.6939Z" fill="#161616" stroke="#161616" stroke-width="0.133333"/>
<path d="M10.7398 15.5365L10.7399 15.5369C10.8202 15.6958 10.9338 15.785 11.0512 15.8115C11.1678 15.8377 11.3007 15.8049 11.4269 15.6946C11.5434 15.5909 11.6053 15.4801 11.62 15.3721C11.6346 15.2648 11.6041 15.1516 11.5189 15.0397C11.4435 14.9406 11.3526 14.8818 11.2574 14.8596C11.1624 14.8375 11.0576 14.8507 10.9518 14.905C10.7102 15.0355 10.6218 15.3067 10.7398 15.5365Z" fill="#161616" stroke="#161616" stroke-width="0.133333"/>
</svg>
