<svg width="22" height="23" viewBox="0 0 22 23" fill="none" xmlns="http://www.w3.org/2000/svg">
<path d="M10.406 0.666136C9.00251 0.812408 8.17363 1.02137 6.89201 1.54028C5.56512 2.07661 4.52729 2.76618 3.44767 3.82839C1.99888 5.24931 1.14563 6.60058 0.529198 8.42898C0.212276 9.37278 -0.0315096 11.0201 0.00331698 11.9813C0.0242129 12.5281 0.128693 13.437 0.226207 13.8793C0.776467 16.4461 2.40983 18.8317 4.69446 20.4058C5.29696 20.8203 5.47109 20.9213 6.10493 21.2382C6.87808 21.6248 7.63034 21.8825 8.51842 22.0671C9.65724 22.3004 11.4787 22.3387 12.6001 22.1472C13.4464 22.0044 14.3728 21.7467 15.0693 21.4541C15.32 21.3496 16.1141 20.9596 16.3579 20.8203C16.6295 20.6636 17.4793 20.075 17.7022 19.8904C18.0296 19.6222 18.7853 18.8665 19.0012 18.5983C20.4291 16.8291 21.1431 15.3246 21.46 13.4266C21.7699 11.5494 21.4983 9.30313 20.7286 7.44339C20.4813 6.84785 20.4221 6.79213 20.039 6.80606C19.9729 6.80954 19.8963 6.85482 19.8057 6.94537C19.6002 7.15084 19.6107 7.29015 19.8997 8.02151C20.3316 9.11158 20.5614 10.2504 20.5963 11.4415C20.6485 13.1306 20.255 14.8022 19.4679 16.2301C19.2346 16.6515 18.7017 17.4386 18.3709 17.8496C17.7579 18.6123 16.7828 19.4551 15.9713 19.9252C15.024 20.4755 13.8817 20.9213 12.9379 21.1059C11.4438 21.3949 10.5209 21.4054 8.9433 21.1407C6.79798 20.7854 4.73277 19.5909 3.27353 17.867C2.08943 16.4704 1.35459 14.8789 1.08294 13.1132C0.988909 12.5037 0.999357 11.0758 1.10035 10.4036C1.32324 8.91655 1.73768 7.8021 2.56655 6.44386C3.79245 4.43437 5.95866 2.75921 8.14229 2.12885C8.98857 1.88158 9.807 1.73183 10.406 1.70397C10.9981 1.67959 11.0364 1.67262 11.1966 1.53332C11.5483 1.23381 11.3951 0.732307 10.9284 0.638275C10.8797 0.627827 10.6463 0.641758 10.406 0.666136Z" fill="#A59FB9"/>
<path d="M17.4566 0.662036C17.399 0.674996 17.1384 0.733318 16.8808 0.7884C16.1685 0.943924 15.0684 1.20313 14.5925 1.32626C14.3592 1.38782 13.9894 1.48178 13.7682 1.53362C13.0377 1.70859 13.0196 1.79931 13.5984 2.40197L13.953 2.7681L13.8318 2.90094C13.6742 3.07591 13.0105 3.6008 12.7286 3.77901C12.4619 3.94425 12.174 4.08682 11.9588 4.15486C11.8315 4.19374 11.4466 4.2067 9.87968 4.22614C7.80361 4.24882 7.89756 4.24234 7.43992 4.43675C6.47007 4.85148 5.62146 5.53514 4.93044 6.46181C4.81831 6.61409 4.70314 6.76637 4.67889 6.80202C4.57585 6.9381 4.30611 7.39819 4.21822 7.58288C4.10002 7.83237 4 8.18554 4 8.34754C4 8.43826 4.02122 8.49658 4.07577 8.55167C4.22428 8.71367 4.31823 8.64239 4.46674 8.25358C4.6698 7.71896 4.79406 7.50512 5.25474 6.89598C5.9609 5.97255 6.90347 5.23057 7.79149 4.90008L8.07638 4.7964L9.50084 4.78668C11.5405 4.77696 11.9588 4.76076 12.1922 4.67651C12.571 4.54043 13.2469 4.13542 13.5439 3.86973C14.6289 2.88798 14.6077 2.91066 14.6077 2.8329C14.6077 2.8005 14.5622 2.70006 14.5046 2.61257C14.3743 2.40521 14.2106 2.0812 14.2258 2.06176C14.2561 2.02936 15.7169 1.66971 16.0321 1.61786C16.1079 1.6049 16.3261 1.55306 16.5201 1.50122C16.902 1.39754 17.3414 1.30681 17.3626 1.3295C17.3808 1.3457 17.2354 2.90094 17.1414 3.74013C17.102 4.08682 17.0596 4.46915 17.0474 4.58903C17.0384 4.71215 17.0141 4.80936 17.002 4.80936C16.9747 4.80936 16.7777 4.63115 16.3534 4.21318C16.1594 4.02525 16.1109 3.99609 16.0473 4.01229C16.0049 4.02525 15.8351 4.16782 15.6745 4.33306C15.3017 4.71215 14.8986 5.09773 14.8107 5.15929C14.7744 5.18845 14.6228 5.32129 14.4713 5.46062C14.0621 5.83323 13.9409 5.92395 13.6439 6.08919C13.3469 6.2512 12.9892 6.37432 12.6407 6.43264C12.3801 6.47477 11.389 6.4294 10.6525 6.34192C9.9797 6.26092 8.21882 6.26092 7.93999 6.34192C7.67632 6.41644 7.39749 6.56549 7.28838 6.68861L7.20049 6.78905L7.25504 6.89922C7.28838 6.96078 7.34293 7.0353 7.38233 7.06122C7.4672 7.11954 7.60358 7.09362 7.92484 6.95754L8.13699 6.86682L9.31899 6.87006C10.2767 6.87006 10.598 6.88302 11.0162 6.93486C11.3405 6.97374 11.7285 6.99642 12.0618 6.99318C12.5225 6.99318 12.6377 6.98022 12.9408 6.9057C13.5136 6.76637 13.8985 6.58493 14.3955 6.22204C14.6289 6.05031 15.4624 5.31157 15.8321 4.94868C15.9473 4.83528 16.0564 4.74455 16.0776 4.74455C16.114 4.74455 16.2837 4.92924 16.6019 5.31805C16.8171 5.5805 17.0474 5.72954 17.1808 5.6939C17.3323 5.65502 17.4233 5.55782 17.4687 5.38285C17.5657 5.01348 17.8112 3.11155 17.9082 1.99047C17.9264 1.78635 17.9567 1.46234 17.9779 1.27441C18.0112 0.956884 18.0082 0.921244 17.9597 0.840241C17.9051 0.752759 17.693 0.629635 17.6081 0.632875C17.5839 0.636115 17.5142 0.649076 17.4566 0.662036Z" fill="#A59FB9"/>
<path d="M5.53633 5.68242C5.0976 5.78072 4.55389 6.18147 4.2689 6.62003C4.20516 6.71833 4.11516 6.93761 4.07016 7.11152C3.99892 7.36861 3.99142 7.48581 4.00642 7.79961C4.02892 8.25707 4.07016 8.39696 4.25015 8.66539C4.49764 9.0359 4.73762 9.25518 5.06386 9.41018C5.22885 9.48958 5.44258 9.57275 5.53258 9.59166C5.81756 9.65971 6.26004 9.64081 6.51502 9.55385C7.13748 9.34213 7.50871 9.04346 7.74495 8.55953C8.08993 7.85254 8.08618 7.20604 7.7262 6.62381C7.24998 5.85255 6.41003 5.49339 5.53633 5.68242ZM6.60126 6.44234C6.83 6.55576 7.07749 6.81285 7.21623 7.08128C7.47871 7.59167 7.32122 8.2722 6.8525 8.68051C6.51127 8.97918 6.14379 9.0548 5.61132 8.93004C5.03761 8.80149 4.73013 8.4272 4.63263 7.74668C4.57638 7.3308 4.70763 6.93383 4.97386 6.70321C5.12385 6.57845 5.48383 6.39319 5.67507 6.34404C5.93005 6.27977 6.36128 6.32514 6.60126 6.44234Z" fill="#A59FB9"/>
<path d="M16.5626 8.02555C16.4198 8.12176 16.3177 8.32293 16.344 8.45412C16.3819 8.66404 16.618 8.85938 16.8338 8.85938C17.0553 8.85938 17.2915 8.56783 17.2536 8.34042C17.204 8.02263 16.8221 7.85062 16.5626 8.02555Z" fill="#A59FB9"/>
<path d="M2.89798 8.38915C2.82218 8.45912 2.80469 8.49994 2.80469 8.59906C2.80469 8.70985 2.81343 8.72151 2.90965 8.76233C3.07874 8.8323 3.21286 8.80606 3.29157 8.68944C3.32948 8.63405 3.35863 8.57282 3.35863 8.55241C3.35863 8.4737 3.20119 8.33375 3.09624 8.31918C3.00877 8.3046 2.9767 8.31626 2.89798 8.38915Z" fill="#A59FB9"/>
<path d="M11.9893 9.0688C11.8406 9.17085 11.7706 9.28163 11.7735 9.41575C11.7794 9.57027 11.8552 9.67231 12.0272 9.75977C12.1642 9.82683 12.17 9.82683 12.2954 9.77727C12.5403 9.68689 12.6453 9.38368 12.5053 9.17668C12.3829 8.99592 12.1642 8.94927 11.9893 9.0688Z" fill="#A59FB9"/>
<path d="M14.7413 10.0573C14.6451 10.0952 14.5547 10.2293 14.5547 10.3313C14.5547 10.5325 14.89 10.7133 15.0766 10.6112C15.2165 10.5383 15.2952 10.3051 15.2252 10.171C15.1611 10.0515 14.9045 9.99024 14.7413 10.0573Z" fill="#A59FB9"/>
<path d="M2.42376 10.1183C2.23134 10.2758 2.23426 10.5236 2.42959 10.6256C2.69199 10.7597 2.9398 10.4245 2.75904 10.1796C2.68907 10.0863 2.5054 10.0542 2.42376 10.1183Z" fill="#A59FB9"/>
<path d="M16.2382 10.1603C16.0807 10.2448 16.0516 10.4314 16.1711 10.5743C16.4014 10.8513 16.8767 10.5714 16.7105 10.2565C16.6405 10.1253 16.3927 10.0757 16.2382 10.1603Z" fill="#A59FB9"/>
<path d="M17.3421 10.2034C17.1847 10.3259 17.1351 10.53 17.2226 10.6962C17.2838 10.8157 17.3771 10.8711 17.5199 10.8711C17.6774 10.8711 17.8319 10.7428 17.8844 10.5766C17.9106 10.4804 17.9106 10.4454 17.8698 10.3609C17.7736 10.1597 17.5024 10.0781 17.3421 10.2034Z" fill="#A59FB9"/>
<path d="M18.8422 10.3023C18.7372 10.4161 18.7227 10.4481 18.7227 10.5706C18.7256 10.728 18.7751 10.8067 18.9209 10.8825C19.1746 11.0137 19.4807 10.8563 19.4807 10.5939C19.4807 10.3898 19.2649 10.1712 19.0667 10.1712C18.9821 10.1712 18.9413 10.1945 18.8422 10.3023Z" fill="#A59FB9"/>
<path d="M4.81048 9.6748C4.42794 9.77731 3.95635 10.099 3.61339 10.4878C3.16489 11.0039 3.05606 11.4068 3.01319 12.7324C3 13.1883 2.9967 13.5878 3.0033 13.6231C3.01979 13.6832 3.05606 13.6903 3.28031 13.6903H3.54083V13.3615C3.54083 13.1848 3.55732 12.7217 3.57381 12.3365C3.60349 11.6967 3.61668 11.6118 3.69913 11.3821C3.75189 11.2407 3.85742 11.0357 3.93327 10.9261C4.09486 10.6963 4.43783 10.4312 4.65548 10.3641C4.7808 10.3252 4.80058 10.3287 4.84346 10.3888C4.86654 10.4242 4.89952 10.4949 4.90941 10.5408C4.94569 10.6963 5.03473 10.7953 5.29525 10.9756C5.69098 11.2478 5.71077 11.3043 5.56567 11.7497C5.45684 12.0926 5.12377 13.5489 5.12377 13.6867C5.12377 13.7751 5.15345 13.8211 5.28206 13.9271C5.3678 14.0013 5.52609 14.1675 5.63162 14.3018C5.86576 14.5952 6.00427 14.68 6.12959 14.6093C6.17576 14.5846 6.30107 14.4573 6.4066 14.3265C6.51543 14.1957 6.68031 14.0296 6.76935 13.9518C6.90786 13.8423 6.93754 13.7963 6.93754 13.7079C6.93754 13.5948 6.77265 12.8278 6.7067 12.6511C6.62755 12.4284 6.44288 11.5836 6.44288 11.4457C6.44288 11.3078 6.45936 11.2831 6.71659 11.018C7.02658 10.6999 7.11232 10.5832 7.11232 10.456C7.11232 10.3499 7.16509 10.3429 7.36295 10.4206C7.81145 10.5903 8.24016 11.1453 8.35558 11.7108C8.37867 11.8169 8.40505 12.3046 8.41824 12.796C8.42813 13.2838 8.44462 13.6903 8.45452 13.7009C8.49079 13.7362 8.97556 13.7645 8.99535 13.7327C9.00525 13.715 8.99865 13.2484 8.98216 12.697C8.94918 11.5411 8.90961 11.3043 8.67547 10.8695C8.44133 10.4242 7.90709 9.95758 7.4487 9.79144C6.9936 9.62531 6.91446 9.61471 6.53521 9.6748C6.1065 9.74549 5.813 9.74549 5.47003 9.67833C5.15345 9.61824 5.02813 9.61824 4.81048 9.6748ZM6.48904 10.258L6.64734 10.3323L6.50553 10.4595C6.33735 10.608 6.24831 10.6504 6.09661 10.6504C5.93502 10.6504 5.84928 10.5974 5.72066 10.4171C5.56237 10.1944 5.62173 10.152 6.06693 10.1697C6.24501 10.1803 6.38352 10.205 6.48904 10.258ZM6.16916 12.7712C6.21863 12.9268 6.24171 13.0894 6.24501 13.2696C6.24501 13.5206 6.23841 13.5453 6.16256 13.5984C6.05044 13.6761 5.99768 13.6691 5.91853 13.563C5.83938 13.457 5.83279 13.3014 5.88225 12.948C5.9548 12.4566 6.05044 12.3966 6.16916 12.7712Z" fill="#A59FB9"/>
<path d="M12.536 11.2811C12.2765 11.3481 12.0549 11.5289 11.9324 11.7767C11.8771 11.8846 11.8625 11.972 11.8508 12.249C11.8392 12.5755 11.8333 12.593 11.775 12.593C11.7429 12.5959 11.3843 12.6076 10.9849 12.6193C10.154 12.6484 10.0403 12.6747 9.84496 12.8904C9.65254 13.1061 9.66128 12.975 9.66128 15.4181C9.65837 17.8788 9.64671 17.7097 9.85662 17.9954C10.0578 18.2666 9.78082 18.2462 13.0986 18.252L16.0287 18.2578L16.1803 18.1908C16.3465 18.1208 16.5214 17.9488 16.5856 17.7972C16.6176 17.7184 16.6235 17.3044 16.6176 15.4444L16.6118 13.1907L16.5477 13.0682C16.466 12.9196 16.2707 12.7534 16.1045 12.6951C16.0025 12.6601 15.0112 12.5959 14.5214 12.593C14.4777 12.593 14.4689 12.5639 14.4689 12.4093C14.4689 12.144 14.4194 11.8467 14.3552 11.7213C14.2823 11.5813 14.0899 11.4064 13.9179 11.3306C13.8013 11.2781 13.7167 11.2694 13.2153 11.2636C12.9033 11.2577 12.5972 11.2665 12.536 11.2811ZM13.7634 11.8233C13.8829 11.905 13.915 12.0158 13.915 12.3306V12.628L13.1657 12.6047C12.7517 12.5959 12.4048 12.5784 12.3931 12.5726C12.3494 12.5493 12.3669 12.0391 12.4164 11.9487C12.4922 11.8 12.5884 11.7796 13.1715 11.7767C13.603 11.7767 13.7109 11.7854 13.7634 11.8233ZM15.8305 13.1353C15.8859 13.144 15.9558 13.1878 16.0112 13.2519L16.1016 13.354V14.1032C16.1016 14.8467 16.1016 14.8554 16.0316 14.9575C15.9296 15.1062 15.6963 15.2111 15.4106 15.2345C15.2823 15.2461 14.9237 15.2432 14.6089 15.2315L14.0374 15.2111L14.0258 15.0333C14.0141 14.8904 13.9995 14.8467 13.9383 14.7942C13.8654 14.7301 13.8479 14.7301 13.1424 14.7359C12.5418 14.7417 12.4164 14.7505 12.3785 14.7884C12.3494 14.8175 12.329 14.9108 12.3173 15.042L12.3027 15.2519L11.498 15.2403C10.5797 15.2286 10.5447 15.2199 10.2998 14.9691L10.1686 14.835V14.0653V13.2957L10.2531 13.2082L10.3406 13.1178L11.7983 13.112C13.5505 13.1003 15.7022 13.1149 15.8305 13.1353ZM13.5301 15.6018L13.5214 15.9604H13.1657C12.9704 15.9604 12.8042 15.9517 12.7925 15.9429C12.7838 15.9313 12.7721 15.7709 12.7692 15.5843L12.7634 15.2461H13.1511H13.5389L13.5301 15.6018ZM10.3377 15.596C10.5097 15.7184 10.6934 15.7417 11.5622 15.7417H12.2823V15.9371C12.2823 16.424 12.3319 16.4531 13.1191 16.4823C13.7284 16.5056 13.7663 16.4969 13.915 16.3394C13.9791 16.2724 13.9879 16.2286 14.0024 15.9954L14.017 15.7272L14.8188 15.7243C15.6643 15.7213 15.7838 15.7068 15.9996 15.5814L16.1162 15.5143L16.1249 16.561L16.1366 17.6047L16.0608 17.6805C15.9996 17.7418 15.9587 17.7534 15.8188 17.7534C15.7255 17.7563 14.466 17.7563 13.017 17.7534C10.1336 17.7534 10.2473 17.7593 10.1802 17.5843C10.1453 17.4969 10.1657 15.5085 10.2006 15.5085C10.2065 15.5085 10.2677 15.5493 10.3377 15.596Z" fill="#A59FB9"/>
<path d="M17.3988 11.8934C17.2064 12.0625 17.2006 12.2607 17.3813 12.389C17.702 12.6164 18.0956 12.319 17.9207 11.9808C17.8216 11.7913 17.565 11.7505 17.3988 11.8934Z" fill="#A59FB9"/>
<path d="M19.0193 11.8799C18.9698 11.9207 18.9144 12.0052 18.8969 12.0665C18.8561 12.2006 18.9027 12.2968 19.0543 12.3872C19.1972 12.4746 19.343 12.463 19.4683 12.3551C19.5908 12.2443 19.6024 12.1248 19.5033 11.9761C19.3779 11.7895 19.1739 11.7487 19.0193 11.8799Z" fill="#A59FB9"/>
<path d="M17.5472 14.0244C17.3869 14.1527 17.5035 14.4297 17.7222 14.4297C17.9467 14.4297 18.0196 14.1294 17.8242 14.0128C17.7134 13.9486 17.6405 13.9486 17.5472 14.0244Z" fill="#A59FB9"/>
<path d="M17.5269 15.529C17.3986 15.6339 17.3723 15.7214 17.4219 15.8438C17.4656 15.9459 17.6172 16.0625 17.7076 16.0625C17.7834 16.0625 17.9292 15.9255 17.9642 15.8147C17.9904 15.736 17.9875 15.6981 17.9525 15.6281C17.8534 15.4415 17.6785 15.3978 17.5269 15.529Z" fill="#A59FB9"/>
<path d="M4.62026 16.1071C4.4599 16.2179 4.48031 16.387 4.66107 16.4365C4.81559 16.4803 4.93513 16.4074 4.93513 16.2733C4.93513 16.1275 4.73979 16.0225 4.62026 16.1071Z" fill="#A59FB9"/>
<path d="M6.54697 17.1255C6.18837 17.28 6.31665 17.8602 6.70732 17.8515C6.9843 17.8456 7.17089 17.4608 7.00179 17.245C6.87934 17.0905 6.7219 17.0497 6.54697 17.1255Z" fill="#A59FB9"/>
<path d="M4.74337 17.1337C4.66466 17.1833 4.58594 17.3641 4.58594 17.4953C4.58594 17.6148 4.60051 17.6469 4.68798 17.7343C4.81335 17.8597 4.94454 17.9034 5.06408 17.8568C5.23318 17.7897 5.31189 17.4894 5.20694 17.3145C5.12239 17.1687 4.85125 17.0609 4.74337 17.1337Z" fill="#A59FB9"/>
<path d="M8.10883 17.1777C8.05343 17.2127 7.98638 17.2943 7.95431 17.3555C7.8785 17.5071 7.92223 17.6558 8.07676 17.7608C8.25752 17.8861 8.3479 17.892 8.47618 17.7783C8.72108 17.5625 8.70067 17.2943 8.42661 17.1514C8.31583 17.0931 8.22253 17.1019 8.10883 17.1777Z" fill="#A59FB9"/>
<path d="M6.54835 18.6676C6.46963 18.7463 6.44922 18.79 6.44922 18.8833C6.44922 19.0349 6.55709 19.1661 6.71453 19.2157C6.81657 19.2448 6.83989 19.2419 6.90695 19.1924C7.16351 18.9999 7.16643 18.7405 6.90987 18.6093C6.77284 18.5393 6.65913 18.5568 6.54835 18.6676Z" fill="#A59FB9"/>
<path d="M8.08451 18.6427C7.90667 18.806 7.95331 19.048 8.18947 19.1879C8.27985 19.2375 8.2886 19.2404 8.38772 19.1908C8.74633 19.0217 8.69968 18.6106 8.32067 18.5727C8.1953 18.5611 8.16615 18.5698 8.08451 18.6427Z" fill="#A59FB9"/>
</svg>
