<svg width="23" height="23" viewBox="0 0 23 23" fill="none" xmlns="http://www.w3.org/2000/svg">
<path d="M12.5494 15.0685C10.1429 21.6681 3.40648 15.0685 1 21.6681M15.1743 15.0685H16.7503C19.225 15.0685 20.4629 15.0685 21.2314 14.2633C22 13.4582 22 12.1613 22 9.56876V7.36887C22 4.7763 22 3.47946 21.2314 2.6743C20.4629 1.86914 19.2271 1.86914 16.7503 1.86914H12.5505C10.0757 1.86914 8.83891 1.86914 8.07035 2.6743C7.41938 3.35627 7.31858 4.39131 7.30388 6.26892" stroke="#A59FB9" stroke-width="2" stroke-linecap="round" stroke-linejoin="round"/>
<path d="M6.77331 15.0681C8.22298 15.0681 9.39818 13.8369 9.39818 12.3182C9.39818 10.7995 8.22298 9.56836 6.77331 9.56836C5.32363 9.56836 4.14844 10.7995 4.14844 12.3182C4.14844 13.8369 5.32363 15.0681 6.77331 15.0681Z" stroke="#A59FB9" stroke-width="2" stroke-linecap="round" stroke-linejoin="round"/>
<path d="M11.5 6.26953H17.7997M17.7997 10.6693H14.6498" stroke="#A59FB9" stroke-width="2" stroke-linecap="round" stroke-linejoin="round"/>
</svg>
