<svg width="23" height="22" viewBox="0 0 23 22" fill="none" xmlns="http://www.w3.org/2000/svg">
<path d="M12.5494 14.1993C10.1429 20.799 3.40648 14.1993 1 20.799M15.1743 14.1993H16.7503C19.225 14.1993 20.4629 14.1993 21.2314 13.3942C22 12.589 22 11.2922 22 8.69961V6.49972C22 3.90715 22 2.61032 21.2314 1.80516C20.4629 1 19.2271 1 16.7503 1H12.5505C10.0757 1 8.83891 1 8.07035 1.80516C7.41938 2.48713 7.31858 3.52217 7.30388 5.39978" stroke="#161616" stroke-width="2" stroke-linecap="round" stroke-linejoin="round"/>
<path d="M6.77331 14.1989C8.22298 14.1989 9.39818 12.9678 9.39818 11.4491C9.39818 9.93037 8.22298 8.69922 6.77331 8.69922C5.32363 8.69922 4.14844 9.93037 4.14844 11.4491C4.14844 12.9678 5.32363 14.1989 6.77331 14.1989Z" stroke="#161616" stroke-width="2" stroke-linecap="round" stroke-linejoin="round"/>
<path d="M11.5 5.40039H17.7997M17.7997 9.80017H14.6498" stroke="#161616" stroke-width="2" stroke-linecap="round" stroke-linejoin="round"/>
</svg>
