<svg width="678" height="620" viewBox="0 0 678 620" fill="none" xmlns="http://www.w3.org/2000/svg">
  <path d="M17.9222 -29.0404C125.32 -29.393 326.095 35.7289 270.013 299.037C199.91 628.173 78.4108 713.293 212.636 877.728C320.016 1009.28 186.482 1278.49 106.293 1396.65M34.7765 -37.6469C142.144 -37.9117 342.881 27.3186 286.892 290.358C216.906 619.158 95.466 704.106 229.702 868.512C337.09 1000.04 203.673 1268.91 123.541 1386.91M52.0251 -47.389C159.573 -47.4804 360.686 18.1109 304.756 281.208C234.844 610.078 113.249 694.878 247.806 859.593C355.452 991.364 221.968 1260.17 141.77 1378.11M70.348 -56.2295C177.685 -56.4065 378.385 8.93223 322.489 271.703C252.619 600.167 131.239 684.944 265.485 849.319C372.881 980.819 239.581 1249.36 159.507 1367.19M87.99 -67.1074C195.357 -67.3722 396.095 -2.1419 340.106 260.898C270.119 589.697 148.68 674.646 282.915 839.051C390.304 970.575 256.887 1239.45 176.755 1357.45M105.239 -76.8501C212.606 -77.1149 413.343 -11.8846 357.354 251.155C287.368 579.955 165.928 664.903 300.164 829.308C407.552 960.833 274.135 1229.71 194.003 1347.7M122.453 -86.4949C229.851 -86.8475 430.626 -21.7255 374.544 241.583C304.441 570.719 182.942 655.838 317.167 820.273C424.547 951.822 291.014 1221.03 210.824 1339.19M139.735 -96.3351C247.103 -96.5999 447.84 -31.3696 391.851 231.67C321.865 560.47 200.425 645.418 334.661 809.823C442.049 941.348 308.632 1210.22 228.5 1328.22M156.95 -105.98C264.348 -106.332 465.123 -41.2101 409.041 222.098C338.938 551.234 217.439 636.354 351.664 800.789C459.044 932.337 325.51 1201.55 245.321 1319.71M173.839 -114.684C281.176 -114.861 481.876 -49.5225 425.98 213.248C356.11 541.712 234.73 626.489 368.976 790.864C476.373 922.365 343.073 1190.9 262.998 1308.73M191.481 -125.562C299.029 -125.653 500.142 -60.0616 444.212 203.035C374.3 531.906 252.705 616.706 387.263 781.42C494.908 913.192 361.424 1182 281.226 1299.93M209.77 -134.304C317.137 -134.569 517.874 -69.3385 461.885 193.701C391.899 522.501 270.459 607.449 404.695 771.855C512.083 903.379 378.666 1172.25 298.534 1290.25M227.019 -144.047C334.386 -144.312 535.123 -79.0816 479.134 183.958C409.148 512.758 287.708 597.706 421.944 762.111C529.332 893.636 395.915 1162.51 315.783 1280.51M244.267 -153.789C351.634 -154.054 552.372 -88.824 496.383 174.216C426.396 503.015 304.957 587.964 439.192 752.369C546.581 883.893 413.164 1152.77 333.032 1270.76M261.482 -163.434C368.879 -163.787 569.654 -98.6647 513.572 164.644C443.469 493.779 321.97 578.899 456.195 743.334C563.575 874.883 430.042 1144.09 349.852 1262.26M279.158 -174.41C386.556 -174.763 587.331 -109.641 531.248 153.668C461.146 482.804 339.647 567.923 473.872 732.358C581.252 863.907 447.718 1133.12 367.529 1251.28M296.013 -183.017C403.38 -183.282 604.118 -118.052 548.129 144.988C478.142 473.788 356.703 558.736 490.938 723.141C598.327 854.666 464.91 1123.54 384.778 1241.54M313.261 -192.759C420.628 -193.024 621.365 -127.793 565.376 135.246C495.39 464.046 373.95 548.995 508.186 713.4C615.574 844.924 482.157 1113.8 402.025 1231.79M330.509 -202.502C438.057 -202.593 639.17 -137.002 583.24 126.095C513.328 454.965 391.734 539.765 526.291 704.48C633.937 836.251 500.452 1105.06 420.254 1222.99M348.764 -211.145C456.162 -211.498 656.937 -146.376 600.854 116.933C530.752 446.068 409.253 531.188 543.478 695.623C650.858 827.171 517.324 1096.38 437.135 1214.54M366.081 -221.084C473.418 -221.261 674.118 -155.922 618.222 106.849C548.352 435.312 426.971 520.09 561.217 684.465C668.614 815.965 535.314 1084.5 455.24 1202.33M383.689 -231.864C491.087 -232.216 691.862 -167.094 635.779 96.2143C565.676 425.35 444.177 510.469 578.403 674.905C685.783 806.453 552.249 1075.66 472.06 1193.83M400.544 -240.471C507.911 -240.736 708.648 -175.505 652.659 87.5342C582.673 416.334 461.233 501.282 595.469 665.688C702.857 797.212 569.44 1066.09 489.308 1184.08M417.792 -250.212C525.159 -250.477 725.896 -185.247 669.907 77.7929C599.921 406.592 478.481 491.541 612.717 655.946C720.105 787.47 586.688 1056.34 506.556 1174.34M435.04 -259.956C542.408 -260.22 743.145 -194.99 687.156 68.0496C617.17 396.849 495.73 481.798 629.966 646.203C737.354 777.727 603.937 1046.6 523.805 1164.6M452.289 -269.698C559.656 -269.962 760.394 -204.732 704.405 58.3075C634.418 387.107 512.979 472.056 647.214 636.461C754.603 767.985 621.186 1036.86 541.054 1154.86M469.571 -279.538C577.089 -279.541 778.164 -213.841 722.327 48.9864C652.531 377.521 530.997 462.15 665.564 626.834C773.218 758.582 639.851 1027.05 559.71 1144.82M488.221 -289.319C595.619 -289.672 796.394 -224.55 740.311 38.7589C670.208 367.894 548.709 453.014 682.935 617.449C790.315 748.998 656.781 1018.21 576.591 1136.37M505.503 -299.158C612.87 -299.423 813.607 -234.193 757.618 28.8471C687.632 357.647 566.192 442.595 700.428 607C807.816 738.525 674.399 1007.4 594.267 1125.4M522.718 -308.804C630.115 -309.156 830.89 -244.034 774.808 19.2742C704.705 348.41 583.206 433.529 717.431 597.965C824.811 729.513 691.278 998.724 611.088 1116.89M0.707731 -19.3962C108.075 -19.661 308.813 45.5693 252.823 308.609C182.837 637.408 61.3972 722.357 195.633 886.762C303.021 1018.29 169.605 1287.16 89.4725 1405.16M539.571 -317.409C646.939 -317.674 847.676 -252.444 791.687 10.5961C721.701 339.396 600.261 424.344 734.497 588.749C841.885 720.274 708.468 989.148 628.336 1107.14" stroke="url(#paint0_linear_1268_4458)"/>
  <defs>
    <linearGradient id="paint0_linear_1268_4458" x1="801.503" y1="-180.802" x2="438.179" y2="197.124" gradientUnits="userSpaceOnUse">
      <stop stop-color="white"/>
      <stop offset="1" stop-color="#6C27FF"/>
    </linearGradient>
  </defs>
</svg>
