<svg width="170" height="32" viewBox="0 0 170 32" fill="none" xmlns="http://www.w3.org/2000/svg">
<path d="M10.449 6.19355C13.3299 6.19355 15.7149 7.12258 17.604 8.98064C19.5167 10.8387 20.473 13.1785 20.473 16C20.473 18.8215 19.5167 21.1728 17.604 23.0538C15.6913 24.9118 13.3063 25.8409 10.449 25.8409C8.48911 25.8409 6.72989 25.3247 5.17139 24.2925V32H0V6.70968H3.43579L4.3213 8.3957C6.02148 6.9276 8.06406 6.19355 10.449 6.19355ZM6.26942 19.6473C7.2612 20.6108 8.50091 21.0925 9.98857 21.0925C11.4998 21.0925 12.7514 20.6108 13.7431 19.6473C14.7349 18.6839 15.2308 17.4681 15.2308 16C15.2308 15.0366 15.0065 14.1649 14.5578 13.3849C14.1092 12.605 13.4834 11.9971 12.6805 11.5613C11.9013 11.1254 11.0158 10.9075 10.024 10.9075C9.03222 10.9075 8.1349 11.1254 7.33204 11.5613C6.52917 11.9971 5.90341 12.605 5.45475 13.3849C5.02971 14.1649 4.81718 15.0366 4.81718 16C4.81718 17.4681 5.30126 18.6839 6.26942 19.6473Z" fill="#333333"/>
<path d="M33.9201 6.60645H35.6203V11.3548H33.3888C31.9247 11.3548 30.8739 11.6875 30.2364 12.3527C29.6224 13.0179 29.3154 14.1075 29.3154 15.6215V25.2903H24.144V6.70968H27.4736L28.3945 8.98064C29.6932 7.39785 31.5351 6.60645 33.9201 6.60645Z" fill="#333333"/>
<path d="M90.7639 25.8065C88.8039 25.8065 87.0329 25.3821 85.4508 24.5333C83.8687 23.6846 82.629 22.5147 81.7316 21.0237C80.8579 19.5097 80.4211 17.8351 80.4211 16C80.4211 13.1785 81.401 10.8387 83.361 8.98064C85.3209 7.12258 87.7885 6.19355 90.7639 6.19355C93.7156 6.19355 96.1714 7.12258 98.1313 8.98064C100.091 10.8387 101.071 13.1785 101.071 16C101.071 18.7986 100.079 21.1384 98.0959 23.0194C96.136 24.8774 93.6919 25.8065 90.7639 25.8065ZM90.7639 21.0925C92.2515 21.0925 93.4676 20.6222 94.4122 19.6817C95.3567 18.7183 95.829 17.491 95.829 16C95.829 14.509 95.3567 13.2932 94.4122 12.3527C93.4676 11.3892 92.2397 10.9075 90.7284 10.9075C89.2408 10.9075 88.0247 11.3892 87.0801 12.3527C86.1356 13.2932 85.6633 14.509 85.6633 16C85.6633 16.734 85.7814 17.4222 86.0175 18.0645C86.2773 18.7068 86.6315 19.2459 87.0801 19.6817C87.5288 20.1176 88.0601 20.4616 88.674 20.714C89.3116 20.9663 90.0082 21.0925 90.7639 21.0925Z" fill="#333333"/>
<path d="M104.802 25.2903V0H109.973V25.2903H104.802Z" fill="#333333"/>
<path d="M114.937 25.2903V0H120.108V25.2903H114.937Z" fill="#333333"/>
<path d="M140.692 6.67527H144.553V25.2559H140.48L140.054 23.6043C138.307 25.0724 136.241 25.8065 133.856 25.8065C130.975 25.8065 128.578 24.8774 126.666 23.0194C124.776 21.1384 123.832 18.7871 123.832 15.9656C123.832 13.167 124.776 10.8387 126.666 8.98064C128.578 7.12258 130.975 6.19355 133.856 6.19355C136.288 6.19355 138.378 6.95054 140.125 8.46452L140.692 6.67527ZM130.526 19.6129C131.518 20.5763 132.758 21.0581 134.246 21.0581C135.757 21.0581 137.008 20.5763 138 19.6129C138.992 18.6495 139.488 17.4337 139.488 15.9656C139.488 14.4975 138.992 13.2817 138 12.3183C137.008 11.3548 135.769 10.8731 134.281 10.8731C133.289 10.8731 132.392 11.1025 131.589 11.5613C130.81 11.9971 130.196 12.605 129.747 13.3849C129.298 14.1419 129.074 15.0021 129.074 15.9656C129.074 17.4337 129.558 18.6495 130.526 19.6129Z" fill="#333333"/>
<path d="M159.941 6.19355C162.845 6.19355 165.242 7.12258 167.131 8.98064C169.044 10.8387 170 13.1785 170 16C170 18.8215 169.044 21.1613 167.131 23.0194C165.242 24.8774 162.845 25.8065 159.941 25.8065C157.65 25.8065 155.655 25.1183 153.955 23.7419L153.352 25.2903H149.527V0H154.698V7.70753C156.233 6.69821 157.981 6.19355 159.941 6.19355ZM155.796 19.6129C156.788 20.5763 158.028 21.0581 159.516 21.0581C161.027 21.0581 162.267 20.5763 163.235 19.6129C164.226 18.6495 164.722 17.4452 164.722 16C164.722 15.0366 164.498 14.1649 164.049 13.3849C163.624 12.605 163.01 11.9971 162.208 11.5613C161.405 11.1254 160.507 10.9075 159.516 10.9075C158.547 10.9075 157.662 11.1254 156.859 11.5613C156.056 11.9971 155.43 12.605 154.982 13.3849C154.533 14.1649 154.309 15.0366 154.309 16C154.309 17.4452 154.805 18.6495 155.796 19.6129Z" fill="#333333"/>
<path fill-rule="evenodd" clip-rule="evenodd" d="M72.6171 7.23343C71.2019 6.42548 69.6246 6.02151 67.8851 6.02151C65.9097 6.02151 64.1555 6.53424 62.6224 7.55972C61.1188 8.5852 59.6152 9.99912 58.1116 11.8015C56.6079 9.99912 55.0896 8.5852 53.5565 7.55972C52.0529 6.53424 50.3134 6.02151 48.338 6.02151C45.6846 6.02151 43.4586 6.90715 41.6602 8.67843C39.8617 10.4497 38.9625 12.7182 38.9625 15.4839C38.9625 18.1874 39.8617 20.4403 41.6602 22.2427C43.4586 24.0451 45.6846 24.9462 48.338 24.9462C50.3429 24.9462 52.0971 24.4335 53.6007 23.408C55.1043 22.3825 56.6079 20.9686 58.1116 19.1663C59.6152 20.9686 61.1188 22.3825 62.6224 23.408C64.1555 24.4335 65.9097 24.9462 67.8851 24.9462C70.5385 24.9462 72.7645 24.0606 74.5629 22.2893C75.8465 21.0251 76.6721 19.5076 77.0395 17.7368H71.0397C70.8885 17.9866 70.7067 18.2145 70.4943 18.4205C69.7867 19.1352 68.8138 19.4926 67.5755 19.4926C66.3962 19.4926 65.3054 19.1507 64.3029 18.4671C63.3005 17.7834 62.2392 16.789 61.1188 15.4839C62.2981 14.1476 63.3595 13.1532 64.3029 12.5007C65.2759 11.817 66.3667 11.4752 67.5755 11.4752C68.401 11.4752 69.1234 11.6461 69.7425 11.9879C70.3089 12.2722 70.7396 12.6866 71.0346 13.2309H77.0164C76.8061 12.3068 76.46 11.4418 75.9781 10.6362C75.1526 9.17563 74.0322 8.04139 72.6171 7.23343ZM52.0086 18.4671C51.0062 19.1507 49.9154 19.4926 48.7361 19.4926C47.4683 19.4926 46.4659 19.1352 45.7288 18.4205C44.9917 17.6747 44.6232 16.6958 44.6232 15.4839C44.6232 14.2719 44.9917 13.3086 45.7288 12.5939C46.4659 11.8481 47.4683 11.4752 48.7361 11.4752C49.8859 11.4752 50.962 11.817 51.9644 12.5007C52.9963 13.1843 54.0577 14.1787 55.1485 15.4839C54.0577 16.758 53.011 17.7524 52.0086 18.4671Z" fill="url(#paint0_linear_380_317)"/>
<defs>
<linearGradient id="paint0_linear_380_317" x1="7.91623e-08" y1="16" x2="85" y2="16" gradientUnits="userSpaceOnUse">
<stop stop-color="white"/>
<stop offset="1" stop-color="#6C27FF"/>
</linearGradient>
</defs>
</svg>
