<svg width="686" height="900" viewBox="0 0 686 900" fill="none" xmlns="http://www.w3.org/2000/svg">
<path d="M17.9222 -35.0404C125.32 -35.393 326.095 29.7289 270.013 293.037C199.91 622.173 78.4108 707.293 212.636 871.728C320.016 1003.28 186.482 1272.49 106.293 1390.65M34.7765 -43.6469C142.144 -43.9117 342.881 21.3186 286.892 284.358C216.906 613.158 95.466 698.106 229.702 862.512C337.09 994.036 203.673 1262.91 123.541 1380.91M52.0251 -53.389C159.573 -53.4804 360.686 12.1109 304.756 275.208C234.844 604.078 113.249 688.878 247.806 853.593C355.452 985.364 221.968 1254.17 141.77 1372.11M70.348 -62.2295C177.685 -62.4065 378.385 2.93223 322.489 265.703C252.619 594.167 131.239 678.944 265.485 843.319C372.881 974.819 239.581 1243.36 159.507 1361.19M87.99 -73.1074C195.357 -73.3722 396.095 -8.1419 340.106 254.898C270.119 583.697 148.68 668.646 282.915 833.051C390.304 964.575 256.887 1233.45 176.755 1351.45M105.239 -82.8501C212.606 -83.1149 413.343 -17.8846 357.354 245.155C287.368 573.955 165.928 658.903 300.164 823.308C407.552 954.833 274.135 1223.71 194.003 1341.7M122.453 -92.4949C229.851 -92.8475 430.626 -27.7255 374.544 235.583C304.441 564.719 182.942 649.838 317.167 814.273C424.547 945.822 291.014 1215.03 210.824 1333.19M139.735 -102.335C247.103 -102.6 447.84 -37.3696 391.851 225.67C321.865 554.47 200.425 639.418 334.661 803.823C442.049 935.348 308.632 1204.22 228.5 1322.22M156.95 -111.98C264.348 -112.332 465.123 -47.2101 409.041 216.098C338.938 545.234 217.439 630.354 351.664 794.789C459.044 926.337 325.51 1195.55 245.321 1313.71M173.839 -120.684C281.176 -120.861 481.876 -55.5225 425.98 207.248C356.11 535.712 234.73 620.489 368.976 784.864C476.373 916.365 343.073 1184.9 262.998 1302.73M191.481 -131.562C299.029 -131.653 500.142 -66.0616 444.212 197.035C374.3 525.906 252.705 610.706 387.263 775.42C494.908 907.192 361.424 1176 281.226 1293.93M209.77 -140.304C317.137 -140.569 517.874 -75.3385 461.885 187.701C391.899 516.501 270.459 601.449 404.695 765.855C512.083 897.379 378.666 1166.25 298.534 1284.25M227.019 -150.047C334.386 -150.312 535.123 -85.0816 479.134 177.958C409.148 506.758 287.708 591.706 421.944 756.111C529.332 887.636 395.915 1156.51 315.783 1274.51M244.267 -159.789C351.634 -160.054 552.372 -94.824 496.383 168.216C426.396 497.015 304.957 581.964 439.192 746.369C546.581 877.893 413.164 1146.77 333.032 1264.76M261.482 -169.434C368.879 -169.787 569.654 -104.665 513.572 158.644C443.469 487.779 321.97 572.899 456.195 737.334C563.575 868.883 430.042 1138.09 349.852 1256.26M279.158 -180.41C386.556 -180.763 587.331 -115.641 531.248 147.668C461.146 476.804 339.647 561.923 473.872 726.358C581.252 857.907 447.718 1127.12 367.529 1245.28M296.013 -189.017C403.38 -189.282 604.118 -124.052 548.129 138.988C478.142 467.788 356.703 552.736 490.938 717.141C598.327 848.666 464.91 1117.54 384.778 1235.54M313.261 -198.759C420.628 -199.024 621.365 -133.793 565.376 129.246C495.39 458.046 373.95 542.995 508.186 707.4C615.574 838.924 482.157 1107.8 402.025 1225.79M330.509 -208.502C438.057 -208.593 639.17 -143.002 583.24 120.095C513.328 448.965 391.734 533.765 526.291 698.48C633.937 830.251 500.452 1099.06 420.254 1216.99M348.764 -217.145C456.162 -217.498 656.937 -152.376 600.854 110.933C530.752 440.068 409.253 525.188 543.478 689.623C650.858 821.171 517.324 1090.38 437.135 1208.54M366.081 -227.084C473.418 -227.261 674.118 -161.922 618.222 100.849C548.352 429.312 426.971 514.09 561.217 678.465C668.614 809.965 535.314 1078.5 455.24 1196.33M383.689 -237.864C491.087 -238.216 691.862 -173.094 635.779 90.2143C565.676 419.35 444.177 504.469 578.403 668.905C685.783 800.453 552.249 1069.66 472.06 1187.83M400.544 -246.471C507.911 -246.736 708.648 -181.505 652.659 81.5342C582.673 410.334 461.233 495.282 595.469 659.688C702.857 791.212 569.44 1060.09 489.308 1178.08M417.792 -256.212C525.159 -256.477 725.896 -191.247 669.907 71.7929C599.921 400.592 478.481 485.541 612.717 649.946C720.105 781.47 586.688 1050.34 506.556 1168.34M435.04 -265.956C542.408 -266.22 743.145 -200.99 687.156 62.0496C617.17 390.849 495.73 475.798 629.966 640.203C737.354 771.727 603.937 1040.6 523.805 1158.6M452.289 -275.698C559.656 -275.962 760.394 -210.732 704.405 52.3075C634.418 381.107 512.979 466.056 647.214 630.461C754.603 761.985 621.186 1030.86 541.054 1148.86M469.571 -285.538C577.089 -285.541 778.164 -219.841 722.327 42.9864C652.531 371.521 530.997 456.15 665.564 620.834C773.218 752.582 639.851 1021.05 559.71 1138.82M488.221 -295.319C595.619 -295.672 796.394 -230.55 740.311 32.7589C670.208 361.894 548.709 447.014 682.935 611.449C790.315 742.998 656.781 1012.21 576.591 1130.37M505.503 -305.158C612.87 -305.423 813.607 -240.193 757.618 22.8471C687.632 351.647 566.192 436.595 700.428 601C807.816 732.525 674.399 1001.4 594.267 1119.4M522.718 -314.804C630.115 -315.156 830.89 -250.034 774.808 13.2742C704.705 342.41 583.206 427.529 717.431 591.965C824.811 723.513 691.278 992.724 611.088 1110.89M0.707731 -25.3962C108.075 -25.661 308.813 39.5693 252.823 302.609C182.837 631.408 61.3972 716.357 195.633 880.762C303.021 1012.29 169.605 1281.16 89.4725 1399.16M539.571 -323.409C646.939 -323.674 847.676 -258.444 791.687 4.5961C721.701 333.396 600.261 418.344 734.497 582.749C841.885 714.274 708.468 983.148 628.336 1101.14" stroke="url(#paint0_linear_475_265)"/>
<defs>
<linearGradient id="paint0_linear_475_265" x1="801.503" y1="-186.802" x2="438.179" y2="191.124" gradientUnits="userSpaceOnUse">
<stop stop-color="white"/>
<stop offset="1" stop-color="#6C27FF"/>
</linearGradient>
</defs>
</svg>
