<svg width="422" height="392" viewBox="0 0 422 392" fill="none" xmlns="http://www.w3.org/2000/svg">
  <path d="M108.392 233.289H47.3711V205.742L108.392 133.199H137.593V207.306H152.726V233.289H137.593V255.832H108.392V233.289ZM108.392 207.306V169.36L76.1416 207.306H108.392Z" fill="#B6B3BF" fill-opacity="0.6"/>
  <path d="M163.164 195.053C163.164 172.129 167.289 156.084 175.538 146.918C183.788 137.752 196.36 133.173 213.254 133.18C221.363 133.18 228.025 134.182 233.24 136.188C237.977 137.895 242.315 140.554 245.986 144C249.08 146.954 251.701 150.367 253.757 154.118C255.792 158.035 257.325 162.193 258.32 166.493C260.587 175.679 261.719 185.109 261.689 194.571C261.689 216.446 257.989 232.454 250.588 242.596C243.188 252.737 230.442 257.812 212.351 257.818C202.203 257.818 194.003 256.2 187.753 252.965C181.452 249.676 176.144 244.764 172.38 238.735C169.472 234.296 167.209 228.222 165.591 220.514C163.911 212.133 163.098 203.601 163.164 195.053ZM196.397 195.133C196.397 210.509 197.751 220.995 200.458 226.591C203.166 232.187 207.1 234.998 212.261 235.025C213.899 235.043 215.524 234.736 217.042 234.121C218.561 233.507 219.942 232.597 221.106 231.445C223.606 229.058 225.445 225.287 226.621 220.133C227.798 214.978 228.386 206.956 228.386 196.066C228.386 180.061 227.029 169.301 224.315 163.785C221.601 158.27 217.529 155.515 212.101 155.522C206.565 155.522 202.554 158.333 200.067 163.956C197.58 169.578 196.357 179.971 196.397 195.133Z" fill="#B6B3BF" fill-opacity="0.6"/>
  <path d="M333.081 233.289H272.061V205.742L333.081 133.199H362.283V207.306H377.465V233.289H362.283V255.832H333.081V233.289ZM333.081 207.306V169.36L300.841 207.306H333.081Z" fill="#B6B3BF" fill-opacity="0.6"/>
  <g opacity="0.3">
    <path d="M161.86 90.8733C161.86 91.2446 161.75 91.6076 161.543 91.9162C161.337 92.2248 161.043 92.4651 160.7 92.6068C160.357 92.7484 159.979 92.7849 159.615 92.7118C159.251 92.6386 158.917 92.459 158.655 92.1957C158.393 91.9325 158.215 91.5974 158.144 91.233C158.073 90.8686 158.112 90.4912 158.255 90.1487C158.398 89.8062 158.64 89.5141 158.95 89.3092C159.26 89.1044 159.623 88.9961 159.995 88.9981C160.24 88.9981 160.484 89.0466 160.711 89.141C160.938 89.2354 161.144 89.3737 161.317 89.5479C161.49 89.7222 161.628 89.929 161.721 90.1564C161.814 90.3839 161.861 90.6275 161.86 90.8733Z" fill="#B6B3BF"/>
    <path d="M33.4721 162.903C34.2032 162.903 34.7958 162.311 34.7958 161.58C34.7958 160.849 34.2032 160.256 33.4721 160.256C32.7411 160.256 32.1484 160.849 32.1484 161.58C32.1484 162.311 32.7411 162.903 33.4721 162.903Z" fill="#B6B3BF"/>
    <path d="M252.165 356.216C253.212 356.216 254.06 355.368 254.06 354.321C254.06 353.274 253.212 352.426 252.165 352.426C251.118 352.426 250.27 353.274 250.27 354.321C250.27 355.368 251.118 356.216 252.165 356.216Z" fill="#B6B3BF"/>
    <path d="M297.742 279.101C298.473 279.101 299.065 278.508 299.065 277.777C299.065 277.046 298.473 276.453 297.742 276.453C297.011 276.453 296.418 277.046 296.418 277.777C296.418 278.508 297.011 279.101 297.742 279.101Z" fill="#B6B3BF"/>
    <path d="M385.657 40.7339C385.657 40.9957 385.58 41.2516 385.434 41.4693C385.289 41.6869 385.082 41.8566 384.84 41.9568C384.598 42.057 384.332 42.0832 384.075 42.0321C383.818 41.981 383.583 41.855 383.397 41.6699C383.212 41.4847 383.086 41.2489 383.035 40.9921C382.984 40.7353 383.01 40.4692 383.111 40.2273C383.211 39.9854 383.38 39.7787 383.598 39.6332C383.816 39.4878 384.072 39.4102 384.333 39.4102C384.685 39.4102 385.021 39.5496 385.269 39.7979C385.518 40.0461 385.657 40.3828 385.657 40.7339Z" fill="#B6B3BF"/>
    <path d="M133.532 14.0385C133.532 14.3003 133.455 14.5563 133.309 14.774C133.164 14.9916 132.957 15.1613 132.715 15.2615C132.473 15.3617 132.207 15.3879 131.95 15.3368C131.693 15.2857 131.458 15.1597 131.272 14.9745C131.087 14.7894 130.961 14.5536 130.91 14.2968C130.859 14.04 130.885 13.7739 130.986 13.532C131.086 13.2901 131.255 13.0834 131.473 12.9379C131.691 12.7925 131.947 12.7148 132.208 12.7148C132.559 12.7175 132.894 12.8578 133.142 13.1054C133.389 13.3531 133.53 13.6883 133.532 14.0385Z" fill="#B6B3BF"/>
    <path d="M238.775 83.4931C239.506 83.4931 240.099 82.9005 240.099 82.1694C240.099 81.4384 239.506 80.8457 238.775 80.8457C238.044 80.8457 237.451 81.4384 237.451 82.1694C237.451 82.9005 238.044 83.4931 238.775 83.4931Z" fill="#B6B3BF"/>
  </g>
  <path d="M101.925 83.5035C114.059 83.5035 123.896 73.6665 123.896 61.532C123.896 49.3975 114.059 39.5605 101.925 39.5605C89.7901 39.5605 79.9531 49.3975 79.9531 61.532C79.9531 73.6665 89.7901 83.5035 101.925 83.5035Z" fill="#B6B3BF"/>
  <path opacity="0.7" d="M101.925 83.5035C114.059 83.5035 123.896 73.6665 123.896 61.532C123.896 49.3975 114.059 39.5605 101.925 39.5605C89.7901 39.5605 79.9531 49.3975 79.9531 61.532C79.9531 73.6665 89.7901 83.5035 101.925 83.5035Z" fill="white"/>
  <path opacity="0.2" d="M94.3528 44.9532C91.3606 44.9441 88.3982 45.5481 85.6485 46.7282C82.269 50.4425 80.2632 55.2019 79.9647 60.2146C79.6662 65.2274 81.093 70.1912 84.0077 74.2803C86.9225 78.3695 91.1495 81.3373 95.9855 82.6901C100.821 84.043 105.975 83.6992 110.588 81.7161C113.449 78.5639 115.332 74.649 116.01 70.4469C116.688 66.2448 116.132 61.9361 114.409 58.0442C112.685 54.1522 109.869 50.8444 106.301 48.5223C102.734 46.2003 98.5692 44.9639 94.3127 44.9633L94.3528 44.9532Z" fill="#B6B3BF"/>
  <path opacity="0.2" d="M92.1675 50.7615C92.1675 51.1581 92.0498 51.5459 91.8295 51.8757C91.6091 52.2055 91.2958 52.4626 90.9294 52.6144C90.5629 52.7662 90.1596 52.8059 89.7706 52.7285C89.3815 52.6512 89.0242 52.4601 88.7437 52.1796C88.4632 51.8992 88.2722 51.5418 88.1948 51.1527C88.1174 50.7637 88.1571 50.3604 88.3089 49.9939C88.4607 49.6275 88.7178 49.3142 89.0476 49.0939C89.3774 48.8735 89.7652 48.7559 90.1619 48.7559C90.6938 48.7559 91.2039 48.9672 91.58 49.3433C91.9562 49.7194 92.1675 50.2295 92.1675 50.7615Z" fill="#B6B3BF"/>
  <path opacity="0.2" d="M115.794 48.7556C115.794 49.1523 115.677 49.54 115.456 49.8699C115.236 50.1997 114.923 50.4567 114.556 50.6085C114.19 50.7603 113.787 50.8001 113.398 50.7227C113.008 50.6453 112.651 50.4543 112.371 50.1738C112.09 49.8933 111.899 49.5359 111.822 49.1469C111.744 48.7578 111.784 48.3546 111.936 47.9881C112.088 47.6216 112.345 47.3084 112.675 47.088C113.004 46.8676 113.392 46.75 113.789 46.75C114.321 46.75 114.831 46.9613 115.207 47.3374C115.583 47.7136 115.794 48.2237 115.794 48.7556Z" fill="#B6B3BF"/>
  <path opacity="0.2" d="M111.782 63.0763C111.782 63.7269 111.589 64.3628 111.227 64.9037C110.866 65.4446 110.352 65.8662 109.751 66.1151C109.15 66.3641 108.489 66.4292 107.851 66.3023C107.213 66.1754 106.627 65.8621 106.167 65.4021C105.707 64.9421 105.393 64.356 105.266 63.718C105.139 63.08 105.205 62.4186 105.454 61.8176C105.702 61.2166 106.124 60.7029 106.665 60.3414C107.206 59.98 107.842 59.7871 108.492 59.7871C109.365 59.7871 110.201 60.1336 110.818 60.7505C111.435 61.3673 111.782 62.204 111.782 63.0763Z" fill="#B6B3BF"/>
  <path opacity="0.2" d="M101.331 72.4528C101.331 73.3215 101.074 74.1707 100.591 74.893C100.109 75.6154 99.4226 76.1783 98.62 76.5108C97.8174 76.8432 96.9343 76.9302 96.0823 76.7607C95.2302 76.5912 94.4476 76.1729 93.8333 75.5586C93.2191 74.9444 92.8007 74.1617 92.6313 73.3097C92.4618 72.4577 92.5488 71.5746 92.8812 70.772C93.2137 69.9694 93.7766 69.2834 94.4989 68.8008C95.2212 68.3181 96.0704 68.0605 96.9392 68.0605C98.1041 68.0605 99.2213 68.5233 100.045 69.347C100.869 70.1707 101.331 71.2879 101.331 72.4528Z" fill="#B6B3BF"/>
  <path d="M362.322 326.56C364.768 316.194 358.349 305.808 347.983 303.362C337.618 300.915 327.232 307.335 324.785 317.7C322.339 328.066 328.758 338.452 339.124 340.898C349.489 343.345 359.875 336.925 362.322 326.56Z" fill="#B6B3BF"/>
  <path opacity="0.3" d="M362.322 326.56C364.768 316.194 358.349 305.808 347.983 303.362C337.618 300.915 327.232 307.335 324.785 317.7C322.339 328.066 328.758 338.452 339.124 340.898C349.489 343.345 359.875 336.925 362.322 326.56Z" fill="white"/>
  <path opacity="0.4" d="M355.734 307.197C351.459 305.907 346.869 306.141 342.747 307.859C338.626 309.578 335.229 312.674 333.137 316.619C331.045 320.564 330.387 325.113 331.277 329.489C332.167 333.864 334.548 337.796 338.014 340.611C339.812 341.157 341.681 341.434 343.56 341.433C347.541 341.432 351.424 340.199 354.676 337.903C357.929 335.607 360.391 332.361 361.725 328.61C363.059 324.859 363.199 320.787 362.126 316.953C361.053 313.119 358.82 309.711 355.734 307.197Z" fill="#B6B3BF"/>
  <path d="M325.149 327.917C304.561 337.604 319.914 345.075 348.926 334.645C375.791 324.988 386.029 312.814 361.962 316.595C363.256 321.659 329.612 334.766 325.149 327.917Z" fill="#B6B3BF"/>
  <path opacity="0.2" d="M355.503 133.203C328.538 151.424 293.63 175.491 283.993 233.293H281.938C291.314 176.133 324.948 151.494 351.923 133.203H355.503Z" fill="black"/>
  <path d="M216.012 314.15C198.964 314.15 182.107 306.458 173.894 293.903C168.83 286.141 162.944 269.886 180.473 248.195L182.027 249.459C169.632 264.802 167.346 280.195 175.579 292.81C185.607 308.153 209.263 315.874 229.46 310.379C250.148 304.753 262.703 286.763 263.916 261.021C268.058 172.965 314.838 145.839 348.994 126.033C370.223 113.729 385.556 104.844 382.187 86.0817C381.715 83.4845 380.683 81.6894 379.008 80.5864C374.646 77.7083 366.122 79.7039 356.254 82.0003C336.89 86.5129 310.376 92.6902 294.582 65.8251L296.317 64.8223C311.359 90.4239 335.998 84.6778 355.803 80.0649C366.122 77.6682 375.027 75.5924 380.111 78.9317C382.267 80.3457 383.591 82.5819 384.122 85.7508C387.742 105.887 371.086 115.554 349.977 127.788C316.212 147.363 269.983 174.168 265.892 261.161C264.628 287.836 251.531 306.498 229.951 312.365C225.404 313.575 220.717 314.176 216.012 314.15Z" fill="#A199A4"/>
  <path opacity="0.2" d="M216.012 314.15C198.964 314.15 182.107 306.458 173.894 293.903C168.83 286.141 162.944 269.886 180.473 248.195L182.027 249.459C169.632 264.802 167.346 280.195 175.579 292.81C185.607 308.153 209.263 315.874 229.46 310.379C250.148 304.753 262.703 286.763 263.916 261.021C268.058 172.965 314.838 145.839 348.994 126.033C370.223 113.729 385.556 104.844 382.187 86.0817C381.715 83.4845 380.683 81.6894 379.008 80.5864C374.646 77.7083 366.122 79.7039 356.254 82.0003C336.89 86.5129 310.376 92.6902 294.582 65.8251L296.317 64.8223C311.359 90.4239 335.998 84.6778 355.803 80.0649C366.122 77.6682 375.027 75.5924 380.111 78.9317C382.267 80.3457 383.591 82.5819 384.122 85.7508C387.742 105.887 371.086 115.554 349.977 127.788C316.212 147.363 269.983 174.168 265.892 261.161C264.628 287.836 251.531 306.498 229.951 312.365C225.404 313.575 220.717 314.176 216.012 314.15Z" fill="white"/>
  <path d="M273.934 42.1172C278.554 42.1438 283.145 42.8639 287.552 44.2532C287.552 44.2532 298.583 63.0758 299.886 67.3879C299.425 71.6398 292.255 78.6093 292.255 78.6093L273.934 42.1172Z" fill="#A199A4"/>
  <path opacity="0.3" d="M273.934 42.1172C278.554 42.1438 283.145 42.8639 287.552 44.2532C287.552 44.2532 298.583 63.0758 299.886 67.3879C299.425 71.6398 292.255 78.6093 292.255 78.6093L273.934 42.1172Z" fill="white"/>
  <path d="M306.606 133.502C302.358 128.308 298.484 122.819 295.013 117.076C294.171 115.626 293.372 114.148 292.617 112.644C292.186 111.792 291.774 110.939 291.373 110.077C290.847 109.238 290.439 108.33 290.16 107.379C288.957 94.6738 293.309 85.3177 289.157 75.1191L272.631 81.5772C272.631 81.5772 274.035 99.748 277.244 110.659C279.249 117.407 283.742 123.244 288.084 128.649C289.438 130.334 290.742 132.068 292.095 133.763C293.449 135.458 294.813 136.832 296.107 138.426C298.062 140.843 298.704 143.159 297.23 146.007L296.979 146.459C296.558 147.201 298.523 148.043 299.767 146.459C301.772 143.871 301.492 144.032 303.236 141.826C304.299 140.492 305.513 139.038 306.566 137.814C307.074 137.213 307.356 136.453 307.363 135.666C307.37 134.878 307.103 134.113 306.606 133.502Z" fill="#A199A4"/>
  <path opacity="0.7" d="M306.606 133.502C302.358 128.308 298.484 122.819 295.013 117.076C294.171 115.626 293.372 114.148 292.617 112.644C292.186 111.792 291.774 110.939 291.373 110.077C290.847 109.238 290.439 108.33 290.16 107.379C288.957 94.6738 293.309 85.3177 289.157 75.1191L272.631 81.5772C272.631 81.5772 274.035 99.748 277.244 110.659C279.249 117.407 283.742 123.244 288.084 128.649C289.438 130.334 290.742 132.068 292.095 133.763C293.449 135.458 294.813 136.832 296.107 138.426C298.062 140.843 298.704 143.159 297.23 146.007L296.979 146.459C296.558 147.201 298.523 148.043 299.767 146.459C301.772 143.871 301.492 144.032 303.236 141.826C304.299 140.492 305.513 139.038 306.566 137.814C307.074 137.213 307.356 136.453 307.363 135.666C307.37 134.878 307.103 134.113 306.606 133.502Z" fill="white"/>
  <path opacity="0.3" d="M302.563 128.279C299.941 131.09 297.03 133.618 293.879 135.82C294.31 136.302 294.731 136.823 295.162 137.284C298.317 135.153 301.183 132.622 303.686 129.753L302.563 128.279Z" fill="#A199A4"/>
  <path opacity="0.3" d="M306.605 133.504L306.485 133.363C305.713 134.248 305.264 135.369 305.211 136.542C305.147 137.347 305.278 138.155 305.592 138.899L306.545 137.766C307.043 137.17 307.321 136.421 307.332 135.645C307.343 134.869 307.086 134.113 306.605 133.504Z" fill="#A199A4"/>
  <path d="M270.003 54.1522C268.211 56.8348 266.062 59.2605 263.615 61.3624C262.258 62.532 260.77 63.5414 259.182 64.3708C258.348 64.7983 257.483 65.1636 256.595 65.4638L255.913 65.6844L255.693 65.7446L255.221 65.875C254.931 65.9438 254.636 65.9908 254.339 66.0154C253.493 66.0801 252.642 66.0021 251.822 65.7847C250.787 65.4912 249.796 65.063 248.873 64.5112C248.131 64.0771 247.411 63.6052 246.717 63.0972C245.464 62.1646 244.265 61.1601 243.127 60.0888C240.934 58.0104 238.921 55.7493 237.111 53.3299C236.762 52.8586 236.589 52.2803 236.621 51.6949C236.653 51.1096 236.889 50.5538 237.287 50.1235C237.685 49.6932 238.221 49.4154 238.802 49.3381C239.383 49.2607 239.973 49.3886 240.47 49.6997H240.55C242.917 51.2039 245.304 52.7884 247.63 54.2023C248.813 54.8943 249.957 55.5962 251.09 56.1377C251.607 56.4086 252.139 56.6496 252.684 56.8598C253.024 57.0096 253.387 57.0979 253.757 57.1205C253.817 57.1205 253.757 57.0503 253.386 57.0603C253.269 57.0533 253.152 57.0533 253.035 57.0603L252.815 57.1105L253.145 56.94C253.591 56.7002 254.023 56.4358 254.439 56.1478C255.336 55.5151 256.175 54.8036 256.946 54.0218C258.698 52.1859 260.339 50.247 261.86 48.2156C262.693 47.2833 263.845 46.696 265.089 46.5689C266.333 46.4419 267.579 46.7843 268.584 47.5289C269.589 48.2736 270.279 49.3667 270.519 50.5939C270.759 51.8211 270.532 53.0938 269.882 54.1622L270.003 54.1522Z" fill="#A199A4"/>
  <path opacity="0.7" d="M270.003 54.1522C268.211 56.8348 266.062 59.2605 263.615 61.3624C262.258 62.532 260.77 63.5414 259.182 64.3708C258.348 64.7983 257.483 65.1636 256.595 65.4638L255.913 65.6844L255.693 65.7446L255.221 65.875C254.931 65.9438 254.636 65.9908 254.339 66.0154C253.493 66.0801 252.642 66.0021 251.822 65.7847C250.787 65.4912 249.796 65.063 248.873 64.5112C248.131 64.0771 247.411 63.6052 246.717 63.0972C245.464 62.1646 244.265 61.1601 243.127 60.0888C240.934 58.0104 238.921 55.7493 237.111 53.3299C236.762 52.8586 236.589 52.2803 236.621 51.6949C236.653 51.1096 236.889 50.5538 237.287 50.1235C237.685 49.6932 238.221 49.4154 238.802 49.3381C239.383 49.2607 239.973 49.3886 240.47 49.6997H240.55C242.917 51.2039 245.304 52.7884 247.63 54.2023C248.813 54.8943 249.957 55.5962 251.09 56.1377C251.607 56.4086 252.139 56.6496 252.684 56.8598C253.024 57.0096 253.387 57.0979 253.757 57.1205C253.817 57.1205 253.757 57.0503 253.386 57.0603C253.269 57.0533 253.152 57.0533 253.035 57.0603L252.815 57.1105L253.145 56.94C253.591 56.7002 254.023 56.4358 254.439 56.1478C255.336 55.5151 256.175 54.8036 256.946 54.0218C258.698 52.1859 260.339 50.247 261.86 48.2156C262.693 47.2833 263.845 46.696 265.089 46.5689C266.333 46.4419 267.579 46.7843 268.584 47.5289C269.589 48.2736 270.279 49.3667 270.519 50.5939C270.759 51.8211 270.532 53.0938 269.882 54.1622L270.003 54.1522Z" fill="white"/>
  <path d="M233.351 47.5537L234.524 49.5593C234.524 49.5593 235.416 52.1867 237.211 52.668L242.085 51.0936L241.834 50.6825C241.213 49.7399 241.283 47.9047 241.493 46.3805C241.704 44.8562 240.922 44.8061 240.34 45.1871C239.928 45.6612 239.639 46.2295 239.498 46.8417C239.259 46.5106 238.994 46.1988 238.706 45.9091L237.221 44.425C236.91 44.1207 236.495 43.9453 236.06 43.9342C235.625 43.923 235.201 44.0768 234.875 44.3648L233.672 45.4378C233.386 45.7019 233.199 46.0551 233.14 46.4396C233.082 46.824 233.156 47.2169 233.351 47.5537Z" fill="#A199A4"/>
  <path opacity="0.7" d="M233.351 47.5537L234.524 49.5593C234.524 49.5593 235.416 52.1867 237.211 52.668L242.085 51.0936L241.834 50.6825C241.213 49.7399 241.283 47.9047 241.493 46.3805C241.704 44.8562 240.922 44.8061 240.34 45.1871C239.928 45.6612 239.639 46.2295 239.498 46.8417C239.259 46.5106 238.994 46.1988 238.706 45.9091L237.221 44.425C236.91 44.1207 236.495 43.9453 236.06 43.9342C235.625 43.923 235.201 44.0768 234.875 44.3648L233.672 45.4378C233.386 45.7019 233.199 46.0551 233.14 46.4396C233.082 46.824 233.156 47.2169 233.351 47.5537Z" fill="white"/>
  <path d="M278.858 40.3321C273.452 41.7649 268.274 43.9489 263.475 46.8202C262.726 47.2888 262.139 47.9751 261.791 48.787C261.444 49.5989 261.352 50.4977 261.53 51.3629C263.465 60.8294 267.867 73.5049 272.621 81.5775L294.793 72.4018C294.943 68.4908 289.558 55.8355 284.073 43.6012C283.09 41.4051 281.195 39.7705 278.858 40.3321Z" fill="#A199A4"/>
  <path opacity="0.8" d="M278.858 40.3321C273.452 41.7649 268.274 43.9489 263.475 46.8202C262.726 47.2888 262.139 47.9751 261.791 48.787C261.444 49.5989 261.352 50.4977 261.53 51.3629C263.465 60.8294 267.867 73.5049 272.621 81.5775L294.793 72.4018C294.943 68.4908 289.558 55.8355 284.073 43.6012C283.09 41.4051 281.195 39.7705 278.858 40.3321Z" fill="white"/>
  <path opacity="0.3" d="M287.512 51.355L283.109 49.8809C284.112 52.4581 287.652 55.7172 290.129 57.6325C289.327 55.6269 288.434 53.521 287.512 51.355Z" fill="#A199A4"/>
  <path d="M277.405 30.4054C275.57 26.9156 271.609 25.1607 266.856 25.5518C262.844 25.8928 259.295 29.9842 259.716 32.1904C260.137 34.3966 263.506 35.3392 264.148 36.1013L261.37 38.1069C261.041 38.3444 260.764 38.6461 260.554 38.9937C260.345 39.3413 260.208 39.7277 260.152 40.1296C260.095 40.5315 260.121 40.9406 260.227 41.3323C260.333 41.7241 260.517 42.0903 260.769 42.409C261.942 43.8931 263.486 45.4174 264.379 46.5405C272.06 46.34 277.746 43.4118 279.802 40.5939C279.03 37.0239 279.19 33.8751 277.405 30.4054Z" fill="#A199A4"/>
  <path opacity="0.8" d="M277.405 30.4054C275.57 26.9156 271.609 25.1607 266.856 25.5518C262.844 25.8928 259.295 29.9842 259.716 32.1904C260.137 34.3966 263.506 35.3392 264.148 36.1013L261.37 38.1069C261.041 38.3444 260.764 38.6461 260.554 38.9937C260.345 39.3413 260.208 39.7277 260.152 40.1296C260.095 40.5315 260.121 40.9406 260.227 41.3323C260.333 41.7241 260.517 42.0903 260.769 42.409C261.942 43.8931 263.486 45.4174 264.379 46.5405C272.06 46.34 277.746 43.4118 279.802 40.5939C279.03 37.0239 279.19 33.8751 277.405 30.4054Z" fill="white"/>
  <path d="M273.633 32.5708C274.178 33.9693 274.296 35.4981 273.973 36.9639C273.65 38.4297 272.899 39.7668 271.816 40.8061C270.733 41.8453 269.366 42.5402 267.888 42.8027C266.41 43.0653 264.887 42.8838 263.512 42.2812C262.138 41.6785 260.972 40.6819 260.164 39.4171C259.355 38.1524 258.94 36.6763 258.97 35.1755C259.001 33.6748 259.475 32.2166 260.334 30.9855C261.193 29.7543 262.397 28.8054 263.795 28.2587C265.672 27.5277 267.761 27.5712 269.606 28.3797C271.45 29.1881 272.899 30.6955 273.633 32.5708Z" fill="#263238"/>
  <path d="M338.746 122.944C338.636 119.644 338.485 119.935 338.395 117.158C338.335 115.453 338.325 113.557 338.315 111.923C338.312 111.147 338.04 110.395 337.547 109.796C337.054 109.197 336.368 108.786 335.607 108.634C334.284 108.363 332.95 108.112 331.596 107.831C329.861 107.46 328.146 107.059 326.452 106.568C325.128 106.187 323.824 105.766 322.531 105.294C321.237 104.823 319.783 104.292 318.439 103.67C316.855 102.998 315.29 102.276 313.746 101.524C312.011 100.702 310.297 99.8391 308.582 98.9666C301.983 88.0461 301.843 80.846 294.763 72.4023L279.561 79.2816C279.561 79.2816 290.732 99.097 298.333 107.501C302.715 112.334 309.585 114.52 315.712 116.105C320.134 117.238 324.617 118.11 329.099 118.943C330.844 119.263 332.739 119.384 334.243 120.427C335.356 121.28 336.12 122.51 336.39 123.886C336.456 124.167 336.517 124.448 336.57 124.729C336.761 125.571 338.816 124.929 338.746 122.944Z" fill="#A199A4"/>
  <path opacity="0.8" d="M338.746 122.944C338.636 119.644 338.485 119.935 338.395 117.158C338.335 115.453 338.325 113.557 338.315 111.923C338.312 111.147 338.04 110.395 337.547 109.796C337.054 109.197 336.368 108.786 335.607 108.634C334.284 108.363 332.95 108.112 331.596 107.831C329.861 107.46 328.146 107.059 326.452 106.568C325.128 106.187 323.824 105.766 322.531 105.294C321.237 104.823 319.783 104.292 318.439 103.67C316.855 102.998 315.29 102.276 313.746 101.524C312.011 100.702 310.297 99.8391 308.582 98.9666C301.983 88.0461 301.843 80.846 294.763 72.4023L279.561 79.2816C279.561 79.2816 290.732 99.097 298.333 107.501C302.715 112.334 309.585 114.52 315.712 116.105C320.134 117.238 324.617 118.11 329.099 118.943C330.844 119.263 332.739 119.384 334.243 120.427C335.356 121.28 336.12 122.51 336.39 123.886C336.456 124.167 336.517 124.448 336.57 124.729C336.761 125.571 338.816 124.929 338.746 122.944Z" fill="white"/>
  <path opacity="0.3" d="M331.034 107.7C330.432 107.57 329.831 107.439 329.219 107.289C329.269 110.759 327.644 116.735 327.053 118.551L328.958 118.912C330.207 115.299 330.906 111.52 331.034 107.7Z" fill="#A199A4"/>
  <path opacity="0.3" d="M338.355 111.923C338.352 111.148 338.082 110.398 337.591 109.799C337.099 109.2 336.416 108.788 335.657 108.634L334.654 108.443C334.815 109.583 335.399 110.621 336.289 111.351C336.861 111.881 337.547 112.272 338.294 112.495C338.355 112.314 338.355 112.114 338.355 111.923Z" fill="#A199A4"/>
  <path d="M272.219 32.6321C272.62 34.1564 270.915 35.7508 269.561 34.4371C268.298 33.0824 266.915 31.844 265.43 30.7368C264.036 29.8644 265.891 28.3401 268.087 28.9318C269.024 29.1672 269.89 29.6271 270.61 30.2717C271.33 30.9164 271.882 31.7265 272.219 32.6321Z" fill="white"/>
  <path d="M272.331 81.0864C271.629 81.3471 272.913 82.5505 272.913 82.5505C272.913 82.5505 286.952 77.747 295.476 72.8032C295.496 72.5039 295.445 72.204 295.327 71.9284C295.208 71.6528 295.025 71.4095 294.794 71.2188C287.499 74.9297 279.999 78.2242 272.331 81.0864Z" fill="#A199A4"/>
  <path opacity="0.5" d="M272.331 81.0864C271.629 81.3471 272.913 82.5505 272.913 82.5505C272.913 82.5505 286.952 77.747 295.476 72.8032C295.496 72.5039 295.445 72.204 295.327 71.9284C295.208 71.6528 295.025 71.4095 294.794 71.2188C287.499 74.9297 279.999 78.2242 272.331 81.0864Z" fill="white"/>
  <path d="M282.659 39.6711C285.427 41.0751 288.024 42.5492 290.681 44.1838C291.975 45.0061 293.259 45.8384 294.532 46.7409C295.806 47.6434 297.069 48.566 298.343 49.6089L298.814 50L299.406 50.5415C299.758 50.857 300.093 51.1918 300.409 51.5443C300.73 51.8953 301 52.2363 301.261 52.5472C301.522 52.858 301.803 53.2291 302.033 53.55C302.968 54.8391 303.831 56.1782 304.62 57.5612C306.175 60.243 307.516 63.0428 308.632 65.9346C308.838 66.481 308.849 67.0819 308.662 67.6353C308.475 68.1886 308.102 68.6602 307.607 68.9698C307.112 69.2795 306.525 69.408 305.946 69.3337C305.366 69.2593 304.831 68.9866 304.43 68.5619L304.38 68.5018C302.374 66.3658 300.439 64.1195 298.493 62.0237C296.548 59.9278 294.572 57.8018 292.938 56.8692C290.661 55.4553 288.124 54.0413 285.607 52.6575L278.026 48.4457C276.851 47.8233 275.97 46.7595 275.579 45.4882C275.188 44.2169 275.318 42.8423 275.94 41.6667C276.563 40.4912 277.626 39.611 278.898 39.2198C280.169 38.8287 281.544 38.9585 282.719 39.5809L282.659 39.6711Z" fill="#A199A4"/>
  <path opacity="0.8" d="M282.659 39.6711C285.427 41.0751 288.024 42.5492 290.681 44.1838C291.975 45.0061 293.259 45.8384 294.532 46.7409C295.806 47.6434 297.069 48.566 298.343 49.6089L298.814 50L299.406 50.5415C299.758 50.857 300.093 51.1918 300.409 51.5443C300.73 51.8953 301 52.2363 301.261 52.5472C301.522 52.858 301.803 53.2291 302.033 53.55C302.968 54.8391 303.831 56.1782 304.62 57.5612C306.175 60.243 307.516 63.0428 308.632 65.9346C308.838 66.481 308.849 67.0819 308.662 67.6353C308.475 68.1886 308.102 68.6602 307.607 68.9698C307.112 69.2795 306.525 69.408 305.946 69.3337C305.366 69.2593 304.831 68.9866 304.43 68.5619L304.38 68.5018C302.374 66.3658 300.439 64.1195 298.493 62.0237C296.548 59.9278 294.572 57.8018 292.938 56.8692C290.661 55.4553 288.124 54.0413 285.607 52.6575L278.026 48.4457C276.851 47.8233 275.97 46.7595 275.579 45.4882C275.188 44.2169 275.318 42.8423 275.94 41.6667C276.563 40.4912 277.626 39.611 278.898 39.2198C280.169 38.8287 281.544 38.9585 282.719 39.5809L282.659 39.6711Z" fill="white"/>
  <path d="M311.009 70.9402L310.157 68.8042C310.157 68.8042 309.685 66.0766 307.991 65.3145L302.977 66.1067L303.147 66.5479C303.608 67.5507 303.257 69.3858 302.806 70.8499C302.355 72.314 303.117 72.5046 303.759 72.2138C304.12 72.0533 304.471 71.4015 304.852 70.7095C305.039 71.0581 305.25 71.3932 305.484 71.7124L306.717 73.4071C306.975 73.7583 307.356 73.999 307.784 74.0808C308.211 74.1627 308.654 74.0796 309.023 73.8483L310.387 72.9759C310.706 72.7574 310.942 72.4369 311.055 72.067C311.168 71.6971 311.152 71.2997 311.009 70.9402Z" fill="#A199A4"/>
  <path opacity="0.8" d="M311.009 70.9402L310.157 68.8042C310.157 68.8042 309.685 66.0766 307.991 65.3145L302.977 66.1067L303.147 66.5479C303.608 67.5507 303.257 69.3858 302.806 70.8499C302.355 72.314 303.117 72.5046 303.759 72.2138C304.12 72.0533 304.471 71.4015 304.852 70.7095C305.039 71.0581 305.25 71.3932 305.484 71.7124L306.717 73.4071C306.975 73.7583 307.356 73.999 307.784 74.0808C308.211 74.1627 308.654 74.0796 309.023 73.8483L310.387 72.9759C310.706 72.7574 310.942 72.4369 311.055 72.067C311.168 71.6971 311.152 71.2997 311.009 70.9402Z" fill="white"/>
  <path opacity="0.3" d="M278.428 51.2031L277.204 51.3034L269.693 69.4341C270.104 69.4637 270.517 69.4298 270.917 69.3338C270.917 69.3338 280.704 65.6836 283.662 64.3198C281.677 60.2183 278.428 51.2031 278.428 51.2031Z" fill="#A199A4"/>
  <path d="M264.719 55.9577C265.631 60.6972 267.326 65.2519 269.733 69.4354C273.403 68.1719 279.52 65.7852 282.488 64.4214C280.493 60.1443 278.723 55.7662 277.184 51.3047C274.045 51.5153 267.156 54.1527 264.719 55.9577Z" fill="white"/>
  <path opacity="0.3" d="M272.17 59.8791C272.023 60.3695 271.734 60.8053 271.34 61.1316C270.945 61.4578 270.463 61.6598 269.954 61.7118C269.445 61.7639 268.932 61.6638 268.479 61.4241C268.027 61.1845 267.656 60.816 267.413 60.3655C267.17 59.9149 267.067 59.4024 267.115 58.8929C267.164 58.3834 267.362 57.8997 267.686 57.503C268.009 57.1063 268.443 56.8145 268.932 56.6644C269.422 56.5144 269.945 56.5129 270.435 56.6601C271.091 56.8572 271.643 57.307 271.968 57.9106C272.294 58.5141 272.366 59.2221 272.17 59.8791Z" fill="#A199A4"/>
  <path opacity="0.6" d="M274.085 56.4271C274.046 56.5944 273.957 56.7461 273.83 56.8621C273.703 56.9782 273.544 57.0531 273.374 57.0772C273.204 57.1013 273.03 57.0734 272.876 56.9971C272.722 56.9208 272.595 56.7997 272.511 56.6497C272.427 56.4997 272.39 56.3279 272.406 56.1567C272.421 55.9855 272.488 55.823 272.598 55.6904C272.707 55.5579 272.854 55.4616 273.019 55.4141C273.184 55.3666 273.36 55.3701 273.523 55.4242C273.726 55.4892 273.897 55.6289 274.002 55.815C274.106 56.0011 274.136 56.2199 274.085 56.4271Z" fill="#A199A4"/>
  <path opacity="0.6" d="M276.33 55.5567C276.307 55.673 276.259 55.7831 276.191 55.88C276.122 55.9769 276.034 56.0584 275.932 56.1193C275.83 56.1802 275.717 56.2191 275.599 56.2336C275.481 56.2481 275.362 56.2379 275.248 56.2035C275.135 56.1691 275.029 56.1114 274.939 56.0341C274.849 55.9567 274.777 55.8614 274.725 55.7543C274.674 55.6471 274.646 55.5305 274.643 55.4118C274.64 55.2932 274.661 55.1752 274.706 55.0653C274.738 54.9592 274.791 54.8604 274.861 54.7747C274.931 54.689 275.018 54.6181 275.116 54.5659C275.214 54.5137 275.321 54.4814 275.431 54.4707C275.541 54.46 275.653 54.4713 275.759 54.5037C275.973 54.5687 276.154 54.7157 276.261 54.9128C276.368 55.1099 276.393 55.3413 276.33 55.5567Z" fill="#A199A4"/>
  <path opacity="0.5" d="M279.48 63.3661L270.204 67.0264L269.652 65.2012L278.918 61.541L279.48 63.3661Z" fill="#A199A4"/>
  <path opacity="0.2" d="M228.308 202.737C228.286 208.576 227.722 214.401 226.623 220.136C225.44 225.29 223.601 229.061 221.107 231.447C219.946 232.6 218.567 233.511 217.05 234.125C215.533 234.74 213.909 235.046 212.273 235.027C207.118 235.027 203.184 232.216 200.47 226.594C199.993 225.584 199.587 224.542 199.256 223.475C193.524 228.398 188.186 233.763 183.292 239.52L177.967 245.797C180.832 248.702 184.139 251.135 187.764 253.008C194.008 256.237 202.205 257.854 212.353 257.861C214.138 257.861 215.863 257.811 217.537 257.711C223.677 248.626 228.758 238.869 232.68 228.629L247.571 189.801L228.308 202.737Z" fill="black"/>
  <path d="M94.0625 255.714L111.612 273.263L160.749 226.964C143.812 220.496 110.88 238.857 94.0625 255.714Z" fill="#263238"/>
  <path d="M155.262 316.886C149.656 311.27 137.713 299.337 137.713 299.337L184.012 250.199C190.44 267.096 172.079 300.059 155.262 316.886Z" fill="#263238"/>
  <path d="M222.43 206.277L241.573 169.363L204.66 188.527C192.803 194.676 181.856 202.438 172.129 211.591L109.203 270.827L140.12 301.744L199.355 238.818C208.513 229.088 216.278 218.137 222.43 206.277Z" fill="#B6B3BF"/>
  <path opacity="0.6" d="M222.43 206.277L241.573 169.363L204.66 188.527C192.803 194.676 181.856 202.438 172.129 211.591L109.203 270.827L140.12 301.744L199.355 238.818C208.513 229.088 216.278 218.137 222.43 206.277Z" fill="white"/>
  <path d="M183.12 240.753C190.264 240.753 196.056 234.961 196.056 227.817C196.056 220.673 190.264 214.881 183.12 214.881C175.975 214.881 170.184 220.673 170.184 227.817C170.184 234.961 175.975 240.753 183.12 240.753Z" fill="white"/>
  <path d="M183.12 236.13C187.711 236.13 191.433 232.408 191.433 227.817C191.433 223.226 187.711 219.504 183.12 219.504C178.529 219.504 174.807 223.226 174.807 227.817C174.807 232.408 178.529 236.13 183.12 236.13Z" fill="#B6B3BF"/>
  <path opacity="0.3" d="M150.579 290.631L120.305 260.356L145.094 237.031L173.905 265.852L150.579 290.631Z" fill="#B6B3BF"/>
  <path d="M100.911 283.412C78.2474 285.247 70.7363 299.758 68.1692 319.042C66.8655 328.879 66.2839 338.837 58.0308 344.593C57.5343 344.931 57.1605 345.42 56.9653 345.988C56.7702 346.555 56.7642 347.171 56.9483 347.742C57.1323 348.314 57.4965 348.81 57.9864 349.157C58.4762 349.504 59.0653 349.683 59.6654 349.667C90.0905 348.715 104.28 333.823 106.065 327.606C105.597 330.856 104.759 334.042 103.568 337.102C103.349 337.642 103.306 338.238 103.446 338.803C103.585 339.369 103.899 339.877 104.344 340.253C104.788 340.63 105.34 340.857 105.921 340.902C106.502 340.946 107.083 340.806 107.579 340.502C116.113 335.157 126.823 325.309 127.535 309.335C121.258 300.44 100.911 283.412 100.911 283.412Z" fill="#B6B3BF"/>
  <path opacity="0.2" d="M100.911 283.412C78.2474 285.247 70.7363 299.758 68.1692 319.042C66.8655 328.879 66.2839 338.837 58.0308 344.593C57.5343 344.931 57.1605 345.42 56.9653 345.988C56.7702 346.555 56.7642 347.171 56.9483 347.742C57.1323 348.314 57.4965 348.81 57.9864 349.157C58.4762 349.504 59.0653 349.683 59.6654 349.667C90.0905 348.715 104.28 333.823 106.065 327.606C105.597 330.856 104.759 334.042 103.568 337.102C103.349 337.642 103.306 338.238 103.446 338.803C103.585 339.369 103.899 339.877 104.344 340.253C104.788 340.63 105.34 340.857 105.921 340.902C106.502 340.946 107.083 340.806 107.579 340.502C116.113 335.157 126.823 325.309 127.535 309.335C121.258 300.44 100.911 283.412 100.911 283.412Z" fill="white"/>
  <path d="M131.055 316.184L94.7539 279.883L114.088 275.701L135.237 296.85L131.055 316.184Z" fill="#B6B3BF"/>
</svg>
