<svg width="32" height="32" viewBox="0 0 32 32" fill="none" xmlns="http://www.w3.org/2000/svg">
  <path d="M24.25 30H7.75C7.02065 30 6.32118 29.705 5.80546 29.1799C5.28973 28.6549 5 27.9427 5 27.2001V4.80111C5 4.05854 5.28973 3.34638 5.80546 2.8213C6.32118 2.29622 7.02065 2.00123 7.75 2.00123H17.375C17.3873 1.99959 17.3998 1.99959 17.4121 2.00123H17.4204C17.4334 2.00536 17.4467 2.00818 17.4603 2.00963C17.5813 2.01803 17.7009 2.04183 17.8164 2.08103H17.8741C17.8995 2.09911 17.9234 2.11924 17.9456 2.14123C18.0954 2.20904 18.2319 2.3039 18.3485 2.42121L26.5985 10.8208C26.7137 10.9395 26.8069 11.0785 26.8735 11.231C26.8855 11.2613 26.896 11.2921 26.9051 11.3234L26.9189 11.3626C26.9574 11.4788 26.9794 11.6006 26.9862 11.7238C26.9874 11.7378 26.9907 11.7514 26.9959 11.7644V11.7728C26.9981 11.782 26.9995 11.7914 27 11.8008V27.2001C27 27.9427 26.7103 28.6549 26.1945 29.1799C25.6788 29.705 24.9793 30 24.25 30ZM17.375 4.80111V11.8008H24.25L17.375 4.80111Z" fill="#332E2D"/>
  <path d="M12.3097 19.5455V20.3977H9.22727V19.5455H12.3097ZM10.0724 25V18.9134C10.0724 18.5724 10.147 18.2895 10.2962 18.0646C10.4453 17.8374 10.643 17.6681 10.8892 17.5568C11.1354 17.4432 11.4029 17.3864 11.6918 17.3864C11.9048 17.3864 12.0871 17.4041 12.2386 17.4396C12.3902 17.4728 12.5026 17.5036 12.576 17.532L12.3274 18.3913C12.2777 18.3771 12.2138 18.3606 12.1357 18.3416C12.0575 18.3203 11.9628 18.3097 11.8516 18.3097C11.5935 18.3097 11.4089 18.3736 11.2976 18.5014C11.1887 18.6293 11.1342 18.8139 11.1342 19.0554V25H10.0724ZM12.9052 25V19.5455H13.967V25H12.9052ZM13.4414 18.7038C13.2567 18.7038 13.0981 18.6423 12.9656 18.5192C12.8353 18.3937 12.7702 18.2446 12.7702 18.0717C12.7702 17.8965 12.8353 17.7474 12.9656 17.6243C13.0981 17.4988 13.2567 17.4361 13.4414 17.4361C13.6261 17.4361 13.7835 17.4988 13.9137 17.6243C14.0463 17.7474 14.1126 17.8965 14.1126 18.0717C14.1126 18.2446 14.0463 18.3937 13.9137 18.5192C13.7835 18.6423 13.6261 18.7038 13.4414 18.7038ZM15.9572 17.7273V25H14.8954V17.7273H15.9572ZM19.2365 25.1101C18.6991 25.1101 18.2363 24.9953 17.848 24.7656C17.4621 24.5336 17.1638 24.2081 16.9531 23.7891C16.7448 23.3677 16.6406 22.8741 16.6406 22.3082C16.6406 21.7495 16.7448 21.2571 16.9531 20.831C17.1638 20.4048 17.4574 20.0722 17.8338 19.8331C18.2126 19.594 18.6553 19.4744 19.1619 19.4744C19.4697 19.4744 19.768 19.5253 20.0568 19.6271C20.3456 19.7289 20.6049 19.8887 20.8345 20.1065C21.0642 20.3243 21.2453 20.6072 21.3778 20.9553C21.5104 21.3009 21.5767 21.7211 21.5767 22.2159V22.5923H17.2408V21.7969H20.5362C20.5362 21.5175 20.4794 21.2701 20.3658 21.0547C20.2521 20.8369 20.0923 20.6652 19.8864 20.5398C19.6828 20.4143 19.4437 20.3516 19.169 20.3516C18.8707 20.3516 18.6103 20.425 18.3878 20.5717C18.1676 20.7161 17.9972 20.9055 17.8764 21.1399C17.758 21.3719 17.6989 21.6241 17.6989 21.8963V22.5178C17.6989 22.8823 17.7628 23.1925 17.8906 23.4482C18.0208 23.7038 18.2019 23.8991 18.4339 24.0341C18.666 24.1667 18.937 24.233 19.2472 24.233C19.4484 24.233 19.6319 24.2045 19.7976 24.1477C19.9633 24.0885 20.1065 24.0009 20.2273 23.8849C20.348 23.7689 20.4403 23.6257 20.5043 23.4553L21.5092 23.6364C21.4287 23.9323 21.2843 24.1915 21.076 24.4141C20.87 24.6342 20.6108 24.8059 20.2983 24.929C19.9882 25.0497 19.6342 25.1101 19.2365 25.1101Z" fill="white"/>
</svg>
