<svg width="32" height="32" viewBox="0 0 32 32" fill="none" xmlns="http://www.w3.org/2000/svg">
  <path d="M24.25 30H7.75C7.02065 30 6.32118 29.705 5.80546 29.1799C5.28973 28.6549 5 27.9427 5 27.2001V4.80111C5 4.05854 5.28973 3.34638 5.80546 2.8213C6.32118 2.29622 7.02065 2.00123 7.75 2.00123H17.375C17.3873 1.99959 17.3998 1.99959 17.4121 2.00123H17.4204C17.4334 2.00536 17.4467 2.00818 17.4603 2.00963C17.5813 2.01803 17.7009 2.04183 17.8164 2.08103H17.8741C17.8995 2.09911 17.9234 2.11924 17.9456 2.14123C18.0954 2.20904 18.2319 2.3039 18.3485 2.42121L26.5985 10.8208C26.7137 10.9395 26.8069 11.0785 26.8735 11.231C26.8855 11.2613 26.896 11.2921 26.9051 11.3234L26.9189 11.3626C26.9574 11.4788 26.9794 11.6006 26.9862 11.7238C26.9874 11.7378 26.9907 11.7514 26.9959 11.7644V11.7728C26.9981 11.782 26.9995 11.7914 27 11.8008V27.2001C27 27.9427 26.7103 28.6549 26.1945 29.1799C25.6788 29.705 24.9793 30 24.25 30ZM17.375 4.80111V11.8008H24.25L17.375 4.80111Z" fill="#332E2D"/>
  <path d="M12.2599 19.5455V20.3977H9.28054V19.5455H12.2599ZM10.0795 18.2386H11.1413V23.3984C11.1413 23.6044 11.1721 23.7595 11.2337 23.8636C11.2952 23.9654 11.3745 24.0353 11.4716 24.0732C11.571 24.1087 11.6787 24.1264 11.7947 24.1264C11.88 24.1264 11.9545 24.1205 12.0185 24.1087C12.0824 24.0968 12.1321 24.0874 12.1676 24.0803L12.3594 24.9574C12.2978 24.9811 12.2102 25.0047 12.0966 25.0284C11.983 25.0545 11.8409 25.0687 11.6705 25.071C11.3911 25.0758 11.1307 25.026 10.8892 24.9219C10.6477 24.8177 10.4524 24.6567 10.3033 24.4389C10.1541 24.2211 10.0795 23.9477 10.0795 23.6186V18.2386ZM13.7725 19.5455L14.9764 21.669L16.1909 19.5455H17.3521L15.6511 22.2727L17.3663 25H16.2051L14.9764 22.9616L13.7512 25H12.5865L14.2839 22.2727L12.6078 19.5455H13.7725ZM20.4885 19.5455V20.3977H17.5091V19.5455H20.4885ZM18.3081 18.2386H19.3699V23.3984C19.3699 23.6044 19.4006 23.7595 19.4622 23.8636C19.5237 23.9654 19.603 24.0353 19.7001 24.0732C19.7995 24.1087 19.9073 24.1264 20.0233 24.1264C20.1085 24.1264 20.1831 24.1205 20.247 24.1087C20.3109 24.0968 20.3606 24.0874 20.3961 24.0803L20.5879 24.9574C20.5263 24.9811 20.4387 25.0047 20.3251 25.0284C20.2115 25.0545 20.0694 25.0687 19.899 25.071C19.6196 25.0758 19.3592 25.026 19.1177 24.9219C18.8762 24.8177 18.6809 24.6567 18.5318 24.4389C18.3826 24.2211 18.3081 23.9477 18.3081 23.6186V18.2386Z" fill="white"/>
</svg>
