<svg width="32" height="32" viewBox="0 0 32 32" fill="none" xmlns="http://www.w3.org/2000/svg">
  <path d="M24.25 30H7.75C7.02065 30 6.32118 29.705 5.80546 29.1799C5.28973 28.6549 5 27.9427 5 27.2001V4.80111C5 4.05854 5.28973 3.34638 5.80546 2.8213C6.32118 2.29622 7.02065 2.00123 7.75 2.00123H17.375C17.3873 1.99959 17.3998 1.99959 17.4121 2.00123H17.4204C17.4334 2.00536 17.4467 2.00818 17.4603 2.00963C17.5813 2.01803 17.7009 2.04183 17.8164 2.08103H17.8741C17.8995 2.09911 17.9234 2.11924 17.9456 2.14123C18.0954 2.20904 18.2319 2.3039 18.3485 2.42121L26.5985 10.8208C26.7137 10.9395 26.8069 11.0785 26.8735 11.231C26.8855 11.2613 26.896 11.2921 26.9051 11.3234L26.9189 11.3626C26.9574 11.4788 26.9794 11.6006 26.9862 11.7238C26.9874 11.7378 26.9907 11.7514 26.9959 11.7644V11.7728C26.9981 11.782 26.9995 11.7914 27 11.8008V27.2001C27 27.9427 26.7103 28.6549 26.1945 29.1799C25.6788 29.705 24.9793 30 24.25 30ZM17.375 4.80111V11.8008H24.25L17.375 4.80111Z" fill="#332E2D"/>
  <path d="M10.5518 19.5455L11.7557 21.669L12.9702 19.5455H14.1314L12.4304 22.2727L14.1456 25H12.9844L11.7557 22.9616L10.5305 25H9.36577L11.0632 22.2727L9.38707 19.5455H10.5518ZM15.7834 17.7273V25H14.7216V17.7273H15.7834ZM20.7992 20.8771L19.8368 21.0476C19.7966 20.9245 19.7327 20.8073 19.6451 20.696C19.5598 20.5848 19.4438 20.4936 19.2971 20.4226C19.1503 20.3516 18.9668 20.3161 18.7466 20.3161C18.446 20.3161 18.195 20.3835 17.9938 20.5185C17.7926 20.651 17.6919 20.8227 17.6919 21.0334C17.6919 21.2157 17.7594 21.3625 17.8944 21.4737C18.0293 21.585 18.2471 21.6761 18.5478 21.7472L19.4142 21.946C19.9161 22.062 20.2902 22.2408 20.5364 22.4822C20.7826 22.7237 20.9057 23.0374 20.9057 23.4233C20.9057 23.75 20.811 24.0412 20.6216 24.2969C20.4346 24.5502 20.173 24.7491 19.8368 24.8935C19.503 25.0379 19.1159 25.1101 18.6756 25.1101C18.0648 25.1101 17.5665 24.9799 17.1806 24.7195C16.7947 24.4567 16.5579 24.0838 16.4703 23.6009L17.4966 23.4446C17.5605 23.7121 17.6919 23.9145 17.8908 24.0518C18.0897 24.1868 18.3489 24.2543 18.6685 24.2543C19.0165 24.2543 19.2947 24.1821 19.503 24.0376C19.7114 23.8909 19.8155 23.7121 19.8155 23.5014C19.8155 23.331 19.7516 23.1877 19.6238 23.0717C19.4983 22.9557 19.3053 22.8681 19.0449 22.8089L18.1216 22.6065C17.6126 22.4905 17.2362 22.3059 16.9924 22.0526C16.7509 21.7992 16.6301 21.4785 16.6301 21.0902C16.6301 20.7682 16.7201 20.4865 16.9 20.245C17.08 20.0036 17.3285 19.8153 17.6458 19.6804C17.963 19.5431 18.3264 19.4744 18.736 19.4744C19.3255 19.4744 19.7895 19.6023 20.128 19.858C20.4666 20.1113 20.6903 20.451 20.7992 20.8771Z" fill="white"/>
</svg>
