<svg width="32" height="32" viewBox="0 0 32 32" fill="none" xmlns="http://www.w3.org/2000/svg">
  <path d="M24.25 30H7.75C7.02065 30 6.32118 29.705 5.80546 29.1799C5.28973 28.6549 5 27.9427 5 27.2001V4.80111C5 4.05854 5.28973 3.34638 5.80546 2.8213C6.32118 2.29622 7.02065 2.00123 7.75 2.00123H17.375C17.3873 1.99959 17.3998 1.99959 17.4121 2.00123H17.4204C17.4334 2.00536 17.4467 2.00818 17.4603 2.00963C17.5813 2.01803 17.7009 2.04183 17.8164 2.08103H17.8741C17.8995 2.09911 17.9234 2.11924 17.9456 2.14123C18.0954 2.20904 18.2319 2.3039 18.3485 2.42121L26.5985 10.8208C26.7137 10.9395 26.8069 11.0785 26.8735 11.231C26.8855 11.2613 26.896 11.2921 26.9051 11.3234L26.9189 11.3626C26.9574 11.4788 26.9794 11.6006 26.9862 11.7238C26.9874 11.7378 26.9907 11.7514 26.9959 11.7644V11.7728C26.9981 11.782 26.9995 11.7914 27 11.8008V27.2001C27 27.9427 26.7103 28.6549 26.1945 29.1799C25.6788 29.705 24.9793 30 24.25 30ZM17.375 4.80111V11.8008H24.25L17.375 4.80111Z" fill="#332E2D"/>
  <path d="M7.71378 27.0455V19.5455H8.75071V20.4297H8.83949C8.90104 20.3161 8.98982 20.1847 9.10582 20.0355C9.22183 19.8864 9.38281 19.7562 9.58878 19.6449C9.79474 19.5312 10.067 19.4744 10.4055 19.4744C10.8459 19.4744 11.2389 19.5857 11.5845 19.8082C11.9302 20.0308 12.2012 20.3516 12.3977 20.7706C12.5966 21.1896 12.696 21.6939 12.696 22.2834C12.696 22.8729 12.5978 23.3783 12.4013 23.7997C12.2048 24.2187 11.9349 24.5419 11.5916 24.7692C11.2483 24.9941 10.8565 25.1065 10.4162 25.1065C10.0848 25.1065 9.81368 25.0509 9.60298 24.9396C9.39465 24.8284 9.2313 24.6982 9.11293 24.549C8.99455 24.3999 8.90341 24.2673 8.83949 24.1513H8.77557V27.0455H7.71378ZM8.75426 22.2727C8.75426 22.6562 8.8099 22.9924 8.92116 23.2812C9.03243 23.5701 9.19342 23.7962 9.40412 23.9595C9.61482 24.1205 9.87287 24.201 10.1783 24.201C10.4955 24.201 10.7607 24.117 10.9737 23.9489C11.1868 23.7784 11.3478 23.5476 11.4567 23.2564C11.5679 22.9652 11.6236 22.6373 11.6236 22.2727C11.6236 21.9129 11.5691 21.5897 11.4602 21.3033C11.3537 21.0168 11.1927 20.7907 10.9773 20.625C10.7642 20.4593 10.4979 20.3764 10.1783 20.3764C9.8705 20.3764 9.61009 20.4557 9.39702 20.6143C9.18632 20.773 9.02652 20.9943 8.91761 21.2784C8.80871 21.5625 8.75426 21.8939 8.75426 22.2727ZM14.3474 21.7614V25H13.2857V19.5455H14.3048V20.4332H14.3723C14.4978 20.1444 14.6943 19.9124 14.9618 19.7372C15.2317 19.562 15.5714 19.4744 15.981 19.4744C16.3527 19.4744 16.6782 19.5526 16.9575 19.7088C17.2369 19.8627 17.4535 20.0923 17.6074 20.3977C17.7613 20.7031 17.8382 21.0807 17.8382 21.5305V25H16.7764V21.6584C16.7764 21.263 16.6734 20.9541 16.4675 20.7315C16.2615 20.5066 15.9786 20.3942 15.6188 20.3942C15.3725 20.3942 15.1536 20.4474 14.9618 20.554C14.7724 20.6605 14.6221 20.8168 14.5108 21.0227C14.4019 21.2263 14.3474 21.4725 14.3474 21.7614ZM20.9491 27.1591C20.5159 27.1591 20.143 27.1023 19.8305 26.9886C19.5204 26.875 19.2671 26.7247 19.0706 26.5376C18.8741 26.3506 18.7273 26.1458 18.6303 25.9233L19.5429 25.5469C19.6068 25.651 19.692 25.7611 19.7986 25.8771C19.9075 25.9955 20.0543 26.0961 20.2389 26.179C20.4259 26.2618 20.6662 26.3033 20.9598 26.3033C21.3623 26.3033 21.6949 26.205 21.9577 26.0085C22.2205 25.8144 22.3518 25.5043 22.3518 25.0781V24.0057H22.2844C22.2205 24.1217 22.1281 24.2507 22.0074 24.3928C21.889 24.5348 21.7257 24.6579 21.5173 24.7621C21.309 24.8662 21.0379 24.9183 20.7041 24.9183C20.2732 24.9183 19.885 24.8177 19.5393 24.6165C19.1961 24.4129 18.9238 24.1134 18.7226 23.718C18.5237 23.3203 18.4243 22.8314 18.4243 22.2514C18.4243 21.6714 18.5225 21.1742 18.719 20.7599C18.9179 20.3456 19.1902 20.0284 19.5358 19.8082C19.8814 19.5857 20.2732 19.4744 20.7112 19.4744C21.0498 19.4744 21.3232 19.5312 21.5315 19.6449C21.7399 19.7562 21.902 19.8864 22.018 20.0355C22.1364 20.1847 22.2276 20.3161 22.2915 20.4297H22.3696V19.5455H23.4101V25.1207C23.4101 25.5895 23.3012 25.9742 23.0834 26.2749C22.8656 26.5755 22.5708 26.7981 22.1991 26.9425C21.8298 27.0869 21.4132 27.1591 20.9491 27.1591ZM20.9385 24.0376C21.2439 24.0376 21.5019 23.9666 21.7126 23.8246C21.9257 23.6802 22.0867 23.4742 22.1956 23.2067C22.3069 22.9368 22.3625 22.6136 22.3625 22.2372C22.3625 21.8703 22.308 21.5471 22.1991 21.2678C22.0902 20.9884 21.9304 20.7706 21.7197 20.6143C21.509 20.4557 21.2486 20.3764 20.9385 20.3764C20.6189 20.3764 20.3526 20.4593 20.1395 20.625C19.9264 20.7884 19.7654 21.0109 19.6565 21.2926C19.55 21.5743 19.4967 21.8892 19.4967 22.2372C19.4967 22.5947 19.5512 22.9084 19.6601 23.1783C19.769 23.4482 19.93 23.6589 20.143 23.8104C20.3585 23.9619 20.6236 24.0376 20.9385 24.0376Z" fill="white"/>
</svg>
