<svg width="32" height="32" viewBox="0 0 32 32" fill="none" xmlns="http://www.w3.org/2000/svg">
  <path d="M24.25 30H7.75C7.02065 30 6.32118 29.705 5.80546 29.1799C5.28973 28.6549 5 27.9427 5 27.2001V4.80111C5 4.05854 5.28973 3.34638 5.80546 2.8213C6.32118 2.29622 7.02065 2.00123 7.75 2.00123H17.375C17.3873 1.99959 17.3998 1.99959 17.4121 2.00123H17.4204C17.4334 2.00536 17.4467 2.00818 17.4603 2.00963C17.5813 2.01803 17.7009 2.04183 17.8164 2.08103H17.8741C17.8995 2.09911 17.9234 2.11924 17.9456 2.14123C18.0954 2.20904 18.2319 2.3039 18.3485 2.42121L26.5985 10.8208C26.7137 10.9395 26.8069 11.0785 26.8735 11.231C26.8855 11.2613 26.896 11.2921 26.9051 11.3234L26.9189 11.3626C26.9574 11.4788 26.9794 11.6006 26.9862 11.7238C26.9874 11.7378 26.9907 11.7514 26.9959 11.7644V11.7728C26.9981 11.782 26.9995 11.7914 27 11.8008V27.2001C27 27.9427 26.7103 28.6549 26.1945 29.1799C25.6788 29.705 24.9793 30 24.25 30ZM17.375 4.80111V11.8008H24.25L17.375 4.80111Z" fill="#332E2D"/>
  <path d="M23.7 27.6667H8.72426C8.45699 27.6667 8.32314 27.3435 8.51213 27.1545L15.7879 19.8788C15.905 19.7616 16.095 19.7616 16.2121 19.8788L18.4545 22.1212C18.5717 22.2384 18.7616 22.2384 18.8788 22.1212L23.4879 17.5121C23.6769 17.3231 24 17.457 24 17.7243V27.3667C24 27.5324 23.8657 27.6667 23.7 27.6667Z" fill="white"/>
  <path d="M8.44804 13.781C8.94814 13.281 9.62641 13 10.3337 13C11.0409 13 11.7192 13.281 12.2193 13.781C12.7194 14.2811 13.0003 14.9594 13.0003 15.6667C13.0003 16.3739 12.7194 17.0522 12.2193 17.5523C11.7192 18.0524 11.0409 18.3333 10.3337 18.3333C9.62641 18.3333 8.94814 18.0524 8.44804 17.5523C7.94794 17.0522 7.66699 16.3739 7.66699 15.6667C7.66699 14.9594 7.94794 14.2811 8.44804 13.781Z" fill="white"/>
</svg>
