<svg width="32" height="32" viewBox="0 0 32 32" fill="none" xmlns="http://www.w3.org/2000/svg">
  <path d="M24.25 30H7.75C7.02065 30 6.32118 29.705 5.80546 29.1799C5.28973 28.6549 5 27.9427 5 27.2001V4.80111C5 4.05854 5.28973 3.34638 5.80546 2.8213C6.32118 2.29622 7.02065 2.00123 7.75 2.00123H17.375C17.3873 1.99959 17.3998 1.99959 17.4121 2.00123H17.4204C17.4334 2.00536 17.4467 2.00818 17.4603 2.00963C17.5813 2.01803 17.7009 2.04183 17.8164 2.08103H17.8741C17.8995 2.09911 17.9234 2.11924 17.9456 2.14123C18.0954 2.20904 18.2319 2.3039 18.3485 2.42121L26.5985 10.8208C26.7137 10.9395 26.8069 11.0785 26.8735 11.231C26.8855 11.2613 26.896 11.2921 26.9051 11.3234L26.9189 11.3626C26.9574 11.4788 26.9794 11.6006 26.9862 11.7238C26.9874 11.7378 26.9907 11.7514 26.9959 11.7644V11.7728C26.9981 11.782 26.9995 11.7914 27 11.8008V27.2001C27 27.9427 26.7103 28.6549 26.1945 29.1799C25.6788 29.705 24.9793 30 24.25 30ZM17.375 4.80111V11.8008H24.25L17.375 4.80111Z" fill="#332E2D"/>
  <path d="M6.70668 25L5.26207 20.0909H6.24964L7.21165 23.696H7.25959L8.22479 20.0909H9.21236L10.1712 23.68H10.2191L11.1747 20.0909H12.1623L10.7209 25H9.74609L8.74893 21.4556H8.67543L7.67827 25H6.70668ZM14.4955 25.0991C14.0118 25.0991 13.5953 24.9957 13.2459 24.7891C12.8986 24.5803 12.6301 24.2873 12.4405 23.9102C12.253 23.5309 12.1592 23.0866 12.1592 22.5774C12.1592 22.0746 12.253 21.6314 12.4405 21.2479C12.6301 20.8643 12.8943 20.565 13.2331 20.3498C13.574 20.1346 13.9724 20.027 14.4284 20.027C14.7054 20.027 14.9738 20.0728 15.2338 20.1644C15.4937 20.256 15.727 20.3999 15.9337 20.5959C16.1404 20.7919 16.3034 21.0465 16.4227 21.3597C16.542 21.6708 16.6017 22.049 16.6017 22.4943V22.8331H12.6993V22.1172H15.6653C15.6653 21.8658 15.6141 21.6431 15.5118 21.4492C15.4096 21.2532 15.2658 21.0987 15.0804 20.9858C14.8971 20.8729 14.6819 20.8164 14.4348 20.8164C14.1663 20.8164 13.9319 20.8825 13.7317 21.0146C13.5335 21.1445 13.3801 21.315 13.2714 21.5259C13.1649 21.7347 13.1116 21.9616 13.1116 22.2067V22.766C13.1116 23.0941 13.1692 23.3732 13.2842 23.6033C13.4014 23.8335 13.5644 24.0092 13.7732 24.1307C13.982 24.25 14.226 24.3097 14.5051 24.3097C14.6862 24.3097 14.8513 24.2841 15.0005 24.233C15.1496 24.1797 15.2785 24.1009 15.3872 23.9964C15.4959 23.892 15.579 23.7631 15.6365 23.6097L16.541 23.7727C16.4685 24.0391 16.3386 24.2724 16.1511 24.4727C15.9657 24.6708 15.7324 24.8253 15.4511 24.9361C15.172 25.0447 14.8535 25.0991 14.4955 25.0991ZM17.1987 25V18.4545H18.1543V20.8867H18.2118C18.2672 20.7844 18.3471 20.6662 18.4515 20.532C18.5559 20.3977 18.7008 20.2805 18.8862 20.1804C19.0715 20.0781 19.3166 20.027 19.6213 20.027C20.0176 20.027 20.3713 20.1271 20.6823 20.3274C20.9934 20.5277 21.2374 20.8164 21.4142 21.1935C21.5932 21.5707 21.6827 22.0245 21.6827 22.555C21.6827 23.0856 21.5943 23.5405 21.4174 23.9197C21.2406 24.2969 20.9977 24.5877 20.6887 24.7923C20.3798 24.9947 20.0272 25.0959 19.6308 25.0959C19.3326 25.0959 19.0886 25.0458 18.899 24.9457C18.7115 24.8455 18.5644 24.7283 18.4579 24.5941C18.3514 24.4599 18.2693 24.3406 18.2118 24.2362H18.1319V25H17.1987ZM18.1351 22.5455C18.1351 22.8906 18.1852 23.1932 18.2853 23.4531C18.3855 23.7131 18.5304 23.9165 18.72 24.0636C18.9096 24.2085 19.1419 24.2809 19.4167 24.2809C19.7022 24.2809 19.9409 24.2053 20.1326 24.054C20.3244 23.9006 20.4693 23.6928 20.5673 23.4308C20.6674 23.1687 20.7175 22.8736 20.7175 22.5455C20.7175 22.2216 20.6685 21.9308 20.5705 21.6729C20.4746 21.4151 20.3297 21.2116 20.1358 21.0625C19.9441 20.9134 19.7044 20.8388 19.4167 20.8388C19.1397 20.8388 18.9054 20.9102 18.7136 21.0529C18.524 21.1957 18.3801 21.3949 18.2821 21.6506C18.1841 21.9062 18.1351 22.2045 18.1351 22.5455ZM22.2158 26.8409V20.0909H23.149V20.8867H23.2289C23.2843 20.7844 23.3642 20.6662 23.4686 20.532C23.573 20.3977 23.7179 20.2805 23.9033 20.1804C24.0886 20.0781 24.3337 20.027 24.6383 20.027C25.0347 20.027 25.3883 20.1271 25.6994 20.3274C26.0105 20.5277 26.2545 20.8164 26.4313 21.1935C26.6103 21.5707 26.6998 22.0245 26.6998 22.555C26.6998 23.0856 26.6114 23.5405 26.4345 23.9197C26.2577 24.2969 26.0148 24.5877 25.7058 24.7923C25.3969 24.9947 25.0442 25.0959 24.6479 25.0959C24.3496 25.0959 24.1057 25.0458 23.916 24.9457C23.7285 24.8455 23.5815 24.7283 23.475 24.5941C23.3685 24.4599 23.2864 24.3406 23.2289 24.2362H23.1714V26.8409H22.2158ZM23.1522 22.5455C23.1522 22.8906 23.2023 23.1932 23.3024 23.4531C23.4025 23.7131 23.5474 23.9165 23.7371 24.0636C23.9267 24.2085 24.1589 24.2809 24.4338 24.2809C24.7193 24.2809 24.9579 24.2053 25.1497 24.054C25.3415 23.9006 25.4864 23.6928 25.5844 23.4308C25.6845 23.1687 25.7346 22.8736 25.7346 22.5455C25.7346 22.2216 25.6856 21.9308 25.5876 21.6729C25.4917 21.4151 25.3468 21.2116 25.1529 21.0625C24.9611 20.9134 24.7214 20.8388 24.4338 20.8388C24.1568 20.8388 23.9224 20.9102 23.7307 21.0529C23.541 21.1957 23.3972 21.3949 23.2992 21.6506C23.2012 21.9062 23.1522 22.2045 23.1522 22.5455Z" fill="white"/>
</svg>
