<svg width="32" height="32" viewBox="0 0 32 32" fill="none" xmlns="http://www.w3.org/2000/svg">
  <path d="M24.25 30H7.75C7.02065 30 6.32118 29.705 5.80546 29.1799C5.28973 28.6549 5 27.9427 5 27.2001V4.80111C5 4.05854 5.28973 3.34638 5.80546 2.8213C6.32118 2.29622 7.02065 2.00123 7.75 2.00123H17.375C17.3873 1.99959 17.3998 1.99959 17.4121 2.00123H17.4204C17.4334 2.00536 17.4467 2.00818 17.4603 2.00963C17.5813 2.01803 17.7009 2.04183 17.8164 2.08103H17.8741C17.8995 2.09911 17.9234 2.11924 17.9456 2.14123C18.0954 2.20904 18.2319 2.3039 18.3485 2.42121L26.5985 10.8208C26.7137 10.9395 26.8069 11.0785 26.8735 11.231C26.8855 11.2613 26.896 11.2921 26.9051 11.3234L26.9189 11.3626C26.9574 11.4788 26.9794 11.6006 26.9862 11.7238C26.9874 11.7378 26.9907 11.7514 26.9959 11.7644V11.7728C26.9981 11.782 26.9995 11.7914 27 11.8008V27.2001C27 27.9427 26.7103 28.6549 26.1945 29.1799C25.6788 29.705 24.9793 30 24.25 30ZM17.375 4.80111V11.8008H24.25L17.375 4.80111Z" fill="#332E2D"/>
  <path d="M17.25 24H12.25C11.8958 24 11.5992 23.888 11.36 23.664C11.12 23.4408 11 23.1639 11 22.8333V18.1667C11 17.8361 11.12 17.5588 11.36 17.3348C11.5992 17.1116 11.8958 17 12.25 17H17.25C17.6042 17 17.9013 17.1116 18.1413 17.3348C18.3804 17.5588 18.5 17.8361 18.5 18.1667V19.3333L20.0938 18.5458C20.3021 18.4486 20.505 18.4583 20.7025 18.575C20.9008 18.6917 21 18.8569 21 19.0708V21.9292C21 22.1431 20.9008 22.3083 20.7025 22.425C20.505 22.5417 20.3021 22.5514 20.0938 22.4542L18.5 21.6667V22.8333C18.5 23.1639 18.3804 23.4408 18.1413 23.664C17.9013 23.888 17.6042 24 17.25 24Z" fill="white"/>
</svg>
