<svg width="24" height="24" viewBox="0 0 24 24" fill="none" xmlns="http://www.w3.org/2000/svg">
  <path d="M18.1875 22.5H5.8125C5.26549 22.5 4.74089 22.2788 4.35409 21.885C3.9673 21.4911 3.75 20.957 3.75 20.4001V3.60083C3.75 3.0439 3.9673 2.50978 4.35409 2.11597C4.74089 1.72216 5.26549 1.50092 5.8125 1.50092H13.0312C13.0405 1.49969 13.0499 1.49969 13.0591 1.50092H13.0653C13.075 1.50402 13.085 1.50613 13.0952 1.50722C13.1859 1.51352 13.2757 1.53137 13.3623 1.56077H13.4056C13.4246 1.57434 13.4426 1.58943 13.4592 1.60592C13.5716 1.65678 13.6739 1.72793 13.7614 1.81591L19.9489 8.11563C20.0353 8.20465 20.1052 8.30888 20.1551 8.42327C20.1641 8.44597 20.172 8.4691 20.1788 8.49257L20.1892 8.52197C20.218 8.60911 20.2345 8.70046 20.2397 8.79285C20.2406 8.80331 20.243 8.81358 20.2469 8.8233V8.8296C20.2486 8.83649 20.2496 8.84352 20.25 8.8506V20.4001C20.25 20.957 20.0327 21.4911 19.6459 21.885C19.2591 22.2788 18.7345 22.5 18.1875 22.5ZM14.4998 14.1004V19.3501H15.4691V17.2082H16.9748V16.3284H15.4691V14.9834H17.1563V14.1004H14.4998ZM10.6841 14.1004V19.3501H11.9278C12.1854 19.3631 12.4426 19.317 12.6803 19.2152C12.9181 19.1135 13.1303 18.9586 13.3014 18.7622C13.6571 18.3001 13.8353 17.7219 13.8026 17.1358V16.2853C13.8266 15.7053 13.6434 15.1362 13.287 14.6831C12.9518 14.2946 12.462 14.0804 11.9536 14.1004H10.6841ZM6.84375 14.1004V19.3501H7.81313V17.5033H8.45869C8.88975 17.5274 9.3105 17.3647 9.61781 17.056C9.91057 16.7224 10.0625 16.2848 10.0406 15.838C10.0598 15.3805 9.90795 14.9326 9.61575 14.5844C9.473 14.4232 9.29698 14.2962 9.10031 14.2126C8.90364 14.1289 8.69122 14.0906 8.47828 14.1004H6.84375ZM13.0312 3.60083V8.8506H18.1875L13.0312 3.60083ZM11.9443 18.4703H11.6535V14.9834H12.0062C12.1294 14.976 12.2525 15.0002 12.3642 15.0537C12.4759 15.1073 12.5727 15.1885 12.6456 15.29C12.7972 15.6081 12.8621 15.9619 12.8333 16.3147V17.2271C12.8559 17.5631 12.7848 17.8991 12.627 18.1941C12.5437 18.2931 12.4381 18.3699 12.3192 18.418C12.2002 18.4662 12.0716 18.4841 11.9443 18.4703ZM8.47828 16.6203H7.81209V14.9834H8.48756C8.57052 14.9843 8.65188 15.0066 8.72403 15.0483C8.79619 15.09 8.85675 15.1497 8.90006 15.2217C9.01144 15.4097 9.06506 15.626 9.05475 15.8454C9.06768 16.0496 9.01442 16.2525 8.90316 16.4229C8.85259 16.4875 8.78776 16.539 8.71393 16.5733C8.6401 16.6076 8.55936 16.6237 8.47828 16.6203Z" fill="#FF5151"/>
</svg>
