<svg width="32" height="32" viewBox="0 0 32 32" fill="none" xmlns="http://www.w3.org/2000/svg">
  <path d="M24.25 30H7.75C7.02065 30 6.32118 29.705 5.80546 29.1799C5.28973 28.6549 5 27.9427 5 27.2001V4.80111C5 4.05854 5.28973 3.34638 5.80546 2.8213C6.32118 2.29622 7.02065 2.00123 7.75 2.00123H17.375C17.3873 1.99959 17.3998 1.99959 17.4121 2.00123H17.4204C17.4334 2.00536 17.4467 2.00818 17.4603 2.00963C17.5813 2.01803 17.7009 2.04183 17.8164 2.08103H17.8741C17.8995 2.09911 17.9234 2.11924 17.9456 2.14123C18.0954 2.20904 18.2319 2.3039 18.3485 2.42121L26.5985 10.8208C26.7137 10.9395 26.8069 11.0785 26.8735 11.231C26.8855 11.2613 26.896 11.2921 26.9051 11.3234L26.9189 11.3626C26.9574 11.4788 26.9794 11.6006 26.9862 11.7238C26.9874 11.7378 26.9907 11.7514 26.9959 11.7644V11.7728C26.9981 11.782 26.9995 11.7914 27 11.8008V27.2001C27 27.9427 26.7103 28.6549 26.1945 29.1799C25.6788 29.705 24.9793 30 24.25 30ZM17.375 4.80111V11.8008H24.25L17.375 4.80111Z" fill="#332E2D"/>
  <path d="M9.75568 25.1065C9.31534 25.1065 8.92235 24.9941 8.5767 24.7692C8.23343 24.5419 7.96354 24.2187 7.76705 23.7997C7.57292 23.3783 7.47585 22.8729 7.47585 22.2834C7.47585 21.6939 7.5741 21.1896 7.7706 20.7706C7.96946 20.3516 8.24171 20.0308 8.58736 19.8082C8.933 19.5857 9.32481 19.4744 9.76278 19.4744C10.1013 19.4744 10.3736 19.5312 10.5795 19.6449C10.7879 19.7562 10.9489 19.8864 11.0625 20.0355C11.1785 20.1847 11.2685 20.3161 11.3324 20.4297H11.3963V17.7273H12.4581V25H11.4212V24.1513H11.3324C11.2685 24.2673 11.1761 24.3999 11.0554 24.549C10.937 24.6982 10.7737 24.8284 10.5653 24.9396C10.357 25.0509 10.0871 25.1065 9.75568 25.1065ZM9.99006 24.201C10.2955 24.201 10.5535 24.1205 10.7642 23.9595C10.9773 23.7962 11.1383 23.5701 11.2472 23.2812C11.3584 22.9924 11.4141 22.6562 11.4141 22.2727C11.4141 21.8939 11.3596 21.5625 11.2507 21.2784C11.1418 20.9943 10.982 20.773 10.7713 20.6143C10.5606 20.4557 10.3002 20.3764 9.99006 20.3764C9.67045 20.3764 9.40412 20.4593 9.19105 20.625C8.97798 20.7907 8.817 21.0168 8.7081 21.3033C8.60156 21.5897 8.5483 21.9129 8.5483 22.2727C8.5483 22.6373 8.60275 22.9652 8.71165 23.2564C8.82055 23.5476 8.98153 23.7784 9.1946 23.9489C9.41004 24.117 9.67519 24.201 9.99006 24.201ZM15.7711 25.1101C15.2598 25.1101 14.8135 24.9929 14.4324 24.7585C14.0512 24.5241 13.7553 24.1963 13.5446 23.7749C13.3339 23.3535 13.2285 22.861 13.2285 22.2976C13.2285 21.7318 13.3339 21.237 13.5446 20.8132C13.7553 20.3894 14.0512 20.0604 14.4324 19.826C14.8135 19.5916 15.2598 19.4744 15.7711 19.4744C16.2825 19.4744 16.7288 19.5916 17.1099 19.826C17.4911 20.0604 17.787 20.3894 17.9977 20.8132C18.2084 21.237 18.3137 21.7318 18.3137 22.2976C18.3137 22.861 18.2084 23.3535 17.9977 23.7749C17.787 24.1963 17.4911 24.5241 17.1099 24.7585C16.7288 24.9929 16.2825 25.1101 15.7711 25.1101ZM15.7747 24.2188C16.1061 24.2188 16.3807 24.1312 16.5985 23.956C16.8163 23.7808 16.9773 23.5476 17.0815 23.2564C17.188 22.9652 17.2413 22.6444 17.2413 22.294C17.2413 21.946 17.188 21.6264 17.0815 21.3352C16.9773 21.0417 16.8163 20.8061 16.5985 20.6286C16.3807 20.451 16.1061 20.3622 15.7747 20.3622C15.4409 20.3622 15.1639 20.451 14.9437 20.6286C14.7259 20.8061 14.5637 21.0417 14.4572 21.3352C14.353 21.6264 14.301 21.946 14.301 22.294C14.301 22.6444 14.353 22.9652 14.4572 23.2564C14.5637 23.5476 14.7259 23.7808 14.9437 23.956C15.1639 24.1312 15.4409 24.2188 15.7747 24.2188ZM21.2965 25.1101C20.7686 25.1101 20.314 24.9905 19.9329 24.7514C19.5541 24.5099 19.2629 24.1773 19.0593 23.7536C18.8557 23.3298 18.7539 22.8445 18.7539 22.2976C18.7539 21.7436 18.8581 21.2547 19.0664 20.831C19.2747 20.4048 19.5683 20.0722 19.9471 19.8331C20.3259 19.594 20.7721 19.4744 21.2859 19.4744C21.7002 19.4744 22.0695 19.5514 22.3938 19.7053C22.7182 19.8568 22.9798 20.0698 23.1786 20.3445C23.3799 20.6191 23.4994 20.9399 23.5373 21.3068H22.5039C22.4471 21.0511 22.3169 20.831 22.1133 20.6463C21.9121 20.4616 21.6422 20.3693 21.3036 20.3693C21.0077 20.3693 20.7485 20.4474 20.5259 20.6037C20.3058 20.7576 20.1341 20.9777 20.011 21.2642C19.8879 21.5483 19.8263 21.8845 19.8263 22.2727C19.8263 22.6705 19.8867 23.0137 20.0075 23.3026C20.1282 23.5914 20.2987 23.8151 20.5188 23.9737C20.7414 24.1323 21.003 24.2116 21.3036 24.2116C21.5049 24.2116 21.6871 24.175 21.8505 24.1016C22.0162 24.0258 22.1547 23.9181 22.266 23.7784C22.3796 23.6387 22.4589 23.4706 22.5039 23.2741H23.5373C23.4994 23.6269 23.3846 23.9418 23.1928 24.2188C23.0011 24.4957 22.7442 24.7135 22.4222 24.8722C22.1026 25.0308 21.7274 25.1101 21.2965 25.1101Z" fill="white"/>
</svg>
