<svg width="336" height="321" viewBox="0 0 336 321" fill="none" xmlns="http://www.w3.org/2000/svg">
  <g opacity="0.3">
    <path d="M123.422 73.0973C123.422 73.443 123.318 73.7808 123.122 74.0681C122.926 74.3554 122.648 74.5791 122.323 74.711C121.997 74.8428 121.639 74.8769 121.294 74.8087C120.949 74.7406 120.633 74.5734 120.384 74.3284C120.136 74.0833 119.968 73.7714 119.9 73.4321C119.833 73.0929 119.869 72.7416 120.005 72.4228C120.141 72.1039 120.371 71.8319 120.664 71.6412C120.958 71.4505 121.302 71.3497 121.654 71.3516C121.887 71.3516 122.118 71.3968 122.333 71.4846C122.548 71.5725 122.743 71.7012 122.908 71.8635C123.072 72.0257 123.202 72.2182 123.29 72.4299C123.379 72.6417 123.423 72.8685 123.422 73.0973Z" fill="#B6B3BF"/>
    <path d="M1.72735 140.154C2.4203 140.154 2.98204 139.602 2.98204 138.922C2.98204 138.241 2.4203 137.689 1.72735 137.689C1.0344 137.689 0.472656 138.241 0.472656 138.922C0.472656 139.602 1.0344 140.154 1.72735 140.154Z" fill="#B6B3BF"/>
    <path d="M209.019 320.111C210.011 320.111 210.816 319.321 210.816 318.346C210.816 317.372 210.011 316.582 209.019 316.582C208.027 316.582 207.223 317.372 207.223 318.346C207.223 319.321 208.027 320.111 209.019 320.111Z" fill="#B6B3BF"/>
    <path d="M252.221 248.32C252.913 248.32 253.475 247.768 253.475 247.088C253.475 246.407 252.913 245.855 252.221 245.855C251.528 245.855 250.966 246.407 250.966 247.088C250.966 247.768 251.528 248.32 252.221 248.32Z" fill="#B6B3BF"/>
    <path d="M335.552 26.4178C335.552 26.6615 335.479 26.8998 335.341 27.1024C335.203 27.3051 335.007 27.463 334.778 27.5563C334.549 27.6495 334.296 27.6739 334.053 27.6264C333.809 27.5788 333.586 27.4615 333.41 27.2892C333.235 27.1168 333.115 26.8972 333.067 26.6582C333.019 26.4192 333.044 26.1714 333.138 25.9462C333.233 25.7211 333.394 25.5286 333.601 25.3932C333.807 25.2578 334.05 25.1855 334.298 25.1855C334.63 25.1855 334.95 25.3154 335.185 25.5465C335.42 25.7776 335.552 26.091 335.552 26.4178Z" fill="#B6B3BF"/>
    <path d="M96.5719 1.57015C96.5719 1.81387 96.4983 2.05212 96.3604 2.25476C96.2226 2.45741 96.0266 2.61535 95.7973 2.70862C95.5681 2.80188 95.3158 2.82629 95.0724 2.77874C94.829 2.7312 94.6055 2.61383 94.43 2.4415C94.2545 2.26916 94.135 2.0496 94.0866 1.81056C94.0382 1.57152 94.063 1.32375 94.158 1.09859C94.253 0.873421 94.4138 0.680965 94.6201 0.545563C94.8265 0.41016 95.069 0.337891 95.3172 0.337891C95.6492 0.340333 95.9669 0.470945 96.2017 0.701512C96.4364 0.932079 96.5694 1.24409 96.5719 1.57015Z" fill="#B6B3BF"/>
    <path d="M196.327 66.2282C197.02 66.2282 197.582 65.6765 197.582 64.9959C197.582 64.3154 197.02 63.7637 196.327 63.7637C195.634 63.7637 195.072 64.3154 195.072 64.9959C195.072 65.6765 195.634 66.2282 196.327 66.2282Z" fill="#B6B3BF"/>
  </g>
  <path d="M66.6112 66.2356C78.1131 66.2356 87.4372 57.0781 87.4372 45.7818C87.4372 34.4856 78.1131 25.3281 66.6112 25.3281C55.1093 25.3281 45.7852 34.4856 45.7852 45.7818C45.7852 57.0781 55.1093 66.2356 66.6112 66.2356Z" fill="#B6B3BF"/>
  <path opacity="0.7" d="M66.6112 66.2356C78.1131 66.2356 87.4372 57.0781 87.4372 45.7818C87.4372 34.4856 78.1131 25.3281 66.6112 25.3281C55.1093 25.3281 45.7852 34.4856 45.7852 45.7818C45.7852 57.0781 55.1093 66.2356 66.6112 66.2356Z" fill="white"/>
  <path opacity="0.2" d="M59.4347 30.3517C56.5985 30.3431 53.7905 30.9055 51.1841 32.004C47.9809 35.4617 46.0796 39.8924 45.7966 44.5588C45.5137 49.2253 46.8661 53.8463 49.6289 57.6529C52.3917 61.4596 56.3984 64.2224 60.9822 65.4818C65.5661 66.7412 70.4508 66.4212 74.8237 64.575C77.5349 61.6406 79.3203 57.9961 79.9631 54.0843C80.6059 50.1724 80.0785 46.1614 78.4448 42.5383C76.8112 38.9152 74.1416 35.8359 70.7603 33.6742C67.3789 31.5125 63.4313 30.3615 59.3967 30.361L59.4347 30.3517Z" fill="#B6B3BF"/>
  <path opacity="0.2" d="M57.3627 35.7557C57.3627 36.125 57.2512 36.486 57.0423 36.793C56.8334 37.1001 56.5365 37.3394 56.1891 37.4807C55.8417 37.622 55.4595 37.659 55.0907 37.5869C54.722 37.5149 54.3832 37.3371 54.1174 37.0759C53.8515 36.8148 53.6704 36.4822 53.5971 36.12C53.5237 35.7578 53.5614 35.3824 53.7053 35.0412C53.8491 34.7001 54.0928 34.4085 54.4054 34.2033C54.7181 33.9982 55.0856 33.8887 55.4616 33.8887C55.9658 33.8887 56.4493 34.0854 56.8058 34.4355C57.1624 34.7857 57.3627 35.2606 57.3627 35.7557Z" fill="#B6B3BF"/>
  <path opacity="0.2" d="M79.7582 33.8886C79.7582 34.2578 79.6467 34.6188 79.4378 34.9258C79.2289 35.2329 78.932 35.4722 78.5846 35.6135C78.2372 35.7548 77.855 35.7918 77.4862 35.7197C77.1175 35.6477 76.7787 35.4699 76.5129 35.2088C76.247 34.9476 76.0659 34.615 75.9926 34.2528C75.9192 33.8906 75.9569 33.5152 76.1008 33.174C76.2446 32.8329 76.4883 32.5413 76.8009 32.3361C77.1136 32.131 77.4811 32.0215 77.8571 32.0215C78.3613 32.0215 78.8448 32.2182 79.2014 32.5683C79.5579 32.9185 79.7582 33.3934 79.7582 33.8886Z" fill="#B6B3BF"/>
  <path opacity="0.2" d="M75.9542 47.2221C75.9542 47.8277 75.7714 48.4197 75.4288 48.9233C75.0862 49.4268 74.5993 49.8193 74.0296 50.0511C73.4599 50.2828 72.833 50.3434 72.2282 50.2253C71.6235 50.1071 71.0679 49.8155 70.6319 49.3873C70.1959 48.9591 69.899 48.4135 69.7787 47.8195C69.6584 47.2255 69.7201 46.6099 69.9561 46.0504C70.1921 45.4909 70.5917 45.0127 71.1044 44.6762C71.6171 44.3397 72.2199 44.1602 72.8365 44.1602C73.6634 44.1602 74.4564 44.4828 75.041 45.057C75.6257 45.6312 75.9542 46.4101 75.9542 47.2221Z" fill="#B6B3BF"/>
  <path opacity="0.2" d="M66.0502 55.9502C66.0502 56.7589 65.8061 57.5494 65.3486 58.2219C64.8911 58.8943 64.2409 59.4183 63.4802 59.7278C62.7194 60.0373 61.8823 60.1183 61.0747 59.9605C60.2671 59.8027 59.5253 59.4133 58.943 58.8415C58.3608 58.2696 57.9643 57.5411 57.8036 56.7479C57.643 55.9547 57.7254 55.1326 58.0406 54.3855C58.3557 53.6383 58.8893 52.9997 59.5739 52.5504C60.2586 52.1011 61.0635 51.8613 61.8869 51.8613C62.9911 51.8613 64.0501 52.2921 64.8308 53.0589C65.6116 53.8257 66.0502 54.8658 66.0502 55.9502Z" fill="#B6B3BF"/>
  <path d="M313.434 292.502C315.753 282.853 309.668 273.184 299.843 270.907C290.018 268.629 280.173 274.605 277.854 284.255C275.535 293.904 281.62 303.573 291.445 305.85C301.27 308.128 311.115 302.152 313.434 292.502Z" fill="#B6B3BF"/>
  <path opacity="0.3" d="M313.434 292.502C315.753 282.853 309.668 273.184 299.843 270.907C290.018 268.629 280.173 274.605 277.854 284.255C275.535 293.904 281.62 303.573 291.445 305.85C301.27 308.128 311.115 302.152 313.434 292.502Z" fill="white"/>
  <path opacity="0.4" d="M307.189 274.48C303.137 273.279 298.786 273.497 294.879 275.097C290.973 276.696 287.753 279.579 285.77 283.251C283.787 286.924 283.164 291.158 284.007 295.232C284.85 299.305 287.107 302.965 290.393 305.586C292.097 306.094 293.868 306.352 295.649 306.351C299.423 306.35 303.104 305.202 306.186 303.065C309.269 300.928 311.603 297.906 312.867 294.414C314.132 290.922 314.264 287.131 313.248 283.562C312.231 279.993 310.114 276.821 307.189 274.48Z" fill="#B6B3BF"/>
  <path d="M278.199 293.767C258.685 302.785 273.237 309.74 300.736 300.031C326.201 291.041 335.906 279.708 313.093 283.228C314.319 287.942 282.429 300.143 278.199 293.767Z" fill="#B6B3BF"/>
  <path d="M174.751 280.948C158.592 280.948 142.614 273.788 134.829 262.1C130.029 254.875 124.449 239.742 141.064 219.55L142.538 220.726C130.789 235.009 128.622 249.339 136.426 261.083C145.931 275.366 168.354 282.554 187.498 277.438C207.107 272.201 219.008 255.453 220.158 231.49C224.083 149.516 268.425 124.264 300.8 105.827C320.923 94.3722 335.457 86.1011 332.263 68.6347C331.816 66.2168 330.837 64.5458 329.25 63.5189C325.115 60.8397 317.035 62.6974 307.682 64.8352C289.328 69.0361 264.196 74.7866 249.225 49.7773L250.869 48.8438C265.127 72.6769 288.482 67.3277 307.254 63.0335C317.035 60.8023 325.476 58.8699 330.295 61.9786C332.339 63.2949 333.594 65.3766 334.097 68.3266C337.529 87.0719 321.74 96.0712 301.732 107.46C269.728 125.683 225.908 150.636 222.03 231.62C220.833 256.452 208.419 273.825 187.963 279.286C183.654 280.414 179.211 280.972 174.751 280.948Z" fill="#A199A4"/>
  <path opacity="0.2" d="M174.751 280.948C158.592 280.948 142.614 273.788 134.829 262.1C130.029 254.875 124.449 239.742 141.064 219.55L142.538 220.726C130.789 235.009 128.622 249.339 136.426 261.083C145.931 275.366 168.354 282.554 187.498 277.438C207.107 272.201 219.008 255.453 220.158 231.49C224.083 149.516 268.425 124.264 300.8 105.827C320.923 94.3722 335.457 86.1011 332.263 68.6347C331.816 66.2168 330.837 64.5458 329.25 63.5189C325.115 60.8397 317.035 62.6974 307.682 64.8352C289.328 69.0361 264.196 74.7866 249.225 49.7773L250.869 48.8438C265.127 72.6769 288.482 67.3277 307.254 63.0335C317.035 60.8023 325.476 58.8699 330.295 61.9786C332.339 63.2949 333.594 65.3766 334.097 68.3266C337.529 87.0719 321.74 96.0712 301.732 107.46C269.728 125.683 225.908 150.636 222.03 231.62C220.833 256.452 208.419 273.825 187.963 279.286C183.654 280.414 179.211 280.972 174.751 280.948Z" fill="white"/>
  <path d="M229.653 27.709C234.033 27.7338 238.384 28.4041 242.561 29.6974C242.561 29.6974 253.017 47.2198 254.253 51.234C253.816 55.1922 247.019 61.6803 247.019 61.6803L229.653 27.709Z" fill="#A199A4"/>
  <path opacity="0.3" d="M229.653 27.709C234.033 27.7338 238.384 28.4041 242.561 29.6974C242.561 29.6974 253.017 47.2198 254.253 51.234C253.816 55.1922 247.019 61.6803 247.019 61.6803L229.653 27.709Z" fill="white"/>
  <path d="M260.622 112.78C256.595 107.945 252.923 102.835 249.634 97.4887C248.835 96.1382 248.078 94.7628 247.362 93.3625C246.953 92.569 246.564 91.7755 246.183 90.9727C245.684 90.1914 245.297 89.3464 245.033 88.4615C243.893 76.6336 248.018 67.9237 244.083 58.4297L228.418 64.4416C228.418 64.4416 229.749 81.3573 232.79 91.5141C234.691 97.7968 238.95 103.23 243.066 108.262C244.349 109.83 245.584 111.445 246.868 113.023C248.151 114.6 249.444 115.879 250.67 117.364C252.523 119.613 253.132 121.77 251.734 124.421L251.497 124.841C251.098 125.532 252.961 126.316 254.139 124.841C256.04 122.433 255.774 122.582 257.428 120.528C258.436 119.287 259.586 117.933 260.584 116.794C261.065 116.234 261.332 115.527 261.339 114.794C261.346 114.061 261.093 113.349 260.622 112.78Z" fill="#A199A4"/>
  <path opacity="0.7" d="M260.622 112.78C256.595 107.945 252.923 102.835 249.634 97.4887C248.835 96.1382 248.078 94.7628 247.362 93.3625C246.953 92.569 246.564 91.7755 246.183 90.9727C245.684 90.1914 245.297 89.3464 245.033 88.4615C243.893 76.6336 248.018 67.9237 244.083 58.4297L228.418 64.4416C228.418 64.4416 229.749 81.3573 232.79 91.5141C234.691 97.7968 238.95 103.23 243.066 108.262C244.349 109.83 245.584 111.445 246.868 113.023C248.151 114.6 249.444 115.879 250.67 117.364C252.523 119.613 253.132 121.77 251.734 124.421L251.497 124.841C251.098 125.532 252.961 126.316 254.139 124.841C256.04 122.433 255.774 122.582 257.428 120.528C258.436 119.287 259.586 117.933 260.584 116.794C261.065 116.234 261.332 115.527 261.339 114.794C261.346 114.061 261.093 113.349 260.622 112.78Z" fill="white"/>
  <path opacity="0.3" d="M256.79 107.918C254.304 110.535 251.545 112.888 248.559 114.938C248.967 115.386 249.367 115.872 249.775 116.301C252.766 114.317 255.481 111.96 257.855 109.29L256.79 107.918Z" fill="#A199A4"/>
  <path opacity="0.3" d="M260.621 112.781L260.507 112.65C259.775 113.474 259.35 114.518 259.299 115.61C259.238 116.359 259.362 117.111 259.661 117.803L260.564 116.749C261.036 116.194 261.299 115.497 261.309 114.775C261.32 114.052 261.076 113.348 260.621 112.781Z" fill="#A199A4"/>
  <path d="M225.926 38.9117C224.228 41.409 222.191 43.6672 219.871 45.6238C218.585 46.7127 217.175 47.6524 215.67 48.4244C214.879 48.8224 214.059 49.1625 213.218 49.442L212.571 49.6474L212.362 49.7034L211.915 49.8247C211.64 49.8888 211.361 49.9325 211.079 49.9554C210.277 50.0157 209.471 49.9431 208.693 49.7407C207.713 49.4674 206.773 49.0688 205.899 48.5551C205.195 48.1511 204.513 47.7117 203.855 47.2388C202.667 46.3707 201.53 45.4356 200.452 44.4382C198.373 42.5034 196.465 40.3985 194.749 38.1462C194.418 37.7074 194.254 37.1691 194.285 36.6242C194.315 36.0793 194.539 35.5619 194.916 35.1613C195.293 34.7608 195.801 34.5022 196.352 34.4302C196.903 34.3581 197.462 34.4772 197.933 34.7668H198.009C200.252 36.1671 202.515 37.6421 204.72 38.9584C205.842 39.6025 206.925 40.256 207.999 40.7601C208.49 41.0122 208.994 41.2367 209.511 41.4323C209.832 41.5717 210.177 41.6539 210.528 41.675C210.585 41.675 210.528 41.6096 210.176 41.619C210.065 41.6125 209.954 41.6125 209.843 41.619L209.634 41.6656L209.948 41.5069C210.37 41.2838 210.78 41.0375 211.174 40.7694C212.025 40.1805 212.82 39.5182 213.55 38.7904C215.211 37.0812 216.766 35.2763 218.208 33.3852C218.998 32.5173 220.089 31.9705 221.269 31.8523C222.448 31.734 223.629 32.0528 224.582 32.746C225.534 33.4392 226.188 34.4568 226.416 35.5993C226.643 36.7417 226.428 37.9264 225.812 38.9211L225.926 38.9117Z" fill="#A199A4"/>
  <path opacity="0.7" d="M225.926 38.9117C224.228 41.409 222.191 43.6672 219.871 45.6238C218.585 46.7127 217.175 47.6524 215.67 48.4244C214.879 48.8224 214.059 49.1625 213.218 49.442L212.571 49.6474L212.362 49.7034L211.915 49.8247C211.64 49.8888 211.361 49.9325 211.079 49.9554C210.277 50.0157 209.471 49.9431 208.693 49.7407C207.713 49.4674 206.773 49.0688 205.899 48.5551C205.195 48.1511 204.513 47.7117 203.855 47.2388C202.667 46.3707 201.53 45.4356 200.452 44.4382C198.373 42.5034 196.465 40.3985 194.749 38.1462C194.418 37.7074 194.254 37.1691 194.285 36.6242C194.315 36.0793 194.539 35.5619 194.916 35.1613C195.293 34.7608 195.801 34.5022 196.352 34.4302C196.903 34.3581 197.462 34.4772 197.933 34.7668H198.009C200.252 36.1671 202.515 37.6421 204.72 38.9584C205.842 39.6025 206.925 40.256 207.999 40.7601C208.49 41.0122 208.994 41.2367 209.511 41.4323C209.832 41.5717 210.177 41.6539 210.528 41.675C210.585 41.675 210.528 41.6096 210.176 41.619C210.065 41.6125 209.954 41.6125 209.843 41.619L209.634 41.6656L209.948 41.5069C210.37 41.2838 210.78 41.0375 211.174 40.7694C212.025 40.1805 212.82 39.5182 213.55 38.7904C215.211 37.0812 216.766 35.2763 218.208 33.3852C218.998 32.5173 220.089 31.9705 221.269 31.8523C222.448 31.734 223.629 32.0528 224.582 32.746C225.534 33.4392 226.188 34.4568 226.416 35.5993C226.643 36.7417 226.428 37.9264 225.812 38.9211L225.926 38.9117Z" fill="white"/>
  <path d="M191.185 32.7685L192.297 34.6356C192.297 34.6356 193.143 37.0814 194.845 37.5295L199.464 36.0639L199.227 35.6811C198.637 34.8036 198.704 33.0952 198.904 31.6763C199.103 30.2573 198.362 30.2106 197.811 30.5654C197.42 31.0067 197.146 31.5357 197.012 32.1057C196.785 31.7974 196.534 31.5071 196.261 31.2375L194.854 29.8559C194.559 29.5726 194.166 29.4094 193.753 29.399C193.341 29.3886 192.94 29.5318 192.63 29.7999L191.489 30.7988C191.219 31.0446 191.041 31.3734 190.986 31.7313C190.931 32.0892 191.001 32.455 191.185 32.7685Z" fill="#A199A4"/>
  <path opacity="0.7" d="M191.185 32.7685L192.297 34.6356C192.297 34.6356 193.143 37.0814 194.845 37.5295L199.464 36.0639L199.227 35.6811C198.637 34.8036 198.704 33.0952 198.904 31.6763C199.103 30.2573 198.362 30.2106 197.811 30.5654C197.42 31.0067 197.146 31.5357 197.012 32.1057C196.785 31.7974 196.534 31.5071 196.261 31.2375L194.854 29.8559C194.559 29.5726 194.166 29.4094 193.753 29.399C193.341 29.3886 192.94 29.5318 192.63 29.7999L191.489 30.7988C191.219 31.0446 191.041 31.3734 190.986 31.7313C190.931 32.0892 191.001 32.455 191.185 32.7685Z" fill="white"/>
  <path d="M234.32 26.0431C229.196 27.377 224.288 29.4101 219.739 32.0831C219.03 32.5193 218.473 33.1582 218.143 33.914C217.814 34.6698 217.727 35.5066 217.895 36.312C219.73 45.1246 223.903 56.9244 228.408 64.4394L249.424 55.8975C249.567 52.2568 244.462 40.4756 239.263 29.0865C238.332 27.042 236.535 25.5204 234.32 26.0431Z" fill="#A199A4"/>
  <path opacity="0.8" d="M234.32 26.0431C229.196 27.377 224.288 29.4101 219.739 32.0831C219.03 32.5193 218.473 33.1582 218.143 33.914C217.814 34.6698 217.727 35.5066 217.895 36.312C219.73 45.1246 223.903 56.9244 228.408 64.4394L249.424 55.8975C249.567 52.2568 244.462 40.4756 239.263 29.0865C238.332 27.042 236.535 25.5204 234.32 26.0431Z" fill="white"/>
  <path opacity="0.3" d="M242.523 36.3059L238.351 34.9336C239.301 37.3328 242.656 40.3668 245.004 42.1498C244.244 40.2827 243.398 38.3223 242.523 36.3059Z" fill="#A199A4"/>
  <path d="M232.943 16.8047C231.204 13.556 227.449 11.9223 222.944 12.2864C219.141 12.6038 215.777 16.4126 216.176 18.4664C216.575 20.5201 219.769 21.3977 220.377 22.1072L217.744 23.9742C217.432 24.1953 217.169 24.4761 216.971 24.7997C216.772 25.1233 216.642 25.483 216.589 25.8572C216.536 26.2313 216.56 26.6122 216.661 26.9768C216.761 27.3415 216.936 27.6824 217.174 27.9791C218.286 29.3607 219.75 30.7797 220.596 31.8252C227.877 31.6385 233.266 28.9126 235.215 26.2894C234.483 22.966 234.635 20.0347 232.943 16.8047Z" fill="#A199A4"/>
  <path opacity="0.8" d="M232.943 16.8047C231.204 13.556 227.449 11.9223 222.944 12.2864C219.141 12.6038 215.777 16.4126 216.176 18.4664C216.575 20.5201 219.769 21.3977 220.377 22.1072L217.744 23.9742C217.432 24.1953 217.169 24.4761 216.971 24.7997C216.772 25.1233 216.642 25.483 216.589 25.8572C216.536 26.2313 216.56 26.6122 216.661 26.9768C216.761 27.3415 216.936 27.6824 217.174 27.9791C218.286 29.3607 219.75 30.7797 220.596 31.8252C227.877 31.6385 233.266 28.9126 235.215 26.2894C234.483 22.966 234.635 20.0347 232.943 16.8047Z" fill="white"/>
  <path d="M229.368 18.8191C229.885 20.121 229.997 21.5442 229.691 22.9088C229.384 24.2734 228.673 25.5181 227.646 26.4855C226.619 27.453 225.324 28.0998 223.923 28.3443C222.522 28.5887 221.079 28.4197 219.776 27.8587C218.472 27.2977 217.368 26.3699 216.602 25.1925C215.835 24.0151 215.442 22.6411 215.47 21.244C215.499 19.8469 215.949 18.4895 216.763 17.3434C217.577 16.1973 218.718 15.3139 220.043 14.8049C221.822 14.1244 223.803 14.1649 225.551 14.9175C227.3 15.6701 228.672 17.0734 229.368 18.8191Z" fill="#263238"/>
  <path d="M291.087 102.952C290.983 99.8811 290.84 100.152 290.755 97.5659C290.698 95.9789 290.688 94.2146 290.679 92.6929C290.675 91.9703 290.418 91.2709 289.951 90.713C289.483 90.1551 288.834 89.7729 288.112 89.6309C286.858 89.3789 285.593 89.1455 284.31 88.8841C282.666 88.5387 281.04 88.1653 279.434 87.7078C278.179 87.3531 276.944 86.961 275.717 86.5222C274.491 86.0835 273.113 85.5887 271.839 85.0099C270.337 84.3845 268.855 83.7123 267.391 83.0122C265.746 82.2467 264.121 81.4438 262.496 80.6317C256.241 70.4655 256.108 63.7627 249.397 55.9023L234.987 62.3064C234.987 62.3064 245.576 80.753 252.781 88.576C256.935 93.0756 263.446 95.1108 269.254 96.5857C273.446 97.6406 277.694 98.4528 281.943 99.2276C283.597 99.5264 285.394 99.6384 286.819 100.609C287.874 101.404 288.598 102.549 288.854 103.83C288.917 104.091 288.974 104.353 289.025 104.614C289.205 105.398 291.154 104.801 291.087 102.952Z" fill="#A199A4"/>
  <path opacity="0.8" d="M291.087 102.952C290.983 99.8811 290.84 100.152 290.755 97.5659C290.698 95.9789 290.688 94.2146 290.679 92.6929C290.675 91.9703 290.418 91.2709 289.951 90.713C289.483 90.1551 288.834 89.7729 288.112 89.6309C286.858 89.3789 285.593 89.1455 284.31 88.8841C282.666 88.5387 281.04 88.1653 279.434 87.7078C278.179 87.3531 276.944 86.961 275.717 86.5222C274.491 86.0835 273.113 85.5887 271.839 85.0099C270.337 84.3845 268.855 83.7123 267.391 83.0122C265.746 82.2467 264.121 81.4438 262.496 80.6317C256.241 70.4655 256.108 63.7627 249.397 55.9023L234.987 62.3064C234.987 62.3064 245.576 80.753 252.781 88.576C256.935 93.0756 263.446 95.1108 269.254 96.5857C273.446 97.6406 277.694 98.4528 281.943 99.2276C283.597 99.5264 285.394 99.6384 286.819 100.609C287.874 101.404 288.598 102.549 288.854 103.83C288.917 104.091 288.974 104.353 289.025 104.614C289.205 105.398 291.154 104.801 291.087 102.952Z" fill="white"/>
  <path opacity="0.3" d="M283.777 88.7636C283.206 88.6422 282.636 88.5209 282.056 88.3809C282.104 91.6109 280.564 97.1747 280.003 98.8644L281.809 99.2005C282.992 95.8377 283.656 92.3196 283.777 88.7636Z" fill="#A199A4"/>
  <path opacity="0.3" d="M290.716 92.6905C290.714 91.9692 290.458 91.2709 289.992 90.7132C289.526 90.1554 288.879 89.7724 288.16 89.6285L287.209 89.4512C287.362 90.5124 287.915 91.4786 288.758 92.1584C289.301 92.6511 289.951 93.0151 290.659 93.2226C290.716 93.0546 290.716 92.8679 290.716 92.6905Z" fill="#A199A4"/>
  <path d="M228.028 18.8771C228.408 20.296 226.792 21.7804 225.509 20.5574C224.311 19.2963 223.001 18.1434 221.593 17.1127C220.272 16.3005 222.03 14.8816 224.112 15.4323C225 15.6515 225.821 16.0796 226.503 16.6797C227.185 17.2799 227.709 18.034 228.028 18.8771Z" fill="white"/>
  <path d="M228.135 63.9868C227.469 64.2295 228.686 65.3497 228.686 65.3497C228.686 65.3497 241.993 60.8781 250.073 56.2758C250.092 55.9971 250.044 55.718 249.931 55.4614C249.819 55.2049 249.646 54.9784 249.426 54.8008C242.511 58.2554 235.403 61.3223 228.135 63.9868Z" fill="#A199A4"/>
  <path opacity="0.5" d="M228.135 63.9868C227.469 64.2295 228.686 65.3497 228.686 65.3497C228.686 65.3497 241.993 60.8781 250.073 56.2758C250.092 55.9971 250.044 55.718 249.931 55.4614C249.819 55.2049 249.646 54.9784 249.426 54.8008C242.511 58.2554 235.403 61.3223 228.135 63.9868Z" fill="white"/>
  <path d="M237.924 25.4293C240.547 26.7363 243.009 28.1086 245.528 29.6302C246.754 30.3957 247.971 31.1706 249.178 32.0107C250.385 32.8509 251.583 33.7098 252.79 34.6806L253.237 35.0447L253.798 35.5488C254.132 35.8425 254.449 36.1541 254.748 36.4824C255.052 36.8091 255.309 37.1265 255.556 37.4159C255.803 37.7053 256.069 38.0507 256.288 38.3494C257.174 39.5496 257.992 40.7961 258.74 42.0836C260.214 44.5802 261.485 47.1865 262.543 49.8786C262.738 50.3872 262.748 50.9466 262.571 51.4618C262.394 51.9769 262.041 52.4159 261.572 52.7041C261.102 52.9924 260.546 53.1121 259.997 53.0429C259.448 52.9736 258.94 52.7198 258.56 52.3244L258.512 52.2684C256.611 50.28 254.777 48.1889 252.933 46.2378C251.089 44.2867 249.216 42.3076 247.667 41.4394C245.509 40.1231 243.104 38.8069 240.718 37.5186L233.532 33.5977C232.418 33.0184 231.584 32.028 231.213 30.8446C230.842 29.6611 230.965 28.3814 231.555 27.2871C232.145 26.1927 233.154 25.3733 234.359 25.0092C235.564 24.645 236.867 24.766 237.981 25.3453L237.924 25.4293Z" fill="#A199A4"/>
  <path opacity="0.8" d="M237.924 25.4293C240.547 26.7363 243.009 28.1086 245.528 29.6302C246.754 30.3957 247.971 31.1706 249.178 32.0107C250.385 32.8509 251.583 33.7098 252.79 34.6806L253.237 35.0447L253.798 35.5488C254.132 35.8425 254.449 36.1541 254.748 36.4824C255.052 36.8091 255.309 37.1265 255.556 37.4159C255.803 37.7053 256.069 38.0507 256.288 38.3494C257.174 39.5496 257.992 40.7961 258.74 42.0836C260.214 44.5802 261.485 47.1865 262.543 49.8786C262.738 50.3872 262.748 50.9466 262.571 51.4618C262.394 51.9769 262.041 52.4159 261.572 52.7041C261.102 52.9924 260.546 53.1121 259.997 53.0429C259.448 52.9736 258.94 52.7198 258.56 52.3244L258.512 52.2684C256.611 50.28 254.777 48.1889 252.933 46.2378C251.089 44.2867 249.216 42.3076 247.667 41.4394C245.509 40.1231 243.104 38.8069 240.718 37.5186L233.532 33.5977C232.418 33.0184 231.584 32.028 231.213 30.8446C230.842 29.6611 230.965 28.3814 231.555 27.2871C232.145 26.1927 233.154 25.3733 234.359 25.0092C235.564 24.645 236.867 24.766 237.981 25.3453L237.924 25.4293Z" fill="white"/>
  <path d="M264.795 54.5399L263.987 52.5514C263.987 52.5514 263.54 50.0122 261.934 49.3027L257.181 50.0402L257.343 50.451C257.78 51.3845 257.447 53.0929 257.02 54.4558C256.592 55.8188 257.314 55.9962 257.923 55.7255C258.265 55.5761 258.598 54.9693 258.959 54.3251C259.136 54.6497 259.336 54.9616 259.558 55.2587L260.727 56.8364C260.971 57.1633 261.332 57.3873 261.738 57.4635C262.143 57.5397 262.563 57.4624 262.913 57.2471L264.206 56.4349C264.508 56.2316 264.731 55.9332 264.838 55.5888C264.946 55.2444 264.93 54.8745 264.795 54.5399Z" fill="#A199A4"/>
  <path opacity="0.8" d="M264.795 54.5399L263.987 52.5514C263.987 52.5514 263.54 50.0122 261.934 49.3027L257.181 50.0402L257.343 50.451C257.78 51.3845 257.447 53.0929 257.02 54.4558C256.592 55.8188 257.314 55.9962 257.923 55.7255C258.265 55.5761 258.598 54.9693 258.959 54.3251C259.136 54.6497 259.336 54.9616 259.558 55.2587L260.727 56.8364C260.971 57.1633 261.332 57.3873 261.738 57.4635C262.143 57.5397 262.563 57.4624 262.913 57.2471L264.206 56.4349C264.508 56.2316 264.731 55.9332 264.838 55.5888C264.946 55.2444 264.93 54.8745 264.795 54.5399Z" fill="white"/>
  <path opacity="0.3" d="M233.914 36.166L232.754 36.2594L225.635 53.1377C226.024 53.1652 226.415 53.1337 226.794 53.0443C226.794 53.0443 236.072 49.6462 238.876 48.3766C236.994 44.5585 233.914 36.166 233.914 36.166Z" fill="#A199A4"/>
  <path d="M220.918 40.5914C221.783 45.0034 223.389 49.2435 225.671 53.138C229.15 51.9618 234.948 49.74 237.761 48.4704C235.87 44.4888 234.192 40.4131 232.733 36.2598C229.758 36.4558 223.228 38.911 220.918 40.5914Z" fill="white"/>
  <path opacity="0.3" d="M227.981 44.2429C227.842 44.6994 227.568 45.1052 227.194 45.4089C226.82 45.7126 226.363 45.9006 225.881 45.9491C225.398 45.9975 224.912 45.9043 224.483 45.6812C224.054 45.4581 223.702 45.1152 223.472 44.6957C223.242 44.2763 223.144 43.7992 223.19 43.3249C223.236 42.8505 223.424 42.4002 223.731 42.031C224.037 41.6617 224.448 41.39 224.912 41.2503C225.376 41.1107 225.872 41.1092 226.336 41.2463C226.959 41.4298 227.482 41.8485 227.79 42.4104C228.098 42.9723 228.167 43.6314 227.981 44.2429Z" fill="#A199A4"/>
  <path opacity="0.6" d="M229.796 41.0306C229.759 41.1864 229.675 41.3276 229.555 41.4356C229.434 41.5436 229.284 41.6134 229.122 41.6358C228.961 41.6582 228.797 41.6322 228.651 41.5612C228.505 41.4902 228.384 41.3775 228.304 41.2379C228.225 41.0982 228.19 40.9382 228.204 40.7789C228.219 40.6195 228.282 40.4682 228.386 40.3448C228.49 40.2214 228.629 40.1318 228.786 40.0875C228.942 40.0433 229.109 40.0466 229.264 40.097C229.456 40.1575 229.618 40.2875 229.717 40.4608C229.816 40.6341 229.844 40.8377 229.796 41.0306Z" fill="#A199A4"/>
  <path opacity="0.6" d="M231.925 40.2177C231.903 40.326 231.858 40.4285 231.793 40.5187C231.728 40.6089 231.644 40.6848 231.548 40.7415C231.451 40.7981 231.344 40.8344 231.232 40.8479C231.12 40.8614 231.007 40.8518 230.899 40.8199C230.792 40.7879 230.692 40.7342 230.607 40.6621C230.521 40.5901 230.452 40.5014 230.404 40.4017C230.355 40.3019 230.329 40.1933 230.326 40.0829C230.322 39.9724 230.343 39.8626 230.385 39.7603C230.416 39.6615 230.466 39.5696 230.532 39.4898C230.599 39.41 230.681 39.3439 230.774 39.2954C230.866 39.2468 230.968 39.2167 231.073 39.2068C231.177 39.1968 231.283 39.2073 231.383 39.2375C231.587 39.298 231.758 39.4349 231.859 39.6183C231.96 39.8018 231.984 40.0172 231.925 40.2177Z" fill="#A199A4"/>
  <path opacity="0.5" d="M234.91 47.49L226.118 50.8974L225.595 49.1984L234.378 45.791L234.91 47.49Z" fill="#A199A4"/>
  <path d="M61.2305 205.734L77.8647 222.071L124.44 178.97C108.386 172.948 77.1708 190.041 61.2305 205.734Z" fill="#263238"/>
  <path d="M119.241 262.678C113.927 257.45 102.606 246.341 102.606 246.341L146.492 200.598C152.585 216.328 135.181 247.013 119.241 262.678Z" fill="#263238"/>
  <path d="M182.906 159.711L201.051 125.348L166.063 143.187C154.824 148.912 144.447 156.138 135.228 164.659L75.582 219.803L104.887 248.583L161.034 190.004C169.715 180.947 177.075 170.753 182.906 159.711Z" fill="#B6B3BF"/>
  <path opacity="0.6" d="M182.906 159.711L201.051 125.348L166.063 143.187C154.824 148.912 144.447 156.138 135.228 164.659L75.582 219.803L104.887 248.583L161.034 190.004C169.715 180.947 177.075 170.753 182.906 159.711Z" fill="white"/>
  <path d="M145.646 191.804C152.418 191.804 157.907 186.412 157.907 179.761C157.907 173.11 152.418 167.719 145.646 167.719C138.874 167.719 133.384 173.11 133.384 179.761C133.384 186.412 138.874 191.804 145.646 191.804Z" fill="white"/>
  <path d="M145.645 187.505C149.997 187.505 153.525 184.04 153.525 179.766C153.525 175.492 149.997 172.027 145.645 172.027C141.294 172.027 137.766 175.492 137.766 179.766C137.766 184.04 141.294 187.505 145.645 187.505Z" fill="#B6B3BF"/>
  <path opacity="0.3" d="M114.802 238.237L86.1055 210.054L109.602 188.34L136.911 215.17L114.802 238.237Z" fill="#B6B3BF"/>
  <path d="M67.7222 231.52C46.2404 233.228 39.1209 246.736 36.6876 264.688C35.4519 273.846 34.9006 283.116 27.0777 288.474C26.6071 288.789 26.2528 289.244 26.0678 289.772C25.8828 290.301 25.8772 290.874 26.0516 291.406C26.2261 291.938 26.5713 292.4 27.0356 292.723C27.4999 293.046 28.0583 293.213 28.6271 293.198C57.4661 292.311 70.916 278.448 72.6079 272.66C72.1638 275.686 71.3698 278.652 70.2411 281.501C70.0337 282.004 69.9931 282.558 70.1251 283.085C70.2571 283.611 70.555 284.084 70.9763 284.434C71.3977 284.785 71.921 284.996 72.4716 285.038C73.0223 285.079 73.5723 284.949 74.0432 284.666C82.1322 279.69 92.2838 270.523 92.9587 255.651C87.0084 247.371 67.7222 231.52 67.7222 231.52Z" fill="#B6B3BF"/>
  <path opacity="0.2" d="M67.7222 231.52C46.2404 233.228 39.1209 246.736 36.6876 264.688C35.4519 273.846 34.9006 283.116 27.0777 288.474C26.6071 288.789 26.2528 289.244 26.0678 289.772C25.8828 290.301 25.8772 290.874 26.0516 291.406C26.2261 291.938 26.5713 292.4 27.0356 292.723C27.4999 293.046 28.0583 293.213 28.6271 293.198C57.4661 292.311 70.916 278.448 72.6079 272.66C72.1638 275.686 71.3698 278.652 70.2411 281.501C70.0337 282.004 69.9931 282.558 70.1251 283.085C70.2571 283.611 70.555 284.084 70.9763 284.434C71.3977 284.785 71.921 284.996 72.4716 285.038C73.0223 285.079 73.5723 284.949 74.0432 284.666C82.1322 279.69 92.2838 270.523 92.9587 255.651C87.0084 247.371 67.7222 231.52 67.7222 231.52Z" fill="white"/>
  <path d="M96.2958 262.027L61.8867 228.233L80.2129 224.34L100.259 244.028L96.2958 262.027Z" fill="#B6B3BF"/>
</svg>


