<svg width="272" height="193" viewBox="0 0 272 193" fill="none" xmlns="http://www.w3.org/2000/svg">
<g opacity="0.1">
<path d="M13.4749 200.235C14.0029 199.989 14.545 199.919 15.1012 200.022C15.6669 200.117 16.1572 200.371 16.572 200.786C17.1849 201.399 17.4677 202.134 17.4206 202.992C17.3828 203.841 17.0293 204.6 16.3599 205.269L12.5274 209.102L4.89062 201.465L8.68072 197.675C9.3124 197.043 10.0101 196.713 10.7738 196.685C11.528 196.647 12.188 196.911 12.7537 197.477C13.0082 197.731 13.2062 198.014 13.3476 198.325C13.489 198.637 13.5739 198.957 13.6022 199.287C13.621 199.608 13.5786 199.923 13.4749 200.235ZM11.7778 198.877C11.4667 198.566 11.1179 198.424 10.7313 198.453C10.3353 198.472 9.97237 198.646 9.64238 198.976L7.19579 201.423L9.21812 203.445L11.6647 200.998C12.0041 200.659 12.1833 200.301 12.2021 199.923C12.221 199.527 12.0795 199.179 11.7778 198.877ZM15.0871 204.279C15.3228 204.044 15.4878 203.784 15.5821 203.501C15.6764 203.2 15.6905 202.912 15.6245 202.639C15.5585 202.365 15.4218 202.125 15.2144 201.917C14.9975 201.701 14.7524 201.559 14.479 201.493C14.1961 201.418 13.9086 201.432 13.6163 201.536C13.3335 201.63 13.0695 201.8 12.8244 202.045L10.3212 204.548L12.5698 206.797L15.0871 204.279Z" fill="#8A63E6"/>
<path d="M19.5167 186.839L20.4784 185.877L28.1151 193.514L27.111 194.518L25.8241 193.486C25.8901 194.268 25.7817 195.037 25.4988 195.791C25.216 196.526 24.7681 197.2 24.1553 197.813C23.0334 198.935 21.7181 199.496 20.2097 199.496C18.6917 199.487 17.3624 198.912 16.2216 197.771C15.0808 196.63 14.5104 195.305 14.5104 193.797C14.5009 192.279 15.0572 190.959 16.1791 189.837C16.8014 189.215 17.4849 188.767 18.2298 188.494C18.984 188.211 19.7524 188.102 20.5349 188.168L19.5167 186.839ZM20.2662 197.771C21.341 197.771 22.2838 197.365 23.0946 196.555C23.9055 195.744 24.3062 194.806 24.2967 193.74C24.2873 192.675 23.8772 191.737 23.0664 190.926C22.2555 190.115 21.3175 189.705 20.2521 189.696C19.1867 189.686 18.2486 190.087 17.4378 190.898C16.627 191.708 16.2263 192.656 16.2357 193.74C16.2451 194.806 16.6505 195.739 17.4519 196.54C18.2533 197.342 19.1914 197.752 20.2662 197.771Z" fill="#8A63E6"/>
<path d="M35.4438 186.185L29.4051 185.379L28.3162 186.468L31.7386 189.89L30.5365 191.093L22.8997 183.456L24.1018 182.254L27.199 185.351L28.302 184.248L27.5667 178.789L29.0233 177.332L29.9001 183.781L36.9429 184.686L35.4438 186.185Z" fill="#8A63E6"/>
<path d="M36.8353 169.52L37.7969 168.559L45.4337 176.195L44.4296 177.199L43.1427 176.167C43.2087 176.95 43.1002 177.718 42.8174 178.472C42.5346 179.208 42.0867 179.882 41.4739 180.495C40.352 181.617 39.0367 182.178 37.5282 182.178C36.0103 182.168 34.681 181.593 33.5402 180.452C32.3994 179.311 31.829 177.987 31.829 176.478C31.8195 174.96 32.3758 173.64 33.4977 172.518C34.12 171.896 34.8035 171.448 35.5483 171.175C36.3026 170.892 37.071 170.784 37.8535 170.85L36.8353 169.52ZM37.5848 180.452C38.6596 180.452 39.6024 180.047 40.4132 179.236C41.2241 178.425 41.6248 177.487 41.6153 176.422C41.6059 175.356 41.1958 174.418 40.385 173.607C39.5741 172.797 38.636 172.386 37.5707 172.377C36.5053 172.368 35.5672 172.768 34.7564 173.579C33.9456 174.39 33.5449 175.337 33.5543 176.422C33.5637 177.487 33.9691 178.42 34.7705 179.222C35.5719 180.023 36.51 180.433 37.5848 180.452Z" fill="#8A63E6"/>
<path d="M45.4792 160.876L46.653 159.703L54.2898 167.339L53.116 168.513L49.736 165.133L45.6489 169.22L49.0289 172.6L47.8551 173.774L40.2183 166.137L41.3921 164.963L44.5176 168.089L48.6046 164.002L45.4792 160.876Z" fill="#8A63E6"/>
<path d="M60.2571 161.711C59.5123 162.456 58.6637 162.965 57.7115 163.239C56.7593 163.493 55.8023 163.489 54.8406 163.225C53.8884 162.951 53.0399 162.442 52.2951 161.697C51.1543 160.556 50.5839 159.232 50.5839 157.723C50.5839 156.196 51.1496 154.867 52.2809 153.735C53.186 152.83 54.2184 152.297 55.3781 152.137C56.5471 151.967 57.6644 152.18 58.7297 152.774L57.5418 153.962C56.8253 153.698 56.0993 153.65 55.3639 153.82C54.6379 153.98 53.9968 154.339 53.4406 154.895C52.658 155.677 52.2762 156.606 52.2951 157.681C52.3139 158.737 52.724 159.666 53.5254 160.467C54.0534 160.995 54.6521 161.358 55.3215 161.556C55.9814 161.744 56.6461 161.759 57.3155 161.598C57.9849 161.419 58.5789 161.07 59.0974 160.552C59.6537 159.995 60.0072 159.359 60.1581 158.643C60.3089 157.907 60.2477 157.167 59.9742 156.422L61.1905 155.206C61.8033 156.29 62.0249 157.426 61.8551 158.614C61.6854 159.783 61.1528 160.816 60.2571 161.711Z" fill="#8A63E6"/>
<path d="M63.469 142.887L64.1337 142.222L71.7704 149.859L70.6391 150.99L65.1802 145.531L66.1843 155.445L65.4913 156.138L57.8546 148.501L59.0001 147.355L64.4165 152.772L63.469 142.887Z" fill="#8A63E6"/>
<path d="M68.5632 137.792L72.0704 134.285L79.7072 141.922L78.5192 143.11L75.5918 140.182L73.6826 142.092L74.7998 146.829L73.4705 148.159L72.2825 143.152C71.6226 143.492 70.9532 143.614 70.2744 143.52C69.5955 143.426 68.9969 143.119 68.4783 142.601C67.7995 141.922 67.4695 141.13 67.4884 140.225C67.4978 139.31 67.856 138.5 68.5632 137.792ZM72.2118 141.243L74.4321 139.023L72.0421 136.633L69.8218 138.853C69.4258 139.249 69.2184 139.683 69.1996 140.154C69.1713 140.616 69.3363 141.026 69.6945 141.385C70.0434 141.733 70.4535 141.898 70.9249 141.879C71.3869 141.851 71.8159 141.639 72.2118 141.243Z" fill="#8A63E6"/>
<path d="M109.475 109.235C110.003 108.989 110.545 108.919 111.101 109.022C111.667 109.117 112.157 109.371 112.572 109.786C113.185 110.399 113.468 111.134 113.421 111.992C113.383 112.841 113.029 113.6 112.36 114.269L108.527 118.102L100.891 110.465L104.681 106.675C105.312 106.043 106.01 105.713 106.774 105.685C107.528 105.647 108.188 105.911 108.754 106.477C109.008 106.731 109.206 107.014 109.348 107.325C109.489 107.637 109.574 107.957 109.602 108.287C109.621 108.608 109.579 108.923 109.475 109.235ZM107.778 107.877C107.467 107.566 107.118 107.424 106.731 107.453C106.335 107.472 105.972 107.646 105.642 107.976L103.196 110.423L105.218 112.445L107.665 109.998C108.004 109.659 108.183 109.301 108.202 108.923C108.221 108.527 108.08 108.179 107.778 107.877ZM111.087 113.279C111.323 113.044 111.488 112.784 111.582 112.501C111.676 112.2 111.691 111.912 111.625 111.639C111.559 111.365 111.422 111.125 111.214 110.917C110.998 110.701 110.752 110.559 110.479 110.493C110.196 110.418 109.909 110.432 109.616 110.536C109.333 110.63 109.069 110.8 108.824 111.045L106.321 113.548L108.57 115.797L111.087 113.279Z" fill="#8A63E6"/>
<path d="M115.517 95.8389L116.478 94.8772L124.115 102.514L123.111 103.518L121.824 102.486C121.89 103.268 121.782 104.037 121.499 104.791C121.216 105.526 120.768 106.2 120.155 106.813C119.033 107.935 117.718 108.496 116.21 108.496C114.692 108.487 113.362 107.912 112.222 106.771C111.081 105.63 110.51 104.305 110.51 102.797C110.501 101.279 111.057 99.9589 112.179 98.837C112.801 98.2148 113.485 97.7669 114.23 97.4935C114.984 97.2107 115.752 97.1022 116.535 97.1682L115.517 95.8389ZM116.266 106.771C117.341 106.771 118.284 106.365 119.095 105.555C119.905 104.744 120.306 103.806 120.297 102.74C120.287 101.675 119.877 100.737 119.066 99.9259C118.256 99.1151 117.317 98.705 116.252 98.6956C115.187 98.6862 114.249 99.0869 113.438 99.8977C112.627 100.708 112.226 101.656 112.236 102.74C112.245 103.806 112.651 104.739 113.452 105.54C114.253 106.342 115.191 106.752 116.266 106.771Z" fill="#8A63E6"/>
<path d="M131.444 95.1852L125.405 94.3792L124.316 95.4681L127.739 98.8905L126.536 100.093L118.9 92.4558L120.102 91.2537L123.199 94.3509L124.302 93.2478L123.567 87.7889L125.023 86.3323L125.9 92.7811L132.943 93.6862L131.444 95.1852Z" fill="#8A63E6"/>
<path d="M132.835 78.5203L133.797 77.5586L141.434 85.1954L140.43 86.1995L139.143 85.1671C139.209 85.9496 139.1 86.718 138.817 87.4723C138.535 88.2077 138.087 88.8818 137.474 89.4946C136.352 90.6165 135.037 91.1775 133.528 91.1775C132.01 91.1681 130.681 90.593 129.54 89.4522C128.399 88.3114 127.829 86.9867 127.829 85.4782C127.82 83.9603 128.376 82.6404 129.498 81.5184C130.12 80.8962 130.804 80.4483 131.548 80.1749C132.303 79.8921 133.071 79.7836 133.854 79.8496L132.835 78.5203ZM133.585 89.4522C134.66 89.4522 135.602 89.0467 136.413 88.2359C137.224 87.4251 137.625 86.487 137.615 85.4216C137.606 84.3563 137.196 83.4182 136.385 82.6074C135.574 81.7965 134.636 81.3864 133.571 81.377C132.505 81.3676 131.567 81.7683 130.756 82.5791C129.946 83.3899 129.545 84.3374 129.554 85.4216C129.564 86.487 129.969 87.4204 130.771 88.2218C131.572 89.0232 132.51 89.4333 133.585 89.4522Z" fill="#8A63E6"/>
<path d="M141.479 69.8764L142.653 68.7026L150.29 76.3393L149.116 77.5131L145.736 74.1331L141.649 78.2202L145.029 81.6002L143.855 82.774L136.218 75.1372L137.392 73.9634L140.518 77.0888L144.605 73.0018L141.479 69.8764Z" fill="#8A63E6"/>
<path d="M156.257 70.7114C155.512 71.4562 154.664 71.9653 153.712 72.2387C152.759 72.4933 151.802 72.4886 150.841 72.2246C149.888 71.9512 149.04 71.4421 148.295 70.6973C147.154 69.5565 146.584 68.2318 146.584 66.7233C146.584 65.196 147.15 63.8666 148.281 62.7352C149.186 61.8301 150.218 61.2974 151.378 61.1372C152.547 60.9675 153.664 61.1796 154.73 61.7736L153.542 62.9615C152.825 62.6975 152.099 62.6504 151.364 62.8201C150.638 62.9804 149.997 63.3386 149.441 63.8949C148.658 64.6774 148.276 65.6061 148.295 66.6809C148.314 67.7368 148.724 68.6655 149.525 69.4669C150.053 69.9949 150.652 70.3578 151.321 70.5558C151.981 70.7444 152.646 70.7585 153.316 70.5983C153.985 70.4191 154.579 70.0703 155.097 69.5517C155.654 68.9955 156.007 68.3591 156.158 67.6426C156.309 66.9072 156.248 66.1671 155.974 65.4222L157.19 64.206C157.803 65.2902 158.025 66.4263 157.855 67.6143C157.685 68.7834 157.153 69.8157 156.257 70.7114Z" fill="#8A63E6"/>
<path d="M159.469 51.8866L160.134 51.2219L167.77 58.8586L166.639 59.99L161.18 54.5311L162.184 64.4448L161.491 65.1377L153.855 57.501L155 56.3555L160.417 61.7719L159.469 51.8866Z" fill="#8A63E6"/>
<path d="M164.563 46.7924L168.07 43.2852L175.707 50.9219L174.519 52.1098L171.592 49.1824L169.683 51.0916L170.8 55.8292L169.47 57.1586L168.283 52.1523C167.623 52.4917 166.953 52.6143 166.274 52.52C165.596 52.4257 164.997 52.1193 164.478 51.6007C163.799 50.9219 163.47 50.13 163.488 49.2249C163.498 48.3103 163.856 47.4995 164.563 46.7924ZM168.212 50.2431L170.432 48.0228L168.042 45.6328L165.822 47.8531C165.426 48.249 165.218 48.6827 165.2 49.1541C165.171 49.6161 165.336 50.0262 165.695 50.3845C166.043 50.7333 166.453 50.8983 166.925 50.8795C167.387 50.8512 167.816 50.6391 168.212 50.2431Z" fill="#8A63E6"/>
<path d="M205.475 17.2346C206.003 16.9894 206.545 16.9187 207.101 17.0224C207.667 17.1167 208.157 17.3713 208.572 17.7861C209.185 18.3989 209.468 19.1343 209.421 19.9923C209.383 20.8408 209.029 21.5998 208.36 22.2692L204.527 26.1017L196.891 18.4649L200.681 14.6748C201.312 14.0432 202.01 13.7132 202.774 13.6849C203.528 13.6472 204.188 13.9112 204.754 14.4769C205.008 14.7314 205.206 15.0143 205.348 15.3254C205.489 15.6365 205.574 15.9571 205.602 16.287C205.621 16.6076 205.579 16.9234 205.475 17.2346ZM203.778 15.8769C203.467 15.5658 203.118 15.4244 202.731 15.4527C202.335 15.4715 201.972 15.6459 201.642 15.9759L199.196 18.4225L201.218 20.4448L203.665 17.9983C204.004 17.6588 204.183 17.3006 204.202 16.9234C204.221 16.5275 204.08 16.1786 203.778 15.8769ZM207.087 21.2792C207.323 21.0435 207.488 20.7842 207.582 20.5014C207.676 20.1997 207.691 19.9122 207.625 19.6387C207.559 19.3653 207.422 19.1249 207.214 18.9175C206.998 18.7006 206.752 18.5592 206.479 18.4932C206.196 18.4178 205.909 18.4319 205.616 18.5357C205.333 18.6299 205.069 18.7996 204.824 19.0448L202.321 21.5479L204.57 23.7965L207.087 21.2792Z" fill="#8A63E6"/>
<path d="M211.517 3.83888L212.478 2.87721L220.115 10.514L219.111 11.5181L217.824 10.4857C217.89 11.2682 217.782 12.0366 217.499 12.7909C217.216 13.5262 216.768 14.2003 216.155 14.8132C215.033 15.9351 213.718 16.4961 212.21 16.4961C210.692 16.4867 209.362 15.9115 208.222 14.7707C207.081 13.6299 206.51 12.3053 206.51 10.7968C206.501 9.27889 207.057 7.95895 208.179 6.83701C208.801 6.21476 209.485 5.76692 210.23 5.49351C210.984 5.21066 211.752 5.10224 212.535 5.16824L211.517 3.83888ZM212.266 14.7707C213.341 14.7707 214.284 14.3653 215.095 13.5545C215.905 12.7437 216.306 11.8056 216.297 10.7402C216.287 9.67487 215.877 8.73677 215.066 7.92596C214.256 7.11514 213.317 6.70502 212.252 6.69559C211.187 6.68616 210.249 7.08686 209.438 7.89767C208.627 8.70849 208.226 9.65601 208.236 10.7402C208.245 11.8056 208.651 12.739 209.452 13.5404C210.253 14.3418 211.191 14.7519 212.266 14.7707Z" fill="#8A63E6"/>
<path d="M227.444 3.18525L221.405 2.37915L220.316 3.46809L223.739 6.89049L222.536 8.09257L214.9 0.455814L216.102 -0.746265L219.199 2.35086L220.302 1.24777L219.567 -4.21109L221.023 -5.66773L221.9 0.781082L228.943 1.68618L227.444 3.18525Z" fill="#8A63E6"/>
<path d="M228.835 -13.4797L229.797 -14.4414L237.434 -6.80463L236.43 -5.80053L235.143 -6.83291C235.209 -6.05038 235.1 -5.28199 234.817 -4.52774C234.535 -3.79235 234.087 -3.11824 233.474 -2.50542C232.352 -1.38347 231.037 -0.822502 229.528 -0.822502C228.01 -0.83193 226.681 -1.40705 225.54 -2.54784C224.399 -3.68864 223.829 -5.01329 223.829 -6.52178C223.82 -8.0397 224.376 -9.35964 225.498 -10.4816C226.12 -11.1038 226.804 -11.5517 227.548 -11.8251C228.303 -12.1079 229.071 -12.2163 229.854 -12.1504L228.835 -13.4797ZM229.585 -2.54784C230.66 -2.54784 231.602 -2.95325 232.413 -3.76406C233.224 -4.57488 233.625 -5.51298 233.615 -6.57835C233.606 -7.64372 233.196 -8.58182 232.385 -9.39264C231.574 -10.2035 230.636 -10.6136 229.571 -10.623C228.505 -10.6324 227.567 -10.2317 226.756 -9.42092C225.946 -8.61011 225.545 -7.66258 225.554 -6.57835C225.564 -5.51298 225.969 -4.5796 226.771 -3.77821C227.572 -2.97682 228.51 -2.5667 229.585 -2.54784Z" fill="#8A63E6"/>
<path d="M237.479 -22.1237L238.653 -23.2974L246.29 -15.6607L245.116 -14.4869L241.736 -17.8669L237.649 -13.7798L241.029 -10.3998L239.855 -9.22602L232.218 -16.8628L233.392 -18.0366L236.518 -14.9112L240.605 -18.9982L237.479 -22.1237Z" fill="#8A63E6"/>
<path d="M252.257 -21.2886C251.512 -20.5438 250.664 -20.0347 249.711 -19.7613C248.759 -19.5067 247.802 -19.5114 246.841 -19.7754C245.888 -20.0488 245.04 -20.5579 244.295 -21.3027C243.154 -22.4435 242.584 -23.7682 242.584 -25.2767C242.584 -26.804 243.15 -28.1334 244.281 -29.2648C245.186 -30.1699 246.218 -30.7026 247.378 -30.8628C248.547 -31.0325 249.664 -30.8204 250.73 -30.2264L249.542 -29.0385C248.825 -29.3025 248.099 -29.3496 247.364 -29.1799C246.638 -29.0196 245.997 -28.6614 245.441 -28.1051C244.658 -27.3226 244.276 -26.3939 244.295 -25.3191C244.314 -24.2632 244.724 -23.3345 245.525 -22.5331C246.053 -22.0051 246.652 -21.6422 247.321 -21.4442C247.981 -21.2556 248.646 -21.2415 249.316 -21.4017C249.985 -21.5809 250.579 -21.9297 251.097 -22.4483C251.654 -23.0045 252.007 -23.6409 252.158 -24.3574C252.309 -25.0928 252.248 -25.8329 251.974 -26.5778L253.19 -27.794C253.803 -26.7098 254.025 -25.5737 253.855 -24.3857C253.685 -23.2166 253.153 -22.1843 252.257 -21.2886Z" fill="#8A63E6"/>
<path d="M255.469 -40.1134L256.134 -40.7781L263.77 -33.1414L262.639 -32.01L257.18 -37.4689L258.184 -27.5552L257.491 -26.8623L249.855 -34.499L251 -35.6445L256.417 -30.2281L255.469 -40.1134Z" fill="#8A63E6"/>
<path d="M260.563 -45.2076L264.07 -48.7148L271.707 -41.0781L270.519 -39.8902L267.592 -42.8176L265.683 -40.9084L266.8 -36.1708L265.47 -34.8414L264.283 -39.8477C263.623 -39.5083 262.953 -39.3857 262.274 -39.48C261.596 -39.5743 260.997 -39.8807 260.478 -40.3993C259.799 -41.0781 259.469 -41.87 259.488 -42.7751C259.498 -43.6897 259.856 -44.5005 260.563 -45.2076ZM264.212 -41.7569L266.432 -43.9772L264.042 -46.3672L261.822 -44.1469C261.426 -43.751 261.218 -43.3173 261.2 -42.8459C261.171 -42.3839 261.336 -41.9738 261.695 -41.6155C262.043 -41.2667 262.453 -41.1017 262.925 -41.1205C263.387 -41.1488 263.816 -41.3609 264.212 -41.7569Z" fill="#8A63E6"/>
<path d="M-4.5251 59.2346C-3.99712 58.9894 -3.45501 58.9187 -2.89875 59.0224C-2.33307 59.1167 -1.84281 59.3713 -1.42797 59.7861C-0.815145 60.3989 -0.532302 61.1343 -0.579442 61.9923C-0.617154 62.8408 -0.970708 63.5998 -1.6401 64.2692L-5.47262 68.1017L-13.1094 60.4649L-9.31928 56.6749C-8.6876 56.0432 -7.98992 55.7132 -7.22625 55.6849C-6.472 55.6472 -5.81203 55.9112 -5.24635 56.4769C-4.99179 56.7314 -4.7938 57.0143 -4.65238 57.3254C-4.51096 57.6365 -4.4261 57.9571 -4.39782 58.287C-4.37896 58.6076 -4.42139 58.9234 -4.5251 59.2346ZM-6.22215 57.8769C-6.53328 57.5658 -6.88212 57.4244 -7.26867 57.4527C-7.66465 57.4715 -8.02763 57.6459 -8.35762 57.9759L-10.8042 60.4225L-8.78188 62.4448L-6.33529 59.9983C-5.99588 59.6588 -5.81675 59.3006 -5.79789 58.9234C-5.77903 58.5275 -5.92046 58.1786 -6.22215 57.8769ZM-2.9129 63.2792C-2.67719 63.0435 -2.5122 62.7842 -2.41792 62.5014C-2.32364 62.1997 -2.3095 61.9122 -2.37549 61.6387C-2.44149 61.3653 -2.5782 61.1249 -2.78562 60.9175C-3.00246 60.7006 -3.24759 60.5592 -3.52101 60.4932C-3.80385 60.4178 -4.09141 60.4319 -4.38368 60.5357C-4.66652 60.6299 -4.93051 60.7996 -5.17564 61.0448L-7.67879 63.5479L-5.4302 65.7965L-2.9129 63.2792Z" fill="#8A63E6"/>
<path d="M1.51669 45.8389L2.47835 44.8772L10.1151 52.514L9.11101 53.5181L7.82408 52.4857C7.89008 53.2682 7.78165 54.0366 7.49881 54.7908C7.21597 55.5262 6.76813 56.2004 6.15531 56.8132C5.03336 57.9351 3.71815 58.4961 2.20965 58.4961C0.691728 58.4867 -0.637632 57.9116 -1.77843 56.7708C-2.91923 55.63 -3.48963 54.3053 -3.48963 52.7968C-3.49906 51.2789 -2.9428 49.959 -1.82086 48.837C-1.1986 48.2148 -0.515067 47.7669 0.229753 47.4935C0.983999 47.2107 1.75239 47.1022 2.53492 47.1682L1.51669 45.8389ZM2.26622 56.7708C3.34102 56.7708 4.28383 56.3653 5.09465 55.5545C5.90546 54.7437 6.30616 53.8056 6.29673 52.7402C6.2873 51.6749 5.87718 50.7368 5.06636 49.926C4.25555 49.1151 3.31745 48.705 2.25208 48.6956C1.1867 48.6862 0.248608 49.0869 -0.562207 49.8977C-1.37302 50.7085 -1.77372 51.656 -1.76429 52.7402C-1.75486 53.8056 -1.34945 54.739 -0.548065 55.5404C0.253323 56.3418 1.19142 56.7519 2.26622 56.7708Z" fill="#8A63E6"/>
<path d="M17.4438 45.1852L11.4051 44.3791L10.3162 45.4681L13.7386 48.8905L12.5365 50.0926L4.89975 42.4558L6.10183 41.2537L9.19896 44.3509L10.302 43.2478L9.56666 37.7889L11.0233 36.3323L11.9001 42.7811L18.9429 43.6862L17.4438 45.1852Z" fill="#8A63E6"/>
<path d="M18.8353 28.5203L19.7969 27.5586L27.4337 35.1954L26.4296 36.1995L25.1427 35.1671C25.2087 35.9496 25.1002 36.718 24.8174 37.4723C24.5346 38.2077 24.0867 38.8818 23.4739 39.4946C22.352 40.6165 21.0367 41.1775 19.5282 41.1775C18.0103 41.1681 16.681 40.593 15.5402 39.4522C14.3994 38.3114 13.829 36.9867 13.829 35.4782C13.8195 33.9603 14.3758 32.6404 15.4977 31.5184C16.12 30.8962 16.8035 30.4483 17.5483 30.1749C18.3026 29.8921 19.071 29.7837 19.8535 29.8496L18.8353 28.5203ZM19.5848 39.4522C20.6596 39.4522 21.6024 39.0467 22.4132 38.2359C23.2241 37.4251 23.6248 36.487 23.6153 35.4216C23.6059 34.3563 23.1958 33.4182 22.385 32.6074C21.5741 31.7965 20.636 31.3864 19.5707 31.377C18.5053 31.3676 17.5672 31.7683 16.7564 32.5791C15.9456 33.3899 15.5449 34.3374 15.5543 35.4216C15.5637 36.487 15.9691 37.4204 16.7705 38.2218C17.5719 39.0232 18.51 39.4333 19.5848 39.4522Z" fill="#8A63E6"/>
<path d="M27.4792 19.8764L28.653 18.7026L36.2898 26.3393L35.116 27.5131L31.736 24.1331L27.6489 28.2202L31.0289 31.6002L29.8551 32.774L22.2183 25.1372L23.3921 23.9634L26.5176 27.0888L30.6046 23.0018L27.4792 19.8764Z" fill="#8A63E6"/>
<path d="M42.2571 20.7114C41.5123 21.4562 40.6637 21.9653 39.7115 22.2387C38.7593 22.4933 37.8023 22.4886 36.8406 22.2246C35.8884 21.9512 35.0399 21.4421 34.2951 20.6973C33.1543 19.5565 32.5839 18.2318 32.5839 16.7233C32.5839 15.196 33.1496 13.8666 34.2809 12.7352C35.186 11.8301 36.2184 11.2974 37.378 11.1372C38.5471 10.9675 39.6644 11.1796 40.7297 11.7736L39.5418 12.9615C38.8253 12.6975 38.0993 12.6504 37.3639 12.8201C36.6379 12.9804 35.9968 13.3386 35.4406 13.8949C34.658 14.6774 34.2762 15.6061 34.2951 16.6809C34.3139 17.7368 34.724 18.6655 35.5254 19.4669C36.0534 19.9949 36.6521 20.3578 37.3215 20.5558C37.9814 20.7444 38.6461 20.7585 39.3155 20.5983C39.9849 20.4191 40.5789 20.0703 41.0974 19.5517C41.6537 18.9955 42.0072 18.3591 42.1581 17.6426C42.3089 16.9072 42.2477 16.1671 41.9742 15.4222L43.1905 14.206C43.8033 15.2902 44.0249 16.4263 43.8551 17.6143C43.6854 18.7834 43.1528 19.8157 42.2571 20.7114Z" fill="#8A63E6"/>
<path d="M45.469 1.88656L46.1337 1.22188L53.7704 8.85863L52.6391 9.99L47.1802 4.53114L48.1843 14.4448L47.4913 15.1377L39.8546 7.50098L41.0001 6.35547L46.4165 11.7719L45.469 1.88656Z" fill="#8A63E6"/>
<path d="M50.5632 -3.2076L54.0704 -6.71484L61.7072 0.921909L60.5192 2.10985L57.5918 -0.817574L55.6826 1.09161L56.7998 5.82923L55.4705 7.15859L54.2825 2.15228C53.6226 2.49169 52.9532 2.61425 52.2744 2.51997C51.5955 2.42569 50.9969 2.11928 50.4783 1.60073C49.7995 0.921908 49.4695 0.12995 49.4884 -0.775146C49.4978 -1.68967 49.8561 -2.50049 50.5632 -3.2076ZM54.2118 0.243088L56.4321 -1.97723L54.0421 -4.36725L51.8218 -2.14693C51.4258 -1.75095 51.2184 -1.31726 51.1996 -0.845856C51.1713 -0.383879 51.3363 0.0262427 51.6945 0.38451C52.0434 0.733349 52.4535 0.898338 52.9249 0.879482C53.3869 0.851198 53.8159 0.639068 54.2118 0.243088Z" fill="#8A63E6"/>
<path d="M-4.5251 138.235C-3.99712 137.989 -3.45501 137.919 -2.89875 138.022C-2.33307 138.117 -1.84281 138.371 -1.42797 138.786C-0.815145 139.399 -0.532302 140.134 -0.579442 140.992C-0.617154 141.841 -0.970708 142.6 -1.6401 143.269L-5.47262 147.102L-13.1094 139.465L-9.31928 135.675C-8.6876 135.043 -7.98992 134.713 -7.22625 134.685C-6.472 134.647 -5.81203 134.911 -5.24635 135.477C-4.99179 135.731 -4.7938 136.014 -4.65238 136.325C-4.51096 136.637 -4.4261 136.957 -4.39782 137.287C-4.37896 137.608 -4.42139 137.923 -4.5251 138.235ZM-6.22215 136.877C-6.53328 136.566 -6.88212 136.424 -7.26867 136.453C-7.66465 136.472 -8.02763 136.646 -8.35762 136.976L-10.8042 139.423L-8.78188 141.445L-6.33529 138.998C-5.99588 138.659 -5.81675 138.301 -5.79789 137.923C-5.77903 137.527 -5.92046 137.179 -6.22215 136.877ZM-2.9129 142.279C-2.67719 142.044 -2.5122 141.784 -2.41792 141.501C-2.32364 141.2 -2.3095 140.912 -2.37549 140.639C-2.44149 140.365 -2.5782 140.125 -2.78562 139.917C-3.00246 139.701 -3.24759 139.559 -3.52101 139.493C-3.80385 139.418 -4.09141 139.432 -4.38368 139.536C-4.66652 139.63 -4.93051 139.8 -5.17564 140.045L-7.67879 142.548L-5.4302 144.797L-2.9129 142.279Z" fill="#8A63E6"/>
<path d="M1.51669 124.839L2.47835 123.877L10.1151 131.514L9.11101 132.518L7.82408 131.486C7.89008 132.268 7.78165 133.037 7.49881 133.791C7.21597 134.526 6.76813 135.2 6.15531 135.813C5.03336 136.935 3.71815 137.496 2.20965 137.496C0.691728 137.487 -0.637632 136.912 -1.77843 135.771C-2.91923 134.63 -3.48963 133.305 -3.48963 131.797C-3.49906 130.279 -2.9428 128.959 -1.82086 127.837C-1.1986 127.215 -0.515067 126.767 0.229753 126.494C0.983999 126.211 1.75239 126.102 2.53492 126.168L1.51669 124.839ZM2.26622 135.771C3.34102 135.771 4.28383 135.365 5.09465 134.555C5.90546 133.744 6.30616 132.806 6.29673 131.74C6.2873 130.675 5.87718 129.737 5.06636 128.926C4.25555 128.115 3.31745 127.705 2.25208 127.696C1.1867 127.686 0.248608 128.087 -0.562207 128.898C-1.37302 129.708 -1.77372 130.656 -1.76429 131.74C-1.75486 132.806 -1.34945 133.739 -0.548065 134.54C0.253323 135.342 1.19142 135.752 2.26622 135.771Z" fill="#8A63E6"/>
<path d="M17.4438 124.185L11.4051 123.379L10.3162 124.468L13.7386 127.89L12.5365 129.093L4.89975 121.456L6.10183 120.254L9.19896 123.351L10.302 122.248L9.56666 116.789L11.0233 115.332L11.9001 121.781L18.9429 122.686L17.4438 124.185Z" fill="#8A63E6"/>
<path d="M18.8353 107.52L19.7969 106.559L27.4337 114.195L26.4296 115.199L25.1427 114.167C25.2087 114.95 25.1002 115.718 24.8174 116.472C24.5346 117.208 24.0867 117.882 23.4739 118.495C22.352 119.617 21.0367 120.178 19.5282 120.178C18.0103 120.168 16.681 119.593 15.5402 118.452C14.3994 117.311 13.829 115.987 13.829 114.478C13.8195 112.96 14.3758 111.64 15.4977 110.518C16.12 109.896 16.8035 109.448 17.5483 109.175C18.3026 108.892 19.071 108.784 19.8535 108.85L18.8353 107.52ZM19.5848 118.452C20.6596 118.452 21.6024 118.047 22.4132 117.236C23.2241 116.425 23.6248 115.487 23.6153 114.422C23.6059 113.356 23.1958 112.418 22.385 111.607C21.5741 110.797 20.636 110.386 19.5707 110.377C18.5053 110.368 17.5672 110.768 16.7564 111.579C15.9456 112.39 15.5449 113.337 15.5543 114.422C15.5637 115.487 15.9691 116.42 16.7705 117.222C17.5719 118.023 18.51 118.433 19.5848 118.452Z" fill="#8A63E6"/>
<path d="M27.4792 98.8763L28.653 97.7025L36.2898 105.339L35.116 106.513L31.736 103.133L27.6489 107.22L31.0289 110.6L29.8551 111.774L22.2183 104.137L23.3921 102.963L26.5176 106.089L30.6046 102.002L27.4792 98.8763Z" fill="#8A63E6"/>
<path d="M42.2571 99.7114C41.5123 100.456 40.6637 100.965 39.7115 101.239C38.7593 101.493 37.8023 101.489 36.8406 101.225C35.8884 100.951 35.0399 100.442 34.2951 99.6973C33.1543 98.5565 32.5839 97.2318 32.5839 95.7233C32.5839 94.196 33.1496 92.8666 34.2809 91.7352C35.186 90.8301 36.2184 90.2975 37.378 90.1372C38.5471 89.9675 39.6644 90.1796 40.7297 90.7736L39.5418 91.9615C38.8253 91.6975 38.0993 91.6504 37.3639 91.8201C36.6379 91.9804 35.9968 92.3386 35.4406 92.8949C34.658 93.6774 34.2762 94.6061 34.2951 95.6809C34.3139 96.7368 34.724 97.6655 35.5254 98.4669C36.0534 98.9949 36.6521 99.3578 37.3215 99.5558C37.9814 99.7444 38.6461 99.7585 39.3155 99.5983C39.9849 99.4191 40.5789 99.0703 41.0974 98.5517C41.6537 97.9955 42.0072 97.3591 42.1581 96.6425C42.3089 95.9072 42.2477 95.1671 41.9742 94.4222L43.1905 93.206C43.8033 94.2902 44.0249 95.4263 43.8551 96.6143C43.6854 97.7834 43.1528 98.8157 42.2571 99.7114Z" fill="#8A63E6"/>
<path d="M45.469 80.8866L46.1337 80.2219L53.7704 87.8586L52.6391 88.99L47.1802 83.5311L48.1843 93.4448L47.4913 94.1377L39.8546 86.501L41.0001 85.3555L46.4165 90.7719L45.469 80.8866Z" fill="#8A63E6"/>
<path d="M50.5632 75.7924L54.0704 72.2852L61.7072 79.9219L60.5192 81.1098L57.5918 78.1824L55.6826 80.0916L56.7998 84.8292L55.4705 86.1586L54.2825 81.1523C53.6226 81.4917 52.9532 81.6143 52.2744 81.52C51.5955 81.4257 50.9969 81.1193 50.4783 80.6007C49.7995 79.9219 49.4695 79.13 49.4884 78.2249C49.4978 77.3103 49.8561 76.4995 50.5632 75.7924ZM54.2118 79.2431L56.4321 77.0228L54.0421 74.6328L51.8218 76.8531C51.4258 77.249 51.2184 77.6827 51.1996 78.1541C51.1713 78.6161 51.3363 79.0262 51.6945 79.3845C52.0434 79.7333 52.4535 79.8983 52.9249 79.8795C53.3869 79.8512 53.8159 79.6391 54.2118 79.2431Z" fill="#8A63E6"/>
<path d="M95.4749 39.2349C96.0029 38.9898 96.545 38.9191 97.1012 39.0228C97.6669 39.1171 98.1572 39.3716 98.572 39.7865C99.1849 40.3993 99.4677 41.1347 99.4206 41.9926C99.3828 42.8412 99.0293 43.6001 98.3599 44.2695L94.5274 48.102L86.8906 40.4653L90.6807 36.6752C91.3124 36.0435 92.0101 35.7135 92.7738 35.6852C93.528 35.6475 94.188 35.9115 94.7537 36.4772C95.0082 36.7318 95.2062 37.0146 95.3476 37.3257C95.489 37.6368 95.5739 37.9574 95.6022 38.2874C95.621 38.6079 95.5786 38.9238 95.4749 39.2349ZM93.7778 37.8773C93.4667 37.5661 93.1179 37.4247 92.7313 37.453C92.3353 37.4719 91.9724 37.6463 91.6424 37.9763L89.1958 40.4229L91.2181 42.4452L93.6647 39.9986C94.0041 39.6592 94.1833 39.3009 94.2021 38.9238C94.221 38.5278 94.0795 38.179 93.7778 37.8773ZM97.0871 43.2796C97.3228 43.0439 97.4878 42.7846 97.5821 42.5017C97.6764 42.2 97.6905 41.9125 97.6245 41.6391C97.5585 41.3657 97.4218 41.1252 97.2144 40.9178C96.9975 40.701 96.7524 40.5596 96.479 40.4936C96.1962 40.4181 95.9086 40.4323 95.6163 40.536C95.3335 40.6303 95.0695 40.8 94.8244 41.0451L92.3212 43.5483L94.5698 45.7969L97.0871 43.2796Z" fill="#8A63E6"/>
<path d="M101.517 25.8392L102.478 24.8775L110.115 32.5143L109.111 33.5184L107.824 32.486C107.89 33.2685 107.782 34.0369 107.499 34.7912C107.216 35.5266 106.768 36.2007 106.155 36.8135C105.033 37.9355 103.718 38.4964 102.21 38.4964C100.692 38.487 99.3624 37.9119 98.2216 36.7711C97.0808 35.6303 96.5104 34.3056 96.5104 32.7971C96.5009 31.2792 97.0572 29.9593 98.1791 28.8373C98.8014 28.2151 99.4849 27.7673 100.23 27.4938C100.984 27.211 101.752 27.1026 102.535 27.1686L101.517 25.8392ZM102.266 36.7711C103.341 36.7711 104.284 36.3657 105.095 35.5549C105.905 34.744 106.306 33.806 106.297 32.7406C106.287 31.6752 105.877 30.7371 105.066 29.9263C104.256 29.1155 103.317 28.7054 102.252 28.6959C101.187 28.6865 100.249 29.0872 99.4378 29.898C98.627 30.7088 98.2263 31.6563 98.2357 32.7406C98.2451 33.806 98.6505 34.7393 99.4519 35.5407C100.253 36.3421 101.191 36.7522 102.266 36.7711Z" fill="#8A63E6"/>
<path d="M117.444 25.1856L111.405 24.3795L110.316 25.4684L113.739 28.8908L112.537 30.0929L104.9 22.4562L106.102 21.2541L109.199 24.3512L110.302 23.2481L109.567 17.7892L111.023 16.3326L111.9 22.7814L118.943 23.6865L117.444 25.1856Z" fill="#8A63E6"/>
<path d="M118.835 8.52062L119.797 7.55896L127.434 15.1957L126.43 16.1998L125.143 15.1674C125.209 15.95 125.1 16.7183 124.817 17.4726C124.535 18.208 124.087 18.8821 123.474 19.4949C122.352 20.6169 121.037 21.1778 119.528 21.1778C118.01 21.1684 116.681 20.5933 115.54 19.4525C114.399 18.3117 113.829 16.987 113.829 15.4786C113.82 13.9606 114.376 12.6407 115.498 11.5188C116.12 10.8965 116.804 10.4487 117.548 10.1753C118.303 9.89241 119.071 9.78399 119.854 9.84998L118.835 8.52062ZM119.585 19.4525C120.66 19.4525 121.602 19.0471 122.413 18.2363C123.224 17.4255 123.625 16.4874 123.615 15.422C123.606 14.3566 123.196 13.4185 122.385 12.6077C121.574 11.7969 120.636 11.3868 119.571 11.3773C118.505 11.3679 117.567 11.7686 116.756 12.5794C115.946 13.3902 115.545 14.3378 115.554 15.422C115.564 16.4874 115.969 17.4207 116.771 18.2221C117.572 19.0235 118.51 19.4336 119.585 19.4525Z" fill="#8A63E6"/>
<path d="M127.479 -0.123318L128.653 -1.29711L136.29 6.33964L135.116 7.51344L131.736 4.13347L127.649 8.22054L131.029 11.6005L129.855 12.7743L122.218 5.13756L123.392 3.96376L126.518 7.08917L130.605 3.00209L127.479 -0.123318Z" fill="#8A63E6"/>
<path d="M142.257 0.711735C141.512 1.45655 140.664 1.96567 139.712 2.23908C138.759 2.49364 137.802 2.48893 136.841 2.22494C135.888 1.95153 135.04 1.44241 134.295 0.69759C133.154 -0.443209 132.584 -1.76785 132.584 -3.27635C132.584 -4.8037 133.15 -6.13306 134.281 -7.26443C135.186 -8.16953 136.218 -8.70221 137.378 -8.86249C138.547 -9.0322 139.664 -8.82007 140.73 -8.2261L139.542 -7.03816C138.825 -7.30214 138.099 -7.34928 137.364 -7.17958C136.638 -7.0193 135.997 -6.66103 135.441 -6.10477C134.658 -5.32224 134.276 -4.39358 134.295 -3.31878C134.314 -2.26283 134.724 -1.33416 135.525 -0.532776C136.053 -0.00480288 136.652 0.358181 137.321 0.556171C137.981 0.744733 138.646 0.758872 139.316 0.598595C139.985 0.419461 140.579 0.070623 141.097 -0.447922C141.654 -1.00418 142.007 -1.64057 142.158 -2.35711C142.309 -3.0925 142.248 -3.83261 141.974 -4.57743L143.19 -5.79365C143.803 -4.70942 144.025 -3.57333 143.855 -2.3854C143.685 -1.21631 143.153 -0.183934 142.257 0.711735Z" fill="#8A63E6"/>
<path d="M145.469 -18.1131L146.134 -18.7778L153.77 -11.141L152.639 -10.0097L147.18 -15.4685L148.184 -5.55489L147.491 -4.86193L139.855 -12.4987L141 -13.6442L146.417 -8.22775L145.469 -18.1131Z" fill="#8A63E6"/>
<path d="M150.563 -23.2073L154.07 -26.7145L161.707 -19.0778L160.519 -17.8898L157.592 -20.8172L155.683 -18.908L156.8 -14.1704L155.47 -12.8411L154.283 -17.8474C153.623 -17.508 152.953 -17.3854 152.274 -17.4797C151.596 -17.574 150.997 -17.8804 150.478 -18.3989C149.799 -19.0778 149.47 -19.8697 149.488 -20.7748C149.498 -21.6893 149.856 -22.5002 150.563 -23.2073ZM154.212 -19.7566L156.432 -21.9769L154.042 -24.3669L151.822 -22.1466C151.426 -21.7506 151.218 -21.3169 151.2 -20.8455C151.171 -20.3835 151.336 -19.9734 151.695 -19.6152C152.043 -19.2663 152.453 -19.1013 152.925 -19.1202C153.387 -19.1485 153.816 -19.3606 154.212 -19.7566Z" fill="#8A63E6"/>
</g>
</svg>
