<svg width="21" height="29" viewBox="0 0 21 29" fill="none" xmlns="http://www.w3.org/2000/svg">
  <path d="M12.3816 13.9016C11.3039 14.3091 11.634 13.3981 14.9715 10.4049C16.5348 9.00325 19.785 6.19564 20.6667 8.54456C21.5187 10.8017 14.8629 12.9501 14.8629 12.9501L12.3816 13.9016ZM14.0855 16.6751C14.0855 16.6751 21.0735 16.8074 21.0054 14.3966C20.9308 11.8877 16.9587 13.4856 15.0141 14.3027C10.8886 16.0479 10.2816 16.801 11.4317 16.7668L14.0855 16.6751ZM11.4487 20.5046C11.4487 20.5046 16.7734 21.6204 17.0673 19.7665C17.374 17.8464 14.0983 18.4864 12.5009 18.8256C9.09312 19.5617 8.52019 20.0502 9.4062 20.191L11.4487 20.5046ZM8.94829 24.4558C8.94829 24.4558 14.2729 25.5694 14.5668 23.7176C14.8757 21.7975 11.5978 22.4375 10.0004 22.7746C6.59267 23.5107 6.01974 23.9992 6.90576 24.14L8.94829 24.4558ZM10.3604 12.596C10.3604 12.596 8.52232 5.84149 6.23273 6.58606C3.84943 7.3605 6.49896 10.742 7.82586 12.3698C10.6586 15.8473 11.551 16.21 11.1931 15.1198L10.3604 12.596ZM8.34341 15.6617C8.34341 15.6617 5.20188 9.40647 3.10611 10.5927C0.923016 11.8279 4.19233 14.6121 5.81528 15.9455C9.28054 18.7893 10.2305 18.975 9.66179 17.9701L8.34341 15.6617ZM6.54369 19.4251C6.54369 19.4251 3.74294 14.2088 1.99646 15.2606C0.179697 16.3551 3.00814 18.6357 4.41171 19.7238C7.4084 22.0471 8.21349 22.1837 7.71084 21.3473L6.54369 19.4251ZM4.8036 22.2583C4.8036 22.2583 2.57152 16.7732 0.722809 17.633C-1.19406 18.5291 1.37241 21.0956 2.65245 22.3266C5.38505 24.955 6.17309 25.1769 5.7599 24.2915L4.8036 22.2583ZM14.1749 8.52109C14.1749 8.52109 18.2217 1.32073 15.2399 0.181468C12.1218 -1.00686 11.8619 3.93846 11.7874 6.36845C11.6298 11.5356 12.2133 12.5554 12.8161 11.3308L14.1749 8.52109Z" fill="#92E3A9"/>
  <path opacity="0.65" d="M12.3445 14.0471C11.2668 14.4546 11.5969 13.5436 14.9344 10.5504C16.4977 9.14876 19.7479 6.34115 20.6296 8.69007C21.4815 10.9473 14.8258 13.0956 14.8258 13.0956L12.3445 14.0471ZM14.0484 16.8206C14.0484 16.8206 21.0364 16.9529 20.9683 14.5421C20.8937 12.0332 16.9215 13.6311 14.977 14.4482C10.8515 16.1934 10.2445 16.9465 11.3946 16.9124L14.0484 16.8206ZM11.4116 20.6501C11.4116 20.6501 16.7362 21.7659 17.0302 19.912C17.3369 17.9919 14.0612 18.6319 12.4638 18.9711C9.05601 19.7072 8.48308 20.1957 9.36909 20.3365L11.4116 20.6501ZM8.91118 24.6013C8.91118 24.6013 14.2358 25.7149 14.5297 23.8631C14.8385 21.943 11.5607 22.583 9.96332 22.9201C6.55556 23.6562 5.98264 24.1447 6.86865 24.2855L8.91118 24.6013ZM10.3233 12.7415C10.3233 12.7415 8.48521 5.987 6.19562 6.73157C3.81232 7.50601 6.46185 10.8875 7.78875 12.5153C10.6214 15.9928 11.5139 16.3555 11.156 15.2653L10.3233 12.7415ZM8.3063 15.8072C8.3063 15.8072 5.16477 9.55198 3.069 10.7382C0.885906 11.9734 4.15522 14.7576 5.77817 16.091C9.24343 18.9349 10.1933 19.1205 9.62468 18.1156L8.3063 15.8072ZM6.50658 19.5706C6.50658 19.5706 3.70583 14.3544 1.95935 15.4061C0.142588 16.5006 2.97103 18.7813 4.3746 19.8693C7.37129 22.1926 8.17638 22.3292 7.67374 21.4929L6.50658 19.5706ZM4.76649 22.4038C4.76649 22.4038 2.53441 16.9188 0.685699 17.7785C-1.23116 18.6746 1.3353 21.2411 2.61534 22.4721C5.34794 25.1005 6.13598 25.3224 5.72279 24.437L4.76649 22.4038ZM14.1378 8.6666C14.1378 8.6666 18.1845 1.46623 15.2028 0.326976C12.0847 -0.861352 11.8248 4.08397 11.7503 6.51396C11.5927 11.6812 12.1762 12.7009 12.779 11.4763L14.1378 8.6666Z" fill="#E5E5E5"/>
  <path d="M2.63991 28.8216C2.65781 28.8219 2.67556 28.8184 2.69206 28.8114C2.70855 28.8044 2.72343 28.7941 2.73575 28.7811C5.67707 25.7324 8.80156 21.1605 10.8888 16.8488C12.6928 13.1195 14.0836 3.22247 14.0964 3.1222C14.1013 3.08715 14.0921 3.05158 14.071 3.02322C14.0499 2.99487 14.0184 2.976 13.9835 2.97072C13.9483 2.96644 13.9128 2.97608 13.8845 2.99759C13.8563 3.0191 13.8376 3.05079 13.8323 3.08593C13.8195 3.18407 12.4351 13.0427 10.6481 16.74C8.57367 21.0282 5.46835 25.5745 2.54407 28.604C2.51897 28.6292 2.50487 28.6634 2.50487 28.699C2.50487 28.7346 2.51897 28.7687 2.54407 28.7939C2.55731 28.8048 2.57264 28.8129 2.58912 28.8177C2.60561 28.8225 2.62289 28.8238 2.63991 28.8216Z" fill="#CCCCCC"/>
</svg>
