<svg width="197" height="150" viewBox="0 0 197 150" fill="none" xmlns="http://www.w3.org/2000/svg">
<path d="M26.95 123.761C27.2677 123.577 27.602 123.393 27.9197 123.21C28.2039 123.059 27.9531 122.625 27.6689 122.775C27.3513 122.959 27.0169 123.143 26.6992 123.326C26.415 123.494 26.6658 123.928 26.95 123.761Z" fill="#161616"/>
<path d="M22.469 125.915C25.5285 124.612 28.5881 123.309 31.6476 122.007C34.7071 120.704 37.566 119.418 40.9933 119.769C44.1197 120.086 47.1959 121.272 50.1217 122.374C53.1812 123.527 56.1738 124.829 59.0829 126.299C59.6513 126.583 60.1696 125.715 59.5844 125.431C54.9701 123.126 50.1384 121.088 45.1897 119.635C42.7989 118.933 40.2911 118.466 37.8 118.817C35.3089 119.167 32.9683 120.353 30.6779 121.339C27.7688 122.575 24.8598 123.811 21.9675 125.063C21.3656 125.297 21.8839 126.166 22.469 125.915Z" fill="#161616"/>
<path d="M50.823 133.231C64.8165 133.231 78.7933 133.231 92.7868 133.231C96.7826 133.231 100.778 133.231 104.774 133.231C105.426 133.231 105.426 132.229 104.774 132.229C90.7806 132.229 76.8038 132.229 62.8103 132.229C58.8145 132.229 54.8188 132.229 50.823 132.229C50.171 132.229 50.171 133.231 50.823 133.231Z" fill="#161616"/>
<path d="M95.746 136.504C113.284 136.504 130.822 136.504 148.36 136.504C153.358 136.504 158.341 136.504 163.34 136.504C163.992 136.504 163.992 135.502 163.34 135.502C145.802 135.502 128.264 135.502 110.726 135.502C105.727 135.502 100.745 135.502 95.746 135.502C95.1107 135.502 95.1107 136.504 95.746 136.504Z" fill="#161616"/>
<path d="M120.524 132.847C140.118 132.847 159.696 132.847 179.29 132.847C184.858 132.847 190.425 132.847 195.992 132.847C196.644 132.847 196.644 131.845 195.992 131.845C176.398 131.845 156.82 131.845 137.226 131.845C131.659 131.845 126.091 131.845 120.524 131.845C119.872 131.845 119.872 132.847 120.524 132.847Z" fill="#161616"/>
<path d="M61.2065 127.569C64.1824 128.621 67.1416 129.74 70.0673 130.926C70.6692 131.176 70.92 130.208 70.3348 129.957C67.4091 128.771 64.4499 127.652 61.4739 126.6C60.8721 126.383 60.6046 127.351 61.2065 127.569Z" fill="#161616"/>
<path d="M24.0898 135.669C31.7803 135.669 39.4876 135.669 47.1782 135.669C47.8302 135.669 47.8302 134.667 47.1782 134.667C39.4876 134.667 31.7803 134.667 24.0898 134.667C23.4545 134.667 23.4545 135.669 24.0898 135.669Z" fill="#161616"/>
<path d="M92.7371 146.509C102.534 146.509 112.331 146.509 122.128 146.509C122.78 146.509 122.78 145.507 122.128 145.507C112.331 145.507 102.534 145.507 92.7371 145.507C92.085 145.507 92.085 146.509 92.7371 146.509Z" fill="#161616"/>
<path d="M9.93174 135.736C7.27347 133.982 5.28395 131.444 3.86287 128.621C3.06037 127.051 2.44178 125.414 1.92351 123.744C1.68944 123.026 1.30492 122.157 1.25476 121.405C1.23804 121.071 1.12101 121.122 1.4721 121.105C1.65601 121.105 1.92351 121.238 2.09069 121.289C2.55881 121.422 3.01022 121.573 3.47834 121.706C3.79599 121.806 3.91302 121.322 3.61209 121.222C3.04365 121.055 2.47522 120.871 1.90679 120.704C1.65601 120.62 1.27148 120.437 0.98726 120.537C0.519138 120.687 0.669607 121.172 0.7532 121.539C1.27148 123.577 1.94022 125.581 2.77616 127.502C4.28083 130.943 6.52113 134.066 9.68096 136.17C9.94846 136.354 10.1992 135.92 9.93174 135.736Z" fill="#E8E8E8"/>
<path d="M3.19326 121.138C0.702182 115.058 0.60187 108.427 0.518277 101.947C0.367809 102.013 0.234061 102.064 0.0835932 102.13C0.551715 102.598 1.03656 103.082 1.50468 103.55C1.73874 103.784 2.08983 103.416 1.85577 103.199C1.38765 102.732 0.902805 102.247 0.434683 101.78C0.284216 101.629 0 101.746 0 101.963C0.0668746 108.477 0.183904 115.158 2.6917 121.288C2.82545 121.572 3.31029 121.438 3.19326 121.138Z" fill="#E8E8E8"/>
<path d="M1.95664 103.066C1.99007 98.9402 2.44148 94.8315 3.34429 90.8062C3.22726 90.8563 3.09351 90.9064 2.97648 90.9565C7.75801 94.3471 9.6305 100.377 11.3692 105.688C13.4089 111.935 15.0306 118.365 15.7328 124.912C15.9334 126.733 16.0505 128.554 16.1006 130.391C16.1508 132.295 16.2511 134.282 15.7328 136.136C15.6492 136.454 16.134 136.587 16.2176 136.27C16.6523 134.667 16.6356 132.98 16.6189 131.343C16.6022 129.673 16.5186 128.002 16.3681 126.332C16.0672 122.975 15.5322 119.634 14.8133 116.344C14.0609 112.903 13.1247 109.513 12.038 106.172C11.1185 103.316 10.1655 100.427 8.87816 97.7043C7.54067 94.915 5.76849 92.3428 3.22726 90.5389C3.09351 90.4554 2.89288 90.539 2.85944 90.6893C1.95664 94.7647 1.48852 98.9068 1.45508 103.082C1.45508 103.4 1.95664 103.4 1.95664 103.066Z" fill="#E8E8E8"/>
<path d="M13.4086 111.384C15.8662 104.135 21.1828 98.339 24.2255 91.3741C24.0751 91.324 23.9079 91.2906 23.7574 91.2405C24.0584 94.4974 24.3091 97.7711 24.5432 101.045C24.6602 102.682 24.7438 104.318 24.8441 105.955C24.8776 106.724 24.9277 107.475 24.9612 108.243C24.9946 108.828 25.028 108.978 24.5766 109.363C24.259 109.63 23.8243 109.83 23.4565 110.064C23.189 110.231 23.4398 110.665 23.7073 110.498C24.259 110.148 24.8274 109.797 25.3791 109.446C25.446 109.396 25.5129 109.312 25.4962 109.229C25.2119 103.233 24.8107 97.2199 24.259 91.2405C24.2423 91.0233 23.9079 90.8563 23.7909 91.1068C20.7146 98.1218 15.3981 103.951 12.9237 111.233C12.8234 111.567 13.3083 111.684 13.4086 111.384Z" fill="#E8E8E8"/>
<path d="M23.4395 110.482C25.7801 110.349 24.242 115.393 23.9745 116.629C23.5398 118.667 23.0216 120.688 22.4197 122.675C21.1992 126.7 19.611 130.592 17.705 134.333C17.5546 134.617 17.9892 134.868 18.1397 134.584C20.3466 130.258 22.1187 125.732 23.4228 121.055C24.0748 118.7 24.6098 116.312 25.0111 113.906C25.2284 112.57 25.6129 109.848 23.4562 109.981C23.1219 109.998 23.1219 110.499 23.4395 110.482Z" fill="#E8E8E8"/>
<path d="M23.5732 91.9592C22.3193 102.148 17.8721 111.518 15.1971 121.339C15.1136 121.656 15.5984 121.79 15.682 121.472C18.3737 111.601 22.8041 102.181 24.0747 91.9592C24.1082 91.6251 23.6066 91.6418 23.5732 91.9592Z" fill="#E8E8E8"/>
<path d="M2.79288 90.8899C6.68833 102.515 9.83143 114.39 12.1888 126.416C12.8575 129.823 13.4594 133.264 14.0111 136.688C14.0613 137.005 14.5461 136.872 14.4959 136.554C12.59 124.445 9.89831 112.453 6.42083 100.694C5.43443 97.3537 4.38115 94.0299 3.27772 90.7396C3.17741 90.4556 2.69257 90.5893 2.79288 90.8899Z" fill="#E8E8E8"/>
<path d="M0.35026 106.19C4.74726 108.879 8.24146 112.82 10.3982 117.497C10.5319 117.798 10.9666 117.531 10.8329 117.247C8.64271 112.503 5.06492 108.495 0.60104 105.755C0.333541 105.588 0.0660428 106.023 0.35026 106.19Z" fill="#E8E8E8"/>
<path d="M1.60518 124.078C5.96874 125.614 10.7336 127.385 13.1076 131.644C13.2581 131.928 13.6928 131.677 13.5423 131.393C11.0847 127.017 6.21952 125.18 1.73893 123.593C1.43799 123.476 1.30424 123.961 1.60518 124.078Z" fill="#E8E8E8"/>
<path d="M7.67461 96.5359C7.27336 99.0914 7.0393 101.647 7.00586 104.236C7.00586 104.553 7.50742 104.553 7.50742 104.236C7.54086 101.697 7.7582 99.1749 8.15945 96.6696C8.2096 96.3522 7.72476 96.2186 7.67461 96.5359Z" fill="#E8E8E8"/>
<path d="M16.4685 104.186C16.9032 107.192 17.3211 110.198 17.7558 113.222C17.806 113.539 18.2908 113.405 18.2407 113.088C17.806 110.082 17.388 107.075 16.9533 104.052C16.9032 103.718 16.4183 103.868 16.4685 104.186Z" fill="#E8E8E8"/>
<path d="M20.7985 106.089C22.4034 104.653 23.7744 102.999 24.8611 101.128C25.0283 100.844 24.5936 100.594 24.4264 100.878C23.3564 102.698 22.0189 104.335 20.4474 105.738C20.1966 105.955 20.5644 106.306 20.7985 106.089Z" fill="#E8E8E8"/>
<path d="M171.131 131.527C169.593 127.001 168.724 122.307 168.523 117.53C168.389 117.597 168.272 117.681 168.139 117.748C168.974 118.232 169.794 118.733 170.63 119.217C170.813 119.318 171.064 119.151 170.997 118.933C170.245 116.812 170.111 114.541 170.68 112.353C171.265 110.148 172.552 108.144 173.639 106.156C175.896 101.997 178.17 97.8383 180.427 93.6794C180.276 93.6627 180.126 93.646 179.975 93.6126C180.51 96.903 181.045 100.21 181.58 103.5C181.848 105.121 182.115 106.741 182.366 108.361C182.5 109.162 182.868 110.181 182.383 110.916C181.982 111.518 181.246 111.852 180.594 112.136C180.377 112.236 180.477 112.52 180.661 112.586C181.38 112.887 182.249 113.271 182.6 114.006C182.985 114.841 182.517 116.044 182.299 116.912C181.881 118.616 181.38 120.303 180.795 121.973C179.607 125.33 178.086 128.537 176.264 131.594C176.097 131.878 176.531 132.128 176.698 131.844C178.788 128.32 180.494 124.579 181.747 120.67C182.048 119.718 182.333 118.75 182.583 117.781C182.817 116.862 183.135 115.877 183.219 114.925C183.352 113.371 182.015 112.637 180.778 112.119C180.795 112.269 180.811 112.419 180.845 112.57C181.831 112.136 182.985 111.518 183.102 110.315C183.169 109.53 182.918 108.661 182.801 107.91C182.65 106.941 182.483 105.972 182.333 104.987C181.714 101.145 181.079 97.3205 180.46 93.479C180.427 93.2618 180.092 93.2451 180.009 93.4122C177.585 97.855 175.16 102.298 172.736 106.757C171.666 108.728 170.479 110.682 170.044 112.921C169.643 114.975 169.827 117.079 170.529 119.05C170.646 118.95 170.78 118.867 170.897 118.766C170.061 118.282 169.242 117.781 168.406 117.297C168.239 117.196 168.021 117.313 168.021 117.514C168.205 122.324 169.091 127.084 170.646 131.644C170.747 131.961 171.231 131.828 171.131 131.527Z" fill="#E8E8E8"/>
<path d="M182.619 104.837C186.096 101.195 189.557 97.5209 192.967 93.813C192.834 93.7295 192.683 93.646 192.549 93.5625C192.014 96.2014 191.78 98.9072 191.914 101.596C191.981 102.983 192.182 104.335 192.349 105.705C192.432 106.323 192.499 106.958 192.516 107.576C192.533 107.91 192.583 108.428 192.215 108.645C191.914 108.812 191.162 108.778 190.794 108.812C190.61 108.828 190.426 109.096 190.61 109.246C192.566 110.799 190.878 113.639 190.058 115.376C189.172 117.263 188.219 119.1 187.183 120.904C185.076 124.579 182.652 128.07 179.96 131.343C179.76 131.594 180.111 131.945 180.311 131.694C183.287 128.086 185.929 124.211 188.203 120.136C189.356 118.065 190.426 115.927 191.362 113.756C192.031 112.186 192.533 110.148 190.978 108.912C190.911 109.062 190.861 109.196 190.794 109.346C191.73 109.246 192.901 109.396 193.018 108.244C193.151 106.707 192.733 105.07 192.566 103.55C192.198 100.277 192.366 96.9697 193.034 93.7295C193.084 93.4956 192.8 93.2952 192.616 93.4789C189.189 97.1869 185.745 100.861 182.267 104.503C182.033 104.72 182.385 105.07 182.619 104.837Z" fill="#E8E8E8"/>
<path d="M190.61 96.703C188.152 101.73 187.717 107.509 185.995 112.787C184.173 118.399 181.598 123.727 178.84 128.922C178.689 129.206 179.124 129.456 179.274 129.172C181.949 124.112 184.457 118.934 186.28 113.506C187.182 110.8 187.851 108.061 188.47 105.271C189.088 102.432 189.757 99.5758 191.044 96.9536C191.178 96.6696 190.76 96.4191 190.61 96.703Z" fill="#E8E8E8"/>
<path d="M179.409 96.6696C178.94 107.459 174.644 117.598 173.724 128.321C173.691 128.638 174.192 128.638 174.226 128.321C175.145 117.598 179.442 107.459 179.91 96.6696C179.91 96.3523 179.409 96.3523 179.409 96.6696Z" fill="#E8E8E8"/>
<path d="M170.998 110.298C172.051 113.238 173.355 116.061 174.91 118.766C175.077 119.05 175.512 118.8 175.345 118.516C173.807 115.843 172.519 113.054 171.483 110.165C171.382 109.864 170.898 109.998 170.998 110.298Z" fill="#E8E8E8"/>
<path d="M176.047 100.978C176.649 103.25 177.234 105.521 177.836 107.793C177.919 108.11 178.404 107.976 178.32 107.659C177.719 105.388 177.133 103.116 176.532 100.845C176.448 100.527 175.963 100.661 176.047 100.978Z" fill="#E8E8E8"/>
<path d="M180.945 99.7089C180.193 101.095 179.457 102.498 178.705 103.884C178.555 104.168 178.989 104.419 179.14 104.135C179.892 102.749 180.628 101.346 181.38 99.9594C181.53 99.6755 181.096 99.4249 180.945 99.7089Z" fill="#E8E8E8"/>
<path d="M184.524 102.064C184.775 105.739 185.142 109.413 185.644 113.071C185.694 113.388 186.162 113.255 186.129 112.937C185.644 109.33 185.276 105.705 185.025 102.064C185.009 101.747 184.507 101.747 184.524 102.064Z" fill="#E8E8E8"/>
<path d="M188.268 105.756C188.435 104.787 189.354 104.035 189.99 103.317C190.642 102.582 191.311 101.847 191.963 101.112C192.18 100.879 191.829 100.511 191.612 100.762C190.809 101.647 190.023 102.532 189.221 103.417C188.636 104.069 187.95 104.703 187.783 105.605C187.733 105.939 188.218 106.073 188.268 105.756Z" fill="#E8E8E8"/>
<path d="M1.13658 87.566C5.58374 87.3655 9.72996 85.7454 14.0434 84.8268C18.8249 83.8079 23.573 84.309 28.2877 85.4114C32.902 86.497 37.4495 87.9 42.0304 89.1026C46.628 90.3219 51.2257 91.4743 55.84 92.5767C74.4144 97.0195 93.2229 100.594 112.132 103.283C122.731 104.786 133.381 106.005 144.048 106.941C144.365 106.974 144.365 106.473 144.048 106.44C124.921 104.753 105.896 102.164 87.0203 98.6731C77.5742 96.9193 68.1616 94.9651 58.8159 92.7604C49.5705 90.5891 40.4087 88.1005 31.2469 85.6285C26.2814 84.2923 21.1321 83.2067 15.9827 83.9416C10.9671 84.6598 6.25249 86.8144 1.1533 87.0315C0.818927 87.0649 0.818928 87.566 1.13658 87.566Z" fill="#E8E8E8"/>
<path d="M81.5371 98.5233C96.5839 97.0702 111.497 94.4312 126.126 90.6064C133.482 88.6856 140.704 86.3473 147.944 84.0257C151.438 82.9066 154.982 81.8543 158.593 81.1863C162.489 80.4513 166.418 80.2843 170.38 80.5349C174.777 80.8188 179.174 81.3867 183.554 81.8711C187.951 82.3554 192.365 82.8231 196.762 83.3075C197.08 83.3409 197.08 82.8398 196.762 82.8064C188.904 81.9546 181.046 81.0025 173.172 80.2509C169.327 79.8835 165.465 79.7331 161.636 80.2175C158.025 80.6518 154.464 81.537 150.986 82.5725C143.714 84.7272 136.558 87.2659 129.235 89.2702C121.929 91.2745 114.556 92.9781 107.117 94.3811C98.657 95.9846 90.1137 97.2038 81.5371 98.0222C81.2194 98.0556 81.2194 98.5567 81.5371 98.5233Z" fill="#E8E8E8"/>
<path d="M84.7801 122.909C97.6534 122.825 107.634 113.455 118.953 108.728C122.247 107.359 125.707 106.357 129.268 106.089C129.586 106.073 129.586 105.572 129.268 105.588C116.529 106.54 106.865 115.944 95.3295 120.286C91.9524 121.556 88.408 122.374 84.7801 122.408C84.4457 122.408 84.4457 122.909 84.7801 122.909Z" fill="#E8E8E8"/>
<path d="M130.874 105.305C144.901 102.282 155.367 91.6087 168.056 85.6627C171.718 83.9423 175.596 82.6563 179.626 82.1218C179.943 82.0717 179.943 81.5706 179.626 81.6207C165.264 83.5248 154.447 94.2143 142.025 100.628C138.448 102.482 134.686 103.985 130.74 104.837C130.423 104.887 130.556 105.371 130.874 105.305Z" fill="#E8E8E8"/>
<path d="M117.699 34.8536C123.902 31.9975 130.907 37.6095 136.992 34.0519C137.277 33.8848 137.026 33.4506 136.742 33.6176C130.723 37.1418 123.668 31.5632 117.448 34.4193C117.147 34.5529 117.398 34.9872 117.699 34.8536Z" fill="#E8E8E8"/>
<path d="M88.3405 3.70392C95.1115 2.26751 101.866 4.38871 108.369 6.17587C114.856 7.96302 121.393 9.06538 128.131 8.93176C131.926 8.84825 135.704 8.41399 139.416 7.66238C139.734 7.59557 139.6 7.1112 139.282 7.17801C132.411 8.58101 125.305 8.83155 118.35 7.86281C111.68 6.92748 105.394 4.47223 98.7896 3.28636C95.2787 2.65167 91.7009 2.48464 88.2067 3.23625C87.9058 3.28636 88.0396 3.77073 88.3405 3.70392Z" fill="#E8E8E8"/>
<path d="M10.2494 23.3621C16.335 19.9381 23.4069 19.6542 29.8938 22.076C33.1706 23.2953 36.297 24.7985 39.6742 25.7338C42.9009 26.6357 46.2279 27.1702 49.5716 27.3539C53.4169 27.5544 57.2789 27.2537 61.0741 26.5021C61.3917 26.4353 61.258 25.951 60.9403 26.0178C53.9018 27.4375 46.579 27.1702 39.6742 25.216C36.2469 24.2473 33.0703 22.7107 29.7433 21.4914C26.6169 20.3557 23.3735 19.7711 20.0465 19.9715C16.5189 20.1886 13.0915 21.1908 10.0153 22.9278C9.71437 23.0781 9.96515 23.5124 10.2494 23.3621Z" fill="#E8E8E8"/>
<path d="M171.45 21.3749C168.424 18.0845 167.304 13.341 168.223 8.9984C168.692 6.81039 169.661 4.70589 171.166 3.01895C172.169 1.88319 173.306 1.26521 174.794 0.981265C176.282 0.697324 177.803 0.513597 179.325 0.496894C184.624 0.46349 189.774 3.62024 191.161 8.93159C191.864 11.6374 191.345 14.3098 190.041 16.7316C188.771 19.0532 187.049 21.2913 184.741 22.6442C180.361 25.1997 174.376 24.4648 170.781 20.8905C170.547 20.6567 170.196 21.0241 170.43 21.2412C173.824 24.5984 179.191 25.5672 183.588 23.7633C186.045 22.7612 187.935 20.8738 189.406 18.7025C191.028 16.314 192.198 13.625 191.964 10.6853C191.529 5.22367 187.065 1.04807 181.782 0.17955C180.227 -0.0709853 178.639 -0.0375801 177.084 0.146146C175.68 0.296467 174.108 0.430086 172.821 1.06478C170.664 2.11703 169.193 4.60568 168.374 6.76028C166.468 11.771 167.471 17.7671 171.116 21.7256C171.316 21.9594 171.667 21.6087 171.45 21.3749Z" fill="#E8E8E8"/>
<path d="M27.7189 73.2353C35.259 72.1997 42.4981 75.2229 49.5534 77.4443C53.0309 78.5466 56.5752 79.5154 60.2199 79.7826C64.0652 80.0665 67.7433 79.3483 71.3712 78.1124C75.2333 76.7929 78.9615 75.156 82.974 74.3543C86.719 73.6027 90.5475 73.4524 94.3594 73.6361C102.117 74.0203 109.707 75.7406 117.348 76.9766C125.54 78.2794 133.999 79.031 142.108 76.7929C142.426 76.7094 142.292 76.225 141.974 76.3085C126.911 80.4674 111.58 74.4879 96.5328 73.2854C92.838 72.9847 89.093 72.968 85.3982 73.4524C81.4526 73.9702 77.7578 75.2229 74.0462 76.6091C70.2511 78.0288 66.4058 79.3316 62.293 79.365C58.5146 79.3817 54.8198 78.5299 51.2253 77.4443C43.5514 75.156 35.794 71.6318 27.5851 72.7676C27.2674 72.801 27.4179 73.2854 27.7189 73.2353Z" fill="#E8E8E8"/>
<path d="M86.0672 66.2373C89.11 64.6339 92.3534 63.2142 95.7975 62.7966C99.2415 62.3791 102.535 63.2476 105.762 64.35C108.972 65.4356 112.132 66.538 115.459 67.2061C118.702 67.8575 121.996 68.2082 125.306 68.2583C132.094 68.3585 138.764 67.1225 145.134 64.7842C151.537 62.4292 157.59 59.2223 163.876 56.6001C171.015 53.6103 178.705 51.3555 186.513 52.1906C186.831 52.224 186.831 51.723 186.513 51.6896C172.402 50.1863 159.98 58.3037 147.441 63.3645C140.938 65.9868 134.167 67.6236 127.145 67.7572C123.684 67.8241 120.207 67.5568 116.796 66.9555C113.402 66.3542 110.159 65.3521 106.915 64.2163C103.421 62.9971 99.8434 61.8947 96.0984 62.2789C92.4537 62.6463 89.0431 64.1328 85.8164 65.8198C85.5322 65.9534 85.783 66.3876 86.0672 66.2373Z" fill="#E8E8E8"/>
<path d="M50.6916 33.7342C56.2924 30.377 62.8795 32.8323 68.5639 34.6027C74.4488 36.44 80.5846 37.3085 86.7705 37.0078C90.2479 36.8408 93.692 36.3063 97.0524 35.4545C97.3701 35.371 97.2363 34.8866 96.9187 34.9702C90.6993 36.5569 84.2125 36.9744 77.8427 36.156C74.5826 35.7385 71.406 34.9702 68.2629 33.968C65.3706 33.0494 62.4783 32.0472 59.4355 31.6798C56.3592 31.3123 53.1493 31.6631 50.4576 33.2832C50.1733 33.4669 50.4241 33.9012 50.6916 33.7342Z" fill="#E8E8E8"/>
<path d="M128.098 134.049C128.098 135.335 129.301 136.271 130.689 137.373C131.993 138.392 134.083 139.695 137.042 140.246C137.527 141.916 138.53 145.139 139.199 144.972C139.751 144.839 140.001 142.25 139.684 140.146C139.567 139.36 139.45 138.626 139.032 137.874C138.045 136.154 136.758 136.722 135.37 135.369C133.632 133.665 134.3 131.427 132.963 130.625C131.241 129.59 128.098 131.945 128.098 134.049Z" fill="#161616"/>
<path d="M128.115 136.554C127.965 137.806 129.068 138.959 130.339 140.312C132.445 142.55 134.619 143.669 136.174 144.237C136.508 146.592 137.11 150.016 137.779 149.999C138.397 149.982 139.049 147.143 138.916 144.671C138.865 143.752 138.832 143.068 138.514 142.316C137.695 140.362 136.241 140.83 135.154 139.176C133.933 137.289 134.97 135.435 133.95 134.282C132.479 132.612 128.383 134.332 128.115 136.554Z" fill="#161616"/>
<path d="M111.764 131.894C111.146 131.827 110.861 133.113 109.741 135.134C109.123 136.27 107.584 139.059 105.244 140.646C103.405 141.882 101.8 141.899 101.817 142.483C101.833 142.918 102.736 143.202 103.221 143.268C104.408 143.435 105.294 142.65 105.578 142.4C107.467 141.197 108.955 139.961 110.009 138.993C112.617 136.604 112.918 135.569 112.968 134.8C113.051 133.447 112.416 131.961 111.764 131.894Z" fill="#161616"/>
<path d="M111.814 130.14C112.717 130.625 114.038 131.243 115.676 131.71C116.713 131.994 119.906 132.779 124.788 131.927C130.188 130.975 131.559 129.071 133.03 130.474C134.568 131.944 134.869 135.853 133.716 138.191C133.014 139.611 131.576 140.162 128.717 141.281C126.477 142.149 124.805 142.801 122.397 142.851C119.572 142.918 117.499 142.099 116.278 141.632C113.737 140.613 111.513 139.728 110.644 137.172C110.276 136.103 110.26 135.068 110.31 134.383C110.828 132.963 111.33 131.543 111.814 130.14Z" fill="#161616"/>
<path d="M128.833 132.362C128.967 131.393 130.087 131.143 131.057 130.525C133.615 128.871 133.263 125.714 135.019 125.28C136.507 124.913 137.142 127.101 138.647 126.683C140.419 126.182 140.921 122.775 141.539 123.009C141.991 123.176 142.258 125.28 141.539 126.6C140.804 127.936 139.265 128.086 137.51 128.253C135.755 128.42 135.621 128.019 134.885 128.42C133.531 129.188 133.782 130.675 132.127 132.262C131.19 133.164 129.719 134.049 129.101 133.397C128.883 133.164 128.783 132.729 128.833 132.362Z" fill="#161616"/>
<path d="M112.534 133.848C111.915 133.781 111.631 135.067 110.511 137.088C109.892 138.224 108.354 141.014 106.013 142.6C104.174 143.836 102.569 143.853 102.586 144.437C102.603 144.872 103.506 145.156 103.99 145.222C105.177 145.39 106.064 144.605 106.348 144.354C108.237 143.151 109.725 141.915 110.778 140.947C113.386 138.558 113.687 137.523 113.737 136.754C113.821 135.402 113.186 133.915 112.534 133.848Z" fill="#161616"/>
<path d="M103.922 131.393C104.323 133.898 103.956 134.416 104.574 135.235C105.51 136.487 107.266 136.654 107.567 136.688C108.871 136.821 109.071 136.287 110.476 136.437C112.047 136.604 112.298 137.289 113.084 137.038C114.238 136.671 114.572 134.85 114.672 134.282C114.689 134.232 114.689 134.182 114.689 134.149C114.823 133.03 114.555 132.028 114.187 131.243C112.014 130.307 110.727 129.138 109.941 128.253C109.105 127.301 108.587 126.332 108.135 126.449C107.634 126.583 107.567 127.969 107.584 129.055C106.982 129.222 106.38 129.389 105.778 129.556C104.223 127.986 103.688 127.869 103.471 128.002C103.12 128.203 103.571 129.138 103.922 131.393Z" fill="#161616"/>
<path d="M106.765 133.631C106.899 134.166 107.401 134.517 107.952 134.483C108.036 134.483 108.036 134.35 107.952 134.35C107.467 134.4 107.016 134.082 106.899 133.598C106.866 133.531 106.749 133.565 106.765 133.631Z" fill="white"/>
<path d="M106.714 133.598C106.714 133.798 106.714 134.015 106.664 134.216C106.647 134.316 106.614 134.4 106.564 134.483C106.564 134.483 106.33 134.817 106.296 134.767C106.263 134.7 106.146 134.767 106.196 134.834C106.296 135.017 106.547 134.734 106.614 134.65C106.831 134.349 106.848 133.949 106.848 133.598C106.831 133.514 106.714 133.514 106.714 133.598Z" fill="white"/>
<path d="M106.747 133.531C106.714 133.581 106.797 133.548 106.781 133.564C106.731 133.598 106.731 133.531 106.781 133.514C106.831 133.514 106.831 133.581 106.814 133.598C106.797 133.615 106.797 133.615 106.781 133.615C106.764 133.615 106.747 133.615 106.747 133.598V133.581C106.731 133.581 106.714 133.581 106.714 133.564C106.647 133.514 106.58 133.631 106.647 133.665C106.731 133.715 106.881 133.715 106.881 133.581C106.881 133.481 106.747 133.414 106.664 133.498C106.58 133.581 106.63 133.715 106.731 133.731C106.848 133.765 106.948 133.681 106.948 133.564C106.948 133.464 106.881 133.364 106.764 133.381C106.664 133.397 106.58 133.514 106.63 133.615C106.68 133.698 106.797 133.698 106.864 133.648C106.931 133.598 106.931 133.481 106.848 133.431C106.764 133.381 106.63 133.431 106.63 133.531C106.63 133.648 106.814 133.665 106.864 133.564C106.898 133.514 106.781 133.448 106.747 133.531Z" fill="white"/>
<path d="M105.127 132.646C105.327 132.345 105.779 132.279 106.046 132.529C106.113 132.579 106.197 132.496 106.13 132.446C105.796 132.145 105.261 132.229 105.01 132.596C104.976 132.646 105.093 132.713 105.127 132.646Z" fill="white"/>
<path d="M107.534 132.145C107.785 131.811 108.236 131.71 108.621 131.877C108.687 131.911 108.754 131.811 108.687 131.777C108.236 131.577 107.735 131.71 107.434 132.094C107.383 132.145 107.484 132.195 107.534 132.145Z" fill="white"/>
<path d="M108.537 127.401C108.755 127.819 108.905 128.27 108.972 128.737C108.989 128.821 109.106 128.787 109.089 128.704C109.005 128.22 108.855 127.769 108.638 127.334C108.621 127.268 108.504 127.334 108.537 127.401Z" fill="white"/>
<path d="M108.001 128.72C108.051 128.854 108.135 128.987 108.235 129.088C108.285 129.138 108.369 129.071 108.335 129.004C108.268 128.87 108.235 128.72 108.235 128.57C108.218 128.587 108.185 128.62 108.168 128.637C108.268 128.637 108.369 128.62 108.452 128.62C108.486 128.62 108.519 128.587 108.519 128.536C108.486 128.436 108.469 128.319 108.436 128.219C108.419 128.252 108.402 128.269 108.369 128.303C108.486 128.303 108.586 128.303 108.703 128.303C108.787 128.303 108.787 128.169 108.703 128.169C108.586 128.169 108.486 128.169 108.369 128.169C108.335 128.169 108.302 128.202 108.302 128.252C108.335 128.353 108.352 128.47 108.385 128.57C108.402 128.536 108.419 128.52 108.452 128.486C108.352 128.486 108.252 128.503 108.168 128.503C108.135 128.503 108.101 128.536 108.101 128.57C108.101 128.754 108.135 128.904 108.218 129.071C108.252 129.037 108.285 129.021 108.319 128.987C108.235 128.887 108.151 128.77 108.101 128.637C108.068 128.587 107.967 128.653 108.001 128.72Z" fill="white"/>
<path d="M106.062 133.915C105.728 133.781 105.394 133.614 105.093 133.414C105.026 133.364 104.959 133.48 105.026 133.514C105.343 133.714 105.678 133.881 106.029 134.032C106.112 134.065 106.146 133.948 106.062 133.915Z" fill="white"/>
<path d="M105.794 134.166C105.61 134.199 105.443 134.249 105.293 134.333C105.226 134.366 105.276 134.483 105.36 134.433C105.51 134.349 105.661 134.299 105.828 134.283C105.895 134.266 105.861 134.149 105.794 134.166Z" fill="white"/>
<path d="M107.684 133.514C108.018 133.247 108.369 133.013 108.737 132.78C108.804 132.746 108.737 132.629 108.67 132.679C108.286 132.913 107.935 133.164 107.584 133.431C107.534 133.481 107.617 133.565 107.684 133.514Z" fill="white"/>
<path d="M107.969 133.798C108.353 133.698 108.738 133.598 109.105 133.514C109.189 133.497 109.156 133.38 109.072 133.397C108.687 133.497 108.303 133.598 107.935 133.681C107.852 133.698 107.885 133.831 107.969 133.798Z" fill="white"/>
<path d="M106.113 134.917C106.682 134.717 106.815 134.116 106.832 133.581C106.832 133.498 106.715 133.498 106.698 133.581C106.665 134.049 106.564 134.6 106.063 134.784C105.996 134.817 106.029 134.951 106.113 134.917Z" fill="white"/>
<path d="M106.113 134.917C106.431 134.8 106.665 134.533 106.732 134.199C106.748 134.115 106.631 134.082 106.615 134.166C106.565 134.466 106.381 134.7 106.096 134.8C106.013 134.834 106.046 134.951 106.113 134.917Z" fill="white"/>
<path d="M103.805 128.87C104.189 129.288 104.473 129.756 104.674 130.29C104.707 130.357 104.824 130.34 104.791 130.257C104.59 129.706 104.289 129.221 103.888 128.787C103.838 128.737 103.754 128.82 103.805 128.87Z" fill="white"/>
<path d="M104.474 129.79C104.374 129.806 104.273 129.806 104.173 129.823C104.123 129.823 104.089 129.89 104.123 129.923C104.19 129.973 104.24 130.073 104.206 130.157C104.19 130.224 104.123 130.257 104.123 130.324C104.123 130.357 104.14 130.408 104.173 130.424C104.206 130.458 104.273 130.474 104.273 130.508C104.273 130.591 104.407 130.591 104.407 130.508C104.407 130.441 104.374 130.424 104.34 130.374C104.323 130.357 104.273 130.341 104.273 130.324C104.257 130.274 104.307 130.24 104.323 130.207C104.374 130.073 104.34 129.906 104.223 129.823C104.206 129.856 104.19 129.89 104.173 129.923C104.273 129.906 104.374 129.906 104.474 129.89C104.558 129.906 104.558 129.773 104.474 129.79Z" fill="white"/>
<path d="M123.049 114.775C126.861 115.844 130.673 116.93 134.484 117.999C135.571 119.051 137.26 120.488 139.617 121.657C143.68 123.678 148.595 124.362 148.996 123.41C149.18 122.993 148.144 122.058 146.07 120.187C144.298 118.6 143.512 118.116 142.259 116.963C141.339 116.112 140.068 114.825 138.748 113.005C137.226 112.988 135.387 112.838 133.348 112.404C130.054 111.685 127.446 110.483 125.64 109.447C124.771 111.234 123.901 113.005 123.049 114.775Z" fill="#161616"/>
<path d="M86.2685 72.5683C83.7105 76.5267 85.583 81.4539 87.6561 86.8655C90.6153 94.6488 95.1628 99.7931 97.4867 102.198C107.886 112.988 120.659 117.598 128.015 119.602C128.767 116.161 129.503 112.704 130.255 109.263C125.173 106.507 121.428 103.501 118.87 101.163C114.573 97.2377 107.384 90.6736 104.375 80.4852C102.519 74.1717 103.689 71.3156 100.931 69.2779C97.0854 66.4719 89.2444 67.9417 86.2685 72.5683Z" fill="#A59FB9"/>
<path opacity="0.14" d="M103.071 74.4385C101.666 76.71 99.8943 80.4012 100.413 84.6603C101.014 89.5875 104.358 92.7109 112.316 99.7259C119.305 105.872 125.106 110.866 129.169 114.324C129.52 112.637 129.854 110.967 130.205 109.28C127.564 107.793 124.136 105.622 120.441 102.582C118.402 100.895 115.426 98.4231 112.233 94.5147C110.026 91.8089 107.067 88.1344 105.01 82.5391C103.823 79.2989 103.322 76.4428 103.071 74.4385Z" fill="#6D6C6C"/>
<path opacity="0.14" d="M107.652 88.3857C108.104 89.9391 108.906 92.1772 110.361 94.6324C111.631 96.7703 113.42 99.1087 119.673 104.42C122.164 106.525 125.474 109.214 129.57 112.17C129.805 111.218 130.022 110.266 130.256 109.314C127.949 108.044 126.093 106.842 124.772 105.923C120.676 103.084 117.867 100.395 116.179 98.7579C115.142 97.7558 114.005 96.6367 112.584 95.0333C110.377 92.4778 108.772 90.1395 107.652 88.3857Z" fill="#6D6C6C"/>
<path d="M71.0215 110.516C73.1448 112.42 75.268 114.325 77.3913 116.229C75.0674 124.647 74.3652 129.023 75.3015 129.407C76.4216 129.858 79.8991 124.48 85.7506 113.272C81.9722 110.633 78.2105 107.994 74.4321 105.372C73.2785 107.076 72.1416 108.796 71.0215 110.516Z" fill="#161616"/>
<path d="M86.0852 68.7772C78.6287 74.0885 73.1282 78.0303 70.3864 79.9845C60.3385 87.1665 55.3062 90.841 54.8548 94.4654C53.9854 101.531 61.9936 108.846 64.167 110.834C66.2067 112.704 68.1461 113.99 69.517 114.792C70.6204 114.558 73.68 113.79 76.2379 111.001C78.4782 108.579 79.1302 105.923 79.3476 104.804C76.5221 102.165 73.6799 99.5095 70.8545 96.8706C76.4385 94.1314 81.0194 92.0269 84.1625 90.6239C88.593 88.6363 90.1478 88.0517 92.5386 86.3648C95.5647 84.2436 99.5939 81.354 100.731 76.3767C101.015 75.1241 101.784 71.817 100.045 69.4787C97.8718 66.539 92.1875 66.0547 86.0852 68.7772Z" fill="#A59FB9"/>
<path opacity="0.12" d="M94.5788 72.4688C95.1472 72.8696 100.146 76.5107 99.3102 80.0015C99.2099 80.3857 98.9591 81.1874 96.6185 83.2251C93.4921 85.9643 90.5496 87.5343 89.0784 88.2859C85.9353 89.906 83.6615 90.8748 81.4379 91.8435C78.8466 92.9626 75.1183 94.6328 70.5708 96.7874C73.4464 99.4431 76.3053 102.099 79.1809 104.754C79.0806 105.523 78.8633 106.491 78.4286 107.544C77.7598 109.181 76.8403 110.366 76.1716 111.101C75.2186 109.281 73.8978 107.143 72.0755 104.972C68.9993 101.28 65.7057 98.9086 63.248 97.4388C69.2668 94.8666 77.4087 90.4739 85.3167 83.0247C89.1619 79.3835 92.2047 75.7424 94.5788 72.4688Z" fill="#6D6C6C"/>
<path opacity="0.19" d="M98.8573 79.283C98.0214 78.3811 92.6547 82.0222 90.0466 83.7592C85.1313 87.0496 77.9256 91.6427 68.1953 97.2046C71.957 99.7935 75.7187 102.399 79.4804 104.988C76.6048 102.249 73.7125 99.5096 70.8369 96.7704C71.7564 96.3194 73.3112 95.5678 75.2506 94.6492C78.5107 93.0958 82.0216 91.4757 86.7363 89.271C87.5555 88.8868 89.963 87.7511 93.0058 86.0474C94.9953 84.9284 96.9514 83.7592 98.222 81.471C98.5898 80.8196 99.2251 79.6838 98.8573 79.283Z" fill="#6D6C6C"/>
<path d="M92.0373 36.7917C91.2013 35.8898 89.4626 36.2572 88.5932 36.441C85.6006 37.059 83.912 38.8461 81.12 41.3014C79.6153 42.6208 77.4252 44.4414 74.5997 46.5125C73.7638 42.7545 72.9446 39.0131 72.1086 35.2551C72.443 34.8375 72.9947 34.0191 73.1786 32.8834C73.279 32.2821 73.5297 30.1609 72.0752 28.8247C70.4702 27.3382 67.5612 27.5553 66.2237 29.0919C64.8695 30.6452 65.5717 33.017 65.906 34.1527C66.2237 35.2217 66.7085 36.0401 67.093 36.5746C66.976 37.7605 66.859 39.4808 66.976 41.5519C67.0931 43.7733 67.2268 46.0448 68.2801 48.5502C69.1327 50.5712 70.1526 52.993 72.3093 53.8782C74.6499 54.847 77.0741 53.4607 81.8055 50.6714C89.2285 46.2954 91.0007 42.671 91.4187 41.7857C91.8701 40.8337 93.1574 38.011 92.0373 36.7917Z" fill="white" stroke="#161616" stroke-width="2" stroke-miterlimit="10"/>
<path d="M71.5904 33.6179C71.022 33.1335 70.4201 32.5824 70.2195 31.8308C70.1359 31.4967 70.069 31.029 70.6876 31.1126C70.8381 31.1293 71.0554 31.313 71.1724 31.3965C71.5235 31.6303 71.8412 31.931 72.1254 32.2316C72.2424 32.3485 72.4096 32.1648 72.3093 32.0479C71.9415 31.647 70.4535 30.1104 70.0021 31.0958C69.5507 32.098 70.7712 33.2338 71.4232 33.7682C71.5403 33.9018 71.7074 33.7181 71.5904 33.6179Z" fill="#161616"/>
<path d="M66.0067 29.4086C66.0903 30.6279 66.4748 32.4819 68.1132 32.2146C68.2804 32.1812 68.1968 31.9474 68.0463 31.9808C66.5918 32.2146 66.3243 30.4442 66.2574 29.4086C66.2407 29.2583 65.9899 29.2583 66.0067 29.4086Z" fill="#161616"/>
<path d="M67.6783 28.3735C68.3972 29.3757 68.5644 30.5782 68.1631 31.7474C68.113 31.8977 68.347 31.9645 68.3972 31.8142C68.8151 30.595 68.6312 29.2922 67.8789 28.2399C67.7953 28.1063 67.578 28.2399 67.6783 28.3735Z" fill="#161616"/>
<path d="M69.552 27.9558C70.1873 29.125 70.0369 30.5112 69.1675 31.5301C69.0672 31.647 69.2344 31.8307 69.3514 31.7138C70.2876 30.6282 70.4715 29.1082 69.7693 27.8389C69.7025 27.6885 69.4851 27.8222 69.552 27.9558Z" fill="#161616"/>
<path d="M71.624 28.8079C71.9083 29.4426 71.7578 30.1608 71.2562 30.6285C71.1392 30.7454 71.3231 30.9124 71.4401 30.8122C72.0253 30.261 72.1925 29.4092 71.8581 28.6743C71.7745 28.524 71.5572 28.6576 71.624 28.8079Z" fill="#161616"/>
<path opacity="0.17" d="M67.6287 28.1064C67.9129 28.0229 68.264 27.9227 68.5984 28.0563C69.5012 28.4238 69.9024 30.2777 69.0999 31.2465C68.7823 31.6473 68.3309 31.7977 68.0466 31.8812C68.0634 32.1651 68.0801 32.6328 68.1135 33.2174C68.1135 33.2174 68.1971 34.7707 68.2974 36.0902C68.5649 39.6311 68.8324 43.0049 70.2702 46.5124C70.7216 47.6315 71.4907 49.2015 72.7947 50.972C73.4635 50.8384 74.8177 50.5043 76.406 49.8362C85.5176 45.978 90.0985 35.7227 91.7203 36.5578C92.0212 36.7081 92.272 37.2927 92.3054 37.3929C92.6063 38.1279 92.4559 38.8461 92.2218 39.6144C91.6199 41.5518 90.7004 42.9715 90.4329 43.3724C89.4465 44.8422 88.5103 45.7942 88.2595 46.0448C87.1561 47.1471 86.1697 47.8152 84.3473 48.9844C80.9367 51.1557 79.2314 52.2414 78.0778 52.709C75.7372 53.6611 73.7477 54.4795 71.9087 53.611C70.8052 53.0932 70.2535 52.208 69.451 50.8718C67.7457 47.999 67.4281 45.193 67.1773 42.5874C67.0268 41.1009 66.9265 39.0632 67.0937 36.6246C66.1574 35.1214 65.7896 33.7685 65.6224 32.9167C65.4051 31.7976 65.2379 30.8623 65.706 29.8435C65.8398 29.643 66.4082 28.4572 67.6287 28.1064Z" fill="#6D6C6C"/>
<path opacity="0.2" d="M92.3389 38.2274C92.155 38.1439 91.5866 39.0124 90.9847 39.9143C90.1153 41.2338 89.6806 41.9019 88.9617 43.4051C86.9388 47.6475 80.2012 51.0715 79.3318 51.5225C77.9609 52.2073 75.9881 53.0591 73.4468 53.6604C72.2765 52.5914 70.1198 50.37 68.8994 47.23C68.2306 45.5096 67.9798 43.806 67.9297 43.522C67.7458 42.3362 67.7291 41.4175 67.7123 40.3653C67.6956 38.9122 67.7458 37.6428 67.8461 36.6239C67.4783 35.9391 67.1272 35.1541 66.7928 34.319C66.2244 32.8659 65.8566 31.513 65.6225 30.3271C65.5556 31.2625 65.5723 32.6488 66.0405 34.2355C66.3414 35.2377 66.7259 36.0561 67.0937 36.6741C66.7761 39.3798 66.8931 41.6347 67.0937 43.2381C67.0937 43.2381 67.5452 46.946 69.4845 51.0548C69.8022 51.7229 70.2536 52.5747 71.1731 53.2428C72.3601 54.0946 73.6307 54.1614 74.032 54.1614C74.7007 54.1781 75.4698 54.0779 78.5293 52.4745C81.1876 51.0882 83.0266 49.9023 83.7121 49.4514C84.9994 48.6162 85.6347 48.182 86.3202 47.6475C87.7246 46.5285 90.015 44.6912 91.4194 41.6848C92.1383 40.1147 92.573 38.3443 92.3389 38.2274Z" fill="#6D6C6C"/>
<path d="M93.542 32.8501C90.2985 35.0715 86.3864 38.579 84.748 43.8235C83.5442 47.6818 84.33 50.2707 84.1628 56.5006C84.0625 60.0582 83.6947 65.2193 82.3906 71.5328C83.1597 72.3512 87.7406 77.0112 94.7959 76.8441C99.1761 76.7439 102.319 74.8231 103.657 73.8878C102.654 67.6077 102.921 62.597 103.356 59.1396C104.142 53.0098 106.181 49.4522 106.165 42.4706C106.165 39.0634 105.696 36.2741 105.295 34.4201C104.409 33.752 102.721 32.6664 100.346 32.1987C97.1699 31.6141 94.612 32.4325 93.542 32.8501Z" fill="white" stroke="#161616" stroke-width="2" stroke-miterlimit="10"/>
<path opacity="0.13" d="M98.5071 32.2324C98.5406 33.8693 98.5406 36.2744 98.2731 39.1472C97.9721 42.5712 97.2699 47.2813 94.3107 56.4843C92.7392 61.3781 90.4487 67.7417 87.1719 75.0573C88.9942 76.0427 90.6159 76.4603 91.7026 76.644C95.7318 77.3288 98.992 76.1096 100.547 75.5083C101.918 74.9738 102.988 74.3725 103.723 73.9215C103.439 72.2012 103.138 69.8462 103.038 67.0068C102.988 65.6706 102.904 61.3113 103.941 55.2316C104.894 49.6196 105.646 49.319 106.097 45.5943C106.649 40.9344 105.997 36.9759 105.312 34.2701C104.476 33.7189 103.172 32.984 101.45 32.5665C100.313 32.2992 99.2929 32.2324 98.5071 32.2324Z" fill="#6D6C6C"/>
<path opacity="0.15" d="M101.333 32.6826C101.5 35.806 101.567 39.8646 101.216 44.5747C101.048 46.8796 100.681 51.4728 99.5103 56.5837C98.457 61.227 96.2668 68.2754 91.3516 76.2925C92.572 76.5765 94.3442 76.8437 96.4508 76.6266C99.8614 76.2758 102.336 74.8728 103.59 74.021C102.586 66.9058 103.055 61.3272 103.707 57.4856C104.325 53.8445 105.044 52.0407 105.529 48.0822C106.214 42.3533 105.73 37.5764 105.195 34.3696C104.81 34.0188 104.175 33.501 103.272 33.1169C102.503 32.8329 101.817 32.7327 101.333 32.6826Z" fill="#6D6C6C"/>
<path d="M102.904 34.8867C105.312 34.8867 108.455 35.1373 112.016 36.0726C116.563 37.2752 120.057 39.1458 122.381 40.649C123.15 42.7201 124.555 47.3968 123.251 53.0088C122.599 55.8482 121.462 58.0362 120.492 59.5394C120.425 61.2431 120.81 62.3621 121.194 63.0803C121.629 63.9321 122.298 64.7005 122.03 65.4187C121.897 65.7861 121.562 66.0032 121.311 66.1369C121.295 66.187 121.094 66.5711 120.643 66.688C120.124 66.805 119.757 66.4709 119.723 66.4375C119.623 66.521 119.188 66.9386 118.503 66.9386C117.75 66.9553 117.282 66.4709 117.199 66.3874C117.048 66.4542 116.68 66.5544 116.229 66.4709C115.61 66.354 115.276 65.9197 115.176 65.8028C114.825 65.5189 113.922 64.6671 113.838 63.4144C113.805 62.9467 113.905 62.5124 114.173 61.861C114.507 61.0593 115.192 59.7398 116.647 58.3535C117.098 56.249 117.433 53.5266 117.249 50.3698C117.148 48.7497 116.931 47.2966 116.664 46.0105C114.122 45.0752 110.979 44.1899 107.318 43.739C105.847 43.5553 104.442 43.4717 103.138 43.455C100.915 42.2358 99.8112 39.8807 100.329 37.843C100.864 35.9557 102.586 35.0537 102.904 34.8867Z" fill="white" stroke="#161616" stroke-width="2" stroke-miterlimit="10"/>
<path d="M114.657 62.0949C114.373 63.3977 114.339 64.7339 115.159 65.853C115.259 65.9866 115.476 65.853 115.376 65.7193C114.59 64.6504 114.624 63.3977 114.891 62.1617C114.925 62.0114 114.69 61.9279 114.657 62.0949Z" fill="#161616"/>
<path d="M116.129 62.68C116.146 63.9326 116.346 65.4191 117.182 66.4046C117.282 66.5215 117.466 66.3545 117.366 66.2209C116.58 65.3022 116.396 63.8491 116.38 62.68C116.38 62.5129 116.129 62.5129 116.129 62.68Z" fill="#161616"/>
<path d="M117.901 62.8968C118.018 64.1494 118.503 65.7696 119.623 66.4878C119.757 66.5713 119.891 66.3541 119.757 66.2706C118.72 65.6025 118.269 64.0492 118.152 62.8968C118.135 62.7297 117.884 62.7297 117.901 62.8968Z" fill="#161616"/>
<path d="M119.372 63.0473C119.573 64.3 120.208 65.4024 121.178 66.2208C121.295 66.321 121.479 66.154 121.361 66.0371C120.409 65.2521 119.823 64.1831 119.623 62.9805C119.589 62.8135 119.355 62.8803 119.372 63.0473Z" fill="#161616"/>
<path opacity="0.17" d="M100.664 37.309C103.506 37.0752 108.371 37.0752 113.838 39.163C117.048 40.3989 119.539 41.9857 121.295 43.3385C122.315 52.9424 120.877 57.0345 119.255 58.9553C118.904 59.3561 117.516 60.8927 117.349 63.0975C117.216 64.7677 117.801 66.8054 118.62 66.9223C118.954 66.9724 119.272 66.6885 119.523 66.4045C120.008 66.7553 120.375 66.7386 120.509 66.7052C120.626 66.6885 120.793 66.6384 121.429 66.154C121.93 65.7698 122.181 65.5694 122.231 65.4692C122.549 64.8512 121.679 64.0161 121.111 62.9304C120.743 62.2289 120.375 61.16 120.425 59.59C121.579 57.7527 123.753 53.6773 123.769 48.1655C123.786 44.9587 123.05 42.3531 122.415 40.6328C120.927 39.6473 119.606 38.9792 118.637 38.5283C118.386 38.4113 118.352 38.3779 114.24 36.858C112.518 36.2233 112.166 36.0897 111.514 35.9394C110.612 35.7223 110.562 35.7891 108.488 35.4383C107.418 35.2546 106.348 35.121 105.278 34.9373C104.994 34.8871 103.924 34.7201 102.988 35.0041C102.854 35.0542 102.537 35.1377 102.185 35.3715C102.102 35.4383 101.851 35.6054 101.5 35.9895C101.283 36.2901 100.965 36.7077 100.664 37.309Z" fill="#6D6C6C"/>
<path opacity="0.14" d="M122.247 40.8662C122.565 43.8225 122.598 46.3279 122.565 48.1986C122.515 50.5536 122.481 51.9065 122.047 53.7437C121.478 56.1656 120.492 58.3035 120.392 58.5206C119.873 59.6063 119.79 59.6063 119.505 60.3746C119.104 61.4602 118.302 63.5814 119.255 65.2183C119.372 65.4354 120.04 66.5879 120.977 66.4876C121.846 66.4041 122.297 65.2684 122.314 65.2183C121.913 64.5335 121.478 63.6482 121.11 62.6127C120.793 61.6941 120.592 60.8423 120.475 60.1241C121.445 58.5707 122.632 56.2825 123.284 53.3095C124.504 47.614 123.033 42.9373 122.247 40.8662Z" fill="#6D6C6C"/>
<path d="M89.6303 21.442C85.9522 22.0266 84.8488 27.2043 84.7318 27.7221C84.481 28.8913 83.829 31.9478 85.8519 34.2193C87.8414 36.4575 90.9177 36.2069 91.3022 36.1735C92.0713 36.1067 93.8936 35.7894 95.2812 34.353C97.7222 31.8643 97.4547 27.4549 95.4986 24.6489C95.2645 24.3315 92.8236 20.941 89.6303 21.442Z" fill="black"/>
<path d="M91.6369 28.0397C91.5533 28.7579 91.9044 29.1253 92.8407 31.0795C93.5763 32.6161 94.0611 33.9022 94.3621 34.7206C94.9639 34.8542 96.5522 35.1382 98.3244 34.3866C99.5281 33.8855 100.297 33.1172 100.698 32.6495C100.163 31.781 99.4445 30.4949 98.8594 28.8414C97.9398 26.3026 98.1572 25.3172 97.3213 24.8161C95.6494 23.8641 91.871 25.8851 91.6369 28.0397Z" fill="white" stroke="#161616" stroke-width="2" stroke-miterlimit="10"/>
<path d="M88.492 9.54993C87.188 10.4519 86.7198 11.8047 85.817 14.427C84.7972 17.4 84.1285 19.9889 83.9613 21.8262C83.9278 22.0934 84.095 22.3607 84.3625 22.4609C84.7136 22.5945 85.2988 22.5945 85.6331 22.6446C85.6666 23.463 85.817 24.5988 86.3353 25.8347C87.3552 28.29 89.1608 29.6596 89.9967 30.1941C91.0333 30.2943 93.6414 30.4112 96.216 28.8412C97.9213 27.7889 98.8074 26.4861 99.0081 26.1688C100.312 24.1812 100.429 22.1936 100.429 21.3418C100.83 21.3084 101.466 21.2082 102.084 20.7906C103.355 19.9388 104.308 17.9679 103.505 16.8823C102.904 16.0973 101.399 15.8801 99.9777 16.5816C99.9443 15.9636 99.8273 15.1118 99.5096 14.1264C99.426 13.8925 98.8409 12.0887 97.7542 10.8694C95.6476 8.53108 91.1336 7.69596 88.492 9.54993Z" fill="white" stroke="#161616" stroke-width="2" stroke-miterlimit="10"/>
<path d="M92.6899 30.6948C94.345 30.5445 95.833 29.8597 97.02 28.6906C97.254 28.4567 96.8862 28.106 96.6689 28.3398C95.5822 29.4255 94.228 30.0602 92.6899 30.2105C92.3722 30.2105 92.3555 30.7115 92.6899 30.6948Z" fill="#161616"/>
<path d="M92.9407 31.113C94.6628 30.6287 96.1842 29.7267 97.4213 28.424C97.6387 28.1901 97.2876 27.8394 97.0702 28.0732C95.8999 29.3092 94.4621 30.1777 92.8237 30.6287C92.4893 30.7122 92.6231 31.1966 92.9407 31.113Z" fill="#161616"/>
<path d="M85.0656 16.4649C84.8316 16.2477 83.0092 14.4606 83.2767 11.8383C83.5777 9.04901 86.0019 7.71282 86.4031 7.49569C88.5431 6.32652 90.6497 6.81089 91.1345 6.94451C91.8868 6.47684 93.241 5.77534 95.0299 5.55821C97.6882 5.22417 99.7613 6.09269 100.597 6.51025C101.701 6.8443 103.272 7.49569 104.576 8.89869C106.399 10.8529 105.981 12.473 107.853 15.7634C108.589 17.0662 108.555 16.6486 111.347 20.3899C113.855 23.7471 115.109 25.4507 115.31 26.6867C115.728 29.3925 114.273 32.1985 112.467 33.852C108.957 37.0589 102.704 37.1925 99.7279 33.969C97.2702 31.3133 97.822 27.2379 97.9891 25.9351C98.2901 23.7137 99.126 22.0268 99.7279 21.0413C100.012 21.0914 100.447 21.1582 100.932 21.0413C101.851 20.8409 102.955 20.0893 103.155 18.8867C103.172 18.8032 103.406 17.1664 102.236 16.5484C101.5 16.1642 100.53 16.3312 99.8616 16.9826C99.0257 16.6987 97.638 16.1475 96.2671 14.9784C94.8962 13.8092 94.1104 12.5565 93.7092 11.7715C93.1073 11.5043 91.9203 11.1201 90.4658 11.3038C87.6069 11.6713 86.0687 13.9929 85.8347 14.3604C85.5839 15.0452 85.3164 15.7467 85.0656 16.4649Z" fill="black"/>
<path d="M88.7948 18.0186C88.7446 17.8515 88.7112 17.7012 88.7112 17.5342C88.7112 17.434 88.7112 17.3338 88.7279 17.2335C88.7446 17.1333 88.7948 17.0832 88.7112 17.0164C88.5941 16.9329 88.661 17.0999 88.6777 17.1667C88.6777 17.2502 88.6777 17.3338 88.6777 17.434C88.6777 17.5175 88.6777 17.9016 88.5941 17.9517C88.661 17.935 88.7279 17.935 88.7948 17.9183C88.8449 17.9851 88.8616 17.9851 88.8449 17.9183C88.8449 17.8682 88.8282 17.8348 88.8282 17.7847C88.8115 17.6845 88.7948 17.601 88.7948 17.5008C88.7948 17.3171 88.8115 17.1333 88.9118 16.983C89.079 16.6991 88.6443 16.4485 88.4771 16.7325C88.3434 16.9663 88.2932 17.2335 88.2932 17.5175C88.2932 17.7513 88.3099 18.1021 88.4604 18.2858C88.5941 18.4695 88.8449 18.4528 88.9954 18.2858C89.1793 18.0854 89.196 17.7012 89.2127 17.434C89.2294 17.2001 89.2462 16.8828 89.0957 16.6824C88.9619 16.4986 88.7279 16.4652 88.544 16.5989C88.126 16.9162 88.2096 17.7346 88.3434 18.1689C88.3935 18.4528 88.8784 18.3192 88.7948 18.0186Z" fill="#161616"/>
<path d="M87.6241 15.8804C88.3931 15.2792 89.5467 15.4462 90.0984 16.2312C90.2322 16.4316 90.5665 16.2312 90.4161 16.0475C89.6972 15.0453 88.3095 14.8616 87.3399 15.6132C87.1727 15.7635 87.4402 16.0308 87.6241 15.8804Z" fill="#161616"/>
<path d="M86.1183 24.7489C87.1883 24.4148 88.1078 23.8135 88.8267 22.9784C88.9772 22.7947 88.7264 22.5274 88.5592 22.7112C87.8738 23.5129 87.0211 24.0808 86.018 24.3981C85.7839 24.4482 85.8842 24.8157 86.1183 24.7489Z" fill="#161616"/>
<path d="M88.7765 19.6388C88.7765 19.5887 88.7598 19.6054 88.7264 19.7056C88.693 19.7223 88.6595 19.7223 88.6261 19.739C88.6261 19.739 88.6261 19.739 88.6428 19.739C88.6094 19.7223 88.5759 19.7223 88.5425 19.7056L88.5258 19.6889C88.509 19.6555 88.4923 19.6388 88.4756 19.6054C88.4756 19.6221 88.4756 19.6221 88.4756 19.5887C88.4923 19.5553 88.4923 19.5219 88.5091 19.4885C88.5258 19.4718 88.5592 19.4384 88.5759 19.4217C88.6261 19.4217 88.6762 19.405 88.7264 19.405C88.7264 19.405 88.7264 19.405 88.7097 19.405C88.4756 19.3548 88.3753 19.7056 88.6094 19.7724C88.8267 19.8225 88.9437 19.5553 88.7933 19.405C88.7264 19.3381 88.6094 19.3381 88.5258 19.3716C88.4422 19.4217 88.4087 19.5219 88.4087 19.6221C88.392 19.8893 88.7765 19.8893 88.7765 19.6388Z" fill="#161616"/>
<path d="M90.4329 18.2521C90.4329 18.2521 90.4496 18.2521 90.4496 18.2354C90.4831 18.2354 90.5165 18.2354 90.55 18.2354C90.6336 18.2521 90.667 18.3523 90.6168 18.4191C90.6001 18.4358 90.5667 18.4693 90.55 18.486C90.5332 18.486 90.5165 18.5027 90.4831 18.5027C90.4496 18.486 90.4162 18.486 90.3828 18.4692L90.3661 18.4526C90.3493 18.4191 90.3326 18.4024 90.3159 18.369C90.3159 18.3189 90.3159 18.2855 90.3493 18.2521C90.3828 18.2354 90.3995 18.2187 90.4329 18.202C90.4496 18.202 90.4496 18.202 90.4664 18.202C90.3661 18.1853 90.2825 18.3022 90.2825 18.3857C90.2825 18.5027 90.3661 18.5528 90.4664 18.5695C90.6001 18.5862 90.7004 18.4525 90.7004 18.3189C90.7004 18.1686 90.5332 18.0684 90.3995 18.1185C90.1153 18.2354 90.3661 18.7198 90.6168 18.5361C90.7004 18.486 90.7339 18.369 90.6837 18.2855C90.6503 18.2354 90.5165 18.202 90.4329 18.2521Z" fill="#161616"/>
<path d="M90.3981 20.0556C90.465 20.089 90.465 20.1893 90.3981 20.2227C90.2978 20.1726 90.2142 20.1224 90.1139 20.0556C90.1139 20.1057 90.1139 20.1559 90.1139 20.206C90.1975 20.1392 90.2643 20.089 90.3479 20.0222C90.3646 20.0556 90.3646 20.0723 90.3814 20.089C90.3646 19.9888 90.2978 19.9053 90.1975 19.9053C90.0971 19.9053 89.9968 19.9888 90.0136 20.089C90.0303 20.2227 90.1139 20.3563 90.2476 20.373C90.3646 20.3897 90.4817 20.3229 90.4817 20.1893C90.4817 20.1392 90.4817 20.089 90.4817 20.0389C90.4817 19.8886 90.3145 19.8051 90.1975 19.8719C90.0136 19.9721 90.0136 20.2394 90.1975 20.3563C90.4315 20.4899 90.6154 20.1726 90.3981 20.0556Z" fill="#161616"/>
<path opacity="0.15" d="M93.5931 11.7217C93.8773 12.6236 94.2284 13.9264 94.5126 15.5131C95.1145 18.8369 95.6997 21.8433 94.5126 24.8497C93.4928 27.4553 91.6537 29.1924 90.1992 30.2279C91.3695 30.1778 92.7906 30.0108 94.3622 29.5598C95.1145 29.3427 95.8 29.0921 96.4186 28.8416C96.6526 29.7101 96.8867 30.8793 96.8867 32.2823C96.8867 33.2677 96.7696 34.1363 96.6359 34.8378C96.9536 34.8545 97.5554 34.8545 98.2242 34.5872C98.826 34.3367 99.2273 33.9859 99.4614 33.7688C99.8124 34.1363 100.364 34.6039 101.1 35.0549C103.758 36.6249 106.533 36.2074 107.302 36.0737C107.971 35.9568 111.398 35.3221 113.622 32.2322C114.241 31.3804 115.461 29.66 115.26 27.2549C115.077 25.0001 113.722 23.5303 113.254 23.0459C113.003 23.6639 112.318 25.0669 110.797 26.1191C110.512 26.3196 108.155 27.8896 105.363 27.138C102.772 26.4532 100.799 24.0146 100.431 21.0416C100.682 21.0416 101.1 21.0249 101.568 20.8412C101.802 20.741 102.621 20.3568 103.006 19.4048C103.073 19.221 103.39 18.4193 103.006 17.5508C102.939 17.4005 102.521 16.4652 101.518 16.3148C100.615 16.1812 99.9462 16.7992 99.8793 16.8827C98.8929 16.5654 97.1709 15.8806 95.5659 14.3273C94.5962 13.4086 93.9776 12.4566 93.5931 11.7217Z" fill="#6D6C6C"/>
<path opacity="0.23" d="M101.55 20.7909C100.915 20.6406 100.28 20.4903 99.6445 20.3232C99.3937 20.674 99.0426 21.1918 98.6748 21.8599C97.772 23.48 97.5881 24.4821 97.0865 25.6012C96.6853 26.5031 95.9664 27.7224 94.6289 28.9918C95.398 28.7245 96.167 28.4406 96.9361 28.1734C97.3039 28.925 97.9058 30.4115 97.7553 32.3322C97.6884 33.2509 97.4711 34.0192 97.237 34.5871C97.9894 34.3365 98.7417 34.0693 99.494 33.8188C99.1262 33.3344 98.6247 32.5828 98.2569 31.5639C97.7386 30.1108 97.772 28.9083 97.7887 27.8226C97.8055 27.3382 97.8723 25.8183 98.4575 23.931C98.8253 22.7785 99.26 21.8432 99.6445 21.1584C99.8953 21.1918 100.28 21.2085 100.714 21.1083C101.066 21.0247 101.35 20.9078 101.55 20.7909Z" fill="#6D6C6C"/>
<path opacity="0.25" d="M85.584 25.2002C85.4335 25.5843 84.6979 27.5886 85.7345 29.5762C86.5202 31.0961 88.4095 32.733 90.3488 32.2319C91.6529 31.8978 92.3551 30.7621 92.5891 30.3779C93.2244 31.8978 93.8597 33.4178 94.495 34.9377C94.3279 35.0713 94.0604 35.2717 93.726 35.4555C91.3352 36.825 88.6937 35.9565 88.4931 35.8897C87.9748 35.706 86.3531 35.1214 85.2998 33.4679C84.3134 31.8978 84.4137 30.3111 84.4973 29.0918C84.5976 27.3381 85.166 26.0019 85.584 25.2002Z" fill="#6D6C6C"/>
<path d="M0.735155 66.2545C6.36934 65.9705 11.7026 67.9581 16.7516 70.2296C21.8675 72.5346 26.8497 75.0399 32.2665 76.5766C35.4598 77.4952 38.7366 78.1132 42.0469 78.4973C42.3646 78.5307 42.3646 78.0297 42.0469 77.9963C36.0282 77.3115 30.1767 75.708 24.6261 73.2862C19.6607 71.1149 14.8624 68.4926 9.64619 66.9393C6.75387 66.0708 3.76123 65.6031 0.735155 65.7534C0.400782 65.7534 0.400782 66.2545 0.735155 66.2545Z" fill="#161616"/>
<path d="M33.3023 69.1269C43.2164 73.553 54.351 73.0019 64.8169 71.1646C68.0938 70.5967 71.3539 69.9119 74.5973 69.2104C74.915 69.1436 74.7812 68.6592 74.4636 68.7261C63.8472 70.9809 52.8631 73.2691 42.0294 71.2815C39.1204 70.747 36.2615 69.8952 33.5698 68.6926C33.2688 68.5757 33.018 69.01 33.3023 69.1269Z" fill="#161616"/>
<path d="M110.744 105.271C117.883 108.044 125.557 105.755 132.311 103C135.956 101.513 139.55 99.8762 143.312 98.6569C147.124 97.4376 151.053 96.5691 155.032 96.1014C159.445 95.5837 163.909 95.5503 168.34 95.9678C168.657 96.0012 168.657 95.5002 168.34 95.4667C160.699 94.7318 152.942 95.3999 145.552 97.4543C138.045 99.5588 131.241 103.684 123.617 105.355C119.404 106.273 114.957 106.357 110.878 104.787C110.577 104.67 110.443 105.154 110.744 105.271Z" fill="#161616"/>
<path d="M157.507 88.3849C167.12 85.5622 177.485 85.8128 186.948 89.1031C187.249 89.2034 187.383 88.719 187.082 88.6188C177.535 85.3117 167.07 85.0612 157.373 87.9006C157.072 87.9841 157.206 88.4685 157.507 88.3849Z" fill="#161616"/>
<path d="M97.1845 11.6708C100.779 10.9359 104.374 10.1843 108.035 9.86695C111.713 9.54961 115.324 9.78344 118.935 10.4682C125.857 11.8044 132.595 13.9757 139.65 14.6772C143.512 15.0614 147.407 14.9946 151.219 14.2263C151.537 14.1595 151.403 13.6751 151.085 13.7419C143.98 15.1783 136.741 14.0425 129.769 12.4558C122.831 10.8858 116.043 8.7813 108.837 9.28237C104.858 9.56631 100.946 10.368 97.0508 11.1697C96.7331 11.2533 96.8669 11.7376 97.1845 11.6708Z" fill="#161616"/>
<path d="M120.04 14.644C131.158 18.2851 142.827 21.4585 154.647 20.1557C157.807 19.805 160.934 19.1202 163.943 18.0846C164.244 17.9844 164.11 17.5001 163.809 17.6003C152.725 21.4585 140.771 20.0388 129.67 17.0491C126.476 16.1973 123.317 15.1951 120.19 14.1763C119.873 14.0594 119.739 14.5437 120.04 14.644Z" fill="#161616"/>
</svg>
