<svg width="22" height="22" viewBox="0 0 22 22" fill="none" xmlns="http://www.w3.org/2000/svg">
  <path d="M16.4998 20.1667H5.49984C5.01361 20.1667 4.54729 19.9735 4.20347 19.6297C3.85966 19.2859 3.6665 18.8196 3.6665 18.3333V3.66666C3.6665 3.18043 3.85966 2.71411 4.20347 2.3703C4.54729 2.02648 5.01361 1.83333 5.49984 1.83333H11.9165C11.9247 1.83225 11.933 1.83225 11.9413 1.83333H11.9468C11.9554 1.83603 11.9643 1.83787 11.9733 1.83883C12.054 1.84433 12.1338 1.85991 12.2108 1.88558H12.2493C12.2662 1.89742 12.2821 1.9106 12.2969 1.92499C12.3968 1.9694 12.4878 2.03151 12.5655 2.10833L18.0655 7.60833C18.1423 7.68605 18.2045 7.77704 18.2488 7.87691C18.2568 7.89673 18.2639 7.91692 18.2699 7.93741L18.2791 7.96308C18.3048 8.03916 18.3194 8.11891 18.324 8.19958C18.3248 8.20871 18.327 8.21767 18.3304 8.22616V8.23166C18.3319 8.23767 18.3328 8.24381 18.3332 8.24999V18.3333C18.3332 18.8196 18.14 19.2859 17.7962 19.6297C17.4524 19.9735 16.9861 20.1667 16.4998 20.1667ZM13.2218 12.8333V17.4167H14.0835V15.5467H15.4218V14.7785H14.0835V13.6042H15.5832V12.8333H13.2218ZM9.83017 12.8333V17.4167H10.9357C11.1646 17.428 11.3932 17.3877 11.6046 17.2989C11.8159 17.21 12.0046 17.0749 12.1567 16.9033C12.4728 16.4999 12.6312 15.9951 12.6022 15.4834V14.7409C12.6235 14.2346 12.4607 13.7376 12.1438 13.3421C11.8459 13.0029 11.4105 12.8159 10.9586 12.8333H9.83017ZM6.4165 12.8333V17.4167H7.27817V15.8042H7.852C8.23517 15.8253 8.60917 15.6832 8.88234 15.4137C9.14257 15.1225 9.2776 14.7405 9.25817 14.3504C9.27518 13.9509 9.14024 13.5599 8.8805 13.2559C8.75362 13.1152 8.59715 13.0043 8.42234 12.9313C8.24752 12.8582 8.0587 12.8248 7.86942 12.8333H6.4165ZM11.9165 3.66666V8.24999H16.4998L11.9165 3.66666ZM10.9503 16.6485H10.6918V13.6042H11.0053C11.1149 13.5978 11.2243 13.6189 11.3236 13.6657C11.4229 13.7124 11.5089 13.7833 11.5737 13.8719C11.7084 14.1497 11.7662 14.4586 11.7405 14.7666V15.5632C11.7607 15.8565 11.6974 16.1498 11.5572 16.4074C11.4832 16.4938 11.3892 16.5609 11.2835 16.6029C11.1778 16.6449 11.0635 16.6605 10.9503 16.6485ZM7.86942 15.0333H7.27725V13.6042H7.87767C7.95141 13.605 8.02373 13.6246 8.08787 13.6609C8.152 13.6973 8.20584 13.7494 8.24434 13.8123C8.34334 13.9764 8.391 14.1652 8.38184 14.3568C8.39333 14.5351 8.34599 14.7122 8.24709 14.861C8.20214 14.9174 8.14451 14.9624 8.07888 14.9924C8.01326 15.0223 7.94149 15.0363 7.86942 15.0333Z" fill="url(#paint0_linear_962_3091)"/>
  <defs>
    <linearGradient id="paint0_linear_962_3091" x1="3.6665" y1="10.9996" x2="10.9998" y2="10.9996" gradientUnits="userSpaceOnUse">
      <stop stop-color="#242424"/>
      <stop offset="1" stop-color="#6C27FF"/>
    </linearGradient>
  </defs>
</svg>
