<?xml version="1.0" encoding="utf-8"?><svg xmlns="http://www.w3.org/2000/svg" xmlns:xlink="http://www.w3.org/1999/xlink"><symbol fill="none" viewBox="0 0 20 12" id="arrow-no-body" xmlns="http://www.w3.org/2000/svg"><path d="m19 10.5-9-9-9 9" stroke="currentColor" stroke-width="2" stroke-linecap="round" stroke-linejoin="round"/></symbol><symbol fill="none" viewBox="0 0 20 22" id="bell" xmlns="http://www.w3.org/2000/svg"><path d="M12.389 19.857c-1.364 1.515-3.492 1.533-4.87 0M10 16.847c5.64 0 8.248-.723 8.5-3.627 0-2.901-1.819-2.715-1.819-6.275C16.681 4.165 14.045 1 10 1S3.319 4.164 3.319 6.945c0 3.56-1.819 3.374-1.819 6.275.253 2.915 2.862 3.628 8.5 3.628Z" stroke="currentColor" stroke-width="2" stroke-linecap="round" stroke-linejoin="round"/></symbol><symbol fill="none" viewBox="0 0 34 34" id="check" xmlns="http://www.w3.org/2000/svg"><path d="m10.453 15.532 3.976 4.257 9.047-9.688c.335-.36.762-.539 1.28-.539s.944.18 1.28.539c.335.357.511.805.526 1.344.014.54-.146.988-.481 1.347L15.708 23.899c-.335.36-.761.538-1.28.538-.517 0-.944-.179-1.279-.538L7.94 18.321c-.335-.359-.503-.815-.503-1.37 0-.555.168-1.011.503-1.37.334-.36.753-.548 1.256-.564.503-.015.922.156 1.257.515Z" fill="currentColor"/></symbol><symbol fill="none" viewBox="0 0 23 23" id="circle-check" xmlns="http://www.w3.org/2000/svg"><path d="M11.5 0C5.149 0 0 5.149 0 11.5 0 17.852 5.149 23 11.5 23 17.852 23 23 17.852 23 11.5 23 5.149 17.852 0 11.5 0Zm0 21.585c-5.548 0-10.063-4.537-10.063-10.085 0-5.548 4.515-10.063 10.063-10.063 5.548 0 10.063 4.515 10.063 10.063 0 5.548-4.515 10.085-10.063 10.085Zm4.59-14.293-6.748 6.79-3.038-3.039a.72.72 0 0 0-1.017 1.017l3.558 3.557a.72.72 0 0 0 1.101-.104l7.16-7.204a.72.72 0 0 0-1.016-1.017Z" fill="currentColor"/></symbol><symbol fill="none" viewBox="0 0 32 32" id="cross" xmlns="http://www.w3.org/2000/svg"><path fill-rule="evenodd" clip-rule="evenodd" d="M9.635 9.636a1 1 0 0 1 1.415 0l4.95 4.95 4.95-4.95a1 1 0 1 1 1.413 1.414L17.413 16l4.95 4.95a1 1 0 0 1-1.414 1.414L16 17.414l-4.95 4.95a1 1 0 0 1-1.414-1.414l4.95-4.95-4.95-4.95a1 1 0 0 1 0-1.414Z" fill="currentColor"/></symbol><symbol fill="none" viewBox="0 0 7 10" id="geo-point" xmlns="http://www.w3.org/2000/svg"><path d="M3.5 2.25a1.25 1.25 0 1 1 0 2.5 1.25 1.25 0 0 1 0-2.5ZM3.5 0A3.5 3.5 0 0 1 7 3.5C7 6.125 3.5 10 3.5 10S0 6.125 0 3.5A3.5 3.5 0 0 1 3.5 0Zm0 1A2.5 2.5 0 0 0 1 3.5C1 4 1 5 3.5 8.355 6 5 6 4 6 3.5A2.5 2.5 0 0 0 3.5 1Z" fill="currentColor"/></symbol><symbol fill="none" viewBox="0 0 24 24" id="growth" xmlns="http://www.w3.org/2000/svg"><path d="M3 15v1.799c0 1.12 0 1.68.218 2.108a2 2 0 0 0 .874.874c.427.218.987.218 2.105.218H21m-18-5V5m0 10 3.853-3.21.004-.003c.697-.581 1.046-.872 1.425-.99a2 2 0 0 1 1.362.061c.367.153.688.474 1.332 1.118l.006.006c.654.654.981.982 1.354 1.133a2 2 0 0 0 1.385.046c.383-.128.733-.433 1.433-1.046L21 6.999" stroke="currentColor" stroke-width="2" stroke-linecap="round" stroke-linejoin="round"/></symbol><symbol fill="none" viewBox="0 0 24 24" id="left-arrow" xmlns="http://www.w3.org/2000/svg"><path fill-rule="evenodd" clip-rule="evenodd" d="M14.78 17.03a.75.75 0 0 0 0-1.06L10.81 12l3.97-3.97a.75.75 0 0 0-1.06-1.06l-4.5 4.5a.75.75 0 0 0 0 1.06l4.5 4.5a.75.75 0 0 0 1.06 0Z" fill="#332E2D"/></symbol><symbol fill="none" viewBox="0 0 24 24" id="lib" xmlns="http://www.w3.org/2000/svg"><path d="M12 9.799v10.2m0-10.2c0-1.68 0-2.52.327-3.162a3 3 0 0 1 1.31-1.311c.642-.327 1.483-.327 3.163-.327h2.6c.56 0 .84 0 1.054.109.188.096.34.249.437.437.109.214.109.494.109 1.054v8.8c0 .56 0 .84-.11 1.054a.998.998 0 0 1-.436.437c-.213.109-.493.109-1.052.109h-2.833c-.939 0-1.41 0-1.836.13a2.995 2.995 0 0 0-1.032.552c-.344.283-.605.674-1.126 1.455L12 20m0-10.2c0-1.68 0-2.52-.327-3.162a3 3 0 0 0-1.311-1.311C9.72 4.999 8.88 4.999 7.2 4.999H4.6c-.56 0-.84 0-1.054.109a1 1 0 0 0-.437.437C3 5.759 3 6.039 3 6.599v8.8c0 .56 0 .84.109 1.054a1 1 0 0 0 .437.437C3.76 17 4.039 17 4.598 17h2.833c.939 0 1.408 0 1.835.13.377.114.73.302 1.034.552.343.282.602.67 1.118 1.446l.582.872" stroke="currentColor" stroke-width="2" stroke-linecap="round" stroke-linejoin="round"/></symbol><symbol fill="none" viewBox="0 0 20 21" id="logout" xmlns="http://www.w3.org/2000/svg"><path d="M11.25 8V6.75A1.25 1.25 0 0 0 10 5.5H5.625a1.25 1.25 0 0 0-1.25 1.25v7.5a1.25 1.25 0 0 0 1.25 1.25H10a1.25 1.25 0 0 0 1.25-1.25V13" stroke="currentColor" stroke-width="1.5" stroke-linecap="round" stroke-linejoin="round"/><path d="M6.875 10.5h8.75L13.75 8.625m0 3.75 1.875-1.875" stroke="currentColor" stroke-width="1.5" stroke-linecap="round" stroke-linejoin="round"/></symbol><symbol fill="none" viewBox="0 0 24 24" id="logout2" xmlns="http://www.w3.org/2000/svg"><path d="m12 15 3-3m0 0-3-3m3 3H4m0-4.752V7.2c0-1.12 0-1.68.218-2.108.192-.377.497-.682.874-.874C5.52 4 6.08 4 7.2 4h9.6c1.12 0 1.68 0 2.107.218.377.192.683.497.875.874.218.427.218.987.218 2.105v9.607c0 1.118 0 1.677-.218 2.104a2.002 2.002 0 0 1-.875.874c-.427.218-.986.218-2.104.218H7.197c-1.118 0-1.678 0-2.105-.218a2 2 0 0 1-.874-.874C4 18.48 4 17.92 4 16.8v-.05" stroke="currentColor" stroke-width="2" stroke-linecap="round" stroke-linejoin="round"/></symbol><symbol fill="none" viewBox="0 0 24 25" id="pdf" xmlns="http://www.w3.org/2000/svg"><path d="M18.188 23H5.813a2.044 2.044 0 0 1-1.459-.615A2.12 2.12 0 0 1 3.75 20.9V4.1c0-.556.217-1.09.604-1.484a2.044 2.044 0 0 1 1.458-.615h7.22a.106.106 0 0 1 .027 0h.006a.15.15 0 0 0 .03.006c.09.007.18.024.267.054h.044a.434.434 0 0 1 .053.045c.113.05.215.122.302.21l6.188 6.3c.086.089.156.193.206.307a.768.768 0 0 1 .024.07l.01.029c.029.087.046.178.05.27.002.011.004.022.008.031v.007a.115.115 0 0 1 .003.02V20.9a2.12 2.12 0 0 1-.604 1.485 2.044 2.044 0 0 1-1.459.615ZM14.5 14.6v5.25h.97v-2.142h1.505v-.88h-1.506v-1.345h1.687V14.6H14.5Zm-3.816 0v5.25h1.244c.257.013.515-.033.752-.135.238-.102.45-.256.621-.453.356-.462.534-1.04.502-1.626v-.85a2.43 2.43 0 0 0-.516-1.603 1.674 1.674 0 0 0-1.333-.583h-1.27Zm-3.84 0v5.25h.97v-1.847h.645c.43.024.851-.138 1.159-.447a1.72 1.72 0 0 0 .423-1.218 1.832 1.832 0 0 0-.425-1.254 1.443 1.443 0 0 0-1.138-.484H6.844ZM13.03 4.1v5.25h5.156L13.032 4.1Zm-1.087 14.87h-.29v-3.487h.352a.728.728 0 0 1 .64.307c.151.318.216.672.187 1.025v.912c.023.336-.048.672-.206.967a.79.79 0 0 1-.683.276Zm-3.466-1.85h-.666v-1.637h.676a.483.483 0 0 1 .412.239c.111.188.165.404.155.623a.947.947 0 0 1-.152.578.517.517 0 0 1-.425.197Z" fill="#6C27FF"/></symbol><symbol fill="none" viewBox="0 0 24 24" id="receipt" xmlns="http://www.w3.org/2000/svg"><path d="M22 8.42C22 10 21 11 19.42 11H16V4.01C16 2.9 16.91 2 18.02 2c1.09.01 2.09.45 2.81 1.17C21.55 3.9 22 4.9 22 6v2.42Z" stroke="currentColor" stroke-width="1.5" stroke-linecap="round" stroke-linejoin="round"/><path d="M2 21c0 .83.94 1.3 1.6.8l1.71-1.28c.4-.3.96-.26 1.32.1l1.66 1.67c.39.39 1.03.39 1.42 0l1.68-1.68c.35-.35.91-.39 1.3-.09l1.71 1.28c.66.49 1.6.02 1.6-.8V4c0-1.1.9-2 2-2H6C3 2 2 3.79 2 6v15ZM6 9h6M6.75 13h4.5" stroke="currentColor" stroke-width="1.5" stroke-linecap="round" stroke-linejoin="round"/></symbol><symbol fill="none" viewBox="0 0 34 34" id="search" xmlns="http://www.w3.org/2000/svg"><path fill-rule="evenodd" clip-rule="evenodd" d="M16.643 9.563c-3.935 0-7.08 3.107-7.08 6.886 0 3.78 3.145 6.887 7.08 6.887s7.081-3.107 7.081-6.886c0-3.78-3.146-6.887-7.08-6.887Zm-9.206 6.886c0-5 4.146-9.012 9.206-9.012s9.206 4.011 9.206 9.012a8.855 8.855 0 0 1-2.161 5.803l2.553 2.487a1.062 1.062 0 1 1-1.482 1.522l-2.638-2.568a9.305 9.305 0 0 1-5.478 1.768c-5.06 0-9.206-4.01-9.206-9.011Z" fill="#332E2D"/></symbol><symbol fill="none" viewBox="0 0 20 20" id="search-sidebar" xmlns="http://www.w3.org/2000/svg"><path fill-rule="evenodd" clip-rule="evenodd" d="M9.643 2.563c-3.935 0-7.08 3.107-7.08 6.887 0 3.78 3.145 6.887 7.08 6.887s7.081-3.108 7.081-6.887c0-3.78-3.146-6.887-7.08-6.887ZM.437 9.45C.438 4.448 4.583.438 9.643.438s9.206 4.01 9.206 9.012a8.855 8.855 0 0 1-2.161 5.802l2.553 2.487a1.062 1.062 0 1 1-1.482 1.522l-2.638-2.568a9.305 9.305 0 0 1-5.478 1.768c-5.06 0-9.206-4.01-9.206-9.011Z" fill="currentColor"/></symbol></svg>