<?xml version="1.0" encoding="utf-8"?><svg xmlns="http://www.w3.org/2000/svg" xmlns:xlink="http://www.w3.org/1999/xlink"><symbol fill="none" viewBox="0 0 20 12" id="arrow-no-body" xmlns="http://www.w3.org/2000/svg"><path d="m19 10.5-9-9-9 9" stroke="currentColor" stroke-width="2" stroke-linecap="round" stroke-linejoin="round"/></symbol><symbol fill="none" viewBox="0 0 34 34" id="check" xmlns="http://www.w3.org/2000/svg"><path d="m10.453 15.532 3.976 4.257 9.047-9.688c.335-.36.762-.539 1.28-.539s.944.18 1.28.539c.335.357.511.805.526 1.344.014.54-.146.988-.481 1.347L15.708 23.899c-.335.36-.761.538-1.28.538-.517 0-.944-.179-1.279-.538L7.94 18.321c-.335-.359-.503-.815-.503-1.37 0-.555.168-1.011.503-1.37.334-.36.753-.548 1.256-.564.503-.015.922.156 1.257.515Z" fill="currentColor"/></symbol><symbol fill="none" viewBox="0 0 23 23" id="circle-check" xmlns="http://www.w3.org/2000/svg"><path d="M11.5 0C5.149 0 0 5.149 0 11.5 0 17.852 5.149 23 11.5 23 17.852 23 23 17.852 23 11.5 23 5.149 17.852 0 11.5 0Zm0 21.585c-5.548 0-10.063-4.537-10.063-10.085 0-5.548 4.515-10.063 10.063-10.063 5.548 0 10.063 4.515 10.063 10.063 0 5.548-4.515 10.085-10.063 10.085Zm4.59-14.293-6.748 6.79-3.038-3.039a.72.72 0 0 0-1.017 1.017l3.558 3.557a.72.72 0 0 0 1.101-.104l7.16-7.204a.72.72 0 0 0-1.016-1.017Z" fill="currentColor"/></symbol><symbol fill="none" viewBox="0 0 32 32" id="cross" xmlns="http://www.w3.org/2000/svg"><path fill-rule="evenodd" clip-rule="evenodd" d="M9.635 9.636a1 1 0 0 1 1.415 0l4.95 4.95 4.95-4.95a1 1 0 1 1 1.413 1.414L17.413 16l4.95 4.95a1 1 0 0 1-1.414 1.414L16 17.414l-4.95 4.95a1 1 0 0 1-1.414-1.414l4.95-4.95-4.95-4.95a1 1 0 0 1 0-1.414Z" fill="currentColor"/></symbol><symbol fill="none" viewBox="0 0 7 10" id="geo-point" xmlns="http://www.w3.org/2000/svg"><path d="M3.5 2.25a1.25 1.25 0 1 1 0 2.5 1.25 1.25 0 0 1 0-2.5ZM3.5 0A3.5 3.5 0 0 1 7 3.5C7 6.125 3.5 10 3.5 10S0 6.125 0 3.5A3.5 3.5 0 0 1 3.5 0Zm0 1A2.5 2.5 0 0 0 1 3.5C1 4 1 5 3.5 8.355 6 5 6 4 6 3.5A2.5 2.5 0 0 0 3.5 1Z" fill="currentColor"/></symbol><symbol fill="none" viewBox="0 0 24 24" id="growth" xmlns="http://www.w3.org/2000/svg"><path d="M3 15v1.799c0 1.12 0 1.68.218 2.108a2 2 0 0 0 .874.874c.427.218.987.218 2.105.218H21m-18-5V5m0 10 3.853-3.21.004-.003c.697-.581 1.046-.872 1.425-.99a2 2 0 0 1 1.362.061c.367.153.688.474 1.332 1.118l.006.006c.654.654.981.982 1.354 1.133a2 2 0 0 0 1.385.046c.383-.128.733-.433 1.433-1.046L21 6.999" stroke="currentColor" stroke-width="2" stroke-linecap="round" stroke-linejoin="round"/></symbol><symbol fill="none" viewBox="0 0 24 24" id="left-arrow" xmlns="http://www.w3.org/2000/svg"><path fill-rule="evenodd" clip-rule="evenodd" d="M14.78 17.03a.75.75 0 0 0 0-1.06L10.81 12l3.97-3.97a.75.75 0 0 0-1.06-1.06l-4.5 4.5a.75.75 0 0 0 0 1.06l4.5 4.5a.75.75 0 0 0 1.06 0Z" fill="#332E2D"/></symbol><symbol fill="none" viewBox="0 0 24 24" id="lib" xmlns="http://www.w3.org/2000/svg"><path d="M12 9.799v10.2m0-10.2c0-1.68 0-2.52.327-3.162a3 3 0 0 1 1.31-1.311c.642-.327 1.483-.327 3.163-.327h2.6c.56 0 .84 0 1.054.109.188.096.34.249.437.437.109.214.109.494.109 1.054v8.8c0 .56 0 .84-.11 1.054a.998.998 0 0 1-.436.437c-.213.109-.493.109-1.052.109h-2.833c-.939 0-1.41 0-1.836.13a2.995 2.995 0 0 0-1.032.552c-.344.283-.605.674-1.126 1.455L12 20m0-10.2c0-1.68 0-2.52-.327-3.162a3 3 0 0 0-1.311-1.311C9.72 4.999 8.88 4.999 7.2 4.999H4.6c-.56 0-.84 0-1.054.109a1 1 0 0 0-.437.437C3 5.759 3 6.039 3 6.599v8.8c0 .56 0 .84.109 1.054a1 1 0 0 0 .437.437C3.76 17 4.039 17 4.598 17h2.833c.939 0 1.408 0 1.835.13.377.114.73.302 1.034.552.343.282.602.67 1.118 1.446l.582.872" stroke="currentColor" stroke-width="2" stroke-linecap="round" stroke-linejoin="round"/></symbol><symbol fill="none" viewBox="0 0 32 32" id="search" xmlns="http://www.w3.org/2000/svg"><path fill-rule="evenodd" clip-rule="evenodd" d="M15.664 9C11.961 9 9 11.925 9 15.482c0 3.557 2.96 6.482 6.664 6.482 3.704 0 6.665-2.925 6.665-6.482 0-3.557-2.961-6.482-6.665-6.482ZM7 15.482C7 10.775 10.902 7 15.664 7c4.763 0 8.665 3.775 8.665 8.482a8.334 8.334 0 0 1-2.035 5.461l2.404 2.34a1 1 0 0 1-1.396 1.433L20.82 22.3a8.757 8.757 0 0 1-5.156 1.665C10.902 23.964 7 20.189 7 15.482Z" fill="currentColor"/></symbol></svg>