<?xml version="1.0" encoding="utf-8"?><svg xmlns="http://www.w3.org/2000/svg" xmlns:xlink="http://www.w3.org/1999/xlink"><symbol fill="none" viewBox="0 0 20 12" id="arrow-no-body" xmlns="http://www.w3.org/2000/svg"><path d="m19 10.5-9-9-9 9" stroke="currentColor" stroke-width="2" stroke-linecap="round" stroke-linejoin="round"/></symbol><symbol fill="none" viewBox="0 0 20 22" id="bell" xmlns="http://www.w3.org/2000/svg"><path d="M12.389 19.857c-1.364 1.515-3.492 1.533-4.87 0M10 16.847c5.64 0 8.248-.723 8.5-3.627 0-2.901-1.819-2.715-1.819-6.275C16.681 4.165 14.045 1 10 1S3.319 4.164 3.319 6.945c0 3.56-1.819 3.374-1.819 6.275.253 2.915 2.862 3.628 8.5 3.628Z" stroke="currentColor" stroke-width="2" stroke-linecap="round" stroke-linejoin="round"/></symbol><symbol fill="none" viewBox="0 0 34 34" id="check" xmlns="http://www.w3.org/2000/svg"><path d="m10.453 15.532 3.976 4.257 9.047-9.688c.335-.36.762-.539 1.28-.539s.944.18 1.28.539c.335.357.511.805.526 1.344.014.54-.146.988-.481 1.347L15.708 23.899c-.335.36-.761.538-1.28.538-.517 0-.944-.179-1.279-.538L7.94 18.321c-.335-.359-.503-.815-.503-1.37 0-.555.168-1.011.503-1.37.334-.36.753-.548 1.256-.564.503-.015.922.156 1.257.515Z" fill="currentColor"/></symbol><symbol fill="none" viewBox="0 0 23 23" id="circle-check" xmlns="http://www.w3.org/2000/svg"><path d="M11.5 0C5.149 0 0 5.149 0 11.5 0 17.852 5.149 23 11.5 23 17.852 23 23 17.852 23 11.5 23 5.149 17.852 0 11.5 0Zm0 21.585c-5.548 0-10.063-4.537-10.063-10.085 0-5.548 4.515-10.063 10.063-10.063 5.548 0 10.063 4.515 10.063 10.063 0 5.548-4.515 10.085-10.063 10.085Zm4.59-14.293-6.748 6.79-3.038-3.039a.72.72 0 0 0-1.017 1.017l3.558 3.557a.72.72 0 0 0 1.101-.104l7.16-7.204a.72.72 0 0 0-1.016-1.017Z" fill="currentColor"/></symbol><symbol fill="none" viewBox="0 0 32 32" id="cross" xmlns="http://www.w3.org/2000/svg"><path fill-rule="evenodd" clip-rule="evenodd" d="M9.635 9.636a1 1 0 0 1 1.415 0l4.95 4.95 4.95-4.95a1 1 0 1 1 1.413 1.414L17.413 16l4.95 4.95a1 1 0 0 1-1.414 1.414L16 17.414l-4.95 4.95a1 1 0 0 1-1.414-1.414l4.95-4.95-4.95-4.95a1 1 0 0 1 0-1.414Z" fill="currentColor"/></symbol><symbol fill="none" viewBox="0 0 7 10" id="geo-point" xmlns="http://www.w3.org/2000/svg"><path d="M3.5 2.25a1.25 1.25 0 1 1 0 2.5 1.25 1.25 0 0 1 0-2.5ZM3.5 0A3.5 3.5 0 0 1 7 3.5C7 6.125 3.5 10 3.5 10S0 6.125 0 3.5A3.5 3.5 0 0 1 3.5 0Zm0 1A2.5 2.5 0 0 0 1 3.5C1 4 1 5 3.5 8.355 6 5 6 4 6 3.5A2.5 2.5 0 0 0 3.5 1Z" fill="currentColor"/></symbol><symbol fill="none" viewBox="0 0 24 24" id="growth" xmlns="http://www.w3.org/2000/svg"><path d="M3 15v1.799c0 1.12 0 1.68.218 2.108a2 2 0 0 0 .874.874c.427.218.987.218 2.105.218H21m-18-5V5m0 10 3.853-3.21.004-.003c.697-.581 1.046-.872 1.425-.99a2 2 0 0 1 1.362.061c.367.153.688.474 1.332 1.118l.006.006c.654.654.981.982 1.354 1.133a2 2 0 0 0 1.385.046c.383-.128.733-.433 1.433-1.046L21 6.999" stroke="currentColor" stroke-width="2" stroke-linecap="round" stroke-linejoin="round"/></symbol><symbol fill="none" viewBox="0 0 19 19" id="hint" xmlns="http://www.w3.org/2000/svg"><circle cx="9.372" cy="9.372" r="8.872" stroke="#8C888A"/><path d="M8.162 11.209v-.275c0-.309.033-.584.1-.825.075-.242.183-.45.325-.625.15-.183.279-.32.387-.412.117-.1.275-.221.475-.363.2-.141.35-.254.45-.337.1-.092.196-.217.287-.375.092-.167.138-.35.138-.55 0-.333-.113-.6-.338-.8a1.153 1.153 0 0 0-.812-.312c-.316 0-.596.104-.837.312-.242.2-.367.48-.375.838H6.25c.008-.592.158-1.104.45-1.537.291-.442.654-.763 1.087-.963.433-.2.9-.3 1.4-.3.8 0 1.482.25 2.049.75.575.5.862 1.17.862 2.012 0 .283-.033.538-.1.762a1.566 1.566 0 0 1-.3.6 3.81 3.81 0 0 1-.362.4c-.1.092-.246.217-.438.375a7.027 7.027 0 0 0-.462.375c-.1.091-.2.225-.3.4a1.219 1.219 0 0 0-.137.575v.275H8.162Zm-.05 2.724v-1.95h1.937v1.95H8.112Z" fill="#8C888A"/></symbol><symbol fill="none" viewBox="0 0 24 24" id="left-arrow" xmlns="http://www.w3.org/2000/svg"><path fill-rule="evenodd" clip-rule="evenodd" d="M14.78 17.03a.75.75 0 0 0 0-1.06L10.81 12l3.97-3.97a.75.75 0 0 0-1.06-1.06l-4.5 4.5a.75.75 0 0 0 0 1.06l4.5 4.5a.75.75 0 0 0 1.06 0Z" fill="#332E2D"/></symbol><symbol fill="none" viewBox="0 0 24 24" id="lib" xmlns="http://www.w3.org/2000/svg"><path d="M12 9.799v10.2m0-10.2c0-1.68 0-2.52.327-3.162a3 3 0 0 1 1.31-1.311c.642-.327 1.483-.327 3.163-.327h2.6c.56 0 .84 0 1.054.109.188.096.34.249.437.437.109.214.109.494.109 1.054v8.8c0 .56 0 .84-.11 1.054a.998.998 0 0 1-.436.437c-.213.109-.493.109-1.052.109h-2.833c-.939 0-1.41 0-1.836.13a2.995 2.995 0 0 0-1.032.552c-.344.283-.605.674-1.126 1.455L12 20m0-10.2c0-1.68 0-2.52-.327-3.162a3 3 0 0 0-1.311-1.311C9.72 4.999 8.88 4.999 7.2 4.999H4.6c-.56 0-.84 0-1.054.109a1 1 0 0 0-.437.437C3 5.759 3 6.039 3 6.599v8.8c0 .56 0 .84.109 1.054a1 1 0 0 0 .437.437C3.76 17 4.039 17 4.598 17h2.833c.939 0 1.408 0 1.835.13.377.114.73.302 1.034.552.343.282.602.67 1.118 1.446l.582.872" stroke="currentColor" stroke-width="2" stroke-linecap="round" stroke-linejoin="round"/></symbol><symbol fill="none" viewBox="0 0 20 21" id="logout" xmlns="http://www.w3.org/2000/svg"><path d="M11.25 8V6.75A1.25 1.25 0 0 0 10 5.5H5.625a1.25 1.25 0 0 0-1.25 1.25v7.5a1.25 1.25 0 0 0 1.25 1.25H10a1.25 1.25 0 0 0 1.25-1.25V13" stroke="currentColor" stroke-width="1.5" stroke-linecap="round" stroke-linejoin="round"/><path d="M6.875 10.5h8.75L13.75 8.625m0 3.75 1.875-1.875" stroke="currentColor" stroke-width="1.5" stroke-linecap="round" stroke-linejoin="round"/></symbol><symbol fill="none" viewBox="0 0 24 24" id="logout2" xmlns="http://www.w3.org/2000/svg"><path d="m12 15 3-3m0 0-3-3m3 3H4m0-4.752V7.2c0-1.12 0-1.68.218-2.108.192-.377.497-.682.874-.874C5.52 4 6.08 4 7.2 4h9.6c1.12 0 1.68 0 2.107.218.377.192.683.497.875.874.218.427.218.987.218 2.105v9.607c0 1.118 0 1.677-.218 2.104a2.002 2.002 0 0 1-.875.874c-.427.218-.986.218-2.104.218H7.197c-1.118 0-1.678 0-2.105-.218a2 2 0 0 1-.874-.874C4 18.48 4 17.92 4 16.8v-.05" stroke="currentColor" stroke-width="2" stroke-linecap="round" stroke-linejoin="round"/></symbol><symbol fill="none" viewBox="0 0 40 40" id="menu-burger" xmlns="http://www.w3.org/2000/svg"><path d="M6.667 30c-.473 0-.868-.16-1.187-.48A1.608 1.608 0 0 1 5 28.333c0-.472.16-.867.48-1.186.319-.32.714-.48 1.187-.48h26.666c.473 0 .868.16 1.187.48.32.319.48.714.48 1.186 0 .473-.16.868-.48 1.187-.319.32-.714.48-1.187.48H6.667Zm0-8.333c-.473 0-.868-.16-1.187-.48A1.609 1.609 0 0 1 5 20c0-.472.16-.868.48-1.188a1.611 1.611 0 0 1 1.187-.479h26.666c.473 0 .868.16 1.187.479.32.32.48.716.48 1.188s-.16.868-.48 1.187c-.319.32-.714.48-1.187.48H6.667Zm0-8.334c-.473 0-.868-.16-1.187-.478-.32-.32-.48-.716-.48-1.188 0-.473.16-.869.48-1.189A1.611 1.611 0 0 1 6.667 10h26.666c.473 0 .868.16 1.187.478.32.32.48.716.48 1.189 0 .472-.16.868-.48 1.188a1.611 1.611 0 0 1-1.187.478H6.667Z" fill="#332E2D"/></symbol><symbol fill="none" viewBox="0 0 40 40" id="menu-cross" xmlns="http://www.w3.org/2000/svg"><path d="M31.496 29.073a1.716 1.716 0 0 1 0 2.429 1.728 1.728 0 0 1-2.428 0L20 22.43l-9.068 9.07a1.728 1.728 0 0 1-2.428 0 1.714 1.714 0 0 1 0-2.428l9.068-9.07-9.068-9.072a1.717 1.717 0 0 1 2.428-2.428L20 17.573l9.068-9.07a1.717 1.717 0 1 1 2.428 2.428l-9.068 9.071 9.068 9.071Z" fill="#332E2D"/></symbol><symbol fill="none" viewBox="0 0 24 25" id="pdf" xmlns="http://www.w3.org/2000/svg"><path d="M18.188 23H5.813a2.044 2.044 0 0 1-1.459-.615A2.12 2.12 0 0 1 3.75 20.9V4.1c0-.556.217-1.09.604-1.484a2.044 2.044 0 0 1 1.458-.615h7.22a.106.106 0 0 1 .027 0h.006a.15.15 0 0 0 .03.006c.09.007.18.024.267.054h.044a.434.434 0 0 1 .053.045c.113.05.215.122.302.21l6.188 6.3c.086.089.156.193.206.307a.768.768 0 0 1 .024.07l.01.029c.029.087.046.178.05.27.002.011.004.022.008.031v.007a.115.115 0 0 1 .003.02V20.9a2.12 2.12 0 0 1-.604 1.485 2.044 2.044 0 0 1-1.459.615ZM14.5 14.6v5.25h.97v-2.142h1.505v-.88h-1.506v-1.345h1.687V14.6H14.5Zm-3.816 0v5.25h1.244c.257.013.515-.033.752-.135.238-.102.45-.256.621-.453.356-.462.534-1.04.502-1.626v-.85a2.43 2.43 0 0 0-.516-1.603 1.674 1.674 0 0 0-1.333-.583h-1.27Zm-3.84 0v5.25h.97v-1.847h.645c.43.024.851-.138 1.159-.447a1.72 1.72 0 0 0 .423-1.218 1.832 1.832 0 0 0-.425-1.254 1.443 1.443 0 0 0-1.138-.484H6.844ZM13.03 4.1v5.25h5.156L13.032 4.1Zm-1.087 14.87h-.29v-3.487h.352a.728.728 0 0 1 .64.307c.151.318.216.672.187 1.025v.912c.023.336-.048.672-.206.967a.79.79 0 0 1-.683.276Zm-3.466-1.85h-.666v-1.637h.676a.483.483 0 0 1 .412.239c.111.188.165.404.155.623a.947.947 0 0 1-.152.578.517.517 0 0 1-.425.197Z" fill="#6C27FF"/></symbol><symbol fill="none" viewBox="0 0 24 24" id="receipt" xmlns="http://www.w3.org/2000/svg"><path d="M22 8.42C22 10 21 11 19.42 11H16V4.01C16 2.9 16.91 2 18.02 2c1.09.01 2.09.45 2.81 1.17C21.55 3.9 22 4.9 22 6v2.42Z" stroke="currentColor" stroke-width="1.5" stroke-linecap="round" stroke-linejoin="round"/><path d="M2 21c0 .83.94 1.3 1.6.8l1.71-1.28c.4-.3.96-.26 1.32.1l1.66 1.67c.39.39 1.03.39 1.42 0l1.68-1.68c.35-.35.91-.39 1.3-.09l1.71 1.28c.66.49 1.6.02 1.6-.8V4c0-1.1.9-2 2-2H6C3 2 2 3.79 2 6v15ZM6 9h6M6.75 13h4.5" stroke="currentColor" stroke-width="1.5" stroke-linecap="round" stroke-linejoin="round"/></symbol><symbol fill="none" viewBox="0 0 34 34" id="search" xmlns="http://www.w3.org/2000/svg"><path fill-rule="evenodd" clip-rule="evenodd" d="M16.643 9.563c-3.935 0-7.08 3.107-7.08 6.886 0 3.78 3.145 6.887 7.08 6.887s7.081-3.107 7.081-6.886c0-3.78-3.146-6.887-7.08-6.887Zm-9.206 6.886c0-5 4.146-9.012 9.206-9.012s9.206 4.011 9.206 9.012a8.855 8.855 0 0 1-2.161 5.803l2.553 2.487a1.062 1.062 0 1 1-1.482 1.522l-2.638-2.568a9.305 9.305 0 0 1-5.478 1.768c-5.06 0-9.206-4.01-9.206-9.011Z" fill="#332E2D"/></symbol><symbol fill="none" viewBox="0 0 20 20" id="search-sidebar" xmlns="http://www.w3.org/2000/svg"><path fill-rule="evenodd" clip-rule="evenodd" d="M9.643 2.563c-3.935 0-7.08 3.107-7.08 6.887 0 3.78 3.145 6.887 7.08 6.887s7.081-3.108 7.081-6.887c0-3.78-3.146-6.887-7.08-6.887ZM.437 9.45C.438 4.448 4.583.438 9.643.438s9.206 4.01 9.206 9.012a8.855 8.855 0 0 1-2.161 5.802l2.553 2.487a1.062 1.062 0 1 1-1.482 1.522l-2.638-2.568a9.305 9.305 0 0 1-5.478 1.768c-5.06 0-9.206-4.01-9.206-9.011Z" fill="currentColor"/></symbol><symbol fill="none" viewBox="0 0 22 22" id="trackbuss" xmlns="http://www.w3.org/2000/svg"><mask id="sa" fill="#fff"><path d="M10.406.031C9.003.178 8.174.387 6.892.906c-1.327.536-2.365 1.225-3.444 2.288-1.45 1.42-2.302 2.772-2.919 4.6-.317.944-.56 2.591-.526 3.553.021.546.126 1.455.223 1.898.55 2.566 2.184 4.952 4.468 6.526.603.415.777.515 1.41.832a9.546 9.546 0 0 0 2.414.83c1.14.233 2.96.27 4.082.08.846-.143 1.773-.401 2.47-.694.25-.104 1.044-.494 1.288-.633a17.591 17.591 0 0 0 1.344-.93c.328-.268 1.083-1.024 1.3-1.292 1.427-1.77 2.141-3.274 2.458-5.172.31-1.877.038-4.124-.731-5.983-.248-.596-.307-.652-.69-.638-.066.004-.143.049-.233.14-.206.205-.195.344.094 1.076a10 10 0 0 1 .696 3.42c.052 1.689-.341 3.36-1.128 4.788a14.745 14.745 0 0 1-1.097 1.62c-.613.762-1.588 1.605-2.4 2.076-.947.55-2.09.995-3.033 1.18-1.494.29-2.417.3-3.995.035-2.145-.355-4.21-1.55-5.67-3.274-1.184-1.396-1.918-2.988-2.19-4.754-.094-.61-.084-2.037.017-2.71.223-1.486.638-2.6 1.467-3.959C3.792 3.8 5.959 2.124 8.142 1.494c.847-.247 1.665-.397 2.264-.425.592-.024.63-.031.79-.17.352-.3.2-.801-.268-.895-.048-.01-.282.003-.522.027Z"/></mask><path d="M10.406.031C9.003.178 8.174.387 6.892.906c-1.327.536-2.365 1.225-3.444 2.288-1.45 1.42-2.302 2.772-2.919 4.6-.317.944-.56 2.591-.526 3.553.021.546.126 1.455.223 1.898.55 2.566 2.184 4.952 4.468 6.526.603.415.777.515 1.41.832a9.546 9.546 0 0 0 2.414.83c1.14.233 2.96.27 4.082.08.846-.143 1.773-.401 2.47-.694.25-.104 1.044-.494 1.288-.633a17.591 17.591 0 0 0 1.344-.93c.328-.268 1.083-1.024 1.3-1.292 1.427-1.77 2.141-3.274 2.458-5.172.31-1.877.038-4.124-.731-5.983-.248-.596-.307-.652-.69-.638-.066.004-.143.049-.233.14-.206.205-.195.344.094 1.076a10 10 0 0 1 .696 3.42c.052 1.689-.341 3.36-1.128 4.788a14.745 14.745 0 0 1-1.097 1.62c-.613.762-1.588 1.605-2.4 2.076-.947.55-2.09.995-3.033 1.18-1.494.29-2.417.3-3.995.035-2.145-.355-4.21-1.55-5.67-3.274-1.184-1.396-1.918-2.988-2.19-4.754-.094-.61-.084-2.037.017-2.71.223-1.486.638-2.6 1.467-3.959C3.792 3.8 5.959 2.124 8.142 1.494c.847-.247 1.665-.397 2.264-.425.592-.024.63-.031.79-.17.352-.3.2-.801-.268-.895-.048-.01-.282.003-.522.027Z" fill="#161616"/><path d="M10.406.031 10.392-.1l.014.132ZM6.892.906l.05.123-.05-.123ZM3.448 3.194l.093.095-.093-.095Zm-2.919 4.6-.126-.042.126.042Zm-.526 3.553-.133.005.133-.005Zm.223 1.898.13-.03v.002l-.13.028Zm4.468 6.526-.075.11.075-.11Zm3.824 1.661-.026.13.026-.13Zm4.082.08-.022-.131.022.131Zm2.47-.693-.052-.123.051.123Zm1.288-.633.066.115-.066-.115Zm1.344-.93-.085-.103.085.103Zm1.3-1.292-.105-.084.104.084Zm2.458-5.172.131.021-.131-.021Zm-.731-5.983.123-.052-.123.052Zm-.69-.638-.007-.133h.002l.005.133Zm-.233.14-.095-.095.095.095Zm.094 1.076-.124.049.124-.05Zm.696 3.42-.133.004.133-.004Zm-1.128 4.788.117.065-.117-.065Zm-1.097 1.62-.104-.084.104.084Zm-2.4 2.076-.067-.116.067.116Zm-3.033 1.18.025.13v.001l-.025-.13Zm-3.995.035.022-.132-.022.132Zm-5.67-3.274.102-.086-.101.086Zm-2.19-4.754.132-.02-.132.02Zm.017-2.71.132.02-.132-.02ZM2.567 5.81l.113.07-.113-.07Zm5.575-4.315.038.128-.038-.128Zm2.264-.425L10.4.936l.006.133Zm.79-.17L11.11.798l.001-.001.087.102Zm-.268-.895-.026.13H10.9l.028-.13Zm-.508.16c-1.391.145-2.208.35-3.478.865l-.1-.247c1.293-.524 2.134-.736 3.55-.883l.028.265Zm-3.478.865c-1.31.53-2.333 1.209-3.4 2.26l-.188-.19C4.446 2.025 5.498 1.325 6.842.782l.1.247ZM3.541 3.29C2.107 4.696 1.265 6.029.656 7.837l-.253-.085c.623-1.85 1.488-3.219 2.951-4.654l.187.19ZM.656 7.837c-.312.929-.554 2.56-.52 3.505l-.266.01c-.035-.979.21-2.642.533-3.6l.253.085Zm-.52 3.504c.021.541.125 1.442.22 1.875l-.26.057c-.1-.452-.205-1.369-.226-1.921l.267-.01Zm.22 1.876C.9 15.748 2.513 18.105 4.77 19.66l-.151.22C2.308 18.289.654 15.874.096 13.273l.26-.056ZM4.77 19.66c.597.411.766.509 1.395.823l-.12.239a9.092 9.092 0 0 1-1.426-.842l.151-.22Zm1.395.823a9.416 9.416 0 0 0 2.38.818l-.054.26a9.676 9.676 0 0 1-2.446-.84l.12-.238Zm2.38.818c1.123.23 2.928.268 4.033.079l.045.263c-1.139.194-2.977.155-4.131-.081l.053-.261Zm4.033.079c.838-.141 1.754-.397 2.44-.685l.103.246c-.707.297-1.644.558-2.499.702l-.044-.263Zm2.44-.685c.246-.102 1.035-.49 1.274-.626l.132.231c-.249.142-1.048.535-1.303.641l-.103-.246Zm1.273-.626a17.51 17.51 0 0 0 1.326-.917l.17.205c-.229.19-1.085.783-1.363.943l-.133-.231Zm1.327-.918c.32-.262 1.07-1.012 1.28-1.272l.207.167c-.222.276-.985 1.038-1.318 1.312l-.17-.207Zm1.28-1.272c1.416-1.755 2.118-3.238 2.43-5.11l.264.044c-.322 1.924-1.047 3.45-2.487 5.233l-.207-.167Zm2.43-5.11c.306-1.851.038-4.072-.723-5.91l.247-.102c.779 1.881 1.054 4.153.74 6.055l-.264-.043Zm-.723-5.91a4.606 4.606 0 0 0-.153-.342.58.58 0 0 0-.108-.159c-.05-.046-.108-.061-.3-.054l-.01-.267c.19-.007.354-.002.491.126a.831.831 0 0 1 .164.23c.049.095.101.215.163.363l-.247.103Zm-.559-.556c-.014.001-.06.015-.146.1l-.189-.188c.096-.095.203-.172.321-.178l.014.266Zm-.146.1a.38.38 0 0 0-.085.112.243.243 0 0 0-.015.124c.011.129.077.327.224.698l-.248.098c-.143-.36-.227-.598-.242-.773a.507.507 0 0 1 .177-.447l.189.189Zm.124.934c.437 1.105.67 2.259.706 3.465l-.267.008a9.868 9.868 0 0 0-.687-3.375l.248-.098Zm.706 3.465c.052 1.712-.346 3.407-1.145 4.857l-.234-.129c.775-1.406 1.164-3.054 1.112-4.72l.267-.008Zm-1.146 4.857a14.849 14.849 0 0 1-1.11 1.638l-.207-.167c.326-.405.855-1.186 1.084-1.6l.233.129Zm-1.11 1.638c-.622.775-1.61 1.63-2.436 2.108l-.133-.23c.796-.462 1.759-1.294 2.362-2.045l.208.167Zm-2.436 2.108c-.958.556-2.114 1.008-3.075 1.196l-.05-.262c.927-.181 2.055-.62 2.991-1.165l.134.23Zm-3.075 1.196c-1.51.292-2.449.303-4.042.035l.044-.263c1.563.263 2.47.252 3.948-.034l.05.262Zm-4.041.035c-2.178-.36-4.272-1.572-5.75-3.319l.203-.172c1.44 1.701 3.477 2.878 5.59 3.228l-.043.264Zm-5.75-3.319c-1.2-1.414-1.945-3.029-2.22-4.82l.263-.04c.268 1.74.992 3.31 2.16 4.688l-.203.172Zm-2.22-4.82c-.05-.315-.07-.833-.067-1.352.004-.52.032-1.052.084-1.397l.263.04c-.049.326-.077.844-.08 1.359-.004.516.017 1.016.063 1.31l-.264.04ZM.967 9.75c.226-1.506.647-2.637 1.485-4.01l.227.14c-.82 1.344-1.228 2.441-1.448 3.91l-.264-.04Zm1.485-4.01c1.242-2.036 3.435-3.733 5.652-4.373l.074.256C6.03 2.243 3.89 3.896 2.68 5.88l-.227-.14Zm5.652-4.373c.853-.25 1.682-.401 2.295-.43l.012.266c-.585.028-1.393.175-2.232.42l-.075-.256ZM10.4.936c.302-.012.446-.02.535-.04.072-.015.101-.034.174-.098l.175.201a.587.587 0 0 1-.293.158c-.117.026-.29.033-.58.045l-.01-.266Zm.71-.139c.138-.117.168-.263.132-.385-.038-.123-.15-.24-.34-.278l.053-.261c.277.056.474.237.542.462a.626.626 0 0 1-.214.665L11.11.797ZM10.9.134h-.04a7.483 7.483 0 0 0-.441.03l-.026-.265a7.732 7.732 0 0 1 .466-.032c.03 0 .069 0 .097.006l-.056.26Z" fill="#161616" mask="url(#sa)"/><path d="M13.197 4.082c.007.017.313.345.682.724l4.26-3.765m-4.942 3.04c-.042-.121 1.03-1.413 1.518-1.828.7-.595 1.602-.954 2.866-1.142.202-.031.453-.06.557-.07m-4.942 3.04.062-.024-.004-.008-.001-.003v.001a.554.554 0 0 0 .013.015l-.002.006-.002.006v.002-.004l-.002-.012-.063.022Zm4.942-3.04.007.067h-.003l-.004-.067Zm.57.149.05-.044-.05.044Zm-3.401 4.917.028.061-.028-.06Zm2.797-2.178-.06-.03.06.03Zm-2.971 2.258.05-.023.032.045-.054.04-.028-.062Zm.012-.075-.054.039.054-.04Zm2.034-3.183v.002c.043.075.071.131.086.21.015.075.017.169.017.317 0 .185-.007.31-.047.42-.04.112-.11.203-.22.325h-.001c-.204.223-.458.338-.787.36-.11.007-.19.008-.262-.002a.774.774 0 0 1-.215-.066c-.37-.162-.604-.539-.604-.967 0-.208.038-.39.121-.55.083-.16.21-.294.378-.41a.965.965 0 0 1 .435-.174c.152-.018.31.005.491.064.283.092.466.238.607.471Z" fill="#161616" stroke="#161616" stroke-width=".133"/><path d="m16.458 3.091-.001-.001a.404.404 0 0 0-.172-.065.425.425 0 0 0-.186.006l-.02-.064.02.064a.46.46 0 0 0-.302.268.536.536 0 0 0 .032.43c.041.082.096.139.163.173.068.035.153.05.258.04.436-.042.58-.585.208-.85ZM8.173 2.086a2.14 2.14 0 0 0-.49.21 5.5 5.5 0 0 0-.613.391c-1.28.954-2.299 2.73-2.488 4.342-.11.95.148 2.278.634 3.25.283.563.794 1.228 1.363 1.818.57.59 1.193 1.097 1.697 1.35.932.47 2.017.763 2.95.8.832.035 1.698-.082 2.35-.316.221-.08.36-.148.456-.23a.635.635 0 0 0 .192-.318 1.495 1.495 0 0 0 .025-.097 2.69 2.69 0 0 0-.186.03 9.309 9.309 0 0 0-.469.109c-.866.213-1.184.252-2.04.252-.6-.003-.783-.013-1.12-.08-.975-.197-1.722-.49-2.417-.951a8.985 8.985 0 0 1-.742-.602 10.527 10.527 0 0 1-.73-.694c-.881-.97-1.36-2.165-1.417-3.535a4.962 4.962 0 0 1 .434-2.322c.57-1.28 1.388-2.202 2.7-3.048a4.006 4.006 0 0 0 .298-.205.434.434 0 0 0 .022-.02c.01-.013.008-.023.002-.036a.175.175 0 0 0-.076-.062.52.52 0 0 0-.335-.036ZM11.602 3.67h.002c.172-.03.382-.042.574-.035a1.655 1.655 0 0 1 .639.126.664.664 0 0 1 .049-.119c.03-.056.073-.124.125-.199a9.535 9.535 0 0 1 .868-1.037c.134-.137.26-.253.357-.325a7.131 7.131 0 0 0-.942.014c-.539.095-1.122.447-1.677 1.016-.136.139-.212.231-.251.305a.233.233 0 0 0-.025.182c.014.05.034.07.064.08.038.014.104.015.217-.007ZM12.563 4.47c-.111.082-.161.13-.18.17-.014.028-.015.058.016.124.015.032.05.086.104.159.053.071.12.158.2.254.157.191.356.42.557.643.202.223.406.44.573.607.084.084.158.154.218.207a.721.721 0 0 0 .12.094l.092.043.23-.15a1.9 1.9 0 0 0 .21-.155 14.98 14.98 0 0 0-.412-.457h-.002c-.045-.05-.098-.106-.156-.168a297.76 297.76 0 0 1-.83-.891c-.149-.164-.292-.312-.4-.42a3.562 3.562 0 0 0-.171-.156.938.938 0 0 0-.169.097ZM4.736 4.849c.041-.128-.023-.245-.133-.307a.289.289 0 0 0-.352.04.271.271 0 0 0-.088.203c.002.07.034.144.105.215.093.093.188.114.264.09.079-.024.157-.1.204-.241Z" fill="#161616" stroke="#161616" stroke-width=".133"/><path d="M11.2 7.599c.007-.223.115-1.024.167-1.268L11.2 7.6Zm0 0c-.007.191.066.223.494.195l-.494-.195Zm.728-2.229c-.21.224-.418.63-.496.976a12.932 12.932 0 0 0-.166 1.255.212.212 0 0 0 .01.087c.004.011.011.02.032.029a.4.4 0 0 0 .13.019c.063.001.145-.002.252-.009.73-.041 1.133-.14 1.528-.36a2.215 2.215 0 0 0 .463-.374.354.354 0 0 0 .032-.042l-.002-.004a.624.624 0 0 0-.04-.055 2.2 2.2 0 0 0-.332-.333 1.709 1.709 0 0 0-.186.127c-.242.192-.482.3-.826.369a5.428 5.428 0 0 1-.21.04.59.59 0 0 1-.128.011c-.034-.002-.074-.013-.098-.052a.165.165 0 0 1-.02-.089.9.9 0 0 1 .026-.161 5.19 5.19 0 0 1 .2-.658v-.001c.039-.077.147-.23.242-.35a1.926 1.926 0 0 0 .153-.217 3.161 3.161 0 0 0-.397-.372 2.663 2.663 0 0 0-.167.164ZM4.06 5.635l-.048.045a.37.37 0 0 0-.195-.12.252.252 0 0 0-.187.04l-.001.001a.43.43 0 0 0-.147.136.312.312 0 0 0-.044.17c0 .173.09.291.204.34.114.048.259.03.378-.091a.27.27 0 0 0 .07-.094.383.383 0 0 0 .015-.135.39.39 0 0 0-.016-.139.343.343 0 0 0-.077-.108l.049-.045Zm0 0c.095.1.112.146.112.292 0 .143-.017.189-.104.276-.275.278-.697.1-.697-.296 0-.157.07-.269.223-.363m.467.09c-.147-.156-.314-.187-.467-.09m0 0ZM17.286 5.795a2.91 2.91 0 0 0 .021-.16c-.04.027-.089.062-.14.1-.475.347-1.139.71-1.562.851l-.188.06.017.144v.001c.026.242-.025.644-.127.98-.03.103-.043.157-.046.196a.158.158 0 0 0 .018.088c.02.042.041.06.065.067.028.008.072.008.144-.018.145-.05.362-.185.694-.426.49-.361.83-.83.996-1.38.04-.14.082-.34.108-.503ZM10.153 6.812a.248.248 0 0 0-.102.091.27.27 0 0 0-.031.14c0 .068.012.12.036.163a.353.353 0 0 0 .125.122v.001c.07.047.123.065.166.065.042 0 .085-.014.136-.055.103-.081.15-.167.154-.245.005-.076-.03-.16-.122-.241a.323.323 0 0 0-.175-.085.31.31 0 0 0-.187.044ZM3.16 6.99c-.186.094-.26.308-.166.532a.288.288 0 0 0 .113.145.405.405 0 0 0 .212.044.434.434 0 0 0 .298-.095.346.346 0 0 0 .105-.264.407.407 0 0 0-.016-.13.299.299 0 0 0-.059-.098.484.484 0 0 0-.235-.17.352.352 0 0 0-.252.037ZM8.874 7.117c-.106.059-.156.195-.138.34.018.145.1.269.22.304.14.04.278-.043.355-.184.078-.141.078-.31-.028-.419a.292.292 0 0 0-.09-.066.304.304 0 0 0-.116-.015.784.784 0 0 0-.119.015.358.358 0 0 0-.084.025ZM7.67 8.188c.146.139.366.1.466-.093a.319.319 0 0 0 .003-.317.313.313 0 0 0-.278-.143c-.051 0-.101.021-.18.1a.347.347 0 0 0-.11.236.284.284 0 0 0 .098.217ZM6.631 8.389c-.046.049-.06.094-.056.136.005.046.032.101.096.165.048.048.076.07.104.082.027.012.059.017.12.017.083 0 .133-.018.162-.041.026-.022.044-.057.044-.115a.383.383 0 0 0-.047-.164.295.295 0 0 0-.09-.112.337.337 0 0 0-.184-.027c-.07.008-.124.032-.149.059ZM3.063 8.59a.396.396 0 0 0-.154.144.38.38 0 0 0-.063.196c0 .071.027.16.07.239.043.08.095.133.132.149h.001a.533.533 0 0 0 .243.021.51.51 0 0 0 .225-.069.486.486 0 0 0 .149-.195.385.385 0 0 0 .04-.211.402.402 0 0 0-.244-.279.482.482 0 0 0-.4.005ZM6.859 9.39c-.137-.08-.243-.053-.284.007a.566.566 0 0 0-.078.206.355.355 0 0 0 .005.176c.034.086.134.128.25.11.115-.02.212-.093.231-.196.024-.13-.027-.246-.124-.303l.033-.057-.033.057ZM3.882 10.855a.467.467 0 0 0 .195-.301c.027-.127.005-.244-.058-.31v-.001a.505.505 0 0 0-.275-.164.356.356 0 0 0-.266.059.568.568 0 0 0-.174.169.375.375 0 0 0-.048.2c0 .075.012.134.037.188a.6.6 0 0 0 .128.173c.01.01.034.024.071.033.037.01.082.015.13.015a.534.534 0 0 0 .26-.061Zm.035.056c.234-.142.317-.536.15-.713l-.15.713ZM17.92 10.135h-.001c-.072.062-.102.176-.083.293.02.118.084.213.17.246h.002c.12.047.228.043.308.007a.276.276 0 0 0 .156-.211c.026-.138-.053-.269-.177-.344-.125-.074-.273-.08-.376.01ZM17.026 11.372a.369.369 0 0 0-.203.262.415.415 0 0 0 .065.343.433.433 0 0 0 .287.175.35.35 0 0 0 .29-.105.448.448 0 0 0 .15-.367.37.37 0 0 0-.217-.292.515.515 0 0 0-.193-.058.386.386 0 0 0-.179.042ZM5.118 11.853c-.103-.21-.366-.303-.645-.204-.117.043-.198.15-.228.288a.601.601 0 0 0 .084.443c.064.1.104.146.15.171.045.025.106.035.225.035.195 0 .34-.092.417-.226a.542.542 0 0 0-.003-.507ZM15.738 12.64a.345.345 0 0 0-.164.143l.164.683c.137.076.29.057.413-.029a.507.507 0 0 0 .213-.418c0-.303-.337-.513-.627-.379ZM5.857 12.906c-.145.075-.232.17-.27.273a.489.489 0 0 0 .035.372.467.467 0 0 0 .146.194c.056.04.122.06.204.06a.517.517 0 0 0 .426-.189c.046-.055.06-.077.067-.104a.569.569 0 0 0-.002-.171.546.546 0 0 0-.07-.25.495.495 0 0 0-.186-.161.419.419 0 0 0-.185-.068.304.304 0 0 0-.165.044ZM14.54 13.916a.35.35 0 0 0-.076.066.675.675 0 0 0-.083.11v.001c-.12.203-.09.406.007.528a.31.31 0 0 0 .187.116c.072.013.158 0 .25-.056.197-.12.317-.308.32-.466.001-.123-.08-.232-.204-.295a.434.434 0 0 0-.4-.004Zm-.032-.059a.623.623 0 0 0-.184.202l.184-.202ZM7.865 14.7a.418.418 0 0 0 .096-.362.487.487 0 0 0-.215-.336.664.664 0 0 0-.25-.079.548.548 0 0 0-.234.01.305.305 0 0 0-.07.055.547.547 0 0 0-.12.628.441.441 0 0 0 .402.268.465.465 0 0 0 .204-.041.63.63 0 0 0 .187-.143Zm-.628-.829a.558.558 0 0 0-.184.182c-.244.38-.004.898.421.898.174 0 .3-.059.439-.205.209-.216.14-.634-.133-.801-.139-.087-.414-.122-.543-.074ZM9.8 15.066a.564.564 0 0 1-.261.537l.26-.537Zm0 0c-.021-.226-.112-.365-.31-.46l.31.46Zm-.81-.404v.001a.374.374 0 0 0-.171.148.499.499 0 0 0-.053.252c0 .21.109.384.256.479a.425.425 0 0 0 .48.005.497.497 0 0 0 .231-.474.522.522 0 0 0-.077-.25.459.459 0 0 0-.195-.156.566.566 0 0 0-.24-.063.488.488 0 0 0-.23.059ZM12.78 14.694a.425.425 0 0 0-.208.283.51.51 0 0 0 .084.37c.082.129.177.198.275.22.099.023.213.001.34-.077.19-.122.282-.309.262-.472-.019-.142-.133-.266-.288-.333a.515.515 0 0 0-.464.009ZM10.74 15.537c.08.159.194.248.311.274.117.027.25-.006.376-.116a.538.538 0 0 0 .193-.323.443.443 0 0 0-.101-.332.463.463 0 0 0-.262-.18.443.443 0 0 0-.305.045c-.242.13-.33.402-.212.632Z" fill="#161616" stroke="#161616" stroke-width=".133"/></symbol><symbol fill="none" viewBox="0 0 22 23" id="trackcar" xmlns="http://www.w3.org/2000/svg"><path d="M10.406.666c-1.403.146-2.232.355-3.514.874-1.327.537-2.365 1.226-3.444 2.288C1.998 5.25 1.146 6.601.529 8.43c-.317.944-.56 2.591-.526 3.552.021.547.126 1.456.223 1.898.55 2.567 2.184 4.953 4.468 6.527a8.96 8.96 0 0 0 1.41.832 9.546 9.546 0 0 0 2.414.83c1.14.232 2.96.27 4.082.08.846-.144 1.773-.401 2.47-.694.25-.104 1.044-.494 1.288-.634a17.591 17.591 0 0 0 1.344-.93c.328-.268 1.083-1.024 1.3-1.292 1.427-1.769 2.141-3.273 2.458-5.171.31-1.878.038-4.124-.731-5.984-.248-.595-.307-.65-.69-.637-.066.004-.143.049-.233.14-.206.205-.195.344.094 1.076a10 10 0 0 1 .696 3.42c.052 1.689-.341 3.36-1.128 4.788a14.746 14.746 0 0 1-1.097 1.62c-.613.762-1.588 1.605-2.4 2.075-.947.55-2.09.996-3.033 1.18-1.494.29-2.417.3-3.995.036-2.145-.356-4.21-1.55-5.67-3.274-1.184-1.397-1.918-2.988-2.19-4.754-.094-.61-.084-2.037.017-2.71.223-1.486.638-2.6 1.467-3.96C3.792 4.435 5.959 2.76 8.142 2.13c.847-.247 1.665-.397 2.264-.425.592-.024.63-.031.79-.17.352-.3.2-.802-.268-.896-.048-.01-.282.004-.522.028Z" fill="#A59FB9"/><path d="M17.457.662a81.19 81.19 0 0 0-2.864.664c-.234.062-.604.156-.825.208-.73.175-.748.265-.17.868l.355.366-.121.133c-.158.175-.822.7-1.103.878a3.767 3.767 0 0 1-.77.376c-.127.039-.512.052-2.08.071-2.075.023-1.981.016-2.44.21-.969.415-1.818 1.1-2.509 2.026-.112.152-.227.304-.251.34a7.26 7.26 0 0 0-.46.78C4.1 7.833 4 8.187 4 8.349c0 .09.021.149.076.204.148.162.242.09.39-.298.204-.535.328-.749.789-1.358C5.96 5.973 6.903 5.231 7.79 4.9l.285-.104 1.425-.01c2.04-.009 2.458-.025 2.691-.11.379-.136 1.055-.54 1.352-.806 1.085-.982 1.064-.96 1.064-1.037a.654.654 0 0 0-.103-.22c-.13-.208-.294-.532-.28-.551.031-.033 1.492-.392 1.807-.444.076-.013.294-.065.488-.117.382-.103.821-.194.843-.171.018.016-.128 1.57-.222 2.41l-.094.849c-.009.123-.033.22-.045.22-.027 0-.224-.178-.649-.596-.194-.188-.242-.217-.306-.2-.042.012-.212.155-.373.32-.372.38-.775.765-.863.826-.037.03-.188.162-.34.302-.409.372-.53.463-.827.628a3.286 3.286 0 0 1-1.003.344c-.26.042-1.252-.004-1.989-.091-.672-.081-2.433-.081-2.712 0-.264.074-.543.223-.652.347l-.088.1.055.11a.53.53 0 0 0 .127.162c.085.059.222.033.543-.103l.212-.091 1.182.003c.958 0 1.279.013 1.697.065.325.039.713.061 1.046.058.46 0 .576-.013.879-.087.573-.14.957-.321 1.454-.684.234-.172 1.067-.91 1.437-1.273.115-.114.224-.204.246-.204.036 0 .206.184.524.573.215.263.445.412.579.376.151-.039.242-.136.288-.311.097-.37.342-2.271.44-3.393.017-.204.048-.528.069-.716.033-.317.03-.353-.018-.434-.055-.087-.267-.21-.352-.207a2.386 2.386 0 0 0-.151.029Z" fill="#A59FB9"/><path d="M5.536 5.682c-.438.099-.982.5-1.267.938a2.042 2.042 0 0 0-.199.492c-.071.257-.079.374-.064.688.023.457.064.597.244.865.248.37.488.59.814.745.165.08.379.163.469.182.285.068.727.049.982-.038.622-.212.994-.51 1.23-.994.345-.707.341-1.354-.019-1.936-.476-.771-1.316-1.13-2.19-.942Zm1.065.76c.229.114.476.37.615.64.263.51.105 1.19-.364 1.599-.34.298-.708.374-1.24.249-.574-.129-.882-.503-.98-1.183-.056-.416.076-.813.342-1.044.15-.125.51-.31.701-.359.255-.064.686-.019.926.098ZM16.563 8.026c-.143.096-.245.297-.219.428.038.21.274.405.49.405.221 0 .457-.291.42-.519-.05-.317-.432-.49-.691-.314ZM2.898 8.39c-.076.07-.093.11-.093.21 0 .11.008.122.105.162.169.07.303.044.382-.073a.396.396 0 0 0 .067-.137c0-.078-.158-.218-.263-.233-.087-.014-.12-.003-.198.07ZM11.99 9.069c-.15.102-.22.213-.216.347.005.154.081.256.253.344.137.067.143.067.268.017.245-.09.35-.393.21-.6-.122-.181-.34-.228-.516-.108ZM14.741 10.057a.339.339 0 0 0-.186.274c0 .202.335.382.522.28.14-.073.218-.306.148-.44-.064-.12-.32-.18-.484-.114ZM2.424 10.118c-.193.158-.19.406.006.508.262.134.51-.201.329-.446-.07-.094-.254-.126-.335-.062ZM16.238 10.16c-.157.085-.186.271-.067.414.23.277.706-.003.54-.317-.07-.132-.318-.181-.473-.097ZM17.342 10.203a.392.392 0 0 0-.12.493c.062.12.155.175.298.175.157 0 .312-.128.364-.294.027-.097.027-.132-.014-.216-.096-.201-.368-.283-.528-.158ZM18.842 10.302c-.105.114-.12.146-.12.269.004.157.053.236.199.312.254.13.56-.027.56-.29 0-.203-.216-.422-.414-.422-.085 0-.126.024-.225.131Z" fill="#A59FB9"/><path d="M4.81 9.675c-.382.102-.854.424-1.197.813-.448.516-.557.919-.6 2.244-.013.456-.016.856-.01.891.017.06.053.067.277.067h.26v-.329c0-.176.017-.64.034-1.025.03-.64.043-.724.125-.954.053-.141.158-.346.234-.456.162-.23.505-.495.722-.562.126-.039.146-.035.188.025a.565.565 0 0 1 .066.152c.037.155.126.254.386.435.396.272.416.328.27.774-.108.343-.441 1.799-.441 1.937 0 .088.03.134.158.24.086.074.244.24.35.375.234.293.372.378.498.307.046-.024.171-.152.277-.283.108-.13.273-.296.362-.374.139-.11.169-.156.169-.244 0-.113-.165-.88-.231-1.057-.08-.223-.264-1.067-.264-1.205 0-.138.016-.163.274-.428.31-.318.395-.435.395-.562 0-.106.053-.113.25-.035.45.17.878.724.994 1.29.023.106.049.594.062 1.085.01.488.027.894.037.905.036.035.52.063.54.032.01-.018.004-.485-.013-1.036-.033-1.156-.072-1.393-.307-1.827-.234-.446-.768-.912-1.226-1.079-.455-.166-.535-.176-.914-.116-.429.07-.722.07-1.065.003-.317-.06-.442-.06-.66-.003Zm1.679.583.158.074-.141.127c-.169.149-.258.191-.41.191-.161 0-.247-.053-.375-.233-.159-.223-.1-.265.346-.247.178.01.317.035.422.088Zm-.32 2.513c.05.156.073.318.076.499 0 .25-.007.275-.082.328-.113.078-.165.071-.244-.035-.08-.106-.086-.262-.037-.615.073-.491.168-.551.287-.177ZM12.536 11.281a.94.94 0 0 0-.604.496c-.055.108-.07.195-.081.472-.012.326-.018.344-.076.344-.032.003-.39.015-.79.026-.831.03-.945.056-1.14.271-.192.216-.184.085-.184 2.528-.003 2.46-.014 2.292.196 2.577.2.272-.076.251 3.242.257l2.93.006.151-.067a.845.845 0 0 0 .406-.394c.032-.079.038-.493.032-2.353l-.006-2.253-.064-.123a.929.929 0 0 0-.443-.373c-.102-.035-1.094-.1-1.584-.102-.043 0-.052-.03-.052-.184 0-.265-.05-.562-.114-.688a1.026 1.026 0 0 0-.437-.39c-.117-.053-.201-.062-.703-.067a5.281 5.281 0 0 0-.679.017Zm1.227.542c.12.082.152.193.152.508v.297l-.75-.023c-.413-.01-.76-.027-.772-.032-.044-.024-.026-.534.023-.624.076-.149.172-.17.755-.172.432 0 .54.008.592.046Zm2.068 1.312a.336.336 0 0 1 .18.117l.09.102v.75c0 .743 0 .751-.07.854-.101.148-.335.253-.62.277a9.195 9.195 0 0 1-.802-.003l-.572-.02-.011-.179c-.012-.143-.027-.186-.088-.239-.073-.064-.09-.064-.796-.058-.6.006-.726.014-.763.052-.03.03-.05.123-.062.254l-.014.21-.805-.012c-.918-.011-.953-.02-1.198-.27l-.131-.135v-1.54l.084-.087.088-.09 1.457-.006c1.752-.012 3.904.003 4.033.023Zm-2.3 2.467-.01.358h-.355c-.196 0-.362-.008-.373-.017a2.184 2.184 0 0 1-.024-.359l-.006-.338h.776l-.009.356Zm-3.193-.006c.172.122.355.146 1.224.146h.72v.195c0 .487.05.516.837.545.61.024.647.015.796-.143.064-.067.073-.11.087-.344l.015-.268.802-.003c.845-.003.965-.017 1.18-.143l.117-.067.009 1.047.012 1.044-.076.075c-.061.062-.102.073-.242.073-.094.003-1.353.003-2.802 0-2.883 0-2.77.006-2.837-.169-.035-.087-.014-2.075.02-2.075.007 0 .068.04.138.087ZM17.399 11.893c-.193.17-.198.368-.018.496.321.227.715-.07.54-.408-.1-.19-.356-.23-.522-.088ZM19.02 11.88a.444.444 0 0 0-.123.186c-.04.135.006.23.157.321a.33.33 0 0 0 .414-.032c.123-.11.134-.23.035-.379-.125-.187-.33-.227-.484-.096ZM17.547 14.024c-.16.129-.044.406.175.406.225 0 .298-.3.102-.417-.11-.064-.184-.064-.277.011ZM17.527 15.529c-.128.105-.155.192-.105.315.044.102.195.219.286.219.075 0 .221-.137.256-.248.026-.079.024-.117-.011-.187-.1-.187-.274-.23-.426-.099ZM4.62 16.107c-.16.11-.14.28.041.33.155.043.274-.03.274-.164 0-.145-.195-.25-.315-.166ZM6.547 17.125c-.359.155-.23.735.16.727.277-.006.464-.391.295-.607-.123-.155-.28-.195-.455-.12ZM4.743 17.134c-.078.05-.157.23-.157.361 0 .12.015.152.102.24.125.125.257.168.376.122.17-.067.248-.368.143-.543-.085-.145-.356-.253-.464-.18ZM8.109 17.178a.538.538 0 0 0-.155.177c-.075.152-.032.3.123.406.18.125.27.131.4.017.244-.215.224-.484-.05-.627-.111-.058-.204-.05-.318.027ZM6.548 18.668c-.078.078-.099.122-.099.215 0 .152.108.283.266.333.102.029.125.026.192-.024.257-.192.26-.451.003-.583-.137-.07-.25-.052-.362.059ZM8.085 18.643c-.178.163-.132.405.104.545.09.05.1.052.199.003.358-.17.312-.58-.067-.618-.126-.012-.155-.003-.236.07Z" fill="#A59FB9"/></symbol><symbol fill="none" viewBox="0 0 23 22" id="webinars" xmlns="http://www.w3.org/2000/svg"><path d="M12.55 14.2c-2.407 6.599-9.144 0-11.55 6.599m14.174-6.6h1.576c2.475 0 3.713 0 4.481-.805C22 12.59 22 11.292 22 8.7V6.5c0-2.593 0-3.89-.769-4.695C20.463 1 19.227 1 16.751 1h-4.2c-2.475 0-3.712 0-4.48.805-.652.682-.752 1.717-.767 3.595M6.773 14.199c1.45 0 2.625-1.231 2.625-2.75S8.223 8.7 6.773 8.7 4.148 9.93 4.148 11.45s1.176 2.75 2.625 2.75ZM11.5 5.4h6.3m0 4.4h-3.15" stroke="#161616" stroke-width="2" stroke-linecap="round" stroke-linejoin="round"/></symbol></svg>