<svg width="154" height="106" viewBox="0 0 154 106" fill="none" xmlns="http://www.w3.org/2000/svg">
  <path d="M10.6665 104.217C10.6665 104.217 7.98359 67.8057 5.87555 58.7986C3.76751 49.7915 14.1161 47.8751 29.064 46.7253C44.0119 45.5755 50.9109 46.5337 54.1688 48.6417C57.4266 50.7497 58.8716 75.6361 61.0678 84.4783C63.264 93.3206 64.9006 104.792 64.9006 104.792L10.6665 104.217Z" fill="#263238" fill-opacity="0.4"/>
  <path d="M144.656 83.5193C143.259 85.2662 142.567 86.2402 142.28 86.6815C142.646 84.7594 143.18 82.8731 143.875 81.0439C144.398 79.6257 144.725 78.1428 144.847 76.6362L144.716 76.7067L144.596 76.4744C144.643 76.4482 149.406 73.9206 150.753 71.5366L150.98 71.6672C149.763 73.8188 146.003 75.9991 144.975 76.5657C145.951 76.4717 149.001 76.0096 150.816 73.7666C152.996 71.0744 152.612 67.7373 152.612 67.7373C152.612 67.7373 148.502 70.56 146.836 72.7404C146.059 73.7374 145.407 74.8256 144.894 75.9808C144.967 74.2033 144.832 72.4233 144.489 70.6775C145.86 69.5991 150.902 65.4551 151.455 62.3478C152.098 58.7574 151.194 52.5977 151.194 52.5977C150.677 53.8757 150.077 55.1187 149.398 56.3186C148.244 58.371 144.651 61.5801 144.008 65.0426C143.845 65.9089 143.758 66.7879 143.747 67.6694C143.168 65.7373 142.476 63.8409 141.674 61.9901C141.462 61.4946 141.288 60.984 141.152 60.4626L141.039 60.3947C141.063 60.3555 143.376 56.4544 143.376 55.3342H143.638C143.638 56.3787 141.872 59.486 141.384 60.3215C142.191 59.8359 143.507 58.841 143.995 57.2952C144.732 54.9999 143.643 52.9319 143.643 52.9319C143.643 52.9319 141.692 55.8042 141.16 57.632C140.908 58.4682 140.758 59.3318 140.713 60.204C140.34 59.2536 139.768 57.9636 139.11 57.0889C137.956 55.5483 137.185 53.24 137.185 53.24C137.185 53.24 135.775 55.6762 136.802 58.243C137.645 60.3503 140.045 61.1597 140.875 61.3765C140.966 61.6559 141.068 61.9274 141.18 62.1885C142.304 64.7317 143.183 67.3756 143.807 70.0848C143.209 69.2884 142.081 67.8862 141.013 67.1028C139.462 65.9643 138.055 63.9694 138.055 63.9694C138.055 63.9694 137.413 66.7111 139.139 68.8706C140.549 70.6331 143.055 70.7193 143.933 70.6984C144.525 73.8057 144.593 77.0488 143.588 80.1822C143.523 79.5738 143.157 77.9183 141.141 76.067C138.598 73.7169 133.509 66.2489 133.509 66.2489C133.509 66.2489 133.914 75.0774 136.352 77.9784C138.588 80.6392 142.807 80.4825 143.502 80.4381C143.455 80.5765 143.408 80.7149 143.356 80.8533C141.75 85.1696 141.41 88.196 141.371 89.7966H138.368V103.782H146.708V89.8045H141.93C141.961 88.8921 142.055 87.983 142.212 87.0836L142.126 87.1071L142.055 86.846C142.107 86.8329 147.332 85.3602 150.985 81.6027L151.173 81.7829C148.225 84.8171 144.272 86.3786 142.755 86.8956C144.264 86.7102 147.949 86.154 149.659 85.0469C151.842 83.6368 153.766 79.4015 153.766 79.4015C153.766 79.4015 146.708 80.9525 144.656 83.5193ZM140.687 60.802C139.833 60.3482 139.09 59.7111 138.511 58.9365C137.933 58.1618 137.532 57.2687 137.339 56.3212L137.601 56.269C137.783 57.1768 138.165 58.0329 138.718 58.7756C139.271 59.5183 139.982 60.1292 140.799 60.5644L140.687 60.802ZM144.379 70.7663L144.324 70.842L144.225 70.8002C144.079 70.7428 140.666 69.338 139.277 67.3091L139.494 67.1602C140.708 68.9385 143.648 70.2702 144.225 70.5182C144.666 69.8393 147.439 65.5361 148.403 62.8309L148.648 62.9197C147.594 65.8808 144.413 70.7115 144.379 70.7611V70.7663ZM143.165 80.3415C143.126 80.3285 139.058 78.7957 137.245 75.281L137.478 75.1635C139.243 78.5868 143.222 80.083 143.256 80.0987L143.165 80.3415Z" fill="#263238" fill-opacity="0.4"/>
  <path d="M57.1787 56.9926C57.1787 56.9926 47.2721 59.0949 39.0161 63.7476C30.7601 68.4003 24.3074 72.153 24.3074 73.9495C24.3074 75.7459 21.0029 104.27 21.0029 104.27H96.0578C96.0578 104.27 88.7018 88.5087 87.503 81.7538C86.3042 74.9989 84.949 70.6346 81.0469 66.2946C77.1447 61.9546 65.7336 56.395 57.1787 56.9926Z" fill="white" fill-opacity="0.4"/>
  <mask id="mask0_5565_24012" style="mask-type:luminance" maskUnits="userSpaceOnUse" x="21" y="56" width="76" height="49">
  <path d="M57.1792 56.9936C57.1792 56.9936 47.2726 59.0958 39.0166 63.7486C30.7606 68.4013 24.3079 72.154 24.3079 73.9505C24.3079 75.7469 21.0034 104.271 21.0034 104.271H96.0583C96.0583 104.271 88.7022 88.5097 87.5035 81.7548C86.3047 74.9998 84.9495 70.6355 81.0473 66.2956C77.1452 61.9556 65.7341 56.396 57.1792 56.9936Z" fill="white"/>
  </mask>
  <g mask="url(#mask0_5565_24012)">
  <path d="M28.0815 84.4959C29.1934 83.7037 31.4173 89.7359 32.0497 88.3181C32.6821 86.9004 28.0815 79.7459 27.7653 77.1989C27.4491 74.6519 30.4617 74.3392 33.9573 71.959C37.453 69.5787 40.6254 67.6711 40.6254 70.847C40.6254 74.023 42.0535 79.8814 43.1655 77.5151C44.2774 75.1488 46.6576 72.1188 46.814 76.2433C46.9703 80.3679 46.814 84.4994 47.2935 84.4994C47.773 84.4994 52.0539 80.0552 53.1658 77.8313C54.2778 75.6075 51.8941 69.8949 51.8941 67.3549C51.8941 64.8148 54.1179 61.3227 54.1179 61.3227L54.2604 57.7263C50.7057 58.6993 44.4998 60.6625 39.0166 63.7516C30.7606 68.3904 24.3079 72.1535 24.3079 73.95C24.3079 75.7464 21.0034 104.271 21.0034 104.271H25.1106C25.875 97.2066 27.2962 85.0692 28.0815 84.4959Z" fill="#6C27FF" fill-opacity="0.4"/>
  <path opacity="0.5" d="M28.0815 84.4959C29.1934 83.7037 31.4173 89.7359 32.0497 88.3181C32.6821 86.9004 28.0815 79.7459 27.7653 77.1989C27.4491 74.6519 30.4617 74.3392 33.9573 71.959C37.453 69.5787 40.6254 67.6711 40.6254 70.847C40.6254 74.023 42.0535 79.8814 43.1655 77.5151C44.2774 75.1488 46.6576 72.1188 46.814 76.2433C46.9703 80.3679 46.814 84.4994 47.2935 84.4994C47.773 84.4994 52.0539 80.0552 53.1658 77.8313C54.2778 75.6075 51.8941 69.8949 51.8941 67.3549C51.8941 64.8148 54.1179 61.3227 54.1179 61.3227L54.2604 57.7263C50.7057 58.6993 44.4998 60.6625 39.0166 63.7516C30.7606 68.3904 24.3079 72.1535 24.3079 73.95C24.3079 75.7464 21.0034 104.271 21.0034 104.271H25.1106C25.875 97.2066 27.2962 85.0692 28.0815 84.4959Z" fill="white" fill-opacity="0.4"/>
  <path d="M75.9219 64.0016C75.9219 64.0016 81.134 66.5486 83.1042 69.0991C81.5207 66.3631 79.1347 64.1797 76.2694 62.8445L75.9219 64.0016Z" fill="#263238" fill-opacity="0.4"/>
  </g>
  <path d="M53.8812 58.046C52.5377 58.8799 51.4137 60.0237 50.6035 61.3817C49.7934 62.7396 49.3207 64.272 49.225 65.8504C48.9262 71.2536 49.225 76.8098 48.9262 79.8085C48.6274 82.8072 46.5251 85.2152 48.1756 85.0623C49.8262 84.9094 53.5789 78.9085 54.9306 78.9085C56.2823 78.9085 56.7305 81.7613 57.3316 82.6613C57.9328 83.5612 60.042 83.94 60.042 83.94C60.042 83.94 61.9844 81.6119 61.9844 80.8613C61.9844 80.1108 61.3832 77.5568 63.0268 77.8591C64.6703 78.1614 68.2771 83.8635 68.43 82.0601C68.5829 80.2567 66.7761 77.5429 66.7761 73.2064C66.7761 68.8699 64.6912 63.7481 61.6751 60.5965C58.659 57.4449 56.9529 57.8132 53.8812 58.046Z" fill="white" fill-opacity="0.4"/>
  <mask id="mask1_5565_24012" style="mask-type:luminance" maskUnits="userSpaceOnUse" x="47" y="57" width="22" height="29">
  <path d="M53.8812 58.0453C52.5377 58.8791 51.4137 60.023 50.6035 61.3809C49.7934 62.7389 49.3207 64.2713 49.225 65.8496C48.9262 71.2529 49.225 76.809 48.9262 79.8077C48.6274 82.8065 46.5251 85.2145 48.1756 85.0616C49.8262 84.9087 53.5789 78.9078 54.9306 78.9078C56.2823 78.9078 56.7305 81.7606 57.3316 82.6605C57.9328 83.5605 60.042 83.9392 60.042 83.9392C60.042 83.9392 61.9844 81.6112 61.9844 80.8606C61.9844 80.1101 61.3832 77.5561 63.0268 77.8584C64.6703 78.1607 68.2771 83.8628 68.43 82.0594C68.5829 80.256 66.7761 77.5422 66.7761 73.2057C66.7761 68.8692 64.6912 63.7474 61.6751 60.5958C58.659 57.4442 56.9529 57.8125 53.8812 58.0453Z" fill="white"/>
  </mask>
  <g mask="url(#mask1_5565_24012)">
  <path d="M54.2495 58.0142L53.8777 58.0454C52.5342 58.8793 51.4102 60.0231 50.6 61.3811C49.7899 62.739 49.3172 64.2714 49.2215 65.8497C48.9227 71.253 49.2215 76.8091 48.9227 79.8079C48.7281 81.7398 47.7934 83.4216 47.5884 84.3251C48.6899 83.5154 52.1785 79.7905 53.1654 77.8168C54.2773 75.5965 51.8936 69.8805 51.8936 67.3404C51.8936 64.8004 54.1175 61.3082 54.1175 61.3082L54.2495 58.0142Z" fill="#6C27FF" fill-opacity="0.4"/>
  <path opacity="0.5" d="M54.2495 58.0142L53.8777 58.0454C52.5342 58.8793 51.4102 60.0231 50.6 61.3811C49.7899 62.739 49.3172 64.2714 49.2215 65.8497C48.9227 71.253 49.2215 76.8091 48.9227 79.8079C48.7281 81.7398 47.7934 83.4216 47.5884 84.3251C48.6899 83.5154 52.1785 79.7905 53.1654 77.8168C54.2773 75.5965 51.8936 69.8805 51.8936 67.3404C51.8936 64.8004 54.1175 61.3082 54.1175 61.3082L54.2495 58.0142Z" fill="white" fill-opacity="0.4"/>
  </g>
  <path d="M55.1285 58.0837C53.9751 60.8365 53.3639 63.7862 53.3286 66.7707C53.3286 71.5172 55.7818 76.427 56.7652 78.7169C57.7485 81.0068 60.0384 83.9534 60.0384 83.9534C60.0384 83.9534 59.8716 77.9003 61.3449 74.9537C62.8182 72.0071 64.1247 69.8806 64.1247 69.8806C64.1247 69.8806 62.3248 68.0806 59.7048 63.9908C57.0848 59.901 55.1285 58.0837 55.1285 58.0837Z" fill="white" fill-opacity="0.4"/>
  <mask id="mask2_5565_24012" style="mask-type:luminance" maskUnits="userSpaceOnUse" x="53" y="58" width="12" height="26">
  <path d="M55.1281 58.0833C53.9746 60.8361 53.3634 63.7857 53.3281 66.7702C53.3281 71.5167 55.7813 76.4265 56.7647 78.7164C57.748 81.0063 60.0379 83.9529 60.0379 83.9529C60.0379 83.9529 59.8711 77.8998 61.3444 74.9532C62.8177 72.0066 64.1242 69.8801 64.1242 69.8801C64.1242 69.8801 62.3243 68.0801 59.7043 63.9904C57.0843 59.9006 55.1281 58.0833 55.1281 58.0833Z" fill="white"/>
  </mask>
  <g mask="url(#mask2_5565_24012)">
  <path d="M62.988 71.8296L62.3729 67.785C61.6537 66.8538 60.7467 65.5959 59.7078 63.9628C57.0913 59.8695 55.1281 58.0557 55.1281 58.0557C53.9746 60.8085 53.3634 63.7581 53.3281 66.7426C53.3654 68.6073 53.6684 70.4571 54.2281 72.2362L62.915 71.9582L62.988 71.8296Z" fill="#6C27FF" fill-opacity="0.4"/>
  <path opacity="0.5" d="M62.988 71.8296L62.3729 67.785C61.6537 66.8538 60.7467 65.5959 59.7078 63.9628C57.0913 59.8695 55.1281 58.0557 55.1281 58.0557C53.9746 60.8085 53.3634 63.7581 53.3281 66.7426C53.3654 68.6073 53.6684 70.4571 54.2281 72.2362L62.915 71.9582L62.988 71.8296Z" fill="white" fill-opacity="0.4"/>
  <path d="M59.7078 63.9755C57.0913 59.8822 55.1281 58.0684 55.1281 58.0684C53.9746 60.8212 53.3634 63.7708 53.3281 66.7553C53.3359 67.7344 53.4289 68.7111 53.6061 69.6741L60.9309 69.8999L62.7204 68.2286C61.6453 66.8625 60.6398 65.443 59.7078 63.9755Z" fill="#263238" fill-opacity="0.4"/>
  </g>
  <path d="M53.4085 94.8641C53.4085 94.8641 50.2291 101.338 49.76 102.279C49.2909 103.221 48.582 104.868 48.582 104.868H54.2285C54.2285 104.868 57.4045 102.748 57.7589 102.63C58.1133 102.512 60.1113 102.63 61.5221 102.043C62.9328 101.456 64.347 99.9233 65.7578 99.5724C67.1685 99.2214 69.0519 98.6307 69.6426 98.6307C70.2333 98.6307 72.2313 99.218 73.5239 99.218C74.8165 99.218 76.467 97.9254 75.4246 97.3381C74.3822 96.7509 73.5413 97.1018 72.1305 96.3965C70.7198 95.6911 70.2472 95.4548 68.8364 95.7015C67.4257 95.9482 66.2477 95.1143 62.8355 94.4089C59.4233 93.7035 55.5246 93.4533 53.4085 94.8641Z" fill="white" fill-opacity="0.4"/>
  <path d="M63.2632 91.2496C63.2632 91.2496 65.1152 89.6721 66.6372 90.433C68.1591 91.194 67.4538 96.0934 67.836 98.0532C68.2182 100.013 68.6525 101.045 67.6727 101.156C66.6928 101.267 66.3106 100.503 65.5496 98.762C64.7886 97.0212 63.2632 91.2496 63.2632 91.2496Z" fill="white" fill-opacity="0.4"/>
  <path d="M58.7461 92.2295C58.7461 92.2295 61.1958 90.0508 62.2834 90.0508C63.371 90.0508 64.2432 93.9147 65.0632 95.6104C65.8833 97.3061 67.0855 99.3145 66.5852 99.8496C66.0848 100.385 65.0597 100.611 64.1876 99.6863C63.3154 98.762 61.4078 94.6792 60.8692 94.0259C60.2125 93.3693 59.5024 92.7684 58.7461 92.2295Z" fill="white" fill-opacity="0.4"/>
  <path d="M56.2402 92.9914C56.2402 92.9914 56.4036 92.2305 58.7455 92.2305C61.0875 92.2305 63.0994 95.4968 64.5137 96.2577C65.9279 97.0187 65.4935 97.3453 64.4615 97.8353C63.4295 98.3252 62.7728 97.7831 60.7053 96.6399C58.6378 95.4967 56.2402 92.9914 56.2402 92.9914Z" fill="white" fill-opacity="0.4"/>
  <path d="M53.6416 98.3943L55.2921 95.6875C56.0592 95.8387 56.7824 96.1605 57.4082 96.6291C58.2317 97.3241 59.7606 98.7487 61.644 98.7487C63.5273 98.7487 64.1145 98.1615 63.4091 97.5708C62.7038 96.9801 60.5842 95.9238 59.0553 94.864C57.5264 93.8041 56.3484 92.0424 55.174 92.3934C53.9995 92.7443 53.1864 94.9821 51.8799 97.9252" fill="white" fill-opacity="0.4"/>
  <path d="M79.973 46.5538C79.973 46.5538 79.5178 53.2775 78.7916 55.6403C78.0654 58.0032 77.0542 65.2759 74.8825 68.4553C72.7108 71.6347 69.8858 74.3624 66.7029 74.5465C63.52 74.7307 59.253 69.0911 56.7964 65.4565C54.3397 61.8219 54.0721 58.1873 53.2521 54.6431C52.432 51.0988 52.2548 46.9986 53.5266 43.8261C54.7984 40.6537 61.1711 36.7376 66.5222 37.1928C71.8734 37.648 78.6074 40.466 79.973 42.5544C80.362 43.1488 80.5692 43.8437 80.5692 44.5541C80.5692 45.2645 80.362 45.9594 79.973 46.5538Z" fill="white" fill-opacity="0.4"/>
  <mask id="mask3_5565_24012" style="mask-type:luminance" maskUnits="userSpaceOnUse" x="52" y="37" width="29" height="38">
  <path d="M79.973 46.5536C79.973 46.5536 79.5178 53.2772 78.7916 55.6401C78.0654 58.0029 77.0542 65.2756 74.8825 68.455C72.7108 71.6344 69.8858 74.3621 66.7029 74.5463C63.52 74.7304 59.253 69.0909 56.7964 65.4563C54.3397 61.8217 54.0721 58.1871 53.2521 54.6428C52.432 51.0986 52.2548 46.9983 53.5266 43.8259C54.7984 40.6534 61.1711 36.7374 66.5222 37.1926C71.8734 37.6478 78.6074 40.4658 79.973 42.5541C80.362 43.1485 80.5692 43.8435 80.5692 44.5538C80.5692 45.2642 80.362 45.9592 79.973 46.5536Z" fill="white"/>
  </mask>
  <g mask="url(#mask3_5565_24012)">
  <path d="M53.5331 43.8259C52.2613 47.0088 52.442 51.0986 53.2586 54.6429C54.0751 58.1871 54.3496 61.8217 56.8028 65.4563C59.256 69.0909 63.53 74.727 66.7094 74.5463C68.0177 74.4367 69.2734 73.9809 70.3475 73.2259L68.7317 73.3823C65.3959 73.6985 63.808 71.4781 61.7439 67.1902C59.6799 62.9024 60.9517 60.3658 60.156 59.5701C59.3603 58.7744 59.3637 53.0618 59.3637 53.0618C59.3637 53.0618 59.9996 50.5218 60.3158 49.5871C60.632 48.6524 63.9678 47.3632 63.9678 47.3632C63.9678 47.3632 63.9678 49.7434 66.2542 49.5697C68.5406 49.396 70.1598 46.8872 70.1598 46.8872L69.8401 37.7381C68.7496 37.4869 67.6432 37.3105 66.5287 37.21C61.1776 36.7374 54.7979 40.6465 53.5331 43.8259Z" fill="#6C27FF" fill-opacity="0.4"/>
  <path opacity="0.5" d="M53.5331 43.8259C52.2613 47.0088 52.442 51.0986 53.2586 54.6429C54.0751 58.1871 54.3496 61.8217 56.8028 65.4563C59.256 69.0909 63.53 74.727 66.7094 74.5463C68.0177 74.4367 69.2734 73.9809 70.3475 73.2259L68.7317 73.3823C65.3959 73.6985 63.808 71.4781 61.7439 67.1902C59.6799 62.9024 60.9517 60.3658 60.156 59.5701C59.3603 58.7744 59.3637 53.0618 59.3637 53.0618C59.3637 53.0618 59.9996 50.5218 60.3158 49.5871C60.632 48.6524 63.9678 47.3632 63.9678 47.3632C63.9678 47.3632 63.9678 49.7434 66.2542 49.5697C68.5406 49.396 70.1598 46.8872 70.1598 46.8872L69.8401 37.7381C68.7496 37.4869 67.6432 37.3105 66.5287 37.21C61.1776 36.7374 54.7979 40.6465 53.5331 43.8259Z" fill="white" fill-opacity="0.4"/>
  </g>
  <path d="M72.8011 51.6141C72.6937 51.614 72.5889 51.5808 72.5011 51.5188C72.4133 51.4569 72.3468 51.3694 72.3106 51.2682C72.2745 51.167 72.2705 51.0571 72.2992 50.9536C72.3279 50.8501 72.3879 50.7579 72.471 50.6898C72.5544 50.6203 74.5559 49.008 77.7388 50.1234C77.8692 50.1695 77.9759 50.2655 78.0356 50.3903C78.0952 50.5151 78.1028 50.6585 78.0567 50.7889C78.0106 50.9193 77.9147 51.026 77.7899 51.0856C77.6651 51.1453 77.5217 51.1529 77.3913 51.1068C74.7609 50.1825 73.1486 51.4821 73.1347 51.496C73.0407 51.573 72.9227 51.6148 72.8011 51.6141Z" fill="#263238" fill-opacity="0.4"/>
  <path d="M67.3252 50.9778C67.2339 50.9785 67.1441 50.9552 67.0647 50.91C66.9854 50.8648 66.9194 50.7995 66.8735 50.7206C66.8179 50.6268 65.567 48.5698 63.1068 48.9103C62.97 48.9291 62.8313 48.8928 62.7212 48.8094C62.6111 48.726 62.5386 48.6023 62.5196 48.4655C62.5017 48.3284 62.5382 48.1898 62.6214 48.0793C62.7045 47.9689 62.8277 47.8955 62.9644 47.8748C66.1334 47.437 67.7074 50.0813 67.7734 50.1959C67.8429 50.3153 67.8622 50.4574 67.827 50.5909C67.7918 50.7245 67.7051 50.8386 67.5858 50.9083C67.5067 50.9542 67.4167 50.9782 67.3252 50.9778Z" fill="#263238" fill-opacity="0.4"/>
  <path d="M55.525 33.2945C55.525 33.2945 49.6179 35.2056 49.1627 37.5685C48.7075 39.9313 51.7097 48.2012 51.6194 49.1985C51.5291 50.1958 50.6187 51.0193 51.6194 52.4717C52.6201 53.9242 54.434 56.1063 55.1637 54.9249C55.8934 53.7435 54.8892 52.0165 56.0706 51.2903C57.252 50.5641 58.8886 49.3827 57.9782 47.8364C57.0678 46.2901 57.5265 44.0141 59.4341 43.7466C61.3418 43.479 62.9784 42.2038 61.9777 43.6562C60.9769 45.1087 58.072 48.6564 59.6148 48.9275C61.1576 49.1985 67.2593 45.1052 67.2593 45.1052C67.2593 45.1052 65.1745 49.2749 66.2586 49.5564C67.3427 49.8378 75.8941 44.1948 75.8941 44.1948C75.8941 44.1948 79.9839 49.5564 80.8005 49.1915C81.617 48.8267 81.075 45.8314 81.075 45.8314C81.075 45.8314 81.7109 49.8309 82.9826 50.0012C84.2544 50.1714 85.9813 47.9997 85.4358 46.6376C84.8903 45.2755 83.9729 43.3713 83.9729 43.3713C83.9729 43.3713 85.7902 42.9161 86.5165 42.0961C87.2427 41.276 87.1523 41.1892 85.6061 40.9146C84.0598 40.6401 82.8818 38.9167 81.4363 37.3704C79.9908 35.8241 77.6141 33.7358 77.6141 33.7358C77.6141 33.7358 80.3383 34.9172 78.8859 33.5551C77.4334 32.193 69.7055 29.1004 65.5254 29.1004C61.3453 29.1004 59.7886 31.2861 59.7886 31.2861C59.7886 31.2861 60.5148 28.5584 59.6947 28.9232C58.8747 29.2881 57.9574 31.4668 57.9574 31.4668C57.9574 31.4668 56.0497 30.9212 55.0525 31.5606C54.0552 32.1999 53.7772 32.8323 54.5973 32.8323C55.0577 32.8262 55.5165 32.8871 55.9594 33.013L55.525 33.2945Z" fill="#263238" fill-opacity="0.4"/>
  <mask id="mask4_5565_24012" style="mask-type:luminance" maskUnits="userSpaceOnUse" x="28" y="55" width="38" height="27">
  <path d="M34.4093 59.4051C34.4093 59.4051 28.5022 61.3162 28.047 63.6791C27.5918 66.0419 30.594 74.3118 30.5037 75.3091C30.4133 76.3063 29.5029 77.1299 30.5037 78.5823C31.5044 80.0348 33.3182 82.2169 34.0479 81.0355C34.7776 79.8541 33.7734 78.1271 34.9548 77.4009C36.1363 76.6747 37.7729 75.4933 36.8625 73.947C35.9521 72.4007 36.4108 70.1247 38.3184 69.8572C40.2261 69.5896 41.8627 68.3144 40.8619 69.7668C39.8612 71.2193 36.9563 74.767 38.4991 75.0381C40.0419 75.3091 46.1436 71.2158 46.1436 71.2158C46.1436 71.2158 44.0587 75.3855 45.1429 75.667C46.227 75.9484 54.7784 70.3054 54.7784 70.3054C54.7784 70.3054 58.8682 75.667 59.6847 75.3021C60.5013 74.9373 59.9593 71.942 59.9593 71.942C59.9593 71.942 60.5951 75.9415 61.8669 76.1118C63.1387 76.282 64.8656 74.1103 64.3201 72.7482C63.7745 71.3861 62.8572 69.4819 62.8572 69.4819C62.8572 69.4819 64.6745 69.0267 65.4007 68.2067C66.127 67.3866 66.0366 67.2998 64.4903 67.0252C62.9441 66.7507 61.7661 65.0273 60.3206 63.481C58.8751 61.9347 56.4984 59.8464 56.4984 59.8464C56.4984 59.8464 59.2226 61.0278 57.7701 59.6657C56.3177 58.3036 48.5898 55.211 44.4097 55.211C40.2295 55.211 38.6728 57.3967 38.6728 57.3967C38.6728 57.3967 39.3991 54.669 38.579 55.0338C37.759 55.3987 36.8416 57.5774 36.8416 57.5774C36.8416 57.5774 34.934 57.0318 33.9367 57.6712C32.9395 58.3105 32.6615 58.9429 33.4815 58.9429C33.9419 58.9368 34.4008 58.9977 34.8437 59.1236L34.4093 59.4051Z" fill="white"/>
  </mask>
  <g mask="url(#mask4_5565_24012)">
  <g opacity="0.2">
  <path d="M55.1632 54.915C55.8894 53.7336 54.8887 52.0066 56.0701 51.2804C57.2515 50.5542 58.8881 49.3727 57.9778 47.8265C57.0674 46.2802 57.526 44.0042 59.4337 43.7367C60.8688 43.5317 62.1509 42.7603 62.2726 43.0139C62.8876 42.1661 63.1517 41.5198 62.2726 41.7804C60.5838 42.2877 55.3508 43.1321 55.8547 44.8208C56.3585 46.5095 56.699 47.3504 55.3508 47.8577C54.0026 48.3651 53.9992 49.5465 53.9992 50.8982C53.9992 52.0518 53.4536 53.9664 53.3042 54.498C54.0374 55.186 54.7636 55.5648 55.1632 54.915Z" fill="white" fill-opacity="0.4"/>
  </g>
  </g>
  <path d="M68.9582 51.9606C68.9582 51.9606 67.6308 50.5325 64.0588 50.6333C60.4867 50.734 57.9328 51.3491 57.2205 51.7591C56.5081 52.1691 56.9147 52.6764 57.1162 53.3922C57.3177 54.108 57.832 57.4716 58.6486 58.799C59.4651 60.1263 61.6091 61.2487 63.0372 61.2487C64.4653 61.2487 65.2819 60.9429 66.8143 59.8205C68.3466 58.6982 69.3648 54.6084 69.469 54.3096C69.5732 54.0107 69.469 53.3922 70.4871 53.698C71.5052 54.0038 71.6095 58.4932 71.9187 59.414C72.228 60.3348 74.2642 61.5544 75.8973 61.5544C77.5304 61.5544 79.0628 60.7379 80.3902 58.3924C81.1829 56.9988 81.5046 55.3865 81.3075 53.7953C81.3075 53.7953 82.7356 52.673 81.6133 52.2629C80.4909 51.8529 76.6305 50.7827 74.1634 51.5506C71.2029 52.4714 69.6705 52.2664 68.9582 51.9606Z" fill="#263238" fill-opacity="0.4"/>
  <path d="M57.7315 51.8604L50.8896 52.7777V53.5943L57.6272 53.1877C57.6272 53.1877 57.0087 52.1661 57.7315 51.8604Z" fill="#263238" fill-opacity="0.4"/>
  <path d="M75.894 60.56C73.8926 60.56 72.871 59.4967 72.6486 57.6516C72.3811 55.4417 72.1448 53.9024 71.4498 53.1622C72.472 53.0409 73.4799 52.8197 74.459 52.502C75.0323 52.343 75.6258 52.2681 76.2207 52.2797C77.7375 52.3216 79.2418 52.5683 80.6927 53.0128L80.2236 53.3881L80.3278 53.9753C80.4777 55.3363 80.1957 56.71 79.5217 57.9018C78.177 60.2855 76.8149 60.56 75.894 60.56ZM63.0374 60.2542C61.995 60.2542 60.1499 59.3404 59.4966 58.2771C58.9719 57.4293 58.5341 55.2819 58.2978 54.1317C58.204 53.6661 58.1345 53.329 58.0755 53.1171C58.0164 52.9051 57.9677 52.787 57.9121 52.6341L57.8809 52.5472C58.6835 52.1997 60.956 51.7202 64.0868 51.6299H64.4343C67.1759 51.6299 68.2322 52.6306 68.2565 52.641L68.399 52.7974L68.5936 52.8808C68.7266 52.9351 68.8623 52.9826 69.0001 53.0233C68.7628 53.281 68.609 53.6044 68.5588 53.951V54.017C68.5588 54.0344 68.5275 54.1178 68.4928 54.2429C67.4782 57.8254 66.599 58.7775 66.2655 59.0207C64.7817 60.0736 64.1632 60.2542 63.0374 60.2542Z" fill="#6C27FF" fill-opacity="0.4"/>
  <path d="M60.6327 53.2913H60.1081C60.0742 53.2904 60.042 53.2766 60.0181 53.2527C59.9942 53.2288 59.9804 53.1966 59.9795 53.1627C59.9795 53.1286 59.993 53.0959 60.0171 53.0718C60.0413 53.0477 60.074 53.0342 60.1081 53.0342H60.6327C60.6496 53.0342 60.6663 53.0375 60.6819 53.044C60.6975 53.0504 60.7117 53.0599 60.7237 53.0718C60.7356 53.0838 60.7451 53.098 60.7515 53.1136C60.758 53.1292 60.7613 53.1459 60.7613 53.1627C60.7604 53.1966 60.7466 53.2288 60.7227 53.2527C60.6988 53.2766 60.6666 53.2904 60.6327 53.2913ZM60.7613 53.7604C60.7613 53.7435 60.758 53.7268 60.7515 53.7112C60.7451 53.6956 60.7356 53.6814 60.7237 53.6695C60.7117 53.6576 60.6975 53.6481 60.6819 53.6416C60.6663 53.6352 60.6496 53.6318 60.6327 53.6318H60.1081C60.074 53.6318 60.0413 53.6454 60.0171 53.6695C59.993 53.6936 59.9795 53.7263 59.9795 53.7604C59.9804 53.7942 59.9942 53.8264 60.0181 53.8504C60.042 53.8743 60.0742 53.8881 60.1081 53.889H60.6327C60.6666 53.8881 60.6988 53.8743 60.7227 53.8504C60.7466 53.8264 60.7604 53.7942 60.7613 53.7604ZM60.7613 54.3581C60.7604 54.3242 60.7466 54.2921 60.7227 54.2681C60.6988 54.2442 60.6666 54.2304 60.6327 54.2295H60.1081C60.0742 54.2304 60.042 54.2442 60.0181 54.2681C59.9942 54.2921 59.9804 54.3242 59.9795 54.3581C59.9795 54.3922 59.993 54.4249 60.0171 54.449C60.0413 54.4731 60.074 54.4866 60.1081 54.4866H60.6327C60.6496 54.4866 60.6663 54.4833 60.6819 54.4768C60.6975 54.4704 60.7117 54.4609 60.7237 54.449C60.7356 54.437 60.7451 54.4229 60.7515 54.4073C60.758 54.3917 60.7613 54.3749 60.7613 54.3581ZM60.7613 54.9557C60.7604 54.9219 60.7466 54.8897 60.7227 54.8658C60.6988 54.8419 60.6666 54.828 60.6327 54.8272H60.1081C60.0742 54.828 60.042 54.8419 60.0181 54.8658C59.9942 54.8897 59.9804 54.9219 59.9795 54.9557C59.9795 54.9898 59.993 55.0225 60.0171 55.0466C60.0413 55.0707 60.074 55.0843 60.1081 55.0843H60.6327C60.6496 55.0843 60.6663 55.081 60.6819 55.0745C60.6975 55.068 60.7117 55.0586 60.7237 55.0466C60.7356 55.0347 60.7451 55.0205 60.7515 55.0049C60.758 54.9893 60.7613 54.9726 60.7613 54.9557ZM60.7613 55.5534C60.7604 55.5196 60.7466 55.4874 60.7227 55.4635C60.6988 55.4395 60.6666 55.4257 60.6327 55.4248H60.1081C60.0742 55.4257 60.042 55.4395 60.0181 55.4635C59.9942 55.4874 59.9804 55.5196 59.9795 55.5534C59.9795 55.5875 59.993 55.6202 60.0171 55.6443C60.0413 55.6684 60.074 55.682 60.1081 55.682H60.6327C60.6496 55.682 60.6663 55.6786 60.6819 55.6722C60.6975 55.6657 60.7117 55.6562 60.7237 55.6443C60.7356 55.6324 60.7451 55.6182 60.7515 55.6026C60.758 55.587 60.7613 55.5703 60.7613 55.5534ZM60.7613 56.151C60.7604 56.1172 60.7466 56.085 60.7227 56.0611C60.6988 56.0372 60.6666 56.0234 60.6327 56.0225H60.1081C60.0742 56.0234 60.042 56.0372 60.0181 56.0611C59.9942 56.085 59.9804 56.1172 59.9795 56.151C59.9795 56.1851 59.993 56.2178 60.0171 56.242C60.0413 56.2661 60.074 56.2796 60.1081 56.2796H60.6327C60.6496 56.2796 60.6663 56.2763 60.6819 56.2698C60.6975 56.2634 60.7117 56.2539 60.7237 56.242C60.7356 56.23 60.7451 56.2158 60.7515 56.2002C60.758 56.1847 60.7613 56.1679 60.7613 56.151ZM60.7613 56.7487C60.7604 56.7149 60.7466 56.6827 60.7227 56.6588C60.6988 56.6348 60.6666 56.621 60.6327 56.6201H60.1081C60.0772 56.6252 60.0491 56.6411 60.0288 56.665C60.0085 56.6888 59.9974 56.7191 59.9974 56.7504C59.9974 56.7818 60.0085 56.8121 60.0288 56.8359C60.0491 56.8598 60.0772 56.8757 60.1081 56.8807H60.6327C60.6672 56.8798 60.6999 56.8655 60.7239 56.8409C60.7479 56.8162 60.7613 56.7831 60.7613 56.7487ZM60.7613 57.3464C60.7604 57.3125 60.7466 57.2804 60.7227 57.2564C60.6988 57.2325 60.6666 57.2187 60.6327 57.2178H60.1081C60.0772 57.2229 60.0491 57.2387 60.0288 57.2626C60.0085 57.2865 59.9974 57.3168 59.9974 57.3481C59.9974 57.3794 60.0085 57.4097 60.0288 57.4336C60.0491 57.4575 60.0772 57.4733 60.1081 57.4784H60.6327C60.6672 57.4775 60.6999 57.4632 60.7239 57.4385C60.7479 57.4139 60.7613 57.3808 60.7613 57.3464ZM62.7176 53.1766C62.7181 53.1596 62.7151 53.1427 62.7088 53.1269C62.7025 53.1111 62.6931 53.0967 62.681 53.0847C62.669 53.0726 62.6546 53.0632 62.6388 53.0569C62.623 53.0506 62.6061 53.0476 62.589 53.0481H61.2165C61.1995 53.0476 61.1826 53.0506 61.1667 53.0569C61.1509 53.0632 61.1366 53.0726 61.1245 53.0847C61.1125 53.0967 61.103 53.1111 61.0967 53.1269C61.0905 53.1427 61.0875 53.1596 61.0879 53.1766C61.0879 53.2107 61.1015 53.2434 61.1256 53.2676C61.1497 53.2917 61.1824 53.3052 61.2165 53.3052H62.589C62.6072 53.3053 62.6251 53.3016 62.6417 53.2943C62.6583 53.287 62.6731 53.2762 62.6852 53.2628C62.6974 53.2493 62.7065 53.2335 62.7121 53.2162C62.7177 53.199 62.7196 53.1808 62.7176 53.1627V53.1766ZM62.7176 53.7743C62.7181 53.7573 62.7151 53.7404 62.7088 53.7245C62.7025 53.7087 62.6931 53.6944 62.681 53.6823C62.669 53.6703 62.6546 53.6608 62.6388 53.6546C62.623 53.6483 62.6061 53.6453 62.589 53.6457H61.2165C61.1995 53.6453 61.1826 53.6483 61.1667 53.6546C61.1509 53.6608 61.1366 53.6703 61.1245 53.6823C61.1125 53.6944 61.103 53.7087 61.0967 53.7245C61.0905 53.7404 61.0875 53.7573 61.0879 53.7743C61.0879 53.8084 61.1015 53.8411 61.1256 53.8652C61.1497 53.8893 61.1824 53.9029 61.2165 53.9029H62.589C62.6072 53.903 62.6251 53.8993 62.6417 53.8919C62.6583 53.8846 62.6731 53.8739 62.6852 53.8604C62.6974 53.847 62.7065 53.8311 62.7121 53.8139C62.7177 53.7966 62.7196 53.7784 62.7176 53.7604V53.7743ZM62.7176 54.372C62.7176 54.3379 62.7041 54.3052 62.6799 54.2811C62.6558 54.2569 62.6231 54.2434 62.589 54.2434H61.2165C61.1824 54.2434 61.1497 54.2569 61.1256 54.2811C61.1015 54.3052 61.0879 54.3379 61.0879 54.372C61.0875 54.389 61.0905 54.4059 61.0967 54.4217C61.103 54.4375 61.1125 54.4519 61.1245 54.4639C61.1366 54.476 61.1509 54.4854 61.1667 54.4917C61.1826 54.498 61.1995 54.501 61.2165 54.5005H62.589C62.6073 54.5012 62.6255 54.4979 62.6424 54.4908C62.6593 54.4836 62.6743 54.4729 62.6866 54.4593C62.6989 54.4458 62.708 54.4296 62.7134 54.4121C62.7187 54.3946 62.7202 54.3762 62.7176 54.3581V54.372ZM62.7176 54.9696C62.7176 54.9355 62.7041 54.9028 62.6799 54.8787C62.6558 54.8546 62.6231 54.8411 62.589 54.8411H61.2165C61.1824 54.8411 61.1497 54.8546 61.1256 54.8787C61.1015 54.9028 61.0879 54.9355 61.0879 54.9696C61.0875 54.9866 61.0905 55.0036 61.0967 55.0194C61.103 55.0352 61.1125 55.0496 61.1245 55.0616C61.1366 55.0736 61.1509 55.0831 61.1667 55.0894C61.1826 55.0957 61.1995 55.0987 61.2165 55.0982H62.589C62.6073 55.0989 62.6255 55.0955 62.6424 55.0884C62.6593 55.0813 62.6743 55.0706 62.6866 55.057C62.6989 55.0434 62.708 55.0273 62.7134 55.0098C62.7187 54.9923 62.7202 54.9738 62.7176 54.9557V54.9696ZM62.7176 55.5673C62.7176 55.5332 62.7041 55.5005 62.6799 55.4764C62.6558 55.4523 62.6231 55.4387 62.589 55.4387H61.2165C61.1824 55.4387 61.1497 55.4523 61.1256 55.4764C61.1015 55.5005 61.0879 55.5332 61.0879 55.5673C61.0875 55.5843 61.0905 55.6012 61.0967 55.617C61.103 55.6329 61.1125 55.6472 61.1245 55.6593C61.1366 55.6713 61.1509 55.6807 61.1667 55.687C61.1826 55.6933 61.1995 55.6963 61.2165 55.6959H62.589C62.6073 55.6965 62.6255 55.6932 62.6424 55.6861C62.6593 55.679 62.6743 55.6682 62.6866 55.6547C62.6989 55.6411 62.708 55.625 62.7134 55.6075C62.7187 55.59 62.7202 55.5715 62.7176 55.5534V55.5673ZM64.3646 56.1649C64.3637 56.1305 64.3494 56.0978 64.3248 56.0738C64.3001 56.0498 64.267 56.0364 64.2326 56.0364H62.8601C62.8262 56.0373 62.7941 56.0511 62.7701 56.075C62.7462 56.0989 62.7324 56.1311 62.7315 56.1649C62.7315 56.199 62.745 56.2317 62.7692 56.2559C62.7933 56.28 62.826 56.2935 62.8601 56.2935H64.2326C64.251 56.2941 64.2693 56.2908 64.2863 56.2837C64.3033 56.2766 64.3186 56.2659 64.3311 56.2524C64.3437 56.2389 64.3531 56.2229 64.3589 56.2054C64.3647 56.1879 64.3666 56.1694 64.3646 56.151V56.1649ZM64.3646 56.7626C64.3637 56.7282 64.3494 56.6955 64.3248 56.6715C64.3001 56.6475 64.267 56.634 64.2326 56.634H62.8601C62.8292 56.6391 62.8011 56.655 62.7808 56.6789C62.7605 56.7027 62.7494 56.733 62.7494 56.7643C62.7494 56.7957 62.7605 56.826 62.7808 56.8498C62.8011 56.8737 62.8292 56.8896 62.8601 56.8947H64.2326C64.2512 56.8948 64.2696 56.8909 64.2866 56.8834C64.3036 56.876 64.3188 56.865 64.3313 56.8512C64.3437 56.8374 64.3531 56.8212 64.3589 56.8035C64.3646 56.7858 64.3666 56.7672 64.3646 56.7487V56.7626ZM64.3646 57.3603C64.3637 57.3259 64.3494 57.2932 64.3248 57.2691C64.3001 57.2451 64.267 57.2317 64.2326 57.2317H62.8601C62.8292 57.2368 62.8011 57.2526 62.7808 57.2765C62.7605 57.3004 62.7494 57.3307 62.7494 57.362C62.7494 57.3933 62.7605 57.4236 62.7808 57.4475C62.8011 57.4714 62.8292 57.4872 62.8601 57.4923H64.2326C64.2512 57.4924 64.2696 57.4886 64.2866 57.4811C64.3036 57.4736 64.3188 57.4626 64.3313 57.4489C64.3437 57.4351 64.3531 57.4188 64.3589 57.4012C64.3646 57.3835 64.3666 57.3648 64.3646 57.3464V57.3603ZM63.3222 53.1906C63.3222 53.1509 63.3065 53.1129 63.2785 53.0849C63.2504 53.0569 63.2124 53.0411 63.1728 53.0411C63.1332 53.0411 63.0952 53.0569 63.0671 53.0849C63.0391 53.1129 63.0234 53.1509 63.0234 53.1906C63.0234 53.2302 63.0391 53.2682 63.0671 53.2962C63.0952 53.3242 63.1332 53.34 63.1728 53.34C63.195 53.3404 63.217 53.3358 63.2372 53.3266C63.2574 53.3174 63.2753 53.3039 63.2896 53.2869C63.304 53.2699 63.3143 53.25 63.3199 53.2285C63.3256 53.207 63.3263 53.1846 63.3222 53.1627V53.1906ZM63.7705 53.1906C63.7705 53.1509 63.7547 53.1129 63.7267 53.0849C63.6987 53.0569 63.6607 53.0411 63.621 53.0411C63.5814 53.0411 63.5434 53.0569 63.5154 53.0849C63.4874 53.1129 63.4716 53.1509 63.4716 53.1906C63.4716 53.2302 63.4874 53.2682 63.5154 53.2962C63.5434 53.3242 63.5814 53.34 63.621 53.34C63.6432 53.3404 63.6652 53.3358 63.6855 53.3266C63.7057 53.3174 63.7236 53.3039 63.7379 53.2869C63.7522 53.2699 63.7625 53.25 63.7682 53.2285C63.7738 53.207 63.7746 53.1846 63.7705 53.1627V53.1906ZM64.2187 53.1906C64.2187 53.1509 64.203 53.1129 64.1749 53.0849C64.1469 53.0569 64.1089 53.0411 64.0693 53.0411C64.0297 53.0411 63.9917 53.0569 63.9636 53.0849C63.9356 53.1129 63.9199 53.1509 63.9199 53.1906C63.9199 53.2302 63.9356 53.2682 63.9636 53.2962C63.9917 53.3242 64.0297 53.34 64.0693 53.34C64.0915 53.3404 64.1135 53.3358 64.1337 53.3266C64.1539 53.3174 64.1718 53.3039 64.1861 53.2869C64.2004 53.2699 64.2108 53.25 64.2164 53.2285C64.2221 53.207 64.2228 53.1846 64.2187 53.1627V53.1906ZM64.6704 53.1906C64.6711 53.1602 64.6627 53.1303 64.6464 53.1047C64.63 53.0791 64.6064 53.0589 64.5785 53.0468C64.5506 53.0347 64.5198 53.0312 64.4899 53.0367C64.46 53.0422 64.4324 53.0565 64.4107 53.0777C64.389 53.099 64.3741 53.1262 64.3679 53.1559C64.3617 53.1857 64.3645 53.2166 64.376 53.2447C64.3874 53.2729 64.407 53.297 64.4322 53.3139C64.4575 53.3309 64.4871 53.34 64.5175 53.34C64.5398 53.3402 64.5619 53.3357 64.5823 53.3265C64.6026 53.3173 64.6207 53.3038 64.6352 53.287C64.6498 53.2701 64.6605 53.2502 64.6666 53.2287C64.6727 53.2073 64.674 53.1848 64.6704 53.1627V53.1906ZM65.1187 53.1906C65.1187 53.1509 65.1029 53.1129 65.0749 53.0849C65.0469 53.0569 65.0089 53.0411 64.9693 53.0411C64.9296 53.0411 64.8916 53.0569 64.8636 53.0849C64.8356 53.1129 64.8198 53.1509 64.8198 53.1906C64.8198 53.2302 64.8356 53.2682 64.8636 53.2962C64.8916 53.3242 64.9296 53.34 64.9693 53.34C64.9915 53.3404 65.0135 53.3358 65.0337 53.3266C65.0539 53.3174 65.0718 53.3039 65.0861 53.2869C65.1004 53.2699 65.1108 53.25 65.1164 53.2285C65.122 53.207 65.1228 53.1846 65.1187 53.1627V53.1906ZM65.5669 53.1906C65.5669 53.1509 65.5512 53.1129 65.5232 53.0849C65.4951 53.0569 65.4571 53.0411 65.4175 53.0411C65.3779 53.0411 65.3399 53.0569 65.3118 53.0849C65.2838 53.1129 65.2681 53.1509 65.2681 53.1906C65.2681 53.2302 65.2838 53.2682 65.3118 53.2962C65.3399 53.3242 65.3779 53.34 65.4175 53.34C65.4397 53.3404 65.4617 53.3358 65.4819 53.3266C65.5021 53.3174 65.52 53.3039 65.5343 53.2869C65.5487 53.2699 65.559 53.25 65.5646 53.2285C65.5703 53.207 65.571 53.1846 65.5669 53.1627V53.1906ZM63.3222 54.3859C63.3222 54.3462 63.3065 54.3082 63.2785 54.2802C63.2504 54.2522 63.2124 54.2364 63.1728 54.2364C63.1332 54.2364 63.0952 54.2522 63.0671 54.2802C63.0391 54.3082 63.0234 54.3462 63.0234 54.3859C63.0234 54.4255 63.0391 54.4635 63.0671 54.4915C63.0952 54.5195 63.1332 54.5353 63.1728 54.5353C63.195 54.5357 63.217 54.5311 63.2372 54.5219C63.2574 54.5127 63.2753 54.4992 63.2896 54.4822C63.304 54.4652 63.3143 54.4453 63.3199 54.4238C63.3256 54.4023 63.3263 54.3799 63.3222 54.3581V54.3859ZM63.7705 54.3859C63.7705 54.3462 63.7547 54.3082 63.7267 54.2802C63.6987 54.2522 63.6607 54.2364 63.621 54.2364C63.5814 54.2364 63.5434 54.2522 63.5154 54.2802C63.4874 54.3082 63.4716 54.3462 63.4716 54.3859C63.4716 54.4255 63.4874 54.4635 63.5154 54.4915C63.5434 54.5195 63.5814 54.5353 63.621 54.5353C63.6432 54.5357 63.6652 54.5311 63.6855 54.5219C63.7057 54.5127 63.7236 54.4992 63.7379 54.4822C63.7522 54.4652 63.7625 54.4453 63.7682 54.4238C63.7738 54.4023 63.7746 54.3799 63.7705 54.3581V54.3859ZM64.2187 54.3859C64.2187 54.3462 64.203 54.3082 64.1749 54.2802C64.1469 54.2522 64.1089 54.2364 64.0693 54.2364C64.0297 54.2364 63.9917 54.2522 63.9636 54.2802C63.9356 54.3082 63.9199 54.3462 63.9199 54.3859C63.9199 54.4255 63.9356 54.4635 63.9636 54.4915C63.9917 54.5195 64.0297 54.5353 64.0693 54.5353C64.0915 54.5357 64.1135 54.5311 64.1337 54.5219C64.1539 54.5127 64.1718 54.4992 64.1861 54.4822C64.2004 54.4652 64.2108 54.4453 64.2164 54.4238C64.2221 54.4023 64.2228 54.3799 64.2187 54.3581V54.3859ZM64.6704 54.3859C64.6711 54.3555 64.6627 54.3256 64.6464 54.3C64.63 54.2744 64.6064 54.2543 64.5785 54.2422C64.5506 54.2301 64.5198 54.2265 64.4899 54.232C64.46 54.2375 64.4324 54.2518 64.4107 54.273C64.389 54.2943 64.3741 54.3215 64.3679 54.3513C64.3617 54.381 64.3645 54.4119 64.376 54.4401C64.3874 54.4682 64.407 54.4923 64.4322 54.5092C64.4575 54.5262 64.4871 54.5353 64.5175 54.5353C64.5398 54.5356 64.5619 54.531 64.5823 54.5218C64.6026 54.5127 64.6207 54.4992 64.6352 54.4823C64.6498 54.4654 64.6605 54.4455 64.6666 54.4241C64.6727 54.4026 64.674 54.3801 64.6704 54.3581V54.3859ZM65.1187 54.3859C65.1187 54.3462 65.1029 54.3082 65.0749 54.2802C65.0469 54.2522 65.0089 54.2364 64.9693 54.2364C64.9296 54.2364 64.8916 54.2522 64.8636 54.2802C64.8356 54.3082 64.8198 54.3462 64.8198 54.3859C64.8198 54.4255 64.8356 54.4635 64.8636 54.4915C64.8916 54.5195 64.9296 54.5353 64.9693 54.5353C64.9915 54.5357 65.0135 54.5311 65.0337 54.5219C65.0539 54.5127 65.0718 54.4992 65.0861 54.4822C65.1004 54.4652 65.1108 54.4453 65.1164 54.4238C65.122 54.4023 65.1228 54.3799 65.1187 54.3581V54.3859ZM65.5669 54.3859C65.5669 54.3462 65.5512 54.3082 65.5232 54.2802C65.4951 54.2522 65.4571 54.2364 65.4175 54.2364C65.3779 54.2364 65.3399 54.2522 65.3118 54.2802C65.2838 54.3082 65.2681 54.3462 65.2681 54.3859C65.2681 54.4255 65.2838 54.4635 65.3118 54.4915C65.3399 54.5195 65.3779 54.5353 65.4175 54.5353C65.4397 54.5357 65.4617 54.5311 65.4819 54.5219C65.5021 54.5127 65.52 54.4992 65.5343 54.4822C65.5487 54.4652 65.559 54.4453 65.5646 54.4238C65.5703 54.4023 65.571 54.3799 65.5669 54.3581V54.3859ZM64.872 56.1059C64.872 56.0763 64.8632 56.0474 64.8468 56.0229C64.8304 55.9983 64.807 55.9791 64.7797 55.9678C64.7524 55.9565 64.7224 55.9536 64.6934 55.9593C64.6644 55.9651 64.6378 55.9793 64.6169 56.0002C64.596 56.0211 64.5818 56.0477 64.576 56.0767C64.5702 56.1057 64.5732 56.1357 64.5845 56.163C64.5958 56.1904 64.615 56.2137 64.6395 56.2301C64.6641 56.2465 64.693 56.2553 64.7225 56.2553C64.7432 56.2532 64.7633 56.2469 64.7814 56.2367C64.7995 56.2265 64.8153 56.2126 64.8277 56.1959C64.8402 56.1792 64.849 56.1601 64.8536 56.1398C64.8582 56.1195 64.8586 56.0985 64.8546 56.0781L64.872 56.1059ZM65.3202 56.1059C65.3202 56.0662 65.3045 56.0282 65.2764 56.0002C65.2484 55.9722 65.2104 55.9565 65.1708 55.9565C65.1312 55.9565 65.0932 55.9722 65.0651 56.0002C65.0371 56.0282 65.0214 56.0662 65.0214 56.1059C65.0214 56.1455 65.0371 56.1835 65.0651 56.2115C65.0932 56.2396 65.1312 56.2553 65.1708 56.2553C65.1915 56.2532 65.2115 56.2469 65.2297 56.2367C65.2478 56.2265 65.2635 56.2126 65.276 56.1959C65.2884 56.1792 65.2972 56.1601 65.3018 56.1398C65.3065 56.1195 65.3068 56.0985 65.3028 56.0781L65.3202 56.1059ZM65.7685 56.1059C65.7685 56.0662 65.7527 56.0282 65.7247 56.0002C65.6967 55.9722 65.6587 55.9565 65.619 55.9565C65.5794 55.9565 65.5414 55.9722 65.5134 56.0002C65.4854 56.0282 65.4696 56.0662 65.4696 56.1059C65.4696 56.1455 65.4854 56.1835 65.5134 56.2115C65.5414 56.2396 65.5794 56.2553 65.619 56.2553C65.6397 56.2532 65.6598 56.2469 65.6779 56.2367C65.696 56.2265 65.7118 56.2126 65.7242 56.1959C65.7367 56.1792 65.7455 56.1601 65.7501 56.1398C65.7547 56.1195 65.755 56.0985 65.7511 56.0781L65.7685 56.1059ZM66.2167 56.1059C66.2167 56.0662 66.201 56.0282 66.1729 56.0002C66.1449 55.9722 66.1069 55.9565 66.0673 55.9565C66.0277 55.9565 65.9896 55.9722 65.9616 56.0002C65.9336 56.0282 65.9179 56.0662 65.9179 56.1059C65.9179 56.1455 65.9336 56.1835 65.9616 56.2115C65.9896 56.2396 66.0277 56.2553 66.0673 56.2553C66.088 56.2532 66.108 56.2469 66.1261 56.2367C66.1443 56.2265 66.16 56.2126 66.1725 56.1959C66.1849 56.1792 66.1937 56.1601 66.1983 56.1398C66.203 56.1195 66.2033 56.0985 66.1993 56.0781L66.2167 56.1059ZM66.6684 56.1059C66.6691 56.0753 66.6606 56.0453 66.6441 56.0197C66.6276 55.994 66.6037 55.9739 66.5757 55.9619C66.5476 55.9499 66.5166 55.9465 66.4866 55.9523C66.4566 55.9581 66.429 55.9727 66.4075 55.9943C66.3859 56.0159 66.3712 56.0435 66.3654 56.0735C66.3597 56.1034 66.363 56.1345 66.375 56.1625C66.387 56.1906 66.4071 56.2144 66.4328 56.231C66.4584 56.2475 66.4885 56.256 66.519 56.2553C66.5397 56.2532 66.5598 56.2469 66.5779 56.2367C66.596 56.2265 66.6118 56.2126 66.6242 56.1959C66.6366 56.1792 66.6454 56.1601 66.65 56.1398C66.6547 56.1195 66.655 56.0985 66.651 56.0781L66.6684 56.1059ZM67.1167 56.1059C67.1167 56.0662 67.1009 56.0282 67.0729 56.0002C67.0449 55.9722 67.0069 55.9565 66.9672 55.9565C66.9276 55.9565 66.8896 55.9722 66.8616 56.0002C66.8336 56.0282 66.8178 56.0662 66.8178 56.1059C66.8178 56.1455 66.8336 56.1835 66.8616 56.2115C66.8896 56.2396 66.9276 56.2553 66.9672 56.2553C66.9867 56.2516 67.0052 56.244 67.0218 56.233C67.0383 56.2221 67.0524 56.2079 67.0634 56.1914C67.0744 56.1749 67.082 56.1564 67.0858 56.137C67.0896 56.1175 67.0894 56.0975 67.0854 56.0781L67.1167 56.1059ZM64.872 57.3394C64.872 57.2998 64.8562 57.2618 64.8282 57.2338C64.8002 57.2057 64.7622 57.19 64.7225 57.19C64.6829 57.19 64.6449 57.2057 64.6169 57.2338C64.5889 57.2618 64.5731 57.2998 64.5731 57.3394C64.5731 57.379 64.5889 57.417 64.6169 57.4451C64.6449 57.4731 64.6829 57.4888 64.7225 57.4888C64.7622 57.4888 64.8002 57.4731 64.8282 57.4451C64.8562 57.417 64.872 57.379 64.872 57.3394ZM65.3202 57.3394C65.3202 57.2998 65.3045 57.2618 65.2764 57.2338C65.2484 57.2057 65.2104 57.19 65.1708 57.19C65.1312 57.19 65.0932 57.2057 65.0651 57.2338C65.0371 57.2618 65.0214 57.2998 65.0214 57.3394C65.0223 57.3788 65.0383 57.4163 65.0661 57.4441C65.0939 57.4719 65.1314 57.4879 65.1708 57.4888C65.1915 57.4868 65.2115 57.4805 65.2297 57.4702C65.2478 57.46 65.2635 57.4461 65.276 57.4294C65.2884 57.4127 65.2972 57.3936 65.3018 57.3733C65.3065 57.3531 65.3068 57.332 65.3028 57.3116L65.3202 57.3394ZM65.7685 57.3394C65.7685 57.2998 65.7527 57.2618 65.7247 57.2338C65.6967 57.2057 65.6587 57.19 65.619 57.19C65.5794 57.19 65.5414 57.2057 65.5134 57.2338C65.4854 57.2618 65.4696 57.2998 65.4696 57.3394C65.4705 57.3788 65.4865 57.4163 65.5144 57.4441C65.5422 57.4719 65.5797 57.4879 65.619 57.4888C65.6397 57.4868 65.6598 57.4805 65.6779 57.4702C65.696 57.46 65.7118 57.4461 65.7242 57.4294C65.7367 57.4127 65.7455 57.3936 65.7501 57.3733C65.7547 57.3531 65.755 57.332 65.7511 57.3116L65.7685 57.3394ZM66.2167 57.3394C66.2167 57.2998 66.201 57.2618 66.1729 57.2338C66.1449 57.2057 66.1069 57.19 66.0673 57.19C66.0277 57.19 65.9896 57.2057 65.9616 57.2338C65.9336 57.2618 65.9179 57.2998 65.9179 57.3394C65.9187 57.3788 65.9348 57.4163 65.9626 57.4441C65.9904 57.4719 66.0279 57.4879 66.0673 57.4888C66.088 57.4868 66.108 57.4805 66.1261 57.4702C66.1443 57.46 66.16 57.4461 66.1725 57.4294C66.1849 57.4127 66.1937 57.3936 66.1983 57.3733C66.203 57.3531 66.2033 57.332 66.1993 57.3116L66.2167 57.3394ZM66.6684 57.3394C66.6629 57.3033 66.6446 57.2703 66.6169 57.2465C66.5892 57.2226 66.5538 57.2095 66.5173 57.2095C66.4807 57.2095 66.4453 57.2226 66.4176 57.2465C66.3899 57.2703 66.3716 57.3033 66.3661 57.3394C66.3716 57.3756 66.3899 57.4086 66.4176 57.4324C66.4453 57.4562 66.4807 57.4693 66.5173 57.4693C66.5538 57.4693 66.5892 57.4562 66.6169 57.4324C66.6446 57.4086 66.6629 57.3756 66.6684 57.3394ZM67.1167 57.3394C67.1167 57.2998 67.1009 57.2618 67.0729 57.2338C67.0449 57.2057 67.0069 57.19 66.9672 57.19C66.9276 57.19 66.8896 57.2057 66.8616 57.2338C66.8336 57.2618 66.8178 57.2998 66.8178 57.3394C66.8178 57.379 66.8336 57.417 66.8616 57.4451C66.8896 57.4731 66.9276 57.4888 66.9672 57.4888C67.0061 57.4805 67.0402 57.4573 67.0622 57.4242C67.0843 57.3911 67.0926 57.3507 67.0854 57.3116L67.1167 57.3394Z" fill="#263238" fill-opacity="0.4"/>
  <path d="M73.4129 53.2914H72.8917C72.8572 53.2914 72.8242 53.2779 72.7995 53.2539C72.7748 53.2299 72.7605 53.1972 72.7596 53.1628C72.7596 53.1456 72.7631 53.1286 72.7697 53.1128C72.7764 53.097 72.7862 53.0826 72.7985 53.0706C72.8108 53.0586 72.8254 53.0493 72.8414 53.043C72.8574 53.0367 72.8745 53.0338 72.8917 53.0342H73.4129C73.4299 53.0337 73.4468 53.0368 73.4627 53.043C73.4785 53.0493 73.4928 53.0588 73.5049 53.0708C73.5169 53.0829 73.5264 53.0972 73.5326 53.113C73.5389 53.1289 73.5419 53.1458 73.5415 53.1628C73.5415 53.1969 73.5279 53.2296 73.5038 53.2537C73.4797 53.2778 73.447 53.2914 73.4129 53.2914ZM73.5415 53.7605C73.5419 53.7434 73.5389 53.7265 73.5326 53.7107C73.5264 53.6949 73.5169 53.6805 73.5049 53.6685C73.4928 53.6564 73.4785 53.647 73.4627 53.6407C73.4468 53.6344 73.4299 53.6314 73.4129 53.6319H72.8917C72.8745 53.6314 72.8574 53.6344 72.8414 53.6407C72.8254 53.6469 72.8108 53.6563 72.7985 53.6683C72.7862 53.6803 72.7764 53.6946 72.7697 53.7104C72.7631 53.7263 72.7596 53.7433 72.7596 53.7605C72.7605 53.7949 72.7748 53.8276 72.7995 53.8516C72.8242 53.8756 72.8572 53.889 72.8917 53.889H73.4129C73.4298 53.889 73.4465 53.8857 73.4621 53.8792C73.4777 53.8728 73.4919 53.8633 73.5038 53.8514C73.5157 53.8394 73.5252 53.8253 73.5317 53.8097C73.5381 53.7941 73.5415 53.7773 73.5415 53.7605ZM73.5415 54.3581C73.5415 54.324 73.5279 54.2913 73.5038 54.2672C73.4797 54.2431 73.447 54.2295 73.4129 54.2295H72.8917C72.8572 54.2295 72.8242 54.243 72.7995 54.267C72.7748 54.291 72.7605 54.3237 72.7596 54.3581C72.7596 54.3753 72.7631 54.3923 72.7697 54.4081C72.7764 54.424 72.7862 54.4383 72.7985 54.4503C72.8108 54.4623 72.8254 54.4717 72.8414 54.4779C72.8574 54.4842 72.8745 54.4871 72.8917 54.4867H73.4129C73.4299 54.4872 73.4468 54.4842 73.4627 54.4779C73.4785 54.4716 73.4928 54.4621 73.5049 54.4501C73.5169 54.4381 73.5264 54.4237 73.5326 54.4079C73.5389 54.3921 73.5419 54.3751 73.5415 54.3581ZM73.5415 54.9558C73.5415 54.9217 73.5279 54.889 73.5038 54.8649C73.4797 54.8408 73.447 54.8272 73.4129 54.8272H72.8917C72.8572 54.8272 72.8242 54.8406 72.7995 54.8646C72.7748 54.8887 72.7605 54.9214 72.7596 54.9558C72.7596 54.973 72.7631 54.99 72.7697 55.0058C72.7764 55.0216 72.7862 55.0359 72.7985 55.0479C72.8108 55.0599 72.8254 55.0693 72.8414 55.0756C72.8574 55.0818 72.8745 55.0848 72.8917 55.0843H73.4129C73.4299 55.0848 73.4468 55.0818 73.4627 55.0755C73.4785 55.0692 73.4928 55.0598 73.5049 55.0478C73.5169 55.0357 73.5264 55.0214 73.5326 55.0055C73.5389 54.9897 73.5419 54.9728 73.5415 54.9558ZM73.5415 55.5534C73.5415 55.5193 73.5279 55.4866 73.5038 55.4625C73.4797 55.4384 73.447 55.4249 73.4129 55.4249H72.8917C72.8572 55.4249 72.8242 55.4383 72.7995 55.4623C72.7748 55.4863 72.7605 55.519 72.7596 55.5534C72.7596 55.5706 72.7631 55.5876 72.7697 55.6035C72.7764 55.6193 72.7862 55.6336 72.7985 55.6456C72.8108 55.6576 72.8254 55.667 72.8414 55.6732C72.8574 55.6795 72.8745 55.6825 72.8917 55.682H73.4129C73.4299 55.6825 73.4468 55.6795 73.4627 55.6732C73.4785 55.6669 73.4928 55.6574 73.5049 55.6454C73.5169 55.6334 73.5264 55.619 73.5326 55.6032C73.5389 55.5874 73.5419 55.5704 73.5415 55.5534ZM73.5415 56.1511C73.5415 56.117 73.5279 56.0843 73.5038 56.0602C73.4797 56.0361 73.447 56.0225 73.4129 56.0225H72.8917C72.8572 56.0225 72.8242 56.0359 72.7995 56.06C72.7748 56.084 72.7605 56.1167 72.7596 56.1511C72.7596 56.1683 72.7631 56.1853 72.7697 56.2011C72.7764 56.2169 72.7862 56.2313 72.7985 56.2433C72.8108 56.2552 72.8254 56.2646 72.8414 56.2709C72.8574 56.2771 72.8745 56.2801 72.8917 56.2797H73.4129C73.4299 56.2801 73.4468 56.2771 73.4627 56.2708C73.4785 56.2646 73.4928 56.2551 73.5049 56.2431C73.5169 56.231 73.5264 56.2167 73.5326 56.2009C73.5389 56.185 73.5419 56.1681 73.5415 56.1511ZM73.5415 56.7488C73.5415 56.7147 73.5279 56.682 73.5038 56.6578C73.4797 56.6337 73.447 56.6202 73.4129 56.6202H72.8917C72.8728 56.6171 72.8534 56.6181 72.835 56.6233C72.8165 56.6284 72.7994 56.6375 72.7848 56.6499C72.7702 56.6623 72.7585 56.6777 72.7505 56.6951C72.7424 56.7124 72.7383 56.7313 72.7383 56.7505C72.7383 56.7696 72.7424 56.7886 72.7505 56.8059C72.7585 56.8233 72.7702 56.8387 72.7848 56.8511C72.7994 56.8635 72.8165 56.8726 72.835 56.8777C72.8534 56.8828 72.8728 56.8839 72.8917 56.8808H73.4129C73.4301 56.8808 73.4471 56.8774 73.4629 56.8707C73.4787 56.864 73.4931 56.8542 73.5051 56.8419C73.517 56.8296 73.5264 56.815 73.5327 56.799C73.5389 56.783 73.5419 56.7659 73.5415 56.7488ZM73.5415 57.3464C73.5415 57.3123 73.5279 57.2796 73.5038 57.2555C73.4797 57.2314 73.447 57.2178 73.4129 57.2178H72.8917C72.8728 57.2148 72.8534 57.2158 72.835 57.2209C72.8165 57.226 72.7994 57.2351 72.7848 57.2475C72.7702 57.2599 72.7585 57.2753 72.7505 57.2927C72.7424 57.3101 72.7383 57.329 72.7383 57.3482C72.7383 57.3673 72.7424 57.3862 72.7505 57.4036C72.7585 57.421 72.7702 57.4364 72.7848 57.4488C72.7994 57.4612 72.8165 57.4703 72.835 57.4754C72.8534 57.4805 72.8728 57.4816 72.8917 57.4785H73.4129C73.4301 57.4785 73.4471 57.475 73.4629 57.4684C73.4787 57.4617 73.4931 57.4519 73.5051 57.4396C73.517 57.4273 73.5264 57.4127 73.5327 57.3967C73.5389 57.3807 73.5419 57.3636 73.5415 57.3464ZM75.5012 53.1767C75.5012 53.1595 75.4978 53.1425 75.4911 53.1267C75.4844 53.1108 75.4747 53.0965 75.4623 53.0845C75.45 53.0726 75.4354 53.0632 75.4194 53.0569C75.4034 53.0506 75.3864 53.0477 75.3692 53.0481H73.9793C73.9452 53.0481 73.9125 53.0617 73.8884 53.0858C73.8643 53.1099 73.8507 53.1426 73.8507 53.1767C73.8516 53.2105 73.8654 53.2427 73.8893 53.2666C73.9133 53.2906 73.9455 53.3044 73.9793 53.3053H75.3692C75.3874 53.3053 75.4055 53.3016 75.4222 53.2943C75.439 53.287 75.454 53.2764 75.4664 53.263C75.4788 53.2496 75.4883 53.2338 75.4943 53.2165C75.5003 53.1993 75.5027 53.181 75.5012 53.1628V53.1767ZM75.5012 53.7744C75.5012 53.7572 75.4978 53.7402 75.4911 53.7243C75.4844 53.7085 75.4747 53.6942 75.4623 53.6822C75.45 53.6702 75.4354 53.6608 75.4194 53.6546C75.4034 53.6483 75.3864 53.6453 75.3692 53.6458H73.9793C73.9452 53.6458 73.9125 53.6593 73.8884 53.6834C73.8643 53.7076 73.8507 53.7403 73.8507 53.7744C73.8516 53.8082 73.8654 53.8404 73.8893 53.8643C73.9133 53.8882 73.9455 53.902 73.9793 53.9029H75.3692C75.3874 53.903 75.4055 53.8993 75.4222 53.892C75.439 53.8847 75.454 53.874 75.4664 53.8606C75.4788 53.8473 75.4883 53.8314 75.4943 53.8142C75.5003 53.797 75.5027 53.7787 75.5012 53.7605V53.7744ZM75.5012 54.372C75.5003 54.3376 75.486 54.3049 75.4613 54.2809C75.4367 54.2569 75.4036 54.2434 75.3692 54.2435H73.9793C73.9455 54.2443 73.9133 54.2582 73.8893 54.2821C73.8654 54.306 73.8516 54.3382 73.8507 54.372C73.8507 54.4061 73.8643 54.4388 73.8884 54.4629C73.9125 54.487 73.9452 54.5006 73.9793 54.5006H75.3692C75.3876 54.5012 75.4059 54.4978 75.4229 54.4907C75.4399 54.4836 75.4552 54.473 75.4677 54.4595C75.4802 54.446 75.4897 54.4299 75.4955 54.4124C75.5013 54.395 75.5032 54.3764 75.5012 54.3581V54.372ZM75.5012 54.9697C75.5003 54.9353 75.486 54.9026 75.4613 54.8785C75.4367 54.8545 75.4036 54.8411 75.3692 54.8411H73.9793C73.9455 54.842 73.9133 54.8558 73.8893 54.8797C73.8654 54.9037 73.8516 54.9359 73.8507 54.9697C73.8507 55.0038 73.8643 55.0365 73.8884 55.0606C73.9125 55.0847 73.9452 55.0982 73.9793 55.0982H75.3692C75.3876 55.0988 75.4059 55.0955 75.4229 55.0884C75.4399 55.0813 75.4552 55.0706 75.4677 55.0571C75.4802 55.0436 75.4897 55.0276 75.4955 55.0101C75.5013 54.9926 75.5032 54.9741 75.5012 54.9558V54.9697ZM75.5012 55.5673C75.5003 55.5329 75.486 55.5002 75.4613 55.4762C75.4367 55.4522 75.4036 55.4388 75.3692 55.4388H73.9793C73.9455 55.4397 73.9133 55.4535 73.8893 55.4774C73.8654 55.5013 73.8516 55.5335 73.8507 55.5673C73.8507 55.6014 73.8643 55.6341 73.8884 55.6582C73.9125 55.6824 73.9452 55.6959 73.9793 55.6959H75.3692C75.3876 55.6965 75.4059 55.6932 75.4229 55.6861C75.4399 55.679 75.4552 55.6683 75.4677 55.6548C75.4802 55.6413 75.4897 55.6252 75.4955 55.6078C75.5013 55.5903 75.5032 55.5717 75.5012 55.5534V55.5673ZM77.1448 56.165C77.1439 56.1312 77.1301 56.099 77.1062 56.0751C77.0822 56.0511 77.05 56.0373 77.0162 56.0364H75.6263C75.5925 56.0373 75.5603 56.0511 75.5364 56.0751C75.5125 56.099 75.4986 56.1312 75.4977 56.165C75.4977 56.1991 75.5113 56.2318 75.5354 56.2559C75.5595 56.28 75.5922 56.2936 75.6263 56.2936H77.0162C77.0357 56.2964 77.0556 56.2946 77.0744 56.2885C77.0931 56.2824 77.1102 56.2721 77.1243 56.2583C77.1384 56.2445 77.1492 56.2277 77.1557 56.2091C77.1623 56.1905 77.1645 56.1707 77.1622 56.1511L77.1448 56.165ZM77.1448 56.7627C77.1439 56.7288 77.1301 56.6966 77.1062 56.6727C77.0822 56.6488 77.05 56.635 77.0162 56.6341H75.6263C75.5954 56.6392 75.5673 56.655 75.547 56.6789C75.5268 56.7028 75.5156 56.7331 75.5156 56.7644C75.5156 56.7957 75.5268 56.826 75.547 56.8499C75.5673 56.8737 75.5954 56.8896 75.6263 56.8947H77.0162C77.0359 56.8969 77.0559 56.8946 77.0746 56.8881C77.0933 56.8815 77.1103 56.8709 77.1243 56.8568C77.1383 56.8428 77.149 56.8258 77.1556 56.8071C77.1621 56.7884 77.1644 56.7685 77.1622 56.7488L77.1448 56.7627ZM77.1448 57.3603C77.1439 57.3265 77.1301 57.2943 77.1062 57.2704C77.0822 57.2464 77.05 57.2326 77.0162 57.2318H75.6263C75.5954 57.2368 75.5673 57.2527 75.547 57.2766C75.5268 57.3004 75.5156 57.3307 75.5156 57.3621C75.5156 57.3934 75.5268 57.4237 75.547 57.4475C75.5673 57.4714 75.5954 57.4873 75.6263 57.4924H77.0162C77.0359 57.4946 77.0559 57.4923 77.0746 57.4858C77.0933 57.4792 77.1103 57.4685 77.1243 57.4545C77.1383 57.4405 77.149 57.4235 77.1556 57.4048C77.1621 57.3861 77.1644 57.3661 77.1622 57.3464L77.1448 57.3603ZM76.1024 53.1906C76.1024 53.151 76.0866 53.113 76.0586 53.0849C76.0306 53.0569 75.9926 53.0412 75.9529 53.0412C75.9133 53.0412 75.8753 53.0569 75.8473 53.0849C75.8193 53.113 75.8035 53.151 75.8035 53.1906C75.8035 53.2302 75.8193 53.2682 75.8473 53.2962C75.8753 53.3243 75.9133 53.34 75.9529 53.34C75.9765 53.3432 76.0005 53.3408 76.023 53.3328C76.0454 53.3249 76.0657 53.3117 76.082 53.2944C76.0983 53.277 76.1103 53.2561 76.1168 53.2332C76.1234 53.2103 76.1244 53.1861 76.1197 53.1628L76.1024 53.1906ZM76.5541 53.1906C76.5541 53.151 76.5383 53.113 76.5103 53.0849C76.4823 53.0569 76.4443 53.0412 76.4047 53.0412C76.365 53.0412 76.327 53.0569 76.299 53.0849C76.271 53.113 76.2552 53.151 76.2552 53.1906C76.2552 53.2302 76.271 53.2682 76.299 53.2962C76.327 53.3243 76.365 53.34 76.4047 53.34C76.4269 53.3404 76.4489 53.3358 76.4691 53.3266C76.4893 53.3175 76.5072 53.3039 76.5215 53.2869C76.5358 53.27 76.5462 53.25 76.5518 53.2285C76.5574 53.2071 76.5582 53.1846 76.5541 53.1628V53.1906ZM77.0023 53.1906C77.0023 53.151 76.9866 53.113 76.9586 53.0849C76.9305 53.0569 76.8925 53.0412 76.8529 53.0412C76.8133 53.0412 76.7753 53.0569 76.7473 53.0849C76.7192 53.113 76.7035 53.151 76.7035 53.1906C76.7035 53.2302 76.7192 53.2682 76.7473 53.2962C76.7753 53.3243 76.8133 53.34 76.8529 53.34C76.8751 53.3404 76.8971 53.3358 76.9173 53.3266C76.9375 53.3175 76.9554 53.3039 76.9697 53.2869C76.9841 53.27 76.9944 53.25 77 53.2285C77.0057 53.2071 77.0065 53.1846 77.0023 53.1628V53.1906ZM77.4506 53.1906C77.4506 53.151 77.4348 53.113 77.4068 53.0849C77.3788 53.0569 77.3408 53.0412 77.3011 53.0412C77.2615 53.0412 77.2235 53.0569 77.1955 53.0849C77.1675 53.113 77.1517 53.151 77.1517 53.1906C77.1517 53.2302 77.1675 53.2682 77.1955 53.2962C77.2235 53.3243 77.2615 53.34 77.3011 53.34C77.3233 53.3404 77.3453 53.3358 77.3656 53.3266C77.3858 53.3175 77.4037 53.3039 77.418 53.2869C77.4323 53.27 77.4427 53.25 77.4483 53.2285C77.4539 53.2071 77.4547 53.1846 77.4506 53.1628V53.1906ZM77.8988 53.1906C77.8988 53.151 77.8831 53.113 77.855 53.0849C77.827 53.0569 77.789 53.0412 77.7494 53.0412C77.7098 53.0412 77.6718 53.0569 77.6437 53.0849C77.6157 53.113 77.6 53.151 77.6 53.1906C77.6 53.2302 77.6157 53.2682 77.6437 53.2962C77.6718 53.3243 77.7098 53.34 77.7494 53.34C77.7716 53.3404 77.7936 53.3358 77.8138 53.3266C77.834 53.3175 77.8519 53.3039 77.8662 53.2869C77.8806 53.27 77.8909 53.25 77.8965 53.2285C77.9022 53.2071 77.9029 53.1846 77.8988 53.1628V53.1906ZM78.3471 53.1906C78.3471 53.161 78.3383 53.1322 78.3219 53.1076C78.3055 53.083 78.2821 53.0639 78.2548 53.0526C78.2275 53.0412 78.1975 53.0383 78.1685 53.044C78.1395 53.0498 78.1129 53.064 78.092 53.0849C78.0711 53.1058 78.0569 53.1325 78.0511 53.1614C78.0453 53.1904 78.0483 53.2205 78.0596 53.2478C78.0709 53.2751 78.0901 53.2984 78.1146 53.3148C78.1392 53.3312 78.1681 53.34 78.1976 53.34C78.2198 53.3404 78.2418 53.3358 78.2621 53.3266C78.2823 53.3175 78.3002 53.3039 78.3145 53.2869C78.3288 53.27 78.3391 53.25 78.3448 53.2285C78.3504 53.2071 78.3512 53.1846 78.3471 53.1628V53.1906ZM76.1197 54.3581C76.1197 54.3185 76.104 54.2805 76.076 54.2525C76.0479 54.2244 76.0099 54.2087 75.9703 54.2087C75.9307 54.2087 75.8927 54.2244 75.8647 54.2525C75.8366 54.2805 75.8209 54.3185 75.8209 54.3581C75.8209 54.3977 75.8366 54.4357 75.8647 54.4638C75.8927 54.4918 75.9307 54.5075 75.9703 54.5075C76.0099 54.5075 76.0479 54.4918 76.076 54.4638C76.104 54.4357 76.1197 54.3977 76.1197 54.3581ZM76.5714 54.3581C76.5714 54.3185 76.5557 54.2805 76.5277 54.2525C76.4997 54.2244 76.4617 54.2087 76.422 54.2087C76.3824 54.2087 76.3444 54.2244 76.3164 54.2525C76.2884 54.2805 76.2726 54.3185 76.2726 54.3581C76.2726 54.3977 76.2884 54.4357 76.3164 54.4638C76.3444 54.4918 76.3824 54.5075 76.422 54.5075C76.4586 54.5032 76.4923 54.4856 76.5166 54.4581C76.541 54.4305 76.5543 54.3949 76.5541 54.3581H76.5714ZM77.0197 54.3581C77.0197 54.3185 77.0039 54.2805 76.9759 54.2525C76.9479 54.2244 76.9099 54.2087 76.8703 54.2087C76.8307 54.2087 76.7927 54.2244 76.7646 54.2525C76.7366 54.2805 76.7209 54.3185 76.7209 54.3581C76.7209 54.3977 76.7366 54.4357 76.7646 54.4638C76.7927 54.4918 76.8307 54.5075 76.8703 54.5075C76.9068 54.5032 76.9405 54.4856 76.9649 54.4581C76.9892 54.4305 77.0026 54.3949 77.0023 54.3581H77.0197ZM77.4679 54.3581C77.4679 54.3185 77.4522 54.2805 77.4242 54.2525C77.3962 54.2244 77.3582 54.2087 77.3185 54.2087C77.2789 54.2087 77.2409 54.2244 77.2129 54.2525C77.1848 54.2805 77.1691 54.3185 77.1691 54.3581C77.1691 54.3977 77.1848 54.4357 77.2129 54.4638C77.2409 54.4918 77.2789 54.5075 77.3185 54.5075C77.3551 54.5032 77.3888 54.4856 77.4131 54.4581C77.4375 54.4305 77.4508 54.3949 77.4506 54.3581H77.4679ZM77.9162 54.3581C77.9162 54.3185 77.9004 54.2805 77.8724 54.2525C77.8444 54.2244 77.8064 54.2087 77.7668 54.2087C77.7271 54.2087 77.6891 54.2244 77.6611 54.2525C77.6331 54.2805 77.6174 54.3185 77.6174 54.3581C77.6174 54.3977 77.6331 54.4357 77.6611 54.4638C77.6891 54.4918 77.7271 54.5075 77.7668 54.5075C77.8033 54.5032 77.837 54.4856 77.8614 54.4581C77.8857 54.4305 77.8991 54.3949 77.8988 54.3581H77.9162ZM78.3644 54.3581C78.3644 54.3286 78.3557 54.2997 78.3393 54.2751C78.3228 54.2505 78.2995 54.2314 78.2722 54.2201C78.2449 54.2088 78.2148 54.2058 78.1859 54.2116C78.1569 54.2173 78.1303 54.2316 78.1094 54.2525C78.0885 54.2734 78.0742 54.3 78.0685 54.329C78.0627 54.3579 78.0657 54.388 78.077 54.4153C78.0883 54.4426 78.1074 54.4659 78.132 54.4824C78.1566 54.4988 78.1855 54.5075 78.215 54.5075C78.2516 54.5032 78.2852 54.4856 78.3096 54.4581C78.334 54.4305 78.3473 54.3949 78.3471 54.3581H78.3644ZM77.6521 56.0781C77.6521 56.0385 77.6364 56.0005 77.6083 55.9725C77.5803 55.9444 77.5423 55.9287 77.5027 55.9287C77.4631 55.9287 77.4251 55.9444 77.397 55.9725C77.369 56.0005 77.3533 56.0385 77.3533 56.0781C77.3533 56.1178 77.369 56.1558 77.397 56.1838C77.4251 56.2118 77.4631 56.2275 77.5027 56.2275C77.5392 56.2233 77.5729 56.2057 77.5973 56.1781C77.6216 56.1505 77.635 56.1149 77.6347 56.0781H77.6521ZM78.1038 56.0781C78.1045 56.0477 78.0961 56.0178 78.0798 55.9923C78.0634 55.9667 78.0398 55.9465 78.0119 55.9344C77.984 55.9223 77.9532 55.9188 77.9233 55.9243C77.8934 55.9298 77.8658 55.9441 77.8441 55.9653C77.8224 55.9865 77.8075 56.0138 77.8013 56.0435C77.7951 56.0733 77.7979 56.1042 77.8094 56.1323C77.8208 56.1605 77.8404 56.1846 77.8656 56.2015C77.8908 56.2185 77.9205 56.2275 77.9509 56.2275C77.9878 56.2233 78.0219 56.2058 78.0468 56.1783C78.0718 56.1509 78.0858 56.1152 78.0864 56.0781H78.1038ZM78.5521 56.0781C78.5521 56.0385 78.5363 56.0005 78.5083 55.9725C78.4803 55.9444 78.4423 55.9287 78.4027 55.9287C78.363 55.9287 78.325 55.9444 78.297 55.9725C78.269 56.0005 78.2532 56.0385 78.2532 56.0781C78.2532 56.1178 78.269 56.1558 78.297 56.1838C78.325 56.2118 78.363 56.2275 78.4027 56.2275C78.4423 56.2275 78.4803 56.2118 78.5083 56.1838C78.5363 56.1558 78.5521 56.1178 78.5521 56.0781ZM79.0003 56.0781C79.0003 56.0385 78.9846 56.0005 78.9565 55.9725C78.9285 55.9444 78.8905 55.9287 78.8509 55.9287C78.8113 55.9287 78.7733 55.9444 78.7452 55.9725C78.7172 56.0005 78.7015 56.0385 78.7015 56.0781C78.7015 56.1178 78.7172 56.1558 78.7452 56.1838C78.7733 56.2118 78.8113 56.2275 78.8509 56.2275C78.8874 56.2233 78.9211 56.2057 78.9455 56.1781C78.9699 56.1505 78.9832 56.1149 78.9829 56.0781H79.0003ZM79.4485 56.0781C79.4485 56.0385 79.4328 56.0005 79.4048 55.9725C79.3768 55.9444 79.3388 55.9287 79.2991 55.9287C79.2595 55.9287 79.2215 55.9444 79.1935 55.9725C79.1655 56.0005 79.1497 56.0385 79.1497 56.0781C79.1497 56.1178 79.1655 56.1558 79.1935 56.1838C79.2215 56.2118 79.2595 56.2275 79.2991 56.2275C79.3357 56.2233 79.3694 56.2057 79.3937 56.1781C79.4181 56.1505 79.4314 56.1149 79.4312 56.0781H79.4485ZM79.8968 56.0781C79.8968 56.0486 79.888 56.0197 79.8716 55.9951C79.8552 55.9705 79.8319 55.9514 79.8046 55.9401C79.7773 55.9288 79.7472 55.9258 79.7182 55.9316C79.6892 55.9373 79.6626 55.9516 79.6417 55.9725C79.6208 55.9934 79.6066 56.02 79.6008 56.049C79.5951 56.078 79.598 56.108 79.6093 56.1353C79.6206 56.1626 79.6398 56.1859 79.6644 56.2024C79.6889 56.2188 79.7178 56.2275 79.7474 56.2275C79.7839 56.2233 79.8176 56.2057 79.842 56.1781C79.8663 56.1505 79.8797 56.1149 79.8794 56.0781H79.8968ZM77.6521 57.3117C77.6521 57.272 77.6364 57.234 77.6083 57.206C77.5803 57.178 77.5423 57.1623 77.5027 57.1623C77.4631 57.1623 77.4251 57.178 77.397 57.206C77.369 57.234 77.3533 57.272 77.3533 57.3117C77.3542 57.351 77.3702 57.3885 77.398 57.4163C77.4258 57.4442 77.4633 57.4602 77.5027 57.4611C77.5392 57.4568 77.5729 57.4392 77.5973 57.4116C77.6216 57.384 77.635 57.3485 77.6347 57.3117H77.6521ZM78.1038 57.3117C78.0983 57.2755 78.0801 57.2425 78.0523 57.2187C78.0246 57.1949 77.9892 57.1818 77.9527 57.1818C77.9161 57.1818 77.8807 57.1949 77.853 57.2187C77.8253 57.2425 77.807 57.2755 77.8015 57.3117C77.807 57.3478 77.8253 57.3808 77.853 57.4046C77.8807 57.4285 77.9161 57.4416 77.9527 57.4416C77.9892 57.4416 78.0246 57.4285 78.0523 57.4046C78.0801 57.3808 78.0983 57.3478 78.1038 57.3117ZM78.5521 57.3117C78.5521 57.292 78.5482 57.2726 78.5407 57.2545C78.5332 57.2364 78.5222 57.2199 78.5083 57.206C78.4944 57.1921 78.478 57.1811 78.4598 57.1736C78.4417 57.1661 78.4223 57.1623 78.4027 57.1623C78.363 57.1623 78.325 57.178 78.297 57.206C78.269 57.234 78.2532 57.272 78.2532 57.3117C78.2532 57.3313 78.2571 57.3507 78.2646 57.3688C78.2721 57.387 78.2831 57.4034 78.297 57.4173C78.3109 57.4312 78.3273 57.4422 78.3455 57.4497C78.3636 57.4572 78.383 57.4611 78.4027 57.4611C78.442 57.4602 78.4795 57.4442 78.5073 57.4163C78.5352 57.3885 78.5512 57.351 78.5521 57.3117ZM79.0003 57.3117C79.0003 57.272 78.9846 57.234 78.9565 57.206C78.9285 57.178 78.8905 57.1623 78.8509 57.1623C78.8113 57.1623 78.7733 57.178 78.7452 57.206C78.7172 57.234 78.7015 57.272 78.7015 57.3117C78.7015 57.3313 78.7053 57.3507 78.7129 57.3688C78.7204 57.387 78.7314 57.4034 78.7452 57.4173C78.7591 57.4312 78.7756 57.4422 78.7937 57.4497C78.8118 57.4572 78.8313 57.4611 78.8509 57.4611C78.8871 57.4561 78.9204 57.4383 78.9446 57.4109C78.9688 57.3834 78.9824 57.3482 78.9829 57.3117H79.0003ZM79.4485 57.3117C79.4485 57.272 79.4328 57.234 79.4048 57.206C79.3768 57.178 79.3388 57.1623 79.2991 57.1623C79.2595 57.1623 79.2215 57.178 79.1935 57.206C79.1655 57.234 79.1497 57.272 79.1497 57.3117C79.1497 57.3313 79.1536 57.3507 79.1611 57.3688C79.1686 57.387 79.1796 57.4034 79.1935 57.4173C79.2074 57.4312 79.2238 57.4422 79.242 57.4497C79.2601 57.4572 79.2795 57.4611 79.2991 57.4611C79.3354 57.4561 79.3686 57.4383 79.3929 57.4109C79.4171 57.3834 79.4307 57.3482 79.4312 57.3117H79.4485ZM79.8968 57.3117C79.8968 57.272 79.8811 57.234 79.853 57.206C79.825 57.178 79.787 57.1623 79.7474 57.1623C79.7078 57.1623 79.6698 57.178 79.6417 57.206C79.6137 57.234 79.598 57.272 79.598 57.3117C79.598 57.3513 79.6137 57.3893 79.6417 57.4173C79.6698 57.4453 79.7078 57.4611 79.7474 57.4611C79.787 57.4611 79.825 57.4453 79.853 57.4173C79.8811 57.3893 79.8968 57.3513 79.8968 57.3117Z" fill="#263238" fill-opacity="0.4"/>
  <path d="M55.5247 56.8214C55.5247 56.8214 53.346 51.7344 51.4349 51.7344C49.5238 51.7344 49.6176 56.0049 50.799 58.2774C51.9804 60.5498 54.5274 61.4568 55.2536 60.0947" fill="white" fill-opacity="0.4"/>
  <mask id="mask5_5565_24012" style="mask-type:luminance" maskUnits="userSpaceOnUse" x="49" y="51" width="7" height="10">
  <path d="M55.5247 56.8224C55.5247 56.8224 53.346 51.7354 51.4349 51.7354C49.5238 51.7354 49.6176 56.0058 50.799 58.2783C51.9804 60.5508 54.5274 61.4577 55.2536 60.0956" fill="white"/>
  </mask>
  <g mask="url(#mask5_5565_24012)">
  <path d="M55.5247 56.8224C55.5247 56.8224 53.346 51.7354 51.4349 51.7354C49.5238 51.7354 49.6176 56.0058 50.799 58.2783C51.9804 60.5508 54.5274 61.4577 55.2536 60.0956" fill="#6C27FF" fill-opacity="0.4"/>
  <path opacity="0.5" d="M55.5247 56.8224C55.5247 56.8224 53.346 51.7354 51.4349 51.7354C49.5238 51.7354 49.6176 56.0058 50.799 58.2783C51.9804 60.5508 54.5274 61.4577 55.2536 60.0956" fill="white" fill-opacity="0.4"/>
  </g>
  <path d="M135.619 69.2808H88.1043L79.9902 101.898H127.509L135.619 69.2808Z" fill="#263238" fill-opacity="0.4"/>
  <path d="M127.011 101.898H56.1504V104.217H127.011V101.898Z" fill="#263238" fill-opacity="0.4"/>
  <path d="M127.509 101.898H79.9902V104.217H127.509V101.898Z" fill="#6C27FF" fill-opacity="0.4"/>
  <path d="M136.148 69.2808H88.6292L80.5151 101.898H128.034L136.148 69.2808Z" fill="#6C27FF" fill-opacity="0.4"/>
  <path d="M153.822 103.702H0V106.002H153.822V103.702Z" fill="white" fill-opacity="0.4"/>
</svg>
