<svg width="132" height="220" viewBox="0 0 132 220" fill="none" xmlns="http://www.w3.org/2000/svg">
<path d="M-86 170.5C-34.6667 151.333 67.9 78.6 67.5 -59" stroke="#EEEEEE" stroke-width="0.5"/>
<path d="M-22.5 219.5C28.8333 200.333 131.4 127.6 131 -10" stroke="#EEEEEE" stroke-width="0.5"/>
<path d="M-63.5 185.5C-12.1667 166.333 90.4 93.6 90 -44" stroke="#EEEEEE" stroke-width="0.5"/>
<path d="M-43.5 202.5C7.83333 183.333 110.4 110.6 110 -27" stroke="#EEEEEE" stroke-width="0.5"/>
<path d="M70.4396 45.6207C72.0073 44.7923 73.4376 44.2986 74.5907 44.2192C74.6442 44.2199 74.6954 44.2495 74.7215 44.2943L74.723 44.2959C75.3471 45.352 75.7888 46.8502 76.0354 48.6345C76.2814 50.4153 76.3311 52.4652 76.1818 54.6132C75.9017 58.6436 74.9234 62.9976 73.2537 66.5466L72.9108 67.2454C72.2472 68.5486 71.4762 69.8016 70.5967 70.9709L70.5104 71.0856L70.5658 71.2165C71.2568 72.8788 71.6669 74.6065 71.5086 76.2379C71.2802 78.5433 70.1052 80.3674 68.7358 81.7427C67.3656 83.1187 65.8118 84.0337 64.8573 84.518L64.8477 84.5231L64.8393 84.5288C64.8187 84.5416 64.7822 84.5557 64.7264 84.5669L64.7223 84.5672L64.6184 84.5788C64.3778 84.5802 64.1546 84.4089 64.1038 84.1577L64.1044 84.1565L62.6847 77.2208L62.6294 76.9524L62.3664 77.0312C61.8687 77.1817 61.3714 77.3077 60.8666 77.4104L60.8617 77.4109C60.57 77.4759 60.2505 77.4299 59.9769 77.2873L59.9766 77.2864L56.5703 75.5185C56.2969 75.3759 56.0735 75.1392 55.9558 74.8597L55.9534 74.8553C55.743 74.3799 55.5532 73.8891 55.3852 73.3914L55.2967 73.1316L55.0454 73.2436L48.631 76.1033C48.5965 76.1187 48.5559 76.1282 48.4866 76.1422C48.2006 76.1802 47.9379 75.9791 47.8975 75.6936L47.8972 75.6927C47.7401 74.6213 47.5795 72.81 47.8939 70.882C48.1885 69.0752 48.8974 67.1811 50.4032 65.6909L50.7146 65.3988C51.9347 64.3222 53.5698 63.6552 55.3178 63.2647L55.4587 63.234L55.5014 63.0954C55.9347 61.6984 56.4883 60.3386 57.159 59.034L57.1599 59.0337C59.0289 55.3636 62.2104 51.732 65.5283 48.9777C67.1861 47.6016 68.8729 46.4486 70.4396 45.6207ZM69.0019 55.3431C66.9828 54.2911 64.5136 55.0778 63.4896 57.1021C62.4599 59.1251 63.2569 61.61 65.2714 62.6542L65.2717 62.6552C67.2845 63.7108 69.7505 62.9134 70.7765 60.8986L70.7753 60.8979C71.7761 58.9441 71.0591 56.5515 69.1867 55.4461L69.0019 55.3431Z" fill="#FAFAFA" stroke="#EEEEEE" stroke-width="0.5"/>
<path d="M54.586 94.5397C54.1919 95.3298 53.6485 95.9473 52.9566 96.3974C52.2647 96.8476 51.4876 97.0909 50.6195 97.1252L50.613 97.1252C50.2337 97.1493 49.8566 97.1254 49.4805 97.0569L50.6913 94.6292C51.0195 94.5959 51.3221 94.4789 51.5945 94.2798L51.595 94.2789C51.9463 94.0405 52.2257 93.7057 52.436 93.284C52.7461 92.6622 52.8462 92.0062 52.7337 91.3241C52.6333 90.6883 52.3893 89.9205 52.0112 89.0246L51.9293 88.8299L51.7241 88.8781C50.8061 89.0954 50.0439 89.3637 49.4456 89.6875C48.8296 90.0209 48.3658 90.4937 48.0621 91.1026C47.7451 91.7383 47.6733 92.3596 47.8827 92.9479L47.8841 92.9475C47.9254 93.0708 47.9764 93.1893 48.039 93.302L46.8177 95.7506C46.2011 95.2078 45.7611 94.5504 45.4955 93.774C45.0773 92.5516 45.1648 91.3453 45.7657 90.1405C46.2129 89.2441 46.8453 88.5746 47.663 88.1218C48.4966 87.6707 49.5223 87.307 50.7453 87.0356L51.047 86.969L50.9188 86.6878C50.3999 85.5476 50.0732 84.5094 49.9321 83.5723C49.7951 82.6621 49.9485 81.7543 50.4033 80.8423C51.0035 79.6387 51.9207 78.8462 53.1636 78.4519C54.406 78.0578 55.6562 78.1716 56.9269 78.8054C58.2294 79.4551 59.0768 80.3893 59.4937 81.6079C59.9119 82.8303 59.8244 84.0366 59.2235 85.2414C58.776 86.1386 58.1469 86.8007 57.3367 87.2391L57.3349 87.2404C56.4949 87.705 55.4661 88.075 54.244 88.3463L53.9422 88.413L54.0705 88.6941C54.5894 89.8342 54.9173 90.8721 55.0584 91.8092C55.1888 92.7349 55.0331 93.6431 54.586 94.5397ZM56.9062 84.3213C57.23 83.6719 57.3 83.0348 57.0847 82.4275C56.8845 81.8272 56.4472 81.3698 55.8072 81.0504C55.1666 80.7309 54.5325 80.6539 53.9203 80.8449L53.9155 80.8457C53.3147 81.0472 52.8558 81.4914 52.5323 82.1398C52.2666 82.6726 52.1579 83.2406 52.2047 83.8382L52.2342 84.0963L52.2351 84.1011C52.3518 84.7783 52.5984 85.5399 52.9689 86.3823L53.0516 86.5708L53.2521 86.5257C54.1653 86.3221 54.9291 86.053 55.5362 85.7137C56.1494 85.3811 56.6094 84.9164 56.9062 84.3213Z" fill="#FAFAFA" stroke="#EEEEEE" stroke-width="0.5"/>
</svg>
