<svg width="289" height="216" viewBox="0 0 289 216" fill="none" xmlns="http://www.w3.org/2000/svg">
  <path d="M89.9938 176.148C106.482 176.148 122.97 176.148 139.458 176.148C155.892 176.148 172.326 176.148 188.742 176.148C198.03 176.148 207.336 176.148 216.624 176.148C216.966 176.148 216.966 175.608 216.624 175.608C200.136 175.608 183.648 175.608 167.16 175.608C150.726 175.608 134.292 175.608 117.876 175.608C108.588 175.608 99.2818 175.608 89.9938 175.608C89.6518 175.608 89.6518 176.148 89.9938 176.148Z" fill="#E8E8E8"/>
  <path d="M219.952 164.952C219.808 170.136 220.33 175.32 221.518 180.378C221.59 180.72 222.112 180.576 222.04 180.234C220.87 175.23 220.348 170.1 220.51 164.952C220.492 164.61 219.952 164.61 219.952 164.952Z" fill="#E8E8E8"/>
  <path d="M241.393 165.365C241.897 170.153 241.591 174.995 240.493 179.675C240.421 180.017 240.925 180.161 241.015 179.819C242.131 175.085 242.455 170.207 241.933 165.365C241.897 165.023 241.357 165.023 241.393 165.365Z" fill="#E8E8E8"/>
  <path d="M221.737 180.881C227.965 182.465 234.553 182.249 240.655 180.233C240.979 180.125 240.835 179.603 240.511 179.711C234.481 181.691 228.019 181.925 221.881 180.359C221.539 180.287 221.395 180.809 221.737 180.881Z" fill="#E8E8E8"/>
  <path d="M220.204 165.204C227.206 166.698 234.46 166.662 241.444 165.114C241.786 165.042 241.642 164.52 241.3 164.592C234.406 166.122 227.242 166.14 220.348 164.682C220.006 164.61 219.862 165.132 220.204 165.204Z" fill="#E8E8E8"/>
  <path d="M224.471 165.402C223.535 163.296 224.381 160.722 225.083 158.652C225.803 156.51 226.829 154.476 228.089 152.604C227.945 152.622 227.801 152.64 227.657 152.658C228.071 153.126 228.521 153.45 229.079 153.72C229.295 153.81 229.529 153.666 229.475 153.414C229.259 152.442 228.881 151.488 229.313 150.516C229.619 149.832 230.051 149.148 230.411 148.5C230.285 148.536 230.159 148.572 230.033 148.59C230.411 148.824 230.789 149.04 231.167 149.274C231.419 149.436 231.635 149.13 231.545 148.896C231.167 148.068 230.915 147.24 231.437 146.412C231.743 145.908 232.139 145.458 232.481 144.99C233.237 143.982 234.029 142.974 234.821 141.984C236.333 140.094 237.899 138.258 239.519 136.458C239.375 136.44 239.231 136.422 239.087 136.404C241.391 139.428 242.849 143.046 243.245 146.826C243.443 148.644 243.389 150.516 243.065 152.316C242.903 153.234 242.669 154.134 242.381 155.016C242.327 155.196 242.255 155.376 242.201 155.538C242.003 156.042 241.679 156.258 241.157 156.366C240.797 156.438 240.599 156.384 240.293 156.618C240.149 156.726 240.113 156.906 240.239 157.05C240.635 157.464 240.797 157.536 240.653 158.094C240.563 158.454 240.347 158.832 240.185 159.192C239.861 159.912 239.501 160.614 239.123 161.298C238.349 162.702 237.467 164.034 236.477 165.294C236.261 165.564 236.639 165.942 236.855 165.672C238.763 163.224 240.275 160.542 241.409 157.662C241.445 157.572 241.409 157.464 241.337 157.392C241.103 157.158 240.869 156.906 240.617 156.672C240.599 156.816 240.581 156.96 240.563 157.104C240.977 156.816 241.445 157.014 241.877 156.834C242.219 156.708 242.399 156.456 242.543 156.132C242.939 155.286 243.191 154.314 243.407 153.414C243.857 151.434 244.001 149.4 243.857 147.384C243.551 143.316 242.057 139.374 239.573 136.134C239.483 136.008 239.285 135.936 239.141 136.08C237.143 138.294 235.217 140.58 233.381 142.92C232.553 143.964 231.671 145.008 230.951 146.142C230.303 147.168 230.609 148.14 231.059 149.184C231.185 149.058 231.311 148.932 231.437 148.806C231.059 148.572 230.681 148.356 230.303 148.122C230.177 148.05 229.997 148.086 229.925 148.212C229.475 149.04 228.773 149.958 228.521 150.876C228.305 151.686 228.755 152.748 228.935 153.54C229.061 153.432 229.205 153.342 229.331 153.234C228.809 153 228.395 152.694 228.017 152.262C227.891 152.118 227.675 152.172 227.585 152.316C226.181 154.404 225.083 156.69 224.327 159.102C223.679 161.19 223.049 163.566 223.967 165.654C224.147 165.978 224.615 165.708 224.471 165.402Z" fill="#E8E8E8"/>
  <path d="M239.124 140.544C238.404 148.698 232.824 155.232 230.502 162.9C230.394 163.242 230.916 163.368 231.024 163.044C233.346 155.322 238.944 148.77 239.664 140.544C239.7 140.184 239.142 140.202 239.124 140.544Z" fill="#E8E8E8"/>
  <path d="M232.32 144.882C232.896 147.852 233.562 150.786 234.318 153.702C234.408 154.044 234.93 153.9 234.84 153.558C234.084 150.642 233.418 147.69 232.842 144.738C232.788 144.396 232.266 144.54 232.32 144.882Z" fill="#E8E8E8"/>
  <path d="M238.403 146.79C239.969 145.656 241.319 144.306 242.489 142.74C242.705 142.47 242.237 142.2 242.021 142.47C240.923 143.946 239.627 145.242 238.133 146.322C237.863 146.538 238.133 147.006 238.403 146.79Z" fill="#E8E8E8"/>
  <path d="M236.729 139.085C237.215 140.633 237.503 142.523 238.691 143.693C238.943 143.945 239.321 143.549 239.069 143.315C237.971 142.217 237.683 140.363 237.233 138.941C237.143 138.617 236.621 138.761 236.729 139.085Z" fill="#E8E8E8"/>
  <path d="M223.391 165.258C222.293 164.394 221.627 163.188 221.069 161.928C220.439 160.452 219.899 158.94 219.413 157.41C218.495 154.476 217.829 151.452 217.433 148.41C216.623 142.038 217.271 135.594 216.497 129.204C216.335 129.258 216.155 129.294 215.993 129.348C218.009 133.884 222.725 136.602 226.649 139.302C226.613 139.176 226.577 139.05 226.559 138.924C226.019 139.698 225.479 140.472 224.939 141.246C224.813 141.426 224.975 141.66 225.173 141.66C225.875 141.66 226.487 141.57 227.153 141.336C227.045 141.3 226.955 141.246 226.847 141.21C227.513 142.236 228.179 143.262 228.845 144.288C228.863 144.18 228.881 144.072 228.881 143.964C228.557 144.27 228.287 144.612 228.017 144.99C227.927 145.116 228.017 145.368 228.179 145.386C229.655 145.602 230.177 147.006 230.555 148.266C230.663 148.59 231.185 148.464 231.077 148.122C230.627 146.7 229.979 145.098 228.323 144.864C228.377 144.99 228.431 145.134 228.485 145.26C228.719 144.9 228.953 144.648 229.259 144.36C229.349 144.288 229.367 144.126 229.295 144.036C228.629 143.01 227.963 141.984 227.297 140.958C227.243 140.868 227.117 140.796 226.991 140.832C226.379 141.03 225.785 141.138 225.155 141.12C225.227 141.264 225.317 141.39 225.389 141.534C225.929 140.76 226.469 139.986 227.009 139.212C227.099 139.086 227.027 138.924 226.919 138.834C223.067 136.188 218.441 133.542 216.461 129.078C216.353 128.844 215.921 128.952 215.957 129.222C216.749 135.846 216.047 142.542 216.983 149.148C217.433 152.334 218.171 155.466 219.197 158.508C220.025 160.974 220.889 163.98 222.995 165.654C223.283 165.852 223.661 165.474 223.391 165.258Z" fill="#E8E8E8"/>
  <path d="M216.102 129.744C217.56 133.776 218.784 138.024 220.746 141.858C221.718 143.748 222.78 145.602 223.698 147.528C224.688 149.616 225.57 151.74 226.47 153.846C226.596 154.17 227.064 153.882 226.938 153.576C226.092 151.56 225.228 149.544 224.31 147.564C223.41 145.62 222.366 143.766 221.358 141.876C219.342 138.024 218.1 133.704 216.606 129.618C216.498 129.276 215.976 129.42 216.102 129.744Z" fill="#E8E8E8"/>
  <path d="M216.785 143.424C218.729 143.658 220.853 143.766 222.329 145.224C222.581 145.476 222.959 145.08 222.707 144.846C221.123 143.298 218.873 143.154 216.785 142.902C216.443 142.848 216.443 143.388 216.785 143.424Z" fill="#E8E8E8"/>
  <path d="M221.987 136.134C221.663 137.304 221.447 138.51 221.357 139.734C221.285 140.778 221.159 142.002 221.519 143.01C221.627 143.334 222.149 143.19 222.041 142.866C221.699 141.912 221.825 140.724 221.897 139.716C221.987 138.546 222.203 137.394 222.509 136.26C222.599 135.936 222.077 135.792 221.987 136.134Z" fill="#E8E8E8"/>
  <path d="M218.008 153.234C219.412 153.27 220.762 153.288 222.13 153.666C223.48 154.044 224.812 154.44 226.162 154.836C226.504 154.926 226.648 154.404 226.306 154.314C224.866 153.9 223.444 153.45 221.986 153.072C220.672 152.73 219.358 152.748 218.008 152.712C217.666 152.676 217.666 153.216 218.008 153.234Z" fill="#E8E8E8"/>
  <path d="M237.7 164.753C238.906 164.591 240.094 164.591 241.3 164.753C241.246 164.627 241.192 164.483 241.138 164.357C241.03 164.519 239.95 164.537 239.734 164.555C239.248 164.627 238.744 164.699 238.258 164.807C238.186 164.825 237.7 164.879 237.682 164.933C237.718 164.843 238.438 164.861 238.546 164.861C239.068 164.861 239.59 164.915 240.112 164.951C240.112 164.771 240.112 164.591 240.112 164.411C239.662 164.393 239.266 164.447 238.816 164.573C238.528 164.645 238.582 165.095 238.888 165.095C239.59 165.095 240.22 164.951 240.904 164.771C241.246 164.681 241.102 164.159 240.76 164.249C240.148 164.411 239.536 164.555 238.888 164.555C238.906 164.735 238.942 164.915 238.96 165.077C239.338 164.969 239.716 164.933 240.112 164.933C240.454 164.933 240.454 164.411 240.112 164.393C239.32 164.357 238.168 164.069 237.448 164.519C237.16 164.699 236.746 165.167 237.124 165.455C237.286 165.581 237.466 165.509 237.664 165.491C238.204 165.383 238.726 165.257 239.266 165.167C239.896 165.059 241.156 165.221 241.588 164.627C241.678 164.501 241.588 164.249 241.426 164.231C240.166 164.051 238.942 164.051 237.682 164.213C237.358 164.249 237.358 164.789 237.7 164.753Z" fill="#E8E8E8"/>
  <path d="M220.44 165.095C220.692 165.023 220.944 164.969 221.196 164.951C221.322 164.951 221.43 164.933 221.556 164.951C221.61 164.951 221.862 164.933 221.88 164.951C221.862 164.861 221.826 164.771 221.808 164.681C221.808 164.699 221.79 164.717 221.79 164.717C221.898 164.663 222.006 164.591 222.114 164.537C222.096 164.537 222.078 164.537 222.078 164.537C222.132 164.591 222.204 164.663 222.258 164.717C222.258 164.699 222.258 164.681 222.24 164.681C222.15 164.339 221.646 164.483 221.718 164.825C221.718 164.843 221.718 164.861 221.736 164.861C221.754 164.951 221.844 165.023 221.916 165.041C221.934 165.041 221.952 165.041 221.952 165.041C222.096 165.077 222.222 165.005 222.276 164.861C222.276 164.843 222.294 164.825 222.294 164.825C222.33 164.735 222.294 164.627 222.222 164.555C222.024 164.357 221.592 164.393 221.34 164.393C220.98 164.393 220.602 164.465 220.26 164.555C219.972 164.663 220.116 165.185 220.44 165.095Z" fill="#E8E8E8"/>
  <path d="M220.854 168.714C227.424 169.848 234.246 170.388 240.726 168.444C241.05 168.336 240.924 167.832 240.582 167.922C234.21 169.83 227.478 169.308 220.998 168.192C220.656 168.138 220.512 168.66 220.854 168.714Z" fill="#E8E8E8"/>
  <path d="M243.478 176.112C255.016 176.112 266.572 176.112 278.11 176.112C278.452 176.112 278.452 175.572 278.11 175.572C266.572 175.572 255.016 175.572 243.478 175.572C243.118 175.572 243.118 176.112 243.478 176.112Z" fill="#E8E8E8"/>
  <path d="M234.75 187.686C245.622 187.686 256.512 187.686 267.384 187.686C267.726 187.686 267.726 187.146 267.384 187.146C256.512 187.146 245.622 187.146 234.75 187.146C234.408 187.146 234.408 187.686 234.75 187.686Z" fill="#E8E8E8"/>
  <path d="M239.699 187.632C238.403 188.712 237.107 189.774 235.829 190.854C235.559 191.07 235.937 191.448 236.207 191.232C237.503 190.152 238.799 189.09 240.077 188.01C240.347 187.794 239.951 187.398 239.699 187.632Z" fill="#E8E8E8"/>
  <path d="M235.992 191.43C236.334 191.43 236.334 190.89 235.992 190.89C235.65 190.89 235.65 191.43 235.992 191.43Z" fill="#E8E8E8"/>
  <path d="M241.48 190.89C230.518 190.89 219.556 190.89 208.594 190.89C208.252 190.89 208.252 191.43 208.594 191.43C219.556 191.43 230.518 191.43 241.48 191.43C241.822 191.43 241.822 190.89 241.48 190.89Z" fill="#E8E8E8"/>
  <path d="M208.541 196.47C210.485 194.85 212.483 193.302 214.535 191.808C214.805 191.61 214.553 191.142 214.265 191.34C212.177 192.852 210.143 194.436 208.163 196.074C207.893 196.308 208.271 196.686 208.541 196.47Z" fill="#E8E8E8"/>
  <path d="M44.6676 186.642C57.3756 186.642 70.0836 186.642 82.7916 186.642C86.3916 186.642 89.9916 186.642 93.5916 186.642C93.9336 186.642 93.9336 186.102 93.5916 186.102C80.8836 186.102 68.1756 186.102 55.4676 186.102C51.8676 186.102 48.2676 186.102 44.6676 186.102C44.3256 186.102 44.3256 186.642 44.6676 186.642Z" fill="#E8E8E8"/>
  <path d="M51.3113 191.339C53.0213 189.881 54.7493 188.423 56.4593 186.965C56.7293 186.731 56.3333 186.353 56.0813 186.587C54.3713 188.045 52.6433 189.503 50.9333 190.961C50.6633 191.177 51.0593 191.573 51.3113 191.339Z" fill="#E8E8E8"/>
  <path d="M45.1188 191.862C56.9268 191.862 68.7348 191.862 80.5428 191.862C80.8848 191.862 80.8848 191.322 80.5428 191.322C68.7348 191.322 56.9268 191.322 45.1188 191.322C44.7768 191.322 44.7768 191.862 45.1188 191.862Z" fill="#E8E8E8"/>
  <path d="M76.4207 191.754C75.0707 193.266 73.6847 194.742 72.2807 196.218C72.0467 196.47 72.4247 196.848 72.6587 196.596C74.0627 195.12 75.4307 193.644 76.7987 192.132C77.0507 191.88 76.6547 191.502 76.4207 191.754Z" fill="#E8E8E8"/>
  <path d="M67.2047 197.082C77.5907 197.082 87.9587 197.082 98.3447 197.082C98.6867 197.082 98.6867 196.542 98.3447 196.542C87.9587 196.542 77.5907 196.542 67.2047 196.542C66.8627 196.542 66.8627 197.082 67.2047 197.082Z" fill="#E8E8E8"/>
  <path d="M59.8424 177.588C64.2344 177.588 68.6264 177.588 73.0364 177.588C73.3784 177.588 73.3784 177.048 73.0364 177.048C68.6444 177.048 64.2524 177.048 59.8424 177.048C59.5004 177.048 59.5004 177.588 59.8424 177.588Z" fill="#E8E8E8"/>
  <path d="M76.3667 179.352C77.7167 179.352 79.0847 179.352 80.4347 179.352C80.7767 179.352 80.7767 178.812 80.4347 178.812C79.0847 178.812 77.7167 178.812 76.3667 178.812C76.0067 178.812 76.0067 179.352 76.3667 179.352Z" fill="#E8E8E8"/>
  <path d="M66.5918 83.1056C66.5918 86.0396 66.5918 88.9916 66.5918 91.9256C66.5918 92.2676 67.1318 92.2676 67.1318 91.9256C67.1318 88.9916 67.1318 86.0396 67.1318 83.1056C67.1318 82.7636 66.5918 82.7636 66.5918 83.1056Z" fill="#E8E8E8"/>
  <path d="M57.5407 92.3576C64.7767 92.3576 72.0127 92.3576 79.2487 92.3576C79.5907 92.3576 79.5907 91.8176 79.2487 91.8176C72.0127 91.8176 64.7767 91.8176 57.5407 91.8176C57.1987 91.8176 57.1987 92.3576 57.5407 92.3576Z" fill="#E8E8E8"/>
  <path d="M72.6953 92.6096C72.6953 94.8776 72.6953 97.1276 72.6953 99.3956C72.6953 99.7376 73.2353 99.7376 73.2353 99.3956C73.2353 97.1276 73.2353 94.8776 73.2353 92.6096C73.2353 92.2496 72.6953 92.2496 72.6953 92.6096Z" fill="#E8E8E8"/>
  <path d="M66.7016 100.332C72.4616 100.332 78.2396 100.332 83.9996 100.332C84.3416 100.332 84.3416 99.7915 83.9996 99.7915C78.2396 99.7915 72.4616 99.7915 66.7016 99.7915C66.3416 99.7915 66.3416 100.332 66.7016 100.332Z" fill="#E8E8E8"/>
  <path d="M211.961 76.7878C211.961 77.5078 211.961 78.2097 211.961 78.9297C211.961 79.2717 212.501 79.2717 212.501 78.9297C212.501 78.2097 212.501 77.5078 212.501 76.7878C212.501 76.4457 211.961 76.4457 211.961 76.7878Z" fill="#E8E8E8"/>
  <path d="M212.393 77.2197C224.777 77.2197 237.161 77.2197 249.545 77.2197C249.887 77.2197 249.887 76.6797 249.545 76.6797C237.161 76.6797 224.777 76.6797 212.393 76.6797C212.051 76.6797 212.051 77.2197 212.393 77.2197Z" fill="#E8E8E8"/>
  <path d="M212.716 79.1999C224.992 79.1999 237.268 79.1999 249.526 79.1999C249.868 79.1999 249.868 78.6599 249.526 78.6599C237.25 78.6599 224.974 78.6599 212.716 78.6599C212.374 78.6599 212.374 79.1999 212.716 79.1999Z" fill="#E8E8E8"/>
  <path d="M249.456 76.7873C249.384 77.5253 249.42 78.2633 249.546 79.0013C249.6 79.3433 250.122 79.1993 250.068 78.8573C249.942 78.1733 249.924 77.4713 249.996 76.7873C250.032 76.4453 249.492 76.4453 249.456 76.7873Z" fill="#E8E8E8"/>
  <path d="M214.932 76.8057C214.932 71.7837 214.932 66.7617 214.932 61.7397C214.932 61.3977 214.392 61.3977 214.392 61.7397C214.392 66.7617 214.392 71.7837 214.392 76.8057C214.392 77.1657 214.932 77.1657 214.932 76.8057Z" fill="#E8E8E8"/>
  <path d="M214.931 61.8298C216.461 61.2178 218.081 61.3078 219.503 62.1538C219.809 62.3338 220.079 61.8658 219.773 61.6858C218.243 60.7858 216.425 60.6418 214.787 61.3078C214.463 61.4338 214.607 61.9558 214.931 61.8298Z" fill="#E8E8E8"/>
  <path d="M219.415 62.0277C219.415 66.8517 219.415 71.6937 219.415 76.5177C219.415 76.8597 219.955 76.8597 219.955 76.5177C219.955 71.6937 219.955 66.8517 219.955 62.0277C219.955 61.6857 219.415 61.6857 219.415 62.0277Z" fill="#E8E8E8"/>
  <path d="M220.025 66.0596C221.123 65.6096 222.275 65.6816 223.301 66.3116C223.607 66.4916 223.877 66.0236 223.571 65.8436C222.437 65.1596 221.105 65.0336 219.881 65.5376C219.557 65.6636 219.701 66.1856 220.025 66.0596Z" fill="#E8E8E8"/>
  <path d="M223.192 66.2936C223.192 69.6776 223.192 73.0436 223.192 76.4276C223.192 76.7696 223.732 76.7696 223.732 76.4276C223.732 73.0436 223.732 69.6776 223.732 66.2936C223.732 65.9516 223.192 65.9516 223.192 66.2936Z" fill="#E8E8E8"/>
  <path d="M215.002 65.9695C216.532 65.6275 218.044 65.7356 219.52 66.2576C219.844 66.3656 219.988 65.8436 219.664 65.7356C218.098 65.1776 216.478 65.1056 214.858 65.4476C214.534 65.5196 214.678 66.0415 215.002 65.9695Z" fill="#E8E8E8"/>
  <path d="M219.648 72.2153C220.8 71.9093 221.952 71.8733 223.122 72.1253C223.464 72.1973 223.608 71.6753 223.266 71.6033C222.006 71.3333 220.764 71.3513 219.504 71.6933C219.18 71.7833 219.306 72.3053 219.648 72.2153Z" fill="#E8E8E8"/>
  <path d="M229.997 76.6257C229.997 75.6177 229.997 74.6097 229.997 73.6017C229.997 73.2597 229.457 73.2597 229.457 73.6017C229.457 74.6097 229.457 75.6177 229.457 76.6257C229.457 76.9677 229.997 76.9677 229.997 76.6257Z" fill="#E8E8E8"/>
  <path d="M229.727 73.7636C235.577 73.7636 241.409 73.7636 247.259 73.7636C247.601 73.7636 247.601 73.2236 247.259 73.2236C241.409 73.2236 235.577 73.2236 229.727 73.2236C229.367 73.2236 229.367 73.7636 229.727 73.7636Z" fill="#E8E8E8"/>
  <path d="M247.44 74.0517C247.782 74.0517 247.782 73.5117 247.44 73.5117C247.08 73.5117 247.08 74.0517 247.44 74.0517Z" fill="#E8E8E8"/>
  <path d="M247.17 73.7819C247.17 74.6999 247.17 75.6179 247.17 76.5359C247.17 76.8779 247.71 76.8779 247.71 76.5359C247.71 75.6179 247.71 74.6999 247.71 73.7819C247.71 73.4399 247.17 73.4399 247.17 73.7819Z" fill="#E8E8E8"/>
  <path d="M233.399 73.4037C233.399 72.4497 233.399 71.5137 233.399 70.5597C233.399 70.2177 232.859 70.2177 232.859 70.5597C232.859 71.5137 232.859 72.4497 232.859 73.4037C232.859 73.7457 233.399 73.7457 233.399 73.4037Z" fill="#E8E8E8"/>
  <path d="M233.13 70.7397C238.872 70.7397 244.614 70.7397 250.374 70.7397C250.716 70.7397 250.716 70.1997 250.374 70.1997C244.632 70.1997 238.89 70.1997 233.13 70.1997C232.788 70.1997 232.788 70.7397 233.13 70.7397Z" fill="#E8E8E8"/>
  <path d="M250.192 70.4695C250.192 71.2615 250.192 72.0535 250.192 72.8455C250.192 73.1875 250.732 73.1875 250.732 72.8455C250.732 72.0535 250.732 71.2615 250.732 70.4695C250.732 70.1095 250.192 70.1095 250.192 70.4695Z" fill="#E8E8E8"/>
  <path d="M247.063 73.8542C248.107 73.8542 249.151 73.8542 250.195 73.8542C250.537 73.8542 250.537 73.3142 250.195 73.3142C249.151 73.3142 248.107 73.3142 247.063 73.3142C246.703 73.3142 246.703 73.8542 247.063 73.8542Z" fill="#E8E8E8"/>
  <path d="M250.157 72.8637C250.121 73.0617 250.121 73.2417 250.175 73.4217C250.211 73.5657 250.373 73.6557 250.499 73.6017C250.643 73.5657 250.733 73.4037 250.679 73.2777C250.661 73.1877 250.643 73.0797 250.661 73.0077C250.679 72.8637 250.625 72.7017 250.481 72.6837C250.355 72.6477 250.175 72.7197 250.157 72.8637Z" fill="#E8E8E8"/>
  <path d="M237.235 70.5959C237.469 71.5139 237.523 72.4499 237.397 73.4039C237.361 73.7459 237.901 73.7459 237.937 73.4039C238.063 72.4139 237.991 71.4239 237.757 70.4519C237.667 70.1279 237.145 70.2719 237.235 70.5959Z" fill="#E8E8E8"/>
  <path d="M241.3 73.7273C241.426 74.6273 241.354 75.5092 241.138 76.3732C241.048 76.7152 241.57 76.8593 241.66 76.5173C241.912 75.5453 241.966 74.5732 241.822 73.5832C241.786 73.2412 241.264 73.3853 241.3 73.7273Z" fill="#E8E8E8"/>
  <path d="M237.772 95.6338C237.772 97.0558 237.772 98.4598 237.772 99.8818C237.772 100.224 238.312 100.224 238.312 99.8818C238.312 98.4598 238.312 97.0558 238.312 95.6338C238.312 95.2738 237.772 95.2738 237.772 95.6338Z" fill="#E8E8E8"/>
  <path d="M233.596 99.9536C237.196 99.9536 240.796 99.9536 244.396 99.9536C244.738 99.9536 244.738 99.4136 244.396 99.4136C240.796 99.4136 237.196 99.4136 233.596 99.4136C233.254 99.4136 233.254 99.9536 233.596 99.9536Z" fill="#E8E8E8"/>
  <path d="M227.459 39.4018C227.459 42.6418 227.459 45.8998 227.459 49.1398C227.459 49.4818 227.999 49.4818 227.999 49.1398C227.999 45.8998 227.999 42.6418 227.999 39.4018C227.999 39.0598 227.459 39.0598 227.459 39.4018Z" fill="#E8E8E8"/>
  <path d="M228.143 39.3835C232.247 39.3835 236.333 39.3835 240.437 39.3835C240.779 39.3835 240.779 38.8435 240.437 38.8435C236.333 38.8435 232.247 38.8435 228.143 38.8435C227.801 38.8435 227.801 39.3835 228.143 39.3835Z" fill="#E8E8E8"/>
  <path d="M240.455 39.3122C240.455 42.4442 240.455 45.5762 240.455 48.6902C240.455 49.0322 240.995 49.0322 240.995 48.6902C240.995 45.5582 240.995 42.4262 240.995 39.3122C240.995 38.9702 240.455 38.9702 240.455 39.3122Z" fill="#E8E8E8"/>
  <path d="M227.659 49.4458C232.015 49.4458 236.371 49.4458 240.727 49.4458C241.069 49.4458 241.069 48.9058 240.727 48.9058C236.371 48.9058 232.015 48.9058 227.659 48.9058C227.317 48.9058 227.317 49.4458 227.659 49.4458Z" fill="#E8E8E8"/>
  <path d="M228.665 40.5177C228.665 42.9837 228.665 45.4317 228.665 47.8977C228.665 48.2397 229.205 48.2397 229.205 47.8977C229.205 45.4317 229.205 42.9837 229.205 40.5177C229.205 40.1757 228.665 40.1757 228.665 40.5177Z" fill="#E8E8E8"/>
  <path d="M229.061 40.7338C232.427 40.7338 235.811 40.7338 239.177 40.7338C239.519 40.7338 239.519 40.1938 239.177 40.1938C235.811 40.1938 232.427 40.1938 229.061 40.1938C228.719 40.1938 228.719 40.7338 229.061 40.7338Z" fill="#E8E8E8"/>
  <path d="M238.979 40.5177C238.979 42.8037 238.979 45.0717 238.979 47.3577C238.979 47.6997 239.519 47.6997 239.519 47.3577C239.519 45.0717 239.519 42.8037 239.519 40.5177C239.519 40.1757 238.979 40.1757 238.979 40.5177Z" fill="#E8E8E8"/>
  <path d="M229.061 48.1674C232.409 48.1674 235.757 48.1674 239.123 48.1674C239.465 48.1674 239.465 47.6274 239.123 47.6274C235.775 47.6274 232.427 47.6274 229.061 47.6274C228.719 47.6274 228.719 48.1674 229.061 48.1674Z" fill="#E8E8E8"/>
  <path d="M235.433 44.9278C234.011 43.8478 236.135 41.5978 237.125 42.9478C238.043 44.1718 236.549 45.6478 235.271 44.9638C234.965 44.8018 234.695 45.2698 235.001 45.4318C235.829 45.8818 236.927 45.7558 237.521 44.9818C238.133 44.2078 238.061 42.9838 237.287 42.3358C236.477 41.6698 235.325 42.1198 234.767 42.8758C234.173 43.7038 234.353 44.7838 235.163 45.3958C235.451 45.5938 235.703 45.1258 235.433 44.9278Z" fill="#E8E8E8"/>
  <path d="M233.722 47.5918C233.65 46.1698 235.396 45.6298 236.494 45.6298C237.844 45.6298 238.276 46.8358 238.834 47.8618C238.996 48.1678 239.464 47.8978 239.302 47.5918C238.924 46.9078 238.564 46.0078 237.934 45.5038C237.358 45.0538 236.638 45.0718 235.954 45.1438C234.694 45.2878 233.092 46.0618 233.182 47.5918C233.2 47.9338 233.74 47.9338 233.722 47.5918Z" fill="#E8E8E8"/>
  <path d="M229.295 46.2956C229.691 45.5576 231.149 45.8456 231.689 46.1336C232.247 46.4396 232.571 46.9436 232.715 47.5556C232.787 47.8976 233.309 47.7536 233.237 47.4116C233.021 46.4756 232.373 45.7376 231.437 45.4316C230.645 45.1796 229.295 45.1616 228.845 46.0076C228.665 46.3316 229.133 46.6016 229.295 46.2956Z" fill="#E8E8E8"/>
  <path d="M230.339 44.9635C229.745 44.9455 229.889 44.0635 230.141 43.7575C230.465 43.3615 231.113 43.3075 231.491 43.6855C231.797 43.9735 231.887 44.5135 231.635 44.8555C231.455 45.1075 231.185 45.1615 230.897 45.1615C230.789 45.1615 230.339 45.1795 230.267 45.0895C230.069 44.8015 229.601 45.0715 229.799 45.3595C230.015 45.6835 230.465 45.7015 230.825 45.7015C231.257 45.7195 231.671 45.6115 231.977 45.2875C232.553 44.6575 232.355 43.5955 231.671 43.1275C230.933 42.6415 229.907 42.9115 229.529 43.7035C229.205 44.4055 229.439 45.4675 230.339 45.4855C230.699 45.5215 230.699 44.9815 230.339 44.9635Z" fill="#E8E8E8"/>
  <path d="M120.181 87.2458C121.027 87.9298 122.071 87.6418 122.863 86.9758C123.979 86.0578 124.537 84.4918 124.753 83.1058C125.311 79.5778 123.889 76.2298 123.331 72.8098C122.323 66.4558 125.095 59.6518 130.243 55.8358C132.745 53.9638 136.867 51.9658 135.895 48.1318C135.805 47.7898 135.283 47.9338 135.373 48.2758C136.291 51.9298 132.043 53.7838 129.721 55.5478C127.633 57.1498 125.941 59.2198 124.735 61.5418C123.547 63.7918 122.827 66.2938 122.629 68.8318C122.395 71.9098 123.205 74.7718 123.871 77.7418C124.267 79.5418 124.519 81.4318 124.177 83.2678C124.015 84.1138 123.727 84.9418 123.277 85.6798C122.773 86.4718 121.567 87.6958 120.559 86.8858C120.307 86.6518 119.911 87.0298 120.181 87.2458Z" fill="#E8E8E8"/>
  <path d="M135.697 47.9161C133.663 48.0061 131.881 46.4221 131.989 44.3341C132.097 42.1561 134.671 40.1401 136.849 40.7161C138.793 41.2381 140.287 43.3801 139.801 45.3781C139.315 47.3761 137.065 47.8081 135.337 48.0961C134.995 48.1501 135.139 48.6721 135.481 48.6181C137.713 48.2581 140.305 47.4661 140.449 44.7661C140.557 42.5701 138.595 40.1941 136.345 40.1041C133.969 39.9961 131.575 41.9401 131.449 44.3521C131.341 46.7281 133.375 48.5641 135.697 48.4741C136.039 48.4381 136.039 47.8981 135.697 47.9161Z" fill="#E8E8E8"/>
  <path d="M133.033 46.5122C133.897 44.3342 138.505 43.9742 139.045 46.5662C139.117 46.9082 139.639 46.7642 139.567 46.4222C138.901 43.2542 133.555 43.7222 132.511 46.3682C132.385 46.6922 132.907 46.8182 133.033 46.5122Z" fill="#E8E8E8"/>
  <path d="M135.734 44.0816C135.356 43.8116 135.212 43.2896 135.464 42.8936C135.752 42.4076 136.364 42.3536 136.832 42.6056C137.192 42.8036 137.264 43.2536 137.048 43.5956C136.778 44.0096 136.202 44.0636 135.752 43.9556C135.41 43.8836 135.266 44.4056 135.608 44.4776C136.328 44.6396 137.192 44.4776 137.552 43.7756C137.876 43.1456 137.642 42.3896 136.994 42.0836C136.274 41.7596 135.41 41.9036 134.996 42.6056C134.582 43.2716 134.852 44.0996 135.464 44.5316C135.752 44.7656 136.022 44.2976 135.734 44.0816Z" fill="#E8E8E8"/>
  <path d="M143.366 38.538C145.256 33.534 150.692 30.978 155.75 30.636C159.098 30.402 162.446 30.924 165.722 31.554C168.818 32.166 172.04 33.138 175.208 33.03C177.818 32.94 180.5 31.86 181.724 29.43C181.886 29.124 181.418 28.854 181.256 29.16C179.834 31.968 176.558 32.688 173.66 32.454C170.276 32.184 166.946 31.176 163.616 30.618C158.216 29.718 152.456 29.592 147.65 32.634C145.472 34.02 143.744 35.964 142.826 38.394C142.718 38.718 143.24 38.862 143.366 38.538Z" fill="#E8E8E8"/>
  <path d="M183.9 29.1237C188.652 29.1237 193.422 29.1237 198.174 29.1237C198.516 29.1237 198.516 28.5837 198.174 28.5837C193.422 28.5837 188.652 28.5837 183.9 28.5837C183.54 28.5837 183.54 29.1237 183.9 29.1237Z" fill="#E8E8E8"/>
  <path d="M183.704 28.548C182.858 27.72 183.776 26.316 184.442 25.686C185.252 24.894 186.368 24.588 187.448 25.02C187.538 25.056 187.718 25.002 187.754 24.894C188.402 23.382 189.932 22.284 191.606 22.356C193.352 22.428 194.828 23.742 195.26 25.398C195.296 25.56 195.512 25.65 195.656 25.56C196.448 25.074 197.258 25.65 197.582 26.388C197.87 27.072 197.798 27.846 197.726 28.584C197.69 28.926 198.23 28.926 198.266 28.584C198.374 27.504 198.446 26.226 197.582 25.398C196.97 24.822 196.124 24.642 195.404 25.092C195.53 25.146 195.674 25.2 195.8 25.254C195.314 23.454 193.766 22.014 191.876 21.834C189.932 21.636 188.06 22.842 187.304 24.624C187.412 24.588 187.502 24.534 187.61 24.498C186.17 23.922 184.658 24.534 183.722 25.722C183.02 26.604 182.408 28.026 183.362 28.944C183.578 29.178 183.956 28.8 183.704 28.548Z" fill="#E8E8E8"/>
  <path d="M193.945 31.194C196.159 30.942 197.455 33.264 197.797 35.136C198.157 37.062 197.815 38.988 197.617 40.914C197.311 43.812 197.509 47.304 200.263 48.996C200.551 49.176 200.839 48.708 200.533 48.528C196.771 46.224 198.337 41.094 198.481 37.566C198.589 34.884 197.527 30.258 193.945 30.654C193.603 30.69 193.603 31.23 193.945 31.194Z" fill="#E8E8E8"/>
  <path d="M203.251 45.9536C201.631 50.0396 200.029 54.1256 198.409 58.1936C198.283 58.5176 198.805 58.6616 198.931 58.3376C200.551 54.2516 202.153 50.1656 203.773 46.0976C203.899 45.7736 203.377 45.6476 203.251 45.9536Z" fill="#E8E8E8"/>
  <path d="M203.504 46.2958C206.312 46.1518 209.102 46.2238 211.892 46.5478C211.802 46.4398 211.712 46.3138 211.64 46.2058C210.308 50.4718 209.228 54.7918 208.364 59.1658C208.292 59.5078 208.814 59.6518 208.886 59.3098C209.75 54.9358 210.848 50.6158 212.162 46.3498C212.216 46.1698 212.072 46.0258 211.91 46.0078C209.12 45.6838 206.33 45.6118 203.522 45.7558C203.162 45.7738 203.162 46.3138 203.504 46.2958Z" fill="#E8E8E8"/>
  <path d="M198.535 58.7164C200.191 58.7884 201.829 58.8784 203.485 58.9864C205.087 59.0764 206.797 59.0404 208.309 59.6524C208.633 59.7784 208.777 59.2564 208.453 59.1304C207.013 58.5364 205.375 58.5724 203.845 58.4824C202.081 58.3744 200.317 58.2843 198.535 58.1943C198.193 58.1583 198.193 58.6984 198.535 58.7164Z" fill="#E8E8E8"/>
  <path d="M203.755 48.0961C205.483 48.1321 207.211 48.2581 208.921 48.4921C209.263 48.5461 209.407 48.0241 209.065 47.9701C207.301 47.7181 205.537 47.5741 203.755 47.5381C203.395 47.5381 203.395 48.0781 203.755 48.0961Z" fill="#E8E8E8"/>
  <path d="M203.234 49.3198C204.206 49.2838 205.178 49.3018 206.15 49.3918C206.492 49.4278 206.492 48.8878 206.15 48.8518C205.178 48.7618 204.206 48.7258 203.234 48.7798C202.892 48.7978 202.892 49.3378 203.234 49.3198Z" fill="#E8E8E8"/>
  <path d="M202.045 51.7495C204.115 51.6235 206.077 51.4435 208.111 51.9475C208.453 52.0375 208.597 51.5155 208.255 51.4255C206.167 50.9215 204.169 51.0835 202.045 51.2095C201.685 51.2275 201.685 51.7675 202.045 51.7495Z" fill="#E8E8E8"/>
  <path d="M202.134 53.3342C203.322 53.2442 204.51 53.2442 205.698 53.3522C206.04 53.3882 206.04 52.8482 205.698 52.8122C204.51 52.7042 203.322 52.7042 202.134 52.7942C201.792 52.8302 201.774 53.3702 202.134 53.3342Z" fill="#E8E8E8"/>
  <path d="M201.2 55.4216C202.82 55.3136 204.404 55.3676 206.006 55.5836C206.348 55.6376 206.348 55.0976 206.006 55.0436C204.404 54.8276 202.802 54.7736 201.2 54.8816C200.858 54.8996 200.858 55.4396 201.2 55.4216Z" fill="#E8E8E8"/>
  <path d="M111.631 31.2659C112.351 32.2379 113.395 32.6339 114.457 33.1199C115.717 33.6959 116.869 34.4699 117.805 35.4959C119.929 37.7819 120.631 40.8599 120.685 43.9019C120.811 49.6079 118.885 55.5839 121.477 60.9839C121.621 61.2899 122.089 61.0199 121.945 60.7139C119.227 55.0259 121.639 48.6539 121.171 42.6779C120.973 40.0859 120.235 37.5479 118.561 35.5319C117.769 34.5779 116.797 33.7499 115.717 33.1379C114.511 32.4539 112.945 32.1479 112.099 30.9959C111.901 30.7259 111.433 30.9959 111.631 31.2659Z" fill="#E8E8E8"/>
  <path d="M105.476 23.652C105.008 23.058 105.044 22.644 105.584 22.41C105.818 22.284 106.052 22.194 106.322 22.14C106.664 22.068 107.042 22.05 107.402 22.068C108.482 22.122 109.58 22.41 109.526 23.724C109.472 25.272 109.184 26.802 108.806 28.296C108.41 29.826 107.924 31.32 107.402 32.814C107.294 33.138 107.204 33.516 107.042 33.822C106.718 34.38 106.214 34.362 105.674 34.362C105.008 34.362 104.162 34.452 103.514 34.272C102.794 34.074 102.632 33.354 103.334 32.886C103.658 32.67 104.108 32.634 104.486 32.634C104.972 32.634 105.404 32.742 105.818 32.418C106.61 31.806 106.736 30.15 106.916 29.268C107.186 27.99 107.636 26.424 107.546 25.128C107.474 24.138 106.502 24.102 105.8 23.688C105.494 23.508 105.224 23.976 105.53 24.156C106.088 24.48 106.898 24.516 107.006 25.254C107.132 26.118 106.772 27.288 106.61 28.152C106.448 28.98 106.268 29.808 106.052 30.618C105.89 31.23 105.818 31.968 105.008 32.13C104.684 32.202 104.288 32.094 103.946 32.148C103.082 32.274 102.236 32.886 102.362 33.858C102.524 35.082 103.982 34.866 104.882 34.902C105.998 34.938 107.114 35.1 107.618 33.912C108.248 32.436 108.698 30.816 109.13 29.286C109.58 27.702 109.922 26.064 110.048 24.426C110.156 23.148 110.21 22.122 108.788 21.78C107.546 21.474 105.836 21.33 104.864 22.338C104.216 23.004 104.378 24.318 105.494 24.228C105.818 24.156 105.818 23.616 105.476 23.652Z" fill="#E8E8E8"/>
  <path d="M103.296 25.5778C103.278 25.5598 103.26 25.5418 103.242 25.5238C103.17 25.4518 103.062 25.4338 102.972 25.4518C102.45 25.6318 102.252 26.4778 102.108 26.9458C101.856 27.8098 101.802 28.6918 101.928 29.5918C101.964 29.9338 102.504 29.9338 102.468 29.5918C102.396 28.9618 102.378 28.3498 102.486 27.7198C102.54 27.3958 103.098 26.1358 102.9 25.9558C103.152 26.2078 103.53 25.8298 103.296 25.5778Z" fill="#E8E8E8"/>
  <path d="M101.479 23.5978C99.823 25.7038 98.761 28.2418 99.463 30.9418C99.553 31.2838 100.075 31.1398 99.985 30.7978C99.337 28.3138 100.345 25.9198 101.857 23.9758C102.073 23.7058 101.695 23.3278 101.479 23.5978Z" fill="#E8E8E8"/>
  <path d="M99.21 21.1677C96.456 24.7857 95.16 29.3577 95.628 33.8937C95.664 34.2357 96.204 34.2357 96.168 33.8937C95.718 29.4477 96.96 25.0017 99.678 21.4377C99.876 21.1677 99.408 20.8977 99.21 21.1677Z" fill="#E8E8E8"/>
  <path d="M95.3764 39.5639C93.9904 40.2299 92.6944 41.1478 91.6684 42.2998C90.6244 43.4878 90.3004 44.7658 90.1384 46.3138C89.7784 49.8598 88.4644 53.7478 84.9004 55.2418C84.5764 55.3678 84.7204 55.8898 85.0444 55.7638C87.8884 54.5758 89.5444 51.8758 90.2464 48.9598C90.6604 47.2138 90.4624 45.1439 91.3804 43.5779C92.3164 41.9759 94.0084 40.8059 95.6464 40.0139C95.9704 39.8879 95.7004 39.4199 95.3764 39.5639Z" fill="#E8E8E8"/>
  <path d="M77.287 64.7996C76.099 64.8356 74.749 64.3316 74.317 63.1076C73.813 61.6676 74.893 60.2636 76.045 59.5256C78.277 58.0856 81.283 57.5276 83.875 57.4916C85.189 57.4736 86.683 57.4916 87.835 58.1936C89.311 59.0936 89.563 60.7856 88.411 62.0636C86.665 64.0076 83.659 64.2056 81.247 64.3856C80.905 64.4036 80.905 64.9436 81.247 64.9256C83.659 64.7456 86.359 64.5296 88.303 62.9096C90.085 61.4336 90.211 58.9856 88.123 57.7076C85.963 56.3936 82.669 56.8256 80.329 57.3296C78.079 57.8156 75.001 58.6976 73.993 61.0196C72.949 63.3956 74.947 65.3756 77.323 65.3036C77.647 65.3216 77.647 64.7816 77.287 64.7996Z" fill="#E8E8E8"/>
  <path d="M77.1958 65.0161C76.7458 65.7361 76.3138 66.4561 75.8638 67.1581C75.7198 67.3921 76.0078 67.6441 76.2418 67.5361C77.3398 66.9421 78.5278 66.5641 79.6438 66.0421C80.2558 65.7721 80.8498 65.4481 81.4258 65.0881C81.6238 64.9621 81.8578 64.8901 81.9118 64.6381C81.9478 64.5121 81.8758 64.3321 81.7318 64.3141C81.7138 64.3141 81.6958 64.3141 81.6778 64.2961C81.5518 64.2781 81.3718 64.3321 81.3538 64.4761C81.3538 64.4941 81.3538 64.4941 81.3538 64.5121C81.2818 64.8541 81.8038 64.9981 81.8758 64.6561C81.8758 64.6381 81.8758 64.6381 81.8758 64.6201C81.7678 64.6741 81.6598 64.7461 81.5518 64.8001C81.5698 64.8001 81.5878 64.8001 81.6058 64.8181C81.5518 64.7101 81.4798 64.6021 81.4258 64.4941C81.3718 64.6741 80.3638 65.0881 80.1478 65.2141C79.6078 65.5021 79.0498 65.7361 78.4738 65.9701C77.6278 66.3121 76.7998 66.6361 76.0078 67.0681C76.1338 67.1941 76.2598 67.3201 76.3858 67.4461C76.8358 66.7261 77.2678 66.0061 77.7178 65.3041C77.8438 64.9981 77.3758 64.7281 77.1958 65.0161Z" fill="#E8E8E8"/>
  <path d="M77.7907 61.9019C77.7727 61.8659 77.7728 61.7939 77.8268 61.7939C77.9708 61.7939 77.8087 61.9739 77.7907 61.9919C77.7007 62.0459 77.3947 62.1179 77.4127 61.9379C77.4307 61.7219 77.8448 61.4879 77.9168 61.8119C77.9348 61.9019 77.8627 62.0099 77.7727 62.0279C77.7187 62.0459 77.6828 62.0459 77.6468 62.0099C77.6288 61.9919 77.5928 61.9739 77.6288 61.9739C77.9708 61.9919 77.9708 61.4519 77.6288 61.4339C77.2688 61.3979 76.9988 61.7759 77.0888 62.1179C77.1788 62.4599 77.5748 62.6399 77.8988 62.5499C78.2228 62.4599 78.4748 62.1719 78.4748 61.8299C78.4748 61.4879 78.2048 61.1999 77.8988 61.1279C77.2328 60.9659 76.5308 61.9379 77.1068 62.4239C77.5748 62.8199 78.5108 62.4599 78.4568 61.7939C78.4208 61.4339 78.0248 61.1459 77.6648 61.2719C77.3048 61.3979 77.1607 61.8479 77.3407 62.1719C77.4847 62.4779 77.9527 62.2079 77.7907 61.9019Z" fill="#E8E8E8"/>
  <path d="M81.77 61.4157C81.752 61.3077 81.698 61.1637 81.806 61.0737C81.86 61.0197 81.95 61.0197 82.022 61.0197C82.202 61.0557 82.166 61.2537 82.04 61.3437C81.968 61.3977 81.896 61.3977 81.842 61.3257C81.788 61.2537 81.806 61.2357 81.86 61.1997C81.896 61.1817 81.788 61.1997 81.878 61.1817C82.094 61.1457 81.734 61.3977 81.788 61.2177C81.68 61.5597 82.202 61.6857 82.31 61.3617C82.4 61.0377 82.094 60.7137 81.77 60.7677C81.392 60.8397 81.302 61.2897 81.536 61.5597C81.752 61.8117 82.148 61.7577 82.31 61.4697C82.472 61.1817 82.364 60.8037 82.04 60.6957C81.716 60.5877 81.356 60.7857 81.284 61.1097C81.194 61.4697 81.446 61.8297 81.806 61.9197C82.454 62.0637 82.994 61.1817 82.526 60.6957C82.292 60.4617 81.914 60.4437 81.626 60.5697C81.23 60.7677 81.212 61.1817 81.284 61.5597C81.302 61.9017 81.824 61.7577 81.77 61.4157Z" fill="#E8E8E8"/>
  <path d="M85.7632 60.2098C85.8352 60.2098 85.9072 60.2278 85.9972 60.2278V60.2098C86.0152 60.1918 86.0152 60.1558 86.0332 60.1378C86.0512 60.1018 86.1052 60.0658 86.1412 60.0478C86.2312 60.0118 86.3212 60.0118 86.3752 60.1018C86.4472 60.2458 86.3212 60.5158 86.1412 60.4078C86.0332 60.3358 86.0152 60.1558 86.1772 60.1918C86.2132 60.1918 86.2312 60.2098 86.2492 60.2278C86.2492 60.2278 86.2492 60.2638 86.2492 60.2278C86.2492 60.1918 86.2492 60.2458 86.2312 60.2458C86.1772 60.2818 86.1592 60.3178 86.1052 60.2818C85.9792 60.1918 85.7992 60.2638 85.7272 60.3718C85.6552 60.5158 85.7092 60.6598 85.8172 60.7498C86.3392 61.1278 87.0412 60.3718 86.6272 59.8678C86.2492 59.4178 85.4392 59.7058 85.4752 60.2998C85.4932 60.6058 85.7272 60.8758 86.0152 60.9478C86.3032 61.0198 86.6092 60.8758 86.7712 60.6238C87.1312 60.0658 86.6272 59.2918 85.9612 59.5078C85.6552 59.6158 85.3852 59.9218 85.4212 60.2638C85.4572 60.6418 85.9972 60.8398 86.1952 60.4618C86.3752 60.1738 85.9252 59.9038 85.7632 60.2098Z" fill="#E8E8E8"/>
  <path d="M96.637 44.5139C98.851 43.2899 100.777 41.6699 102.379 39.7079C102.595 39.4379 102.217 39.0599 102.001 39.3299C100.435 41.2559 98.545 42.8399 96.367 44.0459C96.061 44.2079 96.331 44.6759 96.637 44.5139Z" fill="#E8E8E8"/>
  <path d="M123.566 44.9817C123.17 47.2497 123.008 49.5357 123.116 51.8397C123.134 52.1817 123.674 52.1817 123.656 51.8397C123.548 49.5897 123.692 47.3397 124.088 45.1257C124.142 44.7837 123.62 44.6397 123.566 44.9817Z" fill="#E8E8E8"/>
  <path d="M120.811 97.5957C120.811 94.8417 122.107 92.2317 124.321 90.5757C124.591 90.3777 124.321 89.9097 124.051 90.1077C121.675 91.8717 120.289 94.6257 120.289 97.5957C120.271 97.9377 120.811 97.9377 120.811 97.5957Z" fill="#E8E8E8"/>
  <path d="M150.962 170.28C151.25 172.872 151.7 175.716 152.42 178.794C153.392 182.952 154.634 186.588 155.876 189.648C155.534 189.954 154.508 190.764 152.996 190.872C152.042 190.944 151.286 190.71 150.854 190.548C150.206 188.298 149.576 185.958 149 183.528C147.812 178.524 146.948 173.754 146.318 169.308C147.884 169.632 149.432 169.956 150.962 170.28Z" fill="#191919"/>
  <path d="M191.372 168.588C191.138 171.162 190.742 174.024 190.076 177.102C189.14 181.458 187.898 185.238 186.638 188.424C186.818 188.586 187.844 189.558 189.428 189.486C190.796 189.432 191.678 188.622 191.894 188.424C192.308 186.246 192.704 184.05 193.1 181.854C193.964 177.048 194.738 172.314 195.476 167.634C194.108 167.94 192.74 168.264 191.372 168.588Z" fill="#191919"/>
  <path d="M159.188 161.406C159.602 164.16 160.088 167.004 160.646 169.92C161.456 174.15 162.374 178.182 163.346 181.998C162.932 182.25 162.104 182.664 160.97 182.736C160.016 182.79 159.26 182.574 158.828 182.412C158.288 179.856 157.766 177.264 157.244 174.672C156.29 169.866 155.408 165.132 154.562 160.452C156.11 160.758 157.64 161.082 159.188 161.406Z" fill="#191919"/>
  <path d="M184.586 160.866C184.1 163.584 183.668 166.428 183.29 169.38C182.768 173.448 182.408 177.336 182.192 181.044C182.498 181.242 183.218 181.656 184.244 181.71C185.342 181.746 186.152 181.314 186.458 181.134C186.278 179.01 186.206 176.652 186.314 174.132C186.53 168.534 187.556 163.71 188.69 159.912C187.322 160.218 185.954 160.542 184.586 160.866Z" fill="#191919"/>
  <path d="M216.572 100.638C219.722 106.254 217.292 112.464 211.388 127.89C208.544 135.306 203.342 148.932 195.998 168.354C188.78 170.982 176.828 174.222 162.05 173.196C153.464 172.602 146.264 170.748 140.81 168.84C140 167.382 137.192 161.928 139.298 156.636C140.468 153.702 142.826 151.596 147.83 149.112C152.762 146.664 161.456 143.226 174.092 142.596C169.142 117.954 177.62 97.7579 190.814 93.0959C199.472 90.0539 212.234 92.9159 216.572 100.638Z" fill="white" stroke="#191919" stroke-width="0.36" stroke-miterlimit="10"/>
  <path d="M215.419 102.672C210.199 109.278 209.011 118.152 207.013 126.09C204.871 134.586 202.405 143.064 198.715 151.038C196.681 155.412 194.287 159.624 191.425 163.512C191.227 163.8 191.695 164.07 191.893 163.782C196.915 156.942 200.461 149.184 203.197 141.192C205.969 133.056 207.805 124.668 209.965 116.37C211.189 111.654 212.755 106.938 215.815 103.068C216.013 102.78 215.635 102.402 215.419 102.672Z" fill="#191919"/>
  <path d="M140.918 164.934C152.924 169.344 166.01 170.64 178.646 168.678C182.264 168.12 185.846 167.292 189.356 166.212C189.68 166.104 189.554 165.582 189.212 165.69C176.972 169.47 163.832 170.046 151.304 167.382C147.83 166.644 144.392 165.636 141.062 164.412C140.738 164.286 140.594 164.808 140.918 164.934Z" fill="#191919"/>
  <path d="M183.182 150.786C186.206 151.776 188.78 153.774 190.508 156.474C190.688 156.762 191.156 156.492 190.976 156.204C189.176 153.396 186.494 151.308 183.326 150.264C182.984 150.156 182.84 150.678 183.182 150.786Z" fill="#191919"/>
  <path d="M129.039 174.096C130.479 176.256 131.919 178.434 133.341 180.594C124.125 188.874 122.937 191.232 123.621 191.808C124.989 192.942 134.799 187.902 135.807 187.38C139.461 185.508 142.215 183.69 144.051 182.394C143.403 180.63 142.539 178.65 141.351 176.562C139.785 173.808 138.057 171.486 136.419 169.596C133.953 171.072 131.487 172.584 129.039 174.096Z" fill="#191919"/>
  <path d="M182.894 131.67C183.542 133.074 184.226 135.072 184.334 137.484C184.496 141.12 183.308 144.018 182.408 145.692C181.922 146.322 181.058 147.366 179.78 148.5C179.78 148.5 176.882 151.056 172.274 153.018C167.576 155.034 153.914 157.464 135.356 157.932C135.896 160.236 136.868 163.062 138.596 166.104C139.55 167.778 140.594 169.254 141.62 170.532C140.936 171.432 138.992 173.718 135.122 175.158C131.396 176.544 127.976 176.382 126.626 176.274C124.682 174.492 122.684 172.368 120.83 169.83C115.376 162.324 114.098 155.07 113.864 150.408C115.214 149.436 117.194 148.104 119.786 146.682C125.186 143.712 130.136 142.092 134.204 140.886C141.206 138.834 147.902 137.412 163.31 134.802C168.134 133.992 174.812 132.876 182.894 131.67Z" fill="white" stroke="#191919" stroke-width="0.36" stroke-miterlimit="10"/>
  <path opacity="0.19" d="M165.793 134.766C165.271 138.204 163.795 142.668 159.223 145.44C154.777 148.14 151.051 147.042 142.141 149.202C135.733 150.75 127.255 152.802 124.897 157.356C122.431 162.144 127.093 168.894 135.247 174.438C135.931 174.348 136.795 174.168 137.713 173.808C140.071 172.872 141.223 171.342 141.655 170.676C140.611 169.416 139.531 167.958 138.541 166.284C136.669 163.152 135.661 160.236 135.085 157.878C144.625 157.482 152.635 156.654 158.719 155.862C166.045 154.908 171.121 153.954 175.963 151.218C180.013 148.932 181.633 146.682 182.209 145.818C183.955 143.172 184.099 140.76 184.171 139.41C184.351 136.116 183.271 133.434 182.371 131.742C176.845 132.75 171.319 133.758 165.793 134.766Z" fill="#6C6D6D"/>
  <path opacity="0.19" d="M182.552 132.12C182.192 135.468 180.914 140.76 175.82 144.936C172.688 147.51 169.322 148.662 156.11 152.226C150.278 153.792 143.222 155.646 135.194 157.662C145.4 157.554 153.698 156.708 159.656 155.898C165.83 155.052 168.854 154.314 171.986 152.964C174.956 151.686 180.95 149.094 183.398 143.64C185.756 138.348 183.38 133.596 182.552 132.12Z" fill="#6C6D6D"/>
  <path opacity="0.22" d="M135.248 157.932C135.176 160.308 135.284 163.026 135.734 166.014C136.166 168.966 136.868 171.612 137.624 173.916C138.236 173.556 138.938 173.07 139.622 172.476C140.45 171.756 141.062 171.072 141.512 170.478C140.468 169.11 139.406 167.526 138.416 165.744C136.814 162.864 135.86 160.2 135.248 157.932Z" fill="#6C6D6D"/>
  <path d="M134.421 184.428C135.807 187.146 137.175 189.864 138.561 192.6C129.705 203.004 128.553 205.956 129.219 206.676C130.533 208.116 139.965 201.762 140.937 201.114C144.447 198.756 147.111 196.47 148.875 194.85C148.245 192.636 147.417 190.152 146.265 187.506C144.771 184.05 143.097 181.134 141.531 178.74C139.155 180.648 136.779 182.538 134.421 184.428Z" fill="#191919"/>
  <path d="M186.188 131.112C186.818 132.894 187.466 135.378 187.574 138.42C187.736 142.992 186.584 146.628 185.72 148.734C185.252 149.526 184.424 150.84 183.2 152.28C183.2 152.28 180.428 155.502 176 157.968C171.482 160.488 158.342 163.566 140.522 164.142C141.044 167.04 141.962 170.586 143.636 174.402C144.554 176.508 145.562 178.362 146.552 179.964C145.904 181.098 144.032 183.96 140.306 185.778C136.724 187.524 133.448 187.326 132.134 187.164C130.262 184.932 128.336 182.25 126.572 179.064C121.316 169.632 120.092 160.506 119.876 154.656C121.172 153.45 123.08 151.758 125.564 149.976C130.766 146.25 135.5 144.198 139.424 142.686C146.138 140.112 152.6 138.33 167.414 135.036C171.986 134.01 178.43 132.624 186.188 131.112Z" fill="white" stroke="#191919" stroke-width="0.36" stroke-miterlimit="10"/>
  <path opacity="0.19" d="M169.755 135C169.251 139.32 167.829 144.918 163.437 148.41C159.171 151.812 155.571 150.426 147.021 153.144C140.865 155.088 132.711 157.68 130.443 163.404C128.067 169.416 132.549 177.912 140.379 184.86C141.045 184.752 141.873 184.518 142.755 184.068C145.023 182.898 146.121 180.972 146.535 180.126C145.527 178.542 144.483 176.706 143.529 174.6C141.729 170.658 140.757 167.004 140.217 164.034C149.397 163.53 157.083 162.504 162.951 161.514C170.007 160.326 174.867 159.12 179.529 155.682C183.417 152.802 184.983 149.976 185.523 148.896C187.197 145.566 187.341 142.542 187.413 140.85C187.575 136.71 186.549 133.344 185.685 131.22C180.375 132.462 175.065 133.722 169.755 135Z" fill="#6C6D6D"/>
  <path opacity="0.19" d="M185.847 131.67C185.505 135.864 184.281 142.524 179.385 147.78C176.361 151.02 173.139 152.46 160.449 156.942C154.833 158.922 148.065 161.244 140.343 163.782C150.153 163.638 158.145 162.594 163.869 161.568C169.809 160.506 172.725 159.588 175.713 157.896C178.575 156.276 184.317 153.036 186.693 146.16C188.943 139.5 186.657 133.542 185.847 131.67Z" fill="#6C6D6D"/>
  <path opacity="0.22" d="M140.397 164.124C140.325 167.112 140.433 170.532 140.865 174.276C141.297 178.002 141.945 181.314 142.683 184.194C143.277 183.726 143.943 183.132 144.609 182.376C145.401 181.476 145.995 180.612 146.427 179.874C145.419 178.146 144.393 176.166 143.457 173.916C141.909 170.316 140.973 166.95 140.397 164.124Z" fill="#6C6D6D"/>
  <path d="M133.394 103.14C133.052 102.978 132.368 102.672 132.386 102.33C132.422 101.772 134.276 101.394 135.662 101.412C136.598 101.412 138.326 101.61 140.342 103.014C138.452 103.608 135.662 104.148 133.394 103.14Z" fill="white" stroke="#191919" stroke-width="0.36" stroke-miterlimit="10"/>
  <path d="M176.685 79.794C173.265 79.344 170.187 84.474 169.899 84.942C168.855 86.724 168.729 87.912 168.009 91.17C166.263 99.108 165.327 103.14 162.735 105.57C160.395 107.748 157.659 108.27 156.939 108.378C153.861 108.864 151.071 107.712 145.635 105.39C141.045 103.428 140.487 102.708 137.985 102.42C136.707 102.276 132.981 101.862 130.515 104.256C128.931 105.786 128.229 108.234 128.805 108.738C129.543 109.386 132.567 107.1 132.603 107.154C132.621 107.19 131.703 107.622 130.947 108.558C130.569 109.008 129.921 109.98 130.155 110.232C130.569 110.736 133.107 107.676 135.897 108.216C137.805 108.576 138.165 110.304 140.379 110.628C141.675 110.826 142.809 110.43 143.529 110.088C144.789 111.456 146.841 113.4 149.811 114.984C151.575 115.92 157.803 119.142 165.417 117.27C173.499 115.29 177.567 108.972 178.845 106.992C179.565 105.858 184.857 97.398 182.301 87.912C181.851 86.382 180.213 80.262 176.685 79.794Z" fill="white" stroke="#191919" stroke-width="0.36" stroke-miterlimit="10"/>
  <path opacity="0.25" d="M176.325 79.8479C175.155 80.4599 177.423 84.7079 177.135 90.7919C176.865 96.6419 174.363 100.962 173.247 102.942C171.735 105.588 169.737 109.044 165.759 111.294C160.413 114.318 153.789 113.868 149.073 111.816C147.669 111.204 146.247 109.224 143.151 108.018C141.801 107.496 140.739 107.28 139.497 107.028C136.455 106.434 133.755 105.894 131.253 107.154C130.065 107.766 129.075 108.702 129.147 108.828C129.219 108.954 130.605 108.252 131.829 107.586C130.353 109.548 130.119 110.106 130.227 110.214C130.353 110.322 130.803 109.908 131.955 109.26C133.197 108.576 134.097 108.09 135.195 108.18C135.753 108.234 136.185 108.414 136.437 108.522C137.427 108.954 137.661 109.458 138.651 109.962C139.263 110.268 139.767 110.394 140.037 110.448C140.613 110.574 141.801 110.736 143.367 110.178C144.735 111.618 151.017 117.99 160.215 117.864C164.949 117.792 168.423 116.028 169.791 115.326C177.297 111.42 180.285 104.49 181.041 102.582C183.381 96.6779 184.209 87.9299 179.925 82.4399C178.899 81.1079 177.135 79.4339 176.325 79.8479Z" fill="#6C6D6D"/>
  <path d="M129.128 108.738C129.83 107.694 130.748 106.866 131.846 106.272C132.08 106.146 131.864 105.804 131.648 105.93C130.496 106.56 129.524 107.442 128.786 108.54C128.624 108.756 128.984 108.954 129.128 108.738Z" fill="#191919"/>
  <path d="M129.345 106.415C130.047 105.317 131.181 104.741 132.315 104.183C132.549 104.075 132.351 103.715 132.117 103.841C130.911 104.417 129.723 105.047 128.985 106.217C128.859 106.433 129.201 106.631 129.345 106.415Z" fill="#191919"/>
  <path opacity="0.29" d="M181.492 86.3279C181.222 88.1459 180.736 90.7739 179.872 93.8699C178.18 99.9899 176.65 105.498 172.654 109.872C167.704 115.272 160.99 116.748 157.138 117.198C160 117.864 162.25 117.738 163.672 117.54C174.472 116.028 180.304 104.418 181.888 99.3419C182.158 98.4419 182.734 96.5879 182.806 94.0499C182.932 90.6659 182.104 87.9479 181.492 86.3279Z" fill="#6C6D6D"/>
  <path opacity="0.26" d="M136.257 108C137.283 108.504 138.687 109.062 140.415 109.386C141.783 109.638 143.007 109.692 143.979 109.656C141.513 110.97 140.235 110.808 139.515 110.376C139.065 110.106 138.561 109.566 137.175 108.612C136.797 108.342 136.473 108.126 136.257 108Z" fill="#6C6D6D"/>
  <path d="M99.8604 137.592C99.8604 146.232 99.8604 154.89 99.8604 163.53C99.8604 164.574 101.48 164.574 101.48 163.53C101.48 154.89 101.48 146.232 101.48 137.592C101.48 136.566 99.8604 136.548 99.8604 137.592Z" fill="#161616"/>
  <path d="M129.309 137.25C129.309 138.636 129.309 140.022 129.309 141.408C129.309 142.452 130.929 142.452 130.929 141.408C130.929 140.022 130.929 138.636 130.929 137.25C130.929 136.206 129.309 136.206 129.309 137.25Z" fill="#161616"/>
  <path d="M77.5049 136.53C86.2349 128.304 94.9649 120.06 103.713 111.834C117.843 112.086 131.955 112.338 146.085 112.59C143.781 120.582 141.477 128.556 139.173 136.548C118.617 136.53 98.0609 136.53 77.5049 136.53Z" fill="white" stroke="#191919" stroke-width="0.36" stroke-miterlimit="10"/>
  <path d="M78.0281 137.466C93.8141 137.466 109.582 137.466 125.368 137.466C129.796 137.466 134.206 137.466 138.634 137.466C139.678 137.466 139.678 135.846 138.634 135.846C122.848 135.846 107.08 135.846 91.2941 135.846C86.8661 135.846 82.4561 135.846 78.0281 135.846C76.9841 135.846 76.9841 137.466 78.0281 137.466Z" fill="#161616"/>
  <path d="M82.6533 137.196C82.6533 155.106 82.6533 173.016 82.6533 190.908C82.6533 195.93 82.6533 200.934 82.6533 205.956C82.6533 207 84.2733 207 84.2733 205.956C84.2733 188.046 84.2733 170.136 84.2733 152.244C84.2733 147.222 84.2733 142.218 84.2733 137.196C84.2733 136.152 82.6533 136.152 82.6533 137.196Z" fill="#161616"/>
  <path d="M132.026 137.196C132.026 155.106 132.026 173.016 132.026 190.908C132.026 195.93 132.026 200.934 132.026 205.956C132.026 207 133.646 207 133.646 205.956C133.646 188.046 133.646 170.136 133.646 152.244C133.646 147.222 133.646 142.218 133.646 137.196C133.646 136.152 132.026 136.152 132.026 137.196Z" fill="#161616"/>
  <path d="M83.4627 170.622C96.1707 170.622 108.879 170.622 121.587 170.622C125.187 170.622 128.787 170.622 132.387 170.622C133.431 170.622 133.431 169.002 132.387 169.002C119.679 169.002 106.971 169.002 94.2627 169.002C90.6627 169.002 87.0627 169.002 83.4627 169.002C82.4187 169.002 82.4187 170.622 83.4627 170.622Z" fill="#161616"/>
  <path d="M145.869 112.59C143.817 120.6 141.459 128.538 138.759 136.35C138.525 137.016 139.569 137.286 139.803 136.638C142.503 128.808 144.861 120.888 146.913 112.878C147.075 112.212 146.049 111.924 145.869 112.59Z" fill="#161616"/>
  <path d="M59.6834 207.72C69.2414 207.72 78.7814 207.72 88.3394 207.72C89.3834 207.72 89.3834 206.1 88.3394 206.1C78.7814 206.1 69.2414 206.1 59.6834 206.1C58.6394 206.1 58.6394 207.72 59.6834 207.72Z" fill="#161616"/>
  <path d="M92.3553 207.36C94.5513 207.36 96.7653 207.36 98.9613 207.36C100.005 207.36 100.005 205.74 98.9613 205.74C96.7653 205.74 94.5513 205.74 92.3553 205.74C91.3113 205.74 91.3113 207.36 92.3553 207.36Z" fill="#161616"/>
  <path d="M121.01 207.595C129.614 207.595 138.218 207.595 146.84 207.595C147.884 207.595 147.884 205.975 146.84 205.975C138.236 205.975 129.632 205.975 121.01 205.975C119.966 205.975 119.966 207.595 121.01 207.595Z" fill="#161616"/>
  <path d="M152.726 207.018C154.256 207.018 155.786 207.018 157.334 207.018C158.378 207.018 158.378 205.398 157.334 205.398C155.804 205.398 154.274 205.398 152.726 205.398C151.682 205.398 151.682 207.018 152.726 207.018Z" fill="#161616"/>
  <path d="M51.0096 202.014C54.7356 202.014 58.4616 202.014 62.1696 202.014C63.2136 202.014 63.2136 200.394 62.1696 200.394C58.4436 200.394 54.7176 200.394 51.0096 200.394C49.9656 200.394 49.9656 202.014 51.0096 202.014Z" fill="#161616"/>
  <path d="M129.74 133.128C118.634 132.84 107.51 132.57 96.4043 132.282C102.992 125.982 109.562 119.664 116.15 113.364C123.746 113.76 131.36 114.156 138.956 114.552C135.878 120.762 132.818 126.936 129.74 133.128Z" fill="white" stroke="#191919" stroke-width="0.36" stroke-miterlimit="10"/>
  <path d="M115.772 113.238C109.31 119.484 102.848 125.748 96.3859 131.994C96.0979 121.986 95.7919 111.96 95.5039 101.952C102.056 97.8122 108.608 93.6722 115.16 89.5322C115.34 97.4342 115.556 105.336 115.772 113.238Z" fill="white" stroke="#191919" stroke-width="0.36" stroke-miterlimit="10"/>
  <path d="M96.0966 102.906C96.6186 111.816 96.9606 120.744 97.1406 129.672C97.1406 129.852 97.4106 129.852 97.4106 129.672C97.2306 120.744 96.8886 111.816 96.3666 102.906C96.3486 102.744 96.0786 102.744 96.0966 102.906Z" fill="#191919"/>
  <path d="M96.2403 102.942C102.27 99.0183 108.3 95.0943 114.33 91.1703C114.474 91.0803 114.348 90.8463 114.186 90.9363C108.156 94.8603 102.126 98.7843 96.0963 102.708C95.9523 102.816 96.0783 103.05 96.2403 102.942Z" fill="#191919"/>
  <path d="M114.26 91.1525C114.242 98.3345 114.458 105.535 114.926 112.699C114.944 112.879 115.214 112.879 115.196 112.699C114.746 105.517 114.512 98.3345 114.53 91.1525C114.53 90.9905 114.26 90.9905 114.26 91.1525Z" fill="#191919"/>
  <path d="M97.32 130.05C103.224 124.344 109.146 118.638 115.05 112.95C115.176 112.824 114.978 112.644 114.852 112.752C108.948 118.458 103.026 124.164 97.122 129.852C97.014 129.978 97.194 130.176 97.32 130.05Z" fill="#191919"/>
  <path d="M124.662 126.991C125.76 125.245 126.858 123.481 127.92 121.699C128.01 121.555 127.776 121.411 127.686 121.555C126.624 123.337 125.526 125.101 124.428 126.847C124.32 126.991 124.554 127.135 124.662 126.991Z" fill="#191919"/>
  <path d="M127.851 121.644C129.273 121.698 130.695 121.698 132.117 121.626C132.297 121.626 132.297 121.356 132.117 121.356C130.695 121.41 129.273 121.41 127.851 121.374C127.671 121.374 127.671 121.644 127.851 121.644Z" fill="#191919"/>
  <path d="M131.938 121.554C131.128 123.318 130.3 125.082 129.472 126.846C129.4 127.008 129.634 127.134 129.706 126.99C130.534 125.226 131.362 123.462 132.172 121.698C132.244 121.518 132.01 121.392 131.938 121.554Z" fill="#191919"/>
  <path d="M124.575 127.134C126.159 127.368 127.833 127.26 129.435 127.188C129.615 127.188 129.615 126.918 129.435 126.918C127.869 126.99 126.213 127.098 124.647 126.882C124.467 126.846 124.395 127.116 124.575 127.134Z" fill="#191919"/>
  <path d="M130.479 121.572C129.759 123.372 128.931 125.118 127.995 126.81C127.905 126.954 128.139 127.098 128.229 126.954C129.165 125.226 130.011 123.462 130.749 121.644C130.803 121.482 130.551 121.41 130.479 121.572Z" fill="#191919"/>
  <path d="M104.397 129.726C108.357 124.83 112.461 120.042 116.691 115.362C116.799 115.236 116.619 115.038 116.493 115.164C112.263 119.826 108.159 124.614 104.199 129.528C104.091 129.672 104.289 129.852 104.397 129.726Z" fill="#191919"/>
  <path d="M109.185 130.032C112.731 125.082 116.475 120.294 120.399 115.65C120.507 115.524 120.327 115.326 120.201 115.452C116.259 120.114 112.515 124.92 108.951 129.888C108.843 130.032 109.077 130.176 109.185 130.032Z" fill="#191919"/>
  <path d="M114.331 130.77C117.409 125.622 120.775 120.654 124.411 115.884C124.519 115.74 124.285 115.614 124.177 115.74C120.541 120.51 117.175 125.478 114.097 130.626C114.007 130.77 114.241 130.914 114.331 130.77Z" fill="#191919"/>
  <path d="M118.653 131.22C121.677 125.586 125.259 120.276 129.363 115.38C129.471 115.254 129.291 115.056 129.165 115.182C125.043 120.096 121.443 125.424 118.401 131.076C118.329 131.238 118.563 131.382 118.653 131.22Z" fill="#191919"/>
  <path d="M106.701 126.81C111.309 126.324 115.917 126.9 120.507 127.512C120.687 127.53 120.669 127.26 120.507 127.242C115.935 126.63 111.327 126.036 106.701 126.54C106.539 126.558 106.539 126.828 106.701 126.81Z" fill="#191919"/>
  <path d="M109.022 124.182C113.378 124.02 117.734 124.344 122.018 125.172C122.18 125.208 122.252 124.938 122.09 124.92C117.788 124.092 113.396 123.768 109.022 123.93C108.86 123.912 108.86 124.182 109.022 124.182Z" fill="#191919"/>
  <path d="M111.111 121.644C115.305 121.374 119.499 121.752 123.585 122.76C123.747 122.796 123.819 122.544 123.657 122.508C119.553 121.482 115.341 121.104 111.111 121.374C110.931 121.392 110.931 121.662 111.111 121.644Z" fill="#191919"/>
  <path d="M113.27 119.106C117.302 119.124 121.298 119.538 125.24 120.348C125.402 120.384 125.474 120.114 125.312 120.096C121.352 119.286 117.32 118.872 113.27 118.854C113.108 118.836 113.108 119.106 113.27 119.106Z" fill="#191919"/>
  <path d="M115.413 116.748C119.247 116.82 123.063 117.27 126.789 118.116C126.951 118.152 127.023 117.9 126.861 117.864C123.099 117.018 119.265 116.55 115.413 116.496C115.233 116.478 115.233 116.748 115.413 116.748Z" fill="#191919"/>
  <path d="M127.759 119.484C125.995 122.076 124.249 124.668 122.485 127.26C122.395 127.404 122.629 127.548 122.719 127.404C124.483 124.812 126.229 122.22 127.993 119.628C128.101 119.466 127.867 119.34 127.759 119.484Z" fill="#191919"/>
  <path d="M97.9522 115.56C100.202 114.606 102.632 115.146 105.008 115.11C107.006 115.092 108.914 114.534 110.624 113.526C110.768 113.436 110.642 113.202 110.48 113.292C108.374 114.534 106.142 114.93 103.73 114.822C101.714 114.732 99.7162 114.534 97.8082 115.344C97.6642 115.398 97.7902 115.632 97.9522 115.56Z" fill="#191919"/>
  <path d="M104.019 114.444C107.871 112.266 109.653 107.676 113.667 105.75C113.829 105.678 113.685 105.444 113.523 105.516C109.491 107.46 107.727 112.032 103.875 114.21C103.731 114.3 103.857 114.534 104.019 114.444Z" fill="#191919"/>
  <path d="M108.915 101.61C108.249 101.088 108.357 100.242 108.735 99.5756C108.915 99.2516 109.185 98.9096 109.491 98.7116C110.049 98.3516 110.571 98.6396 111.003 99.0176C111.129 99.1256 111.327 98.9456 111.201 98.8196C110.301 98.0636 109.455 98.1356 108.717 99.1076C108.123 99.8996 107.817 101.088 108.717 101.808C108.861 101.916 109.059 101.718 108.915 101.61Z" fill="#191919"/>
  <path d="M164.354 88.4518C159.422 93.9238 158.09 99.9358 157.37 103.338C156.056 109.638 157.442 112.158 157.532 124.128C157.568 129.222 157.352 133.344 157.19 135.936C158.306 136.8 165.218 141.948 174.452 140.256C181.292 139.014 185.414 134.73 186.71 133.272C187.016 131.562 187.448 129.042 187.952 125.982C190.616 109.476 191.93 101.106 190.274 95.1118C189.284 91.4758 186.836 85.7158 179.888 79.7578C176.972 80.3698 169.97 82.2418 164.354 88.4518Z" fill="#EC615B"/>
  <path opacity="0.19" d="M169.374 85.14C171.084 90.252 172.002 94.626 172.542 97.83C173.964 106.308 176.106 119.016 170.076 131.328C168.15 135.252 165.9 138.132 164.316 139.914C166.404 140.4 170.544 141.066 175.476 139.788C181.344 138.276 185.016 134.874 186.528 133.326C187.698 126.63 188.634 120.888 189.354 116.406C190.596 108.522 190.884 106.128 190.758 102.762C190.614 98.442 190.416 93.906 187.824 89.01C185.34 84.33 181.848 81.522 179.706 80.082C177.96 80.388 175.494 81.036 172.884 82.548C171.444 83.412 170.274 84.33 169.374 85.14Z" fill="#6C6D6D"/>
  <path opacity="0.18" d="M189.823 93.7261C189.499 93.7441 190.183 98.7301 189.121 105.606C187.159 118.332 180.859 127.152 178.429 130.284C176.395 132.894 173.209 136.494 168.547 140.04C170.221 140.292 172.453 140.4 175.009 139.914C181.075 138.78 184.927 135.054 186.403 133.452C186.781 131.256 187.393 127.818 188.167 123.57C189.985 113.634 190.345 112.446 190.633 109.35C191.425 100.908 190.201 93.7261 189.823 93.7261Z" fill="#6C6D6D"/>
  <path d="M132.638 107.1C132.296 106.866 131.612 106.434 131.684 106.074C131.828 105.498 133.898 105.408 135.392 105.66C136.4 105.822 138.236 106.344 140.162 108.162C138.002 108.468 134.888 108.558 132.638 107.1Z" fill="white" stroke="#191919" stroke-width="0.36" stroke-miterlimit="10"/>
  <path d="M183.452 89.8561C179.834 88.7941 175.604 93.6721 175.226 94.1401C173.786 95.8501 173.444 97.0741 172.094 100.386C168.818 108.486 167.108 112.572 163.868 114.696C160.97 116.604 157.928 116.676 157.118 116.676C153.716 116.658 150.908 114.966 145.436 111.582C140.828 108.72 140.36 107.856 137.696 107.136C136.346 106.776 132.386 105.696 129.308 107.802C127.346 109.134 126.14 111.618 126.68 112.248C127.364 113.058 131.036 111.15 131.054 111.222C131.072 111.258 129.992 111.564 129.02 112.428C128.534 112.842 127.67 113.742 127.868 114.066C128.228 114.678 131.504 111.87 134.42 112.914C136.4 113.616 136.508 115.506 138.83 116.244C140.198 116.676 141.494 116.442 142.322 116.208C143.438 117.882 145.328 120.276 148.244 122.454C149.99 123.75 156.146 128.214 164.696 127.548C173.768 126.846 179.276 120.852 180.986 118.998C181.976 117.936 189.158 109.89 188.06 99.4141C187.898 97.7041 187.196 90.9721 183.452 89.8561Z" fill="white" stroke="#191919" stroke-width="0.36" stroke-miterlimit="10"/>
  <path opacity="0.25" d="M183.056 89.8563C181.688 90.3063 183.398 95.1843 182.012 101.574C180.698 107.712 177.242 111.852 175.676 113.742C173.57 116.28 170.816 119.592 166.118 121.284C159.818 123.552 152.744 121.95 148.01 118.98C146.606 118.08 145.418 115.758 142.268 113.94C140.9 113.148 139.802 112.752 138.488 112.266C135.32 111.114 132.476 110.07 129.578 110.988C128.192 111.42 126.95 112.248 127.022 112.392C127.094 112.554 128.696 112.032 130.136 111.546C128.21 113.364 127.85 113.922 127.94 114.066C128.048 114.21 128.624 113.832 129.974 113.364C131.45 112.842 132.476 112.5 133.664 112.788C134.258 112.932 134.69 113.202 134.96 113.364C135.95 113.976 136.112 114.57 137.084 115.272C137.678 115.704 138.218 115.92 138.506 116.028C139.1 116.262 140.36 116.64 142.142 116.316C143.366 118.08 149.036 125.892 158.99 127.332C164.12 128.07 168.17 126.81 169.772 126.288C178.556 123.444 183.002 116.64 184.154 114.75C187.718 108.918 190.148 99.8103 186.476 93.2583C185.612 91.6203 183.992 89.5503 183.056 89.8563Z" fill="#6C6D6D"/>
  <path d="M127.005 112.302C127.959 111.312 129.075 110.592 130.371 110.16C130.623 110.07 130.515 109.692 130.263 109.764C128.913 110.232 127.707 110.988 126.717 112.014C126.537 112.212 126.825 112.5 127.005 112.302Z" fill="#191919"/>
  <path d="M127.653 109.89C128.607 108.828 129.939 108.414 131.271 108.036C131.523 107.964 131.415 107.568 131.163 107.64C129.777 108.054 128.373 108.504 127.383 109.602C127.185 109.8 127.473 110.07 127.653 109.89Z" fill="#191919"/>
  <path opacity="0.29" d="M187.502 97.5962C186.89 99.4682 185.9 102.168 184.442 105.3C181.544 111.474 178.934 117.036 173.84 120.978C167.558 125.838 160.034 126.252 155.804 126.054C158.774 127.26 161.24 127.512 162.806 127.548C174.722 127.8 183.074 116.514 185.666 111.438C186.116 110.538 187.052 108.666 187.592 106.002C188.294 102.42 187.88 99.4142 187.502 97.5962Z" fill="#6C6D6D"/>
  <path opacity="0.26" d="M134.852 112.734C135.86 113.436 137.282 114.264 139.1 114.912C140.54 115.416 141.854 115.668 142.898 115.794C140 116.748 138.65 116.37 137.948 115.794C137.516 115.434 137.066 114.768 135.716 113.526C135.374 113.184 135.068 112.914 134.852 112.734Z" fill="#6C6D6D"/>
  <path d="M155.552 53.55C155.354 54.702 155.156 55.854 154.994 57.06C154.292 61.956 154.004 66.582 153.986 70.884C154.976 70.776 155.948 70.668 156.938 70.578C156.83 71.532 156.524 75.024 158.756 78.48C160.862 81.738 163.886 82.926 164.822 83.25C164.714 85.014 164.624 86.76 164.516 88.524C166.46 86.796 169.106 84.762 172.472 82.944C175.046 81.558 177.476 80.604 179.546 79.956C177.224 77.076 176.342 74.358 175.964 72.792C175.316 70.092 175.442 67.77 175.568 65.718C175.694 63.612 176 61.866 176.27 60.642C177.116 56.79 174.902 50.688 170.492 48.492C166.136 46.314 159.638 48.15 155.552 53.55Z" fill="white" stroke="#161616" stroke-width="0.36" stroke-miterlimit="10"/>
  <path d="M156.525 70.7038C157.029 70.6318 157.551 70.5778 158.055 70.5238C158.235 70.5058 158.235 70.2358 158.055 70.2538C157.515 70.3078 156.993 70.3798 156.453 70.4518C156.291 70.4518 156.363 70.7218 156.525 70.7038Z" fill="#161616"/>
  <path d="M172.76 56.3398C170.582 56.8978 170.186 58.7878 167.432 62.7298C164.642 66.7258 162.878 69.2278 159.728 70.6858C157.694 71.6218 156.686 71.3698 155.786 72.5758C154.238 74.6638 155.282 78.1018 156.2 79.8658C157.262 81.8998 158.882 83.1238 160.214 84.1318C161.492 85.0858 162.662 85.7158 163.49 86.0938C162.608 84.7438 162.554 84.3298 162.662 84.2038C162.95 83.9158 164.174 85.4638 165.614 85.2658C166.028 85.2118 166.766 84.9778 168.404 82.4038C169.52 80.6578 170.276 79.4518 170.78 77.7238C171.878 74.0158 170.33 73.0078 170.78 68.1298C170.852 67.3918 171.356 61.6138 173.408 61.2358C174.146 61.0918 174.902 61.7038 175.262 62.1718C176.018 63.1618 175.928 64.7458 174.992 66.1138C175.298 65.8978 178.232 63.9178 178.196 60.6958C178.196 60.1918 178.178 58.3378 176.774 57.1318C175.172 55.7638 172.94 56.3038 172.76 56.3398Z" fill="#161616" stroke="#161616" stroke-width="0.36" stroke-miterlimit="10"/>
  <path d="M158.252 64.5298C158.67 64.5298 159.008 63.9254 159.008 63.1798C159.008 62.4342 158.67 61.8298 158.252 61.8298C157.835 61.8298 157.496 62.4342 157.496 63.1798C157.496 63.9254 157.835 64.5298 158.252 64.5298Z" fill="#161616"/>
  <path d="M152.492 65.1597C152.91 65.1597 153.248 64.5553 153.248 63.8097C153.248 63.0641 152.91 62.4597 152.492 62.4597C152.075 62.4597 151.736 63.0641 151.736 63.8097C151.736 64.5553 152.075 65.1597 152.492 65.1597Z" fill="#161616"/>
  <path d="M151.359 61.5961C151.845 61.0381 152.601 60.9841 153.141 61.5241C153.393 61.7761 153.771 61.3801 153.519 61.1461C152.781 60.4261 151.647 60.4441 150.963 61.2181C150.765 61.4881 151.143 61.8661 151.359 61.5961Z" fill="#161616"/>
  <path d="M157.261 60.6597C157.891 60.1377 158.719 60.2097 159.259 60.8037C159.493 61.0557 159.871 60.6777 159.637 60.4257C158.881 59.6157 157.711 59.5797 156.865 60.2817C156.613 60.4977 156.991 60.8757 157.261 60.6597Z" fill="#161616"/>
  <path d="M154.939 55.692C155.137 54.396 155.641 52.272 157.027 50.076C157.513 49.302 158.557 47.664 160.213 46.548C163.381 44.442 168.259 44.604 171.805 47.196C175.279 49.734 177.007 54.27 176.251 58.77C169.141 57.762 162.049 56.736 154.939 55.692Z" fill="#5222D0"/>
  <path d="M143.311 55.8539C154.237 57.2579 165.181 58.6619 176.107 60.0479C177.133 60.1739 177.133 58.5539 176.107 58.4279C165.181 57.0239 154.237 55.6199 143.311 54.2339C142.285 54.0899 142.285 55.7099 143.311 55.8539Z" fill="#161616"/>
  <path d="M164.192 45.2341C167 45.8461 169.124 48.1141 169.484 50.8321C169.808 53.2081 168.764 55.6201 166.784 57.0961C169.898 57.5101 173.03 57.9421 176.144 58.3561C176.306 57.5281 176.45 56.2681 176.252 54.7921C175.784 51.3361 173.786 49.1221 173.138 48.4561C172.436 47.7361 169.952 45.3241 166.262 45.1081C165.416 45.0721 164.696 45.1441 164.192 45.2341Z" fill="#321693"/>
</svg>
